<?xml version="1.0" standalone="no"?>
<!DOCTYPE svg PUBLIC "-//W3C//DTD SVG 1.1//EN" "http://www.w3.org/Graphics/SVG/1.1/DTD/svg11.dtd" >
<svg xmlns="http://www.w3.org/2000/svg" xmlns:xlink="http://www.w3.org/1999/xlink" version="1.1">
<metadata>
Created by FontForge 20170731 at Fri Apr 14 16:19:14 2017
 By Aleksey,,,
Cyrillic adaptation by He Rez AD. Copyright: Typeface (c) (your company). 2015. All Rights Reserved
</metadata>
<defs>
<font id="BobzTypeCyrillic" horiz-adv-x="1638" >
  <font-face 
    font-family="Bobz Type Cyrillic"
    font-weight="400"
    font-stretch="normal"
    units-per-em="2048"
    panose-1="2 0 5 0 0 0 0 0 0 0"
    ascent="1638"
    descent="-410"
    x-height="1459"
    cap-height="1460"
    bbox="20 -418 2226 1989"
    underline-thickness="150"
    underline-position="-442"
    unicode-range="U+0020-FFFC"
  />
<missing-glyph horiz-adv-x="0" 
 />
    <glyph glyph-name=".notdef" horiz-adv-x="0" 
 />
    <glyph glyph-name=".null" horiz-adv-x="0" 
 />
    <glyph glyph-name="nonmarkingreturn" horiz-adv-x="508" 
 />
    <glyph glyph-name="space" unicode=" " horiz-adv-x="508" 
 />
    <glyph glyph-name="space" unicode="&#xa0;" horiz-adv-x="508" 
 />
    <glyph glyph-name="exclam" unicode="!" horiz-adv-x="376" 
d="M184 1457h8q65 0 100 -70q7 -19 7 -33v-467q0 -47 -51 -85q-28 -17 -56 -17h-6q-71 0 -104 76q-5 17 -5 31v458q0 67 75 102q19 5 32 5zM77 807h1q49 -52 111 -52q61 0 109 52h1v-403q0 -61 -66 -96q-24 -10 -44 -10q-66 0 -101 63q-11 22 -11 45v401zM190 202
q64 0 97 -70q5 -23 5 -34q0 -71 -77 -100q-12 -2 -22 -2h-13q-52 0 -86 59q-9 21 -9 35v16q0 50 55 84q23 12 50 12z" />
    <glyph glyph-name="quotedbl" unicode="&#x22;" horiz-adv-x="935" 
d="M358 1577h8q62 0 96 -67q6 -13 8 -39q0 -43 -41 -92q-65 -96 -85 -118q-35 -27 -71 -27q-61 0 -95 59q-12 22 -12 45v8q0 40 43 91q60 90 82 113q32 27 67 27zM747 1577h6q67 0 99 -71q6 -18 6 -35v-4q0 -37 -31 -74q-75 -109 -92 -128q-34 -31 -74 -31q-65 0 -99 67
q-8 22 -8 42q0 39 35 82q71 104 90 126q34 26 68 26zM137 1333h1q0 -60 63 -107q36 -20 72 -20q20 0 37 6q0 -1 2 -1q-38 -58 -61 -80q-31 -23 -63 -23h-10q-58 0 -92 61q-9 21 -9 41v8q0 40 46 95q2 7 14 20zM523 1333h3q0 -44 41 -88q41 -39 93 -39h2q12 0 37 5v-1
q-38 -59 -63 -82q-31 -20 -57 -20h-12q-61 0 -95 65q-8 23 -8 43q0 41 43 92z" />
    <glyph glyph-name="numbersign" unicode="#" horiz-adv-x="1842" 
d="M877 1434h10q57 0 95 -61q12 -25 12 -45v-17q0 -21 -48 -145q-29 -83 -32 -89h356q86 0 114 -93q1 -12 1 -20v-4q0 -76 -83 -109q-19 -4 -39 -4h-431q-7 -10 -66 -181q-84 -226 -93 -248q-38 -59 -94 -59h-11q-74 0 -107 83q-3 14 -4 31q0 26 36 120q92 250 92 254h-217
q-77 0 -109 82q-4 14 -4 29v7q0 75 83 108q19 4 47 4h285q101 282 110 299q38 58 97 58zM1394 1434h10q72 0 106 -78q5 -16 5 -29v-12q0 -25 -35 -114q-33 -93 -35 -93h-67q-49 0 -86 -1q-19 1 -76 1h-11l-3 1q87 242 99 269q40 56 93 56zM1363 1077h289q76 0 109 -81
q4 -11 4 -24v-21q0 -56 -69 -96q-24 -8 -55 -8h-280v1q55 49 55 115q0 62 -53 113v1zM1339 817q0 -9 -72 -199h-240q-3 0 -3 3l72 196h243zM193 587h265v-1q-31 -82 -31 -109v-8q0 -59 54 -110v-2h-281q-98 0 -122 96q-1 5 -1 16v7q0 75 83 107q14 4 33 4zM1481 587
q58 0 96 -65q12 -26 12 -49q0 -73 -75 -107q-16 -7 -37 -7h-360q-154 0 -454 -2v2q40 31 65 119l41 109h712zM399 327h241q-3 -14 -96 -266q-39 -61 -101 -61h-2q-76 0 -109 79q-5 18 -5 38q0 28 52 160q16 50 20 50zM920 327h238q3 0 3 -4q-89 -246 -102 -271
q-37 -52 -100 -52q-71 0 -106 78q-5 19 -5 35v4q0 28 42 134q26 76 30 76z" />
    <glyph glyph-name="dollar" unicode="$" horiz-adv-x="971" 
d="M480 1552h10q74 0 118 -77q14 -26 14 -53v-54q0 -3 -3 -3h-130q-72 0 -139 -21l-2 3v78q0 65 75 113q32 14 57 14zM520 1329h221q118 0 150 -106q3 -15 3 -27v-10q0 -76 -80 -120q-26 -12 -52 -12h-269q-104 0 -137 -100q-5 -11 -5 -30v-13q0 -58 60 -103q27 -24 114 -24
q94 -9 185 -66q119 -77 170 -234q14 -55 14 -100v-14q0 -180 -153 -313q-55 -41 -106 -62q-70 -28 -175 -28h-237q-100 0 -138 88q-8 22 -8 45v7q0 75 71 118q30 17 61 17h269q98 0 135 92q6 22 6 33v18q0 65 -74 112q-29 15 -103 15q-89 13 -152 48q-51 25 -118 97
q-95 120 -95 254v13q0 179 146 309q61 49 116 68q59 28 181 28zM480 1017h139q3 -1 3 -3v-211l-2 -3q-68 23 -154 23q-79 24 -79 98q0 59 63 90q15 6 30 6zM350 496q66 -23 154 -23q79 -24 79 -98q0 -65 -70 -93q-12 -3 -21 -3h-141q-3 0 -3 3v211zM620 -48l2 -3v-75
q0 -77 -85 -121q-27 -8 -42 -8h-15q-79 0 -123 85q-9 26 -9 41v57q1 3 3 3h139q63 0 130 21z" />
    <glyph glyph-name="percent" unicode="%" horiz-adv-x="1642" 
d="M363 1459h15q138 0 236 -129q49 -79 49 -164q0 -144 -124 -239q-77 -54 -172 -54q-152 0 -251 144q-39 73 -39 141v15q0 138 126 235q78 51 160 51zM1409 1459h12q86 0 134 -92q10 -29 10 -46v-21q0 -69 -88 -142q-561 -564 -567 -565q-42 -29 -88 -29q-98 0 -144 103
q-7 25 -7 46v6q0 73 87 144q564 567 573 571q40 25 78 25zM630 735h2l-2 -19q0 -104 95 -166q46 -26 94 -26h19l3 2l2 -3q-517 -517 -530 -527q-42 -25 -72 -25h-23q-78 0 -126 83q-15 30 -15 61v10q0 72 82 139q224 226 471 471zM1262 555h21q139 0 238 -134
q44 -78 44 -141v-31q0 -123 -115 -219q-80 -59 -163 -59h-31q-106 0 -202 97q-73 87 -73 185v21q0 133 126 231q77 50 155 50z" />
    <glyph glyph-name="ampersand" unicode="&#x26;" horiz-adv-x="1247" 
d="M569 1454h14q89 0 175 -57q54 -40 84 -85q54 -84 54 -168v-6q0 -5 2 -7q0 -145 -111 -295l-9 -8h-1q-155 235 -155 242q14 40 14 62q0 41 -47 59q-6 1 -12 1h-7q-6 0 -27 -6q-59 111 -161 111q-53 0 -101 -34v2q43 97 146 153q69 36 142 36zM373 1262h15q75 0 123 -88
q627 -969 629 -975q30 -38 30 -78v-12q0 -80 -90 -119q-21 -6 -40 -6h-1q-82 0 -127 88q-31 44 -642 994q-18 27 -18 65v1q0 86 89 124q19 6 32 6zM324 918q140 -217 140 -220v-1q-40 -16 -83 -73q-43 -61 -43 -128v-14q0 -105 94 -182q66 -47 135 -47h15q68 0 139 45h2
q1 0 142 -219q-135 -88 -285 -88h-11q-209 0 -367 167q-125 148 -125 323v15q0 188 140 340q80 75 107 82zM1040 798q83 0 124 -88q6 -23 6 -37v-17q0 -152 -77 -315h-2l-185 283q0 97 34 128q41 46 100 46z" />
    <glyph glyph-name="quotesingle" unicode="'" horiz-adv-x="546" 
d="M358 1577h9q62 0 95 -67q7 -19 7 -31v-15q0 -37 -40 -85q-65 -96 -84 -118q-36 -27 -71 -27q-61 0 -96 59q-11 22 -11 45v8q0 40 43 91q60 90 81 113q33 27 67 27zM137 1333h2q0 -60 62 -107q36 -20 73 -20q20 0 37 6l1 -1q-38 -58 -61 -80q-31 -23 -62 -23h-11
q-57 0 -92 61q-9 21 -9 41v8q0 40 47 95q2 7 13 20z" />
    <glyph glyph-name="parenleft" unicode="(" horiz-adv-x="797" 
d="M565 1574h8q91 0 138 -99q9 -24 9 -39v-29q0 -60 -80 -131q-107 -126 -143 -208q-75 -125 -108 -344q-7 -50 -8 -146q-17 -65 -55 -95q-45 -33 -92 -33h-11q-92 0 -140 103q-6 26 -6 43v20q0 419 267 781q40 56 128 143q41 34 93 34zM386 488h3v-2q12 -164 116 -369
q46 -82 123 -176q83 -82 83 -106q9 -19 9 -38v-27q0 -60 -64 -111q-38 -28 -91 -28q-77 0 -141 83q-107 116 -163 216q-63 105 -103 212q-33 87 -60 218q-7 34 -17 113l4 2q59 -67 144 -67q91 0 157 80z" />
    <glyph glyph-name="parenright" unicode=")" horiz-adv-x="797" 
d="M223 1574h11q73 0 137 -80q122 -136 184 -251q48 -86 88 -193q33 -94 55 -198q13 -84 17 -121h-2q-63 65 -143 65q-96 0 -160 -80h-1q-13 112 -47 209q-43 122 -99 211q-47 78 -160 196q-26 44 -26 84v10q0 94 103 141q26 7 43 7zM568 756q95 0 143 -98q9 -27 9 -42v-46
q0 -302 -167 -612q-51 -93 -157 -221q-82 -92 -110 -95q-22 -11 -60 -11q-80 0 -130 76q-19 35 -19 71v10q0 68 69 130q111 124 158 224q37 68 72 178q41 149 41 313q14 56 60 93q45 30 91 30z" />
    <glyph glyph-name="asterisk" unicode="*" horiz-adv-x="647" 
d="M321 1579h4q44 0 67 -46q6 -14 6 -32v-204q0 -48 -45 -73q-159 -113 -171 -119q-18 -7 -30 -7q-43 0 -67 41q-8 17 -8 32v4q0 45 48 71l67 48q-78 54 -93 67q-22 23 -22 51v5q0 43 44 66q14 7 31 7q30 0 67 -32q2 0 28 -19h1v64q0 43 39 67q16 9 34 9zM495 1490
q47 0 70 -49q5 -14 5 -26v-1q0 -45 -48 -71q-101 -73 -108 -76v1q4 12 4 23v160q10 10 44 31q16 8 33 8zM472 1281q62 -42 76 -54q22 -24 22 -51v-3q0 -48 -51 -70q-8 -3 -25 -5q-30 0 -71 35q-2 0 -81 57v1q126 90 130 90zM322 1178h2q67 -47 74 -53v-40q0 -51 -52 -72
q-12 -3 -23 -3q-52 0 -73 54q-2 12 -2 21v40q5 5 74 53z" />
    <glyph glyph-name="plus" unicode="+" horiz-adv-x="1034" 
d="M513 1157h8q70 0 106 -78q6 -20 6 -33v-179q0 -3 -3 -3h-227q-3 0 -3 3v159q0 91 70 121q19 10 43 10zM208 834h216v-1q-54 -51 -54 -114v-115q0 -3 -3 -3h-179q-70 0 -106 79q-5 20 -5 33v8q0 70 77 106q22 7 54 7zM533 834h293q89 0 120 -67q11 -21 11 -52
q0 -73 -78 -108q-20 -6 -33 -6h-211q-2 0 -2 -2v-208q0 -63 -61 -100q-25 -14 -56 -14q-65 0 -102 62q-14 22 -14 69v296q0 99 87 126q19 4 46 4z" />
    <glyph glyph-name="comma" unicode="," horiz-adv-x="623" 
d="M413 259h10q74 0 114 -80q9 -22 9 -37v-19q0 -43 -48 -101q-78 -115 -101 -141q-43 -32 -85 -32q-73 0 -114 70q-14 27 -14 54v10q0 47 51 108q72 108 98 135q39 33 80 33zM149 -32h1q0 -72 75 -129q43 -23 87 -23q24 0 44 7q0 -2 2 -2q-46 -69 -73 -96q-37 -27 -75 -27
h-12q-69 0 -110 73q-11 25 -11 49v10q0 48 55 114q3 8 17 24z" />
    <glyph glyph-name="hyphen" unicode="-" horiz-adv-x="592" 
d="M117 409q-40 0 -40 28v83q0 29 41 29h356q41 0 41 -29v-83q0 -28 -40 -28h-358z" />
    <glyph glyph-name="hyphen" unicode="&#xad;" horiz-adv-x="592" 
d="M117 409q-40 0 -40 28v83q0 29 41 29h356q41 0 41 -29v-83q0 -28 -40 -28h-358z" />
    <glyph glyph-name="period" unicode="." horiz-adv-x="424" 
d="M210 265h6q48 0 90 -38q41 -42 41 -94v-6q0 -62 -55 -106q-37 -26 -77 -26h-7q-25 0 -52 12v1q63 50 63 122t-63 122q12 8 35 12q11 1 19 1zM141 245q41 -26 58 -76q6 -20 6 -35v-8q0 -55 -48 -99q-9 -8 -16 -12q-40 23 -59 77q-5 18 -5 36v4q0 67 62 112q1 0 2 1z" />
    <glyph glyph-name="slash" unicode="/" horiz-adv-x="976" 
d="M489 815q80 0 117 -86q5 -28 5 -37q0 -37 -41 -113q-252 -545 -269 -576q-40 -53 -100 -53h-5q-73 0 -112 79q-7 22 -7 41v7q0 30 33 95l275 587q40 56 104 56zM775 1434h7q66 0 105 -68q12 -23 12 -48v-16q0 -28 -53 -132q-197 -428 -207 -441h-1q-3 31 -44 78
q-49 40 -100 40h-13q-29 0 -62 -16l-1 1q247 529 256 546q40 56 101 56z" />
    <glyph glyph-name="zero" unicode="0" horiz-adv-x="1007" 
d="M499 1459h11q160 0 290 -120q67 -71 83 -112q47 -93 47 -177v-343q0 -50 -57 -88q-27 -14 -56 -14q-69 0 -105 73q-6 21 -6 38v311q0 114 -97 178q-36 21 -63 25q-10 4 -67 7q-41 11 -62 39q-26 30 -26 70v4q0 69 76 104q19 5 32 5zM400 1447l1 -3q-40 -41 -40 -97
q0 -76 71 -122h1v-2q0 -1 -26 -12q-67 -36 -97 -118q-9 -30 -9 -55v-210h-1q-49 53 -109 53h-2q-66 0 -111 -53h-1v211q0 164 126 298q73 66 138 90q18 9 59 20zM189 851q74 0 107 -79q5 -20 5 -46v-330q0 -87 78 -154q54 -44 145 -44q45 -12 65 -39q27 -32 27 -71
q0 -71 -72 -106q-22 -7 -42 -7q-164 0 -294 118q-131 134 -131 303v347q0 67 74 102q23 6 38 6zM706 628h1q48 -53 108 -53h6q59 0 107 52h2v-241q0 -136 -104 -265q-61 -61 -84 -73q-51 -36 -124 -57q-8 -3 -11 -3h-1v2q39 43 39 95v5q0 74 -72 122q78 30 115 106
q18 42 18 91v219z" />
    <glyph glyph-name="one" unicode="1" horiz-adv-x="740" 
d="M547 1459h6q71 0 104 -75q6 -19 6 -37v-1q0 -43 -34 -85q-336 -480 -360 -511q-36 -32 -77 -32h-6q-64 0 -99 66q-10 20 -10 43v8q0 42 50 103q323 463 342 487q37 34 78 34zM661 1256h2v-484h-1q-48 53 -107 53h-11q-57 0 -105 -53h-2v164q218 309 224 320zM550 795
q71 0 104 -69q9 -19 9 -41v-598q0 -74 -77 -107q-17 -4 -31 -4h-10q-63 0 -99 68q-9 22 -9 49v582q0 81 73 113q21 7 40 7z" />
    <glyph glyph-name="two" unicode="2" horiz-adv-x="1011" 
d="M498 1459h11q68 0 102 -74q5 -9 7 -38q0 -69 -68 -104q-11 -8 -82 -12q-75 -19 -110 -60q-57 -57 -57 -158q-10 -44 -37 -68q-36 -28 -76 -28q-63 0 -99 61q-12 24 -12 48v11q0 177 143 314q128 108 278 108zM609 1447q47 -12 98 -37q48 -26 106 -81q79 -88 101 -167
q7 -24 7 -28h-1q-45 39 -99 39q-73 0 -124 -71q-2 0 -14 28q-40 65 -106 91v1q71 48 71 125v2q0 52 -39 97v1zM818 1143h8q67 0 101 -73q7 -17 7 -33v-17q0 -34 -52 -102q-526 -787 -607 -906q-37 -37 -80 -37h-9q-65 0 -101 71q-7 21 -7 44q0 39 40 92q559 836 621 925
q36 36 79 36zM438 199h388q63 0 99 -69q7 -22 7 -35v-12q0 -62 -65 -98q-21 -10 -43 -10h-543v1q31 31 62 82q71 108 95 141z" />
    <glyph glyph-name="three" unicode="3" horiz-adv-x="1009" 
d="M500 1459h11q160 0 291 -120q67 -72 83 -112q47 -93 47 -178v-34q0 -140 -108 -269q-136 -143 -321 -143q-61 0 -97 58q-14 25 -14 50v8q0 70 77 104q20 4 75 8q34 7 71 30q93 67 93 171q0 106 -98 173q-36 21 -63 24q-10 4 -67 7q-41 12 -62 39q-26 30 -26 70v5
q0 69 76 104q19 5 32 5zM401 1447l1 -3q-40 -41 -40 -98q0 -75 70 -122h2v-1q-1 -2 -28 -14q-65 -35 -96 -118q-7 -17 -11 -85q-16 -51 -51 -71q-29 -17 -60 -17q-63 0 -99 61q-12 24 -12 48v11q0 165 127 299q69 61 111 78q40 21 86 32zM817 696q77 -89 99 -173
q16 -58 16 -104v-23q0 -57 -64 -96q-25 -9 -48 -9h-2q-71 0 -104 74q-6 15 -9 71q-16 71 -57 112q-35 30 -47 33v3q30 0 124 46q33 17 89 63q0 3 3 3zM190 516q66 0 102 -68q11 -24 11 -75q13 -64 49 -104q66 -69 148 -69h8q98 0 165 91q15 22 21 41h1q51 -72 124 -72
q53 0 100 40v-1q-15 -84 -99 -186q-134 -138 -317 -138h-1q-187 0 -323 149q-102 126 -102 272v11q0 64 68 100q23 9 45 9z" />
    <glyph glyph-name="four" unicode="4" horiz-adv-x="1011" 
d="M501 1459h8q68 0 103 -75q6 -24 6 -38q0 -34 -43 -111q-187 -377 -190 -378h-182q-46 0 -74 -14q0 2 -1 2q277 554 282 562q38 52 91 52zM819 1459h7q61 0 98 -64q10 -23 10 -38v-677q0 -46 -57 -75q-18 -5 -34 -5h-646q-82 0 -113 73q-7 17 -7 37v6q0 72 77 105
q18 5 32 5h523v524q0 67 72 103q22 6 38 6zM932 607h2v-530q0 -49 -57 -89q-27 -13 -50 -13h-10q-63 0 -98 66q-10 20 -10 43v485q1 2 3 2h138q43 0 82 36z" />
    <glyph glyph-name="five" unicode="5" horiz-adv-x="991" 
d="M182 1459h626q65 0 99 -71q7 -19 7 -35v-7q0 -64 -68 -99q-20 -7 -33 -7h-636q-51 0 -89 59q-11 25 -11 47v7q0 66 71 100q19 6 34 6zM77 1261h1q47 -51 104 -51h111q3 0 3 -2v-364q0 -3 -3 -3h-96q-76 0 -119 -51h-1v471zM187 812h307q74 0 106 -75q5 -17 5 -31v-9
q0 -57 -60 -93q-22 -13 -55 -13h-299q-78 0 -110 76q-4 16 -4 30v9q0 67 75 101q20 5 35 5zM596 799q34 -5 103 -40q42 -21 102 -80q113 -127 113 -279v-14q0 -161 -125 -292q-86 -77 -170 -102q-64 -17 -108 -17h-26q-47 0 -86 54q-14 27 -14 51v12q0 39 37 75q27 28 99 28
q39 8 68 22q23 11 57 47q48 61 48 128q0 102 -91 167q-11 9 -39 20v3q40 18 63 75q7 21 7 43v1q0 54 -38 97v1zM186 503q76 0 106 -79q3 -20 9 -75q14 -54 45 -87q36 -38 65 -50q15 -4 15 -7q-70 -45 -70 -118v-5q0 -51 38 -93v-2h-1q-85 18 -172 89q-69 67 -82 97
q-62 102 -62 211v13q0 61 64 96q21 10 45 10z" />
    <glyph glyph-name="six" unicode="6" horiz-adv-x="984" 
d="M620 1459h6q63 0 97 -68q7 -18 7 -33v-13q0 -28 -33 -90q-193 -393 -207 -420q-164 0 -299 -117v3q320 652 340 691q36 47 89 47zM488 805h5q173 0 302 -131q112 -125 112 -279v-11q0 -37 -9 -82h-2q-14 40 -44 61q-38 30 -79 30h-11q-34 0 -72 -22h-2v7q0 6 2 11
q0 98 -86 163q-54 35 -103 35h-14q-72 0 -131 -54q0 18 -19 61q-47 69 -118 69h-4q-18 0 -40 -6v2q131 146 313 146zM208 633h18q48 0 84 -51q16 -27 16 -58q0 -27 -21 -70q-10 -37 -11 -64q0 -94 83 -161q56 -37 116 -37q92 0 159 82q24 44 39 60q33 30 77 30q67 0 101 -70
q7 -22 7 -39q0 -58 -83 -152q-76 -71 -122 -87q-84 -41 -167 -41h-26q-143 0 -271 112q-130 132 -130 297v12q0 106 54 197q37 40 77 40z" />
    <glyph glyph-name="seven" unicode="7" horiz-adv-x="965" 
d="M180 1459h515v-1q-39 -39 -47 -70q-63 -133 -68 -142h-399q-64 0 -97 66q-7 19 -7 37v7q0 64 68 97q19 6 35 6zM777 1459h10q46 0 82 -47q19 -28 19 -60q0 -30 -31 -89q-248 -526 -248 -529h-1q-2 0 -13 31q-46 72 -116 72h-6q-27 0 -58 -13v1q248 531 277 590
q37 44 85 44zM476 809q69 0 101 -74q5 -21 5 -34q0 -29 -29 -86q-265 -564 -283 -597q-38 -43 -78 -43h-17q-52 0 -89 59q-9 25 -9 44v10q0 25 42 109l262 557q34 55 95 55z" />
    <glyph glyph-name="eight" unicode="8" horiz-adv-x="1008" 
d="M497 1459h14q158 0 289 -119q59 -61 84 -113q23 -46 35 -92l-3 -1q-42 41 -98 41q-75 0 -123 -73q-33 78 -102 112q-43 21 -86 21h-5q-97 0 -163 -85q-38 -54 -38 -116v-5q0 -97 87 -163q20 -14 23 -14v-2q-71 -18 -111 -38q-51 -26 -105 -74q-61 62 -93 147
q-25 75 -25 140v14q0 183 153 322q125 98 267 98zM815 1144h6q61 0 97 -59q13 -24 13 -54q0 -195 -162 -334q-87 -64 -163 -79q40 45 40 96v9q0 69 -72 118v2q34 8 80 54q54 56 54 158q13 46 44 67q29 22 63 22zM500 829h7q68 0 103 -73q6 -23 6 -38q0 -77 -81 -109
q-22 -4 -66 -7q-72 -16 -111 -60q-58 -57 -58 -160q-10 -41 -37 -64q-32 -28 -76 -28q-70 0 -105 76q-5 19 -5 32v11q0 176 143 314q128 106 280 106zM813 696q118 -125 118 -296q0 -195 -163 -334q-120 -91 -267 -91q-184 0 -321 148q-68 81 -91 177h1q44 -39 95 -39h8
q70 0 120 71h2q21 -61 78 -100q52 -33 113 -33q100 0 166 91q35 53 35 113q0 97 -84 163l-28 18q73 18 112 38q48 24 99 69q1 0 7 5z" />
    <glyph glyph-name="nine" unicode="9" horiz-adv-x="984" 
d="M486 1459h13q105 0 196 -54q42 -37 42 -87q0 -67 -70 -102q-22 -6 -36 -6h-8q-24 0 -72 22q-30 9 -55 9h-7q-93 0 -157 -82q-25 -43 -36 -56q-35 -34 -78 -34q-73 0 -104 75q-6 17 -6 35q0 62 94 163q128 117 284 117zM759 1361h1q54 -47 72 -79q75 -111 75 -228v-22
q0 -141 -107 -268q-75 -75 -119 -90q-87 -45 -176 -45h-26q-139 0 -265 105q-137 132 -137 304v13q0 37 9 81h2q17 -49 67 -78q33 -13 59 -13h6q35 0 74 22h1v-23q0 -86 74 -150q57 -43 114 -43h18q78 0 144 71q44 59 44 117v14q0 68 -53 130v2q44 0 93 44q36 45 36 88v11
q0 15 -6 37zM792 715h1v-2q-310 -632 -341 -693q-36 -45 -83 -45h-16q-49 0 -86 55q-13 25 -13 49v9q0 31 39 100q174 360 202 411h3q161 0 294 116z" />
    <glyph glyph-name="colon" unicode=":" horiz-adv-x="575" 
d="M284 958h9q76 0 141 -60q64 -66 64 -147v-8q0 -98 -87 -166q-57 -40 -120 -40h-10q-40 0 -81 18v1q99 79 99 192q0 111 -99 190q18 11 55 18q17 2 29 2zM176 926q64 -40 91 -118q8 -32 8 -55v-12q0 -85 -73 -154q-15 -12 -26 -19q-62 36 -91 119q-8 29 -8 57v6
q0 105 96 175q1 0 3 1zM287 415q108 0 177 -95q34 -56 34 -109v-13q0 -87 -77 -156q-61 -47 -124 -47h-21q-33 0 -76 17v2q65 48 88 124q11 35 11 66q0 100 -78 174q-15 13 -21 16v3q43 18 87 18zM177 383q61 -37 88 -113q10 -31 10 -62v-7q0 -79 -59 -143q-24 -23 -39 -32
h-2q-62 37 -90 119q-8 29 -8 54v9q0 99 90 170q8 5 10 5z" />
    <glyph glyph-name="semicolon" unicode=";" horiz-adv-x="717" 
d="M354 957h12q101 0 189 -80q85 -88 85 -196v-11q0 -131 -116 -223q-76 -53 -160 -53h-14q-53 0 -108 24v2q132 105 132 256q0 150 -132 255q24 15 73 24q23 2 39 2zM209 915q87 -53 122 -158q11 -43 11 -74v-16q0 -114 -98 -206q-20 -16 -35 -25q-83 48 -121 159
q-11 39 -11 76v9q0 139 129 233q1 0 3 2zM456 200q71 0 106 -78q5 -19 5 -28v-18q0 -36 -51 -100q-64 -95 -78 -110q-36 -32 -81 -32q-74 0 -108 78q-5 17 -5 31v10q0 43 48 98q60 91 83 117q34 32 81 32zM211 -62h3q0 -61 63 -109q37 -25 77 -25h8q16 0 36 5v-3
q-40 -61 -67 -87q-34 -22 -69 -22q-73 0 -108 77q-5 20 -5 32v10q0 41 42 92z" />
    <glyph glyph-name="semicolon" unicode="&#x37e;" horiz-adv-x="717" 
d="M354 957h12q101 0 189 -80q85 -88 85 -196v-11q0 -131 -116 -223q-76 -53 -160 -53h-14q-53 0 -108 24v2q132 105 132 256q0 150 -132 255q24 15 73 24q23 2 39 2zM209 915q87 -53 122 -158q11 -43 11 -74v-16q0 -114 -98 -206q-20 -16 -35 -25q-83 48 -121 159
q-11 39 -11 76v9q0 139 129 233q1 0 3 2zM456 200q71 0 106 -78q5 -19 5 -28v-18q0 -36 -51 -100q-64 -95 -78 -110q-36 -32 -81 -32q-74 0 -108 78q-5 17 -5 31v10q0 43 48 98q60 91 83 117q34 32 81 32zM211 -62h3q0 -61 63 -109q37 -25 77 -25h8q16 0 36 5v-3
q-40 -61 -67 -87q-34 -22 -69 -22q-73 0 -108 77q-5 20 -5 32v10q0 41 42 92z" />
    <glyph glyph-name="less" unicode="&#x3c;" horiz-adv-x="1265" 
d="M1093 1241h6q52 0 81 -54q8 -17 8 -35v-5q0 -63 -79 -92q-903 -422 -906 -422q-16 -8 -35 -8q-60 0 -88 63q-3 15 -3 26v6q0 48 48 78q926 432 948 441q14 2 20 2zM414 704l729 -340q45 -31 45 -77v-5q0 -46 -44 -76q-21 -13 -43 -13h-12q-20 0 -87 34q-803 374 -807 377
q20 5 163 74q1 0 56 26z" />
    <glyph glyph-name="equal" unicode="=" horiz-adv-x="734" 
d="M148 943h160v-1q-35 -32 -35 -73q0 -42 35 -74v-1h-148q-64 0 -81 58q-2 8 -2 14v6q0 45 50 68q13 3 21 3zM364 943h222q44 0 67 -48q4 -11 4 -22v-11q0 -30 -32 -55q-17 -13 -51 -13h-199q-56 0 -77 47q-5 14 -5 25v4q0 48 51 70q11 3 20 3zM150 640h217q50 0 72 -53
q2 -10 3 -22q0 -46 -48 -69q-13 -5 -30 -5h-212q-54 0 -73 57q-2 9 -2 15v5q0 44 47 67q14 5 26 5zM426 640h157q42 0 66 -40q8 -15 8 -28v-13q0 -31 -33 -56q-18 -12 -44 -12h-154v1q35 32 35 72v3q0 40 -35 72v1z" />
    <glyph glyph-name="greater" unicode="&#x3e;" horiz-adv-x="1265" 
d="M166 1241h5q23 0 74 -26l823 -384v-2q-8 0 -162 -73q-55 -26 -57 -26q-708 331 -732 342q-40 32 -40 74v7q0 54 59 83q16 5 30 5zM1092 808h8q51 0 80 -54q8 -17 8 -35v-4q0 -50 -49 -79q-931 -435 -945 -440q-13 -3 -19 -3h-12q-49 0 -79 53q-7 18 -7 35v7q0 45 43 75
q14 7 711 332q220 103 243 111q10 2 18 2z" />
    <glyph glyph-name="question" unicode="?" horiz-adv-x="990" 
d="M488 1434h14q157 0 284 -118q66 -70 82 -110q45 -91 45 -173v-34q0 -134 -103 -260q-67 -69 -109 -88q-54 -30 -67 -30v91q0 69 -65 117l37 21q88 65 88 167q0 85 -69 149q-59 47 -123 47h-12q-95 0 -162 -89q-32 -51 -32 -126q-10 -43 -36 -66q-35 -27 -74 -27
q-61 0 -97 60q-12 22 -12 46v11q0 172 140 306q125 106 271 106zM496 820q61 0 96 -59q14 -23 14 -60v-287q0 -92 -83 -118q-20 -4 -27 -4q-73 0 -106 77q-4 16 -4 30v314q0 68 75 102q21 5 35 5zM497 198q62 0 94 -67q6 -19 6 -37q0 -56 -55 -89q-21 -10 -38 -10h-17
q-48 0 -82 53q-11 23 -11 43v9q0 62 69 93q14 4 34 5z" />
    <glyph glyph-name="at" unicode="@" horiz-adv-x="2006" 
d="M989 1434h25q340 0 620 -247q96 -96 134 -156q161 -247 161 -498v-37q0 -57 -60 -105q-37 -25 -77 -25h-5q-86 0 -130 86q-10 11 -14 122q-12 83 -27 132q-85 236 -283 353q-156 91 -315 91h-29q-214 0 -404 -154q-76 -71 -105 -115q-119 -176 -119 -359v-26
q0 -225 164 -417q93 -95 129 -110q70 -49 173 -80q98 -26 204 -26l1 -3v-273q-1 -5 -12 -5h-42q-237 0 -475 145q-66 40 -164 134q-99 108 -143 192q-119 216 -119 444v25q0 312 218 583q103 112 146 139q257 190 548 190zM1210 891h6q83 0 128 -88q9 -27 9 -48v-375h-1
q-60 66 -142 66q-78 0 -139 -68h-2v352q0 107 79 145q26 16 62 16zM978 888q54 0 102 -16v-1q-48 -53 -48 -124v-157q0 -3 -3 -3q-22 17 -51 17q-64 0 -89 -73q-2 -13 -2 -21q0 -61 70 -87q19 -3 21 -3q26 0 53 17l1 -3v-290q0 -6 -54 -8q-147 0 -264 110q-111 114 -111 267
q0 167 135 287q109 88 240 88zM1207 408h11q77 0 123 -82q12 -28 12 -54v-303h2q179 115 261 343q21 77 21 94h2q63 -79 150 -79q70 0 131 58h1v-2q-19 -181 -137 -377q-176 -268 -489 -379q-153 -43 -224 -43l-2 3v660q0 128 111 158q13 3 27 3z" />
    <glyph glyph-name="A" unicode="A" horiz-adv-x="1555" 
d="M772 1459h10q71 0 110 -78l548 -1176q38 -72 38 -105v-4q0 -73 -74 -111q-23 -10 -47 -10h-4q-86 0 -123 102q-9 15 -437 936q-136 287 -136 297q-2 12 -2 24v5q0 75 78 113q21 7 39 7zM624 1300h2q7 -25 86 -190q4 -10 47 -100q0 -2 -442 -951q-12 -30 -41 -57
q-36 -27 -73 -27h-6q-75 0 -113 78q-7 22 -7 40v9q0 31 35 100zM966 561q3 0 65 -137q7 -12 50 -106l-3 -1h-602q-3 0 -3 2q104 224 114 242h379z" />
    <glyph glyph-name="B" unicode="B" horiz-adv-x="1228" 
d="M186 1459h538q63 0 99 -65q10 -22 10 -43v-8q0 -65 -69 -101q-21 -9 -52 -9h-409v-1000q0 -3 -3 -3h-97q-79 0 -125 -57h-1v1178q0 68 76 103q19 5 33 5zM824 1447q132 -36 215 -129q112 -126 112 -290q0 -293 -282 -394q-97 -30 -178 -30h-356q-3 0 -3 2v221q1 2 3 2
h371q131 0 196 100q23 45 23 101q0 107 -100 175q-24 13 -34 16v1q73 48 73 125q0 52 -40 97v3zM1038 694h2q56 -62 81 -130q30 -75 30 -144v-31q0 -133 -101 -262q-69 -72 -98 -84q-107 -68 -217 -68h-552q-52 0 -91 60q-13 28 -13 52q0 74 78 107q17 5 31 5h517
q152 0 209 136q13 42 13 71q0 98 -85 166q-10 7 -25 14v2q0 1 58 17q67 24 118 55q24 17 45 34z" />
    <glyph glyph-name="C" unicode="C" horiz-adv-x="1454" 
d="M810 1459h17q268 0 489 -190q61 -50 61 -108q0 -62 -59 -98q-24 -13 -50 -13h-6q-53 0 -99 54q-155 130 -334 130h-21q-180 0 -334 -132q-63 -60 -91 -105q-81 -134 -81 -270v-20q0 -154 98 -293q-1 0 -1 -2q-14 3 -27 3q-83 0 -128 -83q-13 -30 -13 -53v-14h-1
q-153 204 -153 444v17q0 249 167 461q64 74 110 109q209 163 456 163zM367 384h15q45 0 96 -56q153 -128 337 -128h11q200 0 362 155q31 29 75 29h1q77 0 109 -83q3 -17 3 -25v-9q0 -54 -60 -101q-216 -191 -498 -191q-262 0 -471 169q-77 63 -83 98q-3 17 -3 32q0 58 54 94
q26 16 52 16z" />
    <glyph glyph-name="D" unicode="D" horiz-adv-x="1301" 
d="M184 1459h309q251 0 468 -175q88 -81 106 -111q68 -91 99 -166q58 -144 58 -277v-22q0 -220 -135 -418q-31 -47 -106 -120q-220 -195 -502 -195q-62 0 -98 59q-14 24 -14 50v7q0 66 70 101q15 9 88 10q71 9 110 22q177 61 279 213q82 136 82 267v26q0 173 -129 330
q-65 67 -106 91q-135 83 -271 83h-291q-86 0 -117 71q-7 21 -7 38v8q0 68 75 103q20 5 32 5zM77 1257h1q47 -53 109 -53h113q2 0 2 -2v-1002h91v-1q-54 -47 -54 -111q0 -62 52 -112v-1h-194q-83 0 -113 72q-7 17 -7 37v1173z" />
    <glyph glyph-name="E" unicode="E" horiz-adv-x="1232" 
d="M185 1459h9q69 0 104 -78q5 -22 5 -47v-1101q0 -3 -3 -3h-111q-63 0 -111 -53h-1v1174q0 68 76 103q19 5 32 5zM279 1459h767q66 0 102 -71q7 -22 7 -39v-3q0 -75 -80 -108q-18 -5 -45 -5h-695q-3 0 -3 3v113q0 62 -53 109v1zM335 830h706q82 0 112 -87q2 -16 2 -26
q0 -81 -87 -110q-15 -3 -26 -3h-707q-3 0 -3 3v220q0 3 3 3zM184 199h864q62 0 97 -66q10 -20 10 -45v-1q0 -74 -77 -107q-17 -5 -31 -5h-862q-62 0 -98 65q-10 22 -10 43v9q0 60 63 96q21 11 44 11z" />
    <glyph glyph-name="F" unicode="F" horiz-adv-x="1232" 
d="M185 1459h861q66 0 102 -71q7 -22 7 -39v-3q0 -75 -80 -108q-18 -5 -45 -5h-828q-97 0 -123 87q-2 13 -2 22v9q0 68 76 103q19 5 32 5zM77 1257h1q47 -53 109 -53h113q3 0 3 -3v-1101q0 -97 -87 -123q-10 -2 -21 -2h-10q-62 0 -98 65q-10 22 -10 43v1174zM335 830h706
q82 0 112 -87q2 -16 2 -26q0 -81 -87 -110q-15 -3 -26 -3h-707q-3 0 -3 3v220q0 3 3 3z" />
    <glyph glyph-name="G" unicode="G" horiz-adv-x="1453" 
d="M811 1459h14q247 0 457 -162q82 -66 89 -100q5 -17 5 -36q0 -71 -76 -105q-19 -5 -29 -5h-17q-42 0 -84 45q-155 139 -352 139q-186 0 -338 -126q-55 -57 -86 -57q0 -2 -18 -2h-7q-66 0 -101 70q-8 21 -8 34v13q0 54 60 101q98 88 207 132q137 59 284 59zM228 1167h2v-1
q0 -98 95 -138q16 -6 48 -9q22 3 26 3v-2q-97 -142 -97 -289v-27q0 -160 112 -309q67 -77 101 -96q139 -99 303 -99q216 0 377 163q32 23 71 23q66 0 102 -70q8 -20 8 -33v-20q0 -48 -67 -102q-215 -186 -491 -186q-228 0 -422 131q-44 27 -123 108q-105 116 -154 252
q-42 123 -42 243v17q0 231 145 435zM917 726h256v-1q-52 -45 -52 -121v-100q0 -2 -3 -2h-201q-59 0 -95 61q-13 25 -13 52q0 73 78 106q16 5 30 5zM1258 726h11q62 0 98 -66q9 -21 9 -39v-258h-2q-48 52 -104 52h-11q-58 0 -107 -52h-1v253q0 58 54 94q26 16 53 16z" />
    <glyph glyph-name="H" unicode="H" horiz-adv-x="1232" 
d="M185 1459h9q66 0 101 -71q7 -20 7 -48v-510h742q69 0 102 -69q9 -19 9 -41v-633q0 -68 -67 -102q-20 -10 -48 -10q-59 0 -96 57q-14 25 -14 56v516h-736q-78 0 -110 72q-7 18 -7 37v638q0 69 76 103q19 5 32 5zM1038 1459h9q64 0 99 -69q9 -19 9 -41v-541h-1
q-35 37 -68 45q-20 7 -64 7h-90q-2 0 -2 3v483q0 75 77 108q17 5 31 5zM77 626h1q49 -51 106 -51h116q2 -1 2 -3v-479q0 -83 -80 -113q-14 -5 -34 -5q-71 0 -106 76q-5 20 -5 32v543z" />
    <glyph glyph-name="I" unicode="I" horiz-adv-x="378" 
d="M185 1459h6q71 0 105 -75q5 -18 5 -27v-776h-1q-47 52 -106 52h-11q-56 0 -105 -52h-1v770q0 62 65 98q22 10 43 10zM189 604q74 0 106 -74q6 -15 6 -29v-424q0 -50 -57 -88q-25 -14 -49 -14h-15q-46 0 -85 49q-18 30 -18 59v412q0 68 76 104q21 5 36 5z" />
    <glyph glyph-name="J" unicode="J" horiz-adv-x="1018" 
d="M826 1459h8q63 0 97 -65q10 -20 10 -43v-856h-1q-47 52 -106 52h-8q-59 0 -106 -52h-1v857q0 66 72 101q20 6 35 6zM184 517h8q70 0 103 -79q4 -21 6 -66q18 -77 63 -117q64 -58 141 -58h8q102 0 173 96q34 54 34 136q16 51 48 71q31 17 58 17h8q64 0 98 -67q9 -20 9 -41
v-1q0 -214 -181 -354q-119 -79 -237 -79h-28q-141 0 -271 106q-147 138 -147 320v9q0 66 71 101q21 6 36 6z" />
    <glyph glyph-name="K" unicode="K" horiz-adv-x="1018" 
d="M185 1459h9q64 0 100 -70q8 -22 8 -34v-333l-224 -225h-1v554q0 62 65 98q22 10 43 10zM824 1459h9q62 0 97 -63q11 -21 11 -44v-11q0 -52 -63 -104l-576 -578v-576q0 -66 -72 -101q-19 -7 -43 -7q-69 0 -104 74q-6 18 -6 36v624q0 55 58 102q625 627 628 627
q29 21 61 21zM380 686q15 0 47 -37q491 -489 496 -497q18 -32 18 -55v-15q0 -64 -71 -100q-20 -7 -43 -7q-57 0 -112 68q-365 363 -372 373q-11 18 -11 33v175q0 33 40 60z" />
    <glyph glyph-name="L" unicode="L" horiz-adv-x="1232" 
d="M185 1459h9q63 0 98 -66q10 -20 10 -43v-288h-3q-44 53 -103 53h-12q-57 0 -106 -52h-1v288q0 62 65 98q22 10 43 10zM189 1085h1q63 0 98 -59q14 -24 14 -50v-776h313q80 0 111 -86q2 -18 2 -25v-2q0 -66 -62 -101q-21 -11 -44 -11h-438q-61 0 -97 65q-10 22 -10 43v894
q0 68 76 103q21 5 36 5zM705 200h333q83 0 113 -82q4 -17 4 -32q0 -58 -54 -95q-26 -16 -53 -16h-342v1q52 48 52 106v12q0 57 -53 105v1z" />
    <glyph glyph-name="M" unicode="M" horiz-adv-x="1269" 
d="M185 1459h6q56 0 104 -60q148 -146 317 -317q-99 -99 -99 -106q-21 -34 -21 -68v-22h-1q-399 396 -399 401q-15 29 -15 55v9q0 62 65 98q22 10 43 10zM1077 1459h6q70 0 104 -76q5 -18 5 -27v-1278q0 -51 -56 -88q-24 -15 -50 -15h-13q-55 0 -92 57q-14 25 -14 56v1258
q0 74 75 107q15 6 35 6zM936 1362h1v-317q-235 -239 -242 -239q-29 -17 -53 -17h-12q-68 0 -104 76q-4 21 -4 36v1q0 57 60 106q168 170 354 354zM77 1256h1l223 -225v-945q0 -74 -77 -106q-14 -5 -26 -5h-18q-48 0 -86 52q-17 27 -17 56v1173z" />
    <glyph glyph-name="N" unicode="N" horiz-adv-x="1269" 
d="M178 1459q59 0 87 -29q19 -19 117 -162q15 -20 352 -497q13 -30 13 -54q0 -68 -67 -103q-21 -10 -45 -10q-69 0 -110 73q-191 267 -222 313h-1v-183h-1q-49 52 -106 52h-11q-61 0 -105 -52h-2v542q0 74 80 106zM1075 1459h9q67 0 101 -72q7 -17 7 -33v-647q0 -44 -47 -82
q-30 -21 -68 -21q-60 0 -96 59q-14 25 -14 50v636q0 72 77 105q17 5 31 5zM192 830q68 0 104 -75q6 -21 6 -53v-602q0 -97 -86 -123q-12 -2 -22 -2h-10q-68 0 -103 76q-4 19 -4 32v638q0 69 77 104q20 5 38 5zM777 708h2l187 -266h1v185h2q45 -52 104 -52h12q58 0 105 51h2
v-548q0 -51 -57 -90q-28 -13 -48 -13h-12q-65 0 -112 82q-4 5 -369 521q1 0 1 2q18 -5 32 -5h13q74 0 120 75q17 35 17 58z" />
    <glyph glyph-name="O" unicode="O" 
d="M815 1459h12q282 0 510 -210q224 -228 224 -533q0 -73 -77 -106q-17 -5 -31 -5h-10q-65 0 -101 73q-6 18 -9 97q-10 68 -31 126q-83 205 -281 292q-97 42 -220 42q-30 3 -65 34q-30 37 -30 77q0 64 61 101q24 12 48 12zM722 1453v-1q-46 -47 -46 -106q0 -68 62 -117v-2
q-132 -25 -214 -85q-143 -102 -198 -270q-25 -77 -25 -173q-12 -48 -40 -70q-33 -24 -68 -24h-8q-68 0 -103 76q-5 19 -5 32v12q0 278 205 505q84 82 154 124q67 38 129 61q56 21 142 37zM307 636h2q24 -133 93 -225q164 -212 436 -212q29 -3 65 -35q28 -36 28 -71v-10
q0 -60 -62 -97q-25 -11 -49 -11q-305 0 -533 224q-73 80 -101 131q-34 52 -66 136q-37 117 -37 154h1q48 -46 106 -46q68 0 117 62zM1329 636h2q48 -62 118 -62q58 0 105 47h1q-12 -91 -42 -167q-26 -73 -84 -160q-27 -42 -93 -109q-97 -89 -154 -114q-32 -21 -109 -52
q-71 -26 -158 -38v1q47 46 47 107q0 67 -62 116v2q62 10 118 33q53 23 108 61q48 35 97 94q41 53 60 95q40 91 40 117q2 2 6 29z" />
    <glyph glyph-name="P" unicode="P" horiz-adv-x="1020" 
d="M77 1255h1q46 -52 118 -52h103q2 -1 2 -3v-1118q0 -61 -65 -97q-21 -10 -42 -10h-9q-68 0 -103 76q-5 19 -5 32v1172zM613 1446h2q123 -33 196 -110q13 -9 46 -50q86 -122 86 -249v-23q0 -162 -130 -299q-80 -72 -158 -99q-19 -6 -42 -12v1q39 47 39 94v11q0 71 -71 120
v1q38 9 87 60q51 62 51 135q0 96 -83 164q-21 17 -54 31l-1 1q71 48 71 118v12q0 47 -39 94zM443 1459h60q76 0 109 -65q11 -22 11 -48q0 -77 -82 -109q-17 -4 -31 -4h-325q-62 0 -98 65q-10 22 -10 43v9q0 63 67 99q15 6 32 9q162 1 267 1zM335 818h175q75 0 108 -79
q5 -18 5 -37q0 -67 -73 -103q-20 -7 -49 -7h-166q-3 0 -3 2v221q1 3 3 3z" />
    <glyph glyph-name="Q" unicode="Q" 
d="M811 1459h12q62 0 98 -65q10 -22 10 -43v-8q0 -69 -76 -103q-14 -6 -97 -9q-111 -13 -221 -81q-147 -96 -209 -271q-27 -78 -27 -180q-12 -48 -40 -70q-33 -24 -68 -24h-8q-68 0 -103 76q-5 19 -5 32v12q0 257 176 473q73 79 112 107q207 154 446 154zM916 1453
q157 -24 269 -90q58 -32 125 -89q74 -70 97 -104q154 -203 154 -454q0 -225 -126 -411h-1q-60 58 -162 161q40 85 44 112q20 66 20 133v9q0 196 -141 352q-71 70 -133 101q-52 28 -121 47l-41 7v2q62 49 62 118q0 57 -46 105v1zM1005 645q56 0 109 -63q423 -421 425 -427
q22 -30 22 -67q0 -80 -86 -111q-15 -2 -26 -2h-3q-55 0 -108 64q-428 426 -429 431q-18 30 -18 64q0 69 72 104q22 7 42 7zM307 636h2q24 -133 90 -221q71 -92 155 -142q128 -73 258 -73h14q122 0 241 64h3q59 -58 161 -162v-1q-186 -126 -413 -126q-303 0 -533 225
q-94 107 -121 168q-67 129 -81 252h1q48 -46 106 -46q68 0 117 62z" />
    <glyph glyph-name="R" unicode="R" horiz-adv-x="1020" 
d="M442 1459h62q83 0 114 -81q4 -17 4 -28v-6q0 -72 -77 -106q-18 -4 -34 -4h-327q-61 0 -97 64q-10 22 -10 43v9q0 65 70 100q14 5 28 8q173 1 267 1zM612 1446h3q28 -4 105 -41q44 -23 105 -82q118 -131 118 -299q0 -150 -99 -275q-62 -68 -95 -84q-54 -40 -137 -60v1
q41 44 41 101q0 73 -71 122l32 17q63 36 90 107q14 35 14 72v1q0 111 -102 178q-29 16 -34 16v4q71 45 71 123q0 52 -41 99zM77 1256h1q47 -53 114 -53h108q2 0 2 -3v-350q0 -2 -2 -2h-113q-62 0 -109 -53h-1v461zM182 818q21 -1 31 -1h9q112 0 287 1q64 0 101 -61
q12 -24 12 -48v-6q0 -71 -75 -104q-15 -6 -35 -6h-210v-493q0 -86 -71 -118q-21 -7 -38 -7h-7q-69 0 -104 76q-5 19 -5 32v626q0 61 62 97q14 8 43 12zM356 562h31q35 0 82 -56q349 -347 353 -356q18 -29 18 -59v-8q0 -62 -65 -98q-21 -10 -45 -10h-6q-54 0 -109 66
q-273 270 -273 276q-10 18 -10 34v186q5 25 24 25z" />
    <glyph glyph-name="S" unicode="S" horiz-adv-x="1007" 
d="M496 1459h326q64 0 99 -67q9 -19 9 -34v-21q0 -48 -53 -85q-25 -18 -72 -18h-307q-86 0 -152 -74q-24 -31 -33 -57h-2q-19 40 -78 64q-27 8 -45 8q-53 0 -98 -41q0 2 -1 2q11 44 33 89q21 46 81 112q133 122 293 122zM185 1144h7q66 0 102 -72q8 -26 8 -69
q15 -71 54 -110q50 -45 77 -50v-2q-72 -49 -72 -123q0 -54 39 -99v-1q-28 3 -105 40q-44 26 -94 72q-124 132 -124 296v11q0 61 64 97q23 10 44 10zM500 829h8q162 0 292 -119q72 -75 100 -148q30 -81 30 -142v-28q0 -51 -60 -90q-28 -12 -52 -12q-69 0 -103 69q-6 0 -12 83
q-21 79 -72 119q-57 45 -147 45q-38 8 -66 37q-27 35 -27 70v8q0 64 66 99q21 9 43 9zM693 331h1q49 -70 121 -70h6q51 0 95 39h1v-2q0 -19 -38 -98q-80 -143 -230 -199q-69 -26 -158 -26h-297q-83 0 -114 81q-3 17 -3 28v6q0 70 74 103q19 7 37 7h311q123 0 186 113
q8 17 8 18z" />
    <glyph glyph-name="T" unicode="T" 
d="M185 1459h636q62 0 97 -59q14 -24 14 -54v-539h-1q-49 52 -106 52h-12q-57 0 -106 -52h-1v426h-504q-97 0 -123 87q-2 13 -2 22v9q0 68 76 103q19 5 32 5zM910 1459h543q62 0 98 -65q10 -22 10 -43v-10q0 -43 -37 -78q-30 -30 -88 -30h-472q-3 0 -3 3v118q0 56 -51 104v1
zM820 830q69 0 103 -70q9 -19 9 -43v-629q0 -76 -77 -108q-17 -5 -31 -5h-10q-65 0 -100 71q-8 20 -8 46v624q0 72 73 106q21 8 41 8z" />
    <glyph glyph-name="U" unicode="U" horiz-adv-x="1639" 
d="M1450 830q69 0 103 -70q9 -19 9 -41v-4q0 -303 -227 -533q-101 -89 -151 -111q-173 -96 -344 -96h-31q-44 0 -81 45q-22 33 -22 67q0 71 74 106q13 6 103 10q67 11 108 26q100 37 181 109q78 82 95 121q26 43 48 111q22 76 22 167q12 46 42 68q31 25 71 25zM184 1459h9
q70 0 104 -78q5 -22 5 -47v-602q0 -87 -64 -116q-19 -12 -51 -12q-61 0 -97 59q-13 24 -13 50v638q0 68 76 103q19 5 31 5zM307 636h1q2 -38 40 -134q36 -79 109 -154q79 -74 149 -102q55 -27 131 -39v-4q-61 -44 -61 -116q0 -60 47 -106l-1 -1q-83 13 -135 31
q-102 35 -192 95q-49 32 -125 111q-111 125 -155 263q-32 108 -32 140h1q46 -45 98 -45h12q65 0 113 61zM1445 1459h6q71 0 104 -75q7 -19 7 -37v-540h-2q-48 52 -105 52h-12q-57 0 -106 -52h-1v534q0 84 81 114q17 4 28 4z" />
    <glyph glyph-name="V" unicode="V" 
d="M644 686h2l172 -346h2l172 346h2q14 -52 49 -79q44 -33 91 -33q26 0 59 13l1 -1q-278 -558 -284 -567q-38 -44 -86 -44h-10q-59 0 -96 61l-274 550l1 1q33 -13 59 -13q73 0 120 66q20 34 20 46zM1444 1459h9q65 0 101 -70q7 -21 7 -34v-14q0 -29 -33 -88
q-297 -595 -301 -600q-36 -49 -93 -49h-2q-61 0 -97 59q-14 25 -14 50v8q0 33 42 105q287 577 297 591q38 42 84 42zM185 1459h9q54 0 90 -52q329 -652 329 -659q4 -15 4 -27v-8q0 -68 -74 -103q-21 -6 -38 -6h-1q-80 0 -117 96q-304 605 -305 613q-5 14 -5 29v9
q0 68 76 103q19 5 32 5z" />
    <glyph glyph-name="W" unicode="W" horiz-adv-x="1392" 
d="M189 1459h8q67 0 104 -71q175 -647 175 -660v-17q0 -63 -70 -102q-27 -9 -48 -9q-67 0 -104 70q-33 115 -177 660v17q0 65 68 102q23 10 44 10zM1196 1459h6q65 0 101 -63q12 -23 12 -43v-17q0 -17 -32 -131q-112 -415 -114 -429h-1q-14 25 -34 47q-48 41 -101 41
q-45 0 -86 -28h-3q141 535 151 559q39 64 101 64zM692 832h9q66 0 102 -70q10 -22 10 -45q0 -22 -43 -176q-128 -478 -135 -500q-21 -38 -57 -56q-24 -10 -39 -10h-21q-47 0 -86 50q-15 20 -36 112q-6 18 -124 461h2q41 -28 88 -28q85 0 133 86v2h2l31 -118h1q55 213 64 231
q38 61 99 61zM1028 832h8q67 0 103 -71q9 -21 9 -44v-1q0 -24 -38 -155l-108 -408h-3q-103 384 -119 446q40 153 49 173q39 60 99 60zM831 654h3q140 -521 146 -552v-16q0 -67 -74 -105q-21 -6 -32 -6h-17q-39 3 -39 12v3h-9q-23 7 -47 44q-9 17 -50 174q106 392 119 446z
" />
    <glyph glyph-name="X" unicode="X" horiz-adv-x="1273" 
d="M205 1459h10q75 0 128 -93q401 -570 411 -587q15 -31 15 -62q0 -49 -40 -99q-404 -579 -422 -601q-42 -42 -95 -42h-8q-72 0 -116 77q-11 29 -11 53v6q0 52 51 111q6 11 345 495q-373 532 -382 547q-14 29 -14 58v10q0 67 68 111q30 16 60 16zM1058 1459h10q60 0 104 -58
q24 -34 24 -75q0 -53 -49 -111q-333 -478 -342 -487h-1v1q0 53 -68 137l-78 114q286 411 310 441q43 38 90 38zM804 706h1q7 -7 366 -522q25 -34 25 -77q0 -80 -80 -121q-23 -11 -50 -11h-9q-68 0 -114 71q-282 401 -285 409v1q122 169 133 195q13 35 13 55z" />
    <glyph glyph-name="Y" unicode="Y" horiz-adv-x="1180" 
d="M196 1459h7q67 0 112 -75l255 -364v-1q-123 -173 -124 -183q-10 -31 -10 -47h-1q-8 7 -337 480q-21 29 -21 65v6q0 76 81 113q20 6 38 6zM977 1459h10q65 0 104 -67q12 -24 12 -49v-11q0 -45 -48 -101q-209 -303 -375 -535q-39 -40 -91 -40q-72 0 -110 71q-11 25 -11 51
v2q0 44 36 88q377 539 387 552q39 39 86 39zM468 681h1q53 -57 115 -57h12q63 0 115 57h1v-588q0 -71 -75 -109q-22 -9 -41 -9h-12q-67 0 -105 71q-11 22 -11 49v586z" />
    <glyph glyph-name="Z" unicode="Z" horiz-adv-x="1008" 
d="M185 1459h544v-1q-35 -31 -62 -97l-65 -128h-392q-72 0 -101 35q-32 34 -32 74v9q0 68 76 103q19 5 32 5zM816 1459h7q67 0 102 -72q6 -17 6 -33v-18q0 -25 -48 -114q-280 -560 -287 -571q-37 -47 -93 -47q-65 0 -102 66q-10 27 -10 47q0 36 37 98q296 597 302 601
q37 43 86 43zM364 686h1q13 -51 45 -74q40 -37 92 -37h2q30 0 60 12v-1q0 -3 -178 -356h-201q-26 0 -55 -12v1q232 467 234 467zM190 201h628q65 0 101 -60q12 -24 12 -43v-20q0 -44 -47 -82q-28 -21 -70 -21h-620q-85 0 -113 83q-4 12 -4 26v8q0 59 59 95q24 14 54 14z" />
    <glyph glyph-name="bracketleft" unicode="[" horiz-adv-x="677" 
d="M227 1574h231q86 0 132 -92q10 -25 10 -43v-21q0 -83 -94 -130q-28 -10 -70 -10h-186q-120 0 -159 104q-5 24 -5 37v18q0 62 64 112q39 25 77 25zM77 1321h3q59 -82 151 -82h137q4 0 4 -3v-615q0 -113 -84 -151q-25 -16 -67 -16q-80 0 -127 77q-17 32 -17 66v724zM77 485
h3q58 -69 134 -69h17q76 0 139 69h2v-561h93q66 0 115 -72q20 -34 20 -63v-24q0 -67 -78 -118q-33 -16 -62 -16h-242q-81 0 -129 85q-12 28 -12 56v713z" />
    <glyph glyph-name="backslash" unicode="\" horiz-adv-x="976" 
d="M194 1434h10q86 0 126 -115q267 -567 277 -596q3 -14 4 -31q0 -73 -73 -112q-22 -11 -52 -11q-88 0 -128 114q-278 591 -278 599q-3 16 -3 25v8q0 76 83 114q21 5 34 5zM638 655h1q9 -13 244 -521q16 -26 16 -55v-13q0 -66 -71 -105q-23 -11 -49 -11h-5q-86 0 -127 112
l-229 490l1 1q33 -16 64 -16h12q71 0 124 71q19 36 19 47z" />
    <glyph glyph-name="bracketright" unicode="]" horiz-adv-x="677" 
d="M218 1574h240q85 0 132 -92q10 -25 10 -43v-718h-2q-63 67 -140 67h-11q-80 0 -138 -69h-3v559h-66q-127 0 -160 114q-3 16 -3 29v11q0 89 99 135q25 7 42 7zM454 750q77 0 125 -71q21 -34 21 -69v-726h-2q-63 81 -157 81h-132q-3 0 -3 3v639q0 81 83 128q30 15 65 15z
M216 -76h239q67 0 117 -74q19 -37 19 -73q0 -96 -101 -140q-22 -6 -40 -6h-232q-81 0 -129 85q-12 28 -12 56v11q0 80 81 127q28 14 58 14z" />
    <glyph glyph-name="asciicircum" unicode="^" horiz-adv-x="1105" 
d="M550 1563h7q99 0 145 -129q322 -685 322 -694q4 -15 4 -28v-15q0 -77 -84 -122q-27 -12 -57 -12q-103 0 -146 120q-313 667 -324 697q-6 15 -6 37v10q0 78 82 124q27 12 57 12zM377 1378h2q0 -12 107 -239q45 -96 45 -98q-180 -388 -197 -418q-46 -60 -119 -60
q-76 0 -122 74q-16 31 -16 63v9q0 38 40 114q251 541 260 555z" />
    <glyph glyph-name="underscore" unicode="_" horiz-adv-x="854" 
d="M77 -132v4q0 31 33 48q9 3 16 3h288v-1q-25 -22 -25 -52q0 -29 25 -52v-1h-286q-32 0 -49 36q-2 9 -2 15zM404 -131v2q0 32 33 49q9 3 15 3h275q30 0 47 -34q3 -10 3 -16v-5q0 -32 -36 -49q-9 -2 -15 -2h-270q-29 0 -46 28q-6 11 -6 24z" />
    <glyph glyph-name="grave" unicode="`" horiz-adv-x="451" 
d="M154 1434h6q46 0 78 -55q59 -81 64 -96q4 -15 5 -27q0 -53 -56 -77q-7 -3 -26 -4q-48 0 -78 51q-57 80 -65 97q-5 14 -5 27v4q0 52 55 76q12 4 22 4zM328 1249h1q43 -60 43 -69q2 -10 2 -14v-14q0 -36 -41 -64q-19 -9 -36 -9h-8q-45 0 -78 56q-1 0 -16 22l1 1
q13 -5 30 -5q58 0 91 58q11 24 11 38z" />
    <glyph glyph-name="a" unicode="a" horiz-adv-x="1555" 
d="M772 1459h10q71 0 110 -78l548 -1176q38 -72 38 -105v-4q0 -73 -74 -111q-23 -10 -47 -10h-4q-86 0 -123 102q-9 15 -437 936q-136 287 -136 297q-2 12 -2 24v5q0 75 78 113q21 7 39 7zM624 1300h2q7 -25 86 -190q4 -10 47 -100q0 -2 -442 -951q-12 -30 -41 -57
q-36 -27 -73 -27h-6q-75 0 -113 78q-7 22 -7 40v9q0 31 35 100zM966 561q3 0 65 -137q7 -12 50 -106l-3 -1h-602q-3 0 -3 2q104 224 114 242h379z" />
    <glyph glyph-name="b" unicode="b" horiz-adv-x="1228" 
d="M186 1459h538q63 0 99 -65q10 -22 10 -43v-8q0 -65 -69 -101q-21 -9 -52 -9h-409v-1000q0 -3 -3 -3h-97q-79 0 -125 -57h-1v1178q0 68 76 103q19 5 33 5zM824 1447q132 -36 215 -129q112 -126 112 -290q0 -293 -282 -394q-97 -30 -178 -30h-356q-3 0 -3 2v221q1 2 3 2
h371q131 0 196 100q23 45 23 101q0 107 -100 175q-24 13 -34 16v1q73 48 73 125q0 52 -40 97v3zM1038 694h2q56 -62 81 -130q30 -75 30 -144v-31q0 -133 -101 -262q-69 -72 -98 -84q-107 -68 -217 -68h-552q-52 0 -91 60q-13 28 -13 52q0 74 78 107q17 5 31 5h517
q152 0 209 136q13 42 13 71q0 98 -85 166q-10 7 -25 14v2q0 1 58 17q67 24 118 55q24 17 45 34z" />
    <glyph glyph-name="c" unicode="c" horiz-adv-x="1454" 
d="M810 1459h17q268 0 489 -190q61 -50 61 -108q0 -62 -59 -98q-24 -13 -50 -13h-6q-53 0 -99 54q-155 130 -334 130h-21q-180 0 -334 -132q-63 -60 -91 -105q-81 -134 -81 -270v-20q0 -154 98 -293q-1 0 -1 -2q-14 3 -27 3q-83 0 -128 -83q-13 -30 -13 -53v-14h-1
q-153 204 -153 444v17q0 249 167 461q64 74 110 109q209 163 456 163zM367 384h15q45 0 96 -56q153 -128 337 -128h11q200 0 362 155q31 29 75 29h1q77 0 109 -83q3 -17 3 -25v-9q0 -54 -60 -101q-216 -191 -498 -191q-262 0 -471 169q-77 63 -83 98q-3 17 -3 32q0 58 54 94
q26 16 52 16z" />
    <glyph glyph-name="d" unicode="d" horiz-adv-x="1301" 
d="M184 1459h309q251 0 468 -175q88 -81 106 -111q68 -91 99 -166q58 -144 58 -277v-22q0 -220 -135 -418q-31 -47 -106 -120q-220 -195 -502 -195q-62 0 -98 59q-14 24 -14 50v7q0 66 70 101q15 9 88 10q71 9 110 22q177 61 279 213q82 136 82 267v26q0 173 -129 330
q-65 67 -106 91q-135 83 -271 83h-291q-86 0 -117 71q-7 21 -7 38v8q0 68 75 103q20 5 32 5zM77 1257h1q47 -53 109 -53h113q2 0 2 -2v-1002h91v-1q-54 -47 -54 -111q0 -62 52 -112v-1h-194q-83 0 -113 72q-7 17 -7 37v1173z" />
    <glyph glyph-name="e" unicode="e" horiz-adv-x="1232" 
d="M185 1459h9q69 0 104 -78q5 -22 5 -47v-1101q0 -3 -3 -3h-111q-63 0 -111 -53h-1v1174q0 68 76 103q19 5 32 5zM279 1459h767q66 0 102 -71q7 -22 7 -39v-3q0 -75 -80 -108q-18 -5 -45 -5h-695q-3 0 -3 3v113q0 62 -53 109v1zM335 830h706q82 0 112 -87q2 -16 2 -26
q0 -81 -87 -110q-15 -3 -26 -3h-707q-3 0 -3 3v220q0 3 3 3zM184 199h864q62 0 97 -66q10 -20 10 -45v-1q0 -74 -77 -107q-17 -5 -31 -5h-862q-62 0 -98 65q-10 22 -10 43v9q0 60 63 96q21 11 44 11z" />
    <glyph glyph-name="f" unicode="f" horiz-adv-x="1232" 
d="M185 1459h861q66 0 102 -71q7 -22 7 -39v-3q0 -75 -80 -108q-18 -5 -45 -5h-828q-97 0 -123 87q-2 13 -2 22v9q0 68 76 103q19 5 32 5zM77 1257h1q47 -53 109 -53h113q3 0 3 -3v-1101q0 -97 -87 -123q-10 -2 -21 -2h-10q-62 0 -98 65q-10 22 -10 43v1174zM335 830h706
q82 0 112 -87q2 -16 2 -26q0 -81 -87 -110q-15 -3 -26 -3h-707q-3 0 -3 3v220q0 3 3 3z" />
    <glyph glyph-name="g" unicode="g" horiz-adv-x="1453" 
d="M811 1459h14q247 0 457 -162q82 -66 89 -100q5 -17 5 -36q0 -71 -76 -105q-19 -5 -29 -5h-17q-42 0 -84 45q-155 139 -352 139q-186 0 -338 -126q-55 -57 -86 -57q0 -2 -18 -2h-7q-66 0 -101 70q-8 21 -8 34v13q0 54 60 101q98 88 207 132q137 59 284 59zM228 1167h2v-1
q0 -98 95 -138q16 -6 48 -9q22 3 26 3v-2q-97 -142 -97 -289v-27q0 -160 112 -309q67 -77 101 -96q139 -99 303 -99q216 0 377 163q32 23 71 23q66 0 102 -70q8 -20 8 -33v-20q0 -48 -67 -102q-215 -186 -491 -186q-228 0 -422 131q-44 27 -123 108q-105 116 -154 252
q-42 123 -42 243v17q0 231 145 435zM917 726h256v-1q-52 -45 -52 -121v-100q0 -2 -3 -2h-201q-59 0 -95 61q-13 25 -13 52q0 73 78 106q16 5 30 5zM1258 726h11q62 0 98 -66q9 -21 9 -39v-258h-2q-48 52 -104 52h-11q-58 0 -107 -52h-1v253q0 58 54 94q26 16 53 16z" />
    <glyph glyph-name="h" unicode="h" horiz-adv-x="1232" 
d="M185 1459h9q66 0 101 -71q7 -20 7 -48v-510h742q69 0 102 -69q9 -19 9 -41v-633q0 -68 -67 -102q-20 -10 -48 -10q-59 0 -96 57q-14 25 -14 56v516h-736q-78 0 -110 72q-7 18 -7 37v638q0 69 76 103q19 5 32 5zM1038 1459h9q64 0 99 -69q9 -19 9 -41v-541h-1
q-35 37 -68 45q-20 7 -64 7h-90q-2 0 -2 3v483q0 75 77 108q17 5 31 5zM77 626h1q49 -51 106 -51h116q2 -1 2 -3v-479q0 -83 -80 -113q-14 -5 -34 -5q-71 0 -106 76q-5 20 -5 32v543z" />
    <glyph glyph-name="i" unicode="i" horiz-adv-x="378" 
d="M185 1459h6q71 0 105 -75q5 -18 5 -27v-776h-1q-47 52 -106 52h-11q-56 0 -105 -52h-1v770q0 62 65 98q22 10 43 10zM189 604q74 0 106 -74q6 -15 6 -29v-424q0 -50 -57 -88q-25 -14 -49 -14h-15q-46 0 -85 49q-18 30 -18 59v412q0 68 76 104q21 5 36 5z" />
    <glyph glyph-name="j" unicode="j" horiz-adv-x="1018" 
d="M826 1459h8q63 0 97 -65q10 -20 10 -43v-856h-1q-47 52 -106 52h-8q-59 0 -106 -52h-1v857q0 66 72 101q20 6 35 6zM184 517h8q70 0 103 -79q4 -21 6 -66q18 -77 63 -117q64 -58 141 -58h8q102 0 173 96q34 54 34 136q16 51 48 71q31 17 58 17h8q64 0 98 -67q9 -20 9 -41
v-1q0 -214 -181 -354q-119 -79 -237 -79h-28q-141 0 -271 106q-147 138 -147 320v9q0 66 71 101q21 6 36 6z" />
    <glyph glyph-name="k" unicode="k" horiz-adv-x="1018" 
d="M185 1459h9q64 0 100 -70q8 -22 8 -34v-333l-224 -225h-1v554q0 62 65 98q22 10 43 10zM824 1459h9q62 0 97 -63q11 -21 11 -44v-11q0 -52 -63 -104l-576 -578v-576q0 -66 -72 -101q-19 -7 -43 -7q-69 0 -104 74q-6 18 -6 36v624q0 55 58 102q625 627 628 627
q29 21 61 21zM380 686q15 0 47 -37q491 -489 496 -497q18 -32 18 -55v-15q0 -64 -71 -100q-20 -7 -43 -7q-57 0 -112 68q-365 363 -372 373q-11 18 -11 33v175q0 33 40 60z" />
    <glyph glyph-name="l" unicode="l" horiz-adv-x="1232" 
d="M185 1459h9q63 0 98 -66q10 -20 10 -43v-288h-3q-44 53 -103 53h-12q-57 0 -106 -52h-1v288q0 62 65 98q22 10 43 10zM189 1085h1q63 0 98 -59q14 -24 14 -50v-776h313q80 0 111 -86q2 -18 2 -25v-2q0 -66 -62 -101q-21 -11 -44 -11h-438q-61 0 -97 65q-10 22 -10 43v894
q0 68 76 103q21 5 36 5zM705 200h333q83 0 113 -82q4 -17 4 -32q0 -58 -54 -95q-26 -16 -53 -16h-342v1q52 48 52 106v12q0 57 -53 105v1z" />
    <glyph glyph-name="m" unicode="m" horiz-adv-x="1269" 
d="M185 1459h6q56 0 104 -60q148 -146 317 -317q-99 -99 -99 -106q-21 -34 -21 -68v-22h-1q-399 396 -399 401q-15 29 -15 55v9q0 62 65 98q22 10 43 10zM1077 1459h6q70 0 104 -76q5 -18 5 -27v-1278q0 -51 -56 -88q-24 -15 -50 -15h-13q-55 0 -92 57q-14 25 -14 56v1258
q0 74 75 107q15 6 35 6zM936 1362h1v-317q-235 -239 -242 -239q-29 -17 -53 -17h-12q-68 0 -104 76q-4 21 -4 36v1q0 57 60 106q168 170 354 354zM77 1256h1l223 -225v-945q0 -74 -77 -106q-14 -5 -26 -5h-18q-48 0 -86 52q-17 27 -17 56v1173z" />
    <glyph glyph-name="n" unicode="n" horiz-adv-x="1269" 
d="M178 1459q59 0 87 -29q19 -19 117 -162q15 -20 352 -497q13 -30 13 -54q0 -68 -67 -103q-21 -10 -45 -10q-69 0 -110 73q-191 267 -222 313h-1v-183h-1q-49 52 -106 52h-11q-61 0 -105 -52h-2v542q0 74 80 106zM1075 1459h9q67 0 101 -72q7 -17 7 -33v-647q0 -44 -47 -82
q-30 -21 -68 -21q-60 0 -96 59q-14 25 -14 50v636q0 72 77 105q17 5 31 5zM192 830q68 0 104 -75q6 -21 6 -53v-602q0 -97 -86 -123q-12 -2 -22 -2h-10q-68 0 -103 76q-4 19 -4 32v638q0 69 77 104q20 5 38 5zM777 708h2l187 -266h1v185h2q45 -52 104 -52h12q58 0 105 51h2
v-548q0 -51 -57 -90q-28 -13 -48 -13h-12q-65 0 -112 82q-4 5 -369 521q1 0 1 2q18 -5 32 -5h13q74 0 120 75q17 35 17 58z" />
    <glyph glyph-name="o" unicode="o" 
d="M815 1459h12q282 0 510 -210q224 -228 224 -533q0 -73 -77 -106q-17 -5 -31 -5h-10q-65 0 -101 73q-6 18 -9 97q-10 68 -31 126q-83 205 -281 292q-97 42 -220 42q-30 3 -65 34q-30 37 -30 77q0 64 61 101q24 12 48 12zM722 1453v-1q-46 -47 -46 -106q0 -68 62 -117v-2
q-132 -25 -214 -85q-143 -102 -198 -270q-25 -77 -25 -173q-12 -48 -40 -70q-33 -24 -68 -24h-8q-68 0 -103 76q-5 19 -5 32v12q0 278 205 505q84 82 154 124q67 38 129 61q56 21 142 37zM307 636h2q24 -133 93 -225q164 -212 436 -212q29 -3 65 -35q28 -36 28 -71v-10
q0 -60 -62 -97q-25 -11 -49 -11q-305 0 -533 224q-73 80 -101 131q-34 52 -66 136q-37 117 -37 154h1q48 -46 106 -46q68 0 117 62zM1329 636h2q48 -62 118 -62q58 0 105 47h1q-12 -91 -42 -167q-26 -73 -84 -160q-27 -42 -93 -109q-97 -89 -154 -114q-32 -21 -109 -52
q-71 -26 -158 -38v1q47 46 47 107q0 67 -62 116v2q62 10 118 33q53 23 108 61q48 35 97 94q41 53 60 95q40 91 40 117q2 2 6 29z" />
    <glyph glyph-name="p" unicode="p" horiz-adv-x="1020" 
d="M77 1255h1q46 -52 118 -52h103q2 -1 2 -3v-1118q0 -61 -65 -97q-21 -10 -42 -10h-9q-68 0 -103 76q-5 19 -5 32v1172zM613 1446h2q123 -33 196 -110q13 -9 46 -50q86 -122 86 -249v-23q0 -162 -130 -299q-80 -72 -158 -99q-19 -6 -42 -12v1q39 47 39 94v11q0 71 -71 120
v1q38 9 87 60q51 62 51 135q0 96 -83 164q-21 17 -54 31l-1 1q71 48 71 118v12q0 47 -39 94zM443 1459h60q76 0 109 -65q11 -22 11 -48q0 -77 -82 -109q-17 -4 -31 -4h-325q-62 0 -98 65q-10 22 -10 43v9q0 63 67 99q15 6 32 9q162 1 267 1zM335 818h175q75 0 108 -79
q5 -18 5 -37q0 -67 -73 -103q-20 -7 -49 -7h-166q-3 0 -3 2v221q1 3 3 3z" />
    <glyph glyph-name="q" unicode="q" 
d="M811 1459h12q62 0 98 -65q10 -22 10 -43v-8q0 -69 -76 -103q-14 -6 -97 -9q-111 -13 -221 -81q-147 -96 -209 -271q-27 -78 -27 -180q-12 -48 -40 -70q-33 -24 -68 -24h-8q-68 0 -103 76q-5 19 -5 32v12q0 257 176 473q73 79 112 107q207 154 446 154zM916 1453
q157 -24 269 -90q58 -32 125 -89q74 -70 97 -104q154 -203 154 -454q0 -225 -126 -411h-1q-60 58 -162 161q40 85 44 112q20 66 20 133v9q0 196 -141 352q-71 70 -133 101q-52 28 -121 47l-41 7v2q62 49 62 118q0 57 -46 105v1zM1005 645q56 0 109 -63q423 -421 425 -427
q22 -30 22 -67q0 -80 -86 -111q-15 -2 -26 -2h-3q-55 0 -108 64q-428 426 -429 431q-18 30 -18 64q0 69 72 104q22 7 42 7zM307 636h2q24 -133 90 -221q71 -92 155 -142q128 -73 258 -73h14q122 0 241 64h3q59 -58 161 -162v-1q-186 -126 -413 -126q-303 0 -533 225
q-94 107 -121 168q-67 129 -81 252h1q48 -46 106 -46q68 0 117 62z" />
    <glyph glyph-name="r" unicode="r" horiz-adv-x="1020" 
d="M442 1459h62q83 0 114 -81q4 -17 4 -28v-6q0 -72 -77 -106q-18 -4 -34 -4h-327q-61 0 -97 64q-10 22 -10 43v9q0 65 70 100q14 5 28 8q173 1 267 1zM612 1446h3q28 -4 105 -41q44 -23 105 -82q118 -131 118 -299q0 -150 -99 -275q-62 -68 -95 -84q-54 -40 -137 -60v1
q41 44 41 101q0 73 -71 122l32 17q63 36 90 107q14 35 14 72v1q0 111 -102 178q-29 16 -34 16v4q71 45 71 123q0 52 -41 99zM77 1256h1q47 -53 114 -53h108q2 0 2 -3v-350q0 -2 -2 -2h-113q-62 0 -109 -53h-1v461zM182 818q21 -1 31 -1h9q112 0 287 1q64 0 101 -61
q12 -24 12 -48v-6q0 -71 -75 -104q-15 -6 -35 -6h-210v-493q0 -86 -71 -118q-21 -7 -38 -7h-7q-69 0 -104 76q-5 19 -5 32v626q0 61 62 97q14 8 43 12zM356 562h31q35 0 82 -56q349 -347 353 -356q18 -29 18 -59v-8q0 -62 -65 -98q-21 -10 -45 -10h-6q-54 0 -109 66
q-273 270 -273 276q-10 18 -10 34v186q5 25 24 25z" />
    <glyph glyph-name="s" unicode="s" horiz-adv-x="1007" 
d="M496 1459h326q64 0 99 -67q9 -19 9 -34v-21q0 -48 -53 -85q-25 -18 -72 -18h-307q-86 0 -152 -74q-24 -31 -33 -57h-2q-19 40 -78 64q-27 8 -45 8q-53 0 -98 -41q0 2 -1 2q11 44 33 89q21 46 81 112q133 122 293 122zM185 1144h7q66 0 102 -72q8 -26 8 -69
q15 -71 54 -110q50 -45 77 -50v-2q-72 -49 -72 -123q0 -54 39 -99v-1q-28 3 -105 40q-44 26 -94 72q-124 132 -124 296v11q0 61 64 97q23 10 44 10zM500 829h8q162 0 292 -119q72 -75 100 -148q30 -81 30 -142v-28q0 -51 -60 -90q-28 -12 -52 -12q-69 0 -103 69q-6 0 -12 83
q-21 79 -72 119q-57 45 -147 45q-38 8 -66 37q-27 35 -27 70v8q0 64 66 99q21 9 43 9zM693 331h1q49 -70 121 -70h6q51 0 95 39h1v-2q0 -19 -38 -98q-80 -143 -230 -199q-69 -26 -158 -26h-297q-83 0 -114 81q-3 17 -3 28v6q0 70 74 103q19 7 37 7h311q123 0 186 113
q8 17 8 18z" />
    <glyph glyph-name="t" unicode="t" 
d="M185 1459h636q62 0 97 -59q14 -24 14 -54v-539h-1q-49 52 -106 52h-12q-57 0 -106 -52h-1v426h-504q-97 0 -123 87q-2 13 -2 22v9q0 68 76 103q19 5 32 5zM910 1459h543q62 0 98 -65q10 -22 10 -43v-10q0 -43 -37 -78q-30 -30 -88 -30h-472q-3 0 -3 3v118q0 56 -51 104v1
zM820 830q69 0 103 -70q9 -19 9 -43v-629q0 -76 -77 -108q-17 -5 -31 -5h-10q-65 0 -100 71q-8 20 -8 46v624q0 72 73 106q21 8 41 8z" />
    <glyph glyph-name="u" unicode="u" horiz-adv-x="1639" 
d="M1450 830q69 0 103 -70q9 -19 9 -41v-4q0 -303 -227 -533q-101 -89 -151 -111q-173 -96 -344 -96h-31q-44 0 -81 45q-22 33 -22 67q0 71 74 106q13 6 103 10q67 11 108 26q100 37 181 109q78 82 95 121q26 43 48 111q22 76 22 167q12 46 42 68q31 25 71 25zM184 1459h9
q70 0 104 -78q5 -22 5 -47v-602q0 -87 -64 -116q-19 -12 -51 -12q-61 0 -97 59q-13 24 -13 50v638q0 68 76 103q19 5 31 5zM307 636h1q2 -38 40 -134q36 -79 109 -154q79 -74 149 -102q55 -27 131 -39v-4q-61 -44 -61 -116q0 -60 47 -106l-1 -1q-83 13 -135 31
q-102 35 -192 95q-49 32 -125 111q-111 125 -155 263q-32 108 -32 140h1q46 -45 98 -45h12q65 0 113 61zM1445 1459h6q71 0 104 -75q7 -19 7 -37v-540h-2q-48 52 -105 52h-12q-57 0 -106 -52h-1v534q0 84 81 114q17 4 28 4z" />
    <glyph glyph-name="v" unicode="v" 
d="M644 686h2l172 -346h2l172 346h2q14 -52 49 -79q44 -33 91 -33q26 0 59 13l1 -1q-278 -558 -284 -567q-38 -44 -86 -44h-10q-59 0 -96 61l-274 550l1 1q33 -13 59 -13q73 0 120 66q20 34 20 46zM1444 1459h9q65 0 101 -70q7 -21 7 -34v-14q0 -29 -33 -88
q-297 -595 -301 -600q-36 -49 -93 -49h-2q-61 0 -97 59q-14 25 -14 50v8q0 33 42 105q287 577 297 591q38 42 84 42zM185 1459h9q54 0 90 -52q329 -652 329 -659q4 -15 4 -27v-8q0 -68 -74 -103q-21 -6 -38 -6h-1q-80 0 -117 96q-304 605 -305 613q-5 14 -5 29v9
q0 68 76 103q19 5 32 5z" />
    <glyph glyph-name="w" unicode="w" horiz-adv-x="1392" 
d="M189 1459h8q67 0 104 -71q175 -647 175 -660v-17q0 -63 -70 -102q-27 -9 -48 -9q-67 0 -104 70q-33 115 -177 660v17q0 65 68 102q23 10 44 10zM1196 1459h6q65 0 101 -63q12 -23 12 -43v-17q0 -17 -32 -131q-112 -415 -114 -429h-1q-14 25 -34 47q-48 41 -101 41
q-45 0 -86 -28h-3q141 535 151 559q39 64 101 64zM692 832h9q66 0 102 -70q10 -22 10 -45q0 -22 -43 -176q-128 -478 -135 -500q-21 -38 -57 -56q-24 -10 -39 -10h-21q-47 0 -86 50q-15 20 -36 112q-6 18 -124 461h2q41 -28 88 -28q85 0 133 86v2h2l31 -118h1q55 213 64 231
q38 61 99 61zM1028 832h8q67 0 103 -71q9 -21 9 -44v-1q0 -24 -38 -155l-108 -408h-3q-103 384 -119 446q40 153 49 173q39 60 99 60zM831 654h3q140 -521 146 -552v-16q0 -67 -74 -105q-21 -6 -32 -6h-17q-39 3 -39 12v3h-9q-23 7 -47 44q-9 17 -50 174q106 392 119 446z
" />
    <glyph glyph-name="x" unicode="x" horiz-adv-x="1273" 
d="M205 1459h10q75 0 128 -93q401 -570 411 -587q15 -31 15 -62q0 -49 -40 -99q-404 -579 -422 -601q-42 -42 -95 -42h-8q-72 0 -116 77q-11 29 -11 53v6q0 52 51 111q6 11 345 495q-373 532 -382 547q-14 29 -14 58v10q0 67 68 111q30 16 60 16zM1058 1459h10q60 0 104 -58
q24 -34 24 -75q0 -53 -49 -111q-333 -478 -342 -487h-1v1q0 53 -68 137l-78 114q286 411 310 441q43 38 90 38zM804 706h1q7 -7 366 -522q25 -34 25 -77q0 -80 -80 -121q-23 -11 -50 -11h-9q-68 0 -114 71q-282 401 -285 409v1q122 169 133 195q13 35 13 55z" />
    <glyph glyph-name="y" unicode="y" horiz-adv-x="1180" 
d="M196 1459h7q67 0 112 -75l255 -364v-1q-123 -173 -124 -183q-10 -31 -10 -47h-1q-8 7 -337 480q-21 29 -21 65v6q0 76 81 113q20 6 38 6zM977 1459h10q65 0 104 -67q12 -24 12 -49v-11q0 -45 -48 -101q-209 -303 -375 -535q-39 -40 -91 -40q-72 0 -110 71q-11 25 -11 51
v2q0 44 36 88q377 539 387 552q39 39 86 39zM468 681h1q53 -57 115 -57h12q63 0 115 57h1v-588q0 -71 -75 -109q-22 -9 -41 -9h-12q-67 0 -105 71q-11 22 -11 49v586z" />
    <glyph glyph-name="z" unicode="z" horiz-adv-x="1008" 
d="M185 1459h544v-1q-35 -31 -62 -97l-65 -128h-392q-72 0 -101 35q-32 34 -32 74v9q0 68 76 103q19 5 32 5zM816 1459h7q67 0 102 -72q6 -17 6 -33v-18q0 -25 -48 -114q-280 -560 -287 -571q-37 -47 -93 -47q-65 0 -102 66q-10 27 -10 47q0 36 37 98q296 597 302 601
q37 43 86 43zM364 686h1q13 -51 45 -74q40 -37 92 -37h2q30 0 60 12v-1q0 -3 -178 -356h-201q-26 0 -55 -12v1q232 467 234 467zM190 201h628q65 0 101 -60q12 -24 12 -43v-20q0 -44 -47 -82q-28 -21 -70 -21h-620q-85 0 -113 83q-4 12 -4 26v8q0 59 59 95q24 14 54 14z" />
    <glyph glyph-name="braceleft" unicode="{" horiz-adv-x="794" 
d="M368 1579h216q82 0 125 -91q8 -23 8 -45v-7q0 -73 -74 -118q-26 -16 -80 -16h-174q-110 0 -148 91q-7 32 -7 49q0 74 69 118q32 19 65 19zM225 1342h1q60 -77 148 -77h125q3 0 3 -3v-410q0 -76 -83 -143q-128 -133 -142 -133q-30 -15 -63 -15q-77 0 -122 75
q-15 30 -15 59v11q0 66 84 135l64 65v436zM399 636q86 -78 86 -91q17 -27 17 -61v-448q0 -3 3 -3h81q75 0 119 -80q12 -27 12 -53v-10q0 -76 -80 -120q-27 -12 -53 -12h-227q-53 0 -96 45q-36 37 -36 108v509q-128 126 -128 134q-12 21 -12 27v1q57 -57 128 -57h1
q87 0 152 80z" />
    <glyph glyph-name="bar" unicode="|" horiz-adv-x="1014" 
d="M427 1577h160v-1995h-160v1995z" />
    <glyph glyph-name="braceright" unicode="}" horiz-adv-x="785" 
d="M209 1579h217q73 0 117 -74q17 -28 17 -74v-525q129 -129 131 -137q9 -20 9 -26q-57 57 -127 57h-7q-82 0 -152 -84l-29 -27q-95 86 -95 122q-7 18 -7 44v447h-53q-119 0 -150 106q-3 15 -3 28v10q0 83 93 126q24 7 39 7zM569 764q91 0 132 -94q7 -21 7 -38v-17
q0 -59 -83 -129l-65 -66v-413q0 -3 -3 -3q-53 67 -139 67h-132q-3 0 -3 3v409q0 68 68 119q141 146 153 146q32 16 65 16zM208 33h224q62 0 110 -69q18 -35 18 -70q0 -88 -95 -130q-21 -6 -38 -6h-218q-76 0 -120 79q-12 27 -12 53v10q0 75 76 119q26 14 55 14z" />
    <glyph glyph-name="asciitilde" unicode="~" horiz-adv-x="983" 
d="M906 878v-156q-63 -72 -122 -97.5t-116 -25.5q-60 0 -177.5 48.5t-176.5 48.5q-51 0 -107.5 -28t-129.5 -112v156q64 73 123 99t114 26q64 0 181.5 -49.5t172.5 -49.5q52 0 108.5 28t129.5 112z" />
    <glyph glyph-name="brokenbar" unicode="&#xa6;" horiz-adv-x="378" 
d="M189 504q74 0 106 -74q6 -15 6 -29v-424q0 -50 -57 -88q-25 -14 -49 -14h-15q-46 0 -85 49q-18 30 -18 59v412q0 68 76 104q21 5 36 5zM189 1559q74 0 106 -74q6 -15 6 -29v-424q0 -50 -57 -88q-25 -14 -49 -14h-15q-46 0 -85 49q-18 30 -18 59v412q0 68 76 104
q21 5 36 5z" />
    <glyph glyph-name="dieresis" unicode="&#xa8;" horiz-adv-x="836" 
d="M210 1393h6q48 0 90 -38q41 -42 41 -94v-6q0 -62 -55 -106q-37 -26 -77 -26h-7q-25 0 -52 12v1q63 50 63 122t-63 122q12 8 35 12q11 1 19 1zM141 1373q41 -26 58 -76q6 -20 6 -35v-8q0 -55 -48 -99q-9 -8 -16 -12q-40 23 -59 77q-5 18 -5 36v4q0 67 62 112q1 0 2 1z
M622 1393h6q48 0 90 -38q41 -42 41 -94v-6q0 -62 -55 -106q-37 -26 -77 -26h-7q-25 0 -52 12v1q63 50 63 122t-63 122q12 8 35 12q11 1 19 1zM553 1373q41 -26 58 -76q6 -20 6 -35v-8q0 -55 -48 -99q-9 -8 -16 -12q-40 23 -59 77q-5 18 -5 36v4q0 67 62 112q1 0 2 1z" />
    <glyph glyph-name="copyright" unicode="&#xa9;" horiz-adv-x="1674" 
d="M840 1456q145 0 280 -56.5t239 -160.5q102 -101 158.5 -238t56.5 -283q0 -147 -56.5 -282t-162.5 -240q-105 -105 -239 -159.5t-283 -54.5q-146 0 -278 55.5t-238 160.5q-106 104 -161.5 237.5t-55.5 282.5q0 148 55.5 283t159.5 238q102 104 238.5 160.5t286.5 56.5z
M357 1197q-95 -96 -146 -219.5t-51 -259.5q0 -137 51 -259t148 -219q98 -96 219 -147t256 -51q137 0 259.5 50.5t219.5 145.5q97 98 149 221.5t52 258.5q0 134 -52 259.5t-145 219.5q-96 96 -220 147.5t-258 51.5q-137 0 -262 -51.5t-220 -147.5zM893 1215h11
q179 0 327 -127q41 -33 41 -72q0 -42 -40 -66q-16 -8 -33 -8h-4q-36 0 -66 36q-104 87 -224 87h-14q-120 0 -223 -89q-42 -40 -61 -70q-54 -89 -54 -180v-14q0 -102 66 -195q-1 0 -1 -2q-9 2 -18 2q-55 0 -85 -55q-9 -20 -9 -36v-9h-1q-102 136 -102 297v11q0 167 112 308
q42 50 73 73q140 109 305 109zM597 497h10q30 0 64 -38q102 -85 225 -85h7q134 0 242 103q21 20 50 20h1q52 0 73 -56q2 -11 2 -17v-6q0 -36 -40 -67q-144 -128 -333 -128q-175 0 -315 113q-51 42 -55 66q-2 11 -2 21q0 39 36 63q17 11 35 11z" />
    <glyph glyph-name="guillemotleft" unicode="&#xab;" horiz-adv-x="935" 
d="M643 1550q22 -23 82 -113q43 -51 43 -91v-8q0 -23 -12 -45q-34 -59 -95 -59q-36 0 -71 27q-20 22 -85 118q-41 49 -41 92q2 26 8 39q34 67 96 67h8q35 0 67 -27zM255 1551q19 -22 90 -126q35 -43 35 -82q0 -20 -8 -42q-34 -67 -99 -67q-40 0 -74 31q-17 19 -92 128
q-30 37 -30 74v4q0 17 5 35q32 71 99 71h6q34 0 68 -26zM811 1313q47 -55 47 -95v-8q0 -20 -10 -41q-34 -61 -92 -61h-10q-32 0 -63 23q-23 22 -61 80q2 0 2 1q17 -6 37 -6q36 0 72 20q63 47 63 107h1q12 -13 14 -20zM427 1308q43 -51 43 -92q0 -20 -8 -43q-34 -65 -95 -65
h-12q-26 0 -57 20q-25 23 -63 82v1q25 -5 37 -5h2q52 0 93 39q41 44 41 88h3z" />
    <glyph glyph-name="registered" unicode="&#xae;" horiz-adv-x="1674" 
d="M840 1456q145 0 280 -56.5t239 -160.5q102 -101 158.5 -238t56.5 -283q0 -147 -56.5 -282t-162.5 -240q-105 -105 -239 -159.5t-283 -54.5q-146 0 -278 55.5t-238 160.5q-106 104 -161.5 237.5t-55.5 282.5q0 148 55.5 283t159.5 238q102 104 238.5 160.5t286.5 56.5z
M357 1197q-95 -96 -146 -219.5t-51 -259.5q0 -137 51 -259t148 -219q98 -96 219 -147t256 -51q137 0 259.5 50.5t219.5 145.5q97 98 149 221.5t52 258.5q0 134 -52 259.5t-145 219.5q-96 96 -220 147.5t-258 51.5q-137 0 -262 -51.5t-220 -147.5zM795 1170h38q50 0 69 -50
q3 -10 3 -17v-3q0 -44 -47 -65q-11 -2 -21 -2h-198q-37 0 -59 39q-6 13 -6 26v5q0 40 42 61q9 3 17 5q105 1 162 1zM899 1162h1q17 -3 64 -25q27 -14 64 -50q71 -79 71 -181q0 -91 -60 -167q-37 -41 -57 -51q-33 -24 -83 -37v1q24 27 24 61q0 45 -43 74l20 11q38 21 54 65
q9 21 9 43v1q0 67 -62 108q-18 10 -21 10v2q43 27 43 75q0 31 -24 60zM574 1046h1q28 -32 69 -32h65q2 0 2 -2v-212q0 -1 -2 -1h-68q-38 0 -66 -32h-1v279zM638 781q12 -1 19 -1h5q68 0 174 1q39 0 61 -37q8 -15 8 -29v-4q0 -43 -46 -63q-9 -4 -21 -4h-127v-299
q0 -52 -44 -72q-12 -4 -23 -4h-4q-42 0 -63 46q-3 12 -3 20v380q0 37 38 58q8 5 26 8zM743 625h19q21 0 50 -34q212 -210 214 -216q11 -17 11 -35v-5q0 -38 -39 -60q-13 -6 -28 -6h-3q-33 0 -67 40q-165 164 -165 168q-6 11 -6 20v113q3 15 14 15z" />
    <glyph glyph-name="macron" unicode="&#xaf;" horiz-adv-x="854" 
d="M77 1735v4q0 31 33 48q9 3 16 3h288v-1q-25 -22 -25 -52q0 -29 25 -52v-1h-286q-32 0 -49 36q-2 9 -2 15zM404 1736v2q0 32 33 49q9 3 15 3h275q30 0 47 -34q3 -10 3 -16v-5q0 -32 -36 -49q-9 -2 -15 -2h-270q-29 0 -46 28q-6 11 -6 24z" />
    <glyph glyph-name="degree" unicode="&#xb0;" horiz-adv-x="674" 
d="M339 1372q-86 0 -147.5 -61t-61.5 -148t61 -147t148 -60t147 60t60 147t-60.5 148t-146.5 61zM339 1442q115 0 196 -81.5t81 -196.5q0 -114 -82 -196t-197 -82q-117 0 -197 81t-80 197t81.5 197t197.5 81z" />
    <glyph glyph-name="acute" unicode="&#xb4;" horiz-adv-x="546" 
d="M358 1577h9q62 0 95 -67q7 -19 7 -31v-15q0 -37 -40 -85q-65 -96 -84 -118q-36 -27 -71 -27q-61 0 -96 59q-11 22 -11 45v8q0 40 43 91q60 90 81 113q33 27 67 27zM137 1333h2q0 -60 62 -107q36 -20 73 -20q20 0 37 6l1 -1q-38 -58 -61 -80q-31 -23 -62 -23h-11
q-57 0 -92 61q-9 21 -9 41v8q0 40 47 95q2 7 13 20z" />
    <glyph glyph-name="mu" unicode="&#xb5;" horiz-adv-x="1639" 
d="M1417 -21q-81 30 -81 114v90l-1 -1q-101 -89 -151 -111q-173 -96 -344 -96h-31q-44 0 -81 45q-22 33 -22 67q0 71 74 106q13 6 103 10q67 11 108 26q100 37 181 109q78 82 95 121q26 43 48 111q22 76 22 167q12 46 42 68q31 25 71 25q69 0 103 -70q9 -19 9 -41v-632
q0 -18 -7 -37q-33 -75 -104 -75h-6q-11 0 -28 4zM164 -395q-81 30 -81 114v901h1q46 -45 98 -45h12q65 0 113 61h1q2 -38 40 -134q36 -79 109 -154q79 -74 149 -102q55 -27 131 -39v-4q-61 -44 -61 -116q0 -60 47 -106l-1 -1q-83 13 -135 31q-102 35 -192 95q-36 23 -86 71
v-464q0 -18 -7 -37q-33 -75 -104 -75h-6q-11 0 -28 4zM184 1459h9q70 0 104 -78q5 -22 5 -47v-602q0 -87 -64 -116q-19 -12 -51 -12q-61 0 -97 59q-13 24 -13 50v638q0 68 76 103q19 5 31 5zM1445 1459h6q71 0 104 -75q7 -19 7 -37v-540h-2q-48 52 -105 52h-12
q-57 0 -106 -52h-1v534q0 84 81 114q17 4 28 4z" />
    <glyph glyph-name="paragraph" unicode="&#xb6;" horiz-adv-x="1024" 
d="M929 1435v-70h-127v-1365h-82v1365h-166v-1365h-84v738q-174 8 -275.5 102.5t-101.5 245.5q0 157 107.5 253t285.5 96h443z" />
    <glyph glyph-name="periodcentered" unicode="&#xb7;" horiz-adv-x="557" 
d="M252 838h6q48 0 90 -38q41 -42 41 -94v-6q0 -62 -55 -106q-37 -26 -77 -26h-7q-25 0 -52 12v1q63 50 63 122t-63 122q12 8 35 12q11 1 19 1zM183 818q41 -26 58 -76q6 -20 6 -35v-8q0 -55 -48 -99q-9 -8 -16 -12q-40 23 -59 77q-5 18 -5 36v4q0 67 62 112q1 0 2 1z" />
    <glyph glyph-name="periodcentered" unicode="&#x2219;" horiz-adv-x="557" 
d="M252 838h6q48 0 90 -38q41 -42 41 -94v-6q0 -62 -55 -106q-37 -26 -77 -26h-7q-25 0 -52 12v1q63 50 63 122t-63 122q12 8 35 12q11 1 19 1zM183 818q41 -26 58 -76q6 -20 6 -35v-8q0 -55 -48 -99q-9 -8 -16 -12q-40 23 -59 77q-5 18 -5 36v4q0 67 62 112q1 0 2 1z" />
    <glyph glyph-name="cedilla" unicode="&#xb8;" horiz-adv-x="441" 
d="M128 -316q38 -18 77 -4t56 52q18 38 4 76.5t-52 56.5q-7 3 -12 10q-14 18 -3 41q10 21 33 23q8 1 15 -2q68 -32 93 -100.5t-7 -137.5q-31 -67 -99.5 -91.5t-136.5 7.5q-7 3 -11 10q-14 18 -4 39q10 22 32 22q8 1 15 -2z" />
    <glyph glyph-name="guillemotright" unicode="&#xbb;" horiz-adv-x="935" 
d="M358 1577h8q62 0 96 -67q6 -13 8 -39q0 -43 -41 -92q-65 -96 -85 -118q-35 -27 -71 -27q-61 0 -95 59q-12 22 -12 45v8q0 40 43 91q60 90 82 113q32 27 67 27zM747 1577h6q67 0 99 -71q6 -18 6 -35v-4q0 -37 -31 -74q-75 -109 -92 -128q-34 -31 -74 -31q-65 0 -99 67
q-8 22 -8 42q0 39 35 82q71 104 90 126q34 26 68 26zM137 1333h1q0 -60 63 -107q36 -20 72 -20q20 0 37 6q0 -1 2 -1q-38 -58 -61 -80q-31 -23 -63 -23h-10q-58 0 -92 61q-9 21 -9 41v8q0 40 46 95q2 7 14 20zM523 1333h3q0 -44 41 -88q41 -39 93 -39h2q12 0 37 5v-1
q-38 -59 -63 -82q-31 -20 -57 -20h-12q-61 0 -95 65q-8 23 -8 43q0 41 43 92z" />
    <glyph glyph-name="Agrave" unicode="&#xc0;" horiz-adv-x="1555" 
d="M772 1459h10q71 0 110 -78l548 -1176q38 -72 38 -105v-4q0 -73 -74 -111q-23 -10 -47 -10h-4q-86 0 -123 102q-9 15 -437 936q-136 287 -136 297q-2 12 -2 24v5q0 75 78 113q21 7 39 7zM624 1300h2q7 -25 86 -190q4 -10 47 -100q0 -2 -442 -951q-12 -30 -41 -57
q-36 -27 -73 -27h-6q-75 0 -113 78q-7 22 -7 40v9q0 31 35 100zM966 561q3 0 65 -137q7 -12 50 -106l-3 -1h-602q-3 0 -3 2q104 224 114 242h379zM558 1875h6q46 0 78 -55q59 -81 64 -96q4 -15 5 -27q0 -53 -56 -77q-7 -3 -26 -4q-48 0 -78 51q-57 80 -65 97q-5 14 -5 27v4
q0 52 55 76q12 4 22 4zM732 1690h1q43 -60 43 -69q2 -10 2 -14v-14q0 -36 -41 -64q-19 -9 -36 -9h-8q-45 0 -78 56q-1 0 -16 22l1 1q13 -5 30 -5q58 0 91 58q11 24 11 38z" />
    <glyph glyph-name="Aacute" unicode="&#xc1;" horiz-adv-x="1555" 
d="M772 1459h10q71 0 110 -78l548 -1176q38 -72 38 -105v-4q0 -73 -74 -111q-23 -10 -47 -10h-4q-86 0 -123 102q-9 15 -437 936q-136 287 -136 297q-2 12 -2 24v5q0 75 78 113q21 7 39 7zM624 1300h2q7 -25 86 -190q4 -10 47 -100q0 -2 -442 -951q-12 -30 -41 -57
q-36 -27 -73 -27h-6q-75 0 -113 78q-7 22 -7 40v9q0 31 35 100zM966 561q3 0 65 -137q7 -12 50 -106l-3 -1h-602q-3 0 -3 2q104 224 114 242h379zM1059 1989h9q62 0 95 -67q7 -19 7 -31v-15q0 -37 -40 -85q-65 -96 -84 -118q-36 -27 -71 -27q-61 0 -96 59q-11 22 -11 45v8
q0 40 43 91q60 90 81 113q33 27 67 27zM838 1745h2q0 -60 62 -107q36 -20 73 -20q20 0 37 6l1 -1q-38 -58 -61 -80q-31 -23 -62 -23h-11q-57 0 -92 61q-9 21 -9 41v8q0 40 47 95q2 7 13 20z" />
    <glyph glyph-name="Acircumflex" unicode="&#xc2;" horiz-adv-x="1555" 
d="M772 1459h10q71 0 110 -78l548 -1176q38 -72 38 -105v-4q0 -73 -74 -111q-23 -10 -47 -10h-4q-86 0 -123 102q-9 15 -437 936q-136 287 -136 297q-2 12 -2 24v5q0 75 78 113q21 7 39 7zM624 1300h2q7 -25 86 -190q4 -10 47 -100q0 -2 -442 -951q-12 -30 -41 -57
q-36 -27 -73 -27h-6q-75 0 -113 78q-7 22 -7 40v9q0 31 35 100zM966 561q3 0 65 -137q7 -12 50 -106l-3 -1h-602q-3 0 -3 2q104 224 114 242h379zM776 1875h3q35 0 51 -46q115 -243 115 -247q1 -5 1 -9v-6q0 -27 -30 -43q-9 -4 -20 -4q-36 0 -52 42q-111 237 -115 247
q-2 6 -2 14v3q0 28 29 44q9 5 20 5zM715 1809q0 -5 39 -85q16 -34 16 -35q-64 -138 -71 -148q-16 -21 -42 -21q-27 0 -43 26q-6 11 -6 22v3q0 14 14 41q90 192 93 197z" />
    <glyph glyph-name="Atilde" unicode="&#xc3;" horiz-adv-x="1555" 
d="M772 1459h10q71 0 110 -78l548 -1176q38 -72 38 -105v-4q0 -73 -74 -111q-23 -10 -47 -10h-4q-86 0 -123 102q-9 15 -437 936q-136 287 -136 297q-2 12 -2 24v5q0 75 78 113q21 7 39 7zM624 1300h2q7 -25 86 -190q4 -10 47 -100q0 -2 -442 -951q-12 -30 -41 -57
q-36 -27 -73 -27h-6q-75 0 -113 78q-7 22 -7 40v9q0 31 35 100zM966 561q3 0 65 -137q7 -12 50 -106l-3 -1h-602q-3 0 -3 2q104 224 114 242h379zM1065 1770q-20 -103 -68.5 -154t-126.5 -51h-4q-50 0 -113 23q-66 24 -114 24q-39 0 -60.5 -20.5t-33.5 -71.5h-54
q19 106 68 158.5t129 52.5q46 -1 113 -24q64 -23 112 -23h4q36 0 58 20t36 66h54z" />
    <glyph glyph-name="Adieresis" unicode="&#xc4;" horiz-adv-x="1555" 
d="M772 1459h10q71 0 110 -78l548 -1176q38 -72 38 -105v-4q0 -73 -74 -111q-23 -10 -47 -10h-4q-86 0 -123 102q-9 15 -437 936q-136 287 -136 297q-2 12 -2 24v5q0 75 78 113q21 7 39 7zM624 1300h2q7 -25 86 -190q4 -10 47 -100q0 -2 -442 -951q-12 -30 -41 -57
q-36 -27 -73 -27h-6q-75 0 -113 78q-7 22 -7 40v9q0 31 35 100zM966 561q3 0 65 -137q7 -12 50 -106l-3 -1h-602q-3 0 -3 2q104 224 114 242h379zM570 1790h6q48 0 90 -38q41 -42 41 -94v-6q0 -62 -55 -106q-37 -26 -77 -26h-7q-25 0 -52 12v1q63 50 63 122t-63 122
q12 8 35 12q11 1 19 1zM501 1770q41 -26 58 -76q6 -20 6 -35v-8q0 -55 -48 -99q-9 -8 -16 -12q-40 23 -59 77q-5 18 -5 36v4q0 67 62 112q1 0 2 1zM982 1790h6q48 0 90 -38q41 -42 41 -94v-6q0 -62 -55 -106q-37 -26 -77 -26h-7q-25 0 -52 12v1q63 50 63 122t-63 122
q12 8 35 12q11 1 19 1zM913 1770q41 -26 58 -76q6 -20 6 -35v-8q0 -55 -48 -99q-9 -8 -16 -12q-40 23 -59 77q-5 18 -5 36v4q0 67 62 112q1 0 2 1z" />
    <glyph glyph-name="Aring" unicode="&#xc5;" horiz-adv-x="1555" 
d="M772 1459h10q71 0 110 -78l548 -1176q38 -72 38 -105v-4q0 -73 -74 -111q-23 -10 -47 -10h-4q-86 0 -123 102q-9 15 -437 936q-136 287 -136 297q-2 12 -2 24v5q0 75 78 113q21 7 39 7zM624 1300h2q7 -25 86 -190q4 -10 47 -100q0 -2 -442 -951q-12 -30 -41 -57
q-36 -27 -73 -27h-6q-75 0 -113 78q-7 22 -7 40v9q0 31 35 100zM966 561q3 0 65 -137q7 -12 50 -106l-3 -1h-602q-3 0 -3 2q104 224 114 242h379zM676 1698q0 -42 29 -71t71 -29t71 29t29 71q0 40 -29.5 69.5t-70.5 29.5t-70.5 -29.5t-29.5 -69.5zM600 1698q0 75 51 126
t125 51q76 0 127.5 -51.5t51.5 -125.5q0 -75 -51.5 -126.5t-127.5 -51.5q-74 0 -125 51.5t-51 126.5z" />
    <glyph glyph-name="AE" unicode="&#xc6;" horiz-adv-x="1933" 
d="M772 1459h123q69 0 104 -78q5 -22 5 -47v-1101q0 -3 -3 -3h-111q-63 0 -111 -53h-1v147l-302 -7q-3 0 -3 2q104 224 114 242h191v483q-121 256 -121 266q-2 12 -2 24v5q0 75 78 113q21 7 39 7zM624 1300h2q7 -25 86 -190q4 -10 47 -100q0 -2 -442 -951q-12 -30 -41 -57
q-36 -27 -73 -27h-6q-75 0 -113 78q-7 22 -7 40v9q0 31 35 100zM885 199h864q62 0 97 -66q10 -20 10 -45v-1q0 -74 -77 -107q-17 -5 -31 -5h-862q-62 0 -98 65q-10 22 -10 43v9q0 60 63 96q21 11 44 11zM980 1459h767q66 0 102 -71q7 -22 7 -39v-3q0 -75 -80 -108
q-18 -5 -45 -5h-695q-3 0 -3 3v113q0 62 -53 109v1zM1036 830h706q82 0 112 -87q2 -16 2 -26q0 -81 -87 -110q-15 -3 -26 -3h-707q-3 0 -3 3v220q0 3 3 3z" />
    <glyph glyph-name="Ccedilla" unicode="&#xc7;" horiz-adv-x="1454" 
d="M810 1459h17q268 0 489 -190q61 -50 61 -108q0 -62 -59 -98q-24 -13 -50 -13h-6q-53 0 -99 54q-155 130 -334 130h-21q-180 0 -334 -132q-63 -60 -91 -105q-81 -134 -81 -270v-20q0 -154 98 -293q-1 0 -1 -2q-14 3 -27 3q-83 0 -128 -83q-13 -30 -13 -53v-14h-1
q-153 204 -153 444v17q0 249 167 461q64 74 110 109q209 163 456 163zM367 384h15q45 0 96 -56q153 -128 337 -128h11q200 0 362 155q31 29 75 29h1q77 0 109 -83q3 -17 3 -25v-9q0 -54 -60 -101q-216 -191 -498 -191q-262 0 -471 169q-77 63 -83 98q-3 17 -3 32q0 58 54 94
q26 16 52 16zM641 -316q38 -18 77 -4t56 52q18 38 4 76.5t-52 56.5q-7 3 -12 10q-14 18 -3 41q10 21 33 23q8 1 15 -2q68 -32 93 -100.5t-7 -137.5q-31 -67 -99.5 -91.5t-136.5 7.5q-7 3 -11 10q-14 18 -4 39q10 22 32 22q8 1 15 -2z" />
    <glyph glyph-name="Egrave" unicode="&#xc8;" horiz-adv-x="1232" 
d="M185 1459h9q69 0 104 -78q5 -22 5 -47v-1101q0 -3 -3 -3h-111q-63 0 -111 -53h-1v1174q0 68 76 103q19 5 32 5zM184 199h864q62 0 97 -66q10 -20 10 -45v-1q0 -74 -77 -107q-17 -5 -31 -5h-862q-62 0 -98 65q-10 22 -10 43v9q0 60 63 96q21 11 44 11zM279 1459h767
q66 0 102 -71q7 -22 7 -39v-3q0 -75 -80 -108q-18 -5 -45 -5h-695q-3 0 -3 3v113q0 62 -53 109v1zM335 830h706q82 0 112 -87q2 -16 2 -26q0 -81 -87 -110q-15 -3 -26 -3h-707q-3 0 -3 3v220q0 3 3 3zM545 1875h6q46 0 78 -55q59 -81 64 -96q4 -15 5 -27q0 -53 -56 -77
q-7 -3 -26 -4q-48 0 -78 51q-57 80 -65 97q-5 14 -5 27v4q0 52 55 76q12 4 22 4zM719 1690h1q43 -60 43 -69q2 -10 2 -14v-14q0 -36 -41 -64q-19 -9 -36 -9h-8q-45 0 -78 56q-1 0 -16 22l1 1q13 -5 30 -5q58 0 91 58q11 24 11 38z" />
    <glyph glyph-name="Eacute" unicode="&#xc9;" horiz-adv-x="1232" 
d="M185 1459h9q69 0 104 -78q5 -22 5 -47v-1101q0 -3 -3 -3h-111q-63 0 -111 -53h-1v1174q0 68 76 103q19 5 32 5zM184 199h864q62 0 97 -66q10 -20 10 -45v-1q0 -74 -77 -107q-17 -5 -31 -5h-862q-62 0 -98 65q-10 22 -10 43v9q0 60 63 96q21 11 44 11zM279 1459h767
q66 0 102 -71q7 -22 7 -39v-3q0 -75 -80 -108q-18 -5 -45 -5h-695q-3 0 -3 3v113q0 62 -53 109v1zM335 830h706q82 0 112 -87q2 -16 2 -26q0 -81 -87 -110q-15 -3 -26 -3h-707q-3 0 -3 3v220q0 3 3 3zM897 1989h9q62 0 95 -67q7 -19 7 -31v-15q0 -37 -40 -85
q-65 -96 -84 -118q-36 -27 -71 -27q-61 0 -96 59q-11 22 -11 45v8q0 40 43 91q60 90 81 113q33 27 67 27zM676 1745h2q0 -60 62 -107q36 -20 73 -20q20 0 37 6l1 -1q-38 -58 -61 -80q-31 -23 -62 -23h-11q-57 0 -92 61q-9 21 -9 41v8q0 40 47 95q2 7 13 20z" />
    <glyph glyph-name="Ecircumflex" unicode="&#xca;" horiz-adv-x="1232" 
d="M185 1459h9q69 0 104 -78q5 -22 5 -47v-1101q0 -3 -3 -3h-111q-63 0 -111 -53h-1v1174q0 68 76 103q19 5 32 5zM184 199h864q62 0 97 -66q10 -20 10 -45v-1q0 -74 -77 -107q-17 -5 -31 -5h-862q-62 0 -98 65q-10 22 -10 43v9q0 60 63 96q21 11 44 11zM279 1459h767
q66 0 102 -71q7 -22 7 -39v-3q0 -75 -80 -108q-18 -5 -45 -5h-695q-3 0 -3 3v113q0 62 -53 109v1zM335 830h706q82 0 112 -87q2 -16 2 -26q0 -81 -87 -110q-15 -3 -26 -3h-707q-3 0 -3 3v220q0 3 3 3zM615 1875h3q35 0 51 -46q115 -243 115 -247q1 -5 1 -9v-6q0 -27 -30 -43
q-9 -4 -20 -4q-36 0 -52 42q-111 237 -115 247q-2 6 -2 14v3q0 28 29 44q9 5 20 5zM554 1809q0 -5 39 -85q16 -34 16 -35q-64 -138 -71 -148q-16 -21 -42 -21q-27 0 -43 26q-6 11 -6 22v3q0 14 14 41q90 192 93 197z" />
    <glyph glyph-name="Edieresis" unicode="&#xcb;" horiz-adv-x="1232" 
d="M185 1459h9q69 0 104 -78q5 -22 5 -47v-1101q0 -3 -3 -3h-111q-63 0 -111 -53h-1v1174q0 68 76 103q19 5 32 5zM279 1459h767q66 0 102 -71q7 -22 7 -39v-3q0 -75 -80 -108q-18 -5 -45 -5h-695q-3 0 -3 3v113q0 62 -53 109v1zM335 830h706q82 0 112 -87q2 -16 2 -26
q0 -81 -87 -110q-15 -3 -26 -3h-707q-3 0 -3 3v220q0 3 3 3zM184 199h864q62 0 97 -66q10 -20 10 -45v-1q0 -74 -77 -107q-17 -5 -31 -5h-862q-62 0 -98 65q-10 22 -10 43v9q0 60 63 96q21 11 44 11zM408 1790h6q48 0 90 -38q41 -42 41 -94v-6q0 -62 -55 -106
q-37 -26 -77 -26h-7q-25 0 -52 12v1q63 50 63 122t-63 122q12 8 35 12q11 1 19 1zM339 1770q41 -26 58 -76q6 -20 6 -35v-8q0 -55 -48 -99q-9 -8 -16 -12q-40 23 -59 77q-5 18 -5 36v4q0 67 62 112q1 0 2 1zM820 1790h6q48 0 90 -38q41 -42 41 -94v-6q0 -62 -55 -106
q-37 -26 -77 -26h-7q-25 0 -52 12v1q63 50 63 122t-63 122q12 8 35 12q11 1 19 1zM751 1770q41 -26 58 -76q6 -20 6 -35v-8q0 -55 -48 -99q-9 -8 -16 -12q-40 23 -59 77q-5 18 -5 36v4q0 67 62 112q1 0 2 1z" />
    <glyph glyph-name="Igrave" unicode="&#xcc;" horiz-adv-x="563" 
d="M370 1459h6q71 0 105 -75q5 -18 5 -27v-776h-1q-47 52 -106 52h-11q-56 0 -105 -52h-1v770q0 62 65 98q22 10 43 10zM374 604q74 0 106 -74q6 -15 6 -29v-424q0 -50 -57 -88q-25 -14 -49 -14h-15q-46 0 -85 49q-18 30 -18 59v412q0 68 76 104q21 5 36 5zM154 1875h6
q46 0 78 -55q59 -81 64 -96q4 -15 5 -27q0 -53 -56 -77q-7 -3 -26 -4q-48 0 -78 51q-57 80 -65 97q-5 14 -5 27v4q0 52 55 76q12 4 22 4zM328 1690h1q43 -60 43 -69q2 -10 2 -14v-14q0 -36 -41 -64q-19 -9 -36 -9h-8q-45 0 -78 56q-1 0 -16 22l1 1q13 -5 30 -5q58 0 91 58
q11 24 11 38z" />
    <glyph glyph-name="Iacute" unicode="&#xcd;" horiz-adv-x="658" 
d="M185 1459h6q71 0 105 -75q5 -18 5 -27v-776h-1q-47 52 -106 52h-11q-56 0 -105 -52h-1v770q0 62 65 98q22 10 43 10zM189 604q74 0 106 -74q6 -15 6 -29v-424q0 -50 -57 -88q-25 -14 -49 -14h-15q-46 0 -85 49q-18 30 -18 59v412q0 68 76 104q21 5 36 5zM470 1989h9
q62 0 95 -67q7 -19 7 -31v-15q0 -37 -40 -85q-65 -96 -84 -118q-36 -27 -71 -27q-61 0 -96 59q-11 22 -11 45v8q0 40 43 91q60 90 81 113q33 27 67 27zM249 1745h2q0 -60 62 -107q36 -20 73 -20q20 0 37 6l1 -1q-38 -58 -61 -80q-31 -23 -62 -23h-11q-57 0 -92 61
q-9 21 -9 41v8q0 40 47 95q2 7 13 20z" />
    <glyph glyph-name="Icircumflex" unicode="&#xce;" horiz-adv-x="378" 
d="M185 1459h6q71 0 105 -75q5 -18 5 -27v-776h-1q-47 52 -106 52h-11q-56 0 -105 -52h-1v770q0 62 65 98q22 10 43 10zM189 604q74 0 106 -74q6 -15 6 -29v-424q0 -50 -57 -88q-25 -14 -49 -14h-15q-46 0 -85 49q-18 30 -18 59v412q0 68 76 104q21 5 36 5zM188 1875h3
q35 0 51 -46q115 -243 115 -247q1 -5 1 -9v-6q0 -27 -30 -43q-9 -4 -20 -4q-36 0 -52 42q-111 237 -115 247q-2 6 -2 14v3q0 28 29 44q9 5 20 5zM127 1809q0 -5 39 -85q16 -34 16 -35q-64 -138 -71 -148q-16 -21 -42 -21q-27 0 -43 26q-6 11 -6 22v3q0 14 14 41
q90 192 93 197z" />
    <glyph glyph-name="Idieresis" unicode="&#xcf;" horiz-adv-x="836" 
d="M414 1459h6q71 0 105 -75q5 -18 5 -27v-776h-1q-47 52 -106 52h-11q-56 0 -105 -52h-1v770q0 62 65 98q22 10 43 10zM418 604q74 0 106 -74q6 -15 6 -29v-424q0 -50 -57 -88q-25 -14 -49 -14h-15q-46 0 -85 49q-18 30 -18 59v412q0 68 76 104q21 5 36 5zM210 1790h6
q48 0 90 -38q41 -42 41 -94v-6q0 -62 -55 -106q-37 -26 -77 -26h-7q-25 0 -52 12v1q63 50 63 122t-63 122q12 8 35 12q11 1 19 1zM141 1770q41 -26 58 -76q6 -20 6 -35v-8q0 -55 -48 -99q-9 -8 -16 -12q-40 23 -59 77q-5 18 -5 36v4q0 67 62 112q1 0 2 1zM622 1790h6
q48 0 90 -38q41 -42 41 -94v-6q0 -62 -55 -106q-37 -26 -77 -26h-7q-25 0 -52 12v1q63 50 63 122t-63 122q12 8 35 12q11 1 19 1zM553 1770q41 -26 58 -76q6 -20 6 -35v-8q0 -55 -48 -99q-9 -8 -16 -12q-40 23 -59 77q-5 18 -5 36v4q0 67 62 112q1 0 2 1z" />
    <glyph glyph-name="Eth" unicode="&#xd0;" horiz-adv-x="1548" 
d="M431 1459h309q251 0 468 -175q88 -81 106 -111q68 -91 99 -166q58 -144 58 -277v-22q0 -220 -135 -418q-31 -47 -106 -120q-220 -195 -502 -195q-62 0 -98 59q-14 24 -14 50v7q0 66 70 101q15 9 88 10q71 9 110 22q177 61 279 213q82 136 82 267v26q0 173 -129 330
q-65 67 -106 91q-135 83 -271 83h-291q-86 0 -117 71q-7 21 -7 38v8q0 68 75 103q20 5 32 5zM324 1257h1q47 -53 109 -53h113q2 0 2 -2v-384h134q75 0 108 -79q5 -18 5 -37q0 -67 -73 -103q-20 -7 -49 -7h-125v-392h91v-1q-54 -47 -54 -111q0 -62 52 -112v-1h-194
q-83 0 -113 72q-7 17 -7 37v508h-125q-29 0 -49 7q-73 36 -73 103q0 19 5 37q33 79 108 79h134v439z" />
    <glyph glyph-name="Ntilde" unicode="&#xd1;" horiz-adv-x="1269" 
d="M178 1459q59 0 87 -29q19 -19 117 -162q15 -20 352 -497q13 -30 13 -54q0 -68 -67 -103q-21 -10 -45 -10q-69 0 -110 73q-191 267 -222 313h-1v-183h-1q-49 52 -106 52h-11q-61 0 -105 -52h-2v542q0 74 80 106zM1075 1459h9q67 0 101 -72q7 -17 7 -33v-647q0 -44 -47 -82
q-30 -21 -68 -21q-60 0 -96 59q-14 25 -14 50v636q0 72 77 105q17 5 31 5zM192 830q68 0 104 -75q6 -21 6 -53v-602q0 -97 -86 -123q-12 -2 -22 -2h-10q-68 0 -103 76q-4 19 -4 32v638q0 69 77 104q20 5 38 5zM777 708h2l187 -266h1v185h2q45 -52 104 -52h12q58 0 105 51h2
v-548q0 -51 -57 -90q-28 -13 -48 -13h-12q-65 0 -112 82q-4 5 -369 521q1 0 1 2q18 -5 32 -5h13q74 0 120 75q17 35 17 58zM922 1770q-20 -103 -68.5 -154t-126.5 -51h-4q-50 0 -113 23q-66 24 -114 24q-39 0 -60.5 -20.5t-33.5 -71.5h-54q19 106 68 158.5t129 52.5
q46 -1 113 -24q64 -23 112 -23h4q36 0 58 20t36 66h54z" />
    <glyph glyph-name="Ograve" unicode="&#xd2;" 
d="M815 1459h12q282 0 510 -210q224 -228 224 -533q0 -73 -77 -106q-17 -5 -31 -5h-10q-65 0 -101 73q-6 18 -9 97q-10 68 -31 126q-83 205 -281 292q-97 42 -220 42q-30 3 -65 34q-30 37 -30 77q0 64 61 101q24 12 48 12zM307 636h2q24 -133 93 -225q164 -212 436 -212
q29 -3 65 -35q28 -36 28 -71v-10q0 -60 -62 -97q-25 -11 -49 -11q-305 0 -533 224q-73 80 -101 131q-34 52 -66 136q-37 117 -37 154h1q48 -46 106 -46q68 0 117 62zM722 1453v-1q-46 -47 -46 -106q0 -68 62 -117v-2q-132 -25 -214 -85q-143 -102 -198 -270
q-25 -77 -25 -173q-12 -48 -40 -70q-33 -24 -68 -24h-8q-68 0 -103 76q-5 19 -5 32v12q0 278 205 505q84 82 154 124q67 38 129 61q56 21 142 37zM1329 636h2q48 -62 118 -62q58 0 105 47h1q-12 -91 -42 -167q-26 -73 -84 -160q-27 -42 -93 -109q-97 -89 -154 -114
q-32 -21 -109 -52q-71 -26 -158 -38v1q47 46 47 107q0 67 -62 116v2q62 10 118 33q53 23 108 61q48 35 97 94q41 53 60 95q40 91 40 117q2 2 6 29zM600 1875h6q46 0 78 -55q59 -81 64 -96q4 -15 5 -27q0 -53 -56 -77q-7 -3 -26 -4q-48 0 -78 51q-57 80 -65 97q-5 14 -5 27v4
q0 52 55 76q12 4 22 4zM774 1690h1q43 -60 43 -69q2 -10 2 -14v-14q0 -36 -41 -64q-19 -9 -36 -9h-8q-45 0 -78 56q-1 0 -16 22l1 1q13 -5 30 -5q58 0 91 58q11 24 11 38z" />
    <glyph glyph-name="Oacute" unicode="&#xd3;" 
d="M815 1459h12q282 0 510 -210q224 -228 224 -533q0 -73 -77 -106q-17 -5 -31 -5h-10q-65 0 -101 73q-6 18 -9 97q-10 68 -31 126q-83 205 -281 292q-97 42 -220 42q-30 3 -65 34q-30 37 -30 77q0 64 61 101q24 12 48 12zM307 636h2q24 -133 93 -225q164 -212 436 -212
q29 -3 65 -35q28 -36 28 -71v-10q0 -60 -62 -97q-25 -11 -49 -11q-305 0 -533 224q-73 80 -101 131q-34 52 -66 136q-37 117 -37 154h1q48 -46 106 -46q68 0 117 62zM722 1453v-1q-46 -47 -46 -106q0 -68 62 -117v-2q-132 -25 -214 -85q-143 -102 -198 -270
q-25 -77 -25 -173q-12 -48 -40 -70q-33 -24 -68 -24h-8q-68 0 -103 76q-5 19 -5 32v12q0 278 205 505q84 82 154 124q67 38 129 61q56 21 142 37zM1329 636h2q48 -62 118 -62q58 0 105 47h1q-12 -91 -42 -167q-26 -73 -84 -160q-27 -42 -93 -109q-97 -89 -154 -114
q-32 -21 -109 -52q-71 -26 -158 -38v1q47 46 47 107q0 67 -62 116v2q62 10 118 33q53 23 108 61q48 35 97 94q41 53 60 95q40 91 40 117q2 2 6 29zM1100 1989h9q62 0 95 -67q7 -19 7 -31v-15q0 -37 -40 -85q-65 -96 -84 -118q-36 -27 -71 -27q-61 0 -96 59q-11 22 -11 45v8
q0 40 43 91q60 90 81 113q33 27 67 27zM879 1745h2q0 -60 62 -107q36 -20 73 -20q20 0 37 6l1 -1q-38 -58 -61 -80q-31 -23 -62 -23h-11q-57 0 -92 61q-9 21 -9 41v8q0 40 47 95q2 7 13 20z" />
    <glyph glyph-name="Ocircumflex" unicode="&#xd4;" 
d="M815 1459h12q282 0 510 -210q224 -228 224 -533q0 -73 -77 -106q-17 -5 -31 -5h-10q-65 0 -101 73q-6 18 -9 97q-10 68 -31 126q-83 205 -281 292q-97 42 -220 42q-30 3 -65 34q-30 37 -30 77q0 64 61 101q24 12 48 12zM307 636h2q24 -133 93 -225q164 -212 436 -212
q29 -3 65 -35q28 -36 28 -71v-10q0 -60 -62 -97q-25 -11 -49 -11q-305 0 -533 224q-73 80 -101 131q-34 52 -66 136q-37 117 -37 154h1q48 -46 106 -46q68 0 117 62zM722 1453v-1q-46 -47 -46 -106q0 -68 62 -117v-2q-132 -25 -214 -85q-143 -102 -198 -270
q-25 -77 -25 -173q-12 -48 -40 -70q-33 -24 -68 -24h-8q-68 0 -103 76q-5 19 -5 32v12q0 278 205 505q84 82 154 124q67 38 129 61q56 21 142 37zM1329 636h2q48 -62 118 -62q58 0 105 47h1q-12 -91 -42 -167q-26 -73 -84 -160q-27 -42 -93 -109q-97 -89 -154 -114
q-32 -21 -109 -52q-71 -26 -158 -38v1q47 46 47 107q0 67 -62 116v2q62 10 118 33q53 23 108 61q48 35 97 94q41 53 60 95q40 91 40 117q2 2 6 29zM819 1875h3q35 0 51 -46q115 -243 115 -247q1 -5 1 -9v-6q0 -27 -30 -43q-9 -4 -20 -4q-36 0 -52 42q-111 237 -115 247
q-2 6 -2 14v3q0 28 29 44q9 5 20 5zM758 1809q0 -5 39 -85q16 -34 16 -35q-64 -138 -71 -148q-16 -21 -42 -21q-27 0 -43 26q-6 11 -6 22v3q0 14 14 41q90 192 93 197z" />
    <glyph glyph-name="Otilde" unicode="&#xd5;" 
d="M815 1459h12q282 0 510 -210q224 -228 224 -533q0 -73 -77 -106q-17 -5 -31 -5h-10q-65 0 -101 73q-6 18 -9 97q-10 68 -31 126q-83 205 -281 292q-97 42 -220 42q-30 3 -65 34q-30 37 -30 77q0 64 61 101q24 12 48 12zM722 1453v-1q-46 -47 -46 -106q0 -68 62 -117v-2
q-132 -25 -214 -85q-143 -102 -198 -270q-25 -77 -25 -173q-12 -48 -40 -70q-33 -24 -68 -24h-8q-68 0 -103 76q-5 19 -5 32v12q0 278 205 505q84 82 154 124q67 38 129 61q56 21 142 37zM307 636h2q24 -133 93 -225q164 -212 436 -212q29 -3 65 -35q28 -36 28 -71v-10
q0 -60 -62 -97q-25 -11 -49 -11q-305 0 -533 224q-73 80 -101 131q-34 52 -66 136q-37 117 -37 154h1q48 -46 106 -46q68 0 117 62zM1329 636h2q48 -62 118 -62q58 0 105 47h1q-12 -91 -42 -167q-26 -73 -84 -160q-27 -42 -93 -109q-97 -89 -154 -114q-32 -21 -109 -52
q-71 -26 -158 -38v1q47 46 47 107q0 67 -62 116v2q62 10 118 33q53 23 108 61q48 35 97 94q41 53 60 95q40 91 40 117q2 2 6 29zM1107 1770q-20 -103 -68.5 -154t-126.5 -51h-4q-50 0 -113 23q-66 24 -114 24q-39 0 -60.5 -20.5t-33.5 -71.5h-54q19 106 68 158.5t129 52.5
q46 -1 113 -24q64 -23 112 -23h4q36 0 58 20t36 66h54z" />
    <glyph glyph-name="Odieresis" unicode="&#xd6;" 
d="M815 1459h12q282 0 510 -210q224 -228 224 -533q0 -73 -77 -106q-17 -5 -31 -5h-10q-65 0 -101 73q-6 18 -9 97q-10 68 -31 126q-83 205 -281 292q-97 42 -220 42q-30 3 -65 34q-30 37 -30 77q0 64 61 101q24 12 48 12zM722 1453v-1q-46 -47 -46 -106q0 -68 62 -117v-2
q-132 -25 -214 -85q-143 -102 -198 -270q-25 -77 -25 -173q-12 -48 -40 -70q-33 -24 -68 -24h-8q-68 0 -103 76q-5 19 -5 32v12q0 278 205 505q84 82 154 124q67 38 129 61q56 21 142 37zM307 636h2q24 -133 93 -225q164 -212 436 -212q29 -3 65 -35q28 -36 28 -71v-10
q0 -60 -62 -97q-25 -11 -49 -11q-305 0 -533 224q-73 80 -101 131q-34 52 -66 136q-37 117 -37 154h1q48 -46 106 -46q68 0 117 62zM1329 636h2q48 -62 118 -62q58 0 105 47h1q-12 -91 -42 -167q-26 -73 -84 -160q-27 -42 -93 -109q-97 -89 -154 -114q-32 -21 -109 -52
q-71 -26 -158 -38v1q47 46 47 107q0 67 -62 116v2q62 10 118 33q53 23 108 61q48 35 97 94q41 53 60 95q40 91 40 117q2 2 6 29zM611 1790h6q48 0 90 -38q41 -42 41 -94v-6q0 -62 -55 -106q-37 -26 -77 -26h-7q-25 0 -52 12v1q63 50 63 122t-63 122q12 8 35 12q11 1 19 1z
M542 1770q41 -26 58 -76q6 -20 6 -35v-8q0 -55 -48 -99q-9 -8 -16 -12q-40 23 -59 77q-5 18 -5 36v4q0 67 62 112q1 0 2 1zM1023 1790h6q48 0 90 -38q41 -42 41 -94v-6q0 -62 -55 -106q-37 -26 -77 -26h-7q-25 0 -52 12v1q63 50 63 122t-63 122q12 8 35 12q11 1 19 1z
M954 1770q41 -26 58 -76q6 -20 6 -35v-8q0 -55 -48 -99q-9 -8 -16 -12q-40 23 -59 77q-5 18 -5 36v4q0 67 62 112q1 0 2 1z" />
    <glyph glyph-name="multiply" unicode="&#xd7;" horiz-adv-x="864" 
d="M109 931l5 5q50 50 130 20q19 -10 28 -19l127 -127q2 -2 0 -4l-161 -160q-2 -3 -4 0l-113 112q-64 64 -36 135q7 21 24 38zM121 486l153 153h1q-2 -75 42 -119l82 -82q2 -2 0 -4l-127 -126q-50 -50 -131 -20q-18 11 -27 20l-5 6q-50 49 -21 129q11 21 33 43zM351 716
l207 207q63 63 133 38q22 -7 44 -29q52 -52 21 -132q-10 -18 -19 -27l-149 -149q-1 -2 0 -3l147 -147q45 -45 28 -114q-8 -28 -30 -50q-46 -46 -116 -28q-25 6 -59 39l-209 209q-70 70 -28 151q11 16 30 35z" />
    <glyph glyph-name="Oslash" unicode="&#xd8;" horiz-adv-x="1642" 
d="M1409 1459h12q86 0 134 -92q10 -29 10 -46v-21q0 -69 -88 -142q-18 -19 -35 -36q121 -182 121 -406q0 -73 -77 -106q-17 -5 -31 -5h-10q-65 0 -101 73q-6 18 -9 97q-10 68 -31 126q-12 29 -27 56q-362 -363 -367 -364q-42 -29 -88 -29q-98 0 -144 103q-7 25 -7 46v6
q0 73 87 144q194 195 308 309q-21 11 -43 21q-97 42 -220 42q-30 3 -65 34q-30 37 -30 77q0 64 61 101q24 12 48 12h12q216 0 400 -124q98 97 102 99q40 25 78 25zM630 735h2l-2 -19q0 -104 95 -166q46 -26 94 -26h19l3 2l2 -3q-159 -159 -264 -263q115 -61 261 -61
q29 -3 65 -35q28 -36 28 -71v-10q0 -60 -62 -97q-25 -11 -49 -11q-224 0 -407 121q-97 -96 -102 -100q-42 -25 -72 -25h-23q-78 0 -126 83q-15 30 -15 61v10q0 72 82 139q21 21 42 43q-7 12 -13 23q-34 52 -66 136q-37 117 -37 154h1q48 -46 106 -46q68 0 117 62h2
q16 -92 54 -164q129 128 265 263zM724 1453v-1q-46 -47 -46 -106q0 -68 62 -117v-2q-132 -25 -214 -85q-143 -102 -198 -270q-25 -77 -25 -173q-12 -48 -40 -70q-33 -24 -68 -24h-8q-68 0 -103 76q-5 19 -5 32v12q0 278 205 505q84 82 154 124q67 38 129 61q56 21 142 37z
M1331 636h2q48 -62 118 -62q58 0 105 47h1q-12 -91 -42 -167q-26 -73 -84 -160q-27 -42 -93 -109q-97 -89 -154 -114q-32 -21 -109 -52q-71 -26 -158 -38v1q47 46 47 107q0 67 -62 116v2q62 10 118 33q53 23 108 61q48 35 97 94q41 53 60 95q40 91 40 117q2 2 6 29z" />
    <glyph glyph-name="Ugrave" unicode="&#xd9;" horiz-adv-x="1639" 
d="M1450 830q69 0 103 -70q9 -19 9 -41v-4q0 -303 -227 -533q-101 -89 -151 -111q-173 -96 -344 -96h-31q-44 0 -81 45q-22 33 -22 67q0 71 74 106q13 6 103 10q67 11 108 26q100 37 181 109q78 82 95 121q26 43 48 111q22 76 22 167q12 46 42 68q31 25 71 25zM184 1459h9
q70 0 104 -78q5 -22 5 -47v-602q0 -87 -64 -116q-19 -12 -51 -12q-61 0 -97 59q-13 24 -13 50v638q0 68 76 103q19 5 31 5zM307 636h1q2 -38 40 -134q36 -79 109 -154q79 -74 149 -102q55 -27 131 -39v-4q-61 -44 -61 -116q0 -60 47 -106l-1 -1q-83 13 -135 31
q-102 35 -192 95q-49 32 -125 111q-111 125 -155 263q-32 108 -32 140h1q46 -45 98 -45h12q65 0 113 61zM1445 1459h6q71 0 104 -75q7 -19 7 -37v-540h-2q-48 52 -105 52h-12q-57 0 -106 -52h-1v534q0 84 81 114q17 4 28 4zM600 1875h6q46 0 78 -55q59 -81 64 -96
q4 -15 5 -27q0 -53 -56 -77q-7 -3 -26 -4q-48 0 -78 51q-57 80 -65 97q-5 14 -5 27v4q0 52 55 76q12 4 22 4zM774 1690h1q43 -60 43 -69q2 -10 2 -14v-14q0 -36 -41 -64q-19 -9 -36 -9h-8q-45 0 -78 56q-1 0 -16 22l1 1q13 -5 30 -5q58 0 91 58q11 24 11 38z" />
    <glyph glyph-name="Uacute" unicode="&#xda;" horiz-adv-x="1639" 
d="M1450 830q69 0 103 -70q9 -19 9 -41v-4q0 -303 -227 -533q-101 -89 -151 -111q-173 -96 -344 -96h-31q-44 0 -81 45q-22 33 -22 67q0 71 74 106q13 6 103 10q67 11 108 26q100 37 181 109q78 82 95 121q26 43 48 111q22 76 22 167q12 46 42 68q31 25 71 25zM184 1459h9
q70 0 104 -78q5 -22 5 -47v-602q0 -87 -64 -116q-19 -12 -51 -12q-61 0 -97 59q-13 24 -13 50v638q0 68 76 103q19 5 31 5zM307 636h1q2 -38 40 -134q36 -79 109 -154q79 -74 149 -102q55 -27 131 -39v-4q-61 -44 -61 -116q0 -60 47 -106l-1 -1q-83 13 -135 31
q-102 35 -192 95q-49 32 -125 111q-111 125 -155 263q-32 108 -32 140h1q46 -45 98 -45h12q65 0 113 61zM1445 1459h6q71 0 104 -75q7 -19 7 -37v-540h-2q-48 52 -105 52h-12q-57 0 -106 -52h-1v534q0 84 81 114q17 4 28 4zM1101 1989h9q62 0 95 -67q7 -19 7 -31v-15
q0 -37 -40 -85q-65 -96 -84 -118q-36 -27 -71 -27q-61 0 -96 59q-11 22 -11 45v8q0 40 43 91q60 90 81 113q33 27 67 27zM880 1745h2q0 -60 62 -107q36 -20 73 -20q20 0 37 6l1 -1q-38 -58 -61 -80q-31 -23 -62 -23h-11q-57 0 -92 61q-9 21 -9 41v8q0 40 47 95q2 7 13 20z
" />
    <glyph glyph-name="Ucircumflex" unicode="&#xdb;" horiz-adv-x="1639" 
d="M1450 830q69 0 103 -70q9 -19 9 -41v-4q0 -303 -227 -533q-101 -89 -151 -111q-173 -96 -344 -96h-31q-44 0 -81 45q-22 33 -22 67q0 71 74 106q13 6 103 10q67 11 108 26q100 37 181 109q78 82 95 121q26 43 48 111q22 76 22 167q12 46 42 68q31 25 71 25zM184 1459h9
q70 0 104 -78q5 -22 5 -47v-602q0 -87 -64 -116q-19 -12 -51 -12q-61 0 -97 59q-13 24 -13 50v638q0 68 76 103q19 5 31 5zM307 636h1q2 -38 40 -134q36 -79 109 -154q79 -74 149 -102q55 -27 131 -39v-4q-61 -44 -61 -116q0 -60 47 -106l-1 -1q-83 13 -135 31
q-102 35 -192 95q-49 32 -125 111q-111 125 -155 263q-32 108 -32 140h1q46 -45 98 -45h12q65 0 113 61zM1445 1459h6q71 0 104 -75q7 -19 7 -37v-540h-2q-48 52 -105 52h-12q-57 0 -106 -52h-1v534q0 84 81 114q17 4 28 4zM819 1875h3q35 0 51 -46q115 -243 115 -247
q1 -5 1 -9v-6q0 -27 -30 -43q-9 -4 -20 -4q-36 0 -52 42q-111 237 -115 247q-2 6 -2 14v3q0 28 29 44q9 5 20 5zM758 1809q0 -5 39 -85q16 -34 16 -35q-64 -138 -71 -148q-16 -21 -42 -21q-27 0 -43 26q-6 11 -6 22v3q0 14 14 41q90 192 93 197z" />
    <glyph glyph-name="Udieresis" unicode="&#xdc;" horiz-adv-x="1639" 
d="M1450 830q69 0 103 -70q9 -19 9 -41v-4q0 -303 -227 -533q-101 -89 -151 -111q-173 -96 -344 -96h-31q-44 0 -81 45q-22 33 -22 67q0 71 74 106q13 6 103 10q67 11 108 26q100 37 181 109q78 82 95 121q26 43 48 111q22 76 22 167q12 46 42 68q31 25 71 25zM184 1459h9
q70 0 104 -78q5 -22 5 -47v-602q0 -87 -64 -116q-19 -12 -51 -12q-61 0 -97 59q-13 24 -13 50v638q0 68 76 103q19 5 31 5zM307 636h1q2 -38 40 -134q36 -79 109 -154q79 -74 149 -102q55 -27 131 -39v-4q-61 -44 -61 -116q0 -60 47 -106l-1 -1q-83 13 -135 31
q-102 35 -192 95q-49 32 -125 111q-111 125 -155 263q-32 108 -32 140h1q46 -45 98 -45h12q65 0 113 61zM1445 1459h6q71 0 104 -75q7 -19 7 -37v-540h-2q-48 52 -105 52h-12q-57 0 -106 -52h-1v534q0 84 81 114q17 4 28 4zM612 1790h6q48 0 90 -38q41 -42 41 -94v-6
q0 -62 -55 -106q-37 -26 -77 -26h-7q-25 0 -52 12v1q63 50 63 122t-63 122q12 8 35 12q11 1 19 1zM1024 1790h6q48 0 90 -38q41 -42 41 -94v-6q0 -62 -55 -106q-37 -26 -77 -26h-7q-25 0 -52 12v1q63 50 63 122t-63 122q12 8 35 12q11 1 19 1zM955 1770q41 -26 58 -76
q6 -20 6 -35v-8q0 -55 -48 -99q-9 -8 -16 -12q-40 23 -59 77q-5 18 -5 36v4q0 67 62 112q1 0 2 1zM543 1770q41 -26 58 -76q6 -20 6 -35v-8q0 -55 -48 -99q-9 -8 -16 -12q-40 23 -59 77q-5 18 -5 36v4q0 67 62 112q1 0 2 1z" />
    <glyph glyph-name="Yacute" unicode="&#xdd;" horiz-adv-x="1180" 
d="M977 1459h10q65 0 104 -67q12 -24 12 -49v-11q0 -45 -48 -101q-209 -303 -375 -535q-39 -40 -91 -40q-72 0 -110 71q-11 25 -11 51v2q0 44 36 88q377 539 387 552q39 39 86 39zM468 681h1q53 -57 115 -57h12q63 0 115 57h1v-588q0 -71 -75 -109q-22 -9 -41 -9h-12
q-67 0 -105 71q-11 22 -11 49v586zM196 1459h7q67 0 112 -75l255 -364v-1q-123 -173 -124 -183q-10 -31 -10 -47h-1q-8 7 -337 480q-21 29 -21 65v6q0 76 81 113q20 6 38 6zM871 1989h9q62 0 95 -67q7 -19 7 -31v-15q0 -37 -40 -85q-65 -96 -84 -118q-36 -27 -71 -27
q-61 0 -96 59q-11 22 -11 45v8q0 40 43 91q60 90 81 113q33 27 67 27zM650 1745h2q0 -60 62 -107q36 -20 73 -20q20 0 37 6l1 -1q-38 -58 -61 -80q-31 -23 -62 -23h-11q-57 0 -92 61q-9 21 -9 41v8q0 40 47 95q2 7 13 20z" />
    <glyph glyph-name="Thorn" unicode="&#xde;" horiz-adv-x="1020" 
d="M236 1449q65 -36 65 -98v-207h200q29 0 49 -7q73 -36 73 -103q0 -19 -5 -37q-33 -79 -108 -79h-209v-337h-1q-49 52 -105 52h-11q-59 0 -106 -52h-1v776q0 9 5 27q34 75 105 75h6q21 0 43 -10zM652 384v12q0 70 -71 118l1 1q33 14 54 31q83 68 83 164q0 73 -51 135
q-49 51 -87 60v1q71 49 71 120v11q0 47 -39 94v1q23 -6 42 -12q78 -27 158 -99q130 -137 130 -299v-23q0 -127 -86 -249q-33 -41 -46 -50q-73 -77 -196 -110h-2q39 47 39 94zM225 599q76 -36 76 -104v-412q0 -29 -18 -59q-39 -49 -85 -49h-15q-24 0 -49 14q-57 38 -57 88
v424q0 14 6 29q32 74 106 74q15 0 36 -5zM335 516h175q75 0 108 -79q5 -18 5 -37q0 -67 -73 -103q-20 -7 -49 -7h-166q-3 0 -3 2v221q1 3 3 3z" />
    <glyph glyph-name="germandbls" unicode="&#xdf;" horiz-adv-x="1233" 
d="M185 1370h6q39 0 67 -23q102 33 223 10q95 -26 129 -52q89 -55 134 -127l17 -29q73 -120 49 -286q-41 -193 -199 -290q-52 -32 -113 -1q-25 14 -38 35l-4 7q-37 60 11 129q15 14 60 46q25 24 45 63q44 105 -11 194q-55 90 -174 96q-41 -1 -66 -12q-5 -1 -20 -8v-541h-1
q-47 52 -106 52h-11q-56 0 -105 -52h-1v681q0 62 65 98q22 10 43 10zM389 335q57 35 123 -4q22 -15 49 -58q44 -48 96 -64q92 -24 162 19l7 4q83 51 93 164q1 27 -4 46h1q81 -34 144 4q45 28 64 86v-1q32 -79 13 -210q-42 -188 -198 -283l-1 -1q-159 -97 -353 -42
q-153 55 -229 179l-6 9q-33 55 6 121q15 20 33 31zM189 604q74 0 106 -74q6 -15 6 -29v-424q0 -50 -57 -88q-25 -14 -49 -14h-15q-46 0 -85 49q-18 30 -18 59v412q0 68 76 104q21 5 36 5zM830 817q112 -36 175 -96q44 -41 68 -81l12 -19q30 -49 -5 -115q-16 -21 -36 -33
l-2 -1q-60 -37 -127 9q-13 9 -45 55q-50 53 -107 66q-45 7 -57 4l-2 2q26 16 82 104q19 32 43 100q-2 3 1 5z" />
    <glyph glyph-name="agrave" unicode="&#xe0;" horiz-adv-x="1555" 
d="M772 1459h10q71 0 110 -78l548 -1176q38 -72 38 -105v-4q0 -73 -74 -111q-23 -10 -47 -10h-4q-86 0 -123 102q-9 15 -437 936q-136 287 -136 297q-2 12 -2 24v5q0 75 78 113q21 7 39 7zM624 1300h2q7 -25 86 -190q4 -10 47 -100q0 -2 -442 -951q-12 -30 -41 -57
q-36 -27 -73 -27h-6q-75 0 -113 78q-7 22 -7 40v9q0 31 35 100zM966 561q3 0 65 -137q7 -12 50 -106l-3 -1h-602q-3 0 -3 2q104 224 114 242h379zM558 1875h6q46 0 78 -55q59 -81 64 -96q4 -15 5 -27q0 -53 -56 -77q-7 -3 -26 -4q-48 0 -78 51q-57 80 -65 97q-5 14 -5 27v4
q0 52 55 76q12 4 22 4zM732 1690h1q43 -60 43 -69q2 -10 2 -14v-14q0 -36 -41 -64q-19 -9 -36 -9h-8q-45 0 -78 56q-1 0 -16 22l1 1q13 -5 30 -5q58 0 91 58q11 24 11 38z" />
    <glyph glyph-name="aacute" unicode="&#xe1;" horiz-adv-x="1555" 
d="M772 1459h10q71 0 110 -78l548 -1176q38 -72 38 -105v-4q0 -73 -74 -111q-23 -10 -47 -10h-4q-86 0 -123 102q-9 15 -437 936q-136 287 -136 297q-2 12 -2 24v5q0 75 78 113q21 7 39 7zM624 1300h2q7 -25 86 -190q4 -10 47 -100q0 -2 -442 -951q-12 -30 -41 -57
q-36 -27 -73 -27h-6q-75 0 -113 78q-7 22 -7 40v9q0 31 35 100zM966 561q3 0 65 -137q7 -12 50 -106l-3 -1h-602q-3 0 -3 2q104 224 114 242h379zM1059 1989h9q62 0 95 -67q7 -19 7 -31v-15q0 -37 -40 -85q-65 -96 -84 -118q-36 -27 -71 -27q-61 0 -96 59q-11 22 -11 45v8
q0 40 43 91q60 90 81 113q33 27 67 27zM838 1745h2q0 -60 62 -107q36 -20 73 -20q20 0 37 6l1 -1q-38 -58 -61 -80q-31 -23 -62 -23h-11q-57 0 -92 61q-9 21 -9 41v8q0 40 47 95q2 7 13 20z" />
    <glyph glyph-name="acircumflex" unicode="&#xe2;" horiz-adv-x="1555" 
d="M772 1459h10q71 0 110 -78l548 -1176q38 -72 38 -105v-4q0 -73 -74 -111q-23 -10 -47 -10h-4q-86 0 -123 102q-9 15 -437 936q-136 287 -136 297q-2 12 -2 24v5q0 75 78 113q21 7 39 7zM624 1300h2q7 -25 86 -190q4 -10 47 -100q0 -2 -442 -951q-12 -30 -41 -57
q-36 -27 -73 -27h-6q-75 0 -113 78q-7 22 -7 40v9q0 31 35 100zM966 561q3 0 65 -137q7 -12 50 -106l-3 -1h-602q-3 0 -3 2q104 224 114 242h379zM776 1875h3q35 0 51 -46q115 -243 115 -247q1 -5 1 -9v-6q0 -27 -30 -43q-9 -4 -20 -4q-36 0 -52 42q-111 237 -115 247
q-2 6 -2 14v3q0 28 29 44q9 5 20 5zM715 1809q0 -5 39 -85q16 -34 16 -35q-64 -138 -71 -148q-16 -21 -42 -21q-27 0 -43 26q-6 11 -6 22v3q0 14 14 41q90 192 93 197z" />
    <glyph glyph-name="atilde" unicode="&#xe3;" horiz-adv-x="1555" 
d="M772 1459h10q71 0 110 -78l548 -1176q38 -72 38 -105v-4q0 -73 -74 -111q-23 -10 -47 -10h-4q-86 0 -123 102q-9 15 -437 936q-136 287 -136 297q-2 12 -2 24v5q0 75 78 113q21 7 39 7zM624 1300h2q7 -25 86 -190q4 -10 47 -100q0 -2 -442 -951q-12 -30 -41 -57
q-36 -27 -73 -27h-6q-75 0 -113 78q-7 22 -7 40v9q0 31 35 100zM966 561q3 0 65 -137q7 -12 50 -106l-3 -1h-602q-3 0 -3 2q104 224 114 242h379zM1065 1770q-20 -103 -68.5 -154t-126.5 -51h-4q-50 0 -113 23q-66 24 -114 24q-39 0 -60.5 -20.5t-33.5 -71.5h-54
q19 106 68 158.5t129 52.5q46 -1 113 -24q64 -23 112 -23h4q36 0 58 20t36 66h54z" />
    <glyph glyph-name="adieresis" unicode="&#xe4;" horiz-adv-x="1555" 
d="M772 1459h10q71 0 110 -78l548 -1176q38 -72 38 -105v-4q0 -73 -74 -111q-23 -10 -47 -10h-4q-86 0 -123 102q-9 15 -437 936q-136 287 -136 297q-2 12 -2 24v5q0 75 78 113q21 7 39 7zM624 1300h2q7 -25 86 -190q4 -10 47 -100q0 -2 -442 -951q-12 -30 -41 -57
q-36 -27 -73 -27h-6q-75 0 -113 78q-7 22 -7 40v9q0 31 35 100zM966 561q3 0 65 -137q7 -12 50 -106l-3 -1h-602q-3 0 -3 2q104 224 114 242h379zM570 1790h6q48 0 90 -38q41 -42 41 -94v-6q0 -62 -55 -106q-37 -26 -77 -26h-7q-25 0 -52 12v1q63 50 63 122t-63 122
q12 8 35 12q11 1 19 1zM501 1770q41 -26 58 -76q6 -20 6 -35v-8q0 -55 -48 -99q-9 -8 -16 -12q-40 23 -59 77q-5 18 -5 36v4q0 67 62 112q1 0 2 1zM982 1790h6q48 0 90 -38q41 -42 41 -94v-6q0 -62 -55 -106q-37 -26 -77 -26h-7q-25 0 -52 12v1q63 50 63 122t-63 122
q12 8 35 12q11 1 19 1zM913 1770q41 -26 58 -76q6 -20 6 -35v-8q0 -55 -48 -99q-9 -8 -16 -12q-40 23 -59 77q-5 18 -5 36v4q0 67 62 112q1 0 2 1z" />
    <glyph glyph-name="aring" unicode="&#xe5;" horiz-adv-x="1555" 
d="M772 1459h10q71 0 110 -78l548 -1176q38 -72 38 -105v-4q0 -73 -74 -111q-23 -10 -47 -10h-4q-86 0 -123 102q-9 15 -437 936q-136 287 -136 297q-2 12 -2 24v5q0 75 78 113q21 7 39 7zM624 1300h2q7 -25 86 -190q4 -10 47 -100q0 -2 -442 -951q-12 -30 -41 -57
q-36 -27 -73 -27h-6q-75 0 -113 78q-7 22 -7 40v9q0 31 35 100zM966 561q3 0 65 -137q7 -12 50 -106l-3 -1h-602q-3 0 -3 2q104 224 114 242h379zM676 1698q0 -42 29 -71t71 -29t71 29t29 71q0 40 -29.5 69.5t-70.5 29.5t-70.5 -29.5t-29.5 -69.5zM600 1698q0 75 51 126
t125 51q76 0 127.5 -51.5t51.5 -125.5q0 -75 -51.5 -126.5t-127.5 -51.5q-74 0 -125 51.5t-51 126.5z" />
    <glyph glyph-name="ae" unicode="&#xe6;" horiz-adv-x="1933" 
d="M772 1459h123q69 0 104 -78q5 -22 5 -47v-1101q0 -3 -3 -3h-111q-63 0 -111 -53h-1v147l-302 -7q-3 0 -3 2q104 224 114 242h191v483q-121 256 -121 266q-2 12 -2 24v5q0 75 78 113q21 7 39 7zM624 1300h2q7 -25 86 -190q4 -10 47 -100q0 -2 -442 -951q-12 -30 -41 -57
q-36 -27 -73 -27h-6q-75 0 -113 78q-7 22 -7 40v9q0 31 35 100zM885 199h864q62 0 97 -66q10 -20 10 -45v-1q0 -74 -77 -107q-17 -5 -31 -5h-862q-62 0 -98 65q-10 22 -10 43v9q0 60 63 96q21 11 44 11zM980 1459h767q66 0 102 -71q7 -22 7 -39v-3q0 -75 -80 -108
q-18 -5 -45 -5h-695q-3 0 -3 3v113q0 62 -53 109v1zM1036 830h706q82 0 112 -87q2 -16 2 -26q0 -81 -87 -110q-15 -3 -26 -3h-707q-3 0 -3 3v220q0 3 3 3z" />
    <glyph glyph-name="ccedilla" unicode="&#xe7;" horiz-adv-x="1454" 
d="M810 1459h17q268 0 489 -190q61 -50 61 -108q0 -62 -59 -98q-24 -13 -50 -13h-6q-53 0 -99 54q-155 130 -334 130h-21q-180 0 -334 -132q-63 -60 -91 -105q-81 -134 -81 -270v-20q0 -154 98 -293q-1 0 -1 -2q-14 3 -27 3q-83 0 -128 -83q-13 -30 -13 -53v-14h-1
q-153 204 -153 444v17q0 249 167 461q64 74 110 109q209 163 456 163zM367 384h15q45 0 96 -56q153 -128 337 -128h11q200 0 362 155q31 29 75 29h1q77 0 109 -83q3 -17 3 -25v-9q0 -54 -60 -101q-216 -191 -498 -191q-262 0 -471 169q-77 63 -83 98q-3 17 -3 32q0 58 54 94
q26 16 52 16zM641 -316q38 -18 77 -4t56 52q18 38 4 76.5t-52 56.5q-7 3 -12 10q-14 18 -3 41q10 21 33 23q8 1 15 -2q68 -32 93 -100.5t-7 -137.5q-31 -67 -99.5 -91.5t-136.5 7.5q-7 3 -11 10q-14 18 -4 39q10 22 32 22q8 1 15 -2z" />
    <glyph glyph-name="egrave" unicode="&#xe8;" horiz-adv-x="1232" 
d="M185 1459h9q69 0 104 -78q5 -22 5 -47v-1101q0 -3 -3 -3h-111q-63 0 -111 -53h-1v1174q0 68 76 103q19 5 32 5zM184 199h864q62 0 97 -66q10 -20 10 -45v-1q0 -74 -77 -107q-17 -5 -31 -5h-862q-62 0 -98 65q-10 22 -10 43v9q0 60 63 96q21 11 44 11zM279 1459h767
q66 0 102 -71q7 -22 7 -39v-3q0 -75 -80 -108q-18 -5 -45 -5h-695q-3 0 -3 3v113q0 62 -53 109v1zM335 830h706q82 0 112 -87q2 -16 2 -26q0 -81 -87 -110q-15 -3 -26 -3h-707q-3 0 -3 3v220q0 3 3 3zM545 1875h6q46 0 78 -55q59 -81 64 -96q4 -15 5 -27q0 -53 -56 -77
q-7 -3 -26 -4q-48 0 -78 51q-57 80 -65 97q-5 14 -5 27v4q0 52 55 76q12 4 22 4zM719 1690h1q43 -60 43 -69q2 -10 2 -14v-14q0 -36 -41 -64q-19 -9 -36 -9h-8q-45 0 -78 56q-1 0 -16 22l1 1q13 -5 30 -5q58 0 91 58q11 24 11 38z" />
    <glyph glyph-name="eacute" unicode="&#xe9;" horiz-adv-x="1232" 
d="M185 1459h9q69 0 104 -78q5 -22 5 -47v-1101q0 -3 -3 -3h-111q-63 0 -111 -53h-1v1174q0 68 76 103q19 5 32 5zM184 199h864q62 0 97 -66q10 -20 10 -45v-1q0 -74 -77 -107q-17 -5 -31 -5h-862q-62 0 -98 65q-10 22 -10 43v9q0 60 63 96q21 11 44 11zM279 1459h767
q66 0 102 -71q7 -22 7 -39v-3q0 -75 -80 -108q-18 -5 -45 -5h-695q-3 0 -3 3v113q0 62 -53 109v1zM335 830h706q82 0 112 -87q2 -16 2 -26q0 -81 -87 -110q-15 -3 -26 -3h-707q-3 0 -3 3v220q0 3 3 3zM897 1989h9q62 0 95 -67q7 -19 7 -31v-15q0 -37 -40 -85
q-65 -96 -84 -118q-36 -27 -71 -27q-61 0 -96 59q-11 22 -11 45v8q0 40 43 91q60 90 81 113q33 27 67 27zM676 1745h2q0 -60 62 -107q36 -20 73 -20q20 0 37 6l1 -1q-38 -58 -61 -80q-31 -23 -62 -23h-11q-57 0 -92 61q-9 21 -9 41v8q0 40 47 95q2 7 13 20z" />
    <glyph glyph-name="ecircumflex" unicode="&#xea;" horiz-adv-x="1232" 
d="M185 1459h9q69 0 104 -78q5 -22 5 -47v-1101q0 -3 -3 -3h-111q-63 0 -111 -53h-1v1174q0 68 76 103q19 5 32 5zM184 199h864q62 0 97 -66q10 -20 10 -45v-1q0 -74 -77 -107q-17 -5 -31 -5h-862q-62 0 -98 65q-10 22 -10 43v9q0 60 63 96q21 11 44 11zM279 1459h767
q66 0 102 -71q7 -22 7 -39v-3q0 -75 -80 -108q-18 -5 -45 -5h-695q-3 0 -3 3v113q0 62 -53 109v1zM335 830h706q82 0 112 -87q2 -16 2 -26q0 -81 -87 -110q-15 -3 -26 -3h-707q-3 0 -3 3v220q0 3 3 3zM615 1875h3q35 0 51 -46q115 -243 115 -247q1 -5 1 -9v-6q0 -27 -30 -43
q-9 -4 -20 -4q-36 0 -52 42q-111 237 -115 247q-2 6 -2 14v3q0 28 29 44q9 5 20 5zM554 1809q0 -5 39 -85q16 -34 16 -35q-64 -138 -71 -148q-16 -21 -42 -21q-27 0 -43 26q-6 11 -6 22v3q0 14 14 41q90 192 93 197z" />
    <glyph glyph-name="edieresis" unicode="&#xeb;" horiz-adv-x="1232" 
d="M185 1459h9q69 0 104 -78q5 -22 5 -47v-1101q0 -3 -3 -3h-111q-63 0 -111 -53h-1v1174q0 68 76 103q19 5 32 5zM279 1459h767q66 0 102 -71q7 -22 7 -39v-3q0 -75 -80 -108q-18 -5 -45 -5h-695q-3 0 -3 3v113q0 62 -53 109v1zM335 830h706q82 0 112 -87q2 -16 2 -26
q0 -81 -87 -110q-15 -3 -26 -3h-707q-3 0 -3 3v220q0 3 3 3zM184 199h864q62 0 97 -66q10 -20 10 -45v-1q0 -74 -77 -107q-17 -5 -31 -5h-862q-62 0 -98 65q-10 22 -10 43v9q0 60 63 96q21 11 44 11zM408 1790h6q48 0 90 -38q41 -42 41 -94v-6q0 -62 -55 -106
q-37 -26 -77 -26h-7q-25 0 -52 12v1q63 50 63 122t-63 122q12 8 35 12q11 1 19 1zM339 1770q41 -26 58 -76q6 -20 6 -35v-8q0 -55 -48 -99q-9 -8 -16 -12q-40 23 -59 77q-5 18 -5 36v4q0 67 62 112q1 0 2 1zM820 1790h6q48 0 90 -38q41 -42 41 -94v-6q0 -62 -55 -106
q-37 -26 -77 -26h-7q-25 0 -52 12v1q63 50 63 122t-63 122q12 8 35 12q11 1 19 1zM751 1770q41 -26 58 -76q6 -20 6 -35v-8q0 -55 -48 -99q-9 -8 -16 -12q-40 23 -59 77q-5 18 -5 36v4q0 67 62 112q1 0 2 1z" />
    <glyph glyph-name="igrave" unicode="&#xec;" horiz-adv-x="563" 
d="M370 1459h6q71 0 105 -75q5 -18 5 -27v-776h-1q-47 52 -106 52h-11q-56 0 -105 -52h-1v770q0 62 65 98q22 10 43 10zM374 604q74 0 106 -74q6 -15 6 -29v-424q0 -50 -57 -88q-25 -14 -49 -14h-15q-46 0 -85 49q-18 30 -18 59v412q0 68 76 104q21 5 36 5zM154 1875h6
q46 0 78 -55q59 -81 64 -96q4 -15 5 -27q0 -53 -56 -77q-7 -3 -26 -4q-48 0 -78 51q-57 80 -65 97q-5 14 -5 27v4q0 52 55 76q12 4 22 4zM328 1690h1q43 -60 43 -69q2 -10 2 -14v-14q0 -36 -41 -64q-19 -9 -36 -9h-8q-45 0 -78 56q-1 0 -16 22l1 1q13 -5 30 -5q58 0 91 58
q11 24 11 38z" />
    <glyph glyph-name="iacute" unicode="&#xed;" horiz-adv-x="658" 
d="M185 1459h6q71 0 105 -75q5 -18 5 -27v-776h-1q-47 52 -106 52h-11q-56 0 -105 -52h-1v770q0 62 65 98q22 10 43 10zM189 604q74 0 106 -74q6 -15 6 -29v-424q0 -50 -57 -88q-25 -14 -49 -14h-15q-46 0 -85 49q-18 30 -18 59v412q0 68 76 104q21 5 36 5zM470 1989h9
q62 0 95 -67q7 -19 7 -31v-15q0 -37 -40 -85q-65 -96 -84 -118q-36 -27 -71 -27q-61 0 -96 59q-11 22 -11 45v8q0 40 43 91q60 90 81 113q33 27 67 27zM249 1745h2q0 -60 62 -107q36 -20 73 -20q20 0 37 6l1 -1q-38 -58 -61 -80q-31 -23 -62 -23h-11q-57 0 -92 61
q-9 21 -9 41v8q0 40 47 95q2 7 13 20z" />
    <glyph glyph-name="icircumflex" unicode="&#xee;" horiz-adv-x="378" 
d="M185 1459h6q71 0 105 -75q5 -18 5 -27v-776h-1q-47 52 -106 52h-11q-56 0 -105 -52h-1v770q0 62 65 98q22 10 43 10zM189 604q74 0 106 -74q6 -15 6 -29v-424q0 -50 -57 -88q-25 -14 -49 -14h-15q-46 0 -85 49q-18 30 -18 59v412q0 68 76 104q21 5 36 5zM188 1875h3
q35 0 51 -46q115 -243 115 -247q1 -5 1 -9v-6q0 -27 -30 -43q-9 -4 -20 -4q-36 0 -52 42q-111 237 -115 247q-2 6 -2 14v3q0 28 29 44q9 5 20 5zM127 1809q0 -5 39 -85q16 -34 16 -35q-64 -138 -71 -148q-16 -21 -42 -21q-27 0 -43 26q-6 11 -6 22v3q0 14 14 41
q90 192 93 197z" />
    <glyph glyph-name="idieresis" unicode="&#xef;" horiz-adv-x="836" 
d="M414 1459h6q71 0 105 -75q5 -18 5 -27v-776h-1q-47 52 -106 52h-11q-56 0 -105 -52h-1v770q0 62 65 98q22 10 43 10zM418 604q74 0 106 -74q6 -15 6 -29v-424q0 -50 -57 -88q-25 -14 -49 -14h-15q-46 0 -85 49q-18 30 -18 59v412q0 68 76 104q21 5 36 5zM210 1790h6
q48 0 90 -38q41 -42 41 -94v-6q0 -62 -55 -106q-37 -26 -77 -26h-7q-25 0 -52 12v1q63 50 63 122t-63 122q12 8 35 12q11 1 19 1zM141 1770q41 -26 58 -76q6 -20 6 -35v-8q0 -55 -48 -99q-9 -8 -16 -12q-40 23 -59 77q-5 18 -5 36v4q0 67 62 112q1 0 2 1zM622 1790h6
q48 0 90 -38q41 -42 41 -94v-6q0 -62 -55 -106q-37 -26 -77 -26h-7q-25 0 -52 12v1q63 50 63 122t-63 122q12 8 35 12q11 1 19 1zM553 1770q41 -26 58 -76q6 -20 6 -35v-8q0 -55 -48 -99q-9 -8 -16 -12q-40 23 -59 77q-5 18 -5 36v4q0 67 62 112q1 0 2 1z" />
    <glyph glyph-name="eth" unicode="&#xf0;" horiz-adv-x="1548" 
d="M431 1459h309q251 0 468 -175q88 -81 106 -111q68 -91 99 -166q58 -144 58 -277v-22q0 -220 -135 -418q-31 -47 -106 -120q-220 -195 -502 -195q-62 0 -98 59q-14 24 -14 50v7q0 66 70 101q15 9 88 10q71 9 110 22q177 61 279 213q82 136 82 267v26q0 173 -129 330
q-65 67 -106 91q-135 83 -271 83h-291q-86 0 -117 71q-7 21 -7 38v8q0 68 75 103q20 5 32 5zM324 1257h1q47 -53 109 -53h113q2 0 2 -2v-384h134q75 0 108 -79q5 -18 5 -37q0 -67 -73 -103q-20 -7 -49 -7h-125v-392h91v-1q-54 -47 -54 -111q0 -62 52 -112v-1h-194
q-83 0 -113 72q-7 17 -7 37v508h-125q-29 0 -49 7q-73 36 -73 103q0 19 5 37q33 79 108 79h134v439z" />
    <glyph glyph-name="ntilde" unicode="&#xf1;" horiz-adv-x="1269" 
d="M178 1459q59 0 87 -29q19 -19 117 -162q15 -20 352 -497q13 -30 13 -54q0 -68 -67 -103q-21 -10 -45 -10q-69 0 -110 73q-191 267 -222 313h-1v-183h-1q-49 52 -106 52h-11q-61 0 -105 -52h-2v542q0 74 80 106zM1075 1459h9q67 0 101 -72q7 -17 7 -33v-647q0 -44 -47 -82
q-30 -21 -68 -21q-60 0 -96 59q-14 25 -14 50v636q0 72 77 105q17 5 31 5zM192 830q68 0 104 -75q6 -21 6 -53v-602q0 -97 -86 -123q-12 -2 -22 -2h-10q-68 0 -103 76q-4 19 -4 32v638q0 69 77 104q20 5 38 5zM777 708h2l187 -266h1v185h2q45 -52 104 -52h12q58 0 105 51h2
v-548q0 -51 -57 -90q-28 -13 -48 -13h-12q-65 0 -112 82q-4 5 -369 521q1 0 1 2q18 -5 32 -5h13q74 0 120 75q17 35 17 58zM922 1770q-20 -103 -68.5 -154t-126.5 -51h-4q-50 0 -113 23q-66 24 -114 24q-39 0 -60.5 -20.5t-33.5 -71.5h-54q19 106 68 158.5t129 52.5
q46 -1 113 -24q64 -23 112 -23h4q36 0 58 20t36 66h54z" />
    <glyph glyph-name="ograve" unicode="&#xf2;" 
d="M815 1459h12q282 0 510 -210q224 -228 224 -533q0 -73 -77 -106q-17 -5 -31 -5h-10q-65 0 -101 73q-6 18 -9 97q-10 68 -31 126q-83 205 -281 292q-97 42 -220 42q-30 3 -65 34q-30 37 -30 77q0 64 61 101q24 12 48 12zM307 636h2q24 -133 93 -225q164 -212 436 -212
q29 -3 65 -35q28 -36 28 -71v-10q0 -60 -62 -97q-25 -11 -49 -11q-305 0 -533 224q-73 80 -101 131q-34 52 -66 136q-37 117 -37 154h1q48 -46 106 -46q68 0 117 62zM722 1453v-1q-46 -47 -46 -106q0 -68 62 -117v-2q-132 -25 -214 -85q-143 -102 -198 -270
q-25 -77 -25 -173q-12 -48 -40 -70q-33 -24 -68 -24h-8q-68 0 -103 76q-5 19 -5 32v12q0 278 205 505q84 82 154 124q67 38 129 61q56 21 142 37zM1329 636h2q48 -62 118 -62q58 0 105 47h1q-12 -91 -42 -167q-26 -73 -84 -160q-27 -42 -93 -109q-97 -89 -154 -114
q-32 -21 -109 -52q-71 -26 -158 -38v1q47 46 47 107q0 67 -62 116v2q62 10 118 33q53 23 108 61q48 35 97 94q41 53 60 95q40 91 40 117q2 2 6 29zM600 1875h6q46 0 78 -55q59 -81 64 -96q4 -15 5 -27q0 -53 -56 -77q-7 -3 -26 -4q-48 0 -78 51q-57 80 -65 97q-5 14 -5 27v4
q0 52 55 76q12 4 22 4zM774 1690h1q43 -60 43 -69q2 -10 2 -14v-14q0 -36 -41 -64q-19 -9 -36 -9h-8q-45 0 -78 56q-1 0 -16 22l1 1q13 -5 30 -5q58 0 91 58q11 24 11 38z" />
    <glyph glyph-name="oacute" unicode="&#xf3;" 
d="M815 1459h12q282 0 510 -210q224 -228 224 -533q0 -73 -77 -106q-17 -5 -31 -5h-10q-65 0 -101 73q-6 18 -9 97q-10 68 -31 126q-83 205 -281 292q-97 42 -220 42q-30 3 -65 34q-30 37 -30 77q0 64 61 101q24 12 48 12zM307 636h2q24 -133 93 -225q164 -212 436 -212
q29 -3 65 -35q28 -36 28 -71v-10q0 -60 -62 -97q-25 -11 -49 -11q-305 0 -533 224q-73 80 -101 131q-34 52 -66 136q-37 117 -37 154h1q48 -46 106 -46q68 0 117 62zM722 1453v-1q-46 -47 -46 -106q0 -68 62 -117v-2q-132 -25 -214 -85q-143 -102 -198 -270
q-25 -77 -25 -173q-12 -48 -40 -70q-33 -24 -68 -24h-8q-68 0 -103 76q-5 19 -5 32v12q0 278 205 505q84 82 154 124q67 38 129 61q56 21 142 37zM1329 636h2q48 -62 118 -62q58 0 105 47h1q-12 -91 -42 -167q-26 -73 -84 -160q-27 -42 -93 -109q-97 -89 -154 -114
q-32 -21 -109 -52q-71 -26 -158 -38v1q47 46 47 107q0 67 -62 116v2q62 10 118 33q53 23 108 61q48 35 97 94q41 53 60 95q40 91 40 117q2 2 6 29zM1100 1989h9q62 0 95 -67q7 -19 7 -31v-15q0 -37 -40 -85q-65 -96 -84 -118q-36 -27 -71 -27q-61 0 -96 59q-11 22 -11 45v8
q0 40 43 91q60 90 81 113q33 27 67 27zM879 1745h2q0 -60 62 -107q36 -20 73 -20q20 0 37 6l1 -1q-38 -58 -61 -80q-31 -23 -62 -23h-11q-57 0 -92 61q-9 21 -9 41v8q0 40 47 95q2 7 13 20z" />
    <glyph glyph-name="ocircumflex" unicode="&#xf4;" 
d="M815 1459h12q282 0 510 -210q224 -228 224 -533q0 -73 -77 -106q-17 -5 -31 -5h-10q-65 0 -101 73q-6 18 -9 97q-10 68 -31 126q-83 205 -281 292q-97 42 -220 42q-30 3 -65 34q-30 37 -30 77q0 64 61 101q24 12 48 12zM307 636h2q24 -133 93 -225q164 -212 436 -212
q29 -3 65 -35q28 -36 28 -71v-10q0 -60 -62 -97q-25 -11 -49 -11q-305 0 -533 224q-73 80 -101 131q-34 52 -66 136q-37 117 -37 154h1q48 -46 106 -46q68 0 117 62zM722 1453v-1q-46 -47 -46 -106q0 -68 62 -117v-2q-132 -25 -214 -85q-143 -102 -198 -270
q-25 -77 -25 -173q-12 -48 -40 -70q-33 -24 -68 -24h-8q-68 0 -103 76q-5 19 -5 32v12q0 278 205 505q84 82 154 124q67 38 129 61q56 21 142 37zM1329 636h2q48 -62 118 -62q58 0 105 47h1q-12 -91 -42 -167q-26 -73 -84 -160q-27 -42 -93 -109q-97 -89 -154 -114
q-32 -21 -109 -52q-71 -26 -158 -38v1q47 46 47 107q0 67 -62 116v2q62 10 118 33q53 23 108 61q48 35 97 94q41 53 60 95q40 91 40 117q2 2 6 29zM819 1875h3q35 0 51 -46q115 -243 115 -247q1 -5 1 -9v-6q0 -27 -30 -43q-9 -4 -20 -4q-36 0 -52 42q-111 237 -115 247
q-2 6 -2 14v3q0 28 29 44q9 5 20 5zM758 1809q0 -5 39 -85q16 -34 16 -35q-64 -138 -71 -148q-16 -21 -42 -21q-27 0 -43 26q-6 11 -6 22v3q0 14 14 41q90 192 93 197z" />
    <glyph glyph-name="otilde" unicode="&#xf5;" 
d="M815 1459h12q282 0 510 -210q224 -228 224 -533q0 -73 -77 -106q-17 -5 -31 -5h-10q-65 0 -101 73q-6 18 -9 97q-10 68 -31 126q-83 205 -281 292q-97 42 -220 42q-30 3 -65 34q-30 37 -30 77q0 64 61 101q24 12 48 12zM722 1453v-1q-46 -47 -46 -106q0 -68 62 -117v-2
q-132 -25 -214 -85q-143 -102 -198 -270q-25 -77 -25 -173q-12 -48 -40 -70q-33 -24 -68 -24h-8q-68 0 -103 76q-5 19 -5 32v12q0 278 205 505q84 82 154 124q67 38 129 61q56 21 142 37zM307 636h2q24 -133 93 -225q164 -212 436 -212q29 -3 65 -35q28 -36 28 -71v-10
q0 -60 -62 -97q-25 -11 -49 -11q-305 0 -533 224q-73 80 -101 131q-34 52 -66 136q-37 117 -37 154h1q48 -46 106 -46q68 0 117 62zM1329 636h2q48 -62 118 -62q58 0 105 47h1q-12 -91 -42 -167q-26 -73 -84 -160q-27 -42 -93 -109q-97 -89 -154 -114q-32 -21 -109 -52
q-71 -26 -158 -38v1q47 46 47 107q0 67 -62 116v2q62 10 118 33q53 23 108 61q48 35 97 94q41 53 60 95q40 91 40 117q2 2 6 29zM1107 1770q-20 -103 -68.5 -154t-126.5 -51h-4q-50 0 -113 23q-66 24 -114 24q-39 0 -60.5 -20.5t-33.5 -71.5h-54q19 106 68 158.5t129 52.5
q46 -1 113 -24q64 -23 112 -23h4q36 0 58 20t36 66h54z" />
    <glyph glyph-name="odieresis" unicode="&#xf6;" 
d="M815 1459h12q282 0 510 -210q224 -228 224 -533q0 -73 -77 -106q-17 -5 -31 -5h-10q-65 0 -101 73q-6 18 -9 97q-10 68 -31 126q-83 205 -281 292q-97 42 -220 42q-30 3 -65 34q-30 37 -30 77q0 64 61 101q24 12 48 12zM722 1453v-1q-46 -47 -46 -106q0 -68 62 -117v-2
q-132 -25 -214 -85q-143 -102 -198 -270q-25 -77 -25 -173q-12 -48 -40 -70q-33 -24 -68 -24h-8q-68 0 -103 76q-5 19 -5 32v12q0 278 205 505q84 82 154 124q67 38 129 61q56 21 142 37zM307 636h2q24 -133 93 -225q164 -212 436 -212q29 -3 65 -35q28 -36 28 -71v-10
q0 -60 -62 -97q-25 -11 -49 -11q-305 0 -533 224q-73 80 -101 131q-34 52 -66 136q-37 117 -37 154h1q48 -46 106 -46q68 0 117 62zM1329 636h2q48 -62 118 -62q58 0 105 47h1q-12 -91 -42 -167q-26 -73 -84 -160q-27 -42 -93 -109q-97 -89 -154 -114q-32 -21 -109 -52
q-71 -26 -158 -38v1q47 46 47 107q0 67 -62 116v2q62 10 118 33q53 23 108 61q48 35 97 94q41 53 60 95q40 91 40 117q2 2 6 29zM611 1790h6q48 0 90 -38q41 -42 41 -94v-6q0 -62 -55 -106q-37 -26 -77 -26h-7q-25 0 -52 12v1q63 50 63 122t-63 122q12 8 35 12q11 1 19 1z
M542 1770q41 -26 58 -76q6 -20 6 -35v-8q0 -55 -48 -99q-9 -8 -16 -12q-40 23 -59 77q-5 18 -5 36v4q0 67 62 112q1 0 2 1zM1023 1790h6q48 0 90 -38q41 -42 41 -94v-6q0 -62 -55 -106q-37 -26 -77 -26h-7q-25 0 -52 12v1q63 50 63 122t-63 122q12 8 35 12q11 1 19 1z
M954 1770q41 -26 58 -76q6 -20 6 -35v-8q0 -55 -48 -99q-9 -8 -16 -12q-40 23 -59 77q-5 18 -5 36v4q0 67 62 112q1 0 2 1z" />
    <glyph glyph-name="divide" unicode="&#xf7;" horiz-adv-x="1034" 
d="M400 714v8q0 70 78 106q20 6 33 6h315q89 0 120 -67q11 -21 11 -52q0 -73 -78 -108q-20 -6 -33 -6h-315q-91 0 -121 70q-10 19 -10 43zM208 834h216v-1q-54 -51 -54 -114v-3q0 -63 54 -114v-1h-236q-70 0 -106 79q-5 20 -5 33v8q0 70 77 106q22 7 54 7zM470 288
q-70 30 -70 121v159q0 3 3 3h227q3 0 3 -3v-179q0 -13 -6 -33q-36 -78 -106 -78h-8q-24 0 -43 10zM513 1157h8q70 0 106 -78q6 -20 6 -33v-179q0 -3 -3 -3h-227q-3 0 -3 3v159q0 91 70 121q19 10 43 10z" />
    <glyph glyph-name="oslash" unicode="&#xf8;" horiz-adv-x="1642" 
d="M1409 1459h12q86 0 134 -92q10 -29 10 -46v-21q0 -69 -88 -142q-18 -19 -35 -36q121 -182 121 -406q0 -73 -77 -106q-17 -5 -31 -5h-10q-65 0 -101 73q-6 18 -9 97q-10 68 -31 126q-12 29 -27 56q-362 -363 -367 -364q-42 -29 -88 -29q-98 0 -144 103q-7 25 -7 46v6
q0 73 87 144q194 195 308 309q-21 11 -43 21q-97 42 -220 42q-30 3 -65 34q-30 37 -30 77q0 64 61 101q24 12 48 12h12q216 0 400 -124q98 97 102 99q40 25 78 25zM630 735h2l-2 -19q0 -104 95 -166q46 -26 94 -26h19l3 2l2 -3q-159 -159 -264 -263q115 -61 261 -61
q29 -3 65 -35q28 -36 28 -71v-10q0 -60 -62 -97q-25 -11 -49 -11q-224 0 -407 121q-97 -96 -102 -100q-42 -25 -72 -25h-23q-78 0 -126 83q-15 30 -15 61v10q0 72 82 139q21 21 42 43q-7 12 -13 23q-34 52 -66 136q-37 117 -37 154h1q48 -46 106 -46q68 0 117 62h2
q16 -92 54 -164q129 128 265 263zM724 1453v-1q-46 -47 -46 -106q0 -68 62 -117v-2q-132 -25 -214 -85q-143 -102 -198 -270q-25 -77 -25 -173q-12 -48 -40 -70q-33 -24 -68 -24h-8q-68 0 -103 76q-5 19 -5 32v12q0 278 205 505q84 82 154 124q67 38 129 61q56 21 142 37z
M1331 636h2q48 -62 118 -62q58 0 105 47h1q-12 -91 -42 -167q-26 -73 -84 -160q-27 -42 -93 -109q-97 -89 -154 -114q-32 -21 -109 -52q-71 -26 -158 -38v1q47 46 47 107q0 67 -62 116v2q62 10 118 33q53 23 108 61q48 35 97 94q41 53 60 95q40 91 40 117q2 2 6 29z" />
    <glyph glyph-name="ugrave" unicode="&#xf9;" horiz-adv-x="1639" 
d="M1450 830q69 0 103 -70q9 -19 9 -41v-4q0 -303 -227 -533q-101 -89 -151 -111q-173 -96 -344 -96h-31q-44 0 -81 45q-22 33 -22 67q0 71 74 106q13 6 103 10q67 11 108 26q100 37 181 109q78 82 95 121q26 43 48 111q22 76 22 167q12 46 42 68q31 25 71 25zM184 1459h9
q70 0 104 -78q5 -22 5 -47v-602q0 -87 -64 -116q-19 -12 -51 -12q-61 0 -97 59q-13 24 -13 50v638q0 68 76 103q19 5 31 5zM307 636h1q2 -38 40 -134q36 -79 109 -154q79 -74 149 -102q55 -27 131 -39v-4q-61 -44 -61 -116q0 -60 47 -106l-1 -1q-83 13 -135 31
q-102 35 -192 95q-49 32 -125 111q-111 125 -155 263q-32 108 -32 140h1q46 -45 98 -45h12q65 0 113 61zM1445 1459h6q71 0 104 -75q7 -19 7 -37v-540h-2q-48 52 -105 52h-12q-57 0 -106 -52h-1v534q0 84 81 114q17 4 28 4zM600 1875h6q46 0 78 -55q59 -81 64 -96
q4 -15 5 -27q0 -53 -56 -77q-7 -3 -26 -4q-48 0 -78 51q-57 80 -65 97q-5 14 -5 27v4q0 52 55 76q12 4 22 4zM774 1690h1q43 -60 43 -69q2 -10 2 -14v-14q0 -36 -41 -64q-19 -9 -36 -9h-8q-45 0 -78 56q-1 0 -16 22l1 1q13 -5 30 -5q58 0 91 58q11 24 11 38z" />
    <glyph glyph-name="uacute" unicode="&#xfa;" horiz-adv-x="1639" 
d="M1450 830q69 0 103 -70q9 -19 9 -41v-4q0 -303 -227 -533q-101 -89 -151 -111q-173 -96 -344 -96h-31q-44 0 -81 45q-22 33 -22 67q0 71 74 106q13 6 103 10q67 11 108 26q100 37 181 109q78 82 95 121q26 43 48 111q22 76 22 167q12 46 42 68q31 25 71 25zM184 1459h9
q70 0 104 -78q5 -22 5 -47v-602q0 -87 -64 -116q-19 -12 -51 -12q-61 0 -97 59q-13 24 -13 50v638q0 68 76 103q19 5 31 5zM307 636h1q2 -38 40 -134q36 -79 109 -154q79 -74 149 -102q55 -27 131 -39v-4q-61 -44 -61 -116q0 -60 47 -106l-1 -1q-83 13 -135 31
q-102 35 -192 95q-49 32 -125 111q-111 125 -155 263q-32 108 -32 140h1q46 -45 98 -45h12q65 0 113 61zM1445 1459h6q71 0 104 -75q7 -19 7 -37v-540h-2q-48 52 -105 52h-12q-57 0 -106 -52h-1v534q0 84 81 114q17 4 28 4zM1101 1989h9q62 0 95 -67q7 -19 7 -31v-15
q0 -37 -40 -85q-65 -96 -84 -118q-36 -27 -71 -27q-61 0 -96 59q-11 22 -11 45v8q0 40 43 91q60 90 81 113q33 27 67 27zM880 1745h2q0 -60 62 -107q36 -20 73 -20q20 0 37 6l1 -1q-38 -58 -61 -80q-31 -23 -62 -23h-11q-57 0 -92 61q-9 21 -9 41v8q0 40 47 95q2 7 13 20z
" />
    <glyph glyph-name="ucircumflex" unicode="&#xfb;" horiz-adv-x="1639" 
d="M1450 830q69 0 103 -70q9 -19 9 -41v-4q0 -303 -227 -533q-101 -89 -151 -111q-173 -96 -344 -96h-31q-44 0 -81 45q-22 33 -22 67q0 71 74 106q13 6 103 10q67 11 108 26q100 37 181 109q78 82 95 121q26 43 48 111q22 76 22 167q12 46 42 68q31 25 71 25zM184 1459h9
q70 0 104 -78q5 -22 5 -47v-602q0 -87 -64 -116q-19 -12 -51 -12q-61 0 -97 59q-13 24 -13 50v638q0 68 76 103q19 5 31 5zM307 636h1q2 -38 40 -134q36 -79 109 -154q79 -74 149 -102q55 -27 131 -39v-4q-61 -44 -61 -116q0 -60 47 -106l-1 -1q-83 13 -135 31
q-102 35 -192 95q-49 32 -125 111q-111 125 -155 263q-32 108 -32 140h1q46 -45 98 -45h12q65 0 113 61zM1445 1459h6q71 0 104 -75q7 -19 7 -37v-540h-2q-48 52 -105 52h-12q-57 0 -106 -52h-1v534q0 84 81 114q17 4 28 4zM819 1875h3q35 0 51 -46q115 -243 115 -247
q1 -5 1 -9v-6q0 -27 -30 -43q-9 -4 -20 -4q-36 0 -52 42q-111 237 -115 247q-2 6 -2 14v3q0 28 29 44q9 5 20 5zM758 1809q0 -5 39 -85q16 -34 16 -35q-64 -138 -71 -148q-16 -21 -42 -21q-27 0 -43 26q-6 11 -6 22v3q0 14 14 41q90 192 93 197z" />
    <glyph glyph-name="udieresis" unicode="&#xfc;" horiz-adv-x="1639" 
d="M1450 830q69 0 103 -70q9 -19 9 -41v-4q0 -303 -227 -533q-101 -89 -151 -111q-173 -96 -344 -96h-31q-44 0 -81 45q-22 33 -22 67q0 71 74 106q13 6 103 10q67 11 108 26q100 37 181 109q78 82 95 121q26 43 48 111q22 76 22 167q12 46 42 68q31 25 71 25zM184 1459h9
q70 0 104 -78q5 -22 5 -47v-602q0 -87 -64 -116q-19 -12 -51 -12q-61 0 -97 59q-13 24 -13 50v638q0 68 76 103q19 5 31 5zM307 636h1q2 -38 40 -134q36 -79 109 -154q79 -74 149 -102q55 -27 131 -39v-4q-61 -44 -61 -116q0 -60 47 -106l-1 -1q-83 13 -135 31
q-102 35 -192 95q-49 32 -125 111q-111 125 -155 263q-32 108 -32 140h1q46 -45 98 -45h12q65 0 113 61zM1445 1459h6q71 0 104 -75q7 -19 7 -37v-540h-2q-48 52 -105 52h-12q-57 0 -106 -52h-1v534q0 84 81 114q17 4 28 4zM612 1790h6q48 0 90 -38q41 -42 41 -94v-6
q0 -62 -55 -106q-37 -26 -77 -26h-7q-25 0 -52 12v1q63 50 63 122t-63 122q12 8 35 12q11 1 19 1zM1024 1790h6q48 0 90 -38q41 -42 41 -94v-6q0 -62 -55 -106q-37 -26 -77 -26h-7q-25 0 -52 12v1q63 50 63 122t-63 122q12 8 35 12q11 1 19 1zM955 1770q41 -26 58 -76
q6 -20 6 -35v-8q0 -55 -48 -99q-9 -8 -16 -12q-40 23 -59 77q-5 18 -5 36v4q0 67 62 112q1 0 2 1zM543 1770q41 -26 58 -76q6 -20 6 -35v-8q0 -55 -48 -99q-9 -8 -16 -12q-40 23 -59 77q-5 18 -5 36v4q0 67 62 112q1 0 2 1z" />
    <glyph glyph-name="yacute" unicode="&#xfd;" horiz-adv-x="1180" 
d="M977 1459h10q65 0 104 -67q12 -24 12 -49v-11q0 -45 -48 -101q-209 -303 -375 -535q-39 -40 -91 -40q-72 0 -110 71q-11 25 -11 51v2q0 44 36 88q377 539 387 552q39 39 86 39zM468 681h1q53 -57 115 -57h12q63 0 115 57h1v-588q0 -71 -75 -109q-22 -9 -41 -9h-12
q-67 0 -105 71q-11 22 -11 49v586zM196 1459h7q67 0 112 -75l255 -364v-1q-123 -173 -124 -183q-10 -31 -10 -47h-1q-8 7 -337 480q-21 29 -21 65v6q0 76 81 113q20 6 38 6zM871 1989h9q62 0 95 -67q7 -19 7 -31v-15q0 -37 -40 -85q-65 -96 -84 -118q-36 -27 -71 -27
q-61 0 -96 59q-11 22 -11 45v8q0 40 43 91q60 90 81 113q33 27 67 27zM650 1745h2q0 -60 62 -107q36 -20 73 -20q20 0 37 6l1 -1q-38 -58 -61 -80q-31 -23 -62 -23h-11q-57 0 -92 61q-9 21 -9 41v8q0 40 47 95q2 7 13 20z" />
    <glyph glyph-name="thorn" unicode="&#xfe;" horiz-adv-x="1020" 
d="M236 1449q65 -36 65 -98v-207h200q29 0 49 -7q73 -36 73 -103q0 -19 -5 -37q-33 -79 -108 -79h-209v-337h-1q-49 52 -105 52h-11q-59 0 -106 -52h-1v776q0 9 5 27q34 75 105 75h6q21 0 43 -10zM652 384v12q0 70 -71 118l1 1q33 14 54 31q83 68 83 164q0 73 -51 135
q-49 51 -87 60v1q71 49 71 120v11q0 47 -39 94v1q23 -6 42 -12q78 -27 158 -99q130 -137 130 -299v-23q0 -127 -86 -249q-33 -41 -46 -50q-73 -77 -196 -110h-2q39 47 39 94zM225 599q76 -36 76 -104v-412q0 -29 -18 -59q-39 -49 -85 -49h-15q-24 0 -49 14q-57 38 -57 88
v424q0 14 6 29q32 74 106 74q15 0 36 -5zM335 516h175q75 0 108 -79q5 -18 5 -37q0 -67 -73 -103q-20 -7 -49 -7h-166q-3 0 -3 2v221q1 3 3 3z" />
    <glyph glyph-name="ydieresis" unicode="&#xff;" horiz-adv-x="1180" 
d="M196 1459h7q67 0 112 -75l255 -364v-1q-123 -173 -124 -183q-10 -31 -10 -47h-1q-8 7 -337 480q-21 29 -21 65v6q0 76 81 113q20 6 38 6zM977 1459h10q65 0 104 -67q12 -24 12 -49v-11q0 -45 -48 -101q-209 -303 -375 -535q-39 -40 -91 -40q-72 0 -110 71q-11 25 -11 51
v2q0 44 36 88q377 539 387 552q39 39 86 39zM468 681h1q53 -57 115 -57h12q63 0 115 57h1v-588q0 -71 -75 -109q-22 -9 -41 -9h-12q-67 0 -105 71q-11 22 -11 49v586zM382 1790h6q48 0 90 -38q41 -42 41 -94v-6q0 -62 -55 -106q-37 -26 -77 -26h-7q-25 0 -52 12v1
q63 50 63 122t-63 122q12 8 35 12q11 1 19 1zM313 1770q41 -26 58 -76q6 -20 6 -35v-8q0 -55 -48 -99q-9 -8 -16 -12q-40 23 -59 77q-5 18 -5 36v4q0 67 62 112q1 0 2 1zM794 1790h6q48 0 90 -38q41 -42 41 -94v-6q0 -62 -55 -106q-37 -26 -77 -26h-7q-25 0 -52 12v1
q63 50 63 122t-63 122q12 8 35 12q11 1 19 1zM725 1770q41 -26 58 -76q6 -20 6 -35v-8q0 -55 -48 -99q-9 -8 -16 -12q-40 23 -59 77q-5 18 -5 36v4q0 67 62 112q1 0 2 1z" />
    <glyph glyph-name="Abreve" unicode="&#x102;" horiz-adv-x="1555" 
d="M772 1459h10q71 0 110 -78l548 -1176q38 -72 38 -105v-4q0 -73 -74 -111q-23 -10 -47 -10h-4q-86 0 -123 102q-9 15 -437 936q-136 287 -136 297q-2 12 -2 24v5q0 75 78 113q21 7 39 7zM624 1300h2q7 -25 86 -190q4 -10 47 -100q0 -2 -442 -951q-12 -30 -41 -57
q-36 -27 -73 -27h-6q-75 0 -113 78q-7 22 -7 40v9q0 31 35 100zM966 561q3 0 65 -137q7 -12 50 -106l-3 -1h-602q-3 0 -3 2q104 224 114 242h379zM676 1698q0 -42 29 -71t71 -29t71 29t29 71q0 8 5 15q10 20 35 20q23 0 34 -20q5 -7 5 -15q0 -75 -51.5 -126.5t-127.5 -51.5
q-74 0 -125 51.5t-51 126.5q0 8 4 15q11 20 34 20q24 0 34 -20q4 -7 4 -15z" />
    <glyph glyph-name="abreve" unicode="&#x103;" horiz-adv-x="1555" 
d="M772 1459h10q71 0 110 -78l548 -1176q38 -72 38 -105v-4q0 -73 -74 -111q-23 -10 -47 -10h-4q-86 0 -123 102q-9 15 -437 936q-136 287 -136 297q-2 12 -2 24v5q0 75 78 113q21 7 39 7zM624 1300h2q7 -25 86 -190q4 -10 47 -100q0 -2 -442 -951q-12 -30 -41 -57
q-36 -27 -73 -27h-6q-75 0 -113 78q-7 22 -7 40v9q0 31 35 100zM966 561q3 0 65 -137q7 -12 50 -106l-3 -1h-602q-3 0 -3 2q104 224 114 242h379zM676 1698q0 -42 29 -71t71 -29t71 29t29 71q0 8 5 15q10 20 35 20q23 0 34 -20q5 -7 5 -15q0 -75 -51.5 -126.5t-127.5 -51.5
q-74 0 -125 51.5t-51 126.5q0 8 4 15q11 20 34 20q24 0 34 -20q4 -7 4 -15z" />
    <glyph glyph-name="Aogonek" unicode="&#x104;" horiz-adv-x="1555" 
d="M772 1459h10q71 0 110 -78l548 -1176q38 -72 38 -105v-4q0 -73 -74 -111q-23 -10 -47 -10h-4q-86 0 -123 102q-9 15 -437 936q-136 287 -136 297q-2 12 -2 24v5q0 75 78 113q21 7 39 7zM624 1300h2q7 -25 86 -190q4 -10 47 -100q0 -2 -442 -951q-12 -30 -41 -57
q-36 -27 -73 -27h-6q-75 0 -113 78q-7 22 -7 40v9q0 31 35 100zM966 561q3 0 65 -137q7 -12 50 -106l-3 -1h-602q-3 0 -3 2q104 224 114 242h379zM1509 -385q-68 -32 -136 -7.5t-99 91.5q-32 69 -7.5 137.5t92.5 100.5q8 3 16 2q23 -2 33 -23q10 -23 -4 -41q-4 -7 -11 -10
q-38 -18 -52 -56.5t3 -76.5q18 -38 56.5 -52t76.5 4q8 3 16 2q22 0 32 -22q10 -21 -4 -39q-4 -7 -12 -10z" />
    <glyph glyph-name="aogonek" unicode="&#x105;" horiz-adv-x="1555" 
d="M772 1459h10q71 0 110 -78l548 -1176q38 -72 38 -105v-4q0 -73 -74 -111q-23 -10 -47 -10h-4q-86 0 -123 102q-9 15 -437 936q-136 287 -136 297q-2 12 -2 24v5q0 75 78 113q21 7 39 7zM624 1300h2q7 -25 86 -190q4 -10 47 -100q0 -2 -442 -951q-12 -30 -41 -57
q-36 -27 -73 -27h-6q-75 0 -113 78q-7 22 -7 40v9q0 31 35 100zM966 561q3 0 65 -137q7 -12 50 -106l-3 -1h-602q-3 0 -3 2q104 224 114 242h379zM1509 -385q-68 -32 -136 -7.5t-99 91.5q-32 69 -7.5 137.5t92.5 100.5q8 3 16 2q23 -2 33 -23q10 -23 -4 -41q-4 -7 -11 -10
q-38 -18 -52 -56.5t3 -76.5q18 -38 56.5 -52t76.5 4q8 3 16 2q22 0 32 -22q10 -21 -4 -39q-4 -7 -12 -10z" />
    <glyph glyph-name="Cacute" unicode="&#x106;" horiz-adv-x="1454" 
d="M810 1459h17q268 0 489 -190q61 -50 61 -108q0 -62 -59 -98q-24 -13 -50 -13h-6q-53 0 -99 54q-155 130 -334 130h-21q-180 0 -334 -132q-63 -60 -91 -105q-81 -134 -81 -270v-20q0 -154 98 -293q-1 0 -1 -2q-14 3 -27 3q-83 0 -128 -83q-13 -30 -13 -53v-14h-1
q-153 204 -153 444v17q0 249 167 461q64 74 110 109q209 163 456 163zM367 384h15q45 0 96 -56q153 -128 337 -128h11q200 0 362 155q31 29 75 29h1q77 0 109 -83q3 -17 3 -25v-9q0 -54 -60 -101q-216 -191 -498 -191q-262 0 -471 169q-77 63 -83 98q-3 17 -3 32q0 58 54 94
q26 16 52 16zM1008 1989h9q62 0 95 -67q7 -19 7 -31v-15q0 -37 -40 -85q-65 -96 -84 -118q-36 -27 -71 -27q-61 0 -96 59q-11 22 -11 45v8q0 40 43 91q60 90 81 113q33 27 67 27zM787 1745h2q0 -60 62 -107q36 -20 73 -20q20 0 37 6l1 -1q-38 -58 -61 -80q-31 -23 -62 -23
h-11q-57 0 -92 61q-9 21 -9 41v8q0 40 47 95q2 7 13 20z" />
    <glyph glyph-name="cacute" unicode="&#x107;" horiz-adv-x="1454" 
d="M810 1459h17q268 0 489 -190q61 -50 61 -108q0 -62 -59 -98q-24 -13 -50 -13h-6q-53 0 -99 54q-155 130 -334 130h-21q-180 0 -334 -132q-63 -60 -91 -105q-81 -134 -81 -270v-20q0 -154 98 -293q-1 0 -1 -2q-14 3 -27 3q-83 0 -128 -83q-13 -30 -13 -53v-14h-1
q-153 204 -153 444v17q0 249 167 461q64 74 110 109q209 163 456 163zM367 384h15q45 0 96 -56q153 -128 337 -128h11q200 0 362 155q31 29 75 29h1q77 0 109 -83q3 -17 3 -25v-9q0 -54 -60 -101q-216 -191 -498 -191q-262 0 -471 169q-77 63 -83 98q-3 17 -3 32q0 58 54 94
q26 16 52 16zM1008 1989h9q62 0 95 -67q7 -19 7 -31v-15q0 -37 -40 -85q-65 -96 -84 -118q-36 -27 -71 -27q-61 0 -96 59q-11 22 -11 45v8q0 40 43 91q60 90 81 113q33 27 67 27zM787 1745h2q0 -60 62 -107q36 -20 73 -20q20 0 37 6l1 -1q-38 -58 -61 -80q-31 -23 -62 -23
h-11q-57 0 -92 61q-9 21 -9 41v8q0 40 47 95q2 7 13 20z" />
    <glyph glyph-name="Ccaron" unicode="&#x10c;" horiz-adv-x="1454" 
d="M810 1459h17q268 0 489 -190q61 -50 61 -108q0 -62 -59 -98q-24 -13 -50 -13h-6q-53 0 -99 54q-155 130 -334 130h-21q-180 0 -334 -132q-63 -60 -91 -105q-81 -134 -81 -270v-20q0 -154 98 -293q-1 0 -1 -2q-14 3 -27 3q-83 0 -128 -83q-13 -30 -13 -53v-14h-1
q-153 204 -153 444v17q0 249 167 461q64 74 110 109q209 163 456 163zM367 384h15q45 0 96 -56q153 -128 337 -128h11q200 0 362 155q31 29 75 29h1q77 0 109 -83q3 -17 3 -25v-9q0 -54 -60 -101q-216 -191 -498 -191q-262 0 -471 169q-77 63 -83 98q-3 17 -3 32q0 58 54 94
q26 16 52 16zM706 1524q-29 16 -29 44v3q0 8 2 14q4 10 115 247q16 43 52 43q11 0 20 -5q30 -16 30 -43v-6q0 -4 -1 -9q0 -4 -115 -247q-16 -45 -51 -45h-3q-11 0 -20 4zM572 1782q-14 27 -14 41v3q0 11 6 22q16 27 43 27q26 0 42 -22q7 -10 71 -148q0 -1 -16 -35
q-39 -80 -39 -85q-3 5 -93 197z" />
    <glyph glyph-name="ccaron" unicode="&#x10d;" horiz-adv-x="1454" 
d="M810 1459h17q268 0 489 -190q61 -50 61 -108q0 -62 -59 -98q-24 -13 -50 -13h-6q-53 0 -99 54q-155 130 -334 130h-21q-180 0 -334 -132q-63 -60 -91 -105q-81 -134 -81 -270v-20q0 -154 98 -293q-1 0 -1 -2q-14 3 -27 3q-83 0 -128 -83q-13 -30 -13 -53v-14h-1
q-153 204 -153 444v17q0 249 167 461q64 74 110 109q209 163 456 163zM367 384h15q45 0 96 -56q153 -128 337 -128h11q200 0 362 155q31 29 75 29h1q77 0 109 -83q3 -17 3 -25v-9q0 -54 -60 -101q-216 -191 -498 -191q-262 0 -471 169q-77 63 -83 98q-3 17 -3 32q0 58 54 94
q26 16 52 16zM706 1524q-29 16 -29 44v3q0 8 2 14q4 10 115 247q16 43 52 43q11 0 20 -5q30 -16 30 -43v-6q0 -4 -1 -9q0 -4 -115 -247q-16 -45 -51 -45h-3q-11 0 -20 4zM572 1782q-14 27 -14 41v3q0 11 6 22q16 27 43 27q26 0 42 -22q7 -10 71 -148q0 -1 -16 -35
q-39 -80 -39 -85q-3 5 -93 197z" />
    <glyph glyph-name="Dcaron" unicode="&#x10e;" horiz-adv-x="1301" 
d="M184 1459h309q251 0 468 -175q88 -81 106 -111q68 -91 99 -166q58 -144 58 -277v-22q0 -220 -135 -418q-31 -47 -106 -120q-220 -195 -502 -195q-62 0 -98 59q-14 24 -14 50v7q0 66 70 101q15 9 88 10q71 9 110 22q177 61 279 213q82 136 82 267v26q0 173 -129 330
q-65 67 -106 91q-135 83 -271 83h-291q-86 0 -117 71q-7 21 -7 38v8q0 68 75 103q20 5 32 5zM77 1257h1q47 -53 109 -53h113q2 0 2 -2v-1002h91v-1q-54 -47 -54 -111q0 -62 52 -112v-1h-194q-83 0 -113 72q-7 17 -7 37v1173zM484 1524q-29 16 -29 44v3q0 8 2 14
q4 10 115 247q16 43 52 43q11 0 20 -5q30 -16 30 -43v-6q0 -4 -1 -9q0 -4 -115 -247q-16 -45 -51 -45h-3q-11 0 -20 4zM350 1782q-14 27 -14 41v3q0 11 6 22q16 27 43 27q26 0 42 -22q7 -10 71 -148q0 -1 -16 -35q-39 -80 -39 -85q-3 5 -93 197z" />
    <glyph glyph-name="dcaron" unicode="&#x10f;" horiz-adv-x="1301" 
d="M184 1459h309q251 0 468 -175q88 -81 106 -111q68 -91 99 -166q58 -144 58 -277v-22q0 -220 -135 -418q-31 -47 -106 -120q-220 -195 -502 -195q-62 0 -98 59q-14 24 -14 50v7q0 66 70 101q15 9 88 10q71 9 110 22q177 61 279 213q82 136 82 267v26q0 173 -129 330
q-65 67 -106 91q-135 83 -271 83h-291q-86 0 -117 71q-7 21 -7 38v8q0 68 75 103q20 5 32 5zM77 1257h1q47 -53 109 -53h113q2 0 2 -2v-1002h91v-1q-54 -47 -54 -111q0 -62 52 -112v-1h-194q-83 0 -113 72q-7 17 -7 37v1173zM484 1524q-29 16 -29 44v3q0 8 2 14
q4 10 115 247q16 43 52 43q11 0 20 -5q30 -16 30 -43v-6q0 -4 -1 -9q0 -4 -115 -247q-16 -45 -51 -45h-3q-11 0 -20 4zM350 1782q-14 27 -14 41v3q0 11 6 22q16 27 43 27q26 0 42 -22q7 -10 71 -148q0 -1 -16 -35q-39 -80 -39 -85q-3 5 -93 197z" />
    <glyph glyph-name="Dcroat" unicode="&#x110;" horiz-adv-x="1548" 
d="M431 1459h309q251 0 468 -175q88 -81 106 -111q68 -91 99 -166q58 -144 58 -277v-22q0 -220 -135 -418q-31 -47 -106 -120q-220 -195 -502 -195q-62 0 -98 59q-14 24 -14 50v7q0 66 70 101q15 9 88 10q71 9 110 22q177 61 279 213q82 136 82 267v26q0 173 -129 330
q-65 67 -106 91q-135 83 -271 83h-291q-86 0 -117 71q-7 21 -7 38v8q0 68 75 103q20 5 32 5zM324 1257h1q47 -53 109 -53h113q2 0 2 -2v-384h134q75 0 108 -79q5 -18 5 -37q0 -67 -73 -103q-20 -7 -49 -7h-125v-392h91v-1q-54 -47 -54 -111q0 -62 52 -112v-1h-194
q-83 0 -113 72q-7 17 -7 37v508h-125q-29 0 -49 7q-73 36 -73 103q0 19 5 37q33 79 108 79h134v439z" />
    <glyph glyph-name="dcroat" unicode="&#x111;" horiz-adv-x="1548" 
d="M431 1459h309q251 0 468 -175q88 -81 106 -111q68 -91 99 -166q58 -144 58 -277v-22q0 -220 -135 -418q-31 -47 -106 -120q-220 -195 -502 -195q-62 0 -98 59q-14 24 -14 50v7q0 66 70 101q15 9 88 10q71 9 110 22q177 61 279 213q82 136 82 267v26q0 173 -129 330
q-65 67 -106 91q-135 83 -271 83h-291q-86 0 -117 71q-7 21 -7 38v8q0 68 75 103q20 5 32 5zM324 1257h1q47 -53 109 -53h113q2 0 2 -2v-384h134q75 0 108 -79q5 -18 5 -37q0 -67 -73 -103q-20 -7 -49 -7h-125v-392h91v-1q-54 -47 -54 -111q0 -62 52 -112v-1h-194
q-83 0 -113 72q-7 17 -7 37v508h-125q-29 0 -49 7q-73 36 -73 103q0 19 5 37q33 79 108 79h134v439z" />
    <glyph glyph-name="Ecaron" unicode="&#x11a;" horiz-adv-x="1232" 
d="M185 1459h9q69 0 104 -78q5 -22 5 -47v-1101q0 -3 -3 -3h-111q-63 0 -111 -53h-1v1174q0 68 76 103q19 5 32 5zM184 199h864q62 0 97 -66q10 -20 10 -45v-1q0 -74 -77 -107q-17 -5 -31 -5h-862q-62 0 -98 65q-10 22 -10 43v9q0 60 63 96q21 11 44 11zM279 1459h767
q66 0 102 -71q7 -22 7 -39v-3q0 -75 -80 -108q-18 -5 -45 -5h-695q-3 0 -3 3v113q0 62 -53 109v1zM335 830h706q82 0 112 -87q2 -16 2 -26q0 -81 -87 -110q-15 -3 -26 -3h-707q-3 0 -3 3v220q0 3 3 3zM595 1524q-29 16 -29 44v3q0 8 2 14q4 10 115 247q16 43 52 43
q11 0 20 -5q30 -16 30 -43v-6q0 -4 -1 -9q0 -4 -115 -247q-16 -45 -51 -45h-3q-11 0 -20 4zM461 1782q-14 27 -14 41v3q0 11 6 22q16 27 43 27q26 0 42 -22q7 -10 71 -148q0 -1 -16 -35q-39 -80 -39 -85q-3 5 -93 197z" />
    <glyph glyph-name="ecaron" unicode="&#x11b;" horiz-adv-x="1232" 
d="M185 1459h9q69 0 104 -78q5 -22 5 -47v-1101q0 -3 -3 -3h-111q-63 0 -111 -53h-1v1174q0 68 76 103q19 5 32 5zM184 199h864q62 0 97 -66q10 -20 10 -45v-1q0 -74 -77 -107q-17 -5 -31 -5h-862q-62 0 -98 65q-10 22 -10 43v9q0 60 63 96q21 11 44 11zM279 1459h767
q66 0 102 -71q7 -22 7 -39v-3q0 -75 -80 -108q-18 -5 -45 -5h-695q-3 0 -3 3v113q0 62 -53 109v1zM335 830h706q82 0 112 -87q2 -16 2 -26q0 -81 -87 -110q-15 -3 -26 -3h-707q-3 0 -3 3v220q0 3 3 3zM595 1524q-29 16 -29 44v3q0 8 2 14q4 10 115 247q16 43 52 43
q11 0 20 -5q30 -16 30 -43v-6q0 -4 -1 -9q0 -4 -115 -247q-16 -45 -51 -45h-3q-11 0 -20 4zM461 1782q-14 27 -14 41v3q0 11 6 22q16 27 43 27q26 0 42 -22q7 -10 71 -148q0 -1 -16 -35q-39 -80 -39 -85q-3 5 -93 197z" />
    <glyph glyph-name="dotlessi" unicode="&#x131;" horiz-adv-x="378" 
d="M185 1459h6q71 0 105 -75q5 -18 5 -27v-776h-1q-47 52 -106 52h-11q-56 0 -105 -52h-1v770q0 62 65 98q22 10 43 10zM189 604q74 0 106 -74q6 -15 6 -29v-424q0 -50 -57 -88q-25 -14 -49 -14h-15q-46 0 -85 49q-18 30 -18 59v412q0 68 76 104q21 5 36 5z" />
    <glyph glyph-name="Lslash" unicode="&#x141;" horiz-adv-x="1567" 
d="M815 1165h12q86 0 134 -92q10 -29 10 -46v-21q0 -69 -88 -142q-142 -142 -246 -248v-416h313q80 0 111 -86q2 -18 2 -25v-2q0 -66 -62 -101q-21 -11 -44 -11h-438q-61 0 -97 65q-10 22 -10 43v309q-94 -93 -96 -93q-42 -29 -88 -29q-98 0 -144 103q-7 25 -7 46v6
q0 73 87 144q150 151 248 249v159q0 68 76 103q21 5 36 5h1q62 0 97 -57q111 110 115 112q40 25 78 25zM1040 200h333q83 0 113 -82q4 -17 4 -32q0 -58 -54 -95q-26 -16 -53 -16h-342v1q52 48 52 106v12q0 57 -53 105v1zM520 1459h9q63 0 98 -66q10 -20 10 -43v-288h-3
q-44 53 -103 53h-12q-57 0 -106 -52h-1v288q0 62 65 98q22 10 43 10z" />
    <glyph glyph-name="lslash" unicode="&#x142;" horiz-adv-x="1567" 
d="M815 1165h12q86 0 134 -92q10 -29 10 -46v-21q0 -69 -88 -142q-142 -142 -246 -248v-416h313q80 0 111 -86q2 -18 2 -25v-2q0 -66 -62 -101q-21 -11 -44 -11h-438q-61 0 -97 65q-10 22 -10 43v309q-94 -93 -96 -93q-42 -29 -88 -29q-98 0 -144 103q-7 25 -7 46v6
q0 73 87 144q150 151 248 249v159q0 68 76 103q21 5 36 5h1q62 0 97 -57q111 110 115 112q40 25 78 25zM1040 200h333q83 0 113 -82q4 -17 4 -32q0 -58 -54 -95q-26 -16 -53 -16h-342v1q52 48 52 106v12q0 57 -53 105v1zM520 1459h9q63 0 98 -66q10 -20 10 -43v-288h-3
q-44 53 -103 53h-12q-57 0 -106 -52h-1v288q0 62 65 98q22 10 43 10z" />
    <glyph glyph-name="Nacute" unicode="&#x143;" horiz-adv-x="1269" 
d="M178 1459q59 0 87 -29q19 -19 117 -162q15 -20 352 -497q13 -30 13 -54q0 -68 -67 -103q-21 -10 -45 -10q-69 0 -110 73q-191 267 -222 313h-1v-183h-1q-49 52 -106 52h-11q-61 0 -105 -52h-2v542q0 74 80 106zM777 708h2l187 -266h1v185h2q45 -52 104 -52h12
q58 0 105 51h2v-548q0 -51 -57 -90q-28 -13 -48 -13h-12q-65 0 -112 82q-4 5 -369 521q1 0 1 2q18 -5 32 -5h13q74 0 120 75q17 35 17 58zM1075 1459h9q67 0 101 -72q7 -17 7 -33v-647q0 -44 -47 -82q-30 -21 -68 -21q-60 0 -96 59q-14 25 -14 50v636q0 72 77 105q17 5 31 5
zM192 830q68 0 104 -75q6 -21 6 -53v-602q0 -97 -86 -123q-12 -2 -22 -2h-10q-68 0 -103 76q-4 19 -4 32v638q0 69 77 104q20 5 38 5zM916 1989h9q62 0 95 -67q7 -19 7 -31v-15q0 -37 -40 -85q-65 -96 -84 -118q-36 -27 -71 -27q-61 0 -96 59q-11 22 -11 45v8q0 40 43 91
q60 90 81 113q33 27 67 27zM695 1745h2q0 -60 62 -107q36 -20 73 -20q20 0 37 6l1 -1q-38 -58 -61 -80q-31 -23 -62 -23h-11q-57 0 -92 61q-9 21 -9 41v8q0 40 47 95q2 7 13 20z" />
    <glyph glyph-name="nacute" unicode="&#x144;" horiz-adv-x="1269" 
d="M178 1459q59 0 87 -29q19 -19 117 -162q15 -20 352 -497q13 -30 13 -54q0 -68 -67 -103q-21 -10 -45 -10q-69 0 -110 73q-191 267 -222 313h-1v-183h-1q-49 52 -106 52h-11q-61 0 -105 -52h-2v542q0 74 80 106zM777 708h2l187 -266h1v185h2q45 -52 104 -52h12
q58 0 105 51h2v-548q0 -51 -57 -90q-28 -13 -48 -13h-12q-65 0 -112 82q-4 5 -369 521q1 0 1 2q18 -5 32 -5h13q74 0 120 75q17 35 17 58zM1075 1459h9q67 0 101 -72q7 -17 7 -33v-647q0 -44 -47 -82q-30 -21 -68 -21q-60 0 -96 59q-14 25 -14 50v636q0 72 77 105q17 5 31 5
zM192 830q68 0 104 -75q6 -21 6 -53v-602q0 -97 -86 -123q-12 -2 -22 -2h-10q-68 0 -103 76q-4 19 -4 32v638q0 69 77 104q20 5 38 5zM916 1989h9q62 0 95 -67q7 -19 7 -31v-15q0 -37 -40 -85q-65 -96 -84 -118q-36 -27 -71 -27q-61 0 -96 59q-11 22 -11 45v8q0 40 43 91
q60 90 81 113q33 27 67 27zM695 1745h2q0 -60 62 -107q36 -20 73 -20q20 0 37 6l1 -1q-38 -58 -61 -80q-31 -23 -62 -23h-11q-57 0 -92 61q-9 21 -9 41v8q0 40 47 95q2 7 13 20z" />
    <glyph glyph-name="Ncaron" unicode="&#x147;" horiz-adv-x="1269" 
d="M178 1459q59 0 87 -29q19 -19 117 -162q15 -20 352 -497q13 -30 13 -54q0 -68 -67 -103q-21 -10 -45 -10q-69 0 -110 73q-191 267 -222 313h-1v-183h-1q-49 52 -106 52h-11q-61 0 -105 -52h-2v542q0 74 80 106zM777 708h2l187 -266h1v185h2q45 -52 104 -52h12
q58 0 105 51h2v-548q0 -51 -57 -90q-28 -13 -48 -13h-12q-65 0 -112 82q-4 5 -369 521q1 0 1 2q18 -5 32 -5h13q74 0 120 75q17 35 17 58zM1075 1459h9q67 0 101 -72q7 -17 7 -33v-647q0 -44 -47 -82q-30 -21 -68 -21q-60 0 -96 59q-14 25 -14 50v636q0 72 77 105q17 5 31 5
zM192 830q68 0 104 -75q6 -21 6 -53v-602q0 -97 -86 -123q-12 -2 -22 -2h-10q-68 0 -103 76q-4 19 -4 32v638q0 69 77 104q20 5 38 5zM613 1524q-29 16 -29 44v3q0 8 2 14q4 10 115 247q16 43 52 43q11 0 20 -5q30 -16 30 -43v-6q0 -4 -1 -9q0 -4 -115 -247q-16 -45 -51 -45
h-3q-11 0 -20 4zM479 1782q-14 27 -14 41v3q0 11 6 22q16 27 43 27q26 0 42 -22q7 -10 71 -148q0 -1 -16 -35q-39 -80 -39 -85q-3 5 -93 197z" />
    <glyph glyph-name="ncaron" unicode="&#x148;" horiz-adv-x="1269" 
d="M178 1459q59 0 87 -29q19 -19 117 -162q15 -20 352 -497q13 -30 13 -54q0 -68 -67 -103q-21 -10 -45 -10q-69 0 -110 73q-191 267 -222 313h-1v-183h-1q-49 52 -106 52h-11q-61 0 -105 -52h-2v542q0 74 80 106zM777 708h2l187 -266h1v185h2q45 -52 104 -52h12
q58 0 105 51h2v-548q0 -51 -57 -90q-28 -13 -48 -13h-12q-65 0 -112 82q-4 5 -369 521q1 0 1 2q18 -5 32 -5h13q74 0 120 75q17 35 17 58zM1075 1459h9q67 0 101 -72q7 -17 7 -33v-647q0 -44 -47 -82q-30 -21 -68 -21q-60 0 -96 59q-14 25 -14 50v636q0 72 77 105q17 5 31 5
zM192 830q68 0 104 -75q6 -21 6 -53v-602q0 -97 -86 -123q-12 -2 -22 -2h-10q-68 0 -103 76q-4 19 -4 32v638q0 69 77 104q20 5 38 5zM613 1524q-29 16 -29 44v3q0 8 2 14q4 10 115 247q16 43 52 43q11 0 20 -5q30 -16 30 -43v-6q0 -4 -1 -9q0 -4 -115 -247q-16 -45 -51 -45
h-3q-11 0 -20 4zM479 1782q-14 27 -14 41v3q0 11 6 22q16 27 43 27q26 0 42 -22q7 -10 71 -148q0 -1 -16 -35q-39 -80 -39 -85q-3 5 -93 197z" />
    <glyph glyph-name="OE" unicode="&#x152;" horiz-adv-x="1974" 
d="M922 199h868q62 0 97 -66q10 -20 10 -45v-1q0 -74 -77 -107q-17 -5 -31 -5h-866q-409 1 -636 224q-73 80 -101 131q-34 52 -66 136q-37 117 -37 154h1q48 -46 106 -46q68 0 117 62h2q24 -133 93 -225q163 -211 520 -212zM1045 233q0 -3 -3 -3h-220q-3 0 -3 3v1001
q-9 1 -18 1q-30 3 -65 34q-30 37 -30 77q0 64 61 101q24 12 48 12h122q68 -1 103 -78q5 -22 5 -47v-1101zM722 1453v-1q-46 -47 -46 -106q0 -68 62 -117v-2q-132 -25 -214 -85q-143 -102 -198 -270q-25 -77 -25 -173q-12 -48 -40 -70q-33 -24 -68 -24h-8q-68 0 -103 76
q-5 19 -5 32v12q0 278 205 505q84 82 154 124q67 38 129 61q56 21 142 37zM1021 1459h767q66 0 102 -71q7 -22 7 -39v-3q0 -75 -80 -108q-18 -5 -45 -5h-695q-3 0 -3 3v113q0 62 -53 109v1zM1077 830h706q82 0 112 -87q2 -16 2 -26q0 -81 -87 -110q-15 -3 -26 -3h-707
q-3 0 -3 3v220q0 3 3 3z" />
    <glyph glyph-name="oe" unicode="&#x153;" horiz-adv-x="1974" 
d="M922 199h868q62 0 97 -66q10 -20 10 -45v-1q0 -74 -77 -107q-17 -5 -31 -5h-866q-409 1 -636 224q-73 80 -101 131q-34 52 -66 136q-37 117 -37 154h1q48 -46 106 -46q68 0 117 62h2q24 -133 93 -225q163 -211 520 -212zM1045 233q0 -3 -3 -3h-220q-3 0 -3 3v1001
q-9 1 -18 1q-30 3 -65 34q-30 37 -30 77q0 64 61 101q24 12 48 12h122q68 -1 103 -78q5 -22 5 -47v-1101zM722 1453v-1q-46 -47 -46 -106q0 -68 62 -117v-2q-132 -25 -214 -85q-143 -102 -198 -270q-25 -77 -25 -173q-12 -48 -40 -70q-33 -24 -68 -24h-8q-68 0 -103 76
q-5 19 -5 32v12q0 278 205 505q84 82 154 124q67 38 129 61q56 21 142 37zM1021 1459h767q66 0 102 -71q7 -22 7 -39v-3q0 -75 -80 -108q-18 -5 -45 -5h-695q-3 0 -3 3v113q0 62 -53 109v1zM1077 830h706q82 0 112 -87q2 -16 2 -26q0 -81 -87 -110q-15 -3 -26 -3h-707
q-3 0 -3 3v220q0 3 3 3z" />
    <glyph glyph-name="Rcaron" unicode="&#x158;" horiz-adv-x="1020" 
d="M182 818q21 -1 31 -1h9q112 0 287 1q64 0 101 -61q12 -24 12 -48v-6q0 -71 -75 -104q-15 -6 -35 -6h-210v-493q0 -86 -71 -118q-21 -7 -38 -7h-7q-69 0 -104 76q-5 19 -5 32v626q0 61 62 97q14 8 43 12zM612 1446h3q28 -4 105 -41q44 -23 105 -82q118 -131 118 -299
q0 -150 -99 -275q-62 -68 -95 -84q-54 -40 -137 -60v1q41 44 41 101q0 73 -71 122l32 17q63 36 90 107q14 35 14 72v1q0 111 -102 178q-29 16 -34 16v4q71 45 71 123q0 52 -41 99zM356 562h31q35 0 82 -56q349 -347 353 -356q18 -29 18 -59v-8q0 -62 -65 -98
q-21 -10 -45 -10h-6q-54 0 -109 66q-273 270 -273 276q-10 18 -10 34v186q5 25 24 25zM442 1459h62q83 0 114 -81q4 -17 4 -28v-6q0 -72 -77 -106q-18 -4 -34 -4h-327q-61 0 -97 64q-10 22 -10 43v9q0 65 70 100q14 5 28 8q173 1 267 1zM77 1256h1q47 -53 114 -53h108
q2 0 2 -3v-350q0 -2 -2 -2h-113q-62 0 -109 -53h-1v461zM421 1524q-29 16 -29 44v3q0 8 2 14q4 10 115 247q16 43 52 43q11 0 20 -5q30 -16 30 -43v-6q0 -4 -1 -9q0 -4 -115 -247q-16 -45 -51 -45h-3q-11 0 -20 4zM287 1782q-14 27 -14 41v3q0 11 6 22q16 27 43 27
q26 0 42 -22q7 -10 71 -148q0 -1 -16 -35q-39 -80 -39 -85q-3 5 -93 197z" />
    <glyph glyph-name="rcaron" unicode="&#x159;" horiz-adv-x="1020" 
d="M182 818q21 -1 31 -1h9q112 0 287 1q64 0 101 -61q12 -24 12 -48v-6q0 -71 -75 -104q-15 -6 -35 -6h-210v-493q0 -86 -71 -118q-21 -7 -38 -7h-7q-69 0 -104 76q-5 19 -5 32v626q0 61 62 97q14 8 43 12zM612 1446h3q28 -4 105 -41q44 -23 105 -82q118 -131 118 -299
q0 -150 -99 -275q-62 -68 -95 -84q-54 -40 -137 -60v1q41 44 41 101q0 73 -71 122l32 17q63 36 90 107q14 35 14 72v1q0 111 -102 178q-29 16 -34 16v4q71 45 71 123q0 52 -41 99zM356 562h31q35 0 82 -56q349 -347 353 -356q18 -29 18 -59v-8q0 -62 -65 -98
q-21 -10 -45 -10h-6q-54 0 -109 66q-273 270 -273 276q-10 18 -10 34v186q5 25 24 25zM442 1459h62q83 0 114 -81q4 -17 4 -28v-6q0 -72 -77 -106q-18 -4 -34 -4h-327q-61 0 -97 64q-10 22 -10 43v9q0 65 70 100q14 5 28 8q173 1 267 1zM77 1256h1q47 -53 114 -53h108
q2 0 2 -3v-350q0 -2 -2 -2h-113q-62 0 -109 -53h-1v461zM421 1524q-29 16 -29 44v3q0 8 2 14q4 10 115 247q16 43 52 43q11 0 20 -5q30 -16 30 -43v-6q0 -4 -1 -9q0 -4 -115 -247q-16 -45 -51 -45h-3q-11 0 -20 4zM287 1782q-14 27 -14 41v3q0 11 6 22q16 27 43 27
q26 0 42 -22q7 -10 71 -148q0 -1 -16 -35q-39 -80 -39 -85q-3 5 -93 197z" />
    <glyph glyph-name="Sacute" unicode="&#x15a;" horiz-adv-x="1007" 
d="M496 1459h326q64 0 99 -67q9 -19 9 -34v-21q0 -48 -53 -85q-25 -18 -72 -18h-307q-86 0 -152 -74q-24 -31 -33 -57h-2q-19 40 -78 64q-27 8 -45 8q-53 0 -98 -41q0 2 -1 2q11 44 33 89q21 46 81 112q133 122 293 122zM693 331h1q49 -70 121 -70h6q51 0 95 39h1v-2
q0 -19 -38 -98q-80 -143 -230 -199q-69 -26 -158 -26h-297q-83 0 -114 81q-3 17 -3 28v6q0 70 74 103q19 7 37 7h311q123 0 186 113q8 17 8 18zM500 829h8q162 0 292 -119q72 -75 100 -148q30 -81 30 -142v-28q0 -51 -60 -90q-28 -12 -52 -12q-69 0 -103 69q-6 0 -12 83
q-21 79 -72 119q-57 45 -147 45q-38 8 -66 37q-27 35 -27 70v8q0 64 66 99q21 9 43 9zM185 1144h7q66 0 102 -72q8 -26 8 -69q15 -71 54 -110q50 -45 77 -50v-2q-72 -49 -72 -123q0 -54 39 -99v-1q-28 3 -105 40q-44 26 -94 72q-124 132 -124 296v11q0 61 64 97q23 10 44 10
zM785 1989h9q62 0 95 -67q7 -19 7 -31v-15q0 -37 -40 -85q-65 -96 -84 -118q-36 -27 -71 -27q-61 0 -96 59q-11 22 -11 45v8q0 40 43 91q60 90 81 113q33 27 67 27zM564 1745h2q0 -60 62 -107q36 -20 73 -20q20 0 37 6l1 -1q-38 -58 -61 -80q-31 -23 -62 -23h-11
q-57 0 -92 61q-9 21 -9 41v8q0 40 47 95q2 7 13 20z" />
    <glyph glyph-name="sacute" unicode="&#x15b;" horiz-adv-x="1007" 
d="M496 1459h326q64 0 99 -67q9 -19 9 -34v-21q0 -48 -53 -85q-25 -18 -72 -18h-307q-86 0 -152 -74q-24 -31 -33 -57h-2q-19 40 -78 64q-27 8 -45 8q-53 0 -98 -41q0 2 -1 2q11 44 33 89q21 46 81 112q133 122 293 122zM693 331h1q49 -70 121 -70h6q51 0 95 39h1v-2
q0 -19 -38 -98q-80 -143 -230 -199q-69 -26 -158 -26h-297q-83 0 -114 81q-3 17 -3 28v6q0 70 74 103q19 7 37 7h311q123 0 186 113q8 17 8 18zM500 829h8q162 0 292 -119q72 -75 100 -148q30 -81 30 -142v-28q0 -51 -60 -90q-28 -12 -52 -12q-69 0 -103 69q-6 0 -12 83
q-21 79 -72 119q-57 45 -147 45q-38 8 -66 37q-27 35 -27 70v8q0 64 66 99q21 9 43 9zM185 1144h7q66 0 102 -72q8 -26 8 -69q15 -71 54 -110q50 -45 77 -50v-2q-72 -49 -72 -123q0 -54 39 -99v-1q-28 3 -105 40q-44 26 -94 72q-124 132 -124 296v11q0 61 64 97q23 10 44 10
zM785 1989h9q62 0 95 -67q7 -19 7 -31v-15q0 -37 -40 -85q-65 -96 -84 -118q-36 -27 -71 -27q-61 0 -96 59q-11 22 -11 45v8q0 40 43 91q60 90 81 113q33 27 67 27zM564 1745h2q0 -60 62 -107q36 -20 73 -20q20 0 37 6l1 -1q-38 -58 -61 -80q-31 -23 -62 -23h-11
q-57 0 -92 61q-9 21 -9 41v8q0 40 47 95q2 7 13 20z" />
    <glyph glyph-name="Scedilla" unicode="&#x15e;" horiz-adv-x="1007" 
d="M496 1459h326q64 0 99 -67q9 -19 9 -34v-21q0 -48 -53 -85q-25 -18 -72 -18h-307q-86 0 -152 -74q-24 -31 -33 -57h-2q-19 40 -78 64q-27 8 -45 8q-53 0 -98 -41q0 2 -1 2q11 44 33 89q21 46 81 112q133 122 293 122zM693 331h1q49 -70 121 -70h6q51 0 95 39h1v-2
q0 -19 -38 -98q-80 -143 -230 -199q-69 -26 -158 -26h-297q-83 0 -114 81q-3 17 -3 28v6q0 70 74 103q19 7 37 7h311q123 0 186 113q8 17 8 18zM500 829h8q162 0 292 -119q72 -75 100 -148q30 -81 30 -142v-28q0 -51 -60 -90q-28 -12 -52 -12q-69 0 -103 69q-6 0 -12 83
q-21 79 -72 119q-57 45 -147 45q-38 8 -66 37q-27 35 -27 70v8q0 64 66 99q21 9 43 9zM185 1144h7q66 0 102 -72q8 -26 8 -69q15 -71 54 -110q50 -45 77 -50v-2q-72 -49 -72 -123q0 -54 39 -99v-1q-28 3 -105 40q-44 26 -94 72q-124 132 -124 296v11q0 61 64 97q23 10 44 10
zM418 -316q38 -18 77 -4t56 52q18 38 4 76.5t-52 56.5q-7 3 -12 10q-14 18 -3 41q10 21 33 23q8 1 15 -2q68 -32 93 -100.5t-7 -137.5q-31 -67 -99.5 -91.5t-136.5 7.5q-7 3 -11 10q-14 18 -4 39q10 22 32 22q8 1 15 -2z" />
    <glyph glyph-name="scedilla" unicode="&#x15f;" horiz-adv-x="1007" 
d="M496 1459h326q64 0 99 -67q9 -19 9 -34v-21q0 -48 -53 -85q-25 -18 -72 -18h-307q-86 0 -152 -74q-24 -31 -33 -57h-2q-19 40 -78 64q-27 8 -45 8q-53 0 -98 -41q0 2 -1 2q11 44 33 89q21 46 81 112q133 122 293 122zM693 331h1q49 -70 121 -70h6q51 0 95 39h1v-2
q0 -19 -38 -98q-80 -143 -230 -199q-69 -26 -158 -26h-297q-83 0 -114 81q-3 17 -3 28v6q0 70 74 103q19 7 37 7h311q123 0 186 113q8 17 8 18zM500 829h8q162 0 292 -119q72 -75 100 -148q30 -81 30 -142v-28q0 -51 -60 -90q-28 -12 -52 -12q-69 0 -103 69q-6 0 -12 83
q-21 79 -72 119q-57 45 -147 45q-38 8 -66 37q-27 35 -27 70v8q0 64 66 99q21 9 43 9zM185 1144h7q66 0 102 -72q8 -26 8 -69q15 -71 54 -110q50 -45 77 -50v-2q-72 -49 -72 -123q0 -54 39 -99v-1q-28 3 -105 40q-44 26 -94 72q-124 132 -124 296v11q0 61 64 97q23 10 44 10
zM418 -316q38 -18 77 -4t56 52q18 38 4 76.5t-52 56.5q-7 3 -12 10q-14 18 -3 41q10 21 33 23q8 1 15 -2q68 -32 93 -100.5t-7 -137.5q-31 -67 -99.5 -91.5t-136.5 7.5q-7 3 -11 10q-14 18 -4 39q10 22 32 22q8 1 15 -2z" />
    <glyph glyph-name="Scaron" unicode="&#x160;" horiz-adv-x="1007" 
d="M496 1459h326q64 0 99 -67q9 -19 9 -34v-21q0 -48 -53 -85q-25 -18 -72 -18h-307q-86 0 -152 -74q-24 -31 -33 -57h-2q-19 40 -78 64q-27 8 -45 8q-53 0 -98 -41q0 2 -1 2q11 44 33 89q21 46 81 112q133 122 293 122zM693 331h1q49 -70 121 -70h6q51 0 95 39h1v-2
q0 -19 -38 -98q-80 -143 -230 -199q-69 -26 -158 -26h-297q-83 0 -114 81q-3 17 -3 28v6q0 70 74 103q19 7 37 7h311q123 0 186 113q8 17 8 18zM500 829h8q162 0 292 -119q72 -75 100 -148q30 -81 30 -142v-28q0 -51 -60 -90q-28 -12 -52 -12q-69 0 -103 69q-6 0 -12 83
q-21 79 -72 119q-57 45 -147 45q-38 8 -66 37q-27 35 -27 70v8q0 64 66 99q21 9 43 9zM185 1144h7q66 0 102 -72q8 -26 8 -69q15 -71 54 -110q50 -45 77 -50v-2q-72 -49 -72 -123q0 -54 39 -99v-1q-28 3 -105 40q-44 26 -94 72q-124 132 -124 296v11q0 61 64 97q23 10 44 10
zM483 1524q-29 16 -29 44v3q0 8 2 14q4 10 115 247q16 43 52 43q11 0 20 -5q30 -16 30 -43v-6q0 -4 -1 -9q0 -4 -115 -247q-16 -45 -51 -45h-3q-11 0 -20 4zM349 1782q-14 27 -14 41v3q0 11 6 22q16 27 43 27q26 0 42 -22q7 -10 71 -148q0 -1 -16 -35q-39 -80 -39 -85
q-3 5 -93 197z" />
    <glyph glyph-name="scaron" unicode="&#x161;" horiz-adv-x="1007" 
d="M496 1459h326q64 0 99 -67q9 -19 9 -34v-21q0 -48 -53 -85q-25 -18 -72 -18h-307q-86 0 -152 -74q-24 -31 -33 -57h-2q-19 40 -78 64q-27 8 -45 8q-53 0 -98 -41q0 2 -1 2q11 44 33 89q21 46 81 112q133 122 293 122zM693 331h1q49 -70 121 -70h6q51 0 95 39h1v-2
q0 -19 -38 -98q-80 -143 -230 -199q-69 -26 -158 -26h-297q-83 0 -114 81q-3 17 -3 28v6q0 70 74 103q19 7 37 7h311q123 0 186 113q8 17 8 18zM500 829h8q162 0 292 -119q72 -75 100 -148q30 -81 30 -142v-28q0 -51 -60 -90q-28 -12 -52 -12q-69 0 -103 69q-6 0 -12 83
q-21 79 -72 119q-57 45 -147 45q-38 8 -66 37q-27 35 -27 70v8q0 64 66 99q21 9 43 9zM185 1144h7q66 0 102 -72q8 -26 8 -69q15 -71 54 -110q50 -45 77 -50v-2q-72 -49 -72 -123q0 -54 39 -99v-1q-28 3 -105 40q-44 26 -94 72q-124 132 -124 296v11q0 61 64 97q23 10 44 10
zM483 1524q-29 16 -29 44v3q0 8 2 14q4 10 115 247q16 43 52 43q11 0 20 -5q30 -16 30 -43v-6q0 -4 -1 -9q0 -4 -115 -247q-16 -45 -51 -45h-3q-11 0 -20 4zM349 1782q-14 27 -14 41v3q0 11 6 22q16 27 43 27q26 0 42 -22q7 -10 71 -148q0 -1 -16 -35q-39 -80 -39 -85
q-3 5 -93 197z" />
    <glyph glyph-name="uni0162" unicode="&#x162;" 
d="M185 1459h636q62 0 97 -59q14 -24 14 -54v-539h-1q-49 52 -106 52h-12q-57 0 -106 -52h-1v426h-504q-97 0 -123 87q-2 13 -2 22v9q0 68 76 103q19 5 32 5zM820 830q69 0 103 -70q9 -19 9 -43v-629q0 -76 -77 -108q-17 -5 -31 -5h-10q-65 0 -100 71q-8 20 -8 46v624
q0 72 73 106q21 8 41 8zM910 1459h543q62 0 98 -65q10 -22 10 -43v-10q0 -43 -37 -78q-30 -30 -88 -30h-472q-3 0 -3 3v118q0 56 -51 104v1zM735 -317q38 -18 77 -4t56 52q18 38 4 76.5t-52 56.5q-7 3 -12 10q-14 18 -3 41q10 21 33 23q8 1 15 -2q68 -32 93 -100.5
t-7 -137.5q-31 -67 -99.5 -91.5t-136.5 7.5q-7 3 -11 10q-14 18 -4 39q10 22 32 22q8 1 15 -2z" />
    <glyph glyph-name="uni0163" unicode="&#x163;" 
d="M185 1459h636q62 0 97 -59q14 -24 14 -54v-539h-1q-49 52 -106 52h-12q-57 0 -106 -52h-1v426h-504q-97 0 -123 87q-2 13 -2 22v9q0 68 76 103q19 5 32 5zM820 830q69 0 103 -70q9 -19 9 -43v-629q0 -76 -77 -108q-17 -5 -31 -5h-10q-65 0 -100 71q-8 20 -8 46v624
q0 72 73 106q21 8 41 8zM910 1459h543q62 0 98 -65q10 -22 10 -43v-10q0 -43 -37 -78q-30 -30 -88 -30h-472q-3 0 -3 3v118q0 56 -51 104v1zM735 -317q38 -18 77 -4t56 52q18 38 4 76.5t-52 56.5q-7 3 -12 10q-14 18 -3 41q10 21 33 23q8 1 15 -2q68 -32 93 -100.5
t-7 -137.5q-31 -67 -99.5 -91.5t-136.5 7.5q-7 3 -11 10q-14 18 -4 39q10 22 32 22q8 1 15 -2z" />
    <glyph glyph-name="Tcaron" unicode="&#x164;" 
d="M185 1459h636q62 0 97 -59q14 -24 14 -54v-539h-1q-49 52 -106 52h-12q-57 0 -106 -52h-1v426h-504q-97 0 -123 87q-2 13 -2 22v9q0 68 76 103q19 5 32 5zM820 830q69 0 103 -70q9 -19 9 -43v-629q0 -76 -77 -108q-17 -5 -31 -5h-10q-65 0 -100 71q-8 20 -8 46v624
q0 72 73 106q21 8 41 8zM910 1459h543q62 0 98 -65q10 -22 10 -43v-10q0 -43 -37 -78q-30 -30 -88 -30h-472q-3 0 -3 3v118q0 56 -51 104v1zM798 1524q-29 16 -29 44v3q0 8 2 14q4 10 115 247q16 43 52 43q11 0 20 -5q30 -16 30 -43v-6q0 -4 -1 -9q0 -4 -115 -247
q-16 -45 -51 -45h-3q-11 0 -20 4zM664 1782q-14 27 -14 41v3q0 11 6 22q16 27 43 27q26 0 42 -22q7 -10 71 -148q0 -1 -16 -35q-39 -80 -39 -85q-3 5 -93 197z" />
    <glyph glyph-name="tcaron" unicode="&#x165;" 
d="M185 1459h636q62 0 97 -59q14 -24 14 -54v-539h-1q-49 52 -106 52h-12q-57 0 -106 -52h-1v426h-504q-97 0 -123 87q-2 13 -2 22v9q0 68 76 103q19 5 32 5zM820 830q69 0 103 -70q9 -19 9 -43v-629q0 -76 -77 -108q-17 -5 -31 -5h-10q-65 0 -100 71q-8 20 -8 46v624
q0 72 73 106q21 8 41 8zM910 1459h543q62 0 98 -65q10 -22 10 -43v-10q0 -43 -37 -78q-30 -30 -88 -30h-472q-3 0 -3 3v118q0 56 -51 104v1zM798 1524q-29 16 -29 44v3q0 8 2 14q4 10 115 247q16 43 52 43q11 0 20 -5q30 -16 30 -43v-6q0 -4 -1 -9q0 -4 -115 -247
q-16 -45 -51 -45h-3q-11 0 -20 4zM664 1782q-14 27 -14 41v3q0 11 6 22q16 27 43 27q26 0 42 -22q7 -10 71 -148q0 -1 -16 -35q-39 -80 -39 -85q-3 5 -93 197z" />
    <glyph glyph-name="Uring" unicode="&#x16e;" horiz-adv-x="1639" 
d="M1450 830q69 0 103 -70q9 -19 9 -41v-4q0 -303 -227 -533q-101 -89 -151 -111q-173 -96 -344 -96h-31q-44 0 -81 45q-22 33 -22 67q0 71 74 106q13 6 103 10q67 11 108 26q100 37 181 109q78 82 95 121q26 43 48 111q22 76 22 167q12 46 42 68q31 25 71 25zM184 1459h9
q70 0 104 -78q5 -22 5 -47v-602q0 -87 -64 -116q-19 -12 -51 -12q-61 0 -97 59q-13 24 -13 50v638q0 68 76 103q19 5 31 5zM307 636h1q2 -38 40 -134q36 -79 109 -154q79 -74 149 -102q55 -27 131 -39v-4q-61 -44 -61 -116q0 -60 47 -106l-1 -1q-83 13 -135 31
q-102 35 -192 95q-49 32 -125 111q-111 125 -155 263q-32 108 -32 140h1q46 -45 98 -45h12q65 0 113 61zM1445 1459h6q71 0 104 -75q7 -19 7 -37v-540h-2q-48 52 -105 52h-12q-57 0 -106 -52h-1v534q0 84 81 114q17 4 28 4zM642 1698q0 75 51 126t125 51q76 0 127.5 -51.5
t51.5 -125.5q0 -75 -51.5 -126.5t-127.5 -51.5q-74 0 -125 51.5t-51 126.5zM718 1698q0 -42 29 -71t71 -29t71 29t29 71q0 40 -29.5 69.5t-70.5 29.5t-70.5 -29.5t-29.5 -69.5z" />
    <glyph glyph-name="uring" unicode="&#x16f;" horiz-adv-x="1639" 
d="M1450 830q69 0 103 -70q9 -19 9 -41v-4q0 -303 -227 -533q-101 -89 -151 -111q-173 -96 -344 -96h-31q-44 0 -81 45q-22 33 -22 67q0 71 74 106q13 6 103 10q67 11 108 26q100 37 181 109q78 82 95 121q26 43 48 111q22 76 22 167q12 46 42 68q31 25 71 25zM184 1459h9
q70 0 104 -78q5 -22 5 -47v-602q0 -87 -64 -116q-19 -12 -51 -12q-61 0 -97 59q-13 24 -13 50v638q0 68 76 103q19 5 31 5zM307 636h1q2 -38 40 -134q36 -79 109 -154q79 -74 149 -102q55 -27 131 -39v-4q-61 -44 -61 -116q0 -60 47 -106l-1 -1q-83 13 -135 31
q-102 35 -192 95q-49 32 -125 111q-111 125 -155 263q-32 108 -32 140h1q46 -45 98 -45h12q65 0 113 61zM1445 1459h6q71 0 104 -75q7 -19 7 -37v-540h-2q-48 52 -105 52h-12q-57 0 -106 -52h-1v534q0 84 81 114q17 4 28 4zM642 1698q0 75 51 126t125 51q76 0 127.5 -51.5
t51.5 -125.5q0 -75 -51.5 -126.5t-127.5 -51.5q-74 0 -125 51.5t-51 126.5zM718 1698q0 -42 29 -71t71 -29t71 29t29 71q0 40 -29.5 69.5t-70.5 29.5t-70.5 -29.5t-29.5 -69.5z" />
    <glyph glyph-name="Ydieresis" unicode="&#x178;" horiz-adv-x="1180" 
d="M196 1459h7q67 0 112 -75l255 -364v-1q-123 -173 -124 -183q-10 -31 -10 -47h-1q-8 7 -337 480q-21 29 -21 65v6q0 76 81 113q20 6 38 6zM977 1459h10q65 0 104 -67q12 -24 12 -49v-11q0 -45 -48 -101q-209 -303 -375 -535q-39 -40 -91 -40q-72 0 -110 71q-11 25 -11 51
v2q0 44 36 88q377 539 387 552q39 39 86 39zM468 681h1q53 -57 115 -57h12q63 0 115 57h1v-588q0 -71 -75 -109q-22 -9 -41 -9h-12q-67 0 -105 71q-11 22 -11 49v586zM382 1790h6q48 0 90 -38q41 -42 41 -94v-6q0 -62 -55 -106q-37 -26 -77 -26h-7q-25 0 -52 12v1
q63 50 63 122t-63 122q12 8 35 12q11 1 19 1zM313 1770q41 -26 58 -76q6 -20 6 -35v-8q0 -55 -48 -99q-9 -8 -16 -12q-40 23 -59 77q-5 18 -5 36v4q0 67 62 112q1 0 2 1zM794 1790h6q48 0 90 -38q41 -42 41 -94v-6q0 -62 -55 -106q-37 -26 -77 -26h-7q-25 0 -52 12v1
q63 50 63 122t-63 122q12 8 35 12q11 1 19 1zM725 1770q41 -26 58 -76q6 -20 6 -35v-8q0 -55 -48 -99q-9 -8 -16 -12q-40 23 -59 77q-5 18 -5 36v4q0 67 62 112q1 0 2 1z" />
    <glyph glyph-name="Zacute" unicode="&#x179;" horiz-adv-x="1008" 
d="M816 1459h7q67 0 102 -72q6 -17 6 -33v-18q0 -25 -48 -114q-280 -560 -287 -571q-37 -47 -93 -47q-65 0 -102 66q-10 27 -10 47q0 36 37 98q296 597 302 601q37 43 86 43zM190 201h628q65 0 101 -60q12 -24 12 -43v-20q0 -44 -47 -82q-28 -21 -70 -21h-620q-85 0 -113 83
q-4 12 -4 26v8q0 59 59 95q24 14 54 14zM185 1459h544v-1q-35 -31 -62 -97l-65 -128h-392q-72 0 -101 35q-32 34 -32 74v9q0 68 76 103q19 5 32 5zM364 686h1q13 -51 45 -74q40 -37 92 -37h2q30 0 60 12v-1q0 -3 -178 -356h-201q-26 0 -55 -12v1q232 467 234 467zM785 1989
h9q62 0 95 -67q7 -19 7 -31v-15q0 -37 -40 -85q-65 -96 -84 -118q-36 -27 -71 -27q-61 0 -96 59q-11 22 -11 45v8q0 40 43 91q60 90 81 113q33 27 67 27zM564 1745h2q0 -60 62 -107q36 -20 73 -20q20 0 37 6l1 -1q-38 -58 -61 -80q-31 -23 -62 -23h-11q-57 0 -92 61
q-9 21 -9 41v8q0 40 47 95q2 7 13 20z" />
    <glyph glyph-name="zacute" unicode="&#x17a;" horiz-adv-x="1008" 
d="M816 1459h7q67 0 102 -72q6 -17 6 -33v-18q0 -25 -48 -114q-280 -560 -287 -571q-37 -47 -93 -47q-65 0 -102 66q-10 27 -10 47q0 36 37 98q296 597 302 601q37 43 86 43zM190 201h628q65 0 101 -60q12 -24 12 -43v-20q0 -44 -47 -82q-28 -21 -70 -21h-620q-85 0 -113 83
q-4 12 -4 26v8q0 59 59 95q24 14 54 14zM185 1459h544v-1q-35 -31 -62 -97l-65 -128h-392q-72 0 -101 35q-32 34 -32 74v9q0 68 76 103q19 5 32 5zM364 686h1q13 -51 45 -74q40 -37 92 -37h2q30 0 60 12v-1q0 -3 -178 -356h-201q-26 0 -55 -12v1q232 467 234 467zM785 1989
h9q62 0 95 -67q7 -19 7 -31v-15q0 -37 -40 -85q-65 -96 -84 -118q-36 -27 -71 -27q-61 0 -96 59q-11 22 -11 45v8q0 40 43 91q60 90 81 113q33 27 67 27zM564 1745h2q0 -60 62 -107q36 -20 73 -20q20 0 37 6l1 -1q-38 -58 -61 -80q-31 -23 -62 -23h-11q-57 0 -92 61
q-9 21 -9 41v8q0 40 47 95q2 7 13 20z" />
    <glyph glyph-name="Zdotaccent" unicode="&#x17b;" horiz-adv-x="1008" 
d="M185 1459h544v-1q-35 -31 -62 -97l-65 -128h-392q-72 0 -101 35q-32 34 -32 74v9q0 68 76 103q19 5 32 5zM816 1459h7q67 0 102 -72q6 -17 6 -33v-18q0 -25 -48 -114q-280 -560 -287 -571q-37 -47 -93 -47q-65 0 -102 66q-10 27 -10 47q0 36 37 98q296 597 302 601
q37 43 86 43zM364 686h1q13 -51 45 -74q40 -37 92 -37h2q30 0 60 12v-1q0 -3 -178 -356h-201q-26 0 -55 -12v1q232 467 234 467zM190 201h628q65 0 101 -60q12 -24 12 -43v-20q0 -44 -47 -82q-28 -21 -70 -21h-620q-85 0 -113 83q-4 12 -4 26v8q0 59 59 95q24 14 54 14z
M502 1790h6q48 0 90 -38q41 -42 41 -94v-6q0 -62 -55 -106q-37 -26 -77 -26h-7q-25 0 -52 12v1q63 50 63 122t-63 122q12 8 35 12q11 1 19 1zM433 1770q41 -26 58 -76q6 -20 6 -35v-8q0 -55 -48 -99q-9 -8 -16 -12q-40 23 -59 77q-5 18 -5 36v4q0 67 62 112q1 0 2 1z" />
    <glyph glyph-name="zdotaccent" unicode="&#x17c;" horiz-adv-x="1008" 
d="M185 1459h544v-1q-35 -31 -62 -97l-65 -128h-392q-72 0 -101 35q-32 34 -32 74v9q0 68 76 103q19 5 32 5zM816 1459h7q67 0 102 -72q6 -17 6 -33v-18q0 -25 -48 -114q-280 -560 -287 -571q-37 -47 -93 -47q-65 0 -102 66q-10 27 -10 47q0 36 37 98q296 597 302 601
q37 43 86 43zM364 686h1q13 -51 45 -74q40 -37 92 -37h2q30 0 60 12v-1q0 -3 -178 -356h-201q-26 0 -55 -12v1q232 467 234 467zM190 201h628q65 0 101 -60q12 -24 12 -43v-20q0 -44 -47 -82q-28 -21 -70 -21h-620q-85 0 -113 83q-4 12 -4 26v8q0 59 59 95q24 14 54 14z
M502 1790h6q48 0 90 -38q41 -42 41 -94v-6q0 -62 -55 -106q-37 -26 -77 -26h-7q-25 0 -52 12v1q63 50 63 122t-63 122q12 8 35 12q11 1 19 1zM433 1770q41 -26 58 -76q6 -20 6 -35v-8q0 -55 -48 -99q-9 -8 -16 -12q-40 23 -59 77q-5 18 -5 36v4q0 67 62 112q1 0 2 1z" />
    <glyph glyph-name="Zcaron" unicode="&#x17d;" horiz-adv-x="1008" 
d="M816 1459h7q67 0 102 -72q6 -17 6 -33v-18q0 -25 -48 -114q-280 -560 -287 -571q-37 -47 -93 -47q-65 0 -102 66q-10 27 -10 47q0 36 37 98q296 597 302 601q37 43 86 43zM190 201h628q65 0 101 -60q12 -24 12 -43v-20q0 -44 -47 -82q-28 -21 -70 -21h-620q-85 0 -113 83
q-4 12 -4 26v8q0 59 59 95q24 14 54 14zM185 1459h544v-1q-35 -31 -62 -97l-65 -128h-392q-72 0 -101 35q-32 34 -32 74v9q0 68 76 103q19 5 32 5zM364 686h1q13 -51 45 -74q40 -37 92 -37h2q30 0 60 12v-1q0 -3 -178 -356h-201q-26 0 -55 -12v1q232 467 234 467zM484 1524
q-29 16 -29 44v3q0 8 2 14q4 10 115 247q16 43 52 43q11 0 20 -5q30 -16 30 -43v-6q0 -4 -1 -9q0 -4 -115 -247q-16 -45 -51 -45h-3q-11 0 -20 4zM350 1782q-14 27 -14 41v3q0 11 6 22q16 27 43 27q26 0 42 -22q7 -10 71 -148q0 -1 -16 -35q-39 -80 -39 -85q-3 5 -93 197z
" />
    <glyph glyph-name="zcaron" unicode="&#x17e;" horiz-adv-x="1008" 
d="M816 1459h7q67 0 102 -72q6 -17 6 -33v-18q0 -25 -48 -114q-280 -560 -287 -571q-37 -47 -93 -47q-65 0 -102 66q-10 27 -10 47q0 36 37 98q296 597 302 601q37 43 86 43zM190 201h628q65 0 101 -60q12 -24 12 -43v-20q0 -44 -47 -82q-28 -21 -70 -21h-620q-85 0 -113 83
q-4 12 -4 26v8q0 59 59 95q24 14 54 14zM185 1459h544v-1q-35 -31 -62 -97l-65 -128h-392q-72 0 -101 35q-32 34 -32 74v9q0 68 76 103q19 5 32 5zM364 686h1q13 -51 45 -74q40 -37 92 -37h2q30 0 60 12v-1q0 -3 -178 -356h-201q-26 0 -55 -12v1q232 467 234 467zM484 1524
q-29 16 -29 44v3q0 8 2 14q4 10 115 247q16 43 52 43q11 0 20 -5q30 -16 30 -43v-6q0 -4 -1 -9q0 -4 -115 -247q-16 -45 -51 -45h-3q-11 0 -20 4zM350 1782q-14 27 -14 41v3q0 11 6 22q16 27 43 27q26 0 42 -22q7 -10 71 -148q0 -1 -16 -35q-39 -80 -39 -85q-3 5 -93 197z
" />
    <glyph glyph-name="uni0218" unicode="&#x218;" horiz-adv-x="1007" 
d="M496 1459h326q64 0 99 -67q9 -19 9 -34v-21q0 -48 -53 -85q-25 -18 -72 -18h-307q-86 0 -152 -74q-24 -31 -33 -57h-2q-19 40 -78 64q-27 8 -45 8q-53 0 -98 -41q0 2 -1 2q11 44 33 89q21 46 81 112q133 122 293 122zM185 1144h7q66 0 102 -72q8 -26 8 -69
q15 -71 54 -110q50 -45 77 -50v-2q-72 -49 -72 -123q0 -54 39 -99v-1q-28 3 -105 40q-44 26 -94 72q-124 132 -124 296v11q0 61 64 97q23 10 44 10zM500 829h8q162 0 292 -119q72 -75 100 -148q30 -81 30 -142v-28q0 -51 -60 -90q-28 -12 -52 -12q-69 0 -103 69q-6 0 -12 83
q-21 79 -72 119q-57 45 -147 45q-38 8 -66 37q-27 35 -27 70v8q0 64 66 99q21 9 43 9zM693 331h1q49 -70 121 -70h6q51 0 95 39h1v-2q0 -19 -38 -98q-80 -143 -230 -199q-69 -26 -158 -26h-297q-83 0 -114 81q-3 17 -3 28v6q0 70 74 103q19 7 37 7h311q123 0 186 113
q8 17 8 18zM365 -399q-29 16 -29 44v3q0 8 2 14q4 10 115 247q16 43 52 43q11 0 20 -5q30 -16 30 -43v-6q0 -4 -1 -9q0 -4 -115 -247q-16 -45 -51 -45h-3q-11 0 -20 4z" />
    <glyph glyph-name="uni0219" unicode="&#x219;" horiz-adv-x="1007" 
d="M496 1459h326q64 0 99 -67q9 -19 9 -34v-21q0 -48 -53 -85q-25 -18 -72 -18h-307q-86 0 -152 -74q-24 -31 -33 -57h-2q-19 40 -78 64q-27 8 -45 8q-53 0 -98 -41q0 2 -1 2q11 44 33 89q21 46 81 112q133 122 293 122zM185 1144h7q66 0 102 -72q8 -26 8 -69
q15 -71 54 -110q50 -45 77 -50v-2q-72 -49 -72 -123q0 -54 39 -99v-1q-28 3 -105 40q-44 26 -94 72q-124 132 -124 296v11q0 61 64 97q23 10 44 10zM500 829h8q162 0 292 -119q72 -75 100 -148q30 -81 30 -142v-28q0 -51 -60 -90q-28 -12 -52 -12q-69 0 -103 69q-6 0 -12 83
q-21 79 -72 119q-57 45 -147 45q-38 8 -66 37q-27 35 -27 70v8q0 64 66 99q21 9 43 9zM693 331h1q49 -70 121 -70h6q51 0 95 39h1v-2q0 -19 -38 -98q-80 -143 -230 -199q-69 -26 -158 -26h-297q-83 0 -114 81q-3 17 -3 28v6q0 70 74 103q19 7 37 7h311q123 0 186 113
q8 17 8 18zM365 -399q-29 16 -29 44v3q0 8 2 14q4 10 115 247q16 43 52 43q11 0 20 -5q30 -16 30 -43v-6q0 -4 -1 -9q0 -4 -115 -247q-16 -45 -51 -45h-3q-11 0 -20 4z" />
    <glyph glyph-name="uni021A" unicode="&#x21a;" 
d="M185 1459h636q62 0 97 -59q14 -24 14 -54v-539h-1q-49 52 -106 52h-12q-57 0 -106 -52h-1v426h-504q-97 0 -123 87q-2 13 -2 22v9q0 68 76 103q19 5 32 5zM910 1459h543q62 0 98 -65q10 -22 10 -43v-10q0 -43 -37 -78q-30 -30 -88 -30h-472q-3 0 -3 3v118q0 56 -51 104v1
zM820 830q69 0 103 -70q9 -19 9 -43v-629q0 -76 -77 -108q-17 -5 -31 -5h-10q-65 0 -100 71q-8 20 -8 46v624q0 72 73 106q21 8 41 8zM676 -399q-29 16 -29 44v3q0 8 2 14q4 10 115 247q16 43 52 43q11 0 20 -5q30 -16 30 -43v-6q0 -4 -1 -9q0 -4 -115 -247q-16 -45 -51 -45
h-3q-11 0 -20 4z" />
    <glyph glyph-name="uni021B" unicode="&#x21b;" 
d="M185 1459h636q62 0 97 -59q14 -24 14 -54v-539h-1q-49 52 -106 52h-12q-57 0 -106 -52h-1v426h-504q-97 0 -123 87q-2 13 -2 22v9q0 68 76 103q19 5 32 5zM910 1459h543q62 0 98 -65q10 -22 10 -43v-10q0 -43 -37 -78q-30 -30 -88 -30h-472q-3 0 -3 3v118q0 56 -51 104v1
zM820 830q69 0 103 -70q9 -19 9 -43v-629q0 -76 -77 -108q-17 -5 -31 -5h-10q-65 0 -100 71q-8 20 -8 46v624q0 72 73 106q21 8 41 8zM676 -399q-29 16 -29 44v3q0 8 2 14q4 10 115 247q16 43 52 43q11 0 20 -5q30 -16 30 -43v-6q0 -4 -1 -9q0 -4 -115 -247q-16 -45 -51 -45
h-3q-11 0 -20 4z" />
    <glyph glyph-name="circumflex" unicode="&#x2c6;" horiz-adv-x="492" 
d="M245 1434h3q35 0 51 -46q115 -243 115 -247q1 -5 1 -9v-6q0 -27 -30 -43q-9 -4 -20 -4q-36 0 -52 42q-111 237 -115 247q-2 6 -2 14v3q0 28 29 44q9 5 20 5zM184 1368q0 -5 39 -85q16 -34 16 -35q-64 -138 -71 -148q-16 -21 -42 -21q-27 0 -43 26q-6 11 -6 22v3
q0 14 14 41q90 192 93 197z" />
    <glyph glyph-name="caron" unicode="&#x2c7;" horiz-adv-x="492" 
d="M225 1083q-29 16 -29 44v3q0 8 2 14q4 10 115 247q16 43 52 43q11 0 20 -5q30 -16 30 -43v-6q0 -4 -1 -9q0 -4 -115 -247q-16 -45 -51 -45h-3q-11 0 -20 4zM91 1341q-14 27 -14 41v3q0 11 6 22q16 27 43 27q26 0 42 -22q7 -10 71 -148q0 -1 -16 -35q-39 -80 -39 -85
q-3 5 -93 197z" />
    <glyph glyph-name="uni02C9" unicode="&#x2c9;" horiz-adv-x="596" 
d="M133 1317h118v-1q-27 -25 -27 -58q0 -35 27 -57v-1h-121q-24 0 -44 26q-9 15 -9 30v4q0 36 39 54q10 3 17 3zM296 1317h167q32 0 50 -34q6 -11 6 -25q0 -33 -31 -52q-12 -6 -22 -6h-171q-29 0 -47 28q-9 15 -9 30q0 33 32 52q12 7 25 7z" />
    <glyph glyph-name="breve" unicode="&#x2d8;" horiz-adv-x="509" 
d="M153 1257q0 -42 29 -71t71 -29t71 29t29 71q0 8 5 15q10 20 35 20q23 0 34 -20q5 -7 5 -15q0 -75 -51.5 -126.5t-127.5 -51.5q-74 0 -125 51.5t-51 126.5q0 8 4 15q11 20 34 20q24 0 34 -20q4 -7 4 -15z" />
    <glyph glyph-name="dotaccent" unicode="&#x2d9;" horiz-adv-x="424" 
d="M210 1393h6q48 0 90 -38q41 -42 41 -94v-6q0 -62 -55 -106q-37 -26 -77 -26h-7q-25 0 -52 12v1q63 50 63 122t-63 122q12 8 35 12q11 1 19 1zM141 1373q41 -26 58 -76q6 -20 6 -35v-8q0 -55 -48 -99q-9 -8 -16 -12q-40 23 -59 77q-5 18 -5 36v4q0 67 62 112q1 0 2 1z" />
    <glyph glyph-name="ring" unicode="&#x2da;" horiz-adv-x="1024" 
d="M411 1257q0 -42 29 -71t71 -29t71 29t29 71q0 40 -29.5 69.5t-70.5 29.5t-70.5 -29.5t-29.5 -69.5zM335 1257q0 75 51 126t125 51q76 0 127.5 -51.5t51.5 -125.5q0 -75 -51.5 -126.5t-127.5 -51.5q-74 0 -125 51.5t-51 126.5z" />
    <glyph glyph-name="tilde" unicode="&#x2dc;" horiz-adv-x="1024" 
d="M808 1382q-20 -103 -68.5 -154t-126.5 -51h-4q-50 0 -113 23q-66 24 -114 24q-39 0 -60.5 -20.5t-33.5 -71.5h-54q19 106 68 158.5t129 52.5q46 -1 113 -24q64 -23 112 -23h4q36 0 58 20t36 66h54z" />
    <glyph glyph-name="uni0401" unicode="&#x401;" horiz-adv-x="1232" 
d="M185 1459h9q69 0 104 -78q5 -22 5 -47v-1101q0 -3 -3 -3h-111q-63 0 -111 -53h-1v1174q0 68 76 103q19 5 32 5zM279 1459h767q66 0 102 -71q7 -22 7 -39v-3q0 -75 -80 -108q-18 -5 -45 -5h-695q-3 0 -3 3v113q0 62 -53 109v1zM335 830h706q82 0 112 -87q2 -16 2 -26
q0 -81 -87 -110q-15 -3 -26 -3h-707q-3 0 -3 3v220q0 3 3 3zM184 199h864q62 0 97 -66q10 -20 10 -45v-1q0 -74 -77 -107q-17 -5 -31 -5h-862q-62 0 -98 65q-10 22 -10 43v9q0 60 63 96q21 11 44 11zM408 1790h6q48 0 90 -38q41 -42 41 -94v-6q0 -62 -55 -106
q-37 -26 -77 -26h-7q-25 0 -52 12v1q63 50 63 122t-63 122q12 8 35 12q11 1 19 1zM339 1770q41 -26 58 -76q6 -20 6 -35v-8q0 -55 -48 -99q-9 -8 -16 -12q-40 23 -59 77q-5 18 -5 36v4q0 67 62 112q1 0 2 1zM820 1790h6q48 0 90 -38q41 -42 41 -94v-6q0 -62 -55 -106
q-37 -26 -77 -26h-7q-25 0 -52 12v1q63 50 63 122t-63 122q12 8 35 12q11 1 19 1zM751 1770q41 -26 58 -76q6 -20 6 -35v-8q0 -55 -48 -99q-9 -8 -16 -12q-40 23 -59 77q-5 18 -5 36v4q0 67 62 112q1 0 2 1z" />
    <glyph glyph-name="uni0404" unicode="&#x404;" horiz-adv-x="1454" 
d="M330 552h-2q25 -71 73 -138q-1 0 -1 -2q-14 3 -27 3q-83 0 -128 -83q-13 -30 -13 -53v-14h-1q-104 139 -138 294l-1 7q-1 1 -1 3q-1 4 -1 8q-1 1 -1 2q-1 3 -1 7q-1 2 -1 6q-9 57 -9 116v17q0 240 153 444h1v-14q0 -23 13 -53q45 -83 128 -83q13 0 27 3q0 -2 1 -2
q-65 -92 -87 -190h728q82 0 112 -87q2 -16 2 -26q0 -81 -87 -110q-15 -3 -26 -3h-729v-3h1v-1q6 -24 15 -48zM368 384h15q45 0 96 -56q153 -128 337 -128h11q200 0 362 155q31 29 75 29h1q77 0 109 -83q3 -17 3 -25v-9q0 -54 -60 -101q-216 -191 -498 -191q-262 0 -471 169
q-77 63 -83 98q-3 17 -3 32q0 58 54 94q26 16 52 16zM316 1066q-54 36 -54 94q0 15 3 32q6 35 83 98q209 169 471 169q282 0 498 -191q60 -47 60 -101v-9q0 -8 -3 -25q-32 -83 -109 -83h-1q-44 0 -75 29q-162 155 -362 155h-11q-184 0 -337 -128q-51 -56 -96 -56h-15
q-26 0 -52 16z" />
    <glyph glyph-name="uni0406" unicode="&#x406;" horiz-adv-x="378" 
d="M185 1459h6q71 0 105 -75q5 -18 5 -27v-776h-1q-47 52 -106 52h-11q-56 0 -105 -52h-1v770q0 62 65 98q22 10 43 10zM189 604q74 0 106 -74q6 -15 6 -29v-424q0 -50 -57 -88q-25 -14 -49 -14h-15q-46 0 -85 49q-18 30 -18 59v412q0 68 76 104q21 5 36 5z" />
    <glyph glyph-name="uni0407" unicode="&#x407;" horiz-adv-x="836" 
d="M414 1459h6q71 0 105 -75q5 -18 5 -27v-776h-1q-47 52 -106 52h-11q-56 0 -105 -52h-1v770q0 62 65 98q22 10 43 10zM418 604q74 0 106 -74q6 -15 6 -29v-424q0 -50 -57 -88q-25 -14 -49 -14h-15q-46 0 -85 49q-18 30 -18 59v412q0 68 76 104q21 5 36 5zM210 1790h6
q48 0 90 -38q41 -42 41 -94v-6q0 -62 -55 -106q-37 -26 -77 -26h-7q-25 0 -52 12v1q63 50 63 122t-63 122q12 8 35 12q11 1 19 1zM141 1770q41 -26 58 -76q6 -20 6 -35v-8q0 -55 -48 -99q-9 -8 -16 -12q-40 23 -59 77q-5 18 -5 36v4q0 67 62 112q1 0 2 1zM622 1790h6
q48 0 90 -38q41 -42 41 -94v-6q0 -62 -55 -106q-37 -26 -77 -26h-7q-25 0 -52 12v1q63 50 63 122t-63 122q12 8 35 12q11 1 19 1zM553 1770q41 -26 58 -76q6 -20 6 -35v-8q0 -55 -48 -99q-9 -8 -16 -12q-40 23 -59 77q-5 18 -5 36v4q0 67 62 112q1 0 2 1z" />
    <glyph glyph-name="uni040E" unicode="&#x40e;" horiz-adv-x="1273" 
d="M205 1459h10q75 0 128 -93q401 -570 411 -587q15 -31 15 -62q0 -49 -40 -99q-404 -579 -422 -601q-42 -42 -95 -42h-8q-72 0 -116 77q-11 29 -11 53v6q0 52 51 111q6 11 345 495q-373 532 -382 547q-14 29 -14 58v10q0 67 68 111q30 16 60 16zM1058 1459h10q60 0 104 -58
q24 -34 24 -75q0 -53 -49 -111q-333 -478 -342 -487h-1v1q0 53 -68 137l-78 114q286 411 310 441q43 38 90 38zM535 1698q0 -42 29 -71t71 -29t71 29t29 71q0 8 5 15q10 20 35 20q23 0 34 -20q5 -7 5 -15q0 -75 -51.5 -126.5t-127.5 -51.5q-74 0 -125 51.5t-51 126.5
q0 8 4 15q11 20 34 20q24 0 34 -20q4 -7 4 -15z" />
    <glyph glyph-name="uni0410" unicode="&#x410;" horiz-adv-x="1555" 
d="M772 1459h10q71 0 110 -78l548 -1176q38 -72 38 -105v-4q0 -73 -74 -111q-23 -10 -47 -10h-4q-86 0 -123 102q-9 15 -437 936q-136 287 -136 297q-2 12 -2 24v5q0 75 78 113q21 7 39 7zM624 1300h2q7 -25 86 -190q4 -10 47 -100q0 -2 -442 -951q-12 -30 -41 -57
q-36 -27 -73 -27h-6q-75 0 -113 78q-7 22 -7 40v9q0 31 35 100zM966 561q3 0 65 -137q7 -12 50 -106l-3 -1h-602q-3 0 -3 2q104 224 114 242h379z" />
    <glyph glyph-name="uni0411" unicode="&#x411;" horiz-adv-x="1228" 
d="M724 829q63 0 99 -65q10 -22 10 -43v-8q0 -65 -69 -101q-21 -9 -52 -9h-409v-370q0 -3 -3 -3h-97q-79 0 -125 -57h-1v1178q0 21 10 43q36 65 97 65h438q23 0 44 -11q62 -35 62 -101v-2q0 -7 -2 -25q-31 -86 -111 -86h-313v-405h422zM183 -25q-52 0 -91 60q-13 28 -13 52
q0 74 78 107q17 5 31 5h518q131 0 196 100q23 45 23 101q0 107 -100 175q-24 13 -34 16v1q73 48 73 125q0 52 -40 97v3q132 -36 215 -129q112 -126 112 -290q0 -293 -282 -394q-97 -30 -178 -30h-356q-2 0 -3 1h-149zM705 1235q53 48 53 105v12q0 58 -52 106v1h342
q27 0 53 -16q54 -37 54 -95q0 -15 -4 -32q-30 -82 -113 -82h-333v1z" />
    <glyph glyph-name="uni0412" unicode="&#x412;" horiz-adv-x="1228" 
d="M186 1459h538q63 0 99 -65q10 -22 10 -43v-8q0 -65 -69 -101q-21 -9 -52 -9h-409v-1000q0 -3 -3 -3h-97q-79 0 -125 -57h-1v1178q0 68 76 103q19 5 33 5zM824 1447q132 -36 215 -129q112 -126 112 -290q0 -293 -282 -394q-97 -30 -178 -30h-356q-3 0 -3 2v221q1 2 3 2
h371q131 0 196 100q23 45 23 101q0 107 -100 175q-24 13 -34 16v1q73 48 73 125q0 52 -40 97v3zM1038 694h2q56 -62 81 -130q30 -75 30 -144v-31q0 -133 -101 -262q-69 -72 -98 -84q-107 -68 -217 -68h-552q-52 0 -91 60q-13 28 -13 52q0 74 78 107q17 5 31 5h517
q152 0 209 136q13 42 13 71q0 98 -85 166q-10 7 -25 14v2q0 1 58 17q67 24 118 55q24 17 45 34z" />
    <glyph glyph-name="uni0413" unicode="&#x413;" horiz-adv-x="1232" 
d="M142 -15q-65 36 -65 98v288h1q49 -52 106 -52h12q59 0 103 53h3v-288q0 -23 -10 -43q-35 -66 -98 -66h-9q-21 0 -43 10zM153 354q-76 35 -76 103v894q0 21 10 43q36 65 97 65h438q23 0 44 -11q62 -35 62 -101v-2q0 -7 -2 -25q-31 -86 -111 -86h-313v-776q0 -26 -14 -50
q-35 -59 -98 -59h-1q-15 0 -36 5zM705 1235q53 48 53 105v12q0 58 -52 106v1h342q27 0 53 -16q54 -37 54 -95q0 -15 -4 -32q-30 -82 -113 -82h-333v1z" />
    <glyph glyph-name="uni0414" unicode="&#x414;" horiz-adv-x="1682" 
d="M1063 -25q-68 0 -104 76q-5 21 -5 36q0 74 74 106q15 6 29 6h179q-99 211 -379 814q-136 287 -136 297q-2 12 -2 24v5q0 75 78 113q21 7 39 7h10q71 0 110 -78l548 -1176l1 -2q22 -2 41 -13q59 -35 59 -97v-384q0 -13 -5 -32q-35 -76 -103 -76h-9q-9 0 -22 2
q-87 26 -87 123v249h-316zM688 1300h2q7 -25 86 -190q4 -10 47 -100q0 -2 -377 -811h531v-1q-52 -47 -52 -106v-11q0 -56 52 -105v-1h-674v-249q0 -97 -87 -123q-13 -2 -22 -2h-9q-68 0 -103 76q-5 19 -5 32v384q0 62 59 97q18 10 40 13z" />
    <glyph glyph-name="uni0415" unicode="&#x415;" horiz-adv-x="1232" 
d="M185 1459h9q69 0 104 -78q5 -22 5 -47v-1101q0 -3 -3 -3h-111q-63 0 -111 -53h-1v1174q0 68 76 103q19 5 32 5zM279 1459h767q66 0 102 -71q7 -22 7 -39v-3q0 -75 -80 -108q-18 -5 -45 -5h-695q-3 0 -3 3v113q0 62 -53 109v1zM335 830h706q82 0 112 -87q2 -16 2 -26
q0 -81 -87 -110q-15 -3 -26 -3h-707q-3 0 -3 3v220q0 3 3 3zM184 199h864q62 0 97 -66q10 -20 10 -45v-1q0 -74 -77 -107q-17 -5 -31 -5h-862q-62 0 -98 65q-10 22 -10 43v9q0 60 63 96q21 11 44 11z" />
    <glyph glyph-name="uni0416" unicode="&#x416;" horiz-adv-x="1657" 
d="M255 1438q3 0 573 -573q571 573 574 573q29 21 61 21h9q62 0 97 -63q11 -21 11 -44v-11q0 -52 -63 -104l-576 -578v-574q0 -18 -6 -36q-35 -74 -104 -74q-24 0 -43 7q-72 35 -72 101v576l-576 578q-63 52 -63 104v11q0 23 11 44q35 63 97 63h9q32 0 61 -21zM646 684
q40 -27 40 -60v-175q0 -15 -11 -33q-7 -10 -372 -373q-55 -68 -112 -68q-23 0 -43 7q-71 36 -71 100v15q0 23 18 55q5 8 496 497q32 37 47 37zM1019 686q15 0 47 -37q491 -489 496 -497q18 -32 18 -55v-15q0 -64 -71 -100q-20 -7 -43 -7q-57 0 -112 68q-365 363 -372 373
q-11 18 -11 33v175q0 33 40 60zM876 1449q65 -36 65 -98v-329h-1l-112 -113l-111 113h-1v333q0 12 8 34q36 70 100 70h9q21 0 43 -10z" />
    <glyph glyph-name="uni0417" unicode="&#x417;" horiz-adv-x="1009" 
d="M500 1459h11q160 0 291 -120q67 -72 83 -112q47 -93 47 -178v-34q0 -140 -108 -269q-136 -143 -321 -143q-61 0 -97 58q-14 25 -14 50v8q0 70 77 104q20 4 75 8q34 7 71 30q93 67 93 171q0 106 -98 173q-36 21 -63 24q-10 4 -67 7q-41 12 -62 39q-26 30 -26 70v5
q0 69 76 104q19 5 32 5zM401 1447l1 -3q-40 -41 -40 -98q0 -75 70 -122h2v-1q-1 -2 -28 -14q-65 -35 -96 -118q-7 -17 -11 -85q-16 -51 -51 -71q-29 -17 -60 -17q-63 0 -99 61q-12 24 -12 48v11q0 165 127 299q69 61 111 78q40 21 86 32zM817 696q77 -89 99 -173
q16 -58 16 -104v-23q0 -57 -64 -96q-25 -9 -48 -9h-2q-71 0 -104 74q-6 15 -9 71q-16 71 -57 112q-35 30 -47 33v3q30 0 124 46q33 17 89 63q0 3 3 3zM190 516q66 0 102 -68q11 -24 11 -75q13 -64 49 -104q66 -69 148 -69h8q98 0 165 91q15 22 21 41h1q51 -72 124 -72
q53 0 100 40v-1q-15 -84 -99 -186q-134 -138 -317 -138h-1q-187 0 -323 149q-102 126 -102 272v11q0 64 68 100q23 9 45 9z" />
    <glyph glyph-name="uni0418" unicode="&#x418;" horiz-adv-x="1269" 
d="M1112 1455q80 -32 80 -106v-542h-2q-44 52 -105 52h-11q-57 0 -106 -52h-1v183h-1q-31 -46 -222 -313q-41 -73 -110 -73q-24 0 -45 10q-67 35 -67 103q0 24 13 54q337 477 352 497q98 143 117 162q28 29 87 29zM225 1454q77 -33 77 -105v-636q0 -25 -14 -50
q-36 -59 -96 -59q-38 0 -68 21q-47 38 -47 82v647q0 16 7 33q34 72 101 72h9q14 0 31 -5zM1115 825q77 -35 77 -104v-638q0 -13 -4 -32q-35 -76 -103 -76h-10q-10 0 -22 2q-86 26 -86 123v602q0 32 6 53q36 75 104 75q18 0 38 -5zM509 650q46 -75 120 -75h13q14 0 32 5
q0 -2 1 -2q-365 -516 -369 -521q-47 -82 -112 -82h-12q-20 0 -48 13q-57 39 -57 90v548h2q47 -51 105 -51h12q59 0 104 52h2v-185h1l187 266h2q0 -23 17 -58z" />
    <glyph glyph-name="uni0419" unicode="&#x419;" horiz-adv-x="1269" 
d="M1112 1455q80 -32 80 -106v-542h-2q-44 52 -105 52h-11q-57 0 -106 -52h-1v183h-1q-31 -46 -222 -313q-41 -73 -110 -73q-24 0 -45 10q-67 35 -67 103q0 24 13 54q337 477 352 497q98 143 117 162q28 29 87 29zM509 650q46 -75 120 -75h13q14 0 32 5q0 -2 1 -2
q-365 -516 -369 -521q-47 -82 -112 -82h-12q-20 0 -48 13q-57 39 -57 90v548h2q47 -51 105 -51h12q59 0 104 52h2v-185h1l187 266h2q0 -23 17 -58zM225 1454q77 -33 77 -105v-636q0 -25 -14 -50q-36 -59 -96 -59q-38 0 -68 21q-47 38 -47 82v647q0 16 7 33q34 72 101 72h9
q14 0 31 -5zM1115 825q77 -35 77 -104v-638q0 -13 -4 -32q-35 -76 -103 -76h-10q-10 0 -22 2q-86 26 -86 123v602q0 32 6 53q36 75 104 75q18 0 38 -5zM533 1698q0 -42 29 -71t71 -29t71 29t29 71q0 8 5 15q10 20 35 20q23 0 34 -20q5 -7 5 -15q0 -75 -51.5 -126.5
t-127.5 -51.5q-74 0 -125 51.5t-51 126.5q0 8 4 15q11 20 34 20q24 0 34 -20q4 -7 4 -15z" />
    <glyph glyph-name="uni041A" unicode="&#x41a;" horiz-adv-x="1018" 
d="M185 1459h9q64 0 100 -70q8 -22 8 -34v-333l-224 -225h-1v554q0 62 65 98q22 10 43 10zM824 1459h9q62 0 97 -63q11 -21 11 -44v-11q0 -52 -63 -104l-576 -578v-576q0 -66 -72 -101q-19 -7 -43 -7q-69 0 -104 74q-6 18 -6 36v624q0 55 58 102q625 627 628 627
q29 21 61 21zM380 686q15 0 47 -37q491 -489 496 -497q18 -32 18 -55v-15q0 -64 -71 -100q-20 -7 -43 -7q-57 0 -112 68q-365 363 -372 373q-11 18 -11 33v175q0 33 40 60z" />
    <glyph glyph-name="uni041B" unicode="&#x41b;" horiz-adv-x="1555" 
d="M772 1459h10q71 0 110 -78l548 -1176q38 -72 38 -105v-4q0 -73 -74 -111q-23 -10 -47 -10h-4q-86 0 -123 102q-9 15 -437 936q-136 287 -136 297q-2 12 -2 24v5q0 75 78 113q21 7 39 7zM624 1300h2q7 -25 86 -190q4 -10 47 -100q0 -2 -442 -951q-12 -30 -41 -57
q-36 -27 -73 -27h-6q-75 0 -113 78q-7 22 -7 40v9q0 31 35 100z" />
    <glyph glyph-name="uni041C" unicode="&#x41c;" horiz-adv-x="1269" 
d="M185 1459h6q56 0 104 -60q148 -146 317 -317q-99 -99 -99 -106q-21 -34 -21 -68v-22h-1q-399 396 -399 401q-15 29 -15 55v9q0 62 65 98q22 10 43 10zM1077 1459h6q70 0 104 -76q5 -18 5 -27v-1278q0 -51 -56 -88q-24 -15 -50 -15h-13q-55 0 -92 57q-14 25 -14 56v1258
q0 74 75 107q15 6 35 6zM936 1362h1v-317q-235 -239 -242 -239q-29 -17 -53 -17h-12q-68 0 -104 76q-4 21 -4 36v1q0 57 60 106q168 170 354 354zM77 1256h1l223 -225v-945q0 -74 -77 -106q-14 -5 -26 -5h-18q-48 0 -86 52q-17 27 -17 56v1173z" />
    <glyph glyph-name="uni041D" unicode="&#x41d;" horiz-adv-x="1232" 
d="M185 1459h9q66 0 101 -71q7 -20 7 -48v-510h742q69 0 102 -69q9 -19 9 -41v-633q0 -68 -67 -102q-20 -10 -48 -10q-59 0 -96 57q-14 25 -14 56v516h-736q-78 0 -110 72q-7 18 -7 37v638q0 69 76 103q19 5 32 5zM1038 1459h9q64 0 99 -69q9 -19 9 -41v-541h-1
q-35 37 -68 45q-20 7 -64 7h-90q-2 0 -2 3v483q0 75 77 108q17 5 31 5zM77 626h1q49 -51 106 -51h116q2 -1 2 -3v-479q0 -83 -80 -113q-14 -5 -34 -5q-71 0 -106 76q-5 20 -5 32v543z" />
    <glyph glyph-name="uni041E" unicode="&#x41e;" 
d="M815 1459h12q282 0 510 -210q224 -228 224 -533q0 -73 -77 -106q-17 -5 -31 -5h-10q-65 0 -101 73q-6 18 -9 97q-10 68 -31 126q-83 205 -281 292q-97 42 -220 42q-30 3 -65 34q-30 37 -30 77q0 64 61 101q24 12 48 12zM722 1453v-1q-46 -47 -46 -106q0 -68 62 -117v-2
q-132 -25 -214 -85q-143 -102 -198 -270q-25 -77 -25 -173q-12 -48 -40 -70q-33 -24 -68 -24h-8q-68 0 -103 76q-5 19 -5 32v12q0 278 205 505q84 82 154 124q67 38 129 61q56 21 142 37zM307 636h2q24 -133 93 -225q164 -212 436 -212q29 -3 65 -35q28 -36 28 -71v-10
q0 -60 -62 -97q-25 -11 -49 -11q-305 0 -533 224q-73 80 -101 131q-34 52 -66 136q-37 117 -37 154h1q48 -46 106 -46q68 0 117 62zM1329 636h2q48 -62 118 -62q58 0 105 47h1q-12 -91 -42 -167q-26 -73 -84 -160q-27 -42 -93 -109q-97 -89 -154 -114q-32 -21 -109 -52
q-71 -26 -158 -38v1q47 46 47 107q0 67 -62 116v2q62 10 118 33q53 23 108 61q48 35 97 94q41 53 60 95q40 91 40 117q2 2 6 29z" />
    <glyph glyph-name="uni041F" unicode="&#x41f;" horiz-adv-x="1232" 
d="M1156 1352v-9q0 -69 -78 -104q-22 -5 -47 -5h-696q-3 0 -3 3v111q0 63 -53 111v1h769q68 0 103 -76q5 -19 5 -32zM1156 1258v-1174q0 -66 -71 -102q-22 -7 -39 -7h-3q-75 0 -108 80q-5 18 -5 45v1102q0 3 3 3h113q62 0 109 53h1zM301 1353v-1271q0 -62 -66 -97
q-20 -10 -45 -10h-1q-74 0 -107 77q-5 17 -5 31v1269q0 62 65 98q22 10 43 10h9q60 0 96 -63q11 -21 11 -44z" />
    <glyph glyph-name="uni0420" unicode="&#x420;" horiz-adv-x="1020" 
d="M77 1255h1q46 -52 118 -52h103q2 -1 2 -3v-1118q0 -61 -65 -97q-21 -10 -42 -10h-9q-68 0 -103 76q-5 19 -5 32v1172zM613 1446h2q123 -33 196 -110q13 -9 46 -50q86 -122 86 -249v-23q0 -162 -130 -299q-80 -72 -158 -99q-19 -6 -42 -12v1q39 47 39 94v11q0 71 -71 120
v1q38 9 87 60q51 62 51 135q0 96 -83 164q-21 17 -54 31l-1 1q71 48 71 118v12q0 47 -39 94zM443 1459h60q76 0 109 -65q11 -22 11 -48q0 -77 -82 -109q-17 -4 -31 -4h-325q-62 0 -98 65q-10 22 -10 43v9q0 63 67 99q15 6 32 9q162 1 267 1zM335 818h175q75 0 108 -79
q5 -18 5 -37q0 -67 -73 -103q-20 -7 -49 -7h-166q-3 0 -3 2v221q1 3 3 3z" />
    <glyph glyph-name="uni0421" unicode="&#x421;" horiz-adv-x="1454" 
d="M810 1459h17q268 0 489 -190q61 -50 61 -108q0 -62 -59 -98q-24 -13 -50 -13h-6q-53 0 -99 54q-155 130 -334 130h-21q-180 0 -334 -132q-63 -60 -91 -105q-81 -134 -81 -270v-20q0 -154 98 -293q-1 0 -1 -2q-14 3 -27 3q-83 0 -128 -83q-13 -30 -13 -53v-14h-1
q-153 204 -153 444v17q0 249 167 461q64 74 110 109q209 163 456 163zM367 384h15q45 0 96 -56q153 -128 337 -128h11q200 0 362 155q31 29 75 29h1q77 0 109 -83q3 -17 3 -25v-9q0 -54 -60 -101q-216 -191 -498 -191q-262 0 -471 169q-77 63 -83 98q-3 17 -3 32q0 58 54 94
q26 16 52 16z" />
    <glyph glyph-name="uni0422" unicode="&#x422;" 
d="M185 1459h636q62 0 97 -59q14 -24 14 -54v-539h-1q-49 52 -106 52h-12q-57 0 -106 -52h-1v426h-504q-97 0 -123 87q-2 13 -2 22v9q0 68 76 103q19 5 32 5zM910 1459h543q62 0 98 -65q10 -22 10 -43v-10q0 -43 -37 -78q-30 -30 -88 -30h-472q-3 0 -3 3v118q0 56 -51 104v1
zM820 830q69 0 103 -70q9 -19 9 -43v-629q0 -76 -77 -108q-17 -5 -31 -5h-10q-65 0 -100 71q-8 20 -8 46v624q0 72 73 106q21 8 41 8z" />
    <glyph glyph-name="uni0423" unicode="&#x423;" horiz-adv-x="1273" 
d="M205 1459h10q75 0 128 -93q401 -570 411 -587q15 -31 15 -62q0 -49 -40 -99q-404 -579 -422 -601q-42 -42 -95 -42h-8q-72 0 -116 77q-11 29 -11 53v6q0 52 51 111q6 11 345 495q-373 532 -382 547q-14 29 -14 58v10q0 67 68 111q30 16 60 16zM1058 1459h10q60 0 104 -58
q24 -34 24 -75q0 -53 -49 -111q-333 -478 -342 -487h-1v1q0 53 -68 137l-78 114q286 411 310 441q43 38 90 38z" />
    <glyph glyph-name="uni0424" unicode="&#x424;" horiz-adv-x="1662" 
d="M878 1449q65 -36 65 -98v-207h200q29 0 49 -7q73 -36 73 -103q0 -19 -5 -37q-33 -79 -108 -79h-209v-337h-1q-49 52 -105 52h-11q-59 0 -106 -52h-1v337h-209q-75 0 -108 79q-5 18 -5 37q0 67 73 103q20 7 49 7h200v213q0 9 5 27q34 75 105 75h6q21 0 43 -10zM407 290h-2
q-123 33 -196 110q-13 9 -46 50q-86 122 -86 249v23q0 162 130 299q80 72 158 99q19 6 42 12v-1q-39 -47 -39 -94v-11q0 -71 71 -120v-1q-38 -9 -87 -60q-51 -62 -51 -135q0 -96 83 -164q21 -17 54 -31l1 -1q-71 -48 -71 -118v-12q0 -47 39 -94zM1294 384v12q0 70 -71 118
l1 1q33 14 54 31q83 68 83 164q0 73 -51 135q-49 51 -87 60v1q71 49 71 120v11q0 47 -39 94v1q23 -6 42 -12q78 -27 158 -99q130 -137 130 -299v-23q0 -127 -86 -249q-33 -41 -46 -50q-73 -77 -196 -110h-2q39 47 39 94zM867 599q76 -36 76 -104v-412q0 -29 -18 -59
q-39 -49 -85 -49h-15q-24 0 -49 14q-57 38 -57 88v424q0 14 6 29q32 74 106 74q15 0 36 -5zM688 513v-221q0 -2 -3 -2h-166q-29 0 -49 7q-73 36 -73 103q0 19 5 37q33 79 108 79h175q2 0 3 -3zM977 516h175q75 0 108 -79q5 -18 5 -37q0 -67 -73 -103q-20 -7 -49 -7h-166
q-3 0 -3 2v221q1 3 3 3z" />
    <glyph glyph-name="uni0425" unicode="&#x425;" horiz-adv-x="1273" 
d="M205 1459h10q75 0 128 -93q401 -570 411 -587q15 -31 15 -62q0 -49 -40 -99q-404 -579 -422 -601q-42 -42 -95 -42h-8q-72 0 -116 77q-11 29 -11 53v6q0 52 51 111q6 11 345 495q-373 532 -382 547q-14 29 -14 58v10q0 67 68 111q30 16 60 16zM1058 1459h10q60 0 104 -58
q24 -34 24 -75q0 -53 -49 -111q-333 -478 -342 -487h-1v1q0 53 -68 137l-78 114q286 411 310 441q43 38 90 38zM804 706h1q7 -7 366 -522q25 -34 25 -77q0 -80 -80 -121q-23 -11 -50 -11h-9q-68 0 -114 71q-282 401 -285 409v1q122 169 133 195q13 35 13 55z" />
    <glyph glyph-name="uni0426" unicode="&#x426;" horiz-adv-x="1458" 
d="M77 79v1269q0 11 3 26q29 87 110 87q10 0 26 -2q87 -30 87 -112v-1259q0 -62 -65 -98q-22 -10 -43 -10h-9q-63 0 -99 67q-6 15 -10 32zM1156 239q0 -3 -2 -3h-221q-3 1 -3 3v1097q0 27 5 45q33 80 108 80h3q17 0 39 -7q71 -36 71 -102v-1113zM281 -22v1q52 46 52 118v105
q1 2 3 2h705q24 0 43 -9q70 -34 70 -103q0 -20 -8 -41q-34 -73 -106 -73h-759zM1376 -323q-35 -76 -103 -76h-9q-9 0 -22 2q-87 26 -87 123v252h-24v1q52 49 52 106v12q0 57 -52 106v1h137q30 0 54 -14q59 -35 59 -97v-384q0 -13 -5 -32z" />
    <glyph glyph-name="uni0427" unicode="&#x427;" horiz-adv-x="1018" 
d="M870 1136q71 -35 71 -101v-952q0 -68 -75 -103q-18 -5 -31 -5h-9q-68 0 -102 78q-5 22 -5 47v554q-95 -54 -196 -54h-28q-118 0 -237 79q-181 140 -181 354v1q0 21 9 41q34 67 98 67h8q27 0 58 -17q32 -20 48 -71q0 -82 34 -136q71 -96 173 -96h8q77 0 141 58
q45 40 63 117q2 45 6 66q33 79 103 79h8q15 0 36 -6zM227 1453q72 -35 72 -101v-232h-1q-47 52 -106 52h-8q-59 0 -106 -52h-1v231q0 23 10 43q34 65 97 65h8q15 0 35 -6zM826 1459h8q63 0 97 -65q10 -20 10 -43v-231h-1q-47 52 -106 52h-8q-59 0 -106 -52h-1v232
q0 66 72 101q20 6 35 6z" />
    <glyph glyph-name="uni0428" unicode="&#x428;" 
d="M1556 51q-35 -76 -103 -76h-1174v1q53 48 53 111v111q0 3 3 3h1101q25 0 47 -5q78 -35 78 -104v-9q0 -13 -5 -32zM1560 177q-47 53 -109 53h-113q-3 0 -3 3v1101q0 27 5 45q33 80 108 80h3q17 0 39 -7q71 -36 71 -102v-1173h-1zM929 230h-220q-3 0 -3 3v1113q0 11 3 26
q29 87 110 87q10 0 26 -2q87 -30 87 -112v-1112q0 -3 -3 -3zM290 38q-36 -63 -96 -63h-9q-21 0 -43 10q-65 36 -65 98v1268q0 14 5 31q33 77 107 77h1q25 0 45 -10q66 -35 66 -97v-1270q0 -23 -11 -44z" />
    <glyph glyph-name="uni0429" unicode="&#x429;" horiz-adv-x="1864" 
d="M290 38q-36 -63 -96 -63h-9q-21 0 -43 10q-65 36 -65 98v1268q0 14 5 31q33 77 107 77h1q25 0 45 -10q66 -35 66 -97v-1270q0 -23 -11 -44zM1556 51q-35 -76 -103 -76h-1174v1q53 48 53 111v111q0 3 3 3h1112q15 0 28 -4q4 0 8 -1q78 -35 78 -104v-9q0 -13 -5 -32z
M929 230h-220q-3 0 -3 3v1113q0 11 3 26q29 87 110 87q10 0 26 -2q87 -30 87 -112v-1112q0 -3 -3 -3zM1336 236v1097q0 27 5 45q33 80 108 80h3q17 0 39 -7q71 -36 71 -102v-1113q0 -3 -2 -3h-221q-3 1 -3 3zM1782 -326q-35 -76 -103 -76h-9q-9 0 -22 2q-87 26 -87 123v252
h-24v1q52 49 52 106v12q0 57 -52 106v1h137q30 0 54 -14q59 -35 59 -97v-384q0 -13 -5 -32z" />
    <glyph glyph-name="uni042A" unicode="&#x42a;" horiz-adv-x="1651" 
d="M185 1459h636q62 0 97 -59q14 -24 14 -54v-539h-1q-49 52 -106 52h-12q-57 0 -106 -52h-1v426h-504q-97 0 -123 87q-2 13 -2 22v9q0 68 76 103q19 5 32 5zM1283 82v12q0 70 -71 118l1 1q33 14 54 31q83 68 83 164q0 73 -51 135q-49 51 -87 60v1q71 49 71 120v11
q0 47 -39 94v1q23 -6 42 -12q78 -27 158 -99q130 -137 130 -299v-23q0 -127 -86 -249q-33 -41 -46 -50q-73 -77 -196 -110h-2q39 47 39 94zM706 716q0 72 73 106q21 8 41 8q69 0 103 -70q9 -19 9 -43v-483q0 -2 -2 -3h-103q-72 0 -118 -52h-1v309h-2v228zM807 -24
q-17 3 -32 9q-67 36 -67 99v9q0 21 10 43q36 65 98 65h325q14 0 31 -4q82 -32 82 -109q0 -26 -11 -48q-33 -65 -109 -65h-60q-105 0 -267 1zM963 619v221q0 2 3 2h166q29 0 49 -7q73 -36 73 -103q0 -19 -5 -37q-33 -79 -108 -79h-175q-2 0 -3 3z" />
    <glyph glyph-name="uni042B" unicode="&#x42b;" horiz-adv-x="1321" 
d="M77 1351q0 13 5 32q35 76 103 76h9q21 0 42 -10q65 -36 65 -97v-1118q0 -2 -2 -3h-103q-72 0 -118 -52h-1v1172zM1128 1459h6q71 0 105 -75q5 -18 5 -27v-776h-1q-47 52 -106 52h-11q-56 0 -105 -52h-1v770q0 62 65 98q22 10 43 10zM652 82v12q0 70 -71 118l1 1
q33 14 54 31q83 68 83 164q0 73 -51 135q-49 51 -87 60v1q71 49 71 120v11q0 47 -39 94v1q23 -6 42 -12q78 -27 158 -99q130 -137 130 -299v-23q0 -127 -86 -249q-33 -41 -46 -50q-73 -77 -196 -110h-2q39 47 39 94zM1132 604q74 0 106 -74q6 -15 6 -29v-424q0 -50 -57 -88
q-25 -14 -49 -14h-15q-46 0 -85 49q-18 30 -18 59v412q0 68 76 104q21 5 36 5zM176 -24q-17 3 -32 9q-67 36 -67 99v9q0 21 10 43q36 65 98 65h325q14 0 31 -4q82 -32 82 -109q0 -26 -11 -48q-33 -65 -109 -65h-60q-105 0 -267 1zM332 619v221q0 2 3 2h166q29 0 49 -7
q73 -36 73 -103q0 -19 -5 -37q-33 -79 -108 -79h-175q-2 0 -3 3z" />
    <glyph glyph-name="uni042C" unicode="&#x42c;" horiz-adv-x="1020" 
d="M77 1351q0 13 5 32q35 76 103 76h9q21 0 42 -10q65 -36 65 -97v-1118q0 -2 -2 -3h-103q-72 0 -118 -52h-1v1172zM652 82v12q0 70 -71 118l1 1q33 14 54 31q83 68 83 164q0 73 -51 135q-49 51 -87 60v1q71 49 71 120v11q0 47 -39 94v1q23 -6 42 -12q78 -27 158 -99
q130 -137 130 -299v-23q0 -127 -86 -249q-33 -41 -46 -50q-73 -77 -196 -110h-2q39 47 39 94zM176 -24q-17 3 -32 9q-67 36 -67 99v9q0 21 10 43q36 65 98 65h325q14 0 31 -4q82 -32 82 -109q0 -26 -11 -48q-33 -65 -109 -65h-60q-105 0 -267 1zM332 619v221q0 2 3 2h166
q29 0 49 -7q73 -36 73 -103q0 -19 -5 -37q-33 -79 -108 -79h-175q-2 0 -3 3z" />
    <glyph glyph-name="uni042D" unicode="&#x42d;" horiz-adv-x="1454" 
d="M1224 265h-1v14q0 23 -13 53q-45 83 -128 83q-13 0 -27 -3q0 2 -1 2q48 67 72 138h-1q9 26 15 52h-728q-11 0 -26 3q-87 29 -87 110q0 10 2 26q30 87 112 87h727q-22 98 -86 190q1 0 1 2q14 -3 27 -3q83 0 128 83q13 30 13 53v14h1q153 -204 153 -444v-17q0 -62 -11 -122
l-4 -24q-2 -6 -3 -12q-34 -150 -135 -285zM1139 368q54 -36 54 -94q0 -15 -3 -32q-6 -35 -83 -98q-209 -169 -471 -169q-282 0 -498 191q-60 47 -60 101v9q0 8 3 25q32 83 109 83h1q44 0 75 -29q162 -155 362 -155h11q184 0 337 128q51 56 96 56h15q26 0 52 -16zM1087 1050
h-15q-45 0 -96 56q-153 128 -337 128h-11q-200 0 -362 -155q-31 -29 -75 -29h-1q-77 0 -109 83q-3 17 -3 25v9q0 54 60 101q216 191 498 191q262 0 471 -169q77 -63 83 -98q3 -17 3 -32q0 -58 -54 -94q-26 -16 -52 -16z" />
    <glyph glyph-name="uni042E" unicode="&#x42e;" horiz-adv-x="2100" 
d="M692 1169l1 -1q0 -65 42 -107q48 -48 127 -39l1 -1q-76 -111 -91 -212q-29 -173 51 -331q37 -72 104 -140q26 -42 22 -77q-7 -41 -31 -65l-6 -6q-48 -48 -127 -19q-17 10 -26 19l-8 8q-165 165 -203 406h-354q-78 0 -110 72q-7 18 -7 37v638q0 69 76 103q19 5 32 5h9
q66 0 101 -71q7 -20 7 -48v-510h245q5 36 13 67q20 74 48 134q25 55 74 127zM753 1239l9 9q199 199 509 212q320 -3 535 -219q52 -51 21 -129q-9 -16 -18 -26l-8 -7q-46 -46 -123 -19q-17 8 -75 62q-55 41 -111 67q-203 86 -405 8q-98 -39 -185 -126q-23 -19 -70 -22
q-47 5 -76 33q-45 45 -28 115q9 25 25 42zM976 298l2 1q111 -77 225 -93q265 -34 458 159q22 18 70 21q46 -6 70 -31l8 -7q42 -42 24 -112q-10 -26 -27 -43q-215 -215 -535 -218q-108 5 -164 21q-61 13 -143 50q-109 56 -135 82l1 1q66 1 107 42q48 49 39 127zM1699 1021
l1 1q78 -10 128 40q41 41 41 107v1q56 -73 89 -148q33 -70 53 -172q11 -49 12 -143q-6 -132 -29 -190q-7 -37 -40 -114q-32 -68 -85 -138v1q0 65 -43 108q-47 48 -126 39l-1 1q37 51 60 107q21 54 33 119q9 59 2 135q-8 67 -24 110q-36 93 -55 111q0 3 -16 25zM77 626h1
q49 -51 106 -51h116q2 -1 2 -3v-479q0 -83 -80 -113q-14 -5 -34 -5q-71 0 -106 76q-5 20 -5 32v543z" />
    <glyph glyph-name="uni042F" unicode="&#x42f;" horiz-adv-x="1020" 
d="M845 1458q14 -3 28 -8q70 -35 70 -100v-9q0 -21 -10 -43q-36 -64 -97 -64h-327q-16 0 -34 4q-77 34 -77 106v6q0 11 4 28q31 81 114 81h62q94 0 267 -1zM367 1347q0 -78 71 -123v-4q-5 0 -34 -16q-102 -67 -102 -178v-1q0 -37 14 -72q27 -71 90 -107l32 -17
q-71 -49 -71 -122q0 -57 41 -101v-1q-83 20 -137 60q-33 16 -95 84q-99 125 -99 275q0 168 118 299q61 59 105 82q77 37 105 41h3q-41 -47 -41 -99zM943 795h-1q-47 53 -109 53h-113q-2 0 -2 2v350q0 3 2 3h108q67 0 114 53h1v-461zM881 806q62 -36 62 -97v-626
q0 -13 -5 -32q-35 -76 -104 -76h-7q-17 0 -38 7q-71 32 -71 118v493h-210q-20 0 -35 6q-75 33 -75 104v6q0 24 12 48q37 61 101 61q175 -1 287 -1h9q10 0 31 1q29 -4 43 -12zM688 537v-186q0 -16 -10 -34q0 -6 -273 -276q-55 -66 -109 -66h-6q-24 0 -45 10q-65 36 -65 98v8
q0 30 18 59q4 9 353 356q47 56 82 56h31q19 0 24 -25z" />
    <glyph glyph-name="uni0430" unicode="&#x430;" horiz-adv-x="1555" 
d="M772 1459h10q71 0 110 -78l548 -1176q38 -72 38 -105v-4q0 -73 -74 -111q-23 -10 -47 -10h-4q-86 0 -123 102q-9 15 -437 936q-136 287 -136 297q-2 12 -2 24v5q0 75 78 113q21 7 39 7zM624 1300h2q7 -25 86 -190q4 -10 47 -100q0 -2 -442 -951q-12 -30 -41 -57
q-36 -27 -73 -27h-6q-75 0 -113 78q-7 22 -7 40v9q0 31 35 100zM966 561q3 0 65 -137q7 -12 50 -106l-3 -1h-602q-3 0 -3 2q104 224 114 242h379z" />
    <glyph glyph-name="uni0431" unicode="&#x431;" horiz-adv-x="1228" 
d="M724 829q63 0 99 -65q10 -22 10 -43v-8q0 -65 -69 -101q-21 -9 -52 -9h-409v-370q0 -3 -3 -3h-97q-79 0 -125 -57h-1v1178q0 21 10 43q36 65 97 65h438q23 0 44 -11q62 -35 62 -101v-2q0 -7 -2 -25q-31 -86 -111 -86h-313v-405h422zM183 -25q-52 0 -91 60q-13 28 -13 52
q0 74 78 107q17 5 31 5h518q131 0 196 100q23 45 23 101q0 107 -100 175q-24 13 -34 16v1q73 48 73 125q0 52 -40 97v3q132 -36 215 -129q112 -126 112 -290q0 -293 -282 -394q-97 -30 -178 -30h-356q-2 0 -3 1h-149zM705 1235q53 48 53 105v12q0 58 -52 106v1h342
q27 0 53 -16q54 -37 54 -95q0 -15 -4 -32q-30 -82 -113 -82h-333v1z" />
    <glyph glyph-name="uni0432" unicode="&#x432;" horiz-adv-x="1228" 
d="M186 1459h538q63 0 99 -65q10 -22 10 -43v-8q0 -65 -69 -101q-21 -9 -52 -9h-409v-1000q0 -3 -3 -3h-97q-79 0 -125 -57h-1v1178q0 68 76 103q19 5 33 5zM824 1447q132 -36 215 -129q112 -126 112 -290q0 -293 -282 -394q-97 -30 -178 -30h-356q-3 0 -3 2v221q1 2 3 2
h371q131 0 196 100q23 45 23 101q0 107 -100 175q-24 13 -34 16v1q73 48 73 125q0 52 -40 97v3zM1038 694h2q56 -62 81 -130q30 -75 30 -144v-31q0 -133 -101 -262q-69 -72 -98 -84q-107 -68 -217 -68h-552q-52 0 -91 60q-13 28 -13 52q0 74 78 107q17 5 31 5h517
q152 0 209 136q13 42 13 71q0 98 -85 166q-10 7 -25 14v2q0 1 58 17q67 24 118 55q24 17 45 34z" />
    <glyph glyph-name="uni0433" unicode="&#x433;" horiz-adv-x="1232" 
d="M142 -15q-65 36 -65 98v288h1q49 -52 106 -52h12q59 0 103 53h3v-288q0 -23 -10 -43q-35 -66 -98 -66h-9q-21 0 -43 10zM153 354q-76 35 -76 103v894q0 21 10 43q36 65 97 65h438q23 0 44 -11q62 -35 62 -101v-2q0 -7 -2 -25q-31 -86 -111 -86h-313v-776q0 -26 -14 -50
q-35 -59 -98 -59h-1q-15 0 -36 5zM705 1235q53 48 53 105v12q0 58 -52 106v1h342q27 0 53 -16q54 -37 54 -95q0 -15 -4 -32q-30 -82 -113 -82h-333v1z" />
    <glyph glyph-name="uni0434" unicode="&#x434;" horiz-adv-x="1682" 
d="M1063 -25q-68 0 -104 76q-5 21 -5 36q0 74 74 106q15 6 29 6h179q-99 211 -379 814q-136 287 -136 297q-2 12 -2 24v5q0 75 78 113q21 7 39 7h10q71 0 110 -78l548 -1176l1 -2q22 -2 41 -13q59 -35 59 -97v-384q0 -13 -5 -32q-35 -76 -103 -76h-9q-9 0 -22 2
q-87 26 -87 123v249h-316zM688 1300h2q7 -25 86 -190q4 -10 47 -100q0 -2 -377 -811h531v-1q-52 -47 -52 -106v-11q0 -56 52 -105v-1h-674v-249q0 -97 -87 -123q-13 -2 -22 -2h-9q-68 0 -103 76q-5 19 -5 32v384q0 62 59 97q18 10 40 13z" />
    <glyph glyph-name="uni0435" unicode="&#x435;" horiz-adv-x="1232" 
d="M185 1459h9q69 0 104 -78q5 -22 5 -47v-1101q0 -3 -3 -3h-111q-63 0 -111 -53h-1v1174q0 68 76 103q19 5 32 5zM279 1459h767q66 0 102 -71q7 -22 7 -39v-3q0 -75 -80 -108q-18 -5 -45 -5h-695q-3 0 -3 3v113q0 62 -53 109v1zM335 830h706q82 0 112 -87q2 -16 2 -26
q0 -81 -87 -110q-15 -3 -26 -3h-707q-3 0 -3 3v220q0 3 3 3zM184 199h864q62 0 97 -66q10 -20 10 -45v-1q0 -74 -77 -107q-17 -5 -31 -5h-862q-62 0 -98 65q-10 22 -10 43v9q0 60 63 96q21 11 44 11z" />
    <glyph glyph-name="uni0436" unicode="&#x436;" horiz-adv-x="1657" 
d="M255 1438q3 0 573 -573q571 573 574 573q29 21 61 21h9q62 0 97 -63q11 -21 11 -44v-11q0 -52 -63 -104l-576 -578v-574q0 -18 -6 -36q-35 -74 -104 -74q-24 0 -43 7q-72 35 -72 101v576l-576 578q-63 52 -63 104v11q0 23 11 44q35 63 97 63h9q32 0 61 -21zM646 684
q40 -27 40 -60v-175q0 -15 -11 -33q-7 -10 -372 -373q-55 -68 -112 -68q-23 0 -43 7q-71 36 -71 100v15q0 23 18 55q5 8 496 497q32 37 47 37zM1019 686q15 0 47 -37q491 -489 496 -497q18 -32 18 -55v-15q0 -64 -71 -100q-20 -7 -43 -7q-57 0 -112 68q-365 363 -372 373
q-11 18 -11 33v175q0 33 40 60zM876 1449q65 -36 65 -98v-329h-1l-112 -113l-111 113h-1v333q0 12 8 34q36 70 100 70h9q21 0 43 -10z" />
    <glyph glyph-name="uni0437" unicode="&#x437;" horiz-adv-x="1009" 
d="M500 1459h11q160 0 291 -120q67 -72 83 -112q47 -93 47 -178v-34q0 -140 -108 -269q-136 -143 -321 -143q-61 0 -97 58q-14 25 -14 50v8q0 70 77 104q20 4 75 8q34 7 71 30q93 67 93 171q0 106 -98 173q-36 21 -63 24q-10 4 -67 7q-41 12 -62 39q-26 30 -26 70v5
q0 69 76 104q19 5 32 5zM401 1447l1 -3q-40 -41 -40 -98q0 -75 70 -122h2v-1q-1 -2 -28 -14q-65 -35 -96 -118q-7 -17 -11 -85q-16 -51 -51 -71q-29 -17 -60 -17q-63 0 -99 61q-12 24 -12 48v11q0 165 127 299q69 61 111 78q40 21 86 32zM817 696q77 -89 99 -173
q16 -58 16 -104v-23q0 -57 -64 -96q-25 -9 -48 -9h-2q-71 0 -104 74q-6 15 -9 71q-16 71 -57 112q-35 30 -47 33v3q30 0 124 46q33 17 89 63q0 3 3 3zM190 516q66 0 102 -68q11 -24 11 -75q13 -64 49 -104q66 -69 148 -69h8q98 0 165 91q15 22 21 41h1q51 -72 124 -72
q53 0 100 40v-1q-15 -84 -99 -186q-134 -138 -317 -138h-1q-187 0 -323 149q-102 126 -102 272v11q0 64 68 100q23 9 45 9z" />
    <glyph glyph-name="uni0438" unicode="&#x438;" horiz-adv-x="1269" 
d="M1112 1455q80 -32 80 -106v-542h-2q-44 52 -105 52h-11q-57 0 -106 -52h-1v183h-1q-31 -46 -222 -313q-41 -73 -110 -73q-24 0 -45 10q-67 35 -67 103q0 24 13 54q337 477 352 497q98 143 117 162q28 29 87 29zM225 1454q77 -33 77 -105v-636q0 -25 -14 -50
q-36 -59 -96 -59q-38 0 -68 21q-47 38 -47 82v647q0 16 7 33q34 72 101 72h9q14 0 31 -5zM1115 825q77 -35 77 -104v-638q0 -13 -4 -32q-35 -76 -103 -76h-10q-10 0 -22 2q-86 26 -86 123v602q0 32 6 53q36 75 104 75q18 0 38 -5zM509 650q46 -75 120 -75h13q14 0 32 5
q0 -2 1 -2q-365 -516 -369 -521q-47 -82 -112 -82h-12q-20 0 -48 13q-57 39 -57 90v548h2q47 -51 105 -51h12q59 0 104 52h2v-185h1l187 266h2q0 -23 17 -58z" />
    <glyph glyph-name="uni0439" unicode="&#x439;" horiz-adv-x="1269" 
d="M1112 1455q80 -32 80 -106v-542h-2q-44 52 -105 52h-11q-57 0 -106 -52h-1v183h-1q-31 -46 -222 -313q-41 -73 -110 -73q-24 0 -45 10q-67 35 -67 103q0 24 13 54q337 477 352 497q98 143 117 162q28 29 87 29zM509 650q46 -75 120 -75h13q14 0 32 5q0 -2 1 -2
q-365 -516 -369 -521q-47 -82 -112 -82h-12q-20 0 -48 13q-57 39 -57 90v548h2q47 -51 105 -51h12q59 0 104 52h2v-185h1l187 266h2q0 -23 17 -58zM225 1454q77 -33 77 -105v-636q0 -25 -14 -50q-36 -59 -96 -59q-38 0 -68 21q-47 38 -47 82v647q0 16 7 33q34 72 101 72h9
q14 0 31 -5zM1115 825q77 -35 77 -104v-638q0 -13 -4 -32q-35 -76 -103 -76h-10q-10 0 -22 2q-86 26 -86 123v602q0 32 6 53q36 75 104 75q18 0 38 -5zM533 1698q0 -42 29 -71t71 -29t71 29t29 71q0 8 5 15q10 20 35 20q23 0 34 -20q5 -7 5 -15q0 -75 -51.5 -126.5
t-127.5 -51.5q-74 0 -125 51.5t-51 126.5q0 8 4 15q11 20 34 20q24 0 34 -20q4 -7 4 -15z" />
    <glyph glyph-name="uni043A" unicode="&#x43a;" horiz-adv-x="1018" 
d="M185 1459h9q64 0 100 -70q8 -22 8 -34v-333l-224 -225h-1v554q0 62 65 98q22 10 43 10zM824 1459h9q62 0 97 -63q11 -21 11 -44v-11q0 -52 -63 -104l-576 -578v-576q0 -66 -72 -101q-19 -7 -43 -7q-69 0 -104 74q-6 18 -6 36v624q0 55 58 102q625 627 628 627
q29 21 61 21zM380 686q15 0 47 -37q491 -489 496 -497q18 -32 18 -55v-15q0 -64 -71 -100q-20 -7 -43 -7q-57 0 -112 68q-365 363 -372 373q-11 18 -11 33v175q0 33 40 60z" />
    <glyph glyph-name="uni043B" unicode="&#x43b;" horiz-adv-x="1555" 
d="M772 1459h10q71 0 110 -78l548 -1176q38 -72 38 -105v-4q0 -73 -74 -111q-23 -10 -47 -10h-4q-86 0 -123 102q-9 15 -437 936q-136 287 -136 297q-2 12 -2 24v5q0 75 78 113q21 7 39 7zM624 1300h2q7 -25 86 -190q4 -10 47 -100q0 -2 -442 -951q-12 -30 -41 -57
q-36 -27 -73 -27h-6q-75 0 -113 78q-7 22 -7 40v9q0 31 35 100z" />
    <glyph glyph-name="uni043C" unicode="&#x43c;" horiz-adv-x="1269" 
d="M185 1459h6q56 0 104 -60q148 -146 317 -317q-99 -99 -99 -106q-21 -34 -21 -68v-22h-1q-399 396 -399 401q-15 29 -15 55v9q0 62 65 98q22 10 43 10zM1077 1459h6q70 0 104 -76q5 -18 5 -27v-1278q0 -51 -56 -88q-24 -15 -50 -15h-13q-55 0 -92 57q-14 25 -14 56v1258
q0 74 75 107q15 6 35 6zM936 1362h1v-317q-235 -239 -242 -239q-29 -17 -53 -17h-12q-68 0 -104 76q-4 21 -4 36v1q0 57 60 106q168 170 354 354zM77 1256h1l223 -225v-945q0 -74 -77 -106q-14 -5 -26 -5h-18q-48 0 -86 52q-17 27 -17 56v1173z" />
    <glyph glyph-name="uni043D" unicode="&#x43d;" horiz-adv-x="1232" 
d="M185 1459h9q66 0 101 -71q7 -20 7 -48v-510h742q69 0 102 -69q9 -19 9 -41v-633q0 -68 -67 -102q-20 -10 -48 -10q-59 0 -96 57q-14 25 -14 56v516h-736q-78 0 -110 72q-7 18 -7 37v638q0 69 76 103q19 5 32 5zM1038 1459h9q64 0 99 -69q9 -19 9 -41v-541h-1
q-35 37 -68 45q-20 7 -64 7h-90q-2 0 -2 3v483q0 75 77 108q17 5 31 5zM77 626h1q49 -51 106 -51h116q2 -1 2 -3v-479q0 -83 -80 -113q-14 -5 -34 -5q-71 0 -106 76q-5 20 -5 32v543z" />
    <glyph glyph-name="uni043E" unicode="&#x43e;" 
d="M815 1459h12q282 0 510 -210q224 -228 224 -533q0 -73 -77 -106q-17 -5 -31 -5h-10q-65 0 -101 73q-6 18 -9 97q-10 68 -31 126q-83 205 -281 292q-97 42 -220 42q-30 3 -65 34q-30 37 -30 77q0 64 61 101q24 12 48 12zM722 1453v-1q-46 -47 -46 -106q0 -68 62 -117v-2
q-132 -25 -214 -85q-143 -102 -198 -270q-25 -77 -25 -173q-12 -48 -40 -70q-33 -24 -68 -24h-8q-68 0 -103 76q-5 19 -5 32v12q0 278 205 505q84 82 154 124q67 38 129 61q56 21 142 37zM307 636h2q24 -133 93 -225q164 -212 436 -212q29 -3 65 -35q28 -36 28 -71v-10
q0 -60 -62 -97q-25 -11 -49 -11q-305 0 -533 224q-73 80 -101 131q-34 52 -66 136q-37 117 -37 154h1q48 -46 106 -46q68 0 117 62zM1329 636h2q48 -62 118 -62q58 0 105 47h1q-12 -91 -42 -167q-26 -73 -84 -160q-27 -42 -93 -109q-97 -89 -154 -114q-32 -21 -109 -52
q-71 -26 -158 -38v1q47 46 47 107q0 67 -62 116v2q62 10 118 33q53 23 108 61q48 35 97 94q41 53 60 95q40 91 40 117q2 2 6 29z" />
    <glyph glyph-name="uni043F" unicode="&#x43f;" horiz-adv-x="1232" 
d="M1156 1352v-9q0 -69 -78 -104q-22 -5 -47 -5h-696q-3 0 -3 3v111q0 63 -53 111v1h769q68 0 103 -76q5 -19 5 -32zM1156 1258v-1174q0 -66 -71 -102q-22 -7 -39 -7h-3q-75 0 -108 80q-5 18 -5 45v1102q0 3 3 3h113q62 0 109 53h1zM301 1353v-1271q0 -62 -66 -97
q-20 -10 -45 -10h-1q-74 0 -107 77q-5 17 -5 31v1269q0 62 65 98q22 10 43 10h9q60 0 96 -63q11 -21 11 -44z" />
    <glyph glyph-name="uni0440" unicode="&#x440;" horiz-adv-x="1020" 
d="M77 1255h1q46 -52 118 -52h103q2 -1 2 -3v-1118q0 -61 -65 -97q-21 -10 -42 -10h-9q-68 0 -103 76q-5 19 -5 32v1172zM613 1446h2q123 -33 196 -110q13 -9 46 -50q86 -122 86 -249v-23q0 -162 -130 -299q-80 -72 -158 -99q-19 -6 -42 -12v1q39 47 39 94v11q0 71 -71 120
v1q38 9 87 60q51 62 51 135q0 96 -83 164q-21 17 -54 31l-1 1q71 48 71 118v12q0 47 -39 94zM443 1459h60q76 0 109 -65q11 -22 11 -48q0 -77 -82 -109q-17 -4 -31 -4h-325q-62 0 -98 65q-10 22 -10 43v9q0 63 67 99q15 6 32 9q162 1 267 1zM335 818h175q75 0 108 -79
q5 -18 5 -37q0 -67 -73 -103q-20 -7 -49 -7h-166q-3 0 -3 2v221q1 3 3 3z" />
    <glyph glyph-name="uni0441" unicode="&#x441;" horiz-adv-x="1454" 
d="M810 1459h17q268 0 489 -190q61 -50 61 -108q0 -62 -59 -98q-24 -13 -50 -13h-6q-53 0 -99 54q-155 130 -334 130h-21q-180 0 -334 -132q-63 -60 -91 -105q-81 -134 -81 -270v-20q0 -154 98 -293q-1 0 -1 -2q-14 3 -27 3q-83 0 -128 -83q-13 -30 -13 -53v-14h-1
q-153 204 -153 444v17q0 249 167 461q64 74 110 109q209 163 456 163zM367 384h15q45 0 96 -56q153 -128 337 -128h11q200 0 362 155q31 29 75 29h1q77 0 109 -83q3 -17 3 -25v-9q0 -54 -60 -101q-216 -191 -498 -191q-262 0 -471 169q-77 63 -83 98q-3 17 -3 32q0 58 54 94
q26 16 52 16z" />
    <glyph glyph-name="uni0442" unicode="&#x442;" 
d="M185 1459h636q62 0 97 -59q14 -24 14 -54v-539h-1q-49 52 -106 52h-12q-57 0 -106 -52h-1v426h-504q-97 0 -123 87q-2 13 -2 22v9q0 68 76 103q19 5 32 5zM910 1459h543q62 0 98 -65q10 -22 10 -43v-10q0 -43 -37 -78q-30 -30 -88 -30h-472q-3 0 -3 3v118q0 56 -51 104v1
zM820 830q69 0 103 -70q9 -19 9 -43v-629q0 -76 -77 -108q-17 -5 -31 -5h-10q-65 0 -100 71q-8 20 -8 46v624q0 72 73 106q21 8 41 8z" />
    <glyph glyph-name="uni0443" unicode="&#x443;" horiz-adv-x="1273" 
d="M205 1459h10q75 0 128 -93q401 -570 411 -587q15 -31 15 -62q0 -49 -40 -99q-404 -579 -422 -601q-42 -42 -95 -42h-8q-72 0 -116 77q-11 29 -11 53v6q0 52 51 111q6 11 345 495q-373 532 -382 547q-14 29 -14 58v10q0 67 68 111q30 16 60 16zM1058 1459h10q60 0 104 -58
q24 -34 24 -75q0 -53 -49 -111q-333 -478 -342 -487h-1v1q0 53 -68 137l-78 114q286 411 310 441q43 38 90 38z" />
    </font>
</defs>
</svg>
