<?xml version="1.0" standalone="no"?>
<!DOCTYPE svg PUBLIC "-//W3C//DTD SVG 1.1//EN" "http://www.w3.org/Graphics/SVG/1.1/DTD/svg11.dtd" >
<svg xmlns="http://www.w3.org/2000/svg" xmlns:xlink="http://www.w3.org/1999/xlink" version="1.1">
<metadata></metadata>
<defs>
<font id="gorditabold" horiz-adv-x="616" >
<font-face units-per-em="2048" ascent="1638" descent="-410" />
<missing-glyph horiz-adv-x="514" />
<glyph unicode="&#xfb01;" horiz-adv-x="1503" d="M53 821v273h197v108q0 103 27.5 187t82 148.5t144 100t207.5 35.5q80 0 149 -22v-262q-40 12 -98 12q-92 0 -143.5 -49.5t-51.5 -143.5v-114h789v-1094h-322v821h-465v-821h-319v821h-197zM995 1475q0 82 58.5 140t138.5 58q85 0 143 -57.5t58 -140.5q0 -82 -58.5 -139.5 t-142.5 -57.5q-80 0 -138.5 58t-58.5 139z" />
<glyph unicode="&#xfb02;" horiz-adv-x="1503" d="M53 821v273h197v108q0 103 27.5 187t82 148.5t144 100t207.5 35.5q80 0 149 -22v-262q-40 12 -98 12q-92 0 -143.5 -49.5t-51.5 -143.5v-114h467v575h322v-1669h-322v821h-465v-821h-319v821h-197z" />
<glyph unicode="&#xfb03;" horiz-adv-x="2289" d="M53 821v273h197v108q0 103 27.5 187t82 148.5t144 100t207.5 35.5q80 0 149 -22v-262q-40 12 -98 12q-92 0 -143.5 -49.5t-51.5 -143.5v-114h467v108q0 103 27.5 187t82 148.5t144 100t207.5 35.5q81 0 150 -22v-262q-40 12 -99 12q-92 0 -143 -49.5t-51 -143.5v-114h790 v-1094h-321v821h-467v-821h-320v821h-465v-821h-319v821h-197zM1782 1475q0 83 58 140.5t138 57.5q85 0 143 -57.5t58 -140.5q0 -82 -58.5 -139.5t-142.5 -57.5q-80 0 -138 58t-58 139z" />
<glyph unicode="&#xfb04;" horiz-adv-x="2287" d="M53 821v273h197v108q0 103 27.5 187t82 148.5t144 100t207.5 35.5q80 0 149 -22v-262q-40 12 -98 12q-92 0 -143.5 -49.5t-51.5 -143.5v-114h467v108q0 103 27.5 187t82 148.5t144 100t207.5 35.5q81 0 150 -22v-262q-40 12 -99 12q-92 0 -143 -49.5t-51 -143.5v-114h467 v575h321v-1669h-321v821h-465v-821h-320v821h-465v-821h-319v821h-197z" />
<glyph horiz-adv-x="0" />
<glyph horiz-adv-x="682" />
<glyph unicode=" "  horiz-adv-x="514" />
<glyph unicode="&#x09;" horiz-adv-x="514" />
<glyph unicode="&#xa0;" horiz-adv-x="514" />
<glyph unicode="!" horiz-adv-x="694" d="M152 174q0 -81 58 -139t138 -58q83 0 142 57.5t59 139.5q0 83 -59 142t-142 59q-80 0 -138 -59t-58 -142zM170 1280v324h352v-324l-30 -725h-291z" />
<glyph unicode="&#x22;" horiz-adv-x="1046" d="M102 1409q0 82 52.5 134t134.5 52t134 -52t52 -134q0 -25 -26 -173.5t-52 -284.5l-26 -136h-164q-105 537 -105 594zM571 1409q0 82 52.5 134t134.5 52t134 -52t52 -134q0 -25 -26 -173.5t-52 -284.5l-26 -136h-164q-105 537 -105 594z" />
<glyph unicode="#" horiz-adv-x="1728" d="M78 414v233h317l76 340h-264v236h317l86 383h256l-86 -383h350l89 383h254l-87 -383h267v-236h-320l-78 -340h267v-233h-320l-92 -414h-256l94 414h-350l-92 -414h-256l92 414h-264zM647 643h357l77 350h-356z" />
<glyph unicode="$" horiz-adv-x="1335" d="M45 356l283 148q74 -171 258 -213v375q-254 77 -357 182q-120 117 -120 293q0 191 135 321t338 154v209h170v-209q165 -20 285.5 -107t181.5 -231l-273 -150q-55 140 -196 183v-361q253 -78 375 -186.5t122 -288.5q0 -198 -130.5 -331t-364.5 -156v-197h-170v197 q-193 19 -333 116t-204 252zM436 1161q0 -55 36.5 -92.5t113.5 -67.5v318q-71 -13 -110.5 -56t-39.5 -102zM750 289q76 15 122 59t46 103q0 54 -36.5 89t-131.5 72v-323z" />
<glyph unicode="%" horiz-adv-x="1820" d="M72 1257q0 151 106 258t256 107q151 0 257 -107t106 -258q0 -149 -106.5 -255.5t-256.5 -106.5t-256 106t-106 256zM248 0l1044 1604h277l-1043 -1604h-278zM307 1257q0 -51 37.5 -87.5t89.5 -36.5t89.5 36.5t37.5 87.5q0 53 -37.5 90t-89.5 37t-89.5 -37t-37.5 -90z M1024 352q0 151 106 258t256 107q151 0 257 -107t106 -258q0 -149 -106 -254.5t-257 -105.5t-256.5 105.5t-105.5 254.5zM1260 352q0 -51 37 -88t89 -37t89.5 37t37.5 88q0 54 -37 90.5t-90 36.5t-89.5 -36.5t-36.5 -90.5z" />
<glyph unicode="&#x26;" horiz-adv-x="1536" d="M90 422q0 236 287 422l-62 67q-59 65 -89.5 142.5t-30.5 144.5q0 115 59 213.5t166 158.5t239 60q122 0 229.5 -55.5t172.5 -153.5t65 -213q0 -114 -53 -201.5t-170 -156.5l-96 -57l231 -265q82 133 129 310l271 -64q-60 -267 -205 -467l268 -307h-391l-90 102 q-186 -125 -410 -125q-82 0 -157 16.5t-141.5 51.5t-115.5 86.5t-77.5 126t-28.5 164.5zM412 453q0 -53 21 -92t55.5 -59t70.5 -29t74 -9q110 0 201 55l-281 322q-141 -89 -141 -188zM504 1198q0 -32 11 -59t48 -68l68 -76l117 70q77 46 77 133q0 56 -46 99.5t-113 43.5 q-70 0 -116 -43.5t-46 -99.5z" />
<glyph unicode="'" horiz-adv-x="577" d="M102 1409q0 82 52.5 134t134.5 52t134 -52t52 -134q0 -25 -26 -173.5t-52 -284.5l-26 -136h-164q-105 537 -105 594z" />
<glyph unicode="(" horiz-adv-x="843" d="M92 717v76q0 338 149.5 590t422.5 405l139 -186q-422 -308 -422 -811v-74q0 -507 422 -811l-139 -187q-273 153 -422.5 406t-149.5 592z" />
<glyph unicode=")" horiz-adv-x="837" d="M39 -100q418 305 418 817v74q0 512 -418 817l133 180q274 -153 423.5 -405t149.5 -590v-76q0 -340 -149.5 -592.5t-423.5 -405.5z" />
<glyph unicode="*" horiz-adv-x="1030" d="M78 1208l65 197l263 -86v285h215v-285l264 86l67 -197l-264 -88l162 -225l-168 -123l-168 227l-166 -227l-168 123l162 225z" />
<glyph unicode="+" horiz-adv-x="1269" d="M88 598v299h399v397h306v-397h389v-299h-389v-399h-306v399h-399z" />
<glyph unicode="," horiz-adv-x="657" d="M104 203q0 89 62.5 151t150.5 62q101 0 167.5 -74t66.5 -195v-10q0 -137 -78.5 -264t-210.5 -217l-121 117q77 52 128.5 110t88.5 140q-43 -15 -71 -15q-78 0 -130.5 55t-52.5 140z" />
<glyph unicode="-" horiz-adv-x="937" d="M131 508v315h676v-315h-676z" />
<glyph unicode="." horiz-adv-x="643" d="M100 197q0 92 65 157.5t157 65.5q93 0 157 -65t64 -158q0 -91 -64.5 -156.5t-156.5 -65.5q-91 0 -156.5 65.5t-65.5 156.5z" />
<glyph unicode="/" horiz-adv-x="1150" d="M63 -10l732 1679h297l-734 -1679h-295z" />
<glyph unicode="0" horiz-adv-x="1572" d="M100 803q0 129 26.5 248.5t82.5 225t136 183.5t194.5 123t251.5 45q133 0 246 -44.5t192.5 -121t135.5 -180.5t83 -223t27 -248t-27 -249.5t-83.5 -226.5t-137 -185t-194.5 -124.5t-249 -45.5q-137 0 -251 45t-193 123t-134 183t-80.5 224t-25.5 248zM434 807 q0 -67 12 -135t39 -135.5t67 -120t100.5 -85t133.5 -32.5t134 32.5t100.5 85t67 120t39.5 135.5t12 135q0 66 -12 133.5t-39.5 135t-67 119t-100.5 84t-134 32.5q-91 0 -161.5 -48.5t-110.5 -125.5t-60 -161.5t-20 -168.5z" />
<glyph unicode="1" horiz-adv-x="1011" d="M6 1284l545 320h272v-1604h-331v1208l-338 -192z" />
<glyph unicode="2" horiz-adv-x="1382" d="M96 0v291l559 459q151 124 208 197.5t57 160.5q0 85 -65.5 147t-164.5 62q-96 0 -167.5 -51t-110.5 -150l-306 129q29 96 88.5 170.5t138.5 120.5t169.5 69t189.5 23q130 0 238 -41t180 -111t112 -164.5t40 -201.5q0 -74 -19 -138.5t-48 -115t-87.5 -111.5t-112 -106.5 t-147.5 -120.5l-270 -215h692v-303h-1174z" />
<glyph unicode="3" horiz-adv-x="1353" d="M72 317l290 150q41 -88 125 -136t193 -48q106 0 170.5 51.5t64.5 134.5q0 91 -62.5 139.5t-172.5 48.5h-170v308h152q106 0 165.5 50.5t59.5 129.5q0 76 -62.5 125t-169.5 49q-181 0 -262 -178l-297 141q68 166 220 256t352 90q247 0 400 -127t153 -334q0 -220 -220 -338 v-2q133 -56 191.5 -144.5t58.5 -221.5q0 -138 -75.5 -249.5t-208 -174t-295.5 -62.5q-212 0 -370 87.5t-230 254.5z" />
<glyph unicode="4" horiz-adv-x="1492" d="M63 317v326l719 961h396v-988h227v-297h-227v-319h-324v317h-791zM408 616h446v598z" />
<glyph unicode="5" horiz-adv-x="1349" d="M80 295l282 168q91 -172 304 -172q112 0 184 63.5t72 173.5q0 103 -72 166.5t-197 63.5q-55 0 -114 -24.5t-105 -69.5l-311 127l117 813h944v-301h-680l-51 -361q131 107 288 107q107 0 199.5 -33t163 -95.5t111 -161.5t40.5 -222q0 -127 -46 -232t-127 -175.5t-190 -109 t-235 -38.5q-414 0 -577 313z" />
<glyph unicode="6" horiz-adv-x="1423" d="M102 750q0 152 28.5 284.5t87.5 241.5t144.5 187t204 120.5t260.5 42.5q140 0 245.5 -39.5t209.5 -120.5l-172 -254q-141 111 -289 111q-92 0 -162.5 -36t-113.5 -99t-65.5 -140t-26.5 -167q136 163 354 163q152 0 272.5 -70t185 -185.5t64.5 -253.5q0 -128 -51.5 -235 t-136.5 -176t-191 -106.5t-219 -37.5q-166 0 -290.5 62.5t-202.5 162.5q-136 174 -136 545zM453 524q0 -102 82.5 -173.5t191.5 -71.5q112 0 190 71t78 172q0 109 -75 175.5t-195 66.5q-111 0 -191.5 -65t-80.5 -175z" />
<glyph unicode="7" horiz-adv-x="1294" d="M63 1303v301h1176v-285l-709 -1319h-372l700 1303h-795z" />
<glyph unicode="8" horiz-adv-x="1404" d="M102 446q0 138 70.5 230.5t210.5 154.5v3q-112 45 -180 140t-68 216q0 189 156.5 313.5t410.5 124.5q255 0 410.5 -125t155.5 -313q0 -122 -67 -216.5t-181 -139.5v-3q142 -61 211 -152.5t69 -225.5q0 -143 -81.5 -252t-217 -165t-301.5 -56q-167 0 -302.5 57 t-215.5 164.5t-80 244.5zM436 473q0 -91 73 -153t189 -62q123 0 196 61.5t73 153.5q0 64 -40.5 110.5t-99 67.5t-125.5 21t-126 -21t-99.5 -68t-40.5 -110zM467 1151q0 -91 70.5 -146t162.5 -55q94 0 165 54t71 145q0 86 -65 143.5t-171 57.5q-102 0 -167.5 -57.5 t-65.5 -141.5z" />
<glyph unicode="9" horiz-adv-x="1423" d="M94 1069q0 128 51.5 235.5t136.5 176.5t191 107t219 38q165 0 290.5 -63t201.5 -162q137 -178 137 -555q0 -191 -43.5 -348t-129 -273.5t-221 -180.5t-309.5 -64q-142 0 -253 40t-213 119l172 256q140 -110 294 -110q92 0 161.5 36.5t111 100t63 139t25.5 164.5 q-70 -84 -165.5 -127t-195.5 -43q-114 0 -213 41.5t-166.5 112t-106 164t-38.5 196.5zM428 1079q0 -110 74.5 -177.5t193.5 -67.5q111 0 193 66.5t82 176.5q0 103 -83 176.5t-192 73.5q-112 0 -190 -73t-78 -175z" />
<glyph unicode=":" horiz-adv-x="688" d="M123 197q0 92 64.5 157.5t156.5 65.5q93 0 157 -65t64 -158q0 -92 -64 -157t-157 -65q-91 0 -156 65.5t-65 156.5zM123 895q0 94 64.5 159.5t156.5 65.5q93 0 157 -65.5t64 -159.5q0 -90 -64 -154.5t-157 -64.5q-91 0 -156 65t-65 154z" />
<glyph unicode=";" horiz-adv-x="698" d="M125 203q0 89 62.5 151t150.5 62q101 0 167 -74t66 -195v-10q0 -137 -78 -264t-210 -217l-121 117q77 52 128.5 110t88.5 140q-43 -15 -72 -15q-77 0 -129.5 55t-52.5 140zM127 895q0 93 64 158t155 65q93 0 158 -65t65 -158q0 -91 -65 -155t-158 -64q-91 0 -155 64 t-64 155z" />
<glyph unicode="&#x3c;" horiz-adv-x="1298" d="M76 621v251l1071 490v-303l-709 -307v-4l709 -308v-311z" />
<glyph unicode="=" horiz-adv-x="1296" d="M139 317v299h1018v-299h-1018zM139 881v297h1018v-297h-1018z" />
<glyph unicode="&#x3e;" horiz-adv-x="1298" d="M152 129v309l708 305v7l-708 307v305l1071 -490v-251z" />
<glyph unicode="?" horiz-adv-x="1130" d="M61 1321q63 144 198.5 225.5t297.5 81.5q220 0 357 -121.5t137 -312.5q0 -67 -17 -123.5t-53 -106.5t-76.5 -89.5t-103.5 -90.5q-49 -40 -78 -70t-51.5 -75.5t-22.5 -97.5v-15h-311v68q0 89 34.5 154t116.5 137l99 86q72 63 100.5 110.5t28.5 94.5q0 67 -47 110t-121 43 q-66 0 -121 -40t-90 -113zM307 174q0 83 58.5 142t138.5 59q84 0 142.5 -58.5t58.5 -142.5q0 -82 -58.5 -139.5t-142.5 -57.5q-80 0 -138.5 58t-58.5 139z" />
<glyph unicode="@" horiz-adv-x="1773" d="M100 639q0 172 67 327t180 266.5t267.5 177t323.5 65.5q213 0 387 -89.5t274.5 -250t100.5 -359.5q0 -118 -35 -219.5t-94 -169.5t-136 -106.5t-161 -38.5q-74 0 -139.5 32.5t-92.5 85.5q-40 -54 -109.5 -87t-131.5 -33q-94 0 -171.5 52.5t-119 132t-41.5 163.5 q0 124 53.5 232t150 173.5t214.5 65.5q57 0 112 -30.5t78 -84.5l19 105h237l-86 -510q-3 -25 -2.5 -50t17.5 -44t49 -19q83 0 158 101t75 249q0 115 -44 216.5t-122 175t-191.5 116.5t-246.5 43q-137 0 -263.5 -54.5t-218.5 -146.5t-147 -219t-55 -266q0 -134 45.5 -252.5 t129 -209.5t212.5 -144t285 -53q104 0 220 38t208 105l80 -125q-85 -74 -232 -122t-276 -48q-181 0 -336.5 63t-262.5 171.5t-168 257.5t-61 317zM715 612q2 -58 39.5 -102.5t97.5 -44.5q78 0 135 68.5t57 156.5q0 63 -38 103.5t-99 40.5q-80 0 -137 -67.5t-55 -154.5z" />
<glyph unicode="A" horiz-adv-x="1622" d="M-2 0l612 1604h400l614 -1604h-342l-121 324h-710l-119 -324h-334zM565 631h484l-242 651z" />
<glyph unicode="B" horiz-adv-x="1523" d="M186 0v1604h666q99 0 189 -26.5t163 -77t116.5 -133.5t43.5 -187q0 -225 -225 -342v-4q149 -57 222 -147.5t73 -244.5q0 -95 -32.5 -171t-87 -126t-129 -83t-155 -47.5t-168.5 -14.5h-676zM510 307h348q49 0 90.5 8t79.5 27t60 55.5t22 87.5q0 181 -262 181h-338v-359z M510 952h274q49 0 90 7.5t80 25.5t61.5 54.5t22.5 88.5q0 48 -20 82.5t-54.5 53t-73 26.5t-83.5 8h-297v-346z" />
<glyph unicode="C" horiz-adv-x="1703" d="M88 801q0 227 111.5 417.5t303 300t417.5 109.5q243 0 445 -126.5t282 -346.5l-304 -139q-52 134 -164 211.5t-261 77.5q-137 0 -249 -67.5t-174.5 -182t-62.5 -250.5q0 -139 61.5 -254.5t173.5 -183.5t251 -68q147 0 261.5 81.5t168.5 215.5l305 -141 q-54 -147 -170 -257t-263.5 -165.5t-306.5 -55.5q-172 0 -325.5 63.5t-263 173t-173 262.5t-63.5 325z" />
<glyph unicode="D" horiz-adv-x="1675" d="M186 0v1604h492q421 0 663 -211.5t242 -587.5q0 -178 -63 -327t-179 -254.5t-288 -164.5t-381 -59h-486zM518 313h164q254 0 407.5 130t153.5 362q0 153 -74 264.5t-198.5 166t-284.5 54.5h-168v-977z" />
<glyph unicode="E" horiz-adv-x="1357" d="M186 0v1604h1051v-312h-723v-325h647v-312h-647v-346h727v-309h-1055z" />
<glyph unicode="F" horiz-adv-x="1329" d="M186 0v1604h1057v-316h-725v-340h649v-315h-649v-633h-332z" />
<glyph unicode="G" horiz-adv-x="1755" d="M88 801q0 172 67 326t179.5 263.5t266.5 173.5t323 64q118 0 224.5 -28t185 -73t142.5 -105t103.5 -121.5t62.5 -124.5l-292 -144q-20 50 -52 96t-82.5 90t-127 70.5t-168.5 26.5q-204 0 -349 -148t-145 -364q0 -139 62 -255.5t176 -186.5t256 -70q160 0 271.5 74.5 t141.5 195.5h-487v301h833v-125q0 -146 -41.5 -271t-113 -214t-168 -152.5t-207.5 -94t-229 -30.5q-182 0 -338.5 65t-264 176.5t-168.5 263t-61 321.5z" />
<glyph unicode="H" horiz-adv-x="1708" d="M186 0v1604h332v-633h672v633h332v-1604h-332v649h-672v-649h-332z" />
<glyph unicode="I" horiz-adv-x="706" d="M186 0v1604h332v-1604h-332z" />
<glyph unicode="J" horiz-adv-x="1273" d="M59 324l281 155q70 -182 227 -182q94 0 147.5 56t53.5 159v1092h332v-1117q0 -122 -42 -219.5t-114.5 -159.5t-167 -95t-203.5 -33q-182 0 -313 86.5t-201 257.5z" />
<glyph unicode="K" horiz-adv-x="1507" d="M186 0v1604h330v-699l551 699h414l-613 -766l654 -838h-428l-578 762v-762h-330z" />
<glyph unicode="L" horiz-adv-x="1236" d="M186 0v1604h330v-1289h686v-315h-1016z" />
<glyph unicode="M" horiz-adv-x="2142" d="M186 0v1604h428l455 -1076l447 1076h440v-1604h-328v1059h-2l-446 -1059h-222l-444 1051h-2v-1051h-326z" />
<glyph unicode="N" horiz-adv-x="1777" d="M186 0v1604h379l697 -1047v1047h327v-1604h-338l-737 1106v-1106h-328z" />
<glyph unicode="O" horiz-adv-x="1841" d="M88 801q0 170 66.5 323.5t179 263.5t267.5 175t325 65q227 0 417 -108t300 -296t110 -415q0 -138 -42 -266t-119.5 -230t-180 -178.5t-230 -118t-263.5 -41.5q-170 0 -323.5 64.5t-264.5 174.5t-176.5 263t-65.5 324zM428 803q0 -136 65.5 -252.5t179.5 -185t249 -68.5 t249 68.5t179 185t65 252.5t-65 252t-179 184t-249 68t-249 -68t-179.5 -184t-65.5 -252z" />
<glyph unicode="P" horiz-adv-x="1417" d="M186 0v1604h596q164 0 292 -56.5t205 -174.5t77 -283q0 -130 -44 -231t-123 -164.5t-185 -96.5t-234 -33h-252v-565h-332zM518 874h238q51 0 97 11.5t84.5 35.5t61.5 65t23 95q0 56 -22 98t-61 65.5t-85 34.5t-100 11h-236v-416z" />
<glyph unicode="Q" horiz-adv-x="1843" d="M88 801q0 170 66.5 323.5t178.5 263.5t267 175t326 65q227 0 417 -108t300 -296t110 -415q0 -267 -151 -479l155 -135l-203 -236l-174 158q-212 -140 -462 -140q-171 0 -324.5 64t-264.5 173.5t-176 262.5t-65 324zM426 803q0 -136 66.5 -253t181 -186t248.5 -69 q110 0 206 47l-254 219l203 240l275 -248q63 114 63 250t-66 252.5t-179.5 185t-247.5 68.5t-248.5 -68.5t-181 -185t-66.5 -252.5z" />
<glyph unicode="R" horiz-adv-x="1497" d="M186 0v1604h633q118 0 220 -32t180 -94t122.5 -160t44.5 -222q0 -172 -83.5 -291.5t-245.5 -177.5l362 -627h-368l-332 575h-201v-575h-332zM518 883h277q66 0 121.5 19t95 67.5t39.5 120.5q0 55 -22 95.5t-60.5 62.5t-82 32t-93.5 10h-275v-407z" />
<glyph unicode="S" horiz-adv-x="1335" d="M39 352l287 148q46 -105 138 -164.5t212 -59.5q107 0 175.5 48t68.5 122q0 69 -63 111.5t-241 95.5q-279 83 -391 195q-123 120 -123 297q0 140 77 251.5t204.5 171.5t278.5 60q200 0 347 -90.5t216 -255.5l-275 -149q-39 95 -118.5 145.5t-184.5 50.5q-98 0 -155.5 -46 t-57.5 -118t60.5 -114.5t197.5 -81.5q141 -40 239 -83.5t173.5 -102t112 -136t36.5 -176.5q0 -107 -39 -197t-112 -157t-185 -104.5t-251 -37.5q-224 0 -390 101.5t-237 275.5z" />
<glyph unicode="T" horiz-adv-x="1378" d="M43 1282v322h1292v-322h-481v-1282h-330v1282h-481z" />
<glyph unicode="U" horiz-adv-x="1628" d="M170 635v969h334l-2 -961q0 -171 86.5 -258.5t224.5 -87.5q151 0 234 91.5t83 246.5v969h328v-957q0 -315 -164 -492.5t-483 -177.5q-163 0 -287 48t-200.5 136.5t-115 207t-38.5 266.5z" />
<glyph unicode="V" horiz-adv-x="1605" d="M31 1604h358l416 -1219l418 1219h352l-582 -1604h-383z" />
<glyph unicode="W" horiz-adv-x="2439" d="M39 1604h354l305 -1139l346 1139h355l346 -1147l315 1147h342l-475 -1604h-358l-348 1163h-4l-351 -1163h-356z" />
<glyph unicode="X" horiz-adv-x="1546" d="M-2 0l577 825l-544 779h389l354 -521l359 521h387l-549 -777l577 -827h-387l-391 578l-397 -578h-375z" />
<glyph unicode="Y" horiz-adv-x="1562" d="M29 1604h383l370 -641l375 641h379l-588 -955v-649h-332v635z" />
<glyph unicode="Z" horiz-adv-x="1402" d="M84 0v293l799 1003h-766v308h1177v-285l-796 -1012h813l2 -307h-1229z" />
<glyph unicode="[" horiz-adv-x="917" d="M182 -258v2034h664v-250h-389v-1534h389v-250h-664z" />
<glyph unicode="\" horiz-adv-x="1150" d="M59 1669h297l731 -1679h-294z" />
<glyph unicode="]" horiz-adv-x="917" d="M74 -8h389v1534h-389v250h661v-2034h-661v250z" />
<glyph unicode="^" horiz-adv-x="1335" d="M82 924l465 680h244l462 -680h-323l-262 424l-260 -424h-326z" />
<glyph unicode="_" horiz-adv-x="1132" d="M0 -131h1133v-260h-1133v260z" />
<glyph unicode="`" horiz-adv-x="634" d="M20 1659h367l219 -383h-262z" />
<glyph unicode="a" horiz-adv-x="1218" d="M86 305v4q0 78 30 138.5t77.5 97t113 60t130.5 32t136 8.5h109q42 0 64 22t22 58q0 57 -45 96t-131 39q-163 0 -244 -147l-244 145q68 125 194 192.5t308 67.5q217 0 346 -112.5t129 -327.5v-678h-295v135l-4 2q-110 -157 -327 -157q-154 0 -261.5 89t-107.5 236z M408 324q0 -56 39 -83.5t100 -27.5q102 0 160.5 60.5t58.5 150.5v25h-193q-70 0 -117.5 -32t-47.5 -93z" />
<glyph unicode="b" horiz-adv-x="1404" d="M147 0v1667h320v-704h4q118 151 332 151q117 0 216.5 -49.5t165 -130t102 -181t36.5 -204.5q0 -107 -38.5 -209t-106 -182t-168 -129t-215.5 -49q-217 0 -332 151h-4v-131h-312zM459 549q0 -123 78 -202t192 -79t192 79t78 202q0 121 -78 198.5t-194 77.5 q-112 0 -190 -77.5t-78 -198.5z" />
<glyph unicode="c" horiz-adv-x="1259" d="M82 545q0 159 78.5 291t214 207t297.5 75q182 0 322.5 -88.5t193.5 -249.5l-281 -116q-33 74 -87 117.5t-148 43.5q-110 0 -186 -75t-76 -201q0 -123 72.5 -201t189.5 -78q172 0 241 162l283 -117q-64 -168 -203.5 -254t-322.5 -86q-127 0 -236.5 43.5t-186.5 119 t-121 181t-44 226.5z" />
<glyph unicode="d" horiz-adv-x="1404" d="M82 549q0 104 38.5 205t105.5 181t167 129.5t213 49.5q205 0 328 -145h4v698h317v-1667h-309v139h-4q-108 -159 -340 -159q-115 0 -214 47.5t-165.5 126.5t-103.5 181.5t-37 213.5zM406 549q0 -123 78 -202t192 -79t192 79t78 202q0 121 -78 198.5t-192 77.5t-192 -77.5 t-78 -198.5z" />
<glyph unicode="e" horiz-adv-x="1284" d="M80 549q0 155 78.5 286.5t212 208t288.5 76.5q244 0 394.5 -151.5t150.5 -395.5q0 -77 -4 -114h-794q15 -100 91 -157.5t179 -57.5q71 0 139.5 35.5t104.5 95.5l231 -152q-137 -248 -471 -248q-123 0 -233.5 42.5t-191.5 116.5t-128 182t-47 233zM414 670h471 q-5 71 -65 130.5t-169 59.5q-97 0 -161.5 -62t-75.5 -128z" />
<glyph unicode="f" horiz-adv-x="888" d="M53 821v273h197v108q0 103 27.5 187t82 148.5t144 100t207.5 35.5q80 0 149 -22v-262q-40 12 -98 12q-92 0 -143.5 -49.5t-51.5 -143.5v-114h287v-273h-285v-821h-319v821h-197z" />
<glyph unicode="g" horiz-adv-x="1396" d="M82 557q0 104 37 203t102.5 177t164 125.5t212.5 47.5q207 0 332 -149h4v133h313v-1098q0 -128 -45 -232t-124 -171.5t-187 -103.5t-234 -36q-405 0 -553 314l261 149q92 -184 290 -184q124 0 199.5 64.5t75.5 191.5v166h-4q-113 -146 -316 -146q-154 0 -275.5 73 t-187 198t-65.5 278zM406 557q0 -121 75.5 -195.5t190.5 -74.5q113 0 189.5 75t76.5 195t-76 194t-190 74q-112 0 -189 -75t-77 -193z" />
<glyph unicode="h" horiz-adv-x="1308" d="M147 0v1667h320v-702h2q32 46 76.5 78t88.5 46t76.5 19.5t59.5 5.5q100 0 178.5 -36t126 -97t72 -137.5t24.5 -163.5v-680h-317v606q0 95 -48 154t-142 59q-96 0 -146.5 -61.5t-50.5 -147.5v-610h-320z" />
<glyph unicode="i" d="M109 1475q0 83 58 140.5t138 57.5q85 0 143 -57.5t58 -140.5q0 -82 -58.5 -139.5t-142.5 -57.5q-80 0 -138 58t-58 139zM147 0h322v1094h-322v-1094z" />
<glyph unicode="j" horiz-adv-x="632" d="M-98 -258q27 -6 55 -6q105 0 156 44.5t51 153.5v1160h319v-1176q0 -235 -116.5 -347t-352.5 -112q-61 0 -112 15v268zM125 1475q0 83 57.5 140.5t139.5 57.5q83 0 141.5 -57.5t58.5 -140.5q0 -82 -58.5 -139.5t-141.5 -57.5q-82 0 -139.5 57.5t-57.5 139.5z" />
<glyph unicode="k" horiz-adv-x="1267" d="M147 0v1669h320v-1005l379 430h407l-440 -504l453 -590h-404l-387 518h-8v-518h-320z" />
<glyph unicode="l" d="M147 0v1669h322v-1669h-322z" />
<glyph unicode="m" horiz-adv-x="1988" d="M147 0v1094h314v-144h4q46 80 133.5 124t185.5 44q104 0 189.5 -43.5t130.5 -130.5q80 90 163.5 132t198.5 42q98 0 173 -32.5t120.5 -92t68.5 -137.5t23 -174v-682h-319v610q0 96 -42.5 152.5t-135.5 56.5q-95 0 -146 -56.5t-51 -152.5v-610h-317v606q0 97 -42.5 155 t-135.5 58q-95 0 -145 -58t-50 -155v-606h-320z" />
<glyph unicode="n" horiz-adv-x="1308" d="M147 0v1094h318v-144h2q29 51 76 87t95.5 51t81 20.5t56.5 5.5q81 0 148 -23.5t112 -64t76 -96.5t45 -118.5t14 -131.5v-680h-317v606q0 97 -47.5 155t-142.5 58q-96 0 -146.5 -61t-50.5 -152v-606h-320z" />
<glyph unicode="o" horiz-adv-x="1353" d="M80 545q0 160 80.5 292t218 206.5t301.5 74.5q163 0 299 -73t215.5 -203.5t79.5 -290.5q0 -162 -80.5 -294.5t-217.5 -207t-300 -74.5q-164 0 -300.5 73t-216 204t-79.5 293zM408 549q0 -123 78 -202t192 -79t191 79t77 202q0 121 -78 199.5t-192 78.5t-191 -78t-77 -200 z" />
<glyph unicode="p" horiz-adv-x="1404" d="M147 -541v1635h318v-136h4q115 156 334 156q117 0 216.5 -49.5t165 -130t102 -181t36.5 -204.5q0 -107 -38.5 -209t-106 -182t-168 -129t-215.5 -49q-209 0 -324 141h-4v-662h-320zM459 549q0 -123 78 -202t192 -79t192 79t78 202q0 121 -78 198.5t-194 77.5 q-112 0 -190 -77.5t-78 -198.5z" />
<glyph unicode="q" horiz-adv-x="1404" d="M82 549q0 104 38.5 205t105.5 181t167 129.5t213 49.5q209 0 332 -145h2v125h315v-1635h-317v666h-4q-105 -145 -332 -145q-115 0 -214 47.5t-165.5 126.5t-103.5 181.5t-37 213.5zM406 549q0 -123 78 -202t192 -79t192 79t78 202q0 121 -78 198.5t-192 77.5t-192 -77.5 t-78 -198.5z" />
<glyph unicode="r" horiz-adv-x="870" d="M147 0v1094h318v-168h2q35 76 117.5 128t191.5 52q40 0 64 -8v-316q-38 6 -76 6q-80 0 -138.5 -25t-92.5 -70.5t-50 -102.5t-16 -127v-463h-320z" />
<glyph unicode="s" horiz-adv-x="1048" d="M57 227l236 140q30 -61 94 -97.5t152 -36.5q59 0 96 24t37 56q0 33 -35 58.5t-139 48.5q-389 86 -389 354q0 152 124 249t295 97q151 0 260 -60t162 -161l-231 -137q-61 104 -199 104q-50 0 -82 -23.5t-32 -56.5q0 -34 32.5 -59t110.5 -41q207 -43 314.5 -128t107.5 -228 q0 -157 -117 -256t-319 -99q-345 0 -478 252z" />
<glyph unicode="t" horiz-adv-x="921" d="M43 817v277h201v342h315v-342h270v-277h-270v-381q0 -93 48 -133.5t143 -40.5q37 0 73 8v-264q-69 -20 -149 -20q-213 0 -323.5 109.5t-110.5 301.5v420h-197z" />
<glyph unicode="u" horiz-adv-x="1308" d="M137 408v686h320v-611q0 -96 46.5 -152.5t141.5 -56.5q96 0 146.5 59.5t50.5 149.5v611h319v-1094h-315v135h-2q-110 -158 -305 -158q-99 0 -177 35.5t-126.5 96t-73.5 137t-25 162.5z" />
<glyph unicode="v" horiz-adv-x="1271" d="M29 1094h338l270 -729l270 729h338l-448 -1094h-326z" />
<glyph unicode="w" horiz-adv-x="1828" d="M37 1094h328l196 -678h2l205 678h295l205 -684l207 684h319l-344 -1094h-313l-224 698h-2l-225 -698h-309z" />
<glyph unicode="x" horiz-adv-x="1177" d="M23 0l393 551l-381 543h358l197 -310l203 310h352l-385 -537l395 -557h-358l-209 322l-211 -322h-354z" />
<glyph unicode="y" horiz-adv-x="1251" d="M27 1094h352l272 -625l244 625h330l-664 -1633h-342l268 656z" />
<glyph unicode="z" horiz-adv-x="1107" d="M88 0v248l510 573h-494v273h906v-244l-516 -578h520v-272h-926z" />
<glyph unicode="{" horiz-adv-x="925" d="M41 633v252h33q114 0 168.5 42t38.5 154l-31 217q-11 93 -7.5 164.5t30 124.5t64 89t94.5 58.5t122 32t145 9.5h154v-250h-121q-111 0 -158 -30.5t-50 -97.5t14 -175l26 -181q3 -32 3.5 -65.5t-14 -67.5t-38 -63t-68.5 -52t-106 -34v-2q61 -11 106 -34t68.5 -52.5 t38 -64.5t14 -68t-3.5 -64l-26 -180q-17 -108 -14 -175t50 -97.5t158 -30.5h121v-250h-154q-69 0 -125 6.5t-108.5 21.5t-90 40t-68.5 61.5t-45 86t-19.5 114t8.5 145.5l31 219q16 112 -38.5 154.5t-168.5 42.5h-33z" />
<glyph unicode="|" horiz-adv-x="641" d="M182 -238v2063h277v-2063h-277z" />
<glyph unicode="}" horiz-adv-x="925" d="M76 -8h121q111 0 158 30.5t49.5 97.5t-15.5 175l-27 180q-2 31 -2 64t14.5 68t38 64.5t68.5 52.5t105 34v2q-60 11 -105 34t-69 52t-38.5 63t-14.5 67.5t3 65.5l27 181q18 108 15.5 175t-49.5 97.5t-158 30.5h-121v250h151q123 0 210.5 -23t150.5 -76.5t86 -148t4 -230.5 l-33 -217q-8 -58 3.5 -97.5t42 -60.5t69.5 -29.5t94 -8.5h31v-252h-31q-114 0 -169.5 -42.5t-39.5 -154.5l33 -219q8 -71 8 -129t-13.5 -104.5t-33 -82.5t-52 -63t-69 -45t-83.5 -29.5t-97.5 -16.5t-110.5 -5h-151v250z" />
<glyph unicode="~" horiz-adv-x="1292" d="M109 451q-11 204 81 320t271 116q72 0 135 -24.5t99 -53.5t73 -53.5t63 -24.5q38 0 58.5 34.5t21.5 113.5h273q11 -205 -81.5 -321t-271.5 -116q-70 0 -133 24.5t-99.5 53.5t-74.5 53.5t-63 24.5q-38 0 -58.5 -34t-21.5 -113h-272z" />
<glyph unicode="&#xa1;" horiz-adv-x="661" d="M129 922q0 82 58 139t143 57q80 0 138 -57.5t58 -138.5q0 -83 -58 -141t-138 -58q-85 0 -143 58t-58 141zM156 -186v-322h352v324l-31 725h-291z" />
<glyph unicode="&#xa2;" horiz-adv-x="1267" d="M90 545q0 214 140.5 371t353.5 190v199h168v-197q156 -18 272 -103t162 -227l-277 -114q-54 122 -161 151v-534q113 29 167 153l277 -115q-54 -149 -169 -232t-271 -101v-195h-168v197q-220 29 -357 183.5t-137 373.5zM416 549q0 -95 46 -165.5t126 -96.5v522 q-77 -26 -124.5 -94t-47.5 -166z" />
<glyph unicode="&#xa3;" horiz-adv-x="1388" d="M98 264q70 41 120 77t97 80.5t71 93.5t24 101q0 13 -4 37h-289v260h172q-70 144 -70 234q0 129 70 239t194.5 176t274.5 66q202 0 335.5 -94t180.5 -256l-299 -139q-57 178 -213 178q-89 0 -145 -46.5t-56 -129.5q0 -34 11.5 -74t23 -65t35.5 -73q5 -11 8 -16h397v-260 h-313v-20q0 -164 -154 -268q27 6 52 6q75 0 171.5 -39t157.5 -39q45 0 87.5 23.5t66.5 64.5l225 -156q-46 -123 -147.5 -185.5t-235.5 -62.5q-65 0 -127 16.5t-102 36t-93.5 36t-103.5 16.5q-106 0 -266 -94z" />
<glyph unicode="&#xa4;" horiz-adv-x="1384" d="M90 147l174 172q-61 105 -61 236q0 124 59 236l-172 174l197 194l178 -180q104 55 227 55q131 0 230 -55l176 178l194 -192l-170 -174q64 -113 64 -236q0 -119 -64 -238l172 -172l-194 -196l-176 180q-113 -55 -232 -55q-117 0 -227 55l-178 -178zM485 553 q0 -89 58.5 -146t146.5 -57q90 0 148.5 57t58.5 146q0 90 -58.5 146.5t-148.5 56.5q-89 0 -147 -56.5t-58 -146.5z" />
<glyph unicode="&#xa5;" horiz-adv-x="1591" d="M72 1604h383l340 -631l346 631h379l-455 -756h367v-211h-469v-121h469v-211h-469v-305h-332v305h-469v211h469v121h-469v211h358z" />
<glyph unicode="&#xa6;" horiz-adv-x="636" d="M180 -238v799h277v-799h-277zM180 1026v799h277v-799h-277z" />
<glyph unicode="&#xa7;" horiz-adv-x="1363" d="M92 786q0 199 207 275q-49 37 -74.5 93.5t-25.5 117.5q0 162 131 258t354 96q179 0 297.5 -65t175.5 -177l-223 -137q-36 62 -101.5 96.5t-154.5 34.5q-68 0 -112 -27.5t-44 -64.5q0 -35 31.5 -61t126.5 -49l207 -50q184 -43 285.5 -121t101.5 -190q0 -193 -205 -270 q45 -35 71.5 -92.5t26.5 -116.5q0 -162 -128 -261.5t-349 -99.5q-407 0 -543 289l226 135q42 -77 124.5 -125.5t192.5 -48.5q72 0 113 27.5t41 66.5q0 38 -39.5 63.5t-155.5 53.5l-170 41q-181 43 -284 121.5t-103 187.5zM389 840q0 -81 224 -133q6 -1 8 -2q10 -2 36.5 -9 t39.5 -10t37 -8t40.5 -7.5t37.5 -4.5t40 -2q51 0 88 27t37 77q0 79 -221 130q-2 1 -3.5 1.5t-3.5 1t-4 0.5q-5 1 -42.5 10.5t-50.5 12t-41.5 8.5t-50.5 8t-44 2q-52 0 -89.5 -26t-37.5 -76z" />
<glyph unicode="&#xa8;" horiz-adv-x="901" d="M27 1442q0 72 50.5 125t125.5 53q73 0 125.5 -53t52.5 -125q0 -74 -52.5 -126t-125.5 -52q-74 0 -125 51.5t-51 126.5zM514 1442q0 72 51 125t125 53t126 -52.5t52 -125.5q0 -75 -52 -126.5t-126 -51.5t-125 51.5t-51 126.5z" />
<glyph unicode="&#xa9;" horiz-adv-x="1830" d="M92 803q0 167 66.5 320t177.5 263.5t263 176t316 65.5q166 0 318.5 -64.5t263 -174t176.5 -261.5t66 -319q0 -168 -67 -322t-179 -264.5t-265 -176.5t-319 -66t-317 65t-260.5 174.5t-174.5 262.5t-65 321zM238 805q0 -139 54.5 -267t145 -220.5t215.5 -147.5t260 -55 q136 0 261.5 55t217 147.5t146.5 220.5t55 267t-55 267t-146.5 220t-217 146.5t-261.5 54.5q-135 0 -260 -54.5t-215.5 -147t-145 -220t-54.5 -266.5zM406 803q0 -218 146 -361t374 -143q161 0 284.5 76t178.5 225l-248 102q-62 -143 -213 -143q-105 0 -169.5 69.5 t-64.5 176.5q0 113 68 179.5t166 66.5q147 0 207 -144l249 103q-48 144 -171.5 221.5t-284.5 77.5q-143 0 -263 -66.5t-189.5 -183t-69.5 -256.5z" />
<glyph unicode="&#xaa;" horiz-adv-x="1128" d="M139 1176q0 98 45 187.5t131.5 148.5t192.5 59q144 0 227 -103h4v86h222v-761h-222v88h-4q-75 -103 -231 -103q-160 0 -262.5 119t-102.5 279zM150 408h811v198h-811v-198zM367 1176q0 -85 54.5 -140t133.5 -55t133.5 55t54.5 140t-54 138.5t-134 53.5t-134 -53.5 t-54 -138.5z" />
<glyph unicode="&#xab;" horiz-adv-x="1380" d="M57 616l480 474l172 -170l-306 -302l308 -303l-176 -170zM623 616l479 474l172 -170l-307 -302l307 -303l-174 -170z" />
<glyph unicode="&#xac;" horiz-adv-x="1470" d="M100 854v291h1225v-664h-309v373h-916z" />
<glyph unicode="&#xad;" horiz-adv-x="937" d="M131 508v315h676v-315h-676z" />
<glyph unicode="&#xae;" horiz-adv-x="1335" d="M106 1057q0 152 75 281.5t204.5 205.5t282.5 76t282.5 -76t205 -205.5t75.5 -281.5q0 -153 -75.5 -282.5t-205 -205t-282.5 -75.5t-282.5 75.5t-204.5 205t-75 282.5zM213 1057q0 -192 133 -326.5t322 -134.5q188 0 322 135t134 326t-134 326t-322 135 q-189 0 -322 -134.5t-133 -326.5zM451 735v643h254q99 0 163 -52.5t64 -149.5q0 -142 -133 -189l145 -252h-147l-133 232h-80v-232h-133zM584 1090h110q42 0 72.5 20t30.5 61q0 42 -30.5 62t-74.5 20h-108v-163z" />
<glyph unicode="&#xaf;" horiz-adv-x="827" d="M41 1286v240h745v-240h-745z" />
<glyph unicode="&#xb0;" horiz-adv-x="944" d="M86 1233q0 157 113 271t272 114q160 0 273.5 -113.5t113.5 -271.5q0 -163 -113 -276t-274 -113q-159 0 -272 113.5t-113 275.5zM307 1233q0 -69 47.5 -117.5t116.5 -48.5t116.5 48.5t47.5 117.5q0 64 -49.5 113t-114.5 49q-69 0 -116.5 -47t-47.5 -115z" />
<glyph unicode="&#xb1;" horiz-adv-x="1349" d="M131 770v295h406v340h288v-340h394v-295h-394v-342h-288v342h-406zM141 0v285h1067v-285h-1067z" />
<glyph unicode="&#xb2;" horiz-adv-x="960" d="M117 872v201l360 291q61 49 85 80.5t24 66.5q0 40 -29.5 67.5t-83.5 27.5q-85 0 -127 -105l-215 90q30 107 123.5 170.5t228.5 63.5q179 0 279 -115q69 -81 69 -188q0 -94 -47.5 -157t-167.5 -157l-153 -123h373v-213h-719z" />
<glyph unicode="&#xb3;" horiz-adv-x="923" d="M98 1069l199 96q46 -100 152 -100q58 0 92 25t34 67q0 48 -29.5 70t-96.5 22h-103v187h94q59 0 90 24t31 66q0 40 -28.5 65t-92.5 25q-95 0 -139 -100l-199 96q36 99 126.5 156t224.5 57q155 0 253.5 -76t98.5 -203q0 -59 -34.5 -113t-92.5 -81q67 -25 105 -79.5 t38 -125.5q0 -130 -101 -211.5t-267 -81.5q-138 0 -228.5 56.5t-126.5 158.5z" />
<glyph unicode="&#xb4;" horiz-adv-x="624" d="M18 1276l220 383h366l-323 -383h-263z" />
<glyph unicode="&#xb5;" horiz-adv-x="1363" d="M170 -336v1430h319v-611q0 -95 47.5 -152t143.5 -57q95 0 144.5 59t49.5 150v611h320v-1094h-315v135h-2q-104 -153 -272 -151h-5q-22 0 -61.5 10t-59.5 22v-352h-309z" />
<glyph unicode="&#xb6;" horiz-adv-x="1155" d="M70 1171q0 180 134 306.5t324 126.5h424v-1604h-317v737h-107q-190 0 -324 127.5t-134 306.5z" />
<glyph unicode="&#xb7;" horiz-adv-x="661" d="M109 643q0 93 65 159t156 66q94 0 158.5 -65.5t64.5 -159.5q0 -90 -65 -154.5t-158 -64.5q-91 0 -156 65t-65 154z" />
<glyph unicode="&#xb8;" horiz-adv-x="618" d="M41 -301q58 -10 109 -10q88 0 131 52t43 142q0 59 -25 117h233q46 -90 46 -207q0 -89 -29.5 -154t-83 -102t-122 -54.5t-153.5 -17.5q-86 0 -149 19v215z" />
<glyph unicode="&#xb9;" horiz-adv-x="768" d="M31 1597l352 203h240v-928h-273v654l-213 -121z" />
<glyph unicode="&#xba;" horiz-adv-x="1107" d="M139 1171q0 169 122 284.5t294 115.5q173 0 293.5 -113t120.5 -282t-122 -283.5t-294 -114.5q-174 0 -294 112t-120 281zM150 408v198h808v-198h-808zM367 1176q0 -86 54 -140.5t134 -54.5q78 0 132 54.5t54 140.5q0 84 -54.5 138t-133.5 54q-78 0 -132 -54.5t-54 -137.5 z" />
<glyph unicode="&#xbb;" horiz-adv-x="1380" d="M106 315l308 301l-308 304l175 170l477 -474l-477 -471zM672 315l305 301l-305 304l172 170l479 -474l-477 -471z" />
<glyph unicode="&#xbc;" horiz-adv-x="2021" d="M61 1401l353 203h237v-930h-270v653l-213 -121zM313 0l1045 1604h276l-1042 -1604h-279zM1071 168v256l412 506h297v-549h153v-213h-153v-168h-240v168h-469zM1298 381h242v301z" />
<glyph unicode="&#xbd;" horiz-adv-x="2033" d="M61 1401l355 203h237v-930l-270 2v651l-213 -121zM313 0l1047 1604h276l-1042 -1604h-281zM1210 0h719v213h-375l156 123q62 51 94 79.5t64 68t44.5 78t12.5 87.5q0 107 -72 189q-96 114 -278 114q-135 0 -229 -62t-123 -169l215 -92q41 104 129 104q54 0 82 -26t28 -66 q0 -37 -22.5 -67t-85.5 -82l-359 -291v-201z" />
<glyph unicode="&#xbe;" horiz-adv-x="2091" d="M86 870l199 97q46 -101 151 -101q58 0 92.5 25t34.5 67q0 48 -30 70.5t-97 22.5h-102v186h94q59 0 90 24t31 66q0 40 -28.5 65t-92.5 25q-95 0 -139 -100l-199 96q36 99 126.5 156t223.5 57q155 0 254 -75.5t99 -202.5q0 -59 -34.5 -113.5t-92.5 -81.5q67 -25 105 -79.5 t38 -125.5q0 -130 -101.5 -211.5t-267.5 -81.5q-138 0 -228 56.5t-126 158.5zM399 0l1043 1604h278l-1042 -1604h-279zM1157 168v256l412 506h297v-549h153v-213h-153v-168h-240v168h-469zM1384 381h242v301z" />
<glyph unicode="&#xbf;" horiz-adv-x="1097" d="M66 -98q0 67 16.5 123.5t52.5 106t76.5 89t103.5 90.5q75 61 113.5 115.5t38.5 128.5v14h311v-67q0 -89 -34.5 -154t-116.5 -137l-99 -86q-72 -63 -100.5 -110.5t-28.5 -94.5q0 -67 47 -110t121 -43q66 0 121 40t90 113l277 -145q-63 -144 -198.5 -225.5t-297.5 -81.5 q-220 0 -356.5 121t-136.5 313zM412 922q0 82 58 139t142 57q80 0 138.5 -57.5t58.5 -138.5q0 -83 -58.5 -142t-138.5 -59q-84 0 -142 58.5t-58 142.5z" />
<glyph unicode="&#xc0;" horiz-adv-x="1622" d="M-2 0l612 1604h400l614 -1604h-342l-121 324h-710l-119 -324h-334zM358 2134h367l219 -383h-262zM565 631h484l-242 651z" />
<glyph unicode="&#xc1;" horiz-adv-x="1622" d="M-2 0l612 1604h400l614 -1604h-342l-121 324h-710l-119 -324h-334zM565 631h484l-242 651zM682 1751l219 383h367l-324 -383h-262z" />
<glyph unicode="&#xc2;" horiz-adv-x="1622" d="M-2 0l612 1604h400l614 -1604h-342l-121 324h-710l-119 -324h-334zM410 1749l245 356h301l246 -356h-270l-125 186l-125 -186h-272zM565 631h484l-242 651z" />
<glyph unicode="&#xc3;" horiz-adv-x="1622" d="M-2 0l612 1604h400l614 -1604h-342l-121 324h-710l-119 -324h-334zM412 1753q-9 156 61.5 245t204.5 89q57 0 106 -19.5t76 -43t56 -43t51 -19.5q69 0 69 119h199q8 -157 -62.5 -245.5t-205.5 -88.5q-55 0 -103.5 19.5t-76 43t-57.5 43t-52 19.5q-67 0 -70 -119h-196z M565 631h484l-242 651z" />
<glyph unicode="&#xc4;" horiz-adv-x="1622" d="M-2 0l612 1604h400l614 -1604h-342l-121 324h-710l-119 -324h-334zM381 1911q0 73 51 125.5t125 52.5q73 0 125.5 -53t52.5 -125q0 -73 -52.5 -125.5t-125.5 -52.5t-124.5 52t-51.5 126zM565 631h484l-242 651zM889 1911q0 73 51 125.5t125 52.5t126 -52.5t52 -125.5 t-52.5 -125.5t-125.5 -52.5t-124.5 52t-51.5 126z" />
<glyph unicode="&#xc5;" horiz-adv-x="1622" d="M-2 0l573 1505q-79 85 -79 203q0 125 93.5 213t223.5 88t223.5 -88t93.5 -213q0 -116 -79 -201l577 -1507h-342l-121 324h-710l-119 -324h-334zM565 631h484l-242 651zM676 1708q0 -52 38 -89.5t95 -37.5q56 0 93.5 37.5t37.5 89.5q0 47 -39.5 85t-91.5 38 q-59 0 -96 -35.5t-37 -87.5z" />
<glyph unicode="&#xc6;" horiz-adv-x="2158" d="M-27 0l813 1604h1250v-312h-711v-325h637v-312h-637v-346h717v-309h-1045v322h-508l-157 -322h-359zM643 629h354v665h-18z" />
<glyph unicode="&#xc7;" horiz-adv-x="1703" d="M88 801q0 227 111.5 417.5t303 300t417.5 109.5q243 0 445 -126.5t282 -346.5l-304 -139q-52 134 -164 211.5t-261 77.5q-137 0 -249 -67.5t-174.5 -182t-62.5 -250.5q0 -139 61.5 -254.5t173.5 -183.5t251 -68q147 0 261.5 81.5t168.5 215.5l305 -141 q-71 -195 -242.5 -318.5t-386.5 -152.5q37 -84 37 -191q0 -89 -29 -154t-82.5 -102t-121.5 -54.5t-154 -17.5q-87 0 -150 19v215q58 -10 109 -10q88 0 132 52t44 142q0 49 -21 103q-201 28 -360.5 140.5t-249.5 289t-90 385.5z" />
<glyph unicode="&#xc8;" horiz-adv-x="1366" d="M186 0h1063v309h-727v346h647v312h-647v325h721v312h-1057v-1604zM336 2134h366l220 -383h-263z" />
<glyph unicode="&#xc9;" horiz-adv-x="1366" d="M186 0h1063v309h-727v346h647v312h-647v325h721v312h-1057v-1604zM510 1751l217 383h369l-326 -383h-260z" />
<glyph unicode="&#xca;" horiz-adv-x="1366" d="M186 0h1063v309h-727v346h647v312h-647v325h721v312h-1057v-1604zM319 1749l252 356h299l248 -356h-270l-127 186l-123 -186h-279z" />
<glyph unicode="&#xcb;" horiz-adv-x="1357" d="M186 0v1604h1051v-312h-723v-325h647v-312h-647v-346h727v-309h-1055zM279 1911q0 73 50.5 125.5t125.5 52.5q74 0 126 -52.5t52 -125.5t-52.5 -125.5t-125.5 -52.5t-124.5 52t-51.5 126zM786 1911q0 73 51 125.5t126 52.5q74 0 126 -52.5t52 -125.5t-52.5 -125.5 t-125.5 -52.5t-125 52t-52 126z" />
<glyph unicode="&#xcc;" horiz-adv-x="706" d="M-102 2134h366l219 -383h-262zM186 0h332v1604h-332v-1604z" />
<glyph unicode="&#xcd;" horiz-adv-x="706" d="M186 0v1604h332v-1604h-332zM221 1751l219 383h369l-326 -383h-262z" />
<glyph unicode="&#xce;" horiz-adv-x="706" d="M-47 1749l252 356h301l246 -356h-271l-127 186l-123 -186h-278zM186 0h332v1604h-332v-1604z" />
<glyph unicode="&#xcf;" horiz-adv-x="706" d="M-63 1911q0 73 51.5 125.5t126.5 52.5q73 0 125.5 -53t52.5 -125q0 -73 -53 -125.5t-125 -52.5q-73 0 -125.5 52.5t-52.5 125.5zM186 0v1604h332v-1604h-332zM416 1911q0 73 51.5 125.5t126.5 52.5q73 0 124.5 -52.5t51.5 -125.5t-52 -125.5t-124 -52.5q-74 0 -126 52.5 t-52 125.5z" />
<glyph unicode="&#xd0;" horiz-adv-x="1718" d="M35 655v308h194v641h492q421 0 663 -211.5t242 -587.5q0 -178 -63 -327t-179 -254.5t-288 -164.5t-381 -59h-486v655h-194zM561 313h164q254 0 407.5 130t153.5 362q0 153 -74 264.5t-198.5 166t-284.5 54.5h-168v-327h342v-308h-342v-342z" />
<glyph unicode="&#xd1;" horiz-adv-x="1777" d="M186 0v1604h379l697 -1047v1047h327v-1604h-338l-737 1106v-1106h-328zM481 1753q-9 156 61.5 245t205.5 89q57 0 105.5 -19.5t75.5 -43t56 -43t51 -19.5q70 0 70 119h199q8 -156 -62.5 -245t-206.5 -89q-55 0 -103 19.5t-75.5 43t-57.5 43t-52 19.5q-67 0 -70 -119h-197 z" />
<glyph unicode="&#xd2;" horiz-adv-x="1841" d="M88 801q0 -171 65.5 -324t176.5 -263t264.5 -174.5t323.5 -64.5q136 0 263.5 41.5t230 118t180 178.5t119.5 230t42 266q0 227 -110 415t-300 296t-417 108q-170 0 -325 -65t-267.5 -175t-179 -263.5t-66.5 -323.5zM428 803q0 136 65.5 252t179.5 184t249 68t249 -68 t179 -184t65 -252t-65 -252.5t-179 -185t-249 -68.5t-249 68.5t-179.5 185t-65.5 252.5zM479 2134h367l219 -383h-262z" />
<glyph unicode="&#xd3;" horiz-adv-x="1841" d="M88 801q0 170 66.5 323.5t179 263.5t267.5 175t325 65q227 0 417 -108t300 -296t110 -415q0 -138 -42 -266t-119.5 -230t-180 -178.5t-230 -118t-263.5 -41.5q-170 0 -323.5 64.5t-264.5 174.5t-176.5 263t-65.5 324zM428 803q0 -136 65.5 -252.5t179.5 -185t249 -68.5 t249 68.5t179 185t65 252.5t-65 252t-179 184t-249 68t-249 -68t-179.5 -184t-65.5 -252zM780 1751l219 383h367l-324 -383h-262z" />
<glyph unicode="&#xd4;" horiz-adv-x="1841" d="M88 801q0 -171 65.5 -324t176.5 -263t264.5 -174.5t323.5 -64.5q136 0 263.5 41.5t230 118t180 178.5t119.5 230t42 266q0 227 -110 415t-300 296t-417 108q-170 0 -325 -65t-267.5 -175t-179 -263.5t-66.5 -323.5zM428 803q0 136 65.5 252t179.5 184t249 68t249 -68 t179 -184t65 -252t-65 -252.5t-179 -185t-249 -68.5t-249 68.5t-179.5 185t-65.5 252.5zM530 1749l248 356h299l248 -356h-270l-127 186l-123 -186h-275z" />
<glyph unicode="&#xd5;" horiz-adv-x="1841" d="M88 801q0 170 66.5 323.5t179 263.5t267.5 175t325 65q227 0 417 -108t300 -296t110 -415q0 -138 -42 -266t-119.5 -230t-180 -178.5t-230 -118t-263.5 -41.5q-170 0 -323.5 64.5t-264.5 174.5t-176.5 263t-65.5 324zM428 803q0 -136 65.5 -252.5t179.5 -185t249 -68.5 t249 68.5t179 185t65 252.5t-65 252t-179 184t-249 68t-249 -68t-179.5 -184t-65.5 -252zM510 1753q-9 156 61.5 245t204.5 89q57 0 106 -19.5t76 -43t56 -43t51 -19.5q70 0 70 119h198q8 -157 -62.5 -245.5t-205.5 -88.5q-55 0 -103.5 19.5t-76 43t-57.5 43t-52 19.5 q-66 0 -69 -119h-197z" />
<glyph unicode="&#xd6;" horiz-adv-x="1841" d="M88 801q0 170 66.5 323.5t179 263.5t267.5 175t325 65q227 0 417 -108t300 -296t110 -415q0 -138 -42 -266t-119.5 -230t-180 -178.5t-230 -118t-263.5 -41.5q-170 0 -323.5 64.5t-264.5 174.5t-176.5 263t-65.5 324zM428 803q0 -136 65.5 -252.5t179.5 -185t249 -68.5 t249 68.5t179 185t65 252.5t-65 252t-179 184t-249 68t-249 -68t-179.5 -184t-65.5 -252zM494 1911q0 73 50.5 125.5t125.5 52.5q73 0 125.5 -53t52.5 -125q0 -73 -52 -125.5t-126 -52.5q-73 0 -124.5 52t-51.5 126zM1001 1911q0 73 51 125.5t126 52.5q74 0 126 -52.5 t52 -125.5t-52 -125.5t-126 -52.5q-73 0 -125 52t-52 126z" />
<glyph unicode="&#xd7;" horiz-adv-x="1363" d="M106 365l381 380l-381 381l197 195l379 -381l381 381l194 -195l-380 -381l380 -380l-194 -195l-381 381l-379 -381z" />
<glyph unicode="&#xd8;" horiz-adv-x="1847" d="M90 801q0 170 66.5 323.5t179 263.5t267.5 175t325 65q270 0 481 -147l180 188l166 -153l-180 -191q180 -221 180 -516q0 -172 -66 -327t-177.5 -266t-266 -176t-325.5 -65q-268 0 -482 152l-180 -186l-166 153l180 189q-182 224 -182 518zM426 803q0 -146 80 -277 l678 711q-118 72 -258 72q-136 0 -251 -68t-182 -184.5t-67 -253.5zM664 371q117 -74 262 -74q134 0 248.5 68.5t180.5 185t66 252.5q0 153 -80 278z" />
<glyph unicode="&#xd9;" horiz-adv-x="1628" d="M170 635q0 -148 38.5 -266.5t115 -207t200.5 -136.5t287 -48q319 0 483 177.5t164 492.5v957h-328v-969q0 -155 -83 -246.5t-234 -91.5q-138 0 -224.5 87.5t-86.5 258.5l2 961h-334v-969zM373 2134h366l219 -383h-262z" />
<glyph unicode="&#xda;" horiz-adv-x="1628" d="M170 635v969h334l-2 -961q0 -171 86.5 -258.5t224.5 -87.5q151 0 234 91.5t83 246.5v969h328v-957q0 -315 -164 -492.5t-483 -177.5q-163 0 -287 48t-200.5 136.5t-115 207t-38.5 266.5zM680 1751l219 383h367l-324 -383h-262z" />
<glyph unicode="&#xdb;" horiz-adv-x="1628" d="M170 635q0 -148 38.5 -266.5t115 -207t200.5 -136.5t287 -48q319 0 483 177.5t164 492.5v957h-328v-969q0 -155 -83 -246.5t-234 -91.5q-138 0 -224.5 87.5t-86.5 258.5l2 961h-334v-969zM416 1749l250 356h301l245 -356h-270l-127 186l-123 -186h-276z" />
<glyph unicode="&#xdc;" horiz-adv-x="1628" d="M170 635v969h334l-2 -961q0 -171 86.5 -258.5t224.5 -87.5q151 0 234 91.5t83 246.5v969h328v-957q0 -315 -164 -492.5t-483 -177.5q-163 0 -287 48t-200.5 136.5t-115 207t-38.5 266.5zM385 1911q0 73 51 125.5t125 52.5t126 -52.5t52 -125.5t-52.5 -125.5t-125.5 -52.5 t-124.5 52t-51.5 126zM893 1911q0 73 51 125.5t125 52.5t126 -52.5t52 -125.5t-52.5 -125.5t-125.5 -52.5q-72 0 -124 52.5t-52 125.5z" />
<glyph unicode="&#xdd;" horiz-adv-x="1568" d="M29 1604h389l368 -641l375 641h379l-586 -955v-649h-331v635zM659 1751l220 383h366l-323 -383h-263z" />
<glyph unicode="&#xde;" horiz-adv-x="1415" d="M186 0v1604h332v-273h264q123 0 227 -33t182.5 -96t122.5 -162t44 -223q0 -129 -44.5 -229.5t-124 -163t-185.5 -95t-234 -32.5h-252v-297h-332zM518 602h238q51 0 97 12t84.5 36t61.5 65.5t23 95.5q0 56 -22 98t-61 65.5t-85 34.5t-100 11h-236v-418z" />
<glyph unicode="&#xdf;" horiz-adv-x="1480" d="M147 0v1122q0 256 154.5 403.5t413.5 147.5q92 0 180 -23t162.5 -67.5t120 -118t45.5 -164.5q0 -89 -37.5 -153t-104.5 -131q-86 -83 -111.5 -116.5t-25.5 -74.5q0 -37 36.5 -64t149.5 -85q21 -11 33 -17q54 -28 91.5 -53.5t76.5 -64t59.5 -90t20.5 -113.5 q0 -170 -121 -266.5t-303 -96.5q-295 0 -397 213l217 144q29 -50 72 -78.5t88 -28.5q61 0 100 26t39 77q0 39 -44 68.5t-175 88.5q-52 24 -93 51t-79 66t-59 93.5t-21 119.5q0 63 27 121.5t65 101.5t76 80.5t65 72t27 62.5q0 60 -50 94.5t-136 34.5q-113 0 -177.5 -73.5 t-64.5 -192.5v-1116h-320z" />
<glyph unicode="&#xe0;" horiz-adv-x="1218" d="M86 305v4q0 78 30 138.5t77.5 97t113 60t130.5 32t136 8.5h109q42 0 64 22t22 58q0 57 -45 96t-131 39q-163 0 -244 -147l-244 145q68 125 194 192.5t308 67.5q217 0 346 -112.5t129 -327.5v-678h-295v135l-4 2q-110 -157 -327 -157q-154 0 -261.5 89t-107.5 236z M168 1659h367l219 -383h-262zM408 324q0 -56 39 -83.5t100 -27.5q102 0 160.5 60.5t58.5 150.5v25h-193q-70 0 -117.5 -32t-47.5 -93z" />
<glyph unicode="&#xe1;" horiz-adv-x="1218" d="M86 305v4q0 78 30 138.5t77.5 97t113 60t130.5 32t136 8.5h109q42 0 64 22t22 58q0 57 -45 96t-131 39q-163 0 -244 -147l-244 145q68 125 194 192.5t308 67.5q217 0 346 -112.5t129 -327.5v-678h-295v135l-4 2q-110 -157 -327 -157q-154 0 -261.5 89t-107.5 236z M408 324q0 -56 39 -83.5t100 -27.5q102 0 160.5 60.5t58.5 150.5v25h-193q-70 0 -117.5 -32t-47.5 -93zM471 1276l219 383h367l-324 -383h-262z" />
<glyph unicode="&#xe2;" horiz-adv-x="1218" d="M86 305v4q0 78 30 138.5t77.5 97t113 60t130.5 32t136 8.5h109q42 0 64 22t22 58q0 57 -45 96t-131 39q-163 0 -244 -147l-244 145q68 125 194 192.5t308 67.5q217 0 346 -112.5t129 -327.5v-678h-295v135l-4 2q-110 -157 -327 -157q-154 0 -261.5 89t-107.5 236z M215 1278l246 356h301l246 -356h-271l-127 186l-123 -186h-272zM408 324q0 -56 39 -83.5t100 -27.5q102 0 160.5 60.5t58.5 150.5v25h-193q-70 0 -117.5 -32t-47.5 -93z" />
<glyph unicode="&#xe3;" horiz-adv-x="1218" d="M86 305v4q0 78 30 138.5t77.5 97t113 60t130.5 32t136 8.5h109q42 0 64 22t22 58q0 57 -45 96t-131 39q-163 0 -244 -147l-244 145q68 125 194 192.5t308 67.5q217 0 346 -112.5t129 -327.5v-678h-295v135l-4 2q-110 -157 -327 -157q-154 0 -261.5 89t-107.5 236z M180 1282q-9 156 61.5 245t204.5 89q57 0 106 -19.5t76 -43t56 -43t51 -19.5q70 0 70 119h199q8 -156 -62.5 -245t-206.5 -89q-55 0 -103.5 19.5t-76 43t-57.5 43t-52 19.5q-66 0 -69 -119h-197zM408 324q0 -56 39 -83.5t100 -27.5q102 0 160.5 60.5t58.5 150.5v25h-193 q-70 0 -117.5 -32t-47.5 -93z" />
<glyph unicode="&#xe4;" horiz-adv-x="1218" d="M86 305v4q0 78 30 138.5t77.5 97t113 60t130.5 32t136 8.5h109q42 0 64 22t22 58q0 57 -45 96t-131 39q-163 0 -244 -147l-244 145q68 125 194 192.5t308 67.5q217 0 346 -112.5t129 -327.5v-678h-295v135l-4 2q-110 -157 -327 -157q-154 0 -261.5 89t-107.5 236z M186 1442q0 72 51 125t125 53t126.5 -52.5t52.5 -125.5q0 -75 -52.5 -126.5t-126.5 -51.5t-125 51.5t-51 126.5zM408 324q0 -56 39 -83.5t100 -27.5q102 0 160.5 60.5t58.5 150.5v25h-193q-70 0 -117.5 -32t-47.5 -93zM676 1442q0 72 50.5 125t125.5 53q73 0 125.5 -53 t52.5 -125q0 -74 -52.5 -126t-125.5 -52q-74 0 -125 51.5t-51 126.5z" />
<glyph unicode="&#xe5;" horiz-adv-x="1218" d="M86 305v4q0 78 30 138.5t77.5 97t113 60t130.5 32t136 8.5h109q42 0 64 22t22 58q0 57 -45 96t-131 39q-163 0 -244 -147l-244 145q77 143 232 211q-45 70 -45 156q0 125 94 213t223 88q131 0 224.5 -88t93.5 -213q0 -92 -52 -166q207 -109 207 -381v-678h-295v135l-4 2 q-110 -157 -327 -157q-154 0 -261.5 89t-107.5 236zM408 324q0 -56 39 -83.5t100 -27.5q102 0 160.5 60.5t58.5 150.5v25h-193q-70 0 -117.5 -32t-47.5 -93zM475 1225q0 -52 37.5 -88.5t95.5 -36.5q56 0 93.5 36.5t37.5 88.5q0 48 -39 86.5t-92 38.5q-58 0 -95.5 -36 t-37.5 -89z" />
<glyph unicode="&#xe6;" horiz-adv-x="1953" d="M86 305v12q0 76 29.5 134.5t77 94.5t113 59t130 31.5t135.5 8.5h111q42 0 64 22t22 58q0 57 -45 96t-131 39q-164 0 -242 -147l-244 145q66 125 192 192.5t308 67.5q237 0 359 -131q159 133 364 133q240 0 392.5 -150.5t152.5 -391.5q0 -80 -6 -119h-793q13 -99 90 -157 t181 -58q71 0 138.5 35.5t104.5 95.5l232 -152q-140 -248 -473 -248q-136 0 -252.5 50t-196.5 141q-171 -186 -428 -186h-18q-154 0 -260.5 89t-106.5 236zM408 324q0 -56 38 -83.5t99 -27.5q107 0 164 61t57 150v25h-195q-69 0 -116 -32t-47 -93zM1081 670h471 q-4 71 -63 130.5t-168 59.5q-97 0 -163 -62.5t-77 -127.5z" />
<glyph unicode="&#xe7;" horiz-adv-x="1239" d="M82 545q0 159 78.5 291t214 207t297.5 75q182 0 322.5 -88.5t193.5 -249.5l-281 -116q-33 74 -87 117.5t-148 43.5q-110 0 -186 -75t-76 -201q0 -123 72.5 -201t189.5 -78q172 0 241 162l283 -117q-54 -142 -162 -224.5t-254 -106.5q39 -89 39 -191q0 -89 -29 -154 t-83 -102t-122 -54.5t-153 -17.5q-86 0 -149 19v215q58 -10 106 -10q89 0 132.5 52t43.5 142q0 54 -18 103q-209 38 -337 191.5t-128 367.5z" />
<glyph unicode="&#xe8;" horiz-adv-x="1284" d="M80 549q0 155 78.5 286.5t212 208t288.5 76.5q244 0 394.5 -151.5t150.5 -395.5q0 -77 -4 -114h-794q15 -100 91 -157.5t179 -57.5q71 0 139.5 35.5t104.5 95.5l231 -152q-137 -248 -471 -248q-123 0 -233.5 42.5t-191.5 116.5t-128 182t-47 233zM215 1659h369l219 -383 h-262zM414 670h471q-5 71 -65 130.5t-169 59.5q-97 0 -161.5 -62t-75.5 -128z" />
<glyph unicode="&#xe9;" horiz-adv-x="1284" d="M80 549q0 155 78.5 286.5t212 208t288.5 76.5q244 0 394.5 -151.5t150.5 -395.5q0 -77 -4 -114h-794q15 -100 91 -157.5t179 -57.5q71 0 139.5 35.5t104.5 95.5l231 -152q-137 -248 -471 -248q-123 0 -233.5 42.5t-191.5 116.5t-128 182t-47 233zM414 670h471 q-5 71 -65 130.5t-169 59.5q-97 0 -161.5 -62t-75.5 -128zM520 1276l219 383h367l-324 -383h-262z" />
<glyph unicode="&#xea;" horiz-adv-x="1284" d="M80 549q0 155 78.5 286.5t212 208t288.5 76.5q244 0 394.5 -151.5t150.5 -395.5q0 -77 -4 -114h-794q15 -100 91 -157.5t179 -57.5q71 0 139.5 35.5t104.5 95.5l231 -152q-137 -248 -471 -248q-123 0 -233.5 42.5t-191.5 116.5t-128 182t-47 233zM262 1278l248 356h299 l248 -356h-273l-125 186l-124 -186h-273zM414 670h471q-5 71 -65 130.5t-169 59.5q-97 0 -161.5 -62t-75.5 -128z" />
<glyph unicode="&#xeb;" horiz-adv-x="1284" d="M80 549q0 155 78.5 286.5t212 208t288.5 76.5q244 0 394.5 -151.5t150.5 -395.5q0 -77 -4 -114h-794q15 -100 91 -157.5t179 -57.5q71 0 139.5 35.5t104.5 95.5l231 -152q-137 -248 -471 -248q-123 0 -233.5 42.5t-191.5 116.5t-128 182t-47 233zM236 1442q0 72 50.5 125 t125.5 53q74 0 126 -52.5t52 -125.5q0 -75 -52 -126.5t-126 -51.5t-125 51.5t-51 126.5zM414 670h471q-5 71 -65 130.5t-169 59.5q-97 0 -161.5 -62t-75.5 -128zM723 1442q0 72 51 125t125 53t126 -52.5t52 -125.5q0 -75 -52 -126.5t-126 -51.5t-125 51.5t-51 126.5z" />
<glyph unicode="&#xec;" d="M-145 1659h366l219 -383h-262zM147 0h322v1094h-322v-1094z" />
<glyph unicode="&#xed;" d="M147 0v1094h322v-1094h-322zM174 1276l219 383h369l-326 -383h-262z" />
<glyph unicode="&#xee;" d="M-90 1278l250 356h299l248 -356h-273l-125 186l-125 -186h-274zM147 0h322v1094h-322v-1094z" />
<glyph unicode="&#xef;" d="M-109 1442q0 72 51 125t126 53q74 0 126 -52.5t52 -125.5q0 -75 -52 -126.5t-126 -51.5t-125.5 51.5t-51.5 126.5zM147 0v1094h322v-1094h-322zM369 1442q0 72 51.5 125t126.5 53q73 0 125.5 -53t52.5 -125q0 -74 -52.5 -126t-125.5 -52q-74 0 -126 51.5t-52 126.5z" />
<glyph unicode="&#xf0;" horiz-adv-x="1372" d="M82 539q0 151 68 273.5t189 192.5t271 70q179 0 289 -110q-87 133 -293 286l-383 -159l-73 176l268 110q-24 15 -48.5 29l-49 28t-33.5 19l162 242q115 -70 280 -191l342 142l72 -177l-248 -100q379 -355 379 -770q0 -130 -39.5 -243t-113.5 -198.5t-189 -134.5t-256 -49 q-169 0 -303.5 67t-212.5 196.5t-78 300.5zM403 539q0 -118 75.5 -196.5t197.5 -78.5q125 0 200.5 78.5t75.5 196.5q0 113 -73.5 193.5t-202.5 80.5q-126 0 -199.5 -77.5t-73.5 -196.5z" />
<glyph unicode="&#xf1;" horiz-adv-x="1312" d="M147 0v1094h320v-144h2q30 51 77 87t96 51t81 20.5t55 5.5q81 0 148 -23.5t113 -64.5t77 -96.5t45.5 -118t14.5 -131.5v-680h-320v606q0 97 -47 155t-143 58t-146.5 -61t-50.5 -152v-606h-322zM252 1282q-9 156 61.5 245t204.5 89q57 0 106 -19.5t76 -43t56 -43t51 -19.5 q70 0 70 119h198q8 -157 -62.5 -245.5t-205.5 -88.5q-55 0 -103.5 19.5t-76 43t-57.5 43t-52 19.5q-66 0 -69 -119h-197z" />
<glyph unicode="&#xf2;" horiz-adv-x="1353" d="M80 545q0 -162 79.5 -293t216 -204t300.5 -73q163 0 300 74.5t217.5 207t80.5 294.5q0 160 -79.5 290.5t-215.5 203.5t-299 73q-164 0 -301.5 -74.5t-218 -206.5t-80.5 -292zM236 1659h366l219 -383h-262zM408 549q0 122 77 200t191 78t192 -78.5t78 -199.5 q0 -123 -77 -202t-191 -79t-192 79t-78 202z" />
<glyph unicode="&#xf3;" horiz-adv-x="1353" d="M80 545q0 160 80.5 292t218 206.5t301.5 74.5q163 0 299 -73t215.5 -203.5t79.5 -290.5q0 -162 -80.5 -294.5t-217.5 -207t-300 -74.5q-164 0 -300.5 73t-216 204t-79.5 293zM408 549q0 -123 78 -202t192 -79t191 79t77 202q0 121 -78 199.5t-192 78.5t-191 -78t-77 -200 zM537 1276l219 383h366l-323 -383h-262z" />
<glyph unicode="&#xf4;" horiz-adv-x="1353" d="M80 545q0 -162 79.5 -293t216 -204t300.5 -73q163 0 300 74.5t217.5 207t80.5 294.5q0 160 -79.5 290.5t-215.5 203.5t-299 73q-164 0 -301.5 -74.5t-218 -206.5t-80.5 -292zM285 1278l245 356h301l246 -356h-270l-125 186l-125 -186h-272zM408 549q0 122 77 200t191 78 t192 -78.5t78 -199.5q0 -123 -77 -202t-191 -79t-192 79t-78 202z" />
<glyph unicode="&#xf5;" horiz-adv-x="1353" d="M80 545q0 160 80.5 292t218 206.5t301.5 74.5q163 0 299 -73t215.5 -203.5t79.5 -290.5q0 -162 -80.5 -294.5t-217.5 -207t-300 -74.5q-164 0 -300.5 73t-216 204t-79.5 293zM264 1282q-9 156 61.5 245t204.5 89q57 0 106 -19.5t76 -43t56 -43t51 -19.5q70 0 70 119h198 q8 -157 -62.5 -245.5t-205.5 -88.5q-55 0 -103.5 19.5t-76 43t-57.5 43t-52 19.5q-66 0 -69 -119h-197zM408 549q0 -123 78 -202t192 -79t191 79t77 202q0 121 -78 199.5t-192 78.5t-191 -78t-77 -200z" />
<glyph unicode="&#xf6;" horiz-adv-x="1353" d="M80 545q0 160 80.5 292t218 206.5t301.5 74.5q163 0 299 -73t215.5 -203.5t79.5 -290.5q0 -162 -80.5 -294.5t-217.5 -207t-300 -74.5q-164 0 -300.5 73t-216 204t-79.5 293zM258 1442q0 72 51 125t125 53t126 -52.5t52 -125.5q0 -75 -52 -126.5t-126 -51.5t-125 51.5 t-51 126.5zM408 549q0 -123 78 -202t192 -79t191 79t77 202q0 121 -78 199.5t-192 78.5t-191 -78t-77 -200zM745 1442q0 72 51.5 125t125.5 53t126 -52.5t52 -125.5q0 -75 -52 -126.5t-126 -51.5t-125.5 51.5t-51.5 126.5z" />
<glyph unicode="&#xf7;" horiz-adv-x="1212" d="M96 604v295h1020v-295h-1020zM432 272q0 71 50.5 124t123.5 53t123.5 -53t50.5 -124t-50.5 -123.5t-123.5 -52.5q-72 0 -123 52t-51 124zM432 1229q0 71 51.5 123.5t122.5 52.5q73 0 123.5 -52.5t50.5 -123.5q0 -72 -51 -123t-123 -51t-123 51t-51 123z" />
<glyph unicode="&#xf8;" horiz-adv-x="1357" d="M80 68l125 125q-123 148 -123 352q0 160 81 292t218.5 206.5t300.5 74.5q198 0 346 -102l129 127l117 -115l-123 -123q125 -151 125 -354q0 -162 -80.5 -294.5t-217.5 -207t-300 -74.5q-195 0 -352 107l-129 -129zM408 549q0 -76 26 -129l379 377q-62 32 -133 32 q-116 0 -194 -78.5t-78 -201.5zM541 301q62 -35 139 -35q114 0 192 79.5t78 203.5q0 68 -26 131z" />
<glyph unicode="&#xf9;" horiz-adv-x="1310" d="M137 408v686h320v-611q0 -96 46.5 -152.5t141.5 -56.5q96 0 146.5 59.5t50.5 149.5v611h319v-1094h-315v135h-2q-110 -158 -305 -158q-99 0 -177 35.5t-126.5 96t-73.5 137t-25 162.5zM207 1659h366l220 -383h-263z" />
<glyph unicode="&#xfa;" horiz-adv-x="1312" d="M137 408v686h320v-611q0 -96 46.5 -152.5t141.5 -56.5q96 0 146.5 59.5t50.5 149.5v611h319v-1094h-315v135h-2q-110 -158 -305 -158q-99 0 -177 35.5t-126.5 96t-73.5 137t-25 162.5zM522 1276l219 383h369l-326 -383h-262z" />
<glyph unicode="&#xfb;" horiz-adv-x="1310" d="M137 408v686h320v-611q0 -96 46.5 -152.5t141.5 -56.5q96 0 146.5 59.5t50.5 149.5v611h319v-1094h-315v135h-2q-110 -158 -305 -158q-99 0 -177 35.5t-126.5 96t-73.5 137t-25 162.5zM252 1278l248 356h301l246 -356h-271l-127 186l-123 -186h-274z" />
<glyph unicode="&#xfc;" horiz-adv-x="1308" d="M137 408v686h320v-611q0 -96 46.5 -152.5t141.5 -56.5q96 0 146.5 59.5t50.5 149.5v611h319v-1094h-315v135h-2q-110 -158 -305 -158q-99 0 -177 35.5t-126.5 96t-73.5 137t-25 162.5zM229 1442q0 72 51 125t126 53q74 0 126 -52.5t52 -125.5q0 -75 -52 -126.5 t-126 -51.5t-125.5 51.5t-51.5 126.5zM717 1442q0 72 51 125t125 53t126 -52.5t52 -125.5q0 -75 -52 -126.5t-126 -51.5t-125 51.5t-51 126.5z" />
<glyph unicode="&#xfd;" horiz-adv-x="1271" d="M27 1094h352l272 -625l244 625h330l-664 -1633h-342l268 656zM526 1276l219 383h367l-324 -383h-262z" />
<glyph unicode="&#xfe;" horiz-adv-x="1404" d="M147 -541v2208h320v-706h4q118 153 332 153q117 0 216.5 -49.5t165 -130t102 -181t36.5 -204.5q0 -107 -38.5 -209t-106 -182t-168 -129t-215.5 -49q-209 0 -324 141h-4v-662h-320zM459 549q0 -123 78 -202t192 -79t192 79t78 202q0 121 -78 198.5t-194 77.5 q-112 0 -190 -77.5t-78 -198.5z" />
<glyph unicode="&#xff;" horiz-adv-x="1271" d="M27 1094h352l272 -625l244 625h330l-664 -1633h-342l268 656zM221 1442q0 72 51 125t125 53t126 -52.5t52 -125.5q0 -75 -52 -126.5t-126 -51.5t-125 51.5t-51 126.5zM709 1442q0 72 51 125t125 53t126 -52.5t52 -125.5q0 -75 -52 -126.5t-126 -51.5t-125 51.5t-51 126.5 z" />
<glyph unicode="&#x100;" horiz-adv-x="1622" d="M-2 0l612 1604h400l614 -1604h-342l-121 324h-710l-119 -324h-334zM436 1778v237h748v-237h-748zM565 631h484l-242 651z" />
<glyph unicode="&#x101;" horiz-adv-x="1218" d="M86 305v4q0 78 30 138.5t77.5 97t113 60t130.5 32t136 8.5h109q42 0 64 22t22 58q0 57 -45 96t-131 39q-163 0 -244 -147l-244 145q68 125 194 192.5t308 67.5q217 0 346 -112.5t129 -327.5v-678h-295v135l-4 2q-110 -157 -327 -157q-154 0 -261.5 89t-107.5 236z M213 1286v240h745v-240h-745zM408 324q0 -56 39 -83.5t100 -27.5q102 0 160.5 60.5t58.5 150.5v25h-193q-70 0 -117.5 -32t-47.5 -93z" />
<glyph unicode="&#x102;" horiz-adv-x="1622" d="M-2 0l612 1604h400l614 -1604h-342l-121 324h-710l-119 -324h-334zM418 2126h237q11 -68 50 -109t102 -41q61 0 100.5 41t50.5 109h238q-17 -165 -124.5 -266t-264.5 -101t-265.5 103t-123.5 264zM565 631h484l-242 651z" />
<glyph unicode="&#x103;" horiz-adv-x="1218" d="M86 305v4q0 78 30 138.5t77.5 97t113 60t130.5 32t136 8.5h109q42 0 64 22t22 58q0 57 -45 96t-131 39q-163 0 -244 -147l-244 145q68 125 194 192.5t308 67.5q217 0 346 -112.5t129 -327.5v-678h-295v135l-4 2q-110 -157 -327 -157q-154 0 -261.5 89t-107.5 236z M227 1634h240q9 -67 47 -107t102 -40q62 0 102.5 40.5t49.5 106.5h240q-17 -164 -126 -264t-266 -100t-265.5 101.5t-123.5 262.5zM408 324q0 -56 39 -83.5t100 -27.5q102 0 160.5 60.5t58.5 150.5v25h-193q-70 0 -117.5 -32t-47.5 -93z" />
<glyph unicode="&#x104;" horiz-adv-x="1622" d="M-2 0l612 1604h400l614 -1604q-79 -49 -139 -110t-60 -119q0 -56 49 -84.5t101 -28.5q16 0 43 2v-184q-65 -21 -158 -21q-60 0 -115.5 14t-101 41.5t-73 74t-27.5 104.5q0 158 227 311h-88l-121 324h-710l-119 -324h-334zM565 631h484l-242 651z" />
<glyph unicode="&#x105;" horiz-adv-x="1222" d="M86 305v4q0 78 30 138.5t77.5 97t113 60t130.5 32t136 8.5h109q42 0 64 22t22 58q0 57 -45 96t-131 39q-163 0 -244 -147l-244 145q68 125 194 192.5t308 67.5q217 0 346 -112.5t129 -327.5v-678q-8 -6 -21 -16t-47 -40t-60 -57t-47 -59.5t-21 -56.5q0 -56 48 -84.5 t99 -28.5q18 0 45 2v-184q-65 -21 -157 -21q-81 0 -151 23.5t-118.5 78.5t-48.5 132q0 155 227 311h-43v135l-4 2q-110 -157 -327 -157q-154 0 -261.5 89t-107.5 236zM408 324q0 -56 39 -83.5t100 -27.5q102 0 160.5 60.5t58.5 150.5v25h-193q-70 0 -117.5 -32t-47.5 -93z " />
<glyph unicode="&#x106;" horiz-adv-x="1703" d="M88 801q0 227 111.5 417.5t303 300t417.5 109.5q243 0 445 -126.5t282 -346.5l-304 -139q-52 134 -164 211.5t-261 77.5q-137 0 -249 -67.5t-174.5 -182t-62.5 -250.5q0 -139 61.5 -254.5t173.5 -183.5t251 -68q147 0 261.5 81.5t168.5 215.5l305 -141 q-54 -147 -170 -257t-263.5 -165.5t-306.5 -55.5q-172 0 -325.5 63.5t-263 173t-173 262.5t-63.5 325zM762 1751l219 383h367l-324 -383h-262z" />
<glyph unicode="&#x107;" horiz-adv-x="1239" d="M82 545q0 159 78.5 291t214 207t297.5 75q182 0 322.5 -88.5t193.5 -249.5l-281 -116q-33 74 -87 117.5t-148 43.5q-110 0 -186 -75t-76 -201q0 -123 72.5 -201t189.5 -78q172 0 241 162l283 -117q-64 -168 -203.5 -254t-322.5 -86q-127 0 -236.5 43.5t-186.5 119 t-121 181t-44 226.5zM541 1276l221 383h366l-323 -383h-264z" />
<glyph unicode="&#x108;" horiz-adv-x="1703" d="M88 801q0 227 111.5 417.5t303 300t417.5 109.5q243 0 445 -126.5t282 -346.5l-304 -139q-52 134 -164 211.5t-261 77.5q-137 0 -249 -67.5t-174.5 -182t-62.5 -250.5q0 -139 61.5 -254.5t173.5 -183.5t251 -68q147 0 261.5 81.5t168.5 215.5l305 -141 q-54 -147 -170 -257t-263.5 -165.5t-306.5 -55.5q-172 0 -325.5 63.5t-263 173t-173 262.5t-63.5 325zM526 1749l248 356h299l248 -356h-270l-127 186l-123 -186h-275z" />
<glyph unicode="&#x109;" horiz-adv-x="1239" d="M82 545q0 159 78.5 291t214 207t297.5 75q182 0 322.5 -88.5t193.5 -249.5l-281 -116q-33 74 -87 117.5t-148 43.5q-110 0 -186 -75t-76 -201q0 -123 72.5 -201t189.5 -78q172 0 241 162l283 -117q-64 -168 -203.5 -254t-322.5 -86q-127 0 -236.5 43.5t-186.5 119 t-121 181t-44 226.5zM283 1278l247 356h301l246 -356h-270l-125 186l-127 -186h-272z" />
<glyph unicode="&#x10a;" horiz-adv-x="1703" d="M88 801q0 227 111.5 417.5t303 300t417.5 109.5q243 0 445 -126.5t282 -346.5l-304 -139q-52 134 -164 211.5t-261 77.5q-137 0 -249 -67.5t-174.5 -182t-62.5 -250.5q0 -139 61.5 -254.5t173.5 -183.5t251 -68q147 0 261.5 81.5t168.5 215.5l305 -141 q-54 -147 -170 -257t-263.5 -165.5t-306.5 -55.5q-172 0 -325.5 63.5t-263 173t-173 262.5t-63.5 325zM737 1929q0 81 57.5 139t137.5 58q83 0 140.5 -57.5t57.5 -139.5q0 -80 -57.5 -137t-140.5 -57q-80 0 -137.5 57.5t-57.5 136.5z" />
<glyph unicode="&#x10b;" horiz-adv-x="1239" d="M82 545q0 159 78.5 291t214 207t297.5 75q182 0 322.5 -88.5t193.5 -249.5l-281 -116q-33 74 -87 117.5t-148 43.5q-110 0 -186 -75t-76 -201q0 -123 72.5 -201t189.5 -78q172 0 241 162l283 -117q-64 -168 -203.5 -254t-322.5 -86q-127 0 -236.5 43.5t-186.5 119 t-121 181t-44 226.5zM485 1460q0 80 57.5 137.5t137.5 57.5q83 0 141 -57.5t58 -137.5q0 -82 -58 -139t-141 -57q-80 0 -137.5 57.5t-57.5 138.5z" />
<glyph unicode="&#x10c;" horiz-adv-x="1703" d="M88 801q0 227 111.5 417.5t303 300t417.5 109.5q243 0 445 -126.5t282 -346.5l-304 -139q-52 134 -164 211.5t-261 77.5q-137 0 -249 -67.5t-174.5 -182t-62.5 -250.5q0 -139 61.5 -254.5t173.5 -183.5t251 -68q147 0 261.5 81.5t168.5 215.5l305 -141 q-54 -147 -170 -257t-263.5 -165.5t-306.5 -55.5q-172 0 -325.5 63.5t-263 173t-173 262.5t-63.5 325zM526 2105h275l123 -186l127 186h270l-248 -356h-299z" />
<glyph unicode="&#x10d;" horiz-adv-x="1239" d="M82 545q0 159 78.5 291t214 207t297.5 75q182 0 322.5 -88.5t193.5 -249.5l-281 -116q-33 74 -87 117.5t-148 43.5q-110 0 -186 -75t-76 -201q0 -123 72.5 -201t189.5 -78q172 0 241 162l283 -117q-64 -168 -203.5 -254t-322.5 -86q-127 0 -236.5 43.5t-186.5 119 t-121 181t-44 226.5zM283 1634h272l127 -186l125 186h270l-246 -356h-301z" />
<glyph unicode="&#x10e;" horiz-adv-x="1677" d="M186 0h488q209 0 381 59t288 164.5t179 254.5t63 327q0 376 -242.5 587.5t-662.5 211.5h-494v-1604zM297 2105h272l123 -186l127 186h271l-246 -356h-301zM524 313v977h168q160 0 284.5 -54.5t198.5 -166t74 -264.5q0 -232 -154 -362t-409 -130h-162z" />
<glyph unicode="&#x10f;" horiz-adv-x="1443" d="M82 549q0 -111 37 -213.5t103.5 -181.5t165.5 -126.5t214 -47.5q232 0 340 159h4v-139h309v1667h-317v-698h-4q-123 145 -328 145q-113 0 -213 -49.5t-167 -129.5t-105.5 -181t-38.5 -205zM406 549q0 121 78 198.5t192 77.5t192 -77.5t78 -198.5q0 -123 -78 -202 t-192 -79t-192 79t-78 202zM1382 1190l29 479h336l-141 -479h-224z" />
<glyph unicode="&#x110;" horiz-adv-x="1718" d="M35 655v308h194v641h492q421 0 663 -211.5t242 -587.5q0 -178 -63 -327t-179 -254.5t-288 -164.5t-381 -59h-486v655h-194zM561 313h164q254 0 407.5 130t153.5 362q0 153 -74 264.5t-198.5 166t-284.5 54.5h-168v-327h342v-308h-342v-342z" />
<glyph unicode="&#x111;" horiz-adv-x="1404" d="M82 549q0 104 38.5 205t105.5 181t167 129.5t213 49.5q205 0 328 -145h4v299h-326v217h326v184h319v-184h136v-217h-136v-1268h-311v139h-4q-108 -159 -340 -159q-115 0 -214 47.5t-165.5 126.5t-103.5 181.5t-37 213.5zM406 549q0 -123 78 -202t192 -79t192 79t78 202 q0 121 -78 198.5t-192 77.5t-192 -77.5t-78 -198.5z" />
<glyph unicode="&#x112;" horiz-adv-x="1357" d="M186 0v1604h1051v-312h-723v-325h647v-312h-647v-346h727v-309h-1055zM342 1778v237h745v-237h-745z" />
<glyph unicode="&#x113;" horiz-adv-x="1284" d="M80 549q0 155 78.5 286.5t212 208t288.5 76.5q244 0 394.5 -151.5t150.5 -395.5q0 -77 -4 -114h-794q15 -100 91 -157.5t179 -57.5q71 0 139.5 35.5t104.5 95.5l231 -152q-137 -248 -471 -248q-123 0 -233.5 42.5t-191.5 116.5t-128 182t-47 233zM287 1286v240h745v-240 h-745zM414 670h471q-5 71 -65 130.5t-169 59.5q-97 0 -161.5 -62t-75.5 -128z" />
<glyph unicode="&#x116;" horiz-adv-x="1357" d="M186 0h1055v309h-727v346h647v312h-647v325h723v312h-1051v-1604zM518 1929q0 81 57.5 139t137.5 58q83 0 140.5 -57.5t57.5 -139.5q0 -80 -57.5 -137t-140.5 -57q-80 0 -137.5 57.5t-57.5 136.5z" />
<glyph unicode="&#x117;" horiz-adv-x="1284" d="M80 549q0 155 78.5 286.5t212 208t288.5 76.5q244 0 394.5 -151.5t150.5 -395.5q0 -77 -4 -114h-794q15 -100 91 -157.5t179 -57.5q71 0 139.5 35.5t104.5 95.5l231 -152q-137 -248 -471 -248q-123 0 -233.5 42.5t-191.5 116.5t-128 182t-47 233zM414 670h471 q-5 71 -65 130.5t-169 59.5q-97 0 -161.5 -62t-75.5 -128zM467 1460q0 80 57.5 137.5t137.5 57.5q81 0 138.5 -57.5t57.5 -137.5q0 -82 -57 -139t-139 -57q-80 0 -137.5 57.5t-57.5 138.5z" />
<glyph unicode="&#x118;" horiz-adv-x="1357" d="M186 0v1604h1051v-312h-723v-325h647v-312h-647v-346h727v-309q-79 -49 -139 -110t-60 -119q0 -56 48.5 -84.5t99.5 -28.5q18 0 45 2v-184q-68 -21 -158 -21q-60 0 -115.5 14t-101 41.5t-73 74t-27.5 104.5q0 156 227 311h-801z" />
<glyph unicode="&#x119;" horiz-adv-x="1284" d="M80 549q0 155 78.5 286.5t212 208t288.5 76.5q244 0 394.5 -151.5t150.5 -395.5q0 -77 -4 -114h-794q15 -100 91 -157.5t179 -57.5q71 0 139.5 35.5t104.5 95.5l231 -152q-44 -80 -137 -155q-63 -51 -91.5 -74.5t-69.5 -61t-58.5 -60t-31 -49.5t-13.5 -52q0 -56 48 -84.5 t99 -28.5q18 0 45 2v-184q-65 -21 -158 -21q-60 0 -115.5 14t-101 41.5t-73 74t-27.5 104.5q0 139 182 286q-247 9 -408 169t-161 405zM414 670h471q-5 71 -65 130.5t-169 59.5q-97 0 -161.5 -62t-75.5 -128z" />
<glyph unicode="&#x11a;" horiz-adv-x="1357" d="M186 0h1055v309h-727v346h647v312h-647v325h723v312h-1051v-1604zM317 2105h273l125 -186l125 186h270l-246 -356h-301z" />
<glyph unicode="&#x11b;" horiz-adv-x="1284" d="M80 549q0 155 78.5 286.5t212 208t288.5 76.5q244 0 394.5 -151.5t150.5 -395.5q0 -77 -4 -114h-794q15 -100 91 -157.5t179 -57.5q71 0 139.5 35.5t104.5 95.5l231 -152q-137 -248 -471 -248q-123 0 -233.5 42.5t-191.5 116.5t-128 182t-47 233zM260 1634h275l122 -186 l127 186h271l-246 -356h-301zM414 670h471q-5 71 -65 130.5t-169 59.5q-97 0 -161.5 -62t-75.5 -128z" />
<glyph unicode="&#x11c;" horiz-adv-x="1757" d="M88 801q0 172 67 326t179.5 263.5t266.5 173.5t323 64q118 0 224.5 -28t185 -73t142.5 -105t103.5 -121.5t62.5 -124.5l-292 -144q-20 50 -52 96t-82.5 90t-127 70.5t-168.5 26.5q-204 0 -349 -148t-145 -364q0 -139 62 -255.5t176 -186.5t256 -70q160 0 271.5 74.5 t141.5 195.5h-487v301h833v-125q0 -146 -41.5 -271t-113 -214t-168 -152.5t-207.5 -94t-229 -30.5q-182 0 -338.5 65t-264 176.5t-168.5 263t-61 321.5zM528 1749l248 356h299l248 -356h-270l-127 186l-123 -186h-275z" />
<glyph unicode="&#x11d;" horiz-adv-x="1396" d="M82 557q0 104 37 203t102.5 177t164 125.5t212.5 47.5q207 0 332 -149h4v133h313v-1098q0 -128 -45 -232t-124 -171.5t-187 -103.5t-234 -36q-405 0 -553 314l261 149q92 -184 290 -184q124 0 199.5 64.5t75.5 191.5v166h-4q-113 -146 -316 -146q-154 0 -275.5 73 t-187 198t-65.5 278zM295 1278l246 356h301l245 -356h-270l-127 186l-123 -186h-272zM406 557q0 -121 75.5 -195.5t190.5 -74.5q113 0 189.5 75t76.5 195t-76 194t-190 74q-112 0 -189 -75t-77 -193z" />
<glyph unicode="&#x11e;" horiz-adv-x="1755" d="M88 801q0 172 67 326t179.5 263.5t266.5 173.5t323 64q118 0 224.5 -28t185 -73t142.5 -105t103.5 -121.5t62.5 -124.5l-292 -144q-20 50 -52 96t-82.5 90t-127 70.5t-168.5 26.5q-204 0 -349 -148t-145 -364q0 -139 62 -255.5t176 -186.5t256 -70q160 0 271.5 74.5 t141.5 195.5h-487v301h833v-125q0 -146 -41.5 -271t-113 -214t-168 -152.5t-207.5 -94t-229 -30.5q-182 0 -338.5 65t-264 176.5t-168.5 263t-61 321.5zM535 2126h239q11 -68 49.5 -109t100.5 -41q63 0 102.5 41t48.5 109h240q-17 -165 -124.5 -266t-266.5 -101 q-157 0 -265.5 103t-123.5 264z" />
<glyph unicode="&#x11f;" horiz-adv-x="1396" d="M82 557q0 104 37 203t102.5 177t164 125.5t212.5 47.5q207 0 332 -149h4v133h313v-1098q0 -128 -45 -232t-124 -171.5t-187 -103.5t-234 -36q-405 0 -553 314l261 149q92 -184 290 -184q124 0 199.5 64.5t75.5 191.5v166h-4q-113 -146 -316 -146q-154 0 -275.5 73 t-187 198t-65.5 278zM303 1634h240q11 -67 49 -107t100 -40q63 0 103 40t51 107h237q-17 -164 -125 -264t-266 -100q-156 0 -264 101t-125 263zM406 557q0 -121 75.5 -195.5t190.5 -74.5q113 0 189.5 75t76.5 195t-76 194t-190 74q-112 0 -189 -75t-77 -193z" />
<glyph unicode="&#x120;" horiz-adv-x="1755" d="M88 801q0 172 67 326t179.5 263.5t266.5 173.5t323 64q118 0 224.5 -28t185 -73t142.5 -105t103.5 -121.5t62.5 -124.5l-292 -144q-20 50 -52 96t-82.5 90t-127 70.5t-168.5 26.5q-204 0 -349 -148t-145 -364q0 -139 62 -255.5t176 -186.5t256 -70q160 0 271.5 74.5 t141.5 195.5h-487v301h833v-125q0 -146 -41.5 -271t-113 -214t-168 -152.5t-207.5 -94t-229 -30.5q-182 0 -338.5 65t-264 176.5t-168.5 263t-61 321.5zM729 1929q0 81 57.5 139t137.5 58q82 0 139 -57.5t57 -139.5q0 -80 -57.5 -137t-138.5 -57q-80 0 -137.5 57.5 t-57.5 136.5z" />
<glyph unicode="&#x121;" horiz-adv-x="1396" d="M82 557q0 104 37 203t102.5 177t164 125.5t212.5 47.5q207 0 332 -149h4v133h313v-1098q0 -128 -45 -232t-124 -171.5t-187 -103.5t-234 -36q-405 0 -553 314l261 149q92 -184 290 -184q124 0 199.5 64.5t75.5 191.5v166h-4q-113 -146 -316 -146q-154 0 -275.5 73 t-187 198t-65.5 278zM406 557q0 -121 75.5 -195.5t190.5 -74.5q113 0 189.5 75t76.5 195t-76 194t-190 74q-112 0 -189 -75t-77 -193zM469 1460q0 80 57.5 137.5t137.5 57.5q81 0 138.5 -57.5t57.5 -137.5q0 -82 -57 -139t-139 -57q-80 0 -137.5 57.5t-57.5 138.5z" />
<glyph unicode="&#x122;" horiz-adv-x="1755" d="M88 801q0 172 67 326t179.5 263.5t266.5 173.5t323 64q118 0 224.5 -28t185 -73t142.5 -105t103.5 -121.5t62.5 -124.5l-292 -144q-20 50 -52 96t-82.5 90t-127 70.5t-168.5 26.5q-204 0 -349 -148t-145 -364q0 -139 62 -255.5t176 -186.5t256 -70q160 0 271.5 74.5 t141.5 195.5h-487v301h833v-125q0 -146 -41.5 -271t-113 -214t-168 -152.5t-207.5 -94t-229 -30.5q-182 0 -338.5 65t-264 176.5t-168.5 263t-61 321.5zM717 -293q0 73 50 123.5t122 50.5q83 0 136.5 -59.5t53.5 -157.5v-10q0 -110 -64 -212.5t-171 -174.5l-99 94 q62 41 105 88.5t74 114.5q-29 -13 -60 -13q-63 0 -105 43.5t-42 112.5z" />
<glyph unicode="&#x123;" horiz-adv-x="1396" d="M82 557q0 104 37 203t102.5 177t164 125.5t212.5 47.5q207 0 332 -149h4v133h313v-1098q0 -128 -45 -232t-124 -171.5t-187 -103.5t-234 -36q-405 0 -553 314l261 149q92 -184 290 -184q124 0 199.5 64.5t75.5 191.5v166h-4q-113 -146 -316 -146q-154 0 -275.5 73 t-187 198t-65.5 278zM406 557q0 -121 75.5 -195.5t190.5 -74.5q113 0 189.5 75t76.5 195t-76 194t-190 74q-112 0 -189 -75t-77 -193zM481 1479v8q0 110 63.5 212.5t170.5 174.5l100 -94q-63 -39 -105.5 -86.5t-72.5 -114.5q30 10 59 10q63 0 105.5 -43.5t42.5 -111.5 q0 -72 -51 -122t-123 -50q-83 0 -136 59.5t-53 157.5z" />
<glyph unicode="&#x126;" horiz-adv-x="1748" d="M39 1194v225h168v187h332v-187h671v187h330v-187h168v-225h-168v-1194h-330v649h-671v-649h-332v1194h-168zM539 971h671v223h-671v-223z" />
<glyph unicode="&#x127;" horiz-adv-x="1308" d="M10 1268v217h137v184h320v-184h326v-217h-326v-303h2q32 46 76 78t88.5 46t77 19.5t59.5 5.5q100 0 178.5 -36t126 -97t72 -137.5t24.5 -163.5v-680h-319v606q0 95 -47 154t-141 59q-97 0 -147 -61.5t-50 -147.5v-610h-320v1268h-137z" />
<glyph unicode="&#x128;" horiz-adv-x="706" d="M-57 1753q-9 156 61.5 245t204.5 89q57 0 106 -19.5t76 -43t56 -43t51 -19.5q69 0 69 119h199q8 -157 -62.5 -245.5t-205.5 -88.5q-55 0 -103.5 19.5t-76 43t-57.5 43t-52 19.5q-67 0 -70 -119h-196zM180 0v1604h332v-1604h-332z" />
<glyph unicode="&#x129;" d="M-104 1282q-9 156 61.5 245t204.5 89q57 0 106 -19.5t76 -43t56 -43t51 -19.5q69 0 69 119h199q8 -157 -62.5 -245.5t-205.5 -88.5q-55 0 -103.5 19.5t-76 43t-57.5 43t-52 19.5q-67 0 -70 -119h-196zM141 0v1094h322v-1094h-322z" />
<glyph unicode="&#x12a;" horiz-adv-x="706" d="M-12 1778v237h731v-237h-731zM186 0v1604h332v-1604h-332z" />
<glyph unicode="&#x12b;" d="M-41 1286v240h700v-240h-700zM147 0v1094h322v-1094h-322z" />
<glyph unicode="&#x12c;" horiz-adv-x="706" d="M-39 2126h242q9 -68 47.5 -109t101.5 -41q62 0 102.5 41.5t49.5 108.5h239q-17 -165 -125.5 -266t-265.5 -101q-156 0 -265 102.5t-126 264.5zM186 0v1604h332v-1604h-332z" />
<glyph unicode="&#x12d;" d="M-84 1634h242q9 -67 47 -107t102 -40q63 0 103 40t51 107h237q-17 -164 -125 -264t-266 -100q-157 0 -265.5 101.5t-125.5 262.5zM147 0v1094h322v-1094h-322z" />
<glyph unicode="&#x12e;" horiz-adv-x="706" d="M37 -311q0 156 227 311h-78v1604h332v-1604q-79 -50 -139 -111t-60 -118q0 -56 48.5 -84.5t99.5 -28.5q18 0 45 2v-184q-68 -21 -156 -21q-61 0 -117 14t-101.5 41.5t-73 74t-27.5 104.5z" />
<glyph unicode="&#x12f;" d="M-12 -311q0 153 225 311h-66v1094h322v-1094q-77 -47 -138 -109.5t-61 -119.5q0 -56 48.5 -84.5t99.5 -28.5q18 0 45 2v-184q-65 -21 -158 -21q-61 0 -116.5 14t-101 41.5t-72.5 74t-27 104.5zM109 1475q0 83 58 140.5t138 57.5q85 0 143 -57.5t58 -140.5 q0 -82 -58.5 -139.5t-142.5 -57.5q-80 0 -138 58t-58 139z" />
<glyph unicode="&#x130;" horiz-adv-x="706" d="M158 1929q0 82 57 139.5t137 57.5q83 0 141 -57.5t58 -139.5q0 -80 -58 -137t-141 -57q-80 0 -137 57.5t-57 136.5zM186 0h334v1604h-334v-1604z" />
<glyph unicode="&#x131;" d="M147 0v1094h322v-1094h-322z" />
<glyph unicode="&#x132;" horiz-adv-x="1980" d="M186 0v1604h332v-1604h-332zM766 324l281 155q70 -182 227 -182q94 0 147.5 56t53.5 159v1092h331v-1117q0 -122 -41.5 -219.5t-114 -159.5t-167 -95t-203.5 -33q-182 0 -313 86.5t-201 257.5z" />
<glyph unicode="&#x133;" horiz-adv-x="1249" d="M109 1475q0 83 58 140.5t138 57.5q85 0 143 -57.5t58 -140.5q0 -82 -58.5 -139.5t-142.5 -57.5q-80 0 -138 58t-58 139zM147 0h322v1094h-322v-1094zM518 -258q27 -6 55 -6q105 0 156 44.5t51 153.5v1160h320v-1176q0 -235 -116.5 -347t-352.5 -112q-62 0 -113 15v268z M741 1475q0 83 57.5 140.5t139.5 57.5q84 0 142.5 -57.5t58.5 -140.5q0 -82 -59 -139.5t-142 -57.5q-82 0 -139.5 57.5t-57.5 139.5z" />
<glyph unicode="&#x136;" horiz-adv-x="1507" d="M186 0v1604h330v-699l551 699h414l-613 -766l654 -838h-428l-578 762v-762h-330zM600 -293q0 73 50 123.5t122 50.5q83 0 137 -59.5t54 -157.5v-10q0 -110 -64.5 -212t-171.5 -175l-98 94q62 41 104.5 88.5t73.5 114.5q-29 -13 -59 -13q-64 0 -106 44t-42 112z" />
<glyph unicode="&#x137;" horiz-adv-x="1267" d="M147 0v1669h320v-1005l379 430h407l-440 -504l453 -590h-404l-387 518h-8v-518h-320zM457 -293q0 73 50 123.5t122 50.5q83 0 136.5 -59.5t53.5 -157.5v-10q0 -110 -64 -212.5t-171 -174.5l-99 94q62 41 105 88.5t74 114.5q-29 -13 -60 -13q-63 0 -105 43.5t-42 112.5z " />
<glyph unicode="&#x139;" horiz-adv-x="1236" d="M186 0v1604h332v-1289h686v-315h-1018zM244 1751l219 383h366l-323 -383h-262z" />
<glyph unicode="&#x13a;" d="M147 0v1669h322v-1669h-322zM174 1817l219 385h369l-326 -385h-262z" />
<glyph unicode="&#x13b;" horiz-adv-x="1236" d="M186 0v1604h330v-1289h686v-315h-1016zM510 -293q0 73 50 123.5t122 50.5q83 0 136.5 -59.5t53.5 -157.5v-10q0 -110 -64 -212.5t-171 -174.5l-98 94q62 41 104.5 88.5t73.5 114.5q-29 -13 -60 -13q-63 0 -105 43.5t-42 112.5z" />
<glyph unicode="&#x13c;" d="M121 -293q0 73 50 123.5t122 50.5q83 0 136.5 -59.5t53.5 -157.5v-10q0 -110 -64 -212.5t-171 -174.5l-98 94q62 41 104.5 88.5t73.5 114.5q-29 -13 -60 -13q-63 0 -105 43.5t-42 112.5zM147 0v1669h322v-1669h-322z" />
<glyph unicode="&#x13d;" horiz-adv-x="1257" d="M186 0v1604h330v-1289h686v-315h-1016zM840 1169l28 480h334l-139 -480h-223z" />
<glyph unicode="&#x13e;" horiz-adv-x="655" d="M147 0v1669h322v-1669h-322zM594 1190l29 479h333l-139 -479h-223z" />
<glyph unicode="&#x13f;" horiz-adv-x="1257" d="M186 0v1604h330v-1289h686v-315h-1016zM805 799q0 81 58 139.5t138 58.5q83 0 142 -58t59 -140q0 -83 -59 -141t-142 -58q-80 0 -138 58t-58 141z" />
<glyph unicode="&#x140;" horiz-adv-x="970" d="M147 0v1669h322v-1669h-322zM590 758q0 83 57 140.5t137 57.5q85 0 143 -57.5t58 -140.5q0 -82 -58.5 -140.5t-142.5 -58.5q-80 0 -137 58.5t-57 140.5z" />
<glyph unicode="&#x141;" horiz-adv-x="1323" d="M61 485v306l211 96v717h330v-568l420 191v-305l-420 -193v-410h686v-319h-1016v582z" />
<glyph unicode="&#x142;" horiz-adv-x="888" d="M82 381v307l209 113v868h317v-694l211 117v-308l-211 -112v-672h-317v494z" />
<glyph unicode="&#x143;" horiz-adv-x="1777" d="M186 0v1604h379l697 -1047v1047h327v-1604h-338l-737 1106v-1106h-328zM797 1751l219 383h366l-323 -383h-262z" />
<glyph unicode="&#x144;" horiz-adv-x="1310" d="M147 0v1094h318v-144h4q29 51 76 87t95.5 51t80.5 20.5t55 5.5q81 0 148 -23.5t113 -64.5t77 -96.5t45.5 -118t14.5 -131.5v-680h-320v606q0 97 -47 155t-143 58t-146.5 -61t-50.5 -152v-606h-320zM498 1276l219 383h366l-323 -383h-262z" />
<glyph unicode="&#x145;" horiz-adv-x="1777" d="M186 0v1604h379l697 -1047v1047h327v-1604h-338l-737 1106v-1106h-328zM702 -293q0 73 50 123.5t122 50.5q83 0 137 -59.5t54 -157.5v-10q0 -110 -64.5 -212t-171.5 -175l-98 94q62 41 104.5 88.5t73.5 114.5q-29 -13 -59 -13q-64 0 -106 44t-42 112z" />
<glyph unicode="&#x146;" horiz-adv-x="1308" d="M147 0v1094h318v-144h2q29 51 76 87t95.5 51t81 20.5t56.5 5.5q81 0 148 -23.5t112 -64t76 -96.5t45 -118.5t14 -131.5v-680h-317v606q0 97 -47.5 155t-142.5 58q-96 0 -146.5 -61t-50.5 -152v-606h-320zM475 -293q0 73 50 123.5t122 50.5q83 0 137 -59.5t54 -157.5v-10 q0 -110 -64.5 -212t-171.5 -175l-98 94q62 41 104.5 88.5t73.5 114.5q-29 -13 -59 -13q-64 0 -106 44t-42 112z" />
<glyph unicode="&#x147;" horiz-adv-x="1777" d="M186 0v1604h379l697 -1047v1047h327v-1604h-338l-737 1106v-1106h-328zM543 2105h270l125 -186l127 186h270l-245 -356h-302z" />
<glyph unicode="&#x148;" horiz-adv-x="1310" d="M147 0h320v606q0 91 50.5 152t146.5 61t143 -58t47 -155v-606h320v680q0 69 -14.5 131.5t-45.5 118t-77 96.5t-113 64.5t-148 23.5q-23 0 -55 -5.5t-80.5 -20.5t-95.5 -51t-76 -87h-4v144h-318v-1094zM264 1634h273l125 -186l124 186h273l-248 -356h-299z" />
<glyph unicode="&#x14a;" horiz-adv-x="1777" d="M186 0v1604h379l697 -1045v1045h327v-1686q0 -235 -116 -347t-351 -112q-63 0 -114 15v268q27 -6 55 -6q199 0 199 198v50l-748 1122v-1106h-328z" />
<glyph unicode="&#x14b;" horiz-adv-x="1308" d="M147 0v1094h318v-144h2q29 51 76 87t95.5 51t81 20.5t56.5 5.5q81 0 148 -23.5t112 -64t76 -96.5t45 -118.5t14 -131.5v-762q0 -235 -115 -347t-351 -112q-62 0 -113 15v268q27 -6 55 -6q105 0 156 44.5t51 153.5v672q0 97 -47.5 155t-142.5 58q-96 0 -146.5 -61 t-50.5 -152v-606h-320z" />
<glyph unicode="&#x14c;" horiz-adv-x="1841" d="M88 801q0 170 66.5 323.5t179 263.5t267.5 175t325 65q227 0 417 -108t300 -296t110 -415q0 -138 -42 -266t-119.5 -230t-180 -178.5t-230 -118t-263.5 -41.5q-170 0 -323.5 64.5t-264.5 174.5t-176.5 263t-65.5 324zM428 803q0 -136 65.5 -252.5t179.5 -185t249 -68.5 t249 68.5t179 185t65 252.5t-65 252t-179 184t-249 68t-249 -68t-179.5 -184t-65.5 -252zM551 1778v237h745v-237h-745z" />
<glyph unicode="&#x14d;" horiz-adv-x="1353" d="M80 545q0 160 80.5 292t218 206.5t301.5 74.5q163 0 299 -73t215.5 -203.5t79.5 -290.5q0 -162 -80.5 -294.5t-217.5 -207t-300 -74.5q-164 0 -300.5 73t-216 204t-79.5 293zM305 1286v240h746v-240h-746zM408 549q0 -123 78 -202t192 -79t191 79t77 202q0 121 -78 199.5 t-192 78.5t-191 -78t-77 -200z" />
<glyph unicode="&#x150;" horiz-adv-x="1841" d="M88 801q0 170 66.5 323.5t179 263.5t267.5 175t325 65q227 0 417 -108t300 -296t110 -415q0 -138 -42 -266t-119.5 -230t-180 -178.5t-230 -118t-263.5 -41.5q-170 0 -323.5 64.5t-264.5 174.5t-176.5 263t-65.5 324zM428 803q0 -136 65.5 -252.5t179.5 -185t249 -68.5 t249 68.5t179 185t65 252.5t-65 252t-179 184t-249 68t-249 -68t-179.5 -184t-65.5 -252zM569 1745l219 385h359l-326 -385h-252zM1022 1745l219 385h358l-325 -385h-252z" />
<glyph unicode="&#x151;" horiz-adv-x="1353" d="M80 545q0 160 80.5 292t218 206.5t301.5 74.5q163 0 299 -73t215.5 -203.5t79.5 -290.5q0 -162 -80.5 -294.5t-217.5 -207t-300 -74.5q-164 0 -300.5 73t-216 204t-79.5 293zM315 1276l222 383h356l-324 -383h-254zM408 549q0 -123 78 -202t192 -79t191 79t77 202 q0 121 -78 199.5t-192 78.5t-191 -78t-77 -200zM768 1276l219 383h359l-324 -383h-254z" />
<glyph unicode="&#x152;" horiz-adv-x="2586" d="M88 797q0 170 66.5 324.5t179 265t267.5 176t325 65.5q277 0 489 -192v168h1049v-312h-725v-325h651v-312h-651v-346h731v-309h-1055v170q-99 -88 -227.5 -139t-272.5 -51q-171 0 -324 63t-263.5 171.5t-175 260t-64.5 322.5zM428 803q0 -136 66.5 -252t180.5 -184 t249 -68q134 0 247.5 68t179.5 184t66 252q0 137 -66 253.5t-179.5 184.5t-247.5 68q-205 0 -350.5 -148.5t-145.5 -357.5z" />
<glyph unicode="&#x153;" horiz-adv-x="2152" d="M80 545q0 160 80.5 292t218 206.5t301.5 74.5q127 0 238.5 -45t193.5 -129q79 83 187 129.5t229 46.5q244 0 395.5 -152t151.5 -395q0 -49 -7 -114h-794q13 -91 85 -153t185 -62q71 0 139.5 35.5t104.5 95.5l231 -152q-137 -248 -471 -248q-134 0 -246.5 46.5 t-191.5 128.5q-85 -83 -196.5 -129t-237.5 -46q-164 0 -300.5 73t-216 204t-79.5 293zM408 549q0 -123 78 -202t192 -79t191 79t77 202q0 121 -78 199.5t-192 78.5t-191 -78t-77 -200zM1282 670h469q-2 32 -15.5 64t-40 61t-72 47t-103.5 18q-97 0 -162 -62.5t-76 -127.5z " />
<glyph unicode="&#x154;" horiz-adv-x="1497" d="M186 0v1604h633q118 0 220 -32t180 -94t122.5 -160t44.5 -222q0 -172 -83.5 -291.5t-245.5 -177.5l362 -627h-368l-332 575h-201v-575h-332zM518 883h277q66 0 121.5 19t95 67.5t39.5 120.5q0 55 -22 95.5t-60.5 62.5t-82 32t-93.5 10h-275v-407zM559 1751l219 383h369 l-326 -383h-262z" />
<glyph unicode="&#x155;" horiz-adv-x="870" d="M147 0v1094h318v-168h2q35 76 117.5 128t191.5 52q40 0 64 -8v-316q-38 6 -76 6q-80 0 -138.5 -25t-92.5 -70.5t-50 -102.5t-16 -127v-463h-320zM303 1276l219 383h367l-324 -383h-262z" />
<glyph unicode="&#x156;" horiz-adv-x="1497" d="M186 0v1604h633q118 0 220 -32t180 -94t122.5 -160t44.5 -222q0 -172 -83.5 -291.5t-245.5 -177.5l362 -627h-368l-332 575h-201v-575h-332zM518 883h277q66 0 121.5 19t95 67.5t39.5 120.5q0 55 -22 95.5t-60.5 62.5t-82 32t-93.5 10h-275v-407zM580 -293q0 73 50 123.5 t122 50.5q83 0 136.5 -59.5t53.5 -157.5v-10q0 -110 -64 -212.5t-171 -174.5l-99 94q62 41 104.5 88.5t73.5 114.5q-29 -13 -59 -13q-63 0 -105 43.5t-42 112.5z" />
<glyph unicode="&#x157;" horiz-adv-x="870" d="M127 -293q0 73 50 123.5t122 50.5q83 0 136.5 -59.5t53.5 -157.5v-10q0 -110 -64 -212.5t-171 -174.5l-98 94q62 41 104.5 88.5t73.5 114.5q-29 -13 -60 -13q-63 0 -105 43.5t-42 112.5zM147 0v1094h318v-168h2q35 76 117.5 128t191.5 52q40 0 64 -8v-316q-38 6 -76 6 q-80 0 -138.5 -25t-92.5 -70.5t-50 -102.5t-16 -127v-463h-320z" />
<glyph unicode="&#x158;" horiz-adv-x="1497" d="M186 0v1604h633q118 0 220 -32t180 -94t122.5 -160t44.5 -222q0 -172 -83.5 -291.5t-245.5 -177.5l362 -627h-368l-332 575h-201v-575h-332zM291 2105h272l123 -186l127 186h270l-245 -356h-301zM518 883h277q66 0 121.5 19t95 67.5t39.5 120.5q0 55 -22 95.5t-60.5 62.5 t-82 32t-93.5 10h-275v-407z" />
<glyph unicode="&#x159;" horiz-adv-x="870" d="M88 1634h274l123 -186l127 186h271l-246 -356h-301zM147 0v1094h318v-168h2q35 76 117.5 128t191.5 52q40 0 64 -8v-316q-38 6 -76 6q-80 0 -138.5 -25t-92.5 -70.5t-50 -102.5t-16 -127v-463h-320z" />
<glyph unicode="&#x15a;" horiz-adv-x="1335" d="M39 352l287 148q46 -105 138 -164.5t212 -59.5q107 0 175.5 48t68.5 122q0 69 -63 111.5t-241 95.5q-279 83 -391 195q-123 120 -123 297q0 140 77 251.5t204.5 171.5t278.5 60q200 0 347 -90.5t216 -255.5l-275 -149q-39 95 -118.5 145.5t-184.5 50.5q-98 0 -155.5 -46 t-57.5 -118t60.5 -114.5t197.5 -81.5q141 -40 239 -83.5t173.5 -102t112 -136t36.5 -176.5q0 -107 -39 -197t-112 -157t-185 -104.5t-251 -37.5q-224 0 -390 101.5t-237 275.5zM532 1751l220 383h366l-323 -383h-263z" />
<glyph unicode="&#x15b;" horiz-adv-x="1069" d="M57 227l236 140q30 -61 94 -97.5t152 -36.5q59 0 96 24t37 56q0 33 -35 58.5t-139 48.5q-389 86 -389 354q0 152 124 249t295 97q151 0 260 -60t162 -161l-231 -137q-61 104 -199 104q-50 0 -82 -23.5t-32 -56.5q0 -34 32.5 -59t110.5 -41q207 -43 314.5 -128t107.5 -228 q0 -157 -117 -256t-319 -99q-345 0 -478 252zM406 1276l219 383h366l-323 -383h-262z" />
<glyph unicode="&#x15c;" horiz-adv-x="1335" d="M39 352l287 148q46 -105 138 -164.5t212 -59.5q107 0 175.5 48t68.5 122q0 69 -63 111.5t-241 95.5q-279 83 -391 195q-123 120 -123 297q0 140 77 251.5t204.5 171.5t278.5 60q200 0 347 -90.5t216 -255.5l-275 -149q-39 95 -118.5 145.5t-184.5 50.5q-98 0 -155.5 -46 t-57.5 -118t60.5 -114.5t197.5 -81.5q141 -40 239 -83.5t173.5 -102t112 -136t36.5 -176.5q0 -107 -39 -197t-112 -157t-185 -104.5t-251 -37.5q-224 0 -390 101.5t-237 275.5zM266 1749l246 356h301l248 -356h-273l-124 186l-125 -186h-273z" />
<glyph unicode="&#x15d;" horiz-adv-x="1048" d="M57 227l236 140q30 -61 94 -97.5t152 -36.5q59 0 96 24t37 56q0 33 -35 58.5t-139 48.5q-389 86 -389 354q0 152 124 249t295 97q151 0 260 -60t162 -161l-231 -137q-61 104 -199 104q-50 0 -82 -23.5t-32 -56.5q0 -34 32.5 -59t110.5 -41q207 -43 314.5 -128t107.5 -228 q0 -157 -117 -256t-319 -99q-345 0 -478 252zM160 1278l248 356h299l247 -356h-272l-125 186l-125 -186h-272z" />
<glyph unicode="&#x15e;" horiz-adv-x="1335" d="M39 352l287 148q46 -105 138 -164.5t212 -59.5q107 0 175.5 48t68.5 122q0 69 -63 111.5t-241 95.5q-279 83 -391 195q-123 120 -123 297q0 140 77 251.5t204.5 171.5t278.5 60q200 0 347 -90.5t216 -255.5l-275 -149q-39 95 -118.5 145.5t-184.5 50.5q-98 0 -155.5 -46 t-57.5 -118t60.5 -114.5t197.5 -81.5q141 -40 239 -83.5t173.5 -102t112 -136t36.5 -176.5q0 -184 -112.5 -313.5t-315.5 -167.5q39 -89 39 -197q0 -89 -29 -154t-83 -102t-122 -54.5t-153 -17.5q-84 0 -147 19v215q55 -10 106 -10q88 0 131 52t43 142q0 55 -16 94 q-199 17 -344.5 116t-210.5 259z" />
<glyph unicode="&#x15f;" horiz-adv-x="1028" d="M57 227l236 140q30 -61 94 -97.5t152 -36.5q59 0 96 24t37 56q0 33 -35 58.5t-139 48.5q-389 86 -389 354q0 152 124 249t295 97q151 0 260 -60t162 -161l-231 -137q-61 104 -199 104q-50 0 -82 -23.5t-32 -56.5q0 -34 32.5 -59t110.5 -41q207 -43 314.5 -128t107.5 -228 q0 -129 -81 -221t-226 -121q38 -77 38 -195q0 -89 -29 -154t-82 -102t-121 -54.5t-153 -17.5q-86 0 -149 19v215q55 -10 106 -10q89 0 133 52t44 142q0 50 -19 99q-262 31 -375 245z" />
<glyph unicode="&#x160;" horiz-adv-x="1335" d="M39 352l287 148q46 -105 138 -164.5t212 -59.5q107 0 175.5 48t68.5 122q0 69 -63 111.5t-241 95.5q-279 83 -391 195q-123 120 -123 297q0 140 77 251.5t204.5 171.5t278.5 60q200 0 347 -90.5t216 -255.5l-275 -149q-39 95 -118.5 145.5t-184.5 50.5q-98 0 -155.5 -46 t-57.5 -118t60.5 -114.5t197.5 -81.5q141 -40 239 -83.5t173.5 -102t112 -136t36.5 -176.5q0 -107 -39 -197t-112 -157t-185 -104.5t-251 -37.5q-224 0 -390 101.5t-237 275.5zM264 2114h277l123 -189l127 189h270l-246 -359h-301z" />
<glyph unicode="&#x161;" horiz-adv-x="1048" d="M57 227l236 140q30 -61 94 -97.5t152 -36.5q59 0 96 24t37 56q0 33 -35 58.5t-139 48.5q-389 86 -389 354q0 152 124 249t295 97q151 0 260 -60t162 -161l-231 -137q-61 104 -199 104q-50 0 -82 -23.5t-32 -56.5q0 -34 32.5 -59t110.5 -41q207 -43 314.5 -128t107.5 -228 q0 -157 -117 -256t-319 -99q-345 0 -478 252zM160 1638h276l125 -186l125 186h272l-247 -356h-299z" />
<glyph unicode="&#x162;" horiz-adv-x="1378" d="M43 1282v322h1292v-322h-481v-1282q45 -83 45 -207q0 -89 -29 -154t-82 -102t-121 -54.5t-153 -17.5q-86 0 -149 19v215q55 -10 106 -10q89 0 132.5 52t43.5 142q0 61 -24 117h-99v1282h-481z" />
<glyph unicode="&#x163;" horiz-adv-x="921" d="M43 817v277h201v342h315v-342h270v-277h-270v-381q0 -93 48 -133.5t143 -40.5q37 0 73 8v-264q-69 -20 -149 -20h-19q39 -82 39 -193q0 -89 -29 -154t-82.5 -102t-121.5 -54.5t-154 -17.5q-67 0 -117 11v219q75 -6 76 -6q88 0 132 52t44 142q0 88 -51 178 q-151 106 -151 336v420h-197z" />
<glyph unicode="&#x164;" horiz-adv-x="1380" d="M43 1282h483v-1282h330v1282h481v322h-1294v-322zM295 2105h272l123 -186l127 186h270l-245 -356h-301z" />
<glyph unicode="&#x165;" horiz-adv-x="921" d="M43 817v277h201v342h315v-342h270v-277h-270v-381q0 -93 48 -133.5t143 -40.5q37 0 73 8v-264q-69 -20 -149 -20q-213 0 -323.5 109.5t-110.5 301.5v420h-197zM698 1200l29 469h334l-139 -469h-224z" />
<glyph unicode="&#x166;" horiz-adv-x="1413" d="M59 1282v322h1295v-322h-482v-473h267v-270h-267v-539h-331v539h-267v270h267v473h-482z" />
<glyph unicode="&#x167;" horiz-adv-x="921" d="M43 817v277h201v342h315v-342h270v-277h-270v-170h211v-211h-211q0 -93 48 -133.5t143 -40.5q37 0 73 8v-264q-69 -20 -149 -20q-213 0 -323.5 109.5t-110.5 301.5v39h-187v211h187v170h-197z" />
<glyph unicode="&#x168;" horiz-adv-x="1628" d="M170 635v969h334l-2 -961q0 -171 86.5 -258.5t224.5 -87.5q151 0 234 91.5t83 246.5v969h328v-957q0 -315 -164 -492.5t-483 -177.5q-163 0 -287 48t-200.5 136.5t-115 207t-38.5 266.5zM403 1753q-9 156 61.5 245t205.5 89q57 0 105.5 -19.5t75.5 -43t56 -43t51 -19.5 q70 0 70 119h199q8 -156 -62.5 -245t-206.5 -89q-55 0 -103 19.5t-75.5 43t-57.5 43t-52 19.5q-67 0 -70 -119h-197z" />
<glyph unicode="&#x169;" horiz-adv-x="1310" d="M137 408v686h320v-611q0 -96 46.5 -152.5t141.5 -56.5q96 0 146.5 59.5t50.5 149.5v611h319v-1094h-315v135h-2q-110 -158 -305 -158q-99 0 -177 35.5t-126.5 96t-73.5 137t-25 162.5zM238 1282q-9 156 61.5 245t204.5 89q57 0 106 -19.5t76 -43t56 -43t51 -19.5 q69 0 69 119h199q8 -157 -62.5 -245.5t-205.5 -88.5q-55 0 -103.5 19.5t-76 43t-57.5 43t-52 19.5q-67 0 -70 -119h-196z" />
<glyph unicode="&#x16a;" horiz-adv-x="1628" d="M170 635v969h334l-2 -961q0 -171 86.5 -258.5t224.5 -87.5q151 0 234 91.5t83 246.5v969h328v-957q0 -315 -164 -492.5t-483 -177.5q-163 0 -287 48t-200.5 136.5t-115 207t-38.5 266.5zM442 1778v237h746v-237h-746z" />
<glyph unicode="&#x16b;" horiz-adv-x="1310" d="M137 408v686h320v-611q0 -96 46.5 -152.5t141.5 -56.5q96 0 146.5 59.5t50.5 149.5v611h319v-1094h-315v135h-2q-110 -158 -305 -158q-99 0 -177 35.5t-126.5 96t-73.5 137t-25 162.5zM276 1286v240h746v-240h-746z" />
<glyph unicode="&#x16e;" horiz-adv-x="1628" d="M170 635v969h334l-2 -961q0 -171 86.5 -258.5t224.5 -87.5q151 0 234 91.5t83 246.5v969h328v-957q0 -315 -164 -492.5t-483 -177.5q-163 0 -287 48t-200.5 136.5t-115 207t-38.5 266.5zM500 2005q0 125 93 213t222 88q132 0 226 -87.5t94 -213.5q0 -127 -93.5 -215 t-226.5 -88q-129 0 -222 88.5t-93 214.5zM684 2005q0 -52 37.5 -88.5t93.5 -36.5q58 0 95.5 36.5t37.5 88.5q0 48 -39.5 86.5t-93.5 38.5q-57 0 -94 -36t-37 -89z" />
<glyph unicode="&#x16f;" horiz-adv-x="1308" d="M137 408v686h320v-611q0 -96 46.5 -152.5t141.5 -56.5q96 0 146.5 59.5t50.5 149.5v611h319v-1094h-315v135h-2q-110 -158 -305 -158q-99 0 -177 35.5t-126.5 96t-73.5 137t-25 162.5zM332 1536q0 125 93 213t222 88q131 0 224.5 -88t93.5 -213q0 -127 -93.5 -215 t-224.5 -88q-129 0 -222 88.5t-93 214.5zM514 1536q0 -52 38.5 -88.5t94.5 -36.5t94.5 36.5t38.5 88.5q0 48 -40 86.5t-93 38.5q-58 0 -95.5 -36t-37.5 -89z" />
<glyph unicode="&#x170;" horiz-adv-x="1628" d="M170 635v969h334l-2 -961q0 -171 86.5 -258.5t224.5 -87.5q151 0 234 91.5t83 246.5v969h328v-957q0 -315 -164 -492.5t-483 -177.5q-163 0 -287 48t-200.5 136.5t-115 207t-38.5 266.5zM463 1745l219 385h358l-323 -385h-254zM915 1745l220 385h358l-326 -385h-252z" />
<glyph unicode="&#x171;" horiz-adv-x="1308" d="M137 408v686h320v-611q0 -96 46.5 -152.5t141.5 -56.5q96 0 146.5 59.5t50.5 149.5v611h319v-1094h-315v135h-2q-110 -158 -305 -158q-99 0 -177 35.5t-126.5 96t-73.5 137t-25 162.5zM287 1276l221 383h356l-323 -383h-254zM739 1276l219 383h359l-326 -383h-252z" />
<glyph unicode="&#x172;" horiz-adv-x="1628" d="M170 637v967h334l-2 -961q0 -171 86.5 -258.5t224.5 -87.5q151 0 234 91.5t83 246.5v969h328v-963q0 -405 -280 -575q-121 -74 -199 -155.5t-78 -139.5q0 -56 48.5 -84.5t99.5 -28.5q18 0 45 2v-184q-65 -21 -158 -21q-82 0 -152 24t-118 78.5t-48 131.5q0 146 193 291 q-162 0 -286 48t-201 136t-115.5 207t-38.5 266z" />
<glyph unicode="&#x173;" horiz-adv-x="1308" d="M137 408v686h320v-611q0 -96 46.5 -152.5t141.5 -56.5q96 0 146.5 59.5t50.5 149.5v611h319v-1094q-77 -48 -137.5 -110t-60.5 -119q0 -56 48 -84.5t99 -28.5q4 0 20 1t23 1v-184q-65 -21 -156 -21q-60 0 -115.5 14t-101 41.5t-73 74t-27.5 104.5q0 155 227 311h-61v135 h-2q-110 -158 -305 -158q-99 0 -177.5 35.5t-126.5 96t-73 137t-25 162.5z" />
<glyph unicode="&#x174;" horiz-adv-x="2439" d="M39 1604h354l305 -1139l346 1139h355l346 -1147l315 1147h342l-475 -1604h-358l-348 1163h-4l-351 -1163h-356zM821 1749l250 356h301l248 -356h-272l-125 186l-125 -186h-277z" />
<glyph unicode="&#x175;" horiz-adv-x="1828" d="M37 1094h328l196 -678h2l205 678h295l205 -684l207 684h319l-344 -1094h-313l-224 698h-2l-225 -698h-309zM518 1278l248 356h301l246 -356h-271l-127 186l-122 -186h-275z" />
<glyph unicode="&#x176;" horiz-adv-x="1562" d="M29 1604h383l370 -641l375 641h379l-588 -955v-649h-332v635zM385 2105h272l125 -186l125 186h273l-248 -356h-299z" />
<glyph unicode="&#x177;" horiz-adv-x="1271" d="M27 1094h352l272 -625l244 625h330l-664 -1633h-342l268 656zM244 1278l245 356h302l245 -356h-270l-127 186l-123 -186h-272z" />
<glyph unicode="&#x178;" horiz-adv-x="1562" d="M29 1604h383l370 -641l375 641h379l-588 -955v-649h-332v635zM334 1911q0 73 51 125.5t125 52.5q73 0 125.5 -53t52.5 -125q0 -73 -52 -125.5t-126 -52.5q-73 0 -124.5 52t-51.5 126zM842 1911q0 73 51 125.5t125 52.5t126 -52.5t52 -125.5t-52 -125.5t-126 -52.5 q-73 0 -124.5 52t-51.5 126z" />
<glyph unicode="&#x179;" horiz-adv-x="1402" d="M82 0v293l801 1003h-764v308h1175v-285l-794 -1012h813v-307h-1231zM535 1751l219 383h366l-323 -383h-262z" />
<glyph unicode="&#x17a;" horiz-adv-x="1105" d="M88 0v248l510 573h-494v273h906v-244l-516 -578h518v-272h-924zM377 1276l219 383h367l-324 -383h-262z" />
<glyph unicode="&#x17b;" horiz-adv-x="1402" d="M84 0h1229v307h-813l794 1012v285h-1175v-308h764l-799 -1003v-293zM504 1929q0 81 57 139t135 58q83 0 141 -57.5t58 -139.5q0 -80 -58 -137t-141 -57q-78 0 -135 57.5t-57 136.5z" />
<glyph unicode="&#x17c;" horiz-adv-x="1107" d="M88 0h926v272h-520l516 578v244h-906v-273h496l-512 -573v-248zM354 1460q0 80 58 137.5t137 57.5q81 0 138.5 -57.5t57.5 -137.5q0 -82 -57 -139t-139 -57q-80 0 -137.5 57.5t-57.5 138.5z" />
<glyph unicode="&#x17d;" horiz-adv-x="1406" d="M84 0h1233v307h-813l794 1012v285h-1181v-308h770l-803 -1003v-293zM301 2105h277l124 -186l125 186h273l-248 -356h-299z" />
<glyph unicode="&#x17e;" horiz-adv-x="1107" d="M88 0h926v272h-520l516 578v244h-906v-273h494l-510 -573v-248zM154 1634h272l125 -186l127 186h270l-248 -356h-299z" />
<glyph unicode="&#x192;" horiz-adv-x="1267" d="M96 4v268q72 -16 140 -16q81 0 132 42.5t66 117.5l80 405h-203v273h258l27 127q13 60 33.5 112.5t58.5 104.5t88.5 89t126.5 60t168 23q104 0 168 -21v-268q-78 16 -135 16q-81 0 -132 -42.5t-65 -118.5l-16 -82h252v-273h-305l-90 -450q-12 -60 -33 -113t-59 -105 t-89.5 -88.5t-129 -59.5t-171.5 -23q-100 0 -170 22z" />
<glyph unicode="&#x1b5;" horiz-adv-x="1406" d="M86 0v287l301 381h-268v284h491l275 348h-766v304h1177v-281l-290 -371h290v-284h-512l-284 -363h813l2 -305h-1229z" />
<glyph unicode="&#x1b6;" horiz-adv-x="1107" d="M88 0v233l199 230h-183v168h326l168 194h-494v269h906v-230l-203 -233h203v-168h-348l-168 -195h520v-268h-926z" />
<glyph unicode="&#x1cd;" horiz-adv-x="1622" d="M-2 0l612 1604h400l614 -1604h-342l-121 324h-710l-119 -324h-334zM408 2114h272l125 -189l125 189h270l-246 -359h-301zM565 631h484l-242 651z" />
<glyph unicode="&#x1ce;" horiz-adv-x="1218" d="M86 305v4q0 78 30 138.5t77.5 97t113 60t130.5 32t136 8.5h109q42 0 64 22t22 58q0 57 -45 96t-131 39q-163 0 -244 -147l-244 145q68 125 194 192.5t308 67.5q217 0 346 -112.5t129 -327.5v-678h-295v135l-4 2q-110 -157 -327 -157q-154 0 -261.5 89t-107.5 236z M213 1634h272l123 -186l127 186h271l-246 -356h-301zM408 324q0 -56 39 -83.5t100 -27.5q102 0 160.5 60.5t58.5 150.5v25h-193q-70 0 -117.5 -32t-47.5 -93z" />
<glyph unicode="&#x1cf;" horiz-adv-x="706" d="M-45 2105h274l123 -186l127 186h271l-246 -356h-301zM186 0h332v1604h-332v-1604z" />
<glyph unicode="&#x1d0;" d="M-88 1634h272l123 -186l127 186h271l-246 -356h-301zM147 0h322v1094h-322v-1094z" />
<glyph unicode="&#x1d1;" horiz-adv-x="1841" d="M88 801q0 170 66.5 323.5t179 263.5t267.5 175t325 65q227 0 417 -108t300 -296t110 -415q0 -138 -42 -266t-119.5 -230t-180 -178.5t-230 -118t-263.5 -41.5q-170 0 -323.5 64.5t-264.5 174.5t-176.5 263t-65.5 324zM428 803q0 -136 65.5 -252.5t179.5 -185t249 -68.5 t249 68.5t179 185t65 252.5t-65 252t-179 184t-249 68t-249 -68t-179.5 -184t-65.5 -252zM524 2105h273l125 -186l125 186h272l-248 -356h-301z" />
<glyph unicode="&#x1d2;" horiz-adv-x="1353" d="M80 545q0 160 80.5 292t218 206.5t301.5 74.5q163 0 299 -73t215.5 -203.5t79.5 -290.5q0 -162 -80.5 -294.5t-217.5 -207t-300 -74.5q-164 0 -300.5 73t-216 204t-79.5 293zM281 1634h272l125 -186l125 186h270l-246 -356h-301zM408 549q0 -123 78 -202t192 -79t191 79 t77 202q0 121 -78 199.5t-192 78.5t-191 -78t-77 -200z" />
<glyph unicode="&#x1d3;" horiz-adv-x="1628" d="M170 635v969h334l-2 -961q0 -171 86.5 -258.5t224.5 -87.5q151 0 234 91.5t83 246.5v969h328v-957q0 -315 -164 -492.5t-483 -177.5q-163 0 -287 48t-200.5 136.5t-115 207t-38.5 266.5zM418 2105h272l125 -186l125 186h272l-247 -356h-299z" />
<glyph unicode="&#x1d4;" horiz-adv-x="1308" d="M137 408v686h320v-611q0 -96 46.5 -152.5t141.5 -56.5q96 0 146.5 59.5t50.5 149.5v611h319v-1094h-315v135h-2q-110 -158 -305 -158q-99 0 -177 35.5t-126.5 96t-73.5 137t-25 162.5zM252 1634h272l125 -186l125 186h273l-248 -356h-299z" />
<glyph unicode="&#x1d5;" horiz-adv-x="1628" d="M170 635v969h334l-2 -961q0 -171 86.5 -258.5t224.5 -87.5q151 0 234 91.5t83 246.5v969h328v-957q0 -315 -164 -492.5t-483 -177.5q-163 0 -287 48t-200.5 136.5t-115 207t-38.5 266.5zM385 1860q0 73 51 125.5t125 52.5t126 -52.5t52 -125.5t-52 -125t-126 -52 q-73 0 -124.5 51.5t-51.5 125.5zM442 2136v240h746v-240h-746zM893 1860q0 73 51 125.5t125 52.5t126 -52.5t52 -125.5t-52 -125t-126 -52q-72 0 -124 52t-52 125z" />
<glyph unicode="&#x1d6;" horiz-adv-x="1308" d="M137 408v686h320v-611q0 -96 46.5 -152.5t141.5 -56.5q96 0 146.5 59.5t50.5 149.5v611h319v-1094h-315v135h-2q-110 -158 -305 -158q-99 0 -177 35.5t-126.5 96t-73.5 137t-25 162.5zM229 1370q0 73 51 125.5t126 52.5q74 0 126 -52.5t52 -125.5t-52 -124.5t-126 -51.5 t-125.5 51.5t-51.5 124.5zM276 1626v240h746v-240h-746zM717 1370q0 73 51 125.5t125 52.5t126 -52.5t52 -125.5t-52 -124.5t-126 -51.5q-73 0 -124.5 51t-51.5 125z" />
<glyph unicode="&#x1d7;" horiz-adv-x="1628" d="M170 635v969h332v-961q0 -171 86.5 -258.5t224.5 -87.5q151 0 234 91.5t83 246.5v969h328v-957q0 -315 -164 -492.5t-483 -177.5q-163 0 -287 48t-200.5 136.5t-115 207t-38.5 266.5zM385 1839q0 73 51 125.5t125 52.5t126 -52.5t52 -125.5t-52 -124.5t-126 -51.5 q-73 0 -124.5 51.5t-51.5 124.5zM676 2066l207 363h362l-307 -363h-262zM893 1839q0 73 51 125.5t125 52.5t126 -52.5t52 -125.5t-52 -124.5t-126 -51.5q-72 0 -124 51.5t-52 124.5z" />
<glyph unicode="&#x1d8;" horiz-adv-x="1308" d="M137 408v686h320v-611q0 -96 46.5 -152.5t141.5 -56.5q96 0 146.5 59.5t50.5 149.5v611h319v-1094h-315v135h-2q-110 -158 -305 -158q-99 0 -177 35.5t-126.5 96t-73.5 137t-25 162.5zM229 1370q0 73 51 125.5t126 52.5q74 0 126 -52.5t52 -125.5t-52 -124.5t-126 -51.5 t-125.5 51.5t-51.5 124.5zM510 1595l219 385h367l-324 -385h-262zM717 1370q0 73 51 125.5t125 52.5t126 -52.5t52 -125.5t-52 -124.5t-126 -51.5q-73 0 -124.5 51t-51.5 125z" />
<glyph unicode="&#x1d9;" horiz-adv-x="1628" d="M170 635v969h332v-961q0 -171 86.5 -258.5t224.5 -87.5q151 0 234 91.5t83 246.5v969h328v-957q0 -315 -164 -492.5t-483 -177.5q-163 0 -287 48t-200.5 136.5t-115 207t-38.5 266.5zM385 1839q0 73 51 125.5t125 52.5t126 -52.5t52 -125.5t-52 -124.5t-126 -51.5 q-73 0 -124.5 51.5t-51.5 124.5zM418 2402h272l125 -174l125 174h272l-247 -336h-299zM893 1839q0 73 51 125.5t125 52.5t126 -52.5t52 -125.5t-52 -124.5t-126 -51.5q-72 0 -124 51.5t-52 124.5z" />
<glyph unicode="&#x1da;" horiz-adv-x="1308" d="M137 408v686h320v-611q0 -96 46.5 -152.5t141.5 -56.5q96 0 146.5 59.5t50.5 149.5v611h319v-1094h-315v135h-2q-110 -158 -305 -158q-99 0 -177 35.5t-126.5 96t-73.5 137t-25 162.5zM229 1370q0 73 51 125.5t126 52.5q74 0 126 -52.5t52 -125.5t-52 -124.5t-126 -51.5 t-125.5 51.5t-51.5 124.5zM252 1954h272l125 -189l125 189h273l-248 -359h-299zM717 1370q0 73 51 125.5t125 52.5t126 -52.5t52 -125.5t-52 -124.5t-126 -51.5q-73 0 -124.5 51t-51.5 125z" />
<glyph unicode="&#x1db;" horiz-adv-x="1628" d="M170 635v969h334l-2 -961q0 -171 86.5 -258.5t224.5 -87.5q151 0 234 91.5t83 246.5v969h328v-957q0 -315 -164 -492.5t-483 -177.5q-163 0 -287 48t-200.5 136.5t-115 207t-38.5 266.5zM385 1839q0 -73 51.5 -124.5t124.5 -51.5q74 0 126 51.5t52 124.5t-52 125.5 t-126 52.5t-125 -52.5t-51 -125.5zM389 2429h361l208 -363h-262zM893 1839q0 -73 52 -124.5t124 -51.5q74 0 126 51.5t52 124.5t-52 125.5t-126 52.5t-125 -52.5t-51 -125.5z" />
<glyph unicode="&#x1dc;" horiz-adv-x="1308" d="M137 408v686h320v-611q0 -96 46.5 -152.5t141.5 -56.5q96 0 146.5 59.5t50.5 149.5v611h319v-1094h-315v135h-2q-110 -158 -305 -158q-99 0 -177 35.5t-126.5 96t-73.5 137t-25 162.5zM211 1980h367l219 -385h-262zM229 1370q0 73 51 125.5t126 52.5q74 0 126 -52.5 t52 -125.5t-52 -124.5t-126 -51.5t-125.5 51.5t-51.5 124.5zM717 1370q0 73 51 125.5t125 52.5t126 -52.5t52 -125.5t-52 -124.5t-126 -51.5q-73 0 -124.5 51t-51.5 125z" />
<glyph unicode="&#x1e6;" horiz-adv-x="1757" d="M88 801q0 172 67 326t179.5 263.5t266.5 173.5t323 64q118 0 224.5 -28t185 -73t142.5 -105t103.5 -121.5t62.5 -124.5l-292 -144q-20 50 -52 96t-82.5 90t-127 70.5t-168.5 26.5q-204 0 -349 -148t-145 -364q0 -139 62 -255.5t176 -186.5t256 -70q160 0 271.5 74.5 t141.5 195.5h-487v301h833v-125q0 -146 -41.5 -271t-113 -214t-168 -152.5t-207.5 -94t-229 -30.5q-182 0 -338.5 65t-264 176.5t-168.5 263t-61 321.5zM528 2105h275l123 -186l127 186h270l-248 -356h-299z" />
<glyph unicode="&#x1e7;" horiz-adv-x="1396" d="M82 557q0 104 37 203t102.5 177t164 125.5t212.5 47.5q207 0 332 -149h4v133h313v-1098q0 -128 -45 -232t-124 -171.5t-187 -103.5t-234 -36q-405 0 -553 314l261 149q92 -184 290 -184q124 0 199.5 64.5t75.5 191.5v166h-4q-113 -146 -316 -146q-154 0 -275.5 73 t-187 198t-65.5 278zM293 1634h272l123 -186l127 186h270l-245 -356h-301zM406 557q0 -121 75.5 -195.5t190.5 -74.5q113 0 189.5 75t76.5 195t-76 194t-190 74q-112 0 -189 -75t-77 -193z" />
<glyph unicode="&#x1e8;" horiz-adv-x="1509" d="M186 0h332v762l578 -762h426l-652 838l613 766h-416l-549 -699v699h-332v-1604zM418 2105h272l125 -186l125 186h272l-247 -356h-299z" />
<glyph unicode="&#x1e9;" horiz-adv-x="1267" d="M147 0v1669h320v-1005l379 430h407l-440 -504l453 -590h-404l-387 518h-8v-518h-320zM561 1634l248 -356h299l248 356h-273l-125 -186l-124 186h-273z" />
<glyph unicode="&#x1f4;" horiz-adv-x="1757" d="M88 801q0 172 67 326t179.5 263.5t266.5 173.5t323 64q118 0 224.5 -28t185 -73t142.5 -105t103.5 -121.5t62.5 -124.5l-292 -144q-20 50 -52 96t-82.5 90t-127 70.5t-168.5 26.5q-204 0 -349 -148t-145 -364q0 -139 62 -255.5t176 -186.5t256 -70q160 0 271.5 74.5 t141.5 195.5h-487v301h833v-125q0 -146 -41.5 -271t-113 -214t-168 -152.5t-207.5 -94t-229 -30.5q-182 0 -338.5 65t-264 176.5t-168.5 263t-61 321.5zM788 1751l220 383h366l-323 -383h-263z" />
<glyph unicode="&#x1f5;" horiz-adv-x="1396" d="M82 557q0 104 37 203t102.5 177t164 125.5t212.5 47.5q207 0 332 -149h4v133h313v-1098q0 -128 -45 -232t-124 -171.5t-187 -103.5t-234 -36q-405 0 -553 314l261 149q92 -184 290 -184q124 0 199.5 64.5t75.5 191.5v166h-4q-113 -146 -316 -146q-154 0 -275.5 73 t-187 198t-65.5 278zM406 557q0 -121 75.5 -195.5t190.5 -74.5q113 0 189.5 75t76.5 195t-76 194t-190 74q-112 0 -189 -75t-77 -193zM500 1276l219 383h366l-323 -383h-262z" />
<glyph unicode="&#x1fa;" horiz-adv-x="1622" d="M-2 0l573 1505q-79 85 -79 203q0 125 93.5 213t223.5 88q49 0 92 -12l125 219h369l-308 -365q39 -67 39 -143q0 -116 -79 -201l577 -1507h-342l-121 324h-710l-119 -324h-334zM565 631h484l-242 651zM676 1708q0 -52 38 -89.5t95 -37.5q56 0 93.5 37.5t37.5 89.5 q0 47 -39.5 85t-91.5 38q-59 0 -96 -35.5t-37 -87.5z" />
<glyph unicode="&#x1fb;" horiz-adv-x="1222" d="M86 305v4q0 78 30 138.5t77.5 97t113 60t130.5 32t136 8.5h109q42 0 64 22t22 58q0 57 -45 96t-131 39q-163 0 -244 -147l-244 145q77 143 232 211q-45 70 -45 156q0 125 94 213t223 88q49 0 105 -17l114 203h369l-301 -356q31 -60 31 -131q0 -92 -52 -166 q207 -109 207 -381v-678h-295v135l-4 2q-110 -157 -327 -157q-154 0 -261.5 89t-107.5 236zM408 324q0 -56 39 -83.5t100 -27.5q102 0 160.5 60.5t58.5 150.5v25h-193q-70 0 -117.5 -32t-47.5 -93zM475 1225q0 -52 37.5 -88.5t95.5 -36.5q56 0 93.5 36.5t37.5 88.5 q0 48 -39 86.5t-92 38.5q-58 0 -95.5 -36t-37.5 -89z" />
<glyph unicode="&#x1fc;" horiz-adv-x="2158" d="M-27 0l813 1604h1250v-312h-711v-325h637v-312h-637v-346h717v-309h-1045v322h-508l-157 -322h-359zM643 629h354v665h-18zM1032 1745l219 385h369l-326 -385h-262z" />
<glyph unicode="&#x1fd;" horiz-adv-x="1957" d="M86 305v12q0 76 29.5 134.5t77 94.5t113 59t130 31.5t135.5 8.5h111q42 0 64 22t22 58q0 57 -45 96t-131 39q-164 0 -242 -147l-244 145q66 125 192 192.5t308 67.5q237 0 359 -131q159 133 364 133q240 0 392.5 -150.5t152.5 -391.5q0 -80 -6 -119h-793q13 -99 90 -157 t181 -58q71 0 138.5 35.5t104.5 95.5l232 -152q-140 -248 -473 -248q-136 0 -252.5 50t-196.5 141q-171 -186 -428 -186h-18q-154 0 -260.5 89t-106.5 236zM408 324q0 -56 38 -83.5t99 -27.5q107 0 164 61t57 150v25h-195q-69 0 -116 -32t-47 -93zM827 1276l220 383h366 l-323 -383h-263zM1081 670h471q-4 71 -63 130.5t-168 59.5q-97 0 -163 -62.5t-77 -127.5z" />
<glyph unicode="&#x1fe;" horiz-adv-x="1847" d="M90 801q0 170 66.5 323.5t179 263.5t267.5 175t325 65q270 0 481 -147l180 188l166 -153l-180 -191q180 -221 180 -516q0 -172 -66 -327t-177.5 -266t-266 -176t-325.5 -65q-268 0 -482 152l-180 -186l-166 153l180 189q-182 224 -182 518zM426 803q0 -146 80 -277 l678 711q-118 72 -258 72q-136 0 -251 -68t-182 -184.5t-67 -253.5zM664 371q117 -74 262 -74q134 0 248.5 68.5t180.5 185t66 252.5q0 153 -80 278zM782 1751l219 383h367l-324 -383h-262z" />
<glyph unicode="&#x1ff;" horiz-adv-x="1357" d="M80 68l125 125q-123 148 -123 352q0 160 81 292t218.5 206.5t300.5 74.5q198 0 346 -102l129 127l117 -115l-123 -123q125 -151 125 -354q0 -162 -80.5 -294.5t-217.5 -207t-300 -74.5q-195 0 -352 107l-129 -129zM408 549q0 -76 26 -129l379 377q-62 32 -133 32 q-116 0 -194 -78.5t-78 -201.5zM539 1276l219 383h366l-323 -383h-262zM541 301q62 -35 139 -35q114 0 192 79.5t78 203.5q0 68 -26 131z" />
<glyph unicode="&#x218;" horiz-adv-x="1335" d="M39 352l287 148q46 -105 138 -164.5t212 -59.5q107 0 175.5 48t68.5 122q0 69 -63 111.5t-241 95.5q-279 83 -391 195q-123 120 -123 297q0 140 77 251.5t204.5 171.5t278.5 60q200 0 347 -90.5t216 -255.5l-275 -149q-39 95 -118.5 145.5t-184.5 50.5q-98 0 -155.5 -46 t-57.5 -118t60.5 -114.5t197.5 -81.5q141 -40 239 -83.5t173.5 -102t112 -136t36.5 -176.5q0 -107 -39 -197t-112 -157t-185 -104.5t-251 -37.5q-224 0 -390 101.5t-237 275.5zM496 -293q0 73 50 123.5t122 50.5q83 0 136.5 -59.5t53.5 -157.5v-10q0 -110 -64 -212.5 t-171 -174.5l-99 94q62 41 104.5 88.5t73.5 114.5q-29 -13 -59 -13q-63 0 -105 43.5t-42 112.5z" />
<glyph unicode="&#x219;" horiz-adv-x="1048" d="M57 227l236 140q30 -61 94 -97.5t152 -36.5q59 0 96 24t37 56q0 33 -35 58.5t-139 48.5q-389 86 -389 354q0 152 124 249t295 97q151 0 260 -60t162 -161l-231 -137q-61 104 -199 104q-50 0 -82 -23.5t-32 -56.5q0 -34 32.5 -59t110.5 -41q207 -43 314.5 -128t107.5 -228 q0 -157 -117 -256t-319 -99q-345 0 -478 252zM336 -293q0 73 50 123.5t122 50.5q83 0 136.5 -59.5t53.5 -157.5v-10q0 -110 -64 -212.5t-171 -174.5l-98 94q62 41 104.5 88.5t73.5 114.5q-29 -13 -60 -13q-63 0 -105 43.5t-42 112.5z" />
<glyph unicode="&#x21a;" horiz-adv-x="1378" d="M43 1282v322h1292v-322h-481v-1282h-330v1282h-481zM502 -293q0 73 50 123.5t122 50.5q83 0 136.5 -59.5t53.5 -157.5v-10q0 -110 -64 -212.5t-171 -174.5l-99 94q62 41 105 88.5t74 114.5q-29 -13 -60 -13q-63 0 -105 43.5t-42 112.5z" />
<glyph unicode="&#x21b;" horiz-adv-x="921" d="M43 817v277h201v342h315v-342h270v-277h-270v-381q0 -93 48 -133.5t143 -40.5q37 0 73 8v-264q-69 -20 -149 -20q-213 0 -323.5 109.5t-110.5 301.5v420h-197zM303 -293q0 73 50 123.5t122 50.5q83 0 137 -59.5t54 -157.5v-10q0 -110 -64.5 -212t-171.5 -175l-98 94 q62 41 104.5 88.5t73.5 114.5q-29 -13 -59 -13q-64 0 -106 44t-42 112z" />
<glyph unicode="&#x2c6;" horiz-adv-x="876" d="M41 1278l248 356h299l248 -356h-271l-127 186l-125 -186h-272z" />
<glyph unicode="&#x2d8;" horiz-adv-x="860" d="M41 1634h238q11 -68 49 -107.5t102 -39.5q61 0 101 40.5t51 106.5h237q-17 -164 -124.5 -264t-264.5 -100q-158 0 -266 101.5t-123 262.5z" />
<glyph unicode="&#x2d9;" horiz-adv-x="475" d="M41 1460q0 80 57.5 137.5t137.5 57.5q83 0 140.5 -57.5t57.5 -137.5q0 -82 -57.5 -139t-140.5 -57q-80 0 -137.5 57.5t-57.5 138.5z" />
<glyph unicode="&#x2dc;" horiz-adv-x="886" d="M33 1282q-9 156 61.5 245t204.5 89q57 0 106 -19.5t76 -43t56 -43t51 -19.5q69 0 69 119h199q8 -157 -62.5 -245.5t-205.5 -88.5q-55 0 -103.5 19.5t-76 43t-57.5 43t-52 19.5q-67 0 -70 -119h-196z" />
<glyph unicode="&#x2dd;" horiz-adv-x="1110" d="M41 1276l219 383h356l-323 -383h-252zM494 1276l219 383h356l-324 -383h-251z" />
<glyph unicode="&#x3a9;" horiz-adv-x="1808" d="M113 895q0 159 62.5 297t169 233t252 149t308.5 54q220 0 400 -91.5t285.5 -260t105.5 -381.5q0 -49 -8.5 -101t-35 -120.5t-68.5 -129t-117 -122.5t-173 -105v-28h394v-289h-699v463q98 22 171 69t112 107.5t57.5 121.5t18.5 124q0 176 -126.5 301t-318.5 125 q-191 0 -315.5 -124.5t-124.5 -301.5q0 -63 18 -124t56.5 -121.5t111 -107.5t170.5 -69v-463h-696v289h391v28q-98 43 -172.5 104.5t-116.5 122.5t-68.5 129.5t-35 120t-8.5 101.5z" />
<glyph unicode="&#x3c0;" horiz-adv-x="1527" d="M49 817v277h1374v-277h-227v-377q0 -93 44 -135.5t136 -42.5q31 0 47 2v-266q-50 -12 -98 -12q-227 0 -335.5 116t-108.5 332v383h-293v-817h-318v817h-221z" />
<glyph unicode="&#x401;" horiz-adv-x="1357" d="M186 0v1604h1051v-312h-723v-325h647v-312h-647v-346h727v-309h-1055zM279 1911q0 73 50.5 125.5t125.5 52.5q74 0 126 -52.5t52 -125.5t-52.5 -125.5t-125.5 -52.5t-124.5 52t-51.5 126zM786 1911q0 73 51 125.5t126 52.5q74 0 126 -52.5t52 -125.5t-52.5 -125.5 t-125.5 -52.5t-125 52t-52 126z" />
<glyph unicode="&#x402;" horiz-adv-x="1728" d="M43 1296v308h1294v-308h-596v-381q180 115 408 115q237 0 382.5 -140.5t145.5 -377.5q0 -253 -141 -395t-393 -142q-78 0 -178 21v309q46 -6 94 -6q282 0 282 209q0 201 -294 201q-80 0 -167 -27t-139 -76v-606h-327v1296h-371z" />
<glyph unicode="&#x403;" horiz-adv-x="1234" d="M186 0v1604h1008v-314h-674v-1290h-334zM487 1745l220 385h366l-323 -385h-263z" />
<glyph unicode="&#x404;" horiz-adv-x="1701" d="M88 801q0 227 111.5 417.5t303 300t417.5 109.5q159 0 303 -54.5t256.5 -162t165.5 -252.5l-297 -137q-51 134 -165.5 210.5t-264.5 76.5q-166 0 -297.5 -99.5t-174.5 -251.5h635v-296h-639q41 -160 171 -263.5t305 -103.5q149 0 264 80.5t170 214.5l299 -137 q-54 -146 -169.5 -255.5t-262 -165t-304.5 -55.5q-172 0 -325.5 63.5t-263.5 173t-174 262.5t-64 325z" />
<glyph unicode="&#x405;" horiz-adv-x="1335" d="M39 352l287 148q46 -105 138 -164.5t212 -59.5q107 0 175.5 48t68.5 122q0 69 -63 111.5t-241 95.5q-279 83 -391 195q-123 120 -123 297q0 140 77 251.5t204.5 171.5t278.5 60q200 0 347 -90.5t216 -255.5l-275 -149q-39 95 -118.5 145.5t-184.5 50.5q-98 0 -155.5 -46 t-57.5 -118t60.5 -114.5t197.5 -81.5q141 -40 239 -83.5t173.5 -102t112 -136t36.5 -176.5q0 -107 -39 -197t-112 -157t-185 -104.5t-251 -37.5q-224 0 -390 101.5t-237 275.5z" />
<glyph unicode="&#x406;" horiz-adv-x="706" d="M186 0v1604h332v-1604h-332z" />
<glyph unicode="&#x407;" horiz-adv-x="706" d="M-63 1911q0 73 51.5 125.5t126.5 52.5q73 0 125.5 -53t52.5 -125q0 -73 -53 -125.5t-125 -52.5q-73 0 -125.5 52.5t-52.5 125.5zM186 0v1604h332v-1604h-332zM416 1911q0 73 51.5 125.5t126.5 52.5q73 0 124.5 -52.5t51.5 -125.5t-52 -125.5t-124 -52.5q-74 0 -126 52.5 t-52 125.5z" />
<glyph unicode="&#x408;" horiz-adv-x="1273" d="M59 324l281 155q70 -182 227 -182q94 0 147.5 56t53.5 159v1092h332v-1117q0 -122 -42 -219.5t-114.5 -159.5t-167 -95t-203.5 -33q-182 0 -313 86.5t-201 257.5z" />
<glyph unicode="&#x409;" horiz-adv-x="2533" d="M47 -6v303q64 0 117.5 29t88.5 75t61 107.5t39 121t18 120.5l75 854h1113v-607h362q122 0 219 -29t158.5 -76.5t102.5 -112t58 -131.5t17 -140q0 -75 -18 -145t-61 -137t-107 -116.5t-163.5 -79.5t-223.5 -30h-674v1286h-481l-50 -549q-11 -126 -40 -234.5t-81.5 -203 t-125 -161.5t-174 -105.5t-224.5 -38.5h-6zM1559 313h344q60 0 105.5 13t71.5 33t42 47.5t21 52t5 51.5q0 24 -5.5 47t-21.5 49.5t-42.5 45.5t-73 31.5t-107.5 12.5h-339v-383z" />
<glyph unicode="&#x40a;" horiz-adv-x="2496" d="M186 0v1604h332v-621h672v621h332v-621h374q116 0 210 -28.5t155 -76t102 -111t58.5 -130.5t17.5 -139q0 -76 -17 -145t-58.5 -134.5t-105 -113t-163 -76.5t-225.5 -29h-680v680h-672v-680h-332zM1522 313h348q75 0 125 16.5t73.5 46.5t32 60t8.5 68q0 27 -4.5 49.5 t-19.5 48t-40 42.5t-70.5 28.5t-106.5 11.5h-346v-371z" />
<glyph unicode="&#x40b;" horiz-adv-x="1771" d="M43 1296v308h1294v-308h-596v-381q180 115 408 115q237 0 382.5 -133.5t145.5 -359.5v-537h-327v410q0 151 -69.5 225t-211.5 74q-190 0 -328 -109v-600h-327v1296h-371z" />
<glyph unicode="&#x40c;" horiz-adv-x="1511" d="M186 0v1604h334v-699l549 699h416l-613 -766l652 -838h-428l-576 762v-762h-334zM674 1751l219 383h367l-324 -383h-262z" />
<glyph unicode="&#x40e;" horiz-adv-x="1492" d="M6 1604h365l405 -822l383 822h359l-627 -1258q-97 -194 -214.5 -280t-277.5 -86q-210 0 -362 112l182 270q83 -65 170 -65q66 0 115 35.5t88 113.5zM377 2130l186 33q61 -189 211 -189q152 0 209 189l184 -33q-27 -175 -128.5 -276t-264.5 -101q-164 0 -267 101.5 t-130 275.5z" />
<glyph unicode="&#x40f;" horiz-adv-x="1695" d="M186 0v1604h330v-1287h662v1287h329v-1604h-499v-336h-322v336h-500z" />
<glyph unicode="&#x410;" horiz-adv-x="1622" d="M-2 0l612 1604h400l614 -1604h-342l-121 324h-710l-119 -324h-334zM565 631h484l-242 651z" />
<glyph unicode="&#x411;" horiz-adv-x="1533" d="M186 0v1604h1170v-314h-840v-323h399q117 0 210.5 -28t154.5 -73.5t101.5 -108.5t57.5 -129.5t17 -138.5q0 -76 -17 -143.5t-59 -132t-105.5 -111t-164 -74.5t-227.5 -28h-697zM516 313h371q74 0 124.5 17t74 47t32 58.5t8.5 64.5q0 172 -243 172h-367v-359z" />
<glyph unicode="&#x412;" horiz-adv-x="1523" d="M186 0v1604h666q99 0 189 -26.5t163 -77t116.5 -133.5t43.5 -187q0 -225 -225 -342v-4q149 -57 222 -147.5t73 -244.5q0 -95 -32.5 -171t-87 -126t-129 -83t-155 -47.5t-168.5 -14.5h-676zM510 307h348q49 0 90.5 8t79.5 27t60 55.5t22 87.5q0 181 -262 181h-338v-359z M510 952h274q49 0 90 7.5t80 25.5t61.5 54.5t22.5 88.5q0 48 -20 82.5t-54.5 53t-73 26.5t-83.5 8h-297v-346z" />
<glyph unicode="&#x413;" horiz-adv-x="1230" d="M186 0v1604h1006v-314h-674v-1290h-332z" />
<glyph unicode="&#x414;" horiz-adv-x="1855" d="M111 307h8q85 0 158.5 57t123.5 150t82 200.5t43 217.5l68 672h1001v-1297h168v-643h-321v336h-1010v-336h-321v643zM590 309h676v991h-373l-43 -403q-8 -79 -24.5 -154t-45.5 -157.5t-78 -154.5t-112 -122z" />
<glyph unicode="&#x415;" horiz-adv-x="1357" d="M186 0v1604h1051v-312h-723v-325h647v-312h-647v-346h727v-309h-1055z" />
<glyph unicode="&#x416;" horiz-adv-x="2273" d="M-2 0l602 825l-577 779h405l533 -752l10 2v750h332v-752h10l530 752h408l-580 -779l604 -825h-409l-553 778h-10v-778h-332v778h-10l-553 -778h-410z" />
<glyph unicode="&#x417;" horiz-adv-x="1347" d="M53 317l291 150q41 -88 127.5 -136t198.5 -48q107 0 173 50.5t66 135.5q0 92 -62 140t-177 48h-211v308h192q109 0 169.5 50.5t60.5 129.5q0 76 -62 125t-174 49q-90 0 -160 -44.5t-110 -133.5l-297 141q68 166 223 256t356 90q250 0 403.5 -127t153.5 -334 q0 -221 -219 -338v-2q133 -56 191.5 -144.5t58.5 -221.5q0 -139 -75 -250t-208.5 -173.5t-299.5 -62.5q-213 0 -375 88t-234 254z" />
<glyph unicode="&#x418;" horiz-adv-x="1765" d="M186 0v1604h328v-1067l688 1067h377v-1604h-328v1116l-714 -1116h-351z" />
<glyph unicode="&#x419;" horiz-adv-x="1765" d="M186 0v1604h328v-1067l688 1067h377v-1604h-328v1116l-714 -1116h-351zM498 2130l186 33q61 -189 211 -189q152 0 209 189l184 -33q-27 -175 -128.5 -276t-264.5 -101q-164 0 -267 101.5t-130 275.5z" />
<glyph unicode="&#x41a;" horiz-adv-x="1507" d="M186 0v1604h330v-699l551 699h414l-613 -766l654 -838h-428l-578 762v-762h-330z" />
<glyph unicode="&#x41b;" horiz-adv-x="1705" d="M49 -6v303q64 0 116 30t84.5 75.5t56.5 109.5t35.5 121t18.5 121l89 850h1071v-1604h-330v1290h-449l-57 -553q-76 -743 -629 -743h-6z" />
<glyph unicode="&#x41c;" horiz-adv-x="2142" d="M186 0v1604h428l455 -1076l447 1076h440v-1604h-328v1059h-2l-446 -1059h-222l-444 1051h-2v-1051h-326z" />
<glyph unicode="&#x41d;" horiz-adv-x="1708" d="M186 0v1604h332v-633h672v633h332v-1604h-332v649h-672v-649h-332z" />
<glyph unicode="&#x41e;" horiz-adv-x="1841" d="M88 801q0 170 66.5 323.5t179 263.5t267.5 175t325 65q227 0 417 -108t300 -296t110 -415q0 -138 -42 -266t-119.5 -230t-180 -178.5t-230 -118t-263.5 -41.5q-170 0 -323.5 64.5t-264.5 174.5t-176.5 263t-65.5 324zM428 803q0 -136 65.5 -252.5t179.5 -185t249 -68.5 t249 68.5t179 185t65 252.5t-65 252t-179 184t-249 68t-249 -68t-179.5 -184t-65.5 -252z" />
<glyph unicode="&#x41f;" horiz-adv-x="1695" d="M186 0v1604h1321v-1604h-329v1290h-660v-1290h-332z" />
<glyph unicode="&#x420;" horiz-adv-x="1415" d="M186 0v1604h596q164 0 292 -56.5t205 -174.5t77 -283q0 -130 -44 -231t-123 -164.5t-185 -96.5t-234 -33h-252v-565h-332zM518 874h238q51 0 97 11.5t84.5 35.5t61.5 65t23 95q0 56 -22 98t-61 65.5t-85 34.5t-100 11h-236v-416z" />
<glyph unicode="&#x421;" horiz-adv-x="1703" d="M88 801q0 227 111.5 417.5t303 300t417.5 109.5q243 0 445 -126.5t282 -346.5l-304 -139q-52 134 -164 211.5t-261 77.5q-137 0 -249 -67.5t-174.5 -182t-62.5 -250.5q0 -139 61.5 -254.5t173.5 -183.5t251 -68q147 0 261.5 81.5t168.5 215.5l305 -141 q-54 -147 -170 -257t-263.5 -165.5t-306.5 -55.5q-172 0 -325.5 63.5t-263 173t-173 262.5t-63.5 325z" />
<glyph unicode="&#x422;" horiz-adv-x="1374" d="M41 1282v322h1292v-322h-479v-1282h-332v1282h-481z" />
<glyph unicode="&#x423;" horiz-adv-x="1492" d="M6 1604h365l405 -822l383 822h359l-627 -1258q-97 -194 -214.5 -280t-277.5 -86q-210 0 -362 112l182 270q83 -65 170 -65q66 0 115 35.5t88 113.5z" />
<glyph unicode="&#x424;" horiz-adv-x="2070" d="M78 821q0 207 101 364.5t280.5 241.5t410.5 84v144h330v-144q174 0 321 -49t251 -138t162.5 -218.5t58.5 -284.5q0 -98 -25.5 -193t-85.5 -188.5t-148.5 -163.5t-226 -113.5t-307.5 -43.5v-168h-330v168q-169 0 -306.5 43.5t-226 114t-148.5 163.5t-85.5 188t-25.5 193z M414 817q0 -180 125 -285.5t331 -105.5v780q-205 0 -330.5 -106t-125.5 -283zM1200 426q208 0 333.5 105.5t125.5 285.5q0 178 -125.5 283.5t-333.5 105.5v-780z" />
<glyph unicode="&#x425;" horiz-adv-x="1546" d="M-2 0l577 825l-544 779h389l354 -521l359 521h387l-549 -777l577 -827h-387l-391 578l-397 -578h-375z" />
<glyph unicode="&#x426;" horiz-adv-x="1771" d="M186 0v1604h330v-1289h662v1289h329v-1289h168v-651h-321v336h-1168z" />
<glyph unicode="&#x427;" horiz-adv-x="1572" d="M109 1032v572h329v-474q0 -40 4.5 -75t21.5 -78.5t45 -73.5t79.5 -51t120.5 -21q98 0 192 28t154 73v672h329v-1604h-329v623q-234 -117 -418 -117q-249 0 -388.5 133.5t-139.5 392.5z" />
<glyph unicode="&#x428;" horiz-adv-x="2488" d="M186 0v1604h332v-1291h561v1291h330v-1291h559v1291h334v-1604h-2116z" />
<glyph unicode="&#x429;" horiz-adv-x="2564" d="M186 0v1604h332v-1291h561v1291h330v-1291h559v1291h334v-1289h168v-651h-324v336h-1960z" />
<glyph unicode="&#x42a;" horiz-adv-x="1732" d="M45 1288v316h713v-607h364q121 0 217.5 -29t158 -76.5t102.5 -112t58 -131.5t17 -140q0 -75 -18 -145t-61 -137t-107 -116.5t-163.5 -79.5t-223.5 -30h-676v1288h-381zM758 313h344q60 0 105.5 13t71.5 33t42.5 47.5t21.5 52t5 51.5q0 32 -9.5 60.5t-34 59t-77 48.5 t-127.5 18h-342v-383z" />
<glyph unicode="&#x42b;" horiz-adv-x="2211" d="M186 0v1604h332v-607h365q121 0 217.5 -29t158 -76.5t102.5 -112t58 -131.5t17 -140q0 -75 -18 -145t-61 -137t-107.5 -116.5t-164 -79.5t-223.5 -30h-676zM518 313h344q73 0 125 19t76.5 50.5t34.5 62.5t10 65q0 24 -5.5 47t-21.5 49.5t-42.5 45.5t-73 31.5t-107.5 12.5 h-340v-383zM1692 0h331v1604h-331v-1604z" />
<glyph unicode="&#x42c;" horiz-adv-x="1492" d="M186 0v1604h332v-607h365q121 0 217.5 -29t158 -76.5t102.5 -112t58 -131.5t17 -140q0 -75 -18 -145t-61 -137t-107.5 -116.5t-164 -79.5t-223.5 -30h-676zM518 313h344q73 0 125 19t76.5 50.5t34.5 62.5t10 65q0 24 -5.5 47t-21.5 49.5t-42.5 45.5t-73 31.5t-107.5 12.5 h-340v-383z" />
<glyph unicode="&#x42d;" horiz-adv-x="1705" d="M51 453l301 137q54 -133 172 -214t269 -81q174 0 301 103t168 264h-639v296h632q-42 153 -168.5 252t-293.5 99q-152 0 -269 -77t-168 -210l-297 137q51 143 165.5 250.5t262.5 163t308 55.5q234 0 422.5 -108t293.5 -295.5t105 -417.5q0 -172 -61 -324.5t-168 -264 t-262 -176.5t-334 -65q-246 0 -451.5 128t-288.5 348z" />
<glyph unicode="&#x42e;" horiz-adv-x="2435" d="M186 0v1604h332v-652h217q52 293 275.5 484.5t527.5 191.5q171 0 321.5 -64t257 -174.5t168.5 -263t62 -323.5q0 -230 -106 -419.5t-292.5 -299t-414.5 -109.5q-305 0 -527 190.5t-272 487.5h-217v-653h-332zM1065 803q0 -137 61 -253t170 -184.5t242 -68.5 q134 0 242.5 69t168.5 184.5t60 252.5t-61 252.5t-170.5 183.5t-243.5 68q-203 0 -336 -143.5t-133 -360.5z" />
<glyph unicode="&#x42f;" horiz-adv-x="1497" d="M72 0l340 637q-141 57 -221 172t-80 291q0 122 44.5 219t122.5 158.5t180 94t220 32.5h633v-1604h-332v575h-246l-301 -575h-360zM446 1083q0 -99 76 -148.5t180 -49.5h277v405h-274q-51 0 -94 -10t-81.5 -32.5t-61 -64.5t-22.5 -100z" />
<glyph unicode="&#x430;" horiz-adv-x="1218" d="M86 305v4q0 78 30 138.5t77.5 97t113 60t130.5 32t136 8.5h109q42 0 64 22t22 58q0 57 -45 96t-131 39q-163 0 -244 -147l-244 145q68 125 194 192.5t308 67.5q217 0 346 -112.5t129 -327.5v-678h-295v135l-4 2q-110 -157 -327 -157q-154 0 -261.5 89t-107.5 236z M408 324q0 -56 39 -83.5t100 -27.5q102 0 160.5 60.5t58.5 150.5v25h-193q-70 0 -117.5 -32t-47.5 -93z" />
<glyph unicode="&#x431;" horiz-adv-x="1380" d="M111 659q0 75 2.5 133t11.5 131.5t25 131t44.5 123.5t67.5 117.5t96.5 104t129.5 92t169 73.5t213 55l320 57l55 -272l-375 -72q-111 -22 -200 -64.5t-141.5 -89t-88 -100.5t-49 -94t-16.5 -74l8 -2q54 65 121 109t130 61t100 22t67 5q209 0 352 -151t143 -388 q0 -265 -165 -427.5t-420 -162.5q-131 0 -240 44.5t-189.5 128.5t-125.5 214.5t-45 294.5zM440 549q0 -130 78.5 -206.5t192.5 -76.5t191 76.5t77 204.5q0 131 -82 204.5t-188 73.5q-107 0 -188 -74.5t-81 -201.5z" />
<glyph unicode="&#x432;" horiz-adv-x="1298" d="M147 0v1094h664q61 0 120.5 -14t116 -43.5t91.5 -84.5t35 -129q0 -175 -175 -250v-2q211 -62 211 -272q0 -81 -35.5 -141t-95.5 -93.5t-128.5 -49t-145.5 -15.5h-658zM461 250h301q72 0 101.5 31t29.5 73q0 44 -34.5 72.5t-104.5 28.5h-293v-205zM461 664h274 q66 0 94.5 31.5t28.5 72.5q0 39 -30 65.5t-89 26.5h-278v-196z" />
<glyph unicode="&#x433;" horiz-adv-x="1005" d="M147 0v1094h820v-277h-498v-817h-322z" />
<glyph unicode="&#x434;" horiz-adv-x="1460" d="M57 279h2q93 0 159 106.5t83 278.5l43 430h889v-818h137v-612h-297v336h-719v-336h-297v615zM442 279l2 -3h469v541h-280l-15 -162q-25 -266 -176 -376z" />
<glyph unicode="&#x435;" horiz-adv-x="1284" d="M80 549q0 155 78.5 286.5t212 208t288.5 76.5q244 0 394.5 -151.5t150.5 -395.5q0 -77 -4 -114h-794q15 -100 91 -157.5t179 -57.5q71 0 139.5 35.5t104.5 95.5l231 -152q-137 -248 -471 -248q-123 0 -233.5 42.5t-191.5 116.5t-128 182t-47 233zM414 670h471 q-5 71 -65 130.5t-169 59.5q-97 0 -161.5 -62t-75.5 -128z" />
<glyph unicode="&#x436;" horiz-adv-x="1880" d="M23 0l399 559l-391 535h379l364 -504h8v504h318v-504h8l365 504h378l-391 -535l398 -559h-385l-367 530h-6v-530h-318v530h-8l-364 -530h-387z" />
<glyph unicode="&#x437;" horiz-adv-x="1089" d="M49 240l250 141q76 -135 246 -135q61 0 99 30t38 70q0 100 -137 100h-135v211h131q61 0 92 27.5t31 71.5q0 38 -34 66t-98 28q-76 0 -133.5 -39t-93.5 -100l-242 135q72 135 197.5 203.5t286.5 68.5q194 0 312 -87t118 -238q0 -164 -152 -228v-2q89 -35 129.5 -93 t40.5 -148q0 -165 -122.5 -256t-325.5 -91q-365 0 -498 265z" />
<glyph unicode="&#x438;" horiz-adv-x="1333" d="M147 0v1094h316v-637h2l401 637h320v-1094h-316v631h-2l-399 -631h-322z" />
<glyph unicode="&#x439;" horiz-adv-x="1333" d="M147 0v1094h316v-637h2l401 637h320v-1094h-316v631h-2l-399 -631h-322zM270 1640l189 33q57 -186 209 -186t209 186l186 -31q-28 -175 -130 -275.5t-265 -100.5q-164 0 -267.5 100.5t-130.5 273.5z" />
<glyph unicode="&#x43a;" horiz-adv-x="1275" d="M147 0v1094h320v-469h4l403 469h390l-469 -533l489 -561h-407l-404 477h-6v-477h-320z" />
<glyph unicode="&#x43b;" horiz-adv-x="1366" d="M55 -8v270q44 0 76.5 20.5t52 58.5t30.5 82.5t17 102.5l62 568h926v-1094h-320v817h-317l-29 -305q-8 -80 -24 -148t-52 -139.5t-87 -121t-133.5 -81.5t-186.5 -32z" />
<glyph unicode="&#x43c;" horiz-adv-x="1699" d="M147 0v1094h435l268 -715l264 715h436v-1094h-313v748h-4l-270 -748h-226l-274 733h-2v-733h-314z" />
<glyph unicode="&#x43d;" horiz-adv-x="1318" d="M147 0v1094h320v-412h385v412h319v-1094h-319v416h-385v-416h-320z" />
<glyph unicode="&#x43e;" horiz-adv-x="1353" d="M80 545q0 160 80.5 292t218 206.5t301.5 74.5q163 0 299 -73t215.5 -203.5t79.5 -290.5q0 -162 -80.5 -294.5t-217.5 -207t-300 -74.5q-164 0 -300.5 73t-216 204t-79.5 293zM408 549q0 -123 78 -202t192 -79t191 79t77 202q0 121 -78 199.5t-192 78.5t-191 -78t-77 -200 z" />
<glyph unicode="&#x43f;" horiz-adv-x="1312" d="M147 0v1094h1018v-1094h-319v817h-377v-817h-322z" />
<glyph unicode="&#x440;" horiz-adv-x="1404" d="M147 -541v1635h318v-136h4q115 156 334 156q117 0 216.5 -49.5t165 -130t102 -181t36.5 -204.5q0 -107 -38.5 -209t-106 -182t-168 -129t-215.5 -49q-209 0 -324 141h-4v-662h-320zM459 549q0 -123 78 -202t192 -79t192 79t78 202q0 121 -78 198.5t-194 77.5 q-112 0 -190 -77.5t-78 -198.5z" />
<glyph unicode="&#x441;" horiz-adv-x="1259" d="M82 545q0 159 78.5 291t214 207t297.5 75q182 0 322.5 -88.5t193.5 -249.5l-281 -116q-33 74 -87 117.5t-148 43.5q-110 0 -186 -75t-76 -201q0 -123 72.5 -201t189.5 -78q172 0 241 162l283 -117q-64 -168 -203.5 -254t-322.5 -86q-127 0 -236.5 43.5t-186.5 119 t-121 181t-44 226.5z" />
<glyph unicode="&#x442;" horiz-adv-x="1064" d="M43 817v277h981v-277h-332v-817h-321v817h-328z" />
<glyph unicode="&#x443;" horiz-adv-x="1251" d="M27 1094h352l272 -625l244 625h330l-664 -1633h-342l268 656z" />
<glyph unicode="&#x444;" horiz-adv-x="1896" d="M86 547q0 106 28.5 204t83.5 179.5t147 130.5t208 49q67 0 133 -29t102 -71l-2 594h322v-594q36 42 102.5 71t135.5 29q93 0 170.5 -32.5t131 -87t90.5 -127.5t54.5 -153t17.5 -165q0 -107 -29 -205.5t-84 -178.5t-145 -127.5t-202 -47.5q-69 0 -139.5 27.5t-102.5 62.5 v-576h-322v576q-32 -36 -100.5 -63t-138.5 -27q-90 0 -167 31.5t-130 85.5t-91 126t-55.5 152.5t-17.5 165.5zM416 547q0 -48 11.5 -94t35.5 -89t69 -69.5t105 -26.5q78 0 151 49v459q-80 49 -151 49q-56 0 -100 -25t-69.5 -66t-38.5 -89t-13 -98zM1108 317q73 -49 152 -49 q60 0 105 26.5t69 70t35.5 90.5t11.5 96q0 67 -21.5 127t-73 103.5t-124.5 43.5q-74 0 -154 -49v-459z" />
<glyph unicode="&#x445;" horiz-adv-x="1177" d="M23 0l393 551l-381 543h358l197 -310l203 310h352l-385 -537l395 -557h-358l-209 322l-211 -322h-354z" />
<glyph unicode="&#x446;" horiz-adv-x="1394" d="M147 0v1094h322v-818h377v818h319v-818h140v-612h-297v336h-861z" />
<glyph unicode="&#x447;" horiz-adv-x="1247" d="M86 668v426h322v-336q0 -78 35.5 -130.5t119.5 -52.5q111 0 217 56v463h320v-1094h-320v375q-152 -74 -303 -74q-168 0 -279.5 94t-111.5 273z" />
<glyph unicode="&#x448;" horiz-adv-x="1970" d="M147 0v1094h322v-818h356v818h320v-818h358v818h320v-1094h-1676z" />
<glyph unicode="&#x449;" horiz-adv-x="2052" d="M147 0v1094h322v-818h356v818h320v-818h358v818h320v-820h139v-612h-297v338h-1518z" />
<glyph unicode="&#x44a;" horiz-adv-x="1466" d="M43 817v277h662v-328h245q213 0 338 -96.5t125 -282.5q0 -182 -118.5 -284.5t-325.5 -102.5h-586v817h-340zM705 252h219q168 0 168 141q0 61 -42.5 97t-125.5 36h-219v-274z" />
<glyph unicode="&#x44b;" horiz-adv-x="1847" d="M147 0v1094h320v-328h248q212 0 337.5 -97t125.5 -282q0 -182 -119 -284.5t-326 -102.5h-586zM467 252h219q168 0 168 141q0 61 -42 97t-126 36h-219v-274zM1380 0v1094h320v-1094h-320z" />
<glyph unicode="&#x44c;" horiz-adv-x="1230" d="M147 0v1094h320v-328h248q212 0 337.5 -97t125.5 -282q0 -182 -119 -284.5t-326 -102.5h-586zM467 252h219q168 0 168 141q0 61 -42 97t-126 36h-219v-274z" />
<glyph unicode="&#x44d;" horiz-adv-x="1255" d="M61 313l275 113q31 -70 95.5 -116t160.5 -46q92 0 158 49t90 129h-361v220h355q-27 80 -92.5 124.5t-149.5 44.5q-178 0 -250 -159l-274 112q54 159 199 246.5t327 87.5q122 0 229.5 -44.5t184.5 -120.5t121.5 -182t44.5 -226q0 -117 -44.5 -222.5t-121.5 -181.5 t-186 -121t-232 -45q-186 0 -327 85t-202 253z" />
<glyph unicode="&#x44e;" horiz-adv-x="1845" d="M147 0v1094h322v-414h154q43 195 199 316.5t368 121.5q163 0 294.5 -73.5t206 -203t74.5 -290.5q0 -163 -75 -295t-207 -206.5t-295 -74.5q-213 0 -366.5 120.5t-198.5 318.5h-154v-414h-322zM936 549q0 -124 70.5 -202.5t183.5 -78.5q112 0 180 78t68 203 q0 123 -69 200.5t-181 77.5q-114 0 -183 -75t-69 -203z" />
<glyph unicode="&#x44f;" horiz-adv-x="1318" d="M57 0l258 410q-209 88 -209 317q0 162 113.5 264.5t331.5 102.5h620v-1094h-317v348h-221l-217 -348h-359zM426 713q0 -57 44.5 -96t131.5 -39h252v266h-256q-24 0 -49 -5t-55 -17t-49 -40.5t-19 -68.5z" />
<glyph unicode="&#x451;" horiz-adv-x="1284" d="M80 549q0 155 78.5 286.5t212 208t288.5 76.5q244 0 394.5 -151.5t150.5 -395.5q0 -77 -4 -114h-794q15 -100 91 -157.5t179 -57.5q71 0 139.5 35.5t104.5 95.5l231 -152q-137 -248 -471 -248q-123 0 -233.5 42.5t-191.5 116.5t-128 182t-47 233zM236 1442q0 72 50.5 125 t125.5 53q74 0 126 -52.5t52 -125.5q0 -75 -52 -126.5t-126 -51.5t-125 51.5t-51 126.5zM414 670h471q-5 71 -65 130.5t-169 59.5q-97 0 -161.5 -62t-75.5 -128zM723 1442q0 72 51 125t125 53t126 -52.5t52 -125.5q0 -75 -52 -126.5t-126 -51.5t-125 51.5t-51 126.5z" />
<glyph unicode="&#x452;" horiz-adv-x="1275" d="M10 1268v217h137v184h318v-184h328v-217h-328v-318h2q29 51 76 87t95.5 51t81 20.5t56.5 5.5q81 0 148 -23.5t112 -64t76 -96.5t45 -118.5t14 -131.5v-762q0 -235 -115 -347t-351 -112q-62 0 -113 15v268q27 -6 55 -6q105 0 156 44.5t51 153.5v672q0 97 -47.5 155 t-142.5 58q-96 0 -146.5 -61t-50.5 -152v-606h-320v1268h-137z" />
<glyph unicode="&#x453;" horiz-adv-x="1007" d="M147 0v1094h820v-277h-498v-817h-322zM403 1276l220 383h366l-323 -383h-263z" />
<glyph unicode="&#x454;" horiz-adv-x="1257" d="M82 545q0 119 46.5 225.5t125.5 182.5t188.5 120.5t231.5 44.5q180 0 320 -87t194 -247l-275 -112q-72 159 -241 159q-86 0 -154.5 -44.5t-95.5 -124.5h354v-220h-358q27 -81 94.5 -129.5t159.5 -48.5q175 0 248 162l274 -113q-64 -167 -202.5 -252.5t-321.5 -85.5 q-127 0 -236.5 43.5t-186.5 119t-121 181t-44 226.5z" />
<glyph unicode="&#x455;" horiz-adv-x="1048" d="M57 227l236 140q30 -61 94 -97.5t152 -36.5q59 0 96 24t37 56q0 33 -35 58.5t-139 48.5q-389 86 -389 354q0 152 124 249t295 97q151 0 260 -60t162 -161l-231 -137q-61 104 -199 104q-50 0 -82 -23.5t-32 -56.5q0 -34 32.5 -59t110.5 -41q207 -43 314.5 -128t107.5 -228 q0 -157 -117 -256t-319 -99q-345 0 -478 252z" />
<glyph unicode="&#x456;" d="M109 1475q0 83 58 140.5t138 57.5q85 0 143 -57.5t58 -140.5q0 -82 -58.5 -139.5t-142.5 -57.5q-80 0 -138 58t-58 139zM147 0h322v1094h-322v-1094z" />
<glyph unicode="&#x457;" d="M-109 1442q0 72 51 125t126 53q74 0 126 -52.5t52 -125.5q0 -75 -52 -126.5t-126 -51.5t-125.5 51.5t-51.5 126.5zM147 0v1094h322v-1094h-322zM369 1442q0 72 51.5 125t126.5 53q73 0 125.5 -53t52.5 -125q0 -74 -52.5 -126t-125.5 -52q-74 0 -126 51.5t-52 126.5z" />
<glyph unicode="&#x458;" horiz-adv-x="632" d="M-98 -258q27 -6 55 -6q105 0 156 44.5t51 153.5v1160h319v-1176q0 -235 -116.5 -347t-352.5 -112q-61 0 -112 15v268zM125 1475q0 83 57.5 140.5t139.5 57.5q83 0 141.5 -57.5t58.5 -140.5q0 -82 -58.5 -139.5t-141.5 -57.5q-82 0 -139.5 57.5t-57.5 139.5z" />
<glyph unicode="&#x459;" horiz-adv-x="1982" d="M55 -8v270q82 0 122 71t54 193l62 568h924v-310h239q218 0 344.5 -100t126.5 -287q0 -184 -119.5 -290.5t-330.5 -106.5h-580v817h-315l-29 -305q-54 -522 -485 -522zM1217 252h213q89 0 132.5 39.5t43.5 111.5q0 63 -44 103.5t-132 40.5h-213v-295z" />
<glyph unicode="&#x45a;" horiz-adv-x="1933" d="M147 0v1094h320v-338h385v338h319v-338h246q214 0 338.5 -95t124.5 -280q0 -181 -118 -281t-324 -100h-586v512h-385v-512h-320zM1171 252h220q168 0 168 135q0 129 -168 129h-220v-264z" />
<glyph unicode="&#x45b;" horiz-adv-x="1308" d="M10 1268v217h137v184h320v-184h326v-217h-326v-303h2q32 46 76 78t88.5 46t77 19.5t59.5 5.5q100 0 178.5 -36t126 -97t72 -137.5t24.5 -163.5v-680h-319v606q0 95 -47 154t-141 59q-97 0 -147 -61.5t-50 -147.5v-610h-320v1268h-137z" />
<glyph unicode="&#x45c;" horiz-adv-x="1277" d="M147 0v1094h322v-469h4l404 469h387l-467 -533l489 -561h-407l-404 477h-6v-477h-322zM535 1276l219 383h366l-323 -383h-262z" />
<glyph unicode="&#x45e;" horiz-adv-x="1271" d="M27 1094h352l272 -625l244 625h330l-664 -1633h-342l268 656zM231 1640l187 33q25 -81 76.5 -133.5t134.5 -52.5q82 0 133 52.5t76 133.5l184 -31q-29 -175 -129.5 -275.5t-263.5 -100.5q-165 0 -268 100.5t-130 273.5z" />
<glyph unicode="&#x45f;" horiz-adv-x="1314" d="M147 0v1094h322v-818h377v818h319v-1094h-360v-336h-297v336h-361z" />
<glyph unicode="&#x490;" horiz-adv-x="1230" d="M186 0v1604h684v331h322v-645h-674v-1290h-332z" />
<glyph unicode="&#x491;" horiz-adv-x="1005" d="M147 0v1094h523v342h297v-619h-498v-817h-322z" />
<glyph unicode="&#x496;" horiz-adv-x="2328" d="M-2 0l602 825l-577 779h405l533 -752l10 2v750h332v-752h10l530 752h408l-580 -779l375 -510h229v-651h-321v336h-88l-553 778h-10v-778h-332v778h-10l-553 -778h-410z" />
<glyph unicode="&#x497;" horiz-adv-x="1925" d="M23 0l399 559l-391 535h379l364 -504h8v504h318v-504h8l365 504h378l-391 -535l203 -283h195v-612h-297l2 336h-90l-367 530h-6v-530h-318v530h-8l-364 -530h-387z" />
<glyph unicode="&#x498;" horiz-adv-x="1347" d="M53 317l291 150q41 -88 127.5 -136t198.5 -48q107 0 173 50.5t66 135.5q0 92 -62 140t-177 48h-211v308h192q109 0 169.5 50.5t60.5 129.5q0 76 -62 125t-174 49q-90 0 -160 -44.5t-110 -133.5l-297 141q68 166 223 256t356 90q250 0 403.5 -127t153.5 -334 q0 -221 -219 -338v-2q133 -56 191.5 -144.5t58.5 -221.5q0 -172 -114 -298.5t-302 -168.5v-330h-321v324q-159 27 -277.5 110.5t-177.5 218.5z" />
<glyph unicode="&#x499;" horiz-adv-x="1089" d="M49 240l250 141q76 -135 246 -135q61 0 99 30t38 70q0 100 -137 100h-135v211h131q61 0 92 27.5t31 71.5q0 38 -34 66t-98 28q-76 0 -133.5 -39t-93.5 -100l-242 135q72 135 197.5 203.5t286.5 68.5q194 0 312 -87t118 -238q0 -164 -152 -228v-2q89 -35 129.5 -93 t40.5 -148q0 -135 -84.5 -221t-230.5 -113v-324h-297v326q-229 47 -334 250z" />
<glyph unicode="&#x49a;" horiz-adv-x="1566" d="M186 0v1604h330v-699l551 699h414l-613 -766l408 -523h246v-651h-324v336h-104l-578 762v-762h-330z" />
<glyph unicode="&#x49b;" horiz-adv-x="1327" d="M147 0v1094h320v-469h4l403 469h390l-469 -533l249 -285h240v-612h-297l2 336h-112l-404 477h-6v-477h-320z" />
<glyph unicode="&#x4a2;" horiz-adv-x="1783" d="M186 0v1604h332v-633h672v633h332v-1289h166v-651h-322v336h-176v649h-672v-649h-332z" />
<glyph unicode="&#x4a3;" horiz-adv-x="1400" d="M147 0v1094h320v-412h385v412h319v-818h140v-612h-297v336h-162v416h-385v-416h-320z" />
<glyph unicode="&#x4aa;" horiz-adv-x="1703" d="M88 801q0 227 111.5 417.5t303 300t417.5 109.5q243 0 445 -126.5t282 -346.5l-304 -139q-52 134 -164 211.5t-261 77.5q-137 0 -249 -67.5t-174.5 -182t-62.5 -250.5q0 -139 61.5 -254.5t173.5 -183.5t251 -68q147 0 261.5 81.5t168.5 215.5l305 -141 q-67 -183 -223 -304t-355 -159v-328h-321v328q-192 36 -343.5 148.5t-237 285t-85.5 375.5z" />
<glyph unicode="&#x4ab;" horiz-adv-x="1259" d="M82 545q0 159 78.5 291t214 207t297.5 75q182 0 322.5 -88.5t193.5 -249.5l-281 -116q-33 74 -87 117.5t-148 43.5q-110 0 -186 -75t-76 -201q0 -123 72.5 -201t189.5 -78q172 0 241 162l283 -117q-51 -133 -149 -213.5t-230 -109.5v-328h-297v328q-197 44 -317.5 195.5 t-120.5 357.5z" />
<glyph unicode="&#x4ac;" horiz-adv-x="1386" d="M41 1282v322h1292v-322h-479v-967h168v-651h-322v336h-178v1282h-481z" />
<glyph unicode="&#x4ad;" horiz-adv-x="1075" d="M43 817v277h981v-277h-332v-541h139v-612h-296v336h-164v817h-328z" />
<glyph unicode="&#x4b2;" horiz-adv-x="1601" d="M-2 0l577 825l-544 779h389l354 -521l359 521h387l-549 -777l356 -512h221v-651h-321v336h-66l-391 578l-397 -578h-375z" />
<glyph unicode="&#x4b3;" horiz-adv-x="1222" d="M23 0l393 551l-381 543h358l197 -310l203 310h352l-385 -537l198 -281h197v-612h-297v336h-61l-209 322l-211 -322h-354z" />
<glyph unicode="&#x4b6;" horiz-adv-x="1648" d="M109 1032v572h329v-474q0 -40 4.5 -75t21.5 -78.5t45 -73.5t79.5 -51t120.5 -21q98 0 192 28t154 73v672h329v-1289h168v-651h-321v336h-176v623q-234 -117 -418 -117q-249 0 -388.5 133.5t-139.5 392.5z" />
<glyph unicode="&#x4b7;" horiz-adv-x="1329" d="M86 668v426h322v-336q0 -78 35.5 -130.5t119.5 -52.5q111 0 217 56v463h320v-818h137v-612h-297v336h-160v375q-152 -74 -303 -74q-168 0 -279.5 94t-111.5 273z" />
<glyph unicode="&#x4c0;" horiz-adv-x="706" d="M186 0v1604h332v-1604h-332z" />
<glyph unicode="&#x4c1;" horiz-adv-x="2273" d="M-2 0l602 825l-577 779h405l533 -752l10 2v750h332v-752h10l530 752h408l-580 -779l604 -825h-409l-553 778h-10v-778h-332v778h-10l-553 -778h-410zM741 2130l187 33q57 -189 211 -189q82 0 133 53t76 136l184 -33q-29 -175 -129.5 -276t-263.5 -101q-165 0 -268 101.5 t-130 275.5z" />
<glyph unicode="&#x4c2;" horiz-adv-x="1880" d="M23 0l399 559l-391 535h379l364 -504h8v504h318v-504h8l365 504h378l-391 -535l398 -559h-385l-367 530h-6v-530h-318v530h-8l-364 -530h-387zM545 1640l186 33q61 -186 211 -186q152 0 209 186l184 -31q-27 -175 -128 -275.5t-265 -100.5t-267 100.5t-130 273.5z" />
<glyph unicode="&#x4cf;" d="M147 0v1094h322v-1094h-322z" />
<glyph unicode="&#x4d0;" horiz-adv-x="1622" d="M-2 0l612 1604h400l614 -1604h-342l-121 324h-710l-119 -324h-334zM416 2130l186 33q61 -189 211 -189q152 0 209 189l184 -33q-27 -175 -128.5 -276t-264.5 -101q-164 0 -267 101.5t-130 275.5zM565 631h484l-242 651z" />
<glyph unicode="&#x4d1;" horiz-adv-x="1218" d="M86 305v4q0 78 30 138.5t77.5 97t113 60t130.5 32t136 8.5h109q42 0 64 22t22 58q0 57 -45 96t-131 39q-163 0 -244 -147l-244 145q68 125 194 192.5t308 67.5q217 0 346 -112.5t129 -327.5v-678h-295v135l-4 2q-110 -157 -327 -157q-154 0 -261.5 89t-107.5 236z M211 1640l186 33q57 -186 209 -186q150 0 211 186l184 -31q-28 -175 -130 -275.5t-265 -100.5q-164 0 -266 100.5t-129 273.5zM408 324q0 -56 39 -83.5t100 -27.5q102 0 160.5 60.5t58.5 150.5v25h-193q-70 0 -117.5 -32t-47.5 -93z" />
<glyph unicode="&#x4d2;" horiz-adv-x="1622" d="M-2 0l612 1604h400l614 -1604h-342l-121 324h-710l-119 -324h-334zM381 1911q0 73 51 125.5t125 52.5q73 0 125.5 -53t52.5 -125q0 -73 -52.5 -125.5t-125.5 -52.5t-124.5 52t-51.5 126zM565 631h484l-242 651zM889 1911q0 73 51 125.5t125 52.5t126 -52.5t52 -125.5 t-52.5 -125.5t-125.5 -52.5t-124.5 52t-51.5 126z" />
<glyph unicode="&#x4d3;" horiz-adv-x="1218" d="M86 305v4q0 78 30 138.5t77.5 97t113 60t130.5 32t136 8.5h109q42 0 64 22t22 58q0 57 -45 96t-131 39q-163 0 -244 -147l-244 145q68 125 194 192.5t308 67.5q217 0 346 -112.5t129 -327.5v-678h-295v135l-4 2q-110 -157 -327 -157q-154 0 -261.5 89t-107.5 236z M186 1442q0 72 51 125t125 53t126.5 -52.5t52.5 -125.5q0 -75 -52.5 -126.5t-126.5 -51.5t-125 51.5t-51 126.5zM408 324q0 -56 39 -83.5t100 -27.5q102 0 160.5 60.5t58.5 150.5v25h-193q-70 0 -117.5 -32t-47.5 -93zM676 1442q0 72 50.5 125t125.5 53q73 0 125.5 -53 t52.5 -125q0 -74 -52.5 -126t-125.5 -52q-74 0 -125 51.5t-51 126.5z" />
<glyph unicode="&#x4d4;" horiz-adv-x="2158" d="M-27 0l813 1604h1250v-312h-711v-325h637v-312h-637v-346h717v-309h-1045v322h-508l-157 -322h-359zM643 629h354v665h-18z" />
<glyph unicode="&#x4d5;" horiz-adv-x="1953" d="M86 305v12q0 76 29.5 134.5t77 94.5t113 59t130 31.5t135.5 8.5h111q42 0 64 22t22 58q0 57 -45 96t-131 39q-164 0 -242 -147l-244 145q66 125 192 192.5t308 67.5q237 0 359 -131q159 133 364 133q240 0 392.5 -150.5t152.5 -391.5q0 -80 -6 -119h-793q13 -99 90 -157 t181 -58q71 0 138.5 35.5t104.5 95.5l232 -152q-140 -248 -473 -248q-136 0 -252.5 50t-196.5 141q-171 -186 -428 -186h-18q-154 0 -260.5 89t-106.5 236zM408 324q0 -56 38 -83.5t99 -27.5q107 0 164 61t57 150v25h-195q-69 0 -116 -32t-47 -93zM1081 670h471 q-4 71 -63 130.5t-168 59.5q-97 0 -163 -62.5t-77 -127.5z" />
<glyph unicode="&#x4d6;" horiz-adv-x="1357" d="M186 0v1604h1051v-312h-723v-325h647v-312h-647v-346h727v-309h-1055zM319 2130l187 33q57 -189 211 -189q148 0 209 189l184 -33q-28 -175 -129.5 -276t-263.5 -101q-165 0 -268 101.5t-130 275.5z" />
<glyph unicode="&#x4d7;" horiz-adv-x="1284" d="M80 549q0 155 78.5 286.5t212 208t288.5 76.5q244 0 394.5 -151.5t150.5 -395.5q0 -77 -4 -114h-794q15 -100 91 -157.5t179 -57.5q71 0 139.5 35.5t104.5 95.5l231 -152q-137 -248 -471 -248q-123 0 -233.5 42.5t-191.5 116.5t-128 182t-47 233zM268 1640l189 33 q57 -186 209 -186q151 0 208 186l187 -31q-28 -175 -130 -275.5t-265 -100.5q-164 0 -267.5 100.5t-130.5 273.5zM414 670h471q-5 71 -65 130.5t-169 59.5q-97 0 -161.5 -62t-75.5 -128z" />
<glyph unicode="&#x4dc;" horiz-adv-x="2273" d="M-2 0l602 825l-577 779h405l533 -752l10 2v750h332v-752h10l530 752h408l-580 -779l604 -825h-409l-553 778h-10v-778h-332v778h-10l-553 -778h-410zM707 1911q0 73 50.5 125.5t125.5 52.5q73 0 125.5 -53t52.5 -125q0 -73 -52.5 -125.5t-125.5 -52.5t-124.5 52 t-51.5 126zM1214 1911q0 73 51 125.5t126 52.5q74 0 126 -52.5t52 -125.5t-52.5 -125.5t-125.5 -52.5t-125 52t-52 126z" />
<glyph unicode="&#x4dd;" horiz-adv-x="1880" d="M23 0l399 559l-391 535h379l364 -504h8v504h318v-504h8l365 504h378l-391 -535l398 -559h-385l-367 530h-6v-530h-318v530h-8l-364 -530h-387zM520 1442q0 72 51 125t125 53t126 -52.5t52 -125.5q0 -75 -52 -126.5t-126 -51.5t-125 51.5t-51 126.5zM1008 1442 q0 72 51 125t125 53t126 -52.5t52 -125.5q0 -75 -52 -126.5t-126 -51.5t-125 51.5t-51 126.5z" />
<glyph unicode="&#x4de;" horiz-adv-x="1347" d="M53 317l291 150q41 -88 127.5 -136t198.5 -48q107 0 173 50.5t66 135.5q0 92 -62 140t-177 48h-211v308h192q109 0 169.5 50.5t60.5 129.5q0 76 -62 125t-174 49q-90 0 -160 -44.5t-110 -133.5l-297 141q68 166 223 256t356 90q250 0 403.5 -127t153.5 -334 q0 -221 -219 -338v-2q133 -56 191.5 -144.5t58.5 -221.5q0 -139 -75 -250t-208.5 -173.5t-299.5 -62.5q-213 0 -375 88t-234 254zM221 1911q0 73 51 125.5t125 52.5t126 -52.5t52 -125.5t-52.5 -125.5t-125.5 -52.5q-72 0 -124 52.5t-52 125.5zM731 1911q0 73 50 125.5 t124 52.5t126 -52.5t52 -125.5t-52.5 -125.5t-125.5 -52.5q-72 0 -123 52t-51 126z" />
<glyph unicode="&#x4df;" horiz-adv-x="1089" d="M49 240l250 141q76 -135 246 -135q61 0 99 30t38 70q0 100 -137 100h-135v211h131q61 0 92 27.5t31 71.5q0 38 -34 66t-98 28q-76 0 -133.5 -39t-93.5 -100l-242 135q72 135 197.5 203.5t286.5 68.5q194 0 312 -87t118 -238q0 -164 -152 -228v-2q89 -35 129.5 -93 t40.5 -148q0 -165 -122.5 -256t-325.5 -91q-365 0 -498 265zM125 1442q0 72 51 125t125 53t126 -52.5t52 -125.5q0 -75 -52 -126.5t-126 -51.5t-125 51.5t-51 126.5zM612 1442q0 72 51 125t125 53t126.5 -52.5t52.5 -125.5q0 -75 -52.5 -126.5t-126.5 -51.5t-125 51.5 t-51 126.5z" />
<glyph unicode="&#x4e2;" horiz-adv-x="1765" d="M186 0v1604h328v-1067l688 1067h377v-1604h-328v1116l-714 -1116h-351zM508 1778v237h745v-237h-745z" />
<glyph unicode="&#x4e3;" horiz-adv-x="1333" d="M147 0v1094h316v-637h2l401 637h320v-1094h-316v631h-2l-399 -631h-322zM293 1286v240h745v-240h-745z" />
<glyph unicode="&#x4e4;" horiz-adv-x="1765" d="M186 0v1604h328v-1067l688 1067h377v-1604h-328v1116l-714 -1116h-351zM451 1911q0 73 50.5 125.5t125.5 52.5q73 0 125.5 -53t52.5 -125q0 -73 -52.5 -125.5t-125.5 -52.5t-124.5 52t-51.5 126zM958 1911q0 73 51 125.5t126 52.5q74 0 126 -52.5t52 -125.5t-52.5 -125.5 t-125.5 -52.5t-125 52t-52 126z" />
<glyph unicode="&#x4e5;" horiz-adv-x="1333" d="M147 0v1094h316v-637h2l401 637h320v-1094h-316v631h-2l-399 -631h-322zM246 1442q0 72 51 125t125 53t126 -52.5t52 -125.5q0 -75 -52 -126.5t-126 -51.5t-125 51.5t-51 126.5zM733 1442q0 72 51 125t125 53t126 -52.5t52 -125.5q0 -75 -52 -126.5t-126 -51.5t-125 51.5 t-51 126.5z" />
<glyph unicode="&#x4e6;" horiz-adv-x="1841" d="M88 801q0 170 66.5 323.5t179 263.5t267.5 175t325 65q227 0 417 -108t300 -296t110 -415q0 -138 -42 -266t-119.5 -230t-180 -178.5t-230 -118t-263.5 -41.5q-170 0 -323.5 64.5t-264.5 174.5t-176.5 263t-65.5 324zM428 803q0 -136 65.5 -252.5t179.5 -185t249 -68.5 t249 68.5t179 185t65 252.5t-65 252t-179 184t-249 68t-249 -68t-179.5 -184t-65.5 -252zM494 1911q0 73 50.5 125.5t125.5 52.5q73 0 125.5 -53t52.5 -125q0 -73 -52 -125.5t-126 -52.5q-73 0 -124.5 52t-51.5 126zM1001 1911q0 73 51 125.5t126 52.5q74 0 126 -52.5 t52 -125.5t-52 -125.5t-126 -52.5q-73 0 -125 52t-52 126z" />
<glyph unicode="&#x4e7;" horiz-adv-x="1353" d="M80 545q0 160 80.5 292t218 206.5t301.5 74.5q163 0 299 -73t215.5 -203.5t79.5 -290.5q0 -162 -80.5 -294.5t-217.5 -207t-300 -74.5q-164 0 -300.5 73t-216 204t-79.5 293zM258 1442q0 72 51 125t125 53t126 -52.5t52 -125.5q0 -75 -52 -126.5t-126 -51.5t-125 51.5 t-51 126.5zM408 549q0 -123 78 -202t192 -79t191 79t77 202q0 121 -78 199.5t-192 78.5t-191 -78t-77 -200zM745 1442q0 72 51.5 125t125.5 53t126 -52.5t52 -125.5q0 -75 -52 -126.5t-126 -51.5t-125.5 51.5t-51.5 126.5z" />
<glyph unicode="&#x4e8;" horiz-adv-x="1841" d="M88 801q0 170 66.5 323.5t179 263.5t267.5 175t325 65q227 0 417 -108t300 -296t110 -415q0 -138 -42 -266t-119.5 -230t-180 -178.5t-230 -118t-263.5 -41.5q-170 0 -323.5 64.5t-264.5 174.5t-176.5 263t-65.5 324zM436 662q40 -162 176.5 -268.5t309.5 -106.5 t310.5 107.5t174.5 267.5h-971zM438 948h967q-39 158 -175 263.5t-308 105.5q-171 0 -309 -106.5t-175 -262.5z" />
<glyph unicode="&#x4e9;" horiz-adv-x="1353" d="M80 545q0 160 80.5 292t218 206.5t301.5 74.5q163 0 299 -73t215.5 -203.5t79.5 -290.5q0 -162 -80.5 -294.5t-217.5 -207t-300 -74.5q-164 0 -300.5 73t-216 204t-79.5 293zM399 649h555q-26 91 -103 146t-175 55q-97 0 -174 -55.5t-103 -145.5zM401 438 q27 -88 103.5 -140t173.5 -52q96 0 172 53t102 139h-551z" />
<glyph unicode="&#x4ea;" horiz-adv-x="1841" d="M88 801q0 -171 65.5 -324t176.5 -263t264.5 -174.5t323.5 -64.5q136 0 263.5 41.5t230 118t180 178.5t119.5 230t42 266q0 227 -110 415t-300 296t-417 108q-170 0 -325 -65t-267.5 -175t-179 -263.5t-66.5 -323.5zM436 662h971q-37 -160 -174.5 -267.5t-310.5 -107.5 t-309.5 106.5t-176.5 268.5zM438 948q37 156 175 262.5t309 106.5q172 0 308 -105.5t175 -263.5h-967zM494 1911q0 73 50.5 125.5t125.5 52.5q73 0 125.5 -53t52.5 -125q0 -73 -52 -125.5t-126 -52.5q-73 0 -124.5 52t-51.5 126zM1001 1911q0 73 51 125.5t126 52.5 q74 0 126 -52.5t52 -125.5t-52 -125.5t-126 -52.5q-73 0 -125 52t-52 126z" />
<glyph unicode="&#x4eb;" horiz-adv-x="1353" d="M80 545q0 -162 79.5 -293t216 -204t300.5 -73q163 0 300 74.5t217.5 207t80.5 294.5q0 160 -79.5 290.5t-215.5 203.5t-299 73q-164 0 -301.5 -74.5t-218 -206.5t-80.5 -292zM258 1442q0 72 51 125t125 53t126 -52.5t52 -125.5q0 -75 -52 -126.5t-126 -51.5t-125 51.5 t-51 126.5zM399 649q26 90 103 145.5t174 55.5q98 0 175 -55t103 -146h-555zM401 438h551q-26 -86 -102 -139t-172 -53q-97 0 -173.5 52t-103.5 140zM745 1442q0 72 51.5 125t125.5 53t126 -52.5t52 -125.5q0 -75 -52 -126.5t-126 -51.5t-125.5 51.5t-51.5 126.5z" />
<glyph unicode="&#x4ec;" horiz-adv-x="1716" d="M51 453l301 137q54 -133 172 -214t269 -81q174 0 301 103t168 264h-639v296h632q-42 153 -168.5 252t-293.5 99q-152 0 -269 -77t-168 -210l-297 137q51 143 165.5 250.5t262.5 163t308 55.5q234 0 422.5 -108t293.5 -295.5t105 -417.5q0 -172 -61 -324.5t-168 -264 t-262 -176.5t-334 -65q-246 0 -451.5 128t-288.5 348zM381 1911q0 73 51 125.5t125 52.5t126 -52.5t52 -125.5t-52.5 -125.5t-125.5 -52.5t-124.5 52t-51.5 126zM889 1911q0 73 51 125.5t125 52.5t126 -52.5t52 -125.5t-52.5 -125.5t-125.5 -52.5q-72 0 -124 52.5t-52 125.5 z" />
<glyph unicode="&#x4ed;" horiz-adv-x="1255" d="M61 313l275 113q31 -70 95.5 -116t160.5 -46q92 0 158 49t90 129h-361v220h355q-27 80 -92.5 124.5t-149.5 44.5q-178 0 -250 -159l-274 112q54 159 199 246.5t327 87.5q122 0 229.5 -44.5t184.5 -120.5t121.5 -182t44.5 -226q0 -117 -44.5 -222.5t-121.5 -181.5 t-186 -121t-232 -45q-186 0 -327 85t-202 253zM168 1442q0 72 50.5 125t125.5 53q74 0 126 -52.5t52 -125.5q0 -75 -52 -126.5t-126 -51.5t-125 51.5t-51 126.5zM655 1442q0 72 51 125t125 53t126.5 -52.5t52.5 -125.5q0 -75 -52.5 -126.5t-126.5 -51.5t-125 51.5t-51 126.5 z" />
<glyph unicode="&#x4ee;" horiz-adv-x="1492" d="M6 1604h365l405 -822l383 822h359l-627 -1258q-97 -194 -214.5 -280t-277.5 -86q-210 0 -362 112l182 270q83 -65 170 -65q66 0 115 35.5t88 113.5zM395 1778v237h746v-237h-746z" />
<glyph unicode="&#x4ef;" horiz-adv-x="1271" d="M27 1094h352l272 -625l244 625h330l-664 -1633h-342l268 656zM256 1286v240h745v-240h-745z" />
<glyph unicode="&#x4f0;" horiz-adv-x="1492" d="M6 1604h365l405 -822l383 822h359l-627 -1258q-97 -194 -214.5 -280t-277.5 -86q-210 0 -362 112l182 270q83 -65 170 -65q66 0 115 35.5t88 113.5zM342 1911q0 73 51 125.5t125 52.5t126 -52.5t52 -125.5t-52 -125.5t-126 -52.5q-73 0 -124.5 52t-51.5 126zM850 1911 q0 73 51 125.5t125 52.5t126 -52.5t52 -125.5t-52 -125.5t-126 -52.5q-72 0 -124 52.5t-52 125.5z" />
<glyph unicode="&#x4f1;" horiz-adv-x="1271" d="M27 1094h352l272 -625l244 625h330l-664 -1633h-342l268 656zM209 1442q0 72 50 125t124 53t126 -52.5t52 -125.5q0 -75 -52 -126.5t-126 -51.5q-72 0 -123 51.5t-51 126.5zM696 1442q0 72 50.5 125t125.5 53q74 0 126.5 -52.5t52.5 -125.5q0 -75 -52.5 -126.5 t-126.5 -51.5t-125 51.5t-51 126.5z" />
<glyph unicode="&#x4f2;" horiz-adv-x="1492" d="M6 1604h365l405 -822l383 822h359l-627 -1258q-97 -194 -214.5 -280t-277.5 -86q-210 0 -362 112l182 270q83 -65 170 -65q66 0 115 35.5t88 113.5zM406 1745l219 385h356l-324 -385h-251zM858 1745l219 385h359l-326 -385h-252z" />
<glyph unicode="&#x4f3;" horiz-adv-x="1271" d="M27 1094h352l272 -625l244 625h330l-664 -1633h-342l268 656zM262 1276l221 383h357l-324 -383h-254zM717 1276l219 383h356l-323 -383h-252z" />
<glyph unicode="&#x4f4;" horiz-adv-x="1572" d="M109 1032v572h329v-474q0 -40 4.5 -75t21.5 -78.5t45 -73.5t79.5 -51t120.5 -21q98 0 192 28t154 73v672h329v-1604h-329v623q-234 -117 -418 -117q-249 0 -388.5 133.5t-139.5 392.5zM315 1911q0 73 51.5 125.5t125.5 52.5t126 -52.5t52 -125.5t-52 -125.5t-126 -52.5 q-73 0 -125 52t-52 126zM823 1911q0 73 51 125.5t125 52.5t126.5 -52.5t52.5 -125.5t-52.5 -125.5t-126.5 -52.5q-72 0 -124 52.5t-52 125.5z" />
<glyph unicode="&#x4f5;" horiz-adv-x="1247" d="M86 668v426h322v-336q0 -78 35.5 -130.5t119.5 -52.5q111 0 217 56v463h320v-1094h-320v375q-152 -74 -303 -74q-168 0 -279.5 94t-111.5 273zM172 1442q0 72 51 125t125 53t126 -52.5t52 -125.5q0 -75 -52 -126.5t-126 -51.5t-125 51.5t-51 126.5zM659 1442 q0 72 51.5 125t125.5 53t126 -52.5t52 -125.5q0 -75 -52 -126.5t-126 -51.5t-125.5 51.5t-51.5 126.5z" />
<glyph unicode="&#x4f8;" horiz-adv-x="2211" d="M186 0v1604h332v-607h365q121 0 217.5 -29t158 -76.5t102.5 -112t58 -131.5t17 -140q0 -75 -18 -145t-61 -137t-107.5 -116.5t-164 -79.5t-223.5 -30h-676zM518 313h344q73 0 125 19t76.5 50.5t34.5 62.5t10 65q0 24 -5.5 47t-21.5 49.5t-42.5 45.5t-73 31.5t-107.5 12.5 h-340v-383zM670 1911q0 73 50.5 125.5t125.5 52.5q73 0 125.5 -53t52.5 -125q0 -73 -53 -125.5t-125 -52.5q-73 0 -124.5 52t-51.5 126zM1178 1911q0 73 50.5 125.5t125.5 52.5q73 0 125.5 -53t52.5 -125q0 -73 -53 -125.5t-125 -52.5q-73 0 -124.5 52t-51.5 126zM1692 0 h331v1604h-331v-1604z" />
<glyph unicode="&#x4f9;" horiz-adv-x="1847" d="M147 0v1094h320v-328h248q212 0 337.5 -97t125.5 -282q0 -182 -119 -284.5t-326 -102.5h-586zM467 252h219q168 0 168 141q0 61 -42 97t-126 36h-219v-274zM504 1442q0 72 50.5 125t125.5 53q73 0 124.5 -52.5t51.5 -125.5q0 -74 -52 -126t-124 -52q-74 0 -125 51.5 t-51 126.5zM991 1442q0 72 51 125t125 53t126.5 -52.5t52.5 -125.5q0 -75 -52.5 -126.5t-126.5 -51.5t-125 51.5t-51 126.5zM1380 0v1094h320v-1094h-320z" />
<glyph unicode="&#x1e20;" horiz-adv-x="1757" d="M88 801q0 172 67 326t179.5 263.5t266.5 173.5t323 64q118 0 224.5 -28t185 -73t142.5 -105t103.5 -121.5t62.5 -124.5l-292 -144q-20 50 -52 96t-82.5 90t-127 70.5t-168.5 26.5q-204 0 -349 -148t-145 -364q0 -139 62 -255.5t176 -186.5t256 -70q160 0 271.5 74.5 t141.5 195.5h-487v301h833v-125q0 -146 -41.5 -271t-113 -214t-168 -152.5t-207.5 -94t-229 -30.5q-182 0 -338.5 65t-264 176.5t-168.5 263t-61 321.5zM553 1757v240h745v-240h-745z" />
<glyph unicode="&#x1e21;" horiz-adv-x="1396" d="M82 557q0 104 37 203t102.5 177t164 125.5t212.5 47.5q207 0 332 -149h4v133h313v-1098q0 -128 -45 -232t-124 -171.5t-187 -103.5t-234 -36q-405 0 -553 314l261 149q92 -184 290 -184q124 0 199.5 64.5t75.5 191.5v166h-4q-113 -146 -316 -146q-154 0 -275.5 73 t-187 198t-65.5 278zM307 1286v240h746v-240h-746zM406 557q0 -121 75.5 -195.5t190.5 -74.5q113 0 189.5 75t76.5 195t-76 194t-190 74q-112 0 -189 -75t-77 -193z" />
<glyph unicode="&#x1e30;" horiz-adv-x="1511" d="M186 0v1604h334v-699l549 699h416l-613 -766l652 -838h-428l-576 762v-762h-334zM674 1751l219 383h367l-324 -383h-262z" />
<glyph unicode="&#x1e31;" horiz-adv-x="1267" d="M147 0v1669h320v-1005l379 430h407l-440 -504l453 -590h-404l-387 518h-8v-518h-320zM627 1276l219 383h366l-323 -383h-262z" />
<glyph unicode="&#x1e60;" horiz-adv-x="1335" d="M39 352l287 148q46 -105 138 -164.5t212 -59.5q107 0 175.5 48t68.5 122q0 69 -63 111.5t-241 95.5q-279 83 -391 195q-123 120 -123 297q0 140 77 251.5t204.5 171.5t278.5 60q200 0 347 -90.5t216 -255.5l-275 -149q-39 95 -118.5 145.5t-184.5 50.5q-98 0 -155.5 -46 t-57.5 -118t60.5 -114.5t197.5 -81.5q141 -40 239 -83.5t173.5 -102t112 -136t36.5 -176.5q0 -107 -39 -197t-112 -157t-185 -104.5t-251 -37.5q-224 0 -390 101.5t-237 275.5zM467 1929q0 81 57.5 139t137.5 58q82 0 139 -57.5t57 -139.5q0 -80 -57.5 -137t-138.5 -57 q-80 0 -137.5 57.5t-57.5 136.5z" />
<glyph unicode="&#x1e61;" horiz-adv-x="1048" d="M57 227l236 140q30 -61 94 -97.5t152 -36.5q59 0 96 24t37 56q0 33 -35 58.5t-139 48.5q-389 86 -389 354q0 152 124 249t295 97q151 0 260 -60t162 -161l-231 -137q-61 104 -199 104q-50 0 -82 -23.5t-32 -56.5q0 -34 32.5 -59t110.5 -41q207 -43 314.5 -128t107.5 -228 q0 -157 -117 -256t-319 -99q-345 0 -478 252zM360 1460q0 79 57.5 137t135.5 58q83 0 141 -57.5t58 -137.5q0 -82 -58 -139t-141 -57q-79 0 -136 57.5t-57 138.5z" />
<glyph unicode="&#x1e80;" horiz-adv-x="2439" d="M39 1604h354l305 -1139l346 1139h355l346 -1147l315 1147h342l-475 -1604h-358l-348 1163h-4l-351 -1163h-356zM770 2134h367l219 -383h-262z" />
<glyph unicode="&#x1e81;" horiz-adv-x="1828" d="M37 1094h328l196 -678h2l205 678h295l205 -684l207 684h319l-344 -1094h-313l-224 698h-2l-225 -698h-309zM463 1659h366l220 -383h-263z" />
<glyph unicode="&#x1e82;" horiz-adv-x="2439" d="M39 1604h354l305 -1139l346 1139h355l346 -1147l315 1147h342l-475 -1604h-358l-348 1163h-4l-351 -1163h-356zM1094 1751l219 383h366l-323 -383h-262z" />
<glyph unicode="&#x1e83;" horiz-adv-x="1828" d="M37 1094h328l196 -678h2l205 678h295l205 -684l207 684h319l-344 -1094h-313l-224 698h-2l-225 -698h-309zM780 1276l219 383h367l-324 -383h-262z" />
<glyph unicode="&#x1e84;" horiz-adv-x="2439" d="M39 1604h354l305 -1139l346 1139h355l346 -1147l315 1147h342l-475 -1604h-358l-348 1163h-4l-351 -1163h-356zM791 1911q0 73 50.5 125.5t125.5 52.5q74 0 126 -52.5t52 -125.5t-52.5 -125.5t-125.5 -52.5t-124.5 52t-51.5 126zM1298 1911q0 73 51 125.5t126 52.5 q74 0 126 -52.5t52 -125.5t-52.5 -125.5t-125.5 -52.5t-125 52t-52 126z" />
<glyph unicode="&#x1e85;" horiz-adv-x="1828" d="M37 1094h328l196 -678h2l205 678h295l205 -684l207 684h319l-344 -1094h-313l-224 698h-2l-225 -698h-309zM496 1442q0 72 50.5 125t125.5 53q73 0 125.5 -53t52.5 -125q0 -74 -52.5 -126t-125.5 -52q-74 0 -125 51.5t-51 126.5zM983 1442q0 72 51 125t125 53t126 -52.5 t52 -125.5q0 -75 -52 -126.5t-126 -51.5t-125 51.5t-51 126.5z" />
<glyph unicode="&#x1e90;" horiz-adv-x="1402" d="M82 0h1231v307h-813l794 1012v285h-1175v-308h764l-801 -1003v-293zM301 1749l248 356h299l248 -356h-273l-125 186l-125 -186h-272z" />
<glyph unicode="&#x1e91;" horiz-adv-x="1107" d="M88 0h926v272h-520l516 578v244h-906v-273h494l-510 -573v-248zM154 1278l245 356h301l246 -356h-270l-125 186l-125 -186h-272z" />
<glyph unicode="&#x1ebc;" horiz-adv-x="1357" d="M186 0v1604h1051v-312h-723v-325h647v-312h-647v-346h727v-309h-1055zM303 1753q-9 156 61.5 245t204.5 89q57 0 106 -19.5t76 -43t56 -43t51 -19.5q70 0 70 119h198q8 -157 -62.5 -245.5t-205.5 -88.5q-55 0 -103.5 19.5t-76 43t-57.5 43t-52 19.5q-66 0 -69 -119h-197z " />
<glyph unicode="&#x1ebd;" horiz-adv-x="1284" d="M80 549q0 155 78.5 286.5t212 208t288.5 76.5q244 0 394.5 -151.5t150.5 -395.5q0 -77 -4 -114h-794q15 -100 91 -157.5t179 -57.5q71 0 139.5 35.5t104.5 95.5l231 -152q-137 -248 -471 -248q-123 0 -233.5 42.5t-191.5 116.5t-128 182t-47 233zM248 1282 q-9 156 61.5 245t204.5 89q57 0 106 -19.5t76 -43t56 -43t51 -19.5q69 0 69 119h199q8 -157 -62.5 -245.5t-205.5 -88.5q-55 0 -103.5 19.5t-76 43t-57.5 43t-52 19.5q-67 0 -70 -119h-196zM414 670h471q-5 71 -65 130.5t-169 59.5q-97 0 -161.5 -62t-75.5 -128z" />
<glyph unicode="&#x1ef2;" horiz-adv-x="1562" d="M29 1604h383l370 -641l375 641h379l-588 -955v-649h-332v635zM344 2134h367l219 -383h-262z" />
<glyph unicode="&#x1ef3;" horiz-adv-x="1271" d="M27 1094h352l272 -625l244 625h330l-664 -1633h-342l268 656zM190 1659h367l219 -383h-262z" />
<glyph unicode="&#x2000;" horiz-adv-x="1214" />
<glyph unicode="&#x2001;" horiz-adv-x="2429" />
<glyph unicode="&#x2002;" horiz-adv-x="1214" />
<glyph unicode="&#x2003;" horiz-adv-x="2429" />
<glyph unicode="&#x2004;" horiz-adv-x="809" />
<glyph unicode="&#x2005;" horiz-adv-x="607" />
<glyph unicode="&#x2006;" horiz-adv-x="404" />
<glyph unicode="&#x2007;" horiz-adv-x="404" />
<glyph unicode="&#x2008;" horiz-adv-x="303" />
<glyph unicode="&#x2009;" horiz-adv-x="485" />
<glyph unicode="&#x200a;" horiz-adv-x="134" />
<glyph unicode="&#x2010;" horiz-adv-x="937" d="M131 508v315h676v-315h-676z" />
<glyph unicode="&#x2011;" horiz-adv-x="937" d="M131 508v315h676v-315h-676z" />
<glyph unicode="&#x2012;" horiz-adv-x="937" d="M131 508v315h676v-315h-676z" />
<glyph unicode="&#x2013;" horiz-adv-x="1265" d="M131 512v307h1002v-307h-1002z" />
<glyph unicode="&#x2014;" horiz-adv-x="2050" d="M131 512v307h1788v-307h-1788z" />
<glyph unicode="&#x2018;" horiz-adv-x="641" d="M92 1128v11q0 137 78.5 264t210.5 215l121 -115q-77 -52 -128.5 -110t-88.5 -140q37 13 71 13q78 0 130.5 -54t52.5 -139q0 -89 -62.5 -151t-150.5 -62q-102 0 -168 73.5t-66 194.5z" />
<glyph unicode="&#x2019;" horiz-adv-x="643" d="M113 1401q0 90 62.5 152.5t150.5 62.5q102 0 167.5 -74t65.5 -196v-11q0 -135 -78.5 -262t-210.5 -217l-120 115q78 54 129 112t88 140q-35 -15 -72 -15q-78 0 -130 54t-52 139z" />
<glyph unicode="&#x201a;" horiz-adv-x="657" d="M104 203q0 89 62.5 151t150.5 62q101 0 167.5 -74t66.5 -195v-10q0 -137 -78.5 -264t-210.5 -217l-121 117q77 52 128.5 110t88.5 140q-43 -15 -71 -15q-78 0 -130.5 55t-52.5 140z" />
<glyph unicode="&#x201c;" horiz-adv-x="1200" d="M92 1128v11q0 137 78.5 264t210.5 215l121 -115q-77 -52 -128.5 -110t-88.5 -140q37 13 71 13q78 0 130.5 -54t52.5 -139q0 -89 -62.5 -151t-150.5 -62q-102 0 -168 73.5t-66 194.5zM655 1128v11q0 136 78 263.5t209 215.5l123 -115q-77 -52 -129.5 -110.5t-89.5 -139.5 q41 13 74 13q77 0 128.5 -54t51.5 -139q0 -89 -62 -151t-151 -62q-100 0 -166 73.5t-66 194.5z" />
<glyph unicode="&#x201d;" horiz-adv-x="1204" d="M113 1401q0 90 62.5 152.5t150.5 62.5q102 0 167.5 -74t65.5 -196v-11q0 -135 -78.5 -262t-210.5 -217l-120 115q78 54 129 112t88 140q-35 -15 -72 -15q-78 0 -130 54t-52 139zM676 1401q0 91 62 153t151 62q101 0 166 -73.5t65 -196.5v-11q0 -136 -77.5 -263 t-208.5 -216l-123 115q79 54 130.5 111.5t88.5 140.5q-34 -15 -72 -15q-78 0 -130 54t-52 139z" />
<glyph unicode="&#x201e;" horiz-adv-x="1218" d="M102 203q0 89 62.5 151t150.5 62q101 0 167.5 -74t66.5 -195v-10q0 -137 -78.5 -264t-210.5 -217l-121 117q77 52 128.5 110t88.5 140q-43 -15 -71 -15q-78 0 -130.5 55t-52.5 140zM666 203q0 89 62 151t151 62q101 0 166 -74t65 -195v-10q0 -137 -77.5 -264t-209.5 -217 l-123 117q78 52 130.5 110t89.5 140q-43 -15 -72 -15q-77 0 -129.5 55t-52.5 140z" />
<glyph unicode="&#x2020;" horiz-adv-x="1435" d="M170 838v290h385v390h324v-390h387v-290h-387v-838h-324v838h-385z" />
<glyph unicode="&#x2021;" horiz-adv-x="1435" d="M121 0v293h434v510h-434v291h434v422h324v-422h436v-291h-436v-510h436v-293h-436v-424h-324v424h-434z" />
<glyph unicode="&#x2022;" horiz-adv-x="987" d="M137 748q0 147 105 254.5t252 107.5t251.5 -107.5t104.5 -254.5q0 -148 -104.5 -253.5t-251.5 -105.5q-148 0 -252.5 105.5t-104.5 253.5z" />
<glyph unicode="&#x2026;" horiz-adv-x="2052" d="M100 197q0 92 66 157.5t158 65.5q93 0 157 -65t64 -158q0 -91 -64.5 -156.5t-156.5 -65.5q-91 0 -157.5 65.5t-66.5 156.5zM805 197q0 92 64.5 157.5t156.5 65.5q93 0 157 -65t64 -158q0 -92 -64 -157t-157 -65q-92 0 -156.5 65.5t-64.5 156.5zM1507 197q0 92 65.5 157.5 t156.5 65.5q93 0 158 -65t65 -158q0 -91 -65 -156.5t-158 -65.5q-91 0 -156.5 65.5t-65.5 156.5z" />
<glyph unicode="&#x202f;" horiz-adv-x="485" />
<glyph unicode="&#x2030;" horiz-adv-x="2603" d="M72 1257q0 151 106 258t256 107q151 0 257 -107t106 -258q0 -149 -106.5 -255.5t-256.5 -106.5t-256 106t-106 256zM248 0l1044 1604h277l-1043 -1604h-278zM307 1257q0 -51 37.5 -87.5t89.5 -36.5t89.5 36.5t37.5 87.5q0 53 -37.5 90t-89.5 37t-89.5 -37t-37.5 -90z M1024 352q0 151 106 258t256 107q151 0 257 -107t106 -258q0 -149 -106 -254.5t-257 -105.5t-256.5 105.5t-105.5 254.5zM1260 352q0 -51 37 -88t89 -37t89.5 37t37.5 88q0 54 -37 90.5t-90 36.5t-89.5 -36.5t-36.5 -90.5zM1808 352q0 151 106.5 258t258.5 107 q149 0 254.5 -107t105.5 -258q0 -149 -105.5 -254.5t-254.5 -105.5q-152 0 -258.5 105.5t-106.5 254.5zM2046 352q0 -52 37 -88.5t90 -36.5q51 0 88 37t37 88q0 54 -37 90.5t-88 36.5q-54 0 -90.5 -36.5t-36.5 -90.5z" />
<glyph unicode="&#x2039;" horiz-adv-x="815" d="M57 616l480 474l172 -170l-306 -302l308 -303l-176 -170z" />
<glyph unicode="&#x203a;" horiz-adv-x="815" d="M106 315l306 301l-306 304l173 170l479 -474l-477 -471z" />
<glyph unicode="&#x203d;" horiz-adv-x="1153" d="M47 1374q77 123 207 188.5t289 65.5q147 0 263.5 -52.5t183.5 -152t67 -229.5q0 -69 -17 -128t-52.5 -110.5t-77 -93.5t-103.5 -92q-75 -61 -113.5 -115.5t-38.5 -128.5v-24h-286l-23 639h301l-4 -187h2q119 105 119 205q0 78 -61 132.5t-168 54.5q-154 0 -242 -134z M313 174q0 83 58.5 142t138.5 59q84 0 142.5 -58.5t58.5 -142.5q0 -82 -58.5 -139.5t-142.5 -57.5q-80 0 -138.5 58t-58.5 139z" />
<glyph unicode="&#x2042;" horiz-adv-x="1884" d="M63 360l62 181l237 -78v258h197v-258l240 78l61 -181l-239 -79l147 -203l-154 -113l-153 205l-152 -205l-151 113l147 203zM545 1243l59 180l240 -77v258h194v-258l242 77l59 -180l-239 -78l147 -204l-153 -113l-154 207l-149 -207l-152 113l145 204zM1024 360l59 181 l238 -78v258h199v-258l239 78l62 -181l-242 -79l147 -203l-151 -113l-154 205l-151 -205l-152 113l148 203z" />
<glyph unicode="&#x2044;" horiz-adv-x="1329" d="M4 0l1047 1604h276l-1042 -1604h-281z" />
<glyph unicode="&#x2051;" horiz-adv-x="997" d="M100 360l60 181l239 -78v258h197v-258l240 78l61 -181l-242 -79l148 -203l-152 -113l-153 205l-152 -205l-151 113l147 203zM100 1243l60 180l239 -77v258h197v-258l240 77l61 -180l-242 -78l148 -204l-152 -113l-153 207l-152 -207l-151 113l147 204z" />
<glyph unicode="&#x205f;" horiz-adv-x="607" />
<glyph unicode="&#x20a4;" horiz-adv-x="1388" d="M98 264q115 69 189 132t104 134h-274v183h270l-20 45q-5 10 -13.5 30.5t-13.5 30.5l-18 35h-205v182h121q-19 59 -19 111q0 129 70 239t194.5 176t274.5 66q202 0 335.5 -94t180.5 -256l-299 -139q-57 178 -213 178q-89 0 -145 -46.5t-56 -129.5q0 -44 21 -105h454v-182 h-366q37 -87 45 -141h321v-183h-331q-33 -98 -136 -165q27 6 52 6q75 0 171.5 -39t157.5 -39q45 0 87.5 23.5t66.5 64.5l225 -156q-46 -123 -147.5 -185.5t-235.5 -62.5q-65 0 -127 16.5t-102 36t-93.5 36t-103.5 16.5q-106 0 -266 -94z" />
<glyph unicode="&#x20a6;" horiz-adv-x="1941" d="M121 508v211h149v121h-149v211h149v553h377l699 -1047v1047h327v-553h148v-211h-148v-121h148v-211h-148v-508h-340l-735 1106v-1106h-328v508h-149z" />
<glyph unicode="&#x20a9;" horiz-adv-x="2576" d="M106 1604h355l307 -1139l344 1139h354l346 -1147l318 1147h340l-160 -541h150v-211h-213l-35 -123h248v-211h-312l-151 -518h-361l-348 1163h-4l-350 -1163h-356l-152 518h-307v211h243l-34 123h-209v211h147z" />
<glyph unicode="&#x20aa;" horiz-adv-x="2105" d="M188 0v1348h689q140 0 241 -23.5t164.5 -65.5t100.5 -110t51 -146t14 -186v-387h-322v373q0 55 -6.5 92.5t-25 71.5t-51.5 53.5t-87 31t-131 11.5h-315v-1063h-322zM657 0v918h322v-633h315q170 0 235.5 57.5t65.5 202.5v803h322v-818q0 -108 -14 -186t-51 -146 t-100.5 -109.5t-164.5 -65t-241 -23.5h-689z" />
<glyph unicode="&#x20ab;" horiz-adv-x="1476" d="M78 549q0 104 38.5 205t105.5 181t167.5 129.5t214.5 49.5q31 0 63 -4.5t79.5 -17.5t96 -44.5t87.5 -78.5h4v299h-305v217h305v184h319v-184h125v-217h-125v-1268h-311v139h-4q-106 -159 -340 -159q-115 0 -213.5 47.5t-165 126.5t-104 181.5t-37.5 213.5zM156 -141h1140 v-277h-1140v277zM401 549q0 -123 78.5 -202t192.5 -79t192 79t78 202q0 121 -78 198.5t-190 77.5q-116 0 -194.5 -77.5t-78.5 -198.5z" />
<glyph unicode="&#x20ac;" horiz-adv-x="1882" d="M82 539v204h160q-2 18 -2 58q0 45 2 65h-160v207h203q56 165 174 291.5t277 195t335 68.5q160 0 305 -54.5t257.5 -163t164.5 -255.5l-303 -139q-52 134 -163.5 211.5t-260.5 77.5q-130 0 -241 -63.5t-177 -168.5h559l-65 -207h-563q-4 -40 -4 -61q0 -22 4 -62h528 l-63 -204h-398q63 -109 173.5 -173.5t246.5 -64.5q146 0 260 81t168 214l305 -141q-54 -147 -170 -257t-262.5 -165.5t-304.5 -55.5q-272 0 -489.5 153t-298.5 409h-197z" />
<glyph unicode="&#x20ae;" horiz-adv-x="1472" d="M100 1282v322h1295v-322h-484v-291l387 129v-217l-387 -129v-137l387 131v-217l-387 -129v-422h-327v311l-387 -131v217l387 129v138l-387 -129v217l387 129v401h-484z" />
<glyph unicode="&#x20b1;" horiz-adv-x="1660" d="M98 989v185h172v430h594q229 0 385.5 -111.5t184.5 -318.5h159v-185h-161q-31 -207 -187.5 -315.5t-390.5 -108.5h-252v-565h-332v989h-172zM602 870h250q84 0 146 30.5t89 92.5h-485v-123zM602 1169h488q-48 123 -240 123h-248v-123z" />
<glyph unicode="&#x20b4;" horiz-adv-x="1525" d="M104 541v211h1311v-211h-880q-19 -40 -19 -86q0 -81 72 -131t178 -50q121 0 219 52t156 137l254 -182q-98 -156 -250 -231t-391 -75q-137 0 -247.5 38t-181.5 104.5t-109 154.5t-38 191q0 28 4 78h-78zM104 881v211h883q12 27 12 65q0 76 -66 124t-151 48 q-193 0 -305 -149l-250 188q166 258 559 258q119 0 221.5 -38.5t172 -104t109.5 -152.5t40 -182q0 -39 -2 -57h88v-211h-1311z" />
<glyph unicode="&#x20b8;" horiz-adv-x="1484" d="M96 842v317h1293v-317h-482v-842h-329v842h-482zM96 1286v318h1293v-318h-1293z" />
<glyph unicode="&#x20b9;" horiz-adv-x="1327" d="M115 575v306h366q71 0 125 28t78 84h-569v189h573q-48 110 -209 110h-364v312h1128v-287h-291q55 -65 72 -135h219v-189h-217q-41 -256 -291 -356l330 -637h-365l-286 575h-299z" />
<glyph unicode="&#x20ba;" horiz-adv-x="1521" d="M121 440v226l225 102v141l-225 -102v225l225 103v469h332v-322l477 215v-225l-477 -215v-142l477 215v-225l-477 -215v-385q104 2 182 23.5t127.5 56t81.5 87.5t46.5 112t19.5 137l315 -35q-8 -332 -217 -509t-617 -177h-270v543z" />
<glyph unicode="&#x20bd;" horiz-adv-x="1531" d="M121 244v200h190v121h-190v299h190v740h576q164 0 291.5 -56.5t204.5 -174.5t77 -283q0 -130 -44.5 -231t-123.5 -164.5t-185 -96.5t-233 -33h-233v-121h363v-200h-363v-244h-330v244h-190zM641 874h238q51 0 97 11.5t84.5 35.5t61.5 65t23 95q0 56 -22 98t-61 65.5 t-85 34.5t-100 11h-236v-416z" />
<glyph unicode="&#x2122;" horiz-adv-x="2179" d="M76 1403v201h747v-201h-262v-723h-221v723h-264zM971 680v924h309l213 -582l203 582h321v-924h-217v618h-8l-223 -618h-152l-225 610h-8v-610h-213z" />
<glyph unicode="&#x2202;" horiz-adv-x="1392" d="M84 512q0 149 76.5 266t201 178.5t271.5 61.5q170 0 311 -84q-24 171 -120.5 283t-258.5 112q-65 0 -150.5 -24.5t-148.5 -65.5l-123 268q92 58 215.5 88.5t225.5 30.5q147 0 267.5 -49t201.5 -132t136.5 -196.5t80 -240t24.5 -265.5q0 -125 -22.5 -236t-72.5 -208.5 t-124 -167.5t-183 -110.5t-243 -40.5q-159 0 -286.5 63t-203 185t-75.5 284zM420 508q0 -96 72 -161.5t172 -65.5q74 0 131 28.5t91.5 78t52.5 111.5t19 134q-46 44 -120 74t-138 30q-122 0 -201 -58t-79 -171z" />
<glyph unicode="&#x2206;" horiz-adv-x="1753" d="M63 0l615 1604h397l615 -1604h-1627zM516 307h717l-359 965z" />
<glyph unicode="&#x220f;" horiz-adv-x="1638" d="M78 1300v304h1485v-304h-256v-1300h-328v1300h-320v-1300h-327v1300h-254z" />
<glyph unicode="&#x2211;" horiz-adv-x="1378" d="M104 0v299l531 522l-506 484v299h1137v-304h-701l512 -481l-528 -516h717v-303h-1162z" />
<glyph unicode="&#x221a;" horiz-adv-x="1613" d="M35 1018v256h508l307 -897l489 1585h263l-607 -1962h-299l-379 1018h-282z" />
<glyph unicode="&#x221e;" horiz-adv-x="2072" d="M102 664q0 194 130.5 324t326.5 130q70 0 137 -22.5t131.5 -68t107 -82.5t103.5 -97q6 6 19 18q55 52 84 78t81.5 65.5t94 59t99.5 34.5t120 15q195 0 314.5 -130t119.5 -324q0 -193 -132 -322t-327 -129q-56 0 -113 17t-100 40t-96.5 64.5t-85 70.5t-82.5 78 q-122 -115 -172 -153q-160 -114 -325 -117q-193 0 -314 130t-121 321zM377 668q0 -79 55.5 -137t132.5 -58q39 0 77 14.5t78.5 45.5t63 52t62.5 61l16 16l-53 55q-32 31 -55 51t-55.5 43.5t-65 35t-64.5 11.5q-79 0 -135.5 -56t-56.5 -134zM1210 666q11 -11 40.5 -40 t46 -44.5t46 -39.5t52.5 -36.5t52.5 -22.5t57.5 -10q78 0 134.5 57.5t56.5 135.5t-55 135t-130 57q-41 0 -82 -16.5t-84.5 -51.5t-68 -58t-66.5 -66z" />
<glyph unicode="&#x222b;" horiz-adv-x="925" d="M35 -248q57 1 93 6t72 18.5t55.5 38.5t31.5 67t12 102v1142q0 140 31.5 237t96.5 154.5t154.5 83t215.5 27.5h94v-297q-57 -1 -93 -5.5t-72.5 -18t-56 -37.5t-32 -66t-12.5 -102v-1145q0 -139 -31.5 -236t-96 -155t-154.5 -83.5t-214 -25.5h-94v295z" />
<glyph unicode="&#x2248;" horiz-adv-x="1343" d="M129 481q128 219 328 219q64 0 132.5 -26t115 -56.5t97.5 -56.5t85 -26q80 0 155 104l172 -162q-128 -219 -327 -219q-48 0 -98.5 17.5t-93.5 42t-83 49t-81 42t-74 17.5q-47 0 -84.5 -28t-73.5 -76zM129 1020q128 219 328 219q64 0 132.5 -26.5t115 -57.5t97.5 -57.5 t85 -26.5q79 0 155 105l172 -160q-128 -219 -327 -219q-58 0 -122.5 26.5t-111.5 57.5t-101.5 57.5t-94.5 26.5q-47 0 -84 -28.5t-74 -76.5z" />
<glyph unicode="&#x2260;" horiz-adv-x="1296" d="M129 319v297h324l141 265h-465v295h616l168 315l203 -102l-112 -213h163v-295h-317l-139 -265h456v-297h-614l-174 -335l-203 108l121 227h-168z" />
<glyph unicode="&#x2264;" horiz-adv-x="1349" d="M127 0h1071v285h-1071v-285zM127 778v277l1067 385v-299l-694 -219v-7l694 -223v-303z" />
<glyph unicode="&#x2265;" horiz-adv-x="1351" d="M152 0h1073v285h-1073v-285zM156 389v301l694 223v5l-694 221v301l1069 -385v-277z" />
<glyph unicode="&#x25ca;" horiz-adv-x="1509" d="M4 805l576 799h340l573 -799l-573 -805h-340zM410 805l340 -475l340 475l-340 473z" />
<glyph unicode="&#x25fc;" horiz-adv-x="1095" d="M0 0v1096h1096v-1096h-1096z" />
</font>
</defs>
</svg>
