<svg width="16" height="13" fill="none" xmlns="http://www.w3.org/2000/svg"><path d="M16 1.542c-.588.26-1.22.437-1.885.516A3.29 3.29 0 0015.558.243a6.556 6.556 0 01-2.084.795A3.284 3.284 0 007.88 4.032 9.326 9.326 0 011.114.603a3.278 3.278 0 00-.056 3.198c.254.477.623.883 1.072 1.183a3.276 3.276 0 01-1.487-.41v.042a3.28 3.28 0 002.634 3.217c-.484.13-.99.15-1.483.056a3.283 3.283 0 003.067 2.278A6.59 6.59 0 010 11.526 9.287 9.287 0 005.031 13c6.04 0 9.34-4.999 9.34-9.335 0-.14-.003-.283-.01-.424A6.672 6.672 0 0016 1.544L16 1.542z" fill="#A2A2A2"/></svg>