<svg width="20" height="12" fill="none" xmlns="http://www.w3.org/2000/svg"><path fill-rule="evenodd" clip-rule="evenodd" d="M17.802 8.015s1.617 1.597 2.017 2.336c.008.01.014.022.018.035.163.273.203.487.123.645-.135.261-.592.392-.747.403h-2.858c-.199 0-.613-.052-1.117-.4-.385-.269-.768-.712-1.139-1.145-.554-.643-1.033-1.201-1.518-1.201a.548.548 0 00-.18.03c-.367.116-.833.639-.833 2.032 0 .436-.344.684-.585.684H9.674c-.446 0-2.768-.156-4.827-2.327C2.324 6.449.058 1.117.037 1.07-.106.725.19.537.51.537h2.886c.387 0 .513.234.601.444.102.241.48 1.205 1.1 2.288C6.102 5.031 6.72 5.748 7.212 5.748a.527.527 0 00.264-.07C8.12 5.324 8 3.024 7.97 2.55c0-.092 0-1.027-.33-1.479C7.402.747 7 .621 6.757.575c.065-.094.203-.238.38-.323C7.58.032 8.376 0 9.168 0h.438c.858.012 1.08.067 1.392.146.628.15.64.557.585 1.943-.016.396-.033.842-.033 1.367 0 .112-.005.237-.005.364-.019.711-.044 1.512.458 1.841a.41.41 0 00.217.062c.174 0 .695 0 2.108-2.425.62-1.071 1.1-2.334 1.133-2.429.028-.053.112-.202.214-.262a.479.479 0 01.236-.056h3.395c.37 0 .621.056.67.196.082.227-.016.92-1.566 3.016-.26.349-.49.651-.69.915-1.406 1.844-1.406 1.937.082 3.337z" fill="#A2A2A2"/></svg>