<svg width="13" height="13" fill="none" xmlns="http://www.w3.org/2000/svg"><path d="M4.875 11.556a.903.903 0 100-1.806.903.903 0 000 1.806zM9.57 11.556a.903.903 0 100-1.806.903.903 0 000 1.806zM11.953 2.307a.362.362 0 00-.285-.14H3.326l-.163-.517a.361.361 0 00-.238-.234L1.445.96a.363.363 0 00-.214.693l1.297.397 1.654 5.225-.589.484-.047.047a.96.96 0 00-.029 1.22.993.993 0 00.816.362h6.027a.361.361 0 000-.722H4.276a.242.242 0 01-.203-.361l.87-.723h5.573a.361.361 0 00.36-.274l1.156-4.695a.362.362 0 00-.08-.307z" fill="#000"/></svg>