<?xml version="1.0" encoding="UTF-8"?>
<svg width="17px" height="16px" viewBox="0 0 17 16" version="1.1" xmlns="http://www.w3.org/2000/svg" xmlns:xlink="http://www.w3.org/1999/xlink">
    <!-- Generator: Sketch 53 (72520) - https://sketchapp.com -->
    <title>icon-moikrug</title>
    <desc>Created with Sketch.</desc>
    <g id="Page-1" stroke="none" stroke-width="1" fill="none" fill-rule="evenodd">
        <g id="icon-moikrug" transform="translate(0.000000, -1.000000)" fill="#000000" fill-rule="nonzero">
            <g id="Group" transform="translate(8.500000, 8.111112) scale(-1, 1) rotate(-180.000000) translate(-8.500000, -8.111112) translate(0.000000, 0.111112)">
                <path d="M0,7.55555556 L0,0 L2.09230769,0 L4.18461538,0 L4.23111111,4.37059829 L4.3008547,8.71794872 L5.81196581,6.11418803 C7.2765812,3.55692308 7.34632479,3.48717949 8.13675214,3.48717949 C8.92717949,3.48717949 8.99692308,3.55692308 10.4615385,6.11418803 L11.9726496,8.71794872 L12.0423932,4.37059829 L12.0888889,0 L14.1811966,0 L16.2735043,0 L16.2735043,7.55555556 L16.2735043,15.1111111 L13.9952137,15.1111111 L11.7401709,15.1111111 L9.9965812,12.2051282 C9.0434188,10.6010256 8.20649573,9.2991453 8.13675214,9.2991453 C8.06700855,9.2991453 7.23008547,10.6010256 6.27692308,12.2051282 L4.53333333,15.1111111 L2.2782906,15.1111111 L0,15.1111111 L0,7.55555556 Z" id="Path"></path>
            </g>
        </g>
    </g>
</svg>