<svg width="121" height="20" xmlns="http://www.w3.org/2000/svg" xmlns:xlink="http://www.w3.org/1999/xlink"><defs><path d="M71.172 16.267c2.153 0 4.11-1.117 5.172-2.89a.314.314 0 0 1 .453-.098l2.438 1.734c.138.099.174.29.085.437-1.767 2.878-4.663 4.55-8.148 4.55C65.61 20 61.1 15.534 61.1 10.026S65.61.053 71.173.053c3.491 0 6.314 1.682 8.177 4.548.095.145.06.34-.08.443L76.848 6.78a.313.313 0 0 1-.444-.083c-1.217-1.84-3.057-2.91-5.23-2.91-3.305 0-5.984 2.793-5.984 6.24 0 3.446 2.679 6.24 5.983 6.24h-.001zM10.072 0c5.564 0 10.074 4.465 10.074 9.973 0 5.508-4.51 9.973-10.073 9.973C4.51 19.946 0 15.48 0 9.973 0 4.465 4.51 0 10.073 0h-.001zm0 16.214c3.305 0 5.984-2.794 5.984-6.24s-2.679-6.24-5.983-6.24-5.984 2.794-5.984 6.24 2.68 6.24 5.984 6.24h-.001zM91.298 0c5.563 0 10.073 4.465 10.073 9.973 0 5.508-4.51 9.973-10.073 9.973-5.563 0-10.073-4.465-10.073-9.973C81.225 4.465 85.735 0 91.298 0zm0 16.214c3.304 0 5.983-2.794 5.983-6.24s-2.679-6.24-5.983-6.24c-3.305 0-5.984 2.794-5.984 6.24s2.68 6.24 5.984 6.24zM39.783.339c.174 0 .316.144.318.322v10.131c0 1.779-.516 3.662-1.406 5.047a8.79 8.79 0 0 1-2.565 2.604 8.578 8.578 0 0 1-4.746 1.426c-1.75 0-3.38-.524-4.746-1.426a8.803 8.803 0 0 1-2.565-2.604c-.889-1.385-1.406-3.268-1.406-5.047V.661c0-.178.141-.322.317-.322h3.337c.174 0 .316.143.316.322v9.904c0 3.406 2.168 5.315 4.826 5.27 2.602-.045 4.665-1.548 4.665-5.35V.662c0-.178.141-.322.317-.322h3.338V.339zm79.814 3.765c.889 1.386 1.405 3.269 1.403 5.047v10.132c0 .177-.14.32-.316.32h-3.337a.319.319 0 0 1-.317-.32V9.379c0-3.407-2.168-5.316-4.826-5.27-2.602.043-4.665 1.548-4.665 5.348v9.826c0 .177-.141.32-.317.32h-3.337a.319.319 0 0 1-.317-.32V9.15c0-1.778.517-3.661 1.407-5.047A8.79 8.79 0 0 1 107.54 1.5a8.578 8.578 0 0 1 4.746-1.426c1.75 0 3.38.524 4.745 1.426a8.803 8.803 0 0 1 2.566 2.604zM60.07.301c.175 0 .317.144.315.322v3.104a.319.319 0 0 1-.317.321h-6.414v15.234c0 .177-.14.32-.316.32h-3.337a.319.319 0 0 1-.316-.32V4.047h-6.414a.319.319 0 0 1-.317-.321V.622c0-.177.141-.321.317-.321H60.07z" id="a"/></defs><use fill="#FFF" xlink:href="#a" fill-rule="evenodd"/></svg>