<?xml version="1.0" encoding="UTF-8"?>
<svg width="328px" height="178px" viewBox="0 0 328 178" version="1.1" xmlns="http://www.w3.org/2000/svg" xmlns:xlink="http://www.w3.org/1999/xlink">
    <!-- Generator: Sketch 48 (47235) - http://www.bohemiancoding.com/sketch -->
    <title>Group</title>
    <desc>Created with Sketch.</desc>
    <defs>
        <polygon id="path-1" points="224.306405 36.4135385 224.306405 71.8892308 0.661983471 71.8892308 0.661983471 0.937846154 224.306405 0.937846154 224.306405 36.4135385"></polygon>
    </defs>
    <g id="nemoloko_lp_21_dt" stroke="none" stroke-width="1" fill="none" fill-rule="evenodd" transform="translate(-815.000000, -122.000000)">
        <g id="1" transform="translate(0.000000, -321.000000)">
            <g id="packshot">
                <g id="Group" transform="translate(815.000000, 443.000000)">
                    <g id="logo" transform="translate(1.000000, 66.000000)">
                        <path d="M77.3692289,11.9679698 C81.1137033,11.9679698 83.2539293,14.0410749 83.4657417,19.6835102 L83.4657417,20.1614965 L71.5324165,20.1614965 C71.7497544,14.3084542 73.678168,11.9679698 77.3692289,11.9679698 Z M79.2405452,49 C84.9115914,49 92.2384578,47.1869487 95.4524804,44.9526835 C97.054887,43.7824413 99.2522102,41.8668336 99.2522102,38.1455001 C99.2522102,35.7500747 97.3237967,33.1422111 93.8998035,33.1422111 C90.9068026,33.1422111 86.4090128,36.228061 81.9167485,36.228061 C75.2805747,36.228061 72.3373035,34.4186724 71.7497544,29.6845941 L91.2272839,29.6845941 C96.3070972,29.6845941 100,26.276424 100,21.7035058 L100,21.1724099 C99.7329322,8.1404171 89.939833,0 77.3692289,0 C64.579445,0 55,8.61840335 55,21.7035058 L55,26.492525 C55,41.0170803 61.4225196,49 79.2405452,49 Z" id="Fill-1" fill="#C84F0E"></path>
                        <path d="M60.679441,63.0535176 C51.1562382,63.0535176 48.3352386,72.3840389 47.2042301,77.2061615 C46.8762936,69.595586 43.4143271,63.0535176 34.8600277,63.0535176 C27.6062949,63.0535176 21.6531285,68.2004369 21.3233287,77.3168876 C20.460632,67.6098976 17.4328088,63 9.14868438,63 C4.54639305,63 0,66.0025234 0,71.0940795 C0,75.3828713 1.84277981,77.9590991 5.19667632,79.2453676 L5.19667632,103.101311 C5.19667632,107.227704 8.06425784,112 14.0192874,112 C19.974317,112 22.8996601,107.607864 22.8996601,103.101311 L22.8996601,80.6368259 C22.8996601,76.1874812 25.2287549,75.5471151 26.9560116,75.5471151 C30.0415964,75.5471151 30.7477779,77.7431832 30.7477779,80.8508964 L30.7477779,103.049638 C30.7477779,107.177877 33.6153594,111.946482 39.5722523,111.946482 C45.5254186,111.946482 48.4507617,107.552501 48.4507617,103.049638 L48.4507617,80.5833082 C48.4507617,76.135809 50.7724034,75.4899066 52.5052499,75.4899066 C55.592698,75.4899066 56.295153,77.6878201 56.295153,80.802915 L56.295153,102.994275 C56.295153,107.126205 59.1627345,111.89481 65.1159008,111.89481 C71.0746569,111.89481 74,107.497138 74,102.994275 L74,81.0132947 C74,70.023727 68.6896639,63.0535176 60.679441,63.0535176" id="Fill-2" fill="#C84F0E"></path>
                        <path d="M5.08745162,18.2453676 L5.08745162,42.1013106 C5.08745162,46.2277041 7.89557904,51 13.7215317,51 C19.5493078,51 22.4103156,46.6060184 22.4103156,42.1013106 L22.4103156,19.6368259 C22.4103156,15.1874812 25.4281408,14.5434242 27.123958,14.5434242 C30.1436067,14.5434242 31.680783,16.7413378 31.680783,19.8508964 L31.680783,42.0496384 C31.680783,46.1760319 34.4870869,50.9483278 40.3148631,50.9483278 C46.1408157,50.9483278 49,46.5525008 49,42.0496384 L48.8942394,16.2061615 C48.8431825,8.59558602 43.8104347,2.05167219 35.4425796,2.05167219 C28.3438523,2.05167219 21.1904213,7.19674601 20.8713159,16.3131967 C20.0234073,6.61174299 17.0584623,2 8.95318547,2 C4.4510643,2 0,5.00067792 0,10.0977704 C0,14.3847168 1.80157785,16.9609446 5.08745162,18.2453676" id="Fill-3" fill="#C84F0E"></path>
                        <g id="Group-10" transform="translate(78.000000, 40.000000)">
                            <mask id="mask-2" fill="white">
                                <use xlink:href="#path-1"></use>
                            </mask>
                            <g id="Clip-5"></g>
                            <path d="M54.5745868,0.937846154 C48.8491736,0.937846154 45.0130165,4.74461538 45.0130165,9.40984615 C45.0130165,14.0233846 48.8491736,17.832 53.4979339,17.832 L53.4979339,62.6713846 C53.4979339,66.7956923 56.3578512,71.5698462 62.2989669,71.5698462 C68.2419421,71.5698462 71.1613636,66.7956923 71.1613636,62.6713846 L71.1613636,16.3292308 C71.1613636,6.94153846 64.6214876,0.937846154 54.5745868,0.937846154" id="Fill-4" fill="#C84F0E" mask="url(#mask-2)"></path>
                            <path d="M200.482438,59.7526154 C194.952273,59.7526154 190.465289,55.3015385 190.465289,49.8092308 C190.465289,42.6775385 200.482438,32.5458462 200.482438,32.5458462 C200.482438,32.5458462 210.495868,43.0541538 210.495868,49.8092308 C210.495868,55.3015385 206.010744,59.7526154 200.482438,59.7526154 Z M200.538223,22.4953846 C186.707231,22.4953846 176.716116,29.6307692 176.716116,44.8116923 L176.716116,50.3316923 C176.716116,65.3464615 186.707231,71.8929231 200.538223,71.8929231 C214.040083,71.8929231 224.306405,65.3464615 224.306405,50.3316923 L224.306405,44.8116923 C224.306405,29.6307692 214.040083,22.4953846 200.538223,22.4953846 Z" id="Fill-6" fill="#C84F0E" mask="url(#mask-2)"></path>
                            <path d="M31.2917355,49.9587692 C31.2917355,57.5704615 28.9152893,60.1458462 24.4859504,60.1458462 C19.7293388,60.1458462 17.568595,57.5704615 17.568595,49.9587692 L17.568595,45.2363077 C17.568595,37.6190769 19.7293388,35.2596923 24.4859504,35.2596923 C28.9152893,35.2596923 31.2917355,37.6190769 31.2917355,45.2363077 L31.2917355,49.9587692 Z M24.4859504,22.6061538 C10.6568182,22.6061538 0.661983471,29.7378462 0.661983471,44.9150769 L0.661983471,50.4424615 C0.661983471,65.4590769 10.6568182,72 24.4859504,72 C37.9878099,72 48.2559917,65.4590769 48.2559917,50.4424615 L48.2559917,44.9150769 C48.2559917,29.7378462 37.9878099,22.6061538 24.4859504,22.6061538 Z" id="Fill-7" fill="#C84F0E" mask="url(#mask-2)"></path>
                            <path d="M163.210537,45.4504615 L171.364463,36.1181538 C173.686983,33.4393846 174.82686,30.2732308 174.82686,27.2196923 C174.82686,22.8756923 172.177066,17.7803077 165.851033,17.7803077 C160.722521,17.7803077 156.399174,21.0498462 156.399174,26.2523077 C156.399174,29.4664615 157.53905,30.8123077 158.455785,31.776 L146.62376,44.5218462 L146.62376,16.3292308 C146.62376,6.94153846 140.628719,0.937846154 130.579959,0.937846154 C124.854545,0.937846154 121.020248,4.74461538 121.020248,9.40984615 C121.020248,14.0233846 124.854545,17.832 129.505165,17.832 L129.505165,62.6713846 C129.505165,66.7956923 132.361364,71.5698462 138.306198,71.5698462 C144.247314,71.5698462 146.62376,66.7956923 146.62376,62.6713846 L146.62376,47.3261538 L147.216942,48.6166154 C149.215909,52.4769231 151.919628,57.4652308 153.537397,59.7692308 C154.136157,60.5778462 154.729339,61.4898462 155.268595,62.3427692 C158.295868,66.96 161.425413,71.6787692 167.638017,71.6787692 C171.961364,71.6787692 175.094628,68.8910769 175.094628,65.136 C175.094628,62.2929231 174.064463,60.4670769 172.824174,58.7501538 L163.210537,45.4504615" id="Fill-8" fill="#C84F0E" mask="url(#mask-2)"></path>
                            <path d="M107.079545,49.8498462 C107.079545,57.4652308 104.706818,60.0387692 100.27376,60.0387692 C95.5245868,60.0387692 93.360124,57.4652308 93.360124,49.8498462 L93.360124,45.1292308 C93.360124,37.5138462 95.5245868,35.1526154 100.27376,35.1526154 C104.706818,35.1526154 107.079545,37.5138462 107.079545,45.1292308 L107.079545,49.8498462 Z M100.27376,22.4953846 C86.4464876,22.4953846 76.4516529,29.6307692 76.4516529,44.8116923 L76.4516529,50.3316923 C76.4516529,65.3464615 86.4464876,71.8929231 100.27376,71.8929231 C113.783058,71.8929231 124.045661,65.3464615 124.045661,50.3316923 L124.045661,44.8116923 C124.045661,29.6307692 113.783058,22.4953846 100.27376,22.4953846 Z" id="Fill-9" fill="#C84F0E" mask="url(#mask-2)"></path>
                        </g>
                    </g>
                    <path d="M10.22,25.06 L10.22,18.16 L28.94,18.16 C27.5,11.14 21.74,7.24 13.82,7.24 C10.46,7.24 6.92,8.26 3.98,10.48 L1.1,4.96 C4.04,2.44 9.14,0.34 15.56,0.34 C27.92,0.34 36.68,8.86 36.68,21.94 C36.68,35.08 28.16,43.66 14.72,43.66 C8.9,43.66 3.56,41.8 0.62,39.28 L3.8,33.1 C6.44,35.14 10.22,36.76 14.6,36.76 C21.8,36.76 27.86,32.8 29.12,25.06 L10.22,25.06 Z M39.98,7.9 L39.98,1 L74.6,1 L74.6,7.9 L60.98,7.9 L60.98,43 L53.6,43 L53.6,7.9 L39.98,7.9 Z M77.9,22 C77.9,9.82 86.84,0.34 99.74,0.34 C112.22,0.34 121.64,8.92 121.64,22 C121.64,34.6 112.22,43.66 99.74,43.66 C87.26,43.66 77.9,35.08 77.9,22 Z M85.7,22 C85.7,30.4 91.88,36.76 99.74,36.76 C108.56,36.76 113.84,30.28 113.84,22 C113.84,13.3 107.66,7.24 99.74,7.24 C91.7,7.24 85.7,13.3 85.7,22 Z M142.88,42.94 L142.88,1.12 C145.22,1 150.8,0.82 155,0.82 C165.02,0.82 168.8,5.38 168.8,11.2 C168.8,16 166.4,19.06 162.8,20.74 L162.8,20.86 C166.94,21.88 170.18,25.06 170.18,30.64 C170.18,39.28 163.46,43.24 154.58,43.24 C150.74,43.24 145.34,43.12 142.88,42.94 Z M155.48,24.94 L150.26,24.94 L150.26,36.04 C151.28,36.16 153.02,36.34 155.12,36.34 C160.1,36.34 162.8,34.24 162.8,30.28 C162.8,26.74 160.1,24.94 155.48,24.94 Z M154.88,7.72 C153.2,7.72 151.58,7.78 150.26,7.9 L150.26,18.52 L155.24,18.52 C158.66,18.52 161.48,16.78 161.48,12.94 C161.48,9.52 158.84,7.72 154.88,7.72 Z M174.5,43 L192.26,0.88 L198.74,0.88 L216.5,43 L208.64,43 L204.26,32.26 L186.32,32.26 L181.94,43 L174.5,43 Z M195.32,10.42 L189.14,25.36 L201.44,25.36 L195.32,10.42 Z M222.8,43 L222.8,1 L230.24,1 L244.58,20.62 L258.26,1 L265.22,1 L265.22,43 L257.9,43 L257.9,12.64 L244.64,31.3 L243.56,31.3 L230.18,12.82 L230.18,43 L222.8,43 Z M288.86,29.8 L288.86,23.8 L327.5,23.8 L327.5,29.8 L288.86,29.8 Z" id="это-вам-—" fill="#C84F0E"></path>
                </g>
            </g>
        </g>
    </g>
</svg>