<?xml version="1.0" encoding="UTF-8"?>
<svg width="21px" height="21px" viewBox="0 0 21 21" version="1.1" xmlns="http://www.w3.org/2000/svg" xmlns:xlink="http://www.w3.org/1999/xlink">
    <!-- Generator: Sketch 53 (72520) - https://sketchapp.com -->
    <title>Path</title>
    <desc>Created with Sketch.</desc>
    <g id="Page-1" stroke="none" stroke-width="1" fill="none" fill-rule="evenodd">
        <g id="Desktop-HD" transform="translate(-40.000000, -117.000000)" fill="#F7F7F7" fill-rule="nonzero">
            <g id="icons" transform="translate(40.000000, 50.000000)">
                <g id="github" transform="translate(0.000000, 67.000000)">
                    <path d="M10.5,0 C4.701375,0 0,4.701375 0,10.5 C0,15.420125 3.388,19.537 7.9555,20.67625 C7.9065,20.5345 7.875,20.37 7.875,20.166125 L7.875,18.3715 C7.448875,18.3715 6.734875,18.3715 6.5555,18.3715 C5.837125,18.3715 5.198375,18.062625 4.888625,17.488625 C4.54475,16.85075 4.48525,15.875125 3.633,15.278375 C3.380125,15.07975 3.572625,14.853125 3.864,14.88375 C4.402125,15.036 4.848375,15.40525 5.268375,15.953 C5.686625,16.501625 5.8835,16.625875 6.664875,16.625875 C7.04375,16.625875 7.61075,16.604 8.1445,16.52 C8.4315,15.791125 8.927625,15.12 9.534,14.80325 C6.0375,14.443625 4.368875,12.704125 4.368875,10.3425 C4.368875,9.32575 4.802,8.34225 5.537875,7.513625 C5.296375,6.691125 4.99275,5.01375 5.630625,4.375 C7.203875,4.375 8.155,5.39525 8.383375,5.670875 C9.167375,5.40225 10.028375,5.25 10.933125,5.25 C11.839625,5.25 12.704125,5.40225 13.489875,5.672625 C13.715625,5.39875 14.667625,4.375 16.244375,4.375 C16.884875,5.014625 16.57775,6.699 16.333625,7.51975 C17.065125,8.346625 17.495625,9.3275 17.495625,10.3425 C17.495625,12.702375 15.829625,14.441 12.338375,14.802375 C13.299125,15.30375 14,16.7125 14,17.773875 L14,20.166125 C14,20.257125 13.979875,20.32275 13.969375,20.400625 C18.060875,18.9665 21,15.0815 21,10.5 C21,4.701375 16.298625,0 10.5,0 Z" id="Path"></path>
                </g>
            </g>
        </g>
    </g>
</svg>