<svg xmlns="http://www.w3.org/2000/svg" xmlns:xlink="http://www.w3.org/1999/xlink" width="52" height="84" viewBox="0 0 52 84"><defs><path id="xyioa" d="M783.06 7007.53a2.89 2.89 0 0 1 5.67-1.05l.5-.01a12.4 12.4 0 0 1 10.64 6.08 12.3 12.3 0 0 0-1.73 5.97 8.93 8.93 0 1 0-17.17 3.8h16.5c.4-.97.63-2 .67-3.1l.02-.35-.02-.35a12.4 12.4 0 0 1 13.47-12 2.9 2.9 0 0 1 5.68.11c.1.6 0 1.18-.25 1.69a12.4 12.4 0 0 1 5.38 14c.47.08.9.34 1.18.73.32.47.4 1.07.2 1.6l-22.18 59.21c-.25.69-.9 1.13-1.62 1.13-.73 0 0 0 0 0-.73 0-1.37-.44-1.62-1.13l-22.18-59.2c-.2-.54-.13-1.14.2-1.61.23-.32.56-.56.94-.67a12.4 12.4 0 0 1 5.84-14.34c-.05-.17-.1-.34-.12-.51zm19.22 14.78h16.5a8.95 8.95 0 1 0-17.17-3.82l-.02.38.02.39c.04 1.07.28 2.1.67 3.05zm-21.96 3.46l19.68 52.55 19.68-52.55zm8.56 5.53a1.9 1.9 0 0 1-1.58 2.15 1.88 1.88 0 1 1 1.58-2.15m8.57 0a1.89 1.89 0 1 1-3.73.56 1.89 1.89 0 0 1 3.73-.56m8.58 0a1.88 1.88 0 1 1-3.72.57 1.88 1.88 0 0 1 3.72-.57m8.59 0a1.89 1.89 0 0 1-3.73.58 1.89 1.89 0 1 1 3.73-.58m-21.46 10.4a1.89 1.89 0 0 1-3.72.58 1.88 1.88 0 1 1 3.72-.58m8.59 0a1.9 1.9 0 0 1-3.73.58 1.89 1.89 0 0 1 3.73-.58m8.57 0a1.89 1.89 0 0 1-3.73.58 1.89 1.89 0 0 1 3.73-.58m-12.87 10.4a1.89 1.89 0 0 1-3.72.6 1.89 1.89 0 0 1 3.72-.6m8.58 0a1.88 1.88 0 0 1-1.58 2.16 1.89 1.89 0 1 1 1.58-2.15m-4.28 10.4a1.9 1.9 0 0 1-3.73.59 1.89 1.89 0 0 1 3.73-.59m-.63-40.2z"/></defs><g><g transform="translate(-774 -7002)"><use fill="#62358b" xlink:href="#xyioa"/></g></g></svg>