<?xml version="1.0" encoding="utf-8"?>
<!-- Generator: Adobe Illustrator 21.1.0, SVG Export Plug-In . SVG Version: 6.00 Build 0)  -->
<svg version="1.1" id="Слой_1" xmlns="http://www.w3.org/2000/svg" xmlns:xlink="http://www.w3.org/1999/xlink" x="0px" y="0px"
	 viewBox="0 0 200 85.7" style="enable-background:new 0 0 200 85.7;" xml:space="preserve">
<style type="text/css">
	.st0{stroke:#000000;stroke-miterlimit:10;}
	.st1{stroke:#000000;stroke-width:0.5;stroke-miterlimit:10;}
</style>
<g>
	<path class="st0" d="M7.8,36.5h26.1c1.2-0.1,2.2,0.9,2.2,2.1c0,1.3-0.8,2.1-2.1,2.1H7.8v14.7c0,1.3-0.8,2.4-2.1,2.4
		c-1.5,0-2.4-1-2.4-2.4V6.7c0-1.4,0.9-2.4,2.3-2.4h28.3c1.1,0,2.2,0.8,2.2,2c0,1.2-0.8,2.2-2.2,2.2H7.8v12.1h26.1
		c1.2-0.1,2.2,0.9,2.2,2.1c0,1.3-0.8,2.1-2.1,2.1H7.8V36.5z"/>
	<path class="st0" d="M82.7,55.6V40.8L54.3,57.4c-0.4,0.3-0.9,0.5-1.5,0.5s-1.1-0.2-1.5-0.6s-0.6-0.9-0.6-1.6V39.4
		c-0.1-0.2-0.1-0.5,0-0.7V22.5C50.6,12.1,57.4,4,69,4c10.6,0,18.2,7.1,18.2,19v32.7c0,0.7-0.2,1.2-0.6,1.6c-0.5,0.4-1,0.6-1.7,0.6
		c-0.6,0-1.1-0.2-1.5-0.6C82.9,56.8,82.7,56.3,82.7,55.6z M55.1,35.2l27.2-15.9c-1.4-6.8-6.3-11.2-13.6-11.2
		c-8,0-13.6,5.9-13.6,14.6V35.2z M55.1,51.7l27.6-16.1V24.3L55.1,40.4V51.7z"/>
	<path class="st0" d="M103.9,31.2C103.9,14,115.4,4,130.4,4c6.6,0,12.5,2.2,17.4,6.2c0.9,0.8,1.1,2.2,0.3,3.1
		c-0.8,1-2.3,0.9-3.2,0.2c-3-2.5-6.5-4.2-10.3-4.9v44.6c3.9-0.7,7.6-2.4,10.6-5.1c0.9-0.8,2.4-0.9,3.2,0c0.8,0.9,0.5,2.3-0.3,3.1
		c-4.9,4.5-10.4,6.6-17.8,6.6C113.6,57.8,103.9,46.2,103.9,31.2z M117.7,50.1V11.7c-5.8,3.6-9.4,10.2-9.4,19
		C108.3,39.3,111.7,46.1,117.7,50.1z M122.2,52.3c2.4,0.8,5.1,1.3,8,1.3V8.2c-2.9,0.1-5.5,0.5-8,1.3V52.3z"/>
	<path class="st0" d="M197.3,55.4c0,1.2-1,2-2.2,2h-28.3c-1.1,0-2.3-0.8-2.3-2.2V6.7c0-1.4,0.9-2.4,2.3-2.4h28.3
		c1.1,0,2.2,0.8,2.2,2c0,1.2-0.8,2.2-2.2,2.2H169v12.1h26.1c1.1,0,2.2,0.8,2.2,2c0,1.2-0.8,2.2-2.2,2.2H169v11.5h26.1
		c1.2-0.1,2.2,0.9,2.2,2.1c0,1.3-0.8,2.1-2.1,2.1H169v12.4h26.1C196.4,53.2,197.3,54.1,197.3,55.4z"/>
</g>
<g>
	<path class="st1" d="M8.1,64.8c4.8,0,7.6,2.7,7.6,7.2c0,4.8-3.3,7.5-8.2,7.5H4c-0.4,0-0.7-0.3-0.7-0.7V65.4c0-0.3,0.3-0.5,0.6-0.5
		H8.1z M7.5,78.3c4.1,0,7-2.1,7-6.1c0-4-2.3-6.2-6.8-6.2H4.6v12.3H7.5z"/>
	<path class="st1" d="M22.1,78.9c0,0.4-0.3,0.6-0.6,0.6c-0.4,0-0.6-0.3-0.6-0.6V65.4c0-0.4,0.3-0.6,0.6-0.6c0.4,0,0.6,0.3,0.6,0.6
		V78.9z"/>
	<path class="st1" d="M33.4,74.3c-0.4,0-0.7-0.3-0.7-0.6c0-0.4,0.2-0.6,0.7-0.6h7c0.4,0,0.6,0.2,0.6,0.6c0,3.1-2.5,5.8-6.5,5.8
		c-4.6,0-7.3-3.2-7.3-7.2c0-4.5,3.2-7.6,7.3-7.6c1.8,0,3.4,0.6,4.8,1.7c0.3,0.2,0.3,0.6,0.1,0.8c-0.2,0.3-0.6,0.3-0.8,0
		c-1.1-0.9-2.5-1.4-4-1.4c-3.5,0-6.1,2.6-6.1,6.4c0,3.6,2.4,6.1,6.1,6.1c3.1,0,5.1-1.7,5.4-4.1H33.4z"/>
	<path class="st1" d="M47.5,78.9c0,0.4-0.3,0.6-0.6,0.6c-0.4,0-0.6-0.3-0.6-0.6V65.4c0-0.4,0.3-0.6,0.6-0.6s0.6,0.3,0.6,0.6V78.9z"
		/>
	<path class="st1" d="M57.8,66v12.9c0,0.4-0.3,0.6-0.6,0.6c-0.4,0-0.6-0.3-0.6-0.6V66h-4.8c-0.3,0-0.6-0.2-0.6-0.6s0.3-0.6,0.6-0.6
		h10.9c0.3,0,0.6,0.2,0.6,0.6c0,0.3-0.3,0.6-0.6,0.6H57.8z"/>
	<path class="st1" d="M76.4,70v9c0,0.2-0.1,0.3-0.2,0.4c-0.1,0.1-0.3,0.2-0.5,0.2c-0.2,0-0.3-0.1-0.4-0.2c-0.1-0.1-0.2-0.3-0.2-0.4
		v-3.9h-7.6V79c0,0.2-0.1,0.3-0.2,0.4c-0.1,0.1-0.3,0.2-0.5,0.2c-0.2,0-0.3-0.1-0.4-0.2c-0.1-0.1-0.2-0.3-0.2-0.4v-9.1
		c0-2.9,1.9-5.1,5.1-5.1C74.3,64.7,76.4,66.7,76.4,70z M67.6,73.9h7.6v-3.8c0-2.5-1.5-4.3-3.9-4.3c-2.2,0-3.7,1.6-3.7,4V73.9z"/>
	<path class="st1" d="M91,78.3c0.4,0,0.6,0.3,0.6,0.6c0,0.3-0.3,0.6-0.6,0.6h-8.7c-0.4,0-0.6-0.3-0.6-0.6V65.4
		c0-0.4,0.3-0.6,0.6-0.6S83,65,83,65.4v12.9H91z"/>
	<path class="st1" d="M115.3,70v9c0,0.2-0.1,0.3-0.2,0.4c-0.1,0.1-0.3,0.2-0.5,0.2c-0.2,0-0.3-0.1-0.4-0.2c-0.1-0.1-0.2-0.3-0.2-0.4
		v-3.9h-7.6V79c0,0.2-0.1,0.3-0.2,0.4c-0.1,0.1-0.3,0.2-0.5,0.2c-0.2,0-0.3-0.1-0.4-0.2c-0.1-0.1-0.2-0.3-0.2-0.4v-9.1
		c0-2.9,1.9-5.1,5.1-5.1C113.2,64.7,115.3,66.7,115.3,70z M106.4,73.9h7.6v-3.8c0-2.5-1.5-4.3-3.9-4.3c-2.2,0-3.7,1.6-3.7,4V73.9z"
		/>
	<path class="st1" d="M126.1,74.3c-0.4,0-0.7-0.3-0.7-0.6c0-0.4,0.2-0.6,0.7-0.6h7c0.4,0,0.6,0.2,0.6,0.6c0,3.1-2.5,5.8-6.5,5.8
		c-4.6,0-7.3-3.2-7.3-7.2c0-4.5,3.2-7.6,7.3-7.6c1.8,0,3.4,0.6,4.8,1.7c0.3,0.2,0.3,0.6,0.1,0.8c-0.2,0.3-0.6,0.3-0.8,0
		c-1.1-0.9-2.5-1.4-4-1.4c-3.5,0-6.1,2.6-6.1,6.4c0,3.6,2.4,6.1,6.1,6.1c3.1,0,5.1-1.7,5.4-4.1H126.1z"/>
	<path class="st1" d="M147.5,78.9c0,0.3-0.3,0.6-0.6,0.6h-7.8c-0.3,0-0.6-0.2-0.6-0.6V65.5c0-0.4,0.3-0.6,0.6-0.6h7.8
		c0.3,0,0.6,0.2,0.6,0.6c0,0.3-0.2,0.6-0.6,0.6h-7.2v7.9h5.3c0.3,0,0.6,0.3,0.6,0.6c0,0.4-0.2,0.6-0.6,0.6h-5.3v3.2h7.2
		C147.2,78.3,147.5,78.5,147.5,78.9z"/>
	<path class="st1" d="M153.2,68.1l9.5,7v-9.7c0-0.4,0.3-0.6,0.6-0.6c0.4,0,0.6,0.3,0.6,0.6v13.6c0,0.4-0.3,0.6-0.6,0.6
		c-0.4,0-0.6-0.3-0.6-0.6v-2.4l-9.5-7v9.3c0,0.4-0.3,0.6-0.6,0.6c-0.4,0-0.6-0.3-0.6-0.6V65.4c0-0.4,0.3-0.6,0.6-0.6
		s0.6,0.3,0.6,0.6V68.1z"/>
	<path class="st1" d="M168.7,72.2c0-4.7,3.2-7.5,7.3-7.5c1.8,0,3.4,0.6,4.8,1.7c0.3,0.2,0.3,0.6,0.1,0.9c-0.2,0.3-0.6,0.3-0.9,0
		c-1.1-0.9-2.5-1.4-4-1.4c-3.5,0-6.1,2.3-6.1,6.2c0,3.7,2.4,6.3,6.1,6.3c1.5,0,3-0.5,4.1-1.5c0.3-0.2,0.7-0.3,0.9,0
		c0.2,0.3,0.1,0.6-0.1,0.9c-1.3,1.2-2.9,1.8-4.9,1.8C171.3,79.6,168.7,76.4,168.7,72.2z"/>
	<path class="st1" d="M190.7,72.7l5.5-7.7c0.2-0.3,0.6-0.3,0.9-0.1c0.3,0.2,0.3,0.6,0.1,0.9l-5.8,8.2v5c0,0.4-0.3,0.6-0.6,0.6
		c-0.4,0-0.6-0.3-0.6-0.6v-5l-5.8-8.2c-0.2-0.3-0.2-0.7,0.1-0.9c0.3-0.2,0.7-0.2,0.9,0.1L190.7,72.7z"/>
</g>
</svg>
