<svg xmlns="http://www.w3.org/2000/svg" xmlns:xlink="http://www.w3.org/1999/xlink" width="47" height="80" viewBox="0 0 47 80"><defs><path id="s8fwa" d="M825 13959.35a20.31 20.31 0 0 1-20.21 20.38h-3.6a20.31 20.31 0 0 1-20.2-20.37v-49.75c0-3.8 3.05-6.87 6.8-6.87a6.85 6.85 0 0 1 6.82 6.87v17.3a6.8 6.8 0 0 1 9.4 2.88 6.71 6.71 0 0 1 7.19-.47l-.07-7.9c0-3.8 3.05-6.88 6.8-6.88 3.76 0 6.81 3.08 6.81 6.86zm-17.03-5.3a3.35 3.35 0 0 0 3.33-3.36v-.75l-6.27 2.32a3.33 3.33 0 0 0 2.94 1.79zm-3.22-19.54v3.3l2.92-.75a6.46 6.46 0 0 1 3.6 0l-.02-2.25a3.34 3.34 0 0 0-3.28-2.82 3.34 3.34 0 0 0-3.22 2.52zm-10.14 4.9h.04c-.03.2-.04.4-.04.6v.4l6.55-1.68v-3.37c0-.42.04-.84.12-1.24v-1.23c0-1.85-1.5-3.36-3.34-3.36a3.35 3.35 0 0 0-3.33 3.36zm-10.15-.74v7.08a15.49 15.49 0 0 1 4.51-3.84l.42-.16 1.7-.44c.03-.15.04-.3.04-.45v-31.25c0-1.86-1.5-3.37-3.33-3.37a3.36 3.36 0 0 0-3.34 3.37zm37.06 20.69l-.25-37.94c0-1.87-1.5-3.39-3.34-3.39a3.36 3.36 0 0 0-3.33 3.37l.12 13.1c.04.28.06.57.06.86v4.14a6.69 6.69 0 0 1 0 8v3.2a6.84 6.84 0 0 1-7.53 6.8c.57 1.31 1 2.71 1.24 4.17a1.74 1.74 0 0 1-1.71 2.04c-.83 0-1.57-.6-1.71-1.45-.25-1.5-.73-2.9-1.38-4.18l-2-2.52-.9-1.12-.36-.45-.2-.15a11.08 11.08 0 0 0-3.17-1.73c-.58-.19-1-.67-1.14-1.23a1.74 1.74 0 0 1 2.22-2.1c.92.3 1.8.71 2.63 1.2l.14.08.25-.1 3.47-1.28.1-.03 5.61-2.08a3.2 3.2 0 0 0 2.16-3.96c0-.05-.04-.1-.05-.15a3.15 3.15 0 0 0-3.86-2.03l-3.84.99-.12.03-.98.25-2.37.61-.11.03-6.56 1.68-1.96.5-1.51.4-.66.16a11.9 11.9 0 0 0-5.9 10.68v.3c.01.27-.03.51-.12.74v2.56c0 9.31 7.5 16.88 16.73 16.88h3.6c9.23 0 16.73-7.57 16.73-16.88z"/></defs><g><g transform="translate(-779 -13901)"><use fill="#62358b" xlink:href="#s8fwa"/></g></g></svg>