<svg xmlns="http://www.w3.org/2000/svg" xmlns:xlink="http://www.w3.org/1999/xlink" width="63" height="74" viewBox="0 0 63 74"><defs><path id="nbsca" d="M389.96 5434.33l-1.62-2.15-19.9-26.45a6.27 6.27 0 1 1 10.44-6.8l6.5 7.32v-29.8a6.46 6.46 0 0 1 6.43-6.47 6.46 6.46 0 0 1 6.44 6.46l.01 14.89a6.36 6.36 0 0 1 8.77 2.72 6.3 6.3 0 0 1 6.83-.43v-14.21c0-3.51 3.06-6.48 6.67-6.48 3.55 0 6.43 2.9 6.43 6.48v42.36c0 10.6-8.56 19.21-19.1 19.21h-3.39a19.07 19.07 0 0 1-14.14-6.3 1.6 1.6 0 0 1-.37-.35zm5.03-39.28l-.02-18.6a3.17 3.17 0 0 0-3.16-3.17 3.17 3.17 0 0 0-3.16 3.16v34.81h-.21c-.1.18-.22.34-.38.49-.67.6-1.7.55-2.3-.13l-.33-.36h-.05v-.06l-9-10.13a3 3 0 0 0-3.57-.75 3.01 3.01 0 0 0-1.47 3.87l19.86 26.34c.1.08.17.18.24.28a15.83 15.83 0 0 0 13.03 6.89h3.4c8.72 0 15.82-7.14 15.82-15.92v-42.36a3.17 3.17 0 0 0-3.16-3.18c-1.8 0-3.4 1.48-3.4 3.18v19.46l.02.34v10.24c0 .9-.74 1.66-1.64 1.66-.9 0-1.64-.75-1.64-1.66v-5.02-5.37a3.1 3.1 0 0 0-3.09-2.95 3.1 3.1 0 0 0-3.07 2.92v8.32a1.64 1.64 0 0 1-3.29-.04v-8.1l.01-.35v-1.94a3.1 3.1 0 1 0-6.17 0v9.2a1.64 1.64 0 1 1-3.27 0v-9.2-.26z"/></defs><g><g transform="translate(-365 -5368)"><use fill="#62358b" xlink:href="#nbsca"/></g></g></svg>