<svg xmlns="http://www.w3.org/2000/svg" xmlns:xlink="http://www.w3.org/1999/xlink" width="52" height="84" viewBox="0 0 52 84"><defs><path id="q339a" d="M783.06 2161.53a2.89 2.89 0 0 1 5.67-1.05h.5a12.4 12.4 0 0 1 10.64 6.07 12.31 12.31 0 0 0-1.73 5.97 8.93 8.93 0 1 0-17.17 3.8h16.5c.4-.96.63-2 .67-3.1l.02-.35-.02-.35a12.4 12.4 0 0 1 13.47-12 2.9 2.9 0 0 1 5.68.11c.1.6 0 1.19-.25 1.7a12.4 12.4 0 0 1 5.38 14c.47.07.9.33 1.18.72.32.47.4 1.07.2 1.6l-22.18 59.21c-.25.69-.9 1.14-1.62 1.14-.73 0 0 0 0 0-.73 0-1.37-.45-1.62-1.14l-22.18-59.2c-.2-.54-.13-1.14.2-1.6.23-.33.56-.57.94-.68a12.4 12.4 0 0 1 5.84-14.34c-.05-.16-.1-.33-.12-.5zm19.22 14.78h16.5a8.94 8.94 0 1 0-17.17-3.82l-.02.38.02.39c.04 1.08.28 2.1.67 3.05zm-21.96 3.47l19.68 52.54 19.68-52.54zm8.56 5.52a1.9 1.9 0 0 1-1.58 2.15 1.89 1.89 0 1 1 1.58-2.15m8.57 0a1.89 1.89 0 1 1-3.73.57 1.89 1.89 0 0 1 3.73-.57m8.58 0a1.89 1.89 0 1 1-3.72.57 1.89 1.89 0 0 1 3.72-.57m8.58 0a1.89 1.89 0 0 1-3.72.58 1.89 1.89 0 1 1 3.72-.58m-21.45 10.4a1.89 1.89 0 0 1-3.72.59 1.88 1.88 0 1 1 3.72-.6m8.59 0a1.9 1.9 0 0 1-3.73.6 1.89 1.89 0 0 1 3.73-.6m8.57 0a1.89 1.89 0 0 1-3.73.6 1.89 1.89 0 0 1 3.73-.6m-12.87 10.42a1.89 1.89 0 1 1-3.72.57 1.89 1.89 0 0 1 3.72-.57m8.58 0a1.88 1.88 0 0 1-1.58 2.15c-1.02.17-1.99-.54-2.14-1.56a1.89 1.89 0 0 1 3.72-.59m-4.28 10.4a1.89 1.89 0 0 1-3.73.59 1.89 1.89 0 0 1 3.73-.59m-3.61-43.28z"/></defs><g><g transform="translate(-774 -2156)"><use fill="#fff" xlink:href="#q339a"/></g></g></svg>