<svg xmlns="http://www.w3.org/2000/svg" xmlns:xlink="http://www.w3.org/1999/xlink" width="109" height="85" viewBox="0 0 109 85"><defs><path id="mabha" d="M804.73 9137.02c-5.99 0-11 4.26-12.1 9.9a113.38 113.38 0 0 1 24.21 0 12.33 12.33 0 0 0-12.1-9.9zm0-3.88c8.33 0 15.2 6.26 16.13 14.29 13.28 1.93 25.14 6.2 33.34 12.23a1.93 1.93 0 0 1 0 3.11c-5.38 3.95-12.32 7.15-20.2 9.43l8.89 8.84a1.94 1.94 0 1 1-2.76 2.74l-10.5-10.43a108.4 108.4 0 0 1-23.1 2.8c.1.24.16.5.16.77v9.15c0 1.06-.88 1.93-1.96 1.93a1.94 1.94 0 0 1-1.94-1.93v-9.15c0-.27.05-.52.15-.76h1.8l-1.8-.01c-8.05-.13-15.9-1.1-23.1-2.8l-10.5 10.43a1.95 1.95 0 0 1-2.75 0 1.93 1.93 0 0 1 0-2.74l8.89-8.84c-7.4-2.14-13.97-5.08-19.19-8.7-2.03 1.3-1.3.84 0 0a44.7 44.7 0 0 1-1.02-.73 1.93 1.93 0 0 1 0-3.11c8.2-6.02 20.06-10.3 33.34-12.23a16.22 16.22 0 0 1 16.12-14.29zm2.1 25.94a2.09 2.09 0 0 1-4.18 0 2.08 2.08 0 1 1 4.17 0m-18.17 2.47c0 1.16-.94 2.07-2.09 2.07a2.07 2.07 0 1 1 0-4.13c1.15 0 2.09.93 2.09 2.06m35.07 0c0 1.16-.93 2.07-2.09 2.07a2.07 2.07 0 1 1 0-4.13c1.16 0 2.09.93 2.09 2.06m-18.99 10.75c17.5 0 34-4.11 44.88-11.09-10.88-6.96-27.38-11.07-44.88-11.07-17.49 0-34 4.1-44.87 11.07 10.88 6.98 27.38 11.09 44.87 11.09zm28.88-27.89c-.84 0-1.62-.54-1.87-1.38a28.37 28.37 0 0 0-27.08-20.09 28.27 28.27 0 0 0-26.64 18.72 1.95 1.95 0 0 1-3.68-1.28 32.17 32.17 0 0 1 30.32-21.3c14.14 0 26.8 9.39 30.82 22.84a1.94 1.94 0 0 1-1.87 2.5m17.48 0c-.84 0-1.62-.55-1.87-1.4-5.8-19.5-24.19-33.15-44.7-33.15a46.67 46.67 0 0 0-43.99 30.92 1.94 1.94 0 0 1-2.48 1.17 1.92 1.92 0 0 1-1.19-2.46 50.58 50.58 0 0 1 47.65-33.5c22.24 0 42.15 14.77 48.45 35.92a1.94 1.94 0 0 1-1.87 2.5"/></defs><g><g transform="translate(-747 -9104)"><use fill="#62358b" xlink:href="#mabha"/></g></g></svg>