<svg width="25" height="34" viewBox="0 0 25 34" version="1.1" xmlns="http://www.w3.org/2000/svg" xmlns:xlink="http://www.w3.org/1999/xlink">
<title>street</title>
<desc>Created using Figma</desc>
<g id="Canvas" transform="translate(-2632 -5621)">
<g id="street">
<g id="Vector">
<use xlink:href="#path0_fill" transform="translate(2632 5621)"/>
</g>
</g>
</g>
<defs>
<path id="path0_fill" d="M 25 9.63333L 21.5775 6.23333L 12.7852 6.23333L 12.7852 5.60943C 14.0852 5.34593 15.0669 4.20183 15.0669 2.83333C 15.0669 1.27103 13.7874 0 12.2148 0C 10.6422 0 9.36274 1.27103 9.36274 2.83333C 9.36274 4.20127 10.3444 5.34593 11.6444 5.60943L 11.6444 6.23333L 7.16152 6.23333C 6.17356 6.23333 5.36985 7.03177 5.36985 8.0138L 5.36985 9.63333L 3.42247 9.63333L 2.5241e-07 13.0333L 3.42247 16.4333L 11.6444 16.4333L 11.6444 28.3333L 8.79232 28.3333L 8.79232 30.6L 7.08109 30.6L 7.08109 34L 17.3485 34L 17.3485 30.6L 15.6373 30.6L 15.6373 28.3333L 12.7852 28.3333L 12.7852 16.4333L 17.8385 16.4333C 18.8264 16.4333 19.6301 15.6349 19.6301 14.6529L 19.6301 13.0333L 21.5775 13.0333L 25 9.63333ZM 10.5036 2.83333C 10.5036 1.89607 11.2713 1.13333 12.2148 1.13333C 13.1583 1.13333 13.926 1.89607 13.926 2.83333C 13.926 3.7706 13.1583 4.53333 12.2148 4.53333C 11.2713 4.53333 10.5036 3.7706 10.5036 2.83333ZM 16.2077 31.7333L 16.2077 32.8667L 8.22191 32.8667L 8.22191 31.7333L 8.79232 31.7333L 15.6373 31.7333L 16.2077 31.7333ZM 14.4964 30.6L 9.93315 30.6L 9.93315 29.4667L 14.4964 29.4667L 14.4964 30.6ZM 18.4893 14.6529C 18.4893 15.0099 18.1973 15.3 17.8385 15.3L 3.89477 15.3L 1.61312 13.0333L 3.89477 10.7667L 5.36985 10.7667L 17.8385 10.7667C 18.1973 10.7667 18.4893 11.0568 18.4893 11.4138L 18.4893 13.0333L 18.4893 14.6529ZM 19.6301 11.9L 19.6301 11.4138C 19.6301 10.4323 18.8264 9.63333 17.8385 9.63333L 6.51068 9.63333L 6.51068 8.0138C 6.51068 7.6568 6.80273 7.36667 7.16152 7.36667L 21.1052 7.36667L 23.3869 9.63333L 21.1052 11.9L 19.6301 11.9Z"/>
</defs>
</svg>
