<svg width="34" height="34" viewBox="0 0 34 34" version="1.1" xmlns="http://www.w3.org/2000/svg" xmlns:xlink="http://www.w3.org/1999/xlink">
<g id="Canvas" fill="none">
<g id="placeholder">
<g id="Group">
<g id="Vector">
<path d="M 3.96667 7.93333C 6.154 7.93333 7.93333 6.15343 7.93333 3.96667C 7.93333 1.7799 6.154 0 3.96667 0C 1.77933 0 0 1.7799 0 3.96667C 0 6.15343 1.77933 7.93333 3.96667 7.93333ZM 3.96667 1.13333C 5.52897 1.13333 6.8 2.40437 6.8 3.96667C 6.8 5.52897 5.52897 6.8 3.96667 6.8C 2.40437 6.8 1.13333 5.52897 1.13333 3.96667C 1.13333 2.40437 2.40437 1.13333 3.96667 1.13333Z" transform="translate(13.0332 6.80005)" fill="white"/>
</g>
<g id="Vector_2">
<path d="M 10.867 31.029L 19.5602 18.4733C 22.8208 14.1264 22.3494 6.98133 18.551 3.18353C 16.4985 1.1305 13.7695 0 10.867 0C 7.96452 0 5.23545 1.1305 3.18299 3.18297C -0.615378 6.98077 -1.08685 14.1259 2.16072 18.4558L 10.867 31.029ZM 3.98425 3.98423C 5.82309 2.14597 8.26712 1.13333 10.867 1.13333C 13.4669 1.13333 15.9109 2.14597 17.7497 3.98423C 21.1781 7.412 21.6002 13.8652 18.6411 17.8103L 10.867 29.0377L 3.08042 17.7933C 0.133755 13.8652 0.556488 7.412 3.98425 3.98423Z" transform="translate(6.03271 0)" fill="white"/>
</g>
<g id="Vector_3">
<path d="M 23.8663 0.00442648C 23.5546 -0.0335402 23.2736 0.189726 23.2373 0.500826C 23.201 0.811926 23.4232 1.09356 23.7337 1.12983C 29.6928 1.83136 32.8667 3.72176 32.8667 4.81713C 32.8667 6.35506 26.8305 8.50046 17 8.50046C 7.16947 8.50046 1.13333 6.35506 1.13333 4.81713C 1.13333 3.72176 4.30723 1.83136 10.2663 1.12983C 10.5768 1.09356 10.799 0.81136 10.7627 0.500826C 10.7259 0.189726 10.4448 -0.0346735 10.1337 0.00442648C 4.16727 0.707093 0 2.68589 0 4.81713C 0 7.21073 5.8395 9.63379 17 9.63379C 28.1605 9.63379 34 7.21073 34 4.81713C 34 2.68589 29.8327 0.707093 23.8663 0.00442648Z" transform="translate(0 24.3662)" fill="white"/>
</g>
</g>
</g>
</g>
</svg>

