<svg width="20" height="34" viewBox="0 0 20 34" version="1.1" xmlns="http://www.w3.org/2000/svg" xmlns:xlink="http://www.w3.org/1999/xlink">
<title>smartphone</title>
<desc>Created using Figma</desc>
<g id="Canvas" transform="translate(-3395 -8037)">
<g id="smartphone">
<g id="Group">
<g id="Vector">
<use xlink:href="#path0_fill" transform="translate(3395 8037)"/>
</g>
<g id="Vector">
<use xlink:href="#path1_fill" transform="translate(3402.65 8064.77)"/>
</g>
<g id="Vector">
<use xlink:href="#path2_fill" transform="translate(3402.06 8038.7)"/>
</g>
<g id="Vector">
<use xlink:href="#path3_fill" transform="translate(3406.18 8038.7)"/>
</g>
</g>
</g>
</g>
<defs>
<path id="path0_fill" d="M 17.4088 0L 2.59118 0C 1.16235 0 0 1.1203 0 2.49617L 0 31.5033C 0 32.8797 1.16235 34 2.59118 34L 17.4082 34C 18.8376 34 20 32.8797 20 31.5038L 20 2.49617C 20 1.1203 18.8376 0 17.4088 0ZM 1.17647 4.53333L 18.8235 4.53333L 18.8235 26.0667L 1.17647 26.0667L 1.17647 4.53333ZM 2.59118 1.13333L 17.4082 1.13333C 18.1888 1.13333 18.8235 1.74477 18.8235 2.49617L 18.8235 3.4L 1.17647 3.4L 1.17647 2.49617C 1.17647 1.74477 1.81118 1.13333 2.59118 1.13333ZM 17.4088 32.8667L 2.59118 32.8667C 1.81118 32.8667 1.17647 32.2552 1.17647 31.5038L 1.17647 27.2L 18.8235 27.2L 18.8235 31.5038C 18.8235 32.2552 18.1888 32.8667 17.4088 32.8667Z"/>
<path id="path1_fill" d="M 2.35294 0C 1.05529 0 0 1.0166 0 2.26667C 0 3.51673 1.05529 4.53333 2.35294 4.53333C 3.65059 4.53333 4.70588 3.51673 4.70588 2.26667C 4.70588 1.0166 3.65059 0 2.35294 0ZM 2.35294 3.4C 1.70412 3.4 1.17647 2.8917 1.17647 2.26667C 1.17647 1.64163 1.70412 1.13333 2.35294 1.13333C 3.00176 1.13333 3.52941 1.64163 3.52941 2.26667C 3.52941 2.8917 3.00176 3.4 2.35294 3.4Z"/>
<path id="path2_fill" d="M 0.588235 1.13333L 2.94118 1.13333C 3.26588 1.13333 3.52941 0.880033 3.52941 0.566667C 3.52941 0.2533 3.26588 0 2.94118 0L 0.588235 0C 0.263529 0 0 0.2533 0 0.566667C 0 0.880033 0.263529 1.13333 0.588235 1.13333Z"/>
<path id="path3_fill" d="M 0.588235 1.13333L 1.17647 1.13333C 1.50118 1.13333 1.76471 0.880033 1.76471 0.566667C 1.76471 0.2533 1.50118 0 1.17647 0L 0.588235 0C 0.263529 0 0 0.2533 0 0.566667C 0 0.880033 0.263529 1.13333 0.588235 1.13333Z"/>
</defs>
</svg>
