<svg xmlns="http://www.w3.org/2000/svg" width="917" height="228"><path fill="#FFF" d="M.864 116.464c0-33.696 29.12-58.032 61.776-58.032 32.448 0 60.736 23.504 60.736 57.2 0 34.112-28.288 58.864-61.568 58.864S.864 150.368.864 116.464zm39.728-.208c0 12.064 9.36 22.672 21.632 22.672 12.272 0 21.424-10.816 21.424-22.672 0-12.064-9.152-22.464-21.424-22.464s-21.632 10.4-21.632 22.464zM209.636 60.72v38.272c-4.368-.832-9.152-.832-9.776-.832-16.432 0-28.496 7.28-28.496 28.08V172h-39.728V60.928h39.312V78.4h.208c7.28-14.976 22.256-18.512 31.2-18.512 1.872 0 4.992.208 7.28.832zm81.476 94.64h-.624c-9.568 12.272-21.216 15.808-30.576 15.808-31.2 0-52-24.128-52-55.536 0-33.904 24.544-56.16 52.208-56.16 8.944 0 21.632 3.12 30.784 14.976h.624v-13.52h39.104v108.576c0 37.44-25.792 58.032-62.4 58.032-34.112 0-49.296-13.728-57.824-31.824l30.16-17.472c5.2 9.776 12.48 15.392 26.416 15.392s24.128-6.864 24.128-23.296V155.36zm.416-40.144c0-12.272-9.36-21.424-21.632-21.424-12.272 0-21.632 9.36-21.632 21.632 0 12.272 9.36 21.84 21.632 21.84 12.272 0 21.632-9.776 21.632-22.048zM391.1 88.592c-10.816 0-18.304 4.576-23.92 12.688l-26.416-16.224c10.192-18.096 27.248-26.624 53.248-26.624 30.368 0 50.96 14.976 50.96 45.76V172h-37.648v-12.896l-.416-.208c-9.36 10.816-20.384 15.184-33.696 15.184-18.512 0-33.696-13.936-33.696-32.656 0-27.04 28.912-34.944 52.624-34.944h5.824c4.992 0 7.904-2.704 7.904-6.864 0-5.616-4.784-11.024-14.768-11.024zm-2.08 58.032c9.568 0 16.848-5.616 16.848-15.6v-3.328H392.14c-6.032 0-13.104 2.496-13.104 9.568 0 5.408 4.784 9.36 9.984 9.36zM529.152 172v-60.112c0-9.152-5.616-17.056-15.184-17.056s-16.224 6.032-16.224 17.056V172h-39.52V60.928h39.312v13.936h.416c8.528-11.44 21.216-16.224 31.824-16.224 29.328 0 38.896 24.544 38.896 46.176V172h-39.52zm72.74-125.84c-12.48 0-23.088-10.4-23.088-22.88 0-12.688 10.4-23.088 23.088-23.088 13.104 0 23.088 10.4 23.088 23.088 0 12.48-10.192 22.88-23.088 22.88zm19.968 14.768V172h-39.936V60.928h39.936zm11.796 32.656V60.928h96.72v29.328l-48.672 49.296H731V172h-99.008v-31.2l46.384-47.216h-44.72zm215.636 32.864h-76.96c2.08 10.816 11.856 17.264 22.672 17.264 8.944 0 18.304-4.576 23.504-12.272l26.416 17.472c-10.192 17.472-25.584 25.584-49.504 25.584-35.152 0-61.568-24.544-61.568-58.24 0-32.656 27.248-57.824 59.28-57.824 30.368 0 56.784 21.84 56.784 53.456 0 3.952 0 10.608-.624 14.56zm-56.784-37.856c-9.152 0-17.68 6.864-19.552 15.808h38.48c-1.456-9.984-8.944-15.808-18.928-15.808zM936.176 60.72v38.272c-4.368-.832-9.152-.832-9.776-.832-16.432 0-28.496 7.28-28.496 28.08V172h-39.728V60.928h39.312V78.4h.208c7.28-14.976 22.256-18.512 31.2-18.512 1.872 0 4.992.208 7.28.832z" opacity=".08"/></svg>