<svg xmlns="http://www.w3.org/2000/svg" width="856" height="227"><path fill="#FFF" d="M80.444 126.032l34.32 14.352c-8.32 22.048-28.704 34.112-53.456 34.112-33.696 0-60.944-23.504-60.944-58.032 0-33.488 28.704-58.032 61.36-58.032 24.96 0 44.928 12.064 52.416 33.904l-34.112 14.352C77.116 98.784 69.836 94 61.516 94c-12.272 0-21.008 9.984-21.008 22.048 0 12.272 7.904 22.464 21.008 22.464 8.528 0 15.392-4.992 18.928-12.48zm150.532.416h-76.96c2.08 10.816 11.856 17.264 22.672 17.264 8.944 0 18.304-4.576 23.504-12.272l26.416 17.472c-10.192 17.472-25.584 25.584-49.504 25.584-35.152 0-61.568-24.544-61.568-58.24 0-32.656 27.248-57.824 59.28-57.824 30.368 0 56.784 21.84 56.784 53.456 0 3.952 0 10.608-.624 14.56zm-56.784-37.856c-9.152 0-17.68 6.864-19.552 15.808h38.48c-1.456-9.984-8.944-15.808-18.928-15.808zM279.796 172H239.86V2.48h39.936V172zm123.908-45.552h-76.96c2.08 10.816 11.856 17.264 22.672 17.264 8.944 0 18.304-4.576 23.504-12.272l26.416 17.472c-10.192 17.472-25.584 25.584-49.504 25.584-35.152 0-61.568-24.544-61.568-58.24 0-32.656 27.248-57.824 59.28-57.824 30.368 0 56.784 21.84 56.784 53.456 0 3.952 0 10.608-.624 14.56zM346.92 88.592c-9.152 0-17.68 6.864-19.552 15.808h38.48c-1.456-9.984-8.944-15.808-18.928-15.808zm189.636 27.872c0 29.12-20.592 57.824-52.624 57.824-12.688 0-23.088-4.992-31.2-15.6h-.832V172h-39.312V2.48h39.728v71.76h.416c7.696-9.984 19.552-15.392 31.824-15.392 30.784 0 52 27.04 52 57.616zm-40.352-.208c0-12.272-9.776-22.464-22.256-22.464-12.272 0-22.048 10.192-22.048 22.464 0 12.272 9.776 22.672 22.048 22.672 12.48 0 22.256-10.4 22.256-22.672zm126.82-55.536v38.272c-4.368-.832-9.152-.832-9.776-.832-16.432 0-28.496 7.28-28.496 28.08V172h-39.728V60.928h39.312V78.4h.208c7.28-14.976 22.256-18.512 31.2-18.512 1.872 0 4.992.208 7.28.832zm25.524-14.56c-12.48 0-23.088-10.4-23.088-22.88 0-12.688 10.4-23.088 23.088-23.088 13.104 0 23.088 10.4 23.088 23.088 0 12.48-10.192 22.88-23.088 22.88zm19.968 14.768V172H628.58V60.928h39.936zm89.796 78.416v32.032c-5.408 1.664-11.232 2.496-16.848 2.496-31.2 0-48.672-16.848-48.672-46.176V93.792h-19.136V60.928h20.176V24.944h38.48v35.984h26.624v32.864h-26.624v30.784c0 11.232 6.448 16.016 16.432 16.016 2.912 0 6.864-.416 9.568-1.248zm-1.932-78.416h43.472l25.376 56.784h.208l21.216-56.784h41.6l-67.808 165.776h-42.016l26.416-65.52L756.38 60.928z" opacity=".08"/></svg>