<svg xmlns="http://www.w3.org/2000/svg" width="932" height="175"><path fill="#FFF" d="M70.808 172v-60.528c0-8.528-4.576-16.64-14.352-16.64-10.192 0-16.016 6.032-16.016 16.848V172H.92V60.928h39.312v13.936h.208c8.528-11.44 21.216-16.224 31.824-16.224 16.016 0 26 7.28 31.616 17.472 9.776-10.816 21.216-17.472 37.648-17.472 30.16 0 38.688 24.544 38.688 46.176V172h-39.52v-60.736c0-8.528-4.784-16.432-14.352-16.432-10.192 0-16.016 5.824-16.016 16.64V172h-39.52zm161.14-111.072v60.112c0 9.36 5.616 17.056 15.184 17.056s16.224-6.032 16.224-17.056V60.928h39.52V172h-39.312v-13.728h-.416c-8.528 11.44-21.216 16.016-31.824 16.016-28.912 0-38.896-24.544-38.896-45.968V60.928h39.52zm174.036 76.336c0 19.344-15.184 37.232-46.8 37.232-28.08 0-41.6-10.608-49.088-26.416l25.376-14.976c4.16 8.32 11.232 13.312 22.256 13.312 5.408 0 10.192-2.704 10.192-6.864 0-3.952-3.328-6.864-13.52-8.944-23.504-4.784-40.976-15.184-40.976-35.36 0-21.216 20.384-36.816 45.76-36.816 21.216 0 36.816 8.944 44.304 23.296L378.32 96.496c-4.16-7.28-10.608-10.4-18.096-10.4-6.032 0-9.984 2.496-9.984 6.032 0 4.368 4.576 6.448 13.312 8.112 26.624 4.992 42.432 17.68 42.432 37.024zm28.644-91.104c-12.48 0-23.088-10.4-23.088-22.88 0-12.688 10.4-23.088 23.088-23.088 13.104 0 23.088 10.4 23.088 23.088 0 12.48-10.192 22.88-23.088 22.88zm19.968 14.768V172H414.66V60.928h39.936zm88.34 65.104l34.32 14.352c-8.32 22.048-28.704 34.112-53.456 34.112-33.696 0-60.944-23.504-60.944-58.032 0-33.488 28.704-58.032 61.36-58.032 24.96 0 44.928 12.064 52.416 33.904l-34.112 14.352C539.608 98.784 532.328 94 524.008 94 511.736 94 503 103.984 503 116.048c0 12.272 7.904 22.464 21.008 22.464 8.528 0 15.392-4.992 18.928-12.48zM692.16 172v-60.32c0-9.152-5.616-16.848-15.184-16.848s-16.224 6.032-16.224 16.848V172h-39.52V2.48h39.728v71.344h.208c8.528-10.608 21.008-15.184 31.616-15.184 29.328 0 38.896 24.544 38.896 46.176V172h-39.52zm98.74-83.408c-10.816 0-18.304 4.576-23.92 12.688l-26.416-16.224c10.192-18.096 27.248-26.624 53.248-26.624 30.368 0 50.96 14.976 50.96 45.76V172h-37.648v-12.896l-.416-.208c-9.36 10.816-20.384 15.184-33.696 15.184-18.512 0-33.696-13.936-33.696-32.656 0-27.04 28.912-34.944 52.624-34.944h5.824c4.992 0 7.904-2.704 7.904-6.864 0-5.616-4.784-11.024-14.768-11.024zm-2.08 58.032c9.568 0 16.848-5.616 16.848-15.6v-3.328H791.94c-6.032 0-13.104 2.496-13.104 9.568 0 5.408 4.784 9.36 9.984 9.36zM897.96 172h-39.936V2.48h39.936V172zm54.436 0H912.46V2.48h39.936V172z" opacity=".08"/></svg>