<svg xmlns="http://www.w3.org/2000/svg" width="604" height="173"><path fill="#FFF" d="M.072 114.464c0-33.696 29.12-58.032 61.776-58.032 32.448 0 60.736 23.504 60.736 57.2 0 34.112-28.288 58.864-61.568 58.864S.072 148.368.072 114.464zm39.728-.208c0 12.064 9.36 22.672 21.632 22.672 12.272 0 21.424-10.816 21.424-22.672 0-12.064-9.152-22.464-21.424-22.464S39.8 102.192 39.8 114.256zm166.548 23.088v32.032c-5.408 1.664-11.232 2.496-16.848 2.496-31.2 0-48.672-16.848-48.672-46.176V91.792h-19.136V58.928h20.176V22.944h38.48v35.984h26.624v32.864h-26.624v30.784c0 11.232 6.448 16.016 16.432 16.016 2.912 0 6.864-.416 9.568-1.248zM287.616 170v-60.32c0-9.152-5.616-16.848-15.184-16.848s-16.224 6.032-16.224 16.848V170h-39.52V.48h39.728v71.344h.208c8.528-10.608 21.008-15.184 31.616-15.184 29.328 0 38.896 24.544 38.896 46.176V170h-39.52zm162.18-45.552h-76.96c2.08 10.816 11.856 17.264 22.672 17.264 8.944 0 18.304-4.576 23.504-12.272l26.416 17.472c-10.192 17.472-25.584 25.584-49.504 25.584-35.152 0-61.568-24.544-61.568-58.24 0-32.656 27.248-57.824 59.28-57.824 30.368 0 56.784 21.84 56.784 53.456 0 3.952 0 10.608-.624 14.56zm-56.784-37.856c-9.152 0-17.68 6.864-19.552 15.808h38.48c-1.456-9.984-8.944-15.808-18.928-15.808zM536.68 58.72v38.272c-4.368-.832-9.152-.832-9.776-.832-16.432 0-28.496 7.28-28.496 28.08V170H458.68V58.928h39.312V76.4h.208c7.28-14.976 22.256-18.512 31.2-18.512 1.872 0 4.992.208 7.28.832zm93.54 76.544c0 19.344-15.184 37.232-46.8 37.232-28.08 0-41.6-10.608-49.088-26.416l25.376-14.976c4.16 8.32 11.232 13.312 22.256 13.312 5.408 0 10.192-2.704 10.192-6.864 0-3.952-3.328-6.864-13.52-8.944-23.504-4.784-40.976-15.184-40.976-35.36 0-21.216 20.384-36.816 45.76-36.816 21.216 0 36.816 8.944 44.304 23.296l-25.168 14.768c-4.16-7.28-10.608-10.4-18.096-10.4-6.032 0-9.984 2.496-9.984 6.032 0 4.368 4.576 6.448 13.312 8.112 26.624 4.992 42.432 17.68 42.432 37.024z" opacity=".08"/></svg>