<?xml version="1.0" encoding="UTF-8"?>
<svg width="262px" height="49px" viewBox="0 0 262 49" version="1.1" xmlns="http://www.w3.org/2000/svg" xmlns:xlink="http://www.w3.org/1999/xlink">
    <!-- Generator: Sketch 54.1 (76490) - https://sketchapp.com -->
    <title>easycarwash_logo</title>
    <desc>Created with Sketch.</desc>
    <g id="easycarwash_logo" stroke="none" stroke-width="1" fill="none" fill-rule="evenodd">
        <g fill="#1D1D1B">
            <path d="M65.4260357,39.5167311 C65.8078814,39.9334918 66,40.4170382 66,40.963901 C66,41.5593353 65.8078814,42.0480858 65.4260357,42.4284178 C65.0429942,42.8096172 64.5666835,43 63.9979008,43 L53.0020992,43 C52.4317222,43 51.9566072,42.7909692 51.5735658,42.3737749 C51.1905243,41.9587489 51,41.4400749 51,40.8212223 L51,20.1787777 C51,19.5594914 51.1905243,19.0412511 51.5735658,18.6244904 C51.9566072,18.2077298 52.4317222,18 53.0020992,18 L63.9979008,18 C64.5666835,18 65.0429942,18.1955869 65.4260357,18.5893628 C65.8078814,18.9814041 66,19.4879352 66,20.1067879 C66,20.7013548 65.8142588,21.1844675 65.4423777,21.552223 C65.0693009,21.9230142 64.5890043,22.1073256 63.9979008,22.1073256 L55.1030479,22.1073256 L55.1030479,28.1774594 L62.5207398,28.1774594 C63.0895225,28.1774594 63.5662318,28.3743473 63.9492732,28.7663885 C64.3307204,29.1601644 64.522839,29.6666956 64.522839,30.2855483 C64.522839,30.8801152 64.3370978,31.3619269 63.9652167,31.7309834 C63.5921399,32.1017746 63.1118433,32.284785 62.5207398,32.284785 L55.1030479,32.284785 L55.1030479,38.8926744 L63.9979008,38.8926744 C64.5666835,38.8926744 65.0429942,39.1012715 65.4260357,39.5167311" id="Fill-1"></path>
            <path d="M80.6306331,35.8920249 C81.570941,34.8653101 82.0419308,33.5735478 82.0419308,32.0167378 C82.0419308,30.4599278 81.570941,29.1618641 80.6306331,28.1237283 C79.6903253,27.0859862 78.4737759,26.5673121 76.9826565,26.5673121 C75.5136867,26.5673121 74.3100926,27.0859862 73.3697848,28.1237283 C72.4278053,29.1618641 71.9584871,30.4599278 71.9584871,32.0167378 C71.9584871,33.5735478 72.4227903,34.8653101 73.3513965,35.8920249 C74.2816744,36.9187397 75.4911193,37.4330817 76.9826565,37.4330817 C78.4737759,37.4330817 79.6903253,36.9187397 80.6306331,35.8920249 M85.4153375,23.5509682 C85.8052518,23.9184116 86,24.3941582 86,24.9782081 L86,38.6976698 C86,39.2596652 85.8052518,39.7306859 85.4153375,40.1075812 C85.0245873,40.4864457 84.5310302,40.6758779 83.934666,40.6758779 C83.3383019,40.6758779 82.8505955,40.4923531 82.4723828,40.1237283 C82.0929163,39.7574664 81.8931532,39.2931408 81.8705858,38.7295701 C81.2963711,39.3569413 80.5219753,39.8921562 79.5461447,40.3356088 C78.5715679,40.7782737 77.5447517,41 76.4656962,41 C74.8830536,41 73.4491885,40.6168034 72.1636832,39.8488349 C70.8794316,39.0820479 69.8643171,38.0171316 69.1187574,36.6548736 C68.371944,35.291828 68,33.7460453 68,32.0167378 C68,30.2862488 68.3665111,28.7353462 69.1016229,27.362061 C69.835481,25.9887758 70.838476,24.9191336 72.1126976,24.1511651 C73.3852476,23.3831966 74.7915303,23 76.3286202,23 C77.4298252,23 78.4629101,23.1898261 79.4257853,23.5671152 C80.3899143,23.9455858 81.2048478,24.4272399 81.8705858,25.0105021 L81.8705858,24.9782081 C81.8705858,24.4162127 82.0644982,23.9455858 82.4552483,23.5671152 C82.8451626,23.1898261 83.3383019,23 83.934666,23 C84.5310302,23 85.0245873,23.1835248 85.4153375,23.5509682" id="Fill-3"></path>
            <path d="M89,37.0112898 C89,36.4492944 89.2864378,35.9735478 89.8625363,35.5840499 C90.1711318,35.389104 90.4930218,35.291828 90.8245806,35.291828 C91.2886823,35.291828 91.7310293,35.4978011 92.1508158,35.908172 C92.8155449,36.5788645 93.5068631,37.0754841 94.2251734,37.4007877 C94.9438865,37.7249097 95.8112572,37.8867739 96.8292999,37.8867739 C98.5551783,37.8213981 99.4177146,37.1837873 99.4177146,35.9735478 C99.4177146,35.3461766 99.1240252,34.8700361 98.5390636,34.5463078 C97.9524906,34.2217919 97.039596,33.8976698 95.8015884,33.5735478 C94.5176542,33.2273712 93.4726195,32.8808008 92.6656787,32.5358057 C91.8587379,32.1892353 91.1609738,31.6654414 90.5760122,30.9616672 C89.989842,30.2590745 89.6961526,29.3134887 89.6961526,28.1241221 C89.6961526,27.0859862 89.9999137,26.1837217 90.6090472,25.416147 C91.2165693,24.64936 92.0134385,24.0538891 92.9972375,23.6320971 C93.9818422,23.210699 95.0260712,23 96.1331472,23 C97.2603666,23 98.3887946,23.2055793 99.5172225,23.6163439 C100.644442,24.0267148 101.529942,24.633213 102.171304,25.4334755 C102.458951,25.7784706 102.602774,26.1679685 102.602774,26.5992123 C102.602774,27.0985888 102.392075,27.5077781 101.972289,27.8319002 C101.662485,28.070955 101.309171,28.1894979 100.910334,28.1894979 C100.423671,28.1894979 100.025237,28.0378733 99.7166412,27.7358057 C99.3178038,27.2600591 98.8037467,26.8815884 98.1732612,26.5992123 C97.5427757,26.319593 96.8292999,26.1778142 96.0332365,26.1778142 C94.3524791,26.1778142 93.5112946,26.7728914 93.5112946,27.9626518 C93.5112946,28.4372169 93.666801,28.8219888 93.9770079,29.1138169 C94.2856033,29.4060387 94.6779949,29.6328848 95.1545855,29.7943551 C95.6299675,29.9570069 96.2979195,30.1578602 97.1620673,30.394552 C98.3561624,30.7186741 99.3508388,31.0542173 100.147708,31.4003938 C100.943369,31.7465704 101.617766,32.2754841 102.171304,32.9894979 C102.723634,33.7031178 103,34.6435839 103,35.810896 C103,36.8710863 102.679721,37.7954053 102.037956,38.5842468 C101.39619,39.3742698 100.572732,39.9732852 99.5667751,40.3836561 C98.5600127,40.7944207 97.5262582,41 96.4647061,41 C95.0043164,41 93.6438376,40.7625205 92.3840753,40.28638 C91.1235072,39.8118149 90.0945872,39.0426649 89.2989266,37.9840499 C89.0995079,37.7249097 89,37.4007877 89,37.0112898" id="Fill-5"></path>
            <path d="M119.442378,24.5960052 C119.814259,24.9929289 120,25.485263 120,26.0750727 L120,40.5316052 C120,43.4790015 119.234316,45.6275938 117.70215,46.9773824 C116.169984,48.3259318 114.12404,49 111.56392,49 C110.819361,49 110.059655,48.9384582 109.282412,48.8128965 C108.506364,48.6889869 107.876199,48.5246002 107.394707,48.3205624 C106.323307,47.8447495 105.786809,47.1867896 105.786809,46.3479216 C105.786809,46.1884913 105.820689,46.0075833 105.88526,45.8035455 C106.016395,45.3041898 106.241198,44.9242004 106.55927,44.6631642 C106.876146,44.403367 107.220525,44.2728489 107.592406,44.2728489 C107.811628,44.2728489 108.018893,44.3063045 108.215795,44.3748678 C108.36925,44.4434311 108.637898,44.5561889 109.02054,44.7147932 C109.403183,44.8738105 109.807749,45.0047416 110.234236,45.1067605 C110.661122,45.2075403 111.105147,45.2591693 111.56392,45.2591693 C113.11761,45.2591693 114.261552,44.9126355 114.994951,44.222459 C115.727154,43.5293914 116.094252,42.3452287 116.094252,40.6674927 L116.094252,40.3271544 C114.956288,41.8025046 113.183376,42.5377016 110.775915,42.5377016 C109.637951,42.5377016 108.631122,42.2601441 107.757022,41.704203 C106.880929,41.1495011 106.202136,40.3775443 105.720644,39.3916369 C105.239152,38.4053165 105,37.2777392 105,36.0068398 L105,26.0750727 C105,25.485263 105.185343,24.9929289 105.557224,24.5960052 C105.929105,24.1990814 106.399437,24 106.968219,24 C107.537401,24 108.007733,24.1990814 108.380411,24.5960052 C108.752292,24.9929289 108.938033,25.485263 108.938033,26.0750727 L108.938033,34.783026 C108.938033,36.2112906 109.238567,37.2376751 109.84123,37.8609404 C110.442697,38.4850317 111.323572,38.7968709 112.483459,38.7968709 C113.621423,38.7968709 114.5019,38.4515761 115.126086,37.7585085 C115.749475,37.0670929 116.061568,36.0754031 116.061568,34.783026 L116.061568,26.0750727 C116.061568,25.485263 116.24731,24.9929289 116.619191,24.5960052 C116.991072,24.1990814 117.461005,24 118.031382,24 C118.600563,24 119.069301,24.1990814 119.442378,24.5960052" id="Fill-7"></path>
            <path d="M142.968215,21.1469185 C142.968215,21.636024 142.806152,22.1140907 142.483203,22.5806939 C142.137887,23.0697994 141.695646,23.3143522 141.158052,23.3143522 C140.791938,23.3143522 140.425825,23.2090586 140.058534,23.0005944 C139.003357,22.463937 137.861459,22.196882 136.633232,22.196882 C135.125221,22.196882 133.810665,22.5395106 132.691134,23.226466 C131.570818,23.9151198 130.708705,24.882292 130.105579,26.1301055 C129.502453,27.3766452 129.201478,28.8036275 129.201478,30.4131753 C129.201478,33.1635447 129.884262,35.2498854 131.25297,36.6717728 C132.620893,38.0940849 134.413791,38.8048163 136.633232,38.8048163 C137.947396,38.8048163 139.089686,38.5364876 140.058534,37.9994056 C140.446622,37.8134436 140.791938,37.7204626 141.092913,37.7204626 C141.652482,37.7204626 142.126899,37.9769034 142.514988,38.4897848 C142.837937,38.9321876 143,39.4106788 143,39.9222866 C143,40.2959088 142.914063,40.6342917 142.741013,40.9374353 C142.568747,41.2405788 142.32114,41.4732436 141.997798,41.6367033 C140.317913,42.5452847 138.529332,43 136.633232,43 C134.522095,43 132.582438,42.5164139 130.816616,41.5488171 C129.050402,40.5824941 127.639315,39.1542381 126.582961,37.2661719 C125.528177,35.3776812 125,33.0934905 125,30.4131753 C125,28.035579 125.501101,25.9029601 126.503303,24.0144694 C127.504327,22.1264032 128.888339,20.6514444 130.65573,19.5908666 C132.421944,18.5302889 134.413791,18 136.633232,18 C138.550522,18 140.328508,18.4547153 141.966013,19.3637213 C142.633102,19.736919 142.968215,20.331318 142.968215,21.1469185" id="Fill-9"></path>
            <path d="M157.631007,35.8920249 C158.571249,34.8653101 159.042206,33.5735478 159.042206,32.0167378 C159.042206,30.4599278 158.571249,29.1618641 157.631007,28.1237283 C156.689093,27.0859862 155.473882,26.5673121 153.983285,26.5673121 C152.514417,26.5673121 151.309653,27.0859862 150.368993,28.1237283 C149.427497,29.1618641 148.957794,30.4599278 148.957794,32.0167378 C148.957794,33.5735478 149.422064,34.8653101 150.352277,35.8920249 C151.280819,36.9187397 152.490598,37.4330817 153.983285,37.4330817 C155.473882,37.4330817 156.689093,36.9187397 157.631007,35.8920249 M162.413707,23.5509682 C162.803594,23.9184116 163,24.3941582 163,24.9782081 L163,38.6976698 C163,39.2596652 162.803594,39.7306859 162.413707,40.1075812 C162.024237,40.4864457 161.531132,40.6758779 160.934392,40.6758779 C160.337234,40.6758779 159.850397,40.4923531 159.472211,40.1237283 C159.093188,39.7574664 158.891768,39.2931408 158.86962,38.7295701 C158.295445,39.3569413 157.520685,39.8921562 156.546594,40.3356088 C155.570832,40.7782737 154.544087,41 153.46636,41 C151.883828,41 150.448809,40.6168034 149.164647,39.8488349 C147.878813,39.0820479 146.863769,38.0171316 146.119515,36.6548736 C145.372754,35.291828 145,33.7460453 145,32.0167378 C145,30.2862488 145.367321,28.7353462 146.101128,27.362061 C146.835353,25.9887758 147.839532,24.9191336 149.113665,24.1511651 C150.386126,23.3831966 151.790639,23 153.328876,23 C154.430422,23 155.462599,23.1898261 156.426243,23.5671152 C157.389051,23.9455858 158.20351,24.4272399 158.86962,25.0105021 L158.86962,24.9782081 C158.86962,24.4162127 159.064354,23.9455858 159.453824,23.5671152 C159.843711,23.1898261 160.337234,23 160.934392,23 C161.531132,23 162.024237,23.1835248 162.413707,23.5509682" id="Fill-11"></path>
            <path d="M177.294412,23.5610588 C177.764943,23.9352316 178,24.3771807 178,24.8828955 C178,25.5658713 177.815879,26.0780028 177.449725,26.418087 C177.082736,26.7593744 176.646023,26.9302186 176.142927,26.9302186 C175.799736,26.9302186 175.408531,26.8536194 174.973488,26.699218 C174.905435,26.6775617 174.750122,26.6326449 174.509637,26.5672749 C174.269153,26.5011029 174.010716,26.4682174 173.736414,26.4682174 C173.140213,26.4682174 172.566558,26.6438741 172.016283,26.9951875 C171.466425,27.3481051 171.014265,27.882695 170.658548,28.5985562 C170.30325,29.3136154 170.125391,30.1662322 170.125391,31.1576098 L170.125391,38.9851614 C170.125391,39.5574494 169.930833,40.0370965 169.541716,40.4212954 C169.152181,40.8066974 168.659105,41 168.062487,41 C167.466286,41 166.973627,40.8066974 166.58451,40.4212954 C166.194976,40.0370965 166,39.5574494 166,38.9851614 L166,25.3448967 C166,24.7726088 166.194976,24.2941648 166.58451,23.9087628 C166.973627,23.5233607 167.466286,23.3300582 168.062487,23.3300582 C168.659105,23.3300582 169.152181,23.5233607 169.541716,23.9087628 C169.930833,24.2941648 170.125391,24.7726088 170.125391,25.3448967 L170.125391,25.7740124 C170.652286,24.8716663 171.410062,24.1838781 172.39538,23.7106477 C173.380697,23.2374173 174.434904,23 175.559251,23 C176.246469,23 176.825134,23.1868859 177.294412,23.5610588" id="Fill-13"></path>
            <path d="M209.325407,18.6568038 C209.774869,19.0959685 210,19.6474073 210,20.3111203 C210,20.524873 209.96721,20.7610806 209.90083,21.0223339 L203.41442,41.6479601 C203.28286,42.052147 203.052531,42.3712647 202.721832,42.6091996 C202.392733,42.8458389 202.031244,42.9766815 201.635765,43 C201.241486,43 200.867601,42.8808167 200.516908,42.6441773 C200.165416,42.4075379 199.8911,42.0633744 199.693161,41.6129823 L195.016195,30.1260407 L190.307639,41.6129823 C190.1101,42.0633744 189.834984,42.4075379 189.484291,42.6441773 C189.132799,42.8808167 188.759314,43 188.364235,43 C187.969956,42.9766815 187.606867,42.8458389 187.277768,42.6091996 C186.948669,42.3712647 186.71834,42.052147 186.58558,41.6479601 L180.09877,21.0223339 C180.03239,20.7610806 180,20.524873 180,20.3111203 C180,19.6474073 180.225531,19.0959685 180.675393,18.6568038 C181.125255,18.2189346 181.624702,18 182.174133,18 C182.611599,18 183.007478,18.1243652 183.35897,18.3730957 C183.709262,18.6213943 183.952388,18.9595122 184.083948,19.3865858 L188.989643,35.4607904 L193.27153,24.3659447 C193.446676,23.9384392 193.699799,23.6007531 194.028498,23.3520227 C194.357597,23.1032922 194.730683,22.9901544 195.148954,23.0143365 C195.565627,22.9901544 195.933514,23.1032922 196.251816,23.3520227 C196.569719,23.6007531 196.817243,23.9384392 196.992389,24.3659447 L201.043547,35.35413 L205.917652,19.3865858 C206.048812,18.9595122 206.295536,18.6213943 206.658225,18.3730957 C207.019714,18.1243652 207.420391,18 207.859856,18 C208.386495,18 208.874745,18.2189346 209.325407,18.6568038" id="Fill-15"></path>
            <path d="M221.630633,35.8920249 C222.570941,34.8653101 223.041931,33.5735478 223.041931,32.0167378 C223.041931,30.4599278 222.570941,29.1618641 221.630633,28.1237283 C220.689907,27.0859862 219.473776,26.5673121 217.982657,26.5673121 C216.513687,26.5673121 215.310093,27.0859862 214.368531,28.1237283 C213.427805,29.1618641 212.956815,30.4599278 212.956815,32.0167378 C212.956815,33.5735478 213.422372,34.8653101 214.351397,35.8920249 C215.281674,36.9187397 216.491119,37.4330817 217.982657,37.4330817 C219.473776,37.4330817 220.689907,36.9187397 221.630633,35.8920249 M226.415337,23.5509682 C226.805252,23.9184116 227,24.3941582 227,24.9782081 L227,38.6976698 C227,39.2596652 226.805252,39.7306859 226.415337,40.1075812 C226.024169,40.4864457 225.53103,40.6758779 224.934666,40.6758779 C224.338302,40.6758779 223.850596,40.4923531 223.471965,40.1237283 C223.092916,39.7574664 222.893153,39.2931408 222.869332,38.7295701 C222.296371,39.3569413 221.521975,39.8921562 220.546145,40.3356088 C219.571568,40.7782737 218.544752,41 217.465696,41 C215.883054,41 214.449189,40.6168034 213.163683,39.8488349 C211.879014,39.0820479 210.863899,38.0171316 210.118757,36.6548736 C209.371526,35.291828 209,33.7460453 209,32.0167378 C209,30.2862488 209.366511,28.7353462 210.101623,27.362061 C210.835481,25.9887758 211.838476,24.9191336 213.112698,24.1511651 C214.385248,23.3831966 215.79153,23 217.328202,23 C218.429825,23 219.46291,23.1898261 220.425785,23.5671152 C221.389914,23.9455858 222.203176,24.4272399 222.869332,25.0105021 L222.869332,24.9782081 C222.869332,24.4162127 223.06408,23.9455858 223.455248,23.5671152 C223.845163,23.1898261 224.338302,23 224.934666,23 C225.53103,23 226.024169,23.1835248 226.415337,23.5509682" id="Fill-17"></path>
            <path d="M230,37.0112898 C230,36.4492944 230.287622,35.9735478 230.862462,35.5840499 C231.172239,35.389104 231.492893,35.291828 231.82402,35.291828 C232.289693,35.291828 232.730794,35.4978011 233.151752,35.908172 C233.815216,36.5788645 234.506071,37.0754841 235.224722,37.4007877 C235.943373,37.7249097 236.810669,37.8867739 237.829833,37.8867739 C239.554353,37.8213981 240.416412,37.1837873 240.416412,35.9735478 C240.416412,35.3461766 240.123151,34.8700361 239.53824,34.5463078 C238.951718,34.2217919 238.038902,33.8976698 236.800598,33.5735478 C235.517178,33.2273712 234.472233,32.8808008 233.666571,32.5358057 C232.858491,32.1892353 232.160787,31.6654414 231.575876,30.9616672 C230.989757,30.2590745 230.696898,29.3134887 230.696898,28.1241221 C230.696898,27.0859862 230.999425,26.1837217 231.608505,25.416147 C232.216378,24.64936 233.013178,24.0538891 233.998101,23.6320971 C234.981412,23.210699 236.02676,23 237.132129,23 C238.260862,23 239.387984,23.2055793 240.516315,23.6163439 C241.643437,24.0267148 242.52886,24.633213 243.170167,25.4334755 C243.457789,25.7784706 243.6016,26.1679685 243.6016,26.5992123 C243.6016,27.0985888 243.390919,27.5077781 242.971169,27.8319002 C242.660989,28.070955 242.308108,28.1894979 241.909305,28.1894979 C241.422685,28.1894979 241.024285,28.0378733 240.715716,27.7358057 C240.316913,27.2600591 239.8029,26.8815884 239.172469,26.5992123 C238.542038,26.319593 237.829833,26.1778142 237.032629,26.1778142 C235.352017,26.1778142 234.510905,26.7728914 234.510905,27.9626518 C234.510905,28.4372169 234.665995,28.8219888 234.976578,29.1138169 C235.285147,29.4060387 235.677505,29.6328848 236.153651,29.7943551 C236.629395,29.9570069 237.298901,30.1578602 238.161363,30.394552 C239.355355,30.7186741 240.349945,31.0542173 241.146746,31.4003938 C241.942338,31.7465704 242.616677,32.2754841 243.170167,32.9894979 C243.722449,33.7031178 244,34.6435839 244,35.810896 C244,36.8710863 243.678541,37.7954053 243.038039,38.5842468 C242.395926,39.3742698 241.571733,39.9732852 240.565863,40.3836561 C239.559187,40.7944207 238.525522,41 237.463659,41 C236.005007,41 234.644645,40.7625205 233.383783,40.28638 C232.123324,39.8118149 231.094493,39.0426649 230.298498,37.9840499 C230.099499,37.7249097 230,37.4007877 230,37.0112898" id="Fill-19"></path>
            <path d="M260.749767,25.6319779 C261.583788,26.9943389 262,28.8801483 262,31.2902268 L262,39.939024 C262,40.5244167 261.813464,41.0150471 261.44079,41.4080437 C261.067318,41.802271 260.595984,42 260.026789,42 C259.455996,42 258.984662,41.802271 258.611589,41.4080437 C258.239315,41.0150471 258.053178,40.5244167 258.053178,39.939024 L258.053178,31.2902268 C258.053178,30.0513439 257.816712,29.0778773 257.345778,28.3681861 C256.874045,27.6580847 256.046814,27.3036494 254.861289,27.3036494 C253.633824,27.3036494 252.67478,27.6810574 251.983756,28.4358735 C251.293132,29.1910997 250.947221,30.1411834 250.947221,31.2902268 L250.947221,39.939024 C250.947221,40.5244167 250.760685,41.0150471 250.388411,41.4080437 C250.015738,41.802271 249.544404,42 248.97441,42 C248.402817,42 247.931484,41.802271 247.55921,41.4080437 C247.186536,41.0150471 247,40.5244167 247,39.939024 L247,19.0605658 C247,18.4751731 247.186536,17.9861836 247.55921,17.5903154 C247.931484,17.197729 248.402817,17 248.97441,17 C249.544404,17 250.015738,17.197729 250.388411,17.5903154 C250.760685,17.9861836 250.947221,18.4751731 250.947221,19.0605658 L250.947221,26.5270913 C251.539584,25.7168948 252.290922,25.0232024 253.201236,24.4492961 C254.109951,23.874159 255.125316,23.5878212 256.244135,23.5878212 C258.414268,23.5878212 259.915746,24.269617 260.749767,25.6319779" id="Fill-21"></path>
            <path d="M5.52225379,12 L5.4782197,12 C4.66193182,12 4,11.4687203 4,10.8130823 L4,1.18729797 C4,0.531660011 4.66193182,0 5.4782197,0 L5.52225379,0 C6.33854167,0 7,0.531660011 7,1.18729797 L7,10.8130823 C7,11.4687203 6.33854167,12 5.52225379,12" id="Fill-23"></path>
            <path d="M10.5222538,12 L10.4782197,12 C9.66193182,12 9,11.4687203 9,10.8130823 L9,1.18729797 C9,0.531660011 9.66193182,0 10.4782197,0 L10.5222538,0 C11.3385417,0 12,0.531660011 12,1.18729797 L12,10.8130823 C12,11.4687203 11.3385417,12 10.5222538,12" id="Fill-25"></path>
            <path d="M15.5217803,12 L15.4777462,12 C14.6614583,12 14,11.4687203 14,10.8130823 L14,1.18729797 C14,0.531660011 14.6614583,0 15.4777462,0 L15.5217803,0 C16.3380682,0 17,0.531660011 17,1.18729797 L17,10.8130823 C17,11.4687203 16.3380682,12 15.5217803,12" id="Fill-27"></path>
            <path d="M21.5220136,12 L21.4779864,12 C20.6618274,12 20,11.4687203 20,10.8130823 L20,1.18729797 C20,0.531660011 20.6618274,0 21.4779864,0 L21.5220136,0 C22.3381726,0 23,0.531660011 23,1.18729797 L23,10.8130823 C23,11.4687203 22.3381726,12 21.5220136,12" id="Fill-29"></path>
            <path d="M25.5217803,12 L25.4777462,12 C24.6614583,12 24,11.4687203 24,10.8130823 L24,1.18729797 C24,0.531660011 24.6614583,0 25.4777462,0 L25.5217803,0 C26.3380682,0 27,0.531660011 27,1.18729797 L27,10.8130823 C27,11.4687203 26.3380682,12 25.5217803,12" id="Fill-31"></path>
            <path d="M31.5220136,12 L31.477513,12 C30.6618274,12 30,11.4687203 30,10.8130823 L30,1.18729797 C30,0.531660011 30.6618274,0 31.477513,0 L31.5220136,0 C32.3381726,0 33,0.531660011 33,1.18729797 L33,10.8130823 C33,11.4687203 32.3381726,12 31.5220136,12" id="Fill-33"></path>
            <path d="M36.5222538,12 L36.4777462,12 C35.6614583,12 35,11.4687203 35,10.8130823 L35,1.18729797 C35,0.531660011 35.6614583,0 36.4777462,0 L36.5222538,0 C37.3385417,0 38,0.531660011 38,1.18729797 L38,10.8130823 C38,11.4687203 37.3385417,12 36.5222538,12" id="Fill-35"></path>
            <path d="M2.40114863,5 C1.08022973,5 0,5.67507338 0,6.49983694 C0,7.32492662 1.08022973,8 2.40114863,8 L3,8 L3,5 L2.40114863,5 Z" id="Fill-37"></path>
            <path d="M39.5988514,8 C40.9187261,8 42,7.32492662 42,6.49983694 C42,5.67507338 40.9187261,5 39.5988514,5 L39,5 L39,8 L39.5988514,8 Z" id="Fill-39"></path>
            <path d="M11.0298914,20.9141339 C11.0282615,20.917428 11.0266316,20.9207221 11.0254092,20.924428 C11.0160375,20.9491339 11.005036,20.973428 10.9944419,20.9981339 C10.9642895,21.0821339 10.9488058,21.1760162 11.0298914,20.9141339" id="Fill-41"></path>
            <path d="M6.9300677,39.9725649 C7.0360086,40.0182707 7.18310347,40.0689178 6.9300677,39.9725649" id="Fill-43"></path>
            <path d="M11.5,34 C10.1192424,34 9,34.6715454 9,35.5 C9,36.3284546 10.1192424,37 11.5,37 C12.8807576,37 14,36.3284546 14,35.5 C14,34.6715454 12.8807576,34 11.5,34" id="Fill-45"></path>
            <path d="M34.9088922,40.0463762 C34.912152,40.0451409 34.9158191,40.0439056 34.9186714,40.0430821 C34.9590104,40.0229056 34.9997569,40.0035527 35.0413184,39.9850232 C35.1134397,39.9450821 35.1354428,39.9232585 34.9088922,40.0463762" id="Fill-47"></path>
            <path d="M30.0081493,20.0045294 L30.0081493,20.0041176 C30.0028523,20.0016471 29.9971477,19.9983529 29.9918507,19.9954706 C29.9971477,19.9983529 30.0024448,20.0012353 30.0081493,20.0045294" id="Fill-49"></path>
            <path d="M30.0038709,20.0016471 C30.0018336,20.0008235 29.9981664,19.9991765 29.9961291,19.9983529 C29.9985739,19.9995882 30.0014261,20.0004118 30.0038709,20.0016471" id="Fill-51"></path>
            <path d="M30.0248554,20.0162647 C30.0130389,20.0096765 30.0020373,20.0026765 29.9926656,19.9960882 C30.0016299,20.0018529 30.012224,20.0088529 30.0240404,20.0154412 C30.0211882,20.0125588 30.0183359,20.0096765 30.0158911,20.0067941 C30.0077418,20.0030882 29.9995925,19.9989706 29.9910358,19.9948529 C29.9841089,19.9899118 29.977182,19.9849706 29.9726998,19.9808529 C29.977182,19.9849706 29.9832939,19.9895 29.9906283,19.9944412 C29.9861462,19.9923824 29.9820715,19.9907353 29.9775894,19.9882647 C29.9918507,19.9985588 30.0085568,20.0088529 30.0273002,20.0191471 C30.0264852,20.0183235 30.0256703,20.0170882 30.0248554,20.0162647" id="Fill-53"></path>
            <path d="M35.0097792,39.9882647 C35.006112,39.9911471 35.0016299,39.9952647 34.9979627,39.9989706 C34.9955179,40.0026765 34.9926656,40.0076176 34.9902208,40.0117353 C34.9959253,40.0059706 35.0012224,40.0002059 35.005297,39.9948529 C35.0069269,39.9927941 35.0081493,39.9903235 35.0097792,39.9882647" id="Fill-55"></path>
            <path d="M29.9928694,19.9958824 C29.9928694,19.9962941 29.9932768,19.9962941 29.9936843,19.9967059 C29.9981664,19.9991765 30.0022411,20.0016471 30.0071306,20.0041176 C30.0022411,20.0012353 29.9973515,19.9987647 29.9928694,19.9958824" id="Fill-57"></path>
            <path d="M34.6934669,31.1718761 C34.7575414,31.4571515 34.8318188,31.7432502 34.8771199,32.0322305 C34.8832417,32.0771006 34.8963014,32.1701342 34.8991583,32.1919518 C34.9167073,32.3331487 34.9338483,32.4743456 34.950173,32.6159542 C34.9771088,32.8514196 35.002004,33.086885 35.0248586,33.322762 C35.0717921,33.7998677 35.1097471,34.2773849 35.1403559,34.7557255 C35.2138171,35.9095883 35.2170821,37.0646861 35.2615669,38.2189606 C35.1954518,38.2597142 35.1297448,38.3000562 35.0611811,38.3366933 C35.0166962,38.3605692 34.970987,38.3811518 34.9248697,38.4021461 C34.8918121,38.4202588 34.8493679,38.4416648 34.815086,38.4552493 C34.8105967,38.4568959 34.8061074,38.4581309 34.8024343,38.4601892 C34.7869259,38.4675989 34.7706011,38.4750087 34.7555008,38.4832417 C34.7693768,38.4762436 34.780396,38.4700688 34.7922314,38.4634824 C34.7232595,38.4898282 34.6542876,38.5157623 34.5844994,38.5400498 C34.2604538,38.6532543 33.9290622,38.7450529 33.596038,38.8257369 C33.1973069,38.9220636 32.7957189,39.0019243 32.3916822,39.0714936 C32.2043562,39.1036025 32.0166219,39.1332415 31.8284796,39.1616455 C30.6943201,39.2950211 29.5577119,39.4292199 28.4194713,39.4992009 C28.4043709,39.5000242 28.3896787,39.5024941 28.3753946,39.503729 C27.968093,39.5304865 27.5611995,39.5539507 27.154306,39.5741217 C25.2459469,39.6692135 23.3347311,39.701734 21.4243315,39.7050273 C19.1845808,39.7009107 16.9366677,39.6650969 14.6989576,39.5148437 C14.6548808,39.5078456 14.6108041,39.5020824 14.565503,39.4992009 C13.4301192,39.4296315 12.2959597,39.2954327 11.1642489,39.1624689 C11.0879309,39.1509426 11.0112047,39.1402396 10.9348867,39.12789 C10.4941194,39.057909 10.0545765,38.9776367 9.61952289,38.8792517 C9.28078508,38.8030959 8.94449598,38.7166489 8.61392053,38.6112657 C8.47516046,38.5668072 8.33762475,38.5194672 8.20172151,38.4671873 C8.14009571,38.443723 8.07928615,38.416554 8.01725224,38.3930897 C8.05235038,38.4066743 8.0825511,38.4177889 8.10907876,38.4276686 C8.09234593,38.4206705 8.07642933,38.4136724 8.06377768,38.4074976 C7.95725892,38.356041 7.85237263,38.3004679 7.75197565,38.2387199 C7.74218082,38.2325451 7.73320222,38.2263704 7.72381551,38.2201956 C7.760138,37.2359337 7.76258671,36.2508485 7.81482579,35.2669983 C7.85808628,34.4613937 7.92093643,33.6566125 8.00827365,32.8547128 C8.0299039,32.6538262 8.05316661,32.4533513 8.0780618,32.2528764 C8.07683745,32.2644027 8.13193336,31.8638645 8.10214075,32.0631044 C8.11193558,31.9997099 8.11887359,31.9490766 8.13111712,31.8897986 C8.15193113,31.7835922 8.17845879,31.6777974 8.20212963,31.5720026 C8.29232367,31.1677596 8.38333395,30.7639282 8.47516046,30.3600967 C11.3850407,30.697652 14.3414463,30.6931239 17.2578564,30.6931239 L21.1823176,30.6931239 C24.6464218,30.6931239 28.1211371,30.7779243 31.5811602,30.5828009 C32.5573781,30.5280511 33.5344122,30.4547769 34.5073651,30.3461005 C34.5698072,30.6214963 34.6326573,30.8964804 34.6934669,31.1718761 L34.6934669,31.1718761 Z M35.4231816,38.0736472 C35.4264465,38.0629442 35.4297115,38.0518296 35.4325683,38.0407149 C35.4566472,38.009841 35.4541985,38.030012 35.4231816,38.0736472 L35.4231816,38.0736472 Z M35.3631883,38.1535078 C35.3668613,38.1465097 35.3701263,38.1399233 35.3737993,38.1337485 C35.362372,38.1465097 35.3489041,38.1600943 35.3333957,38.1736788 C35.3227846,38.1806769 35.3121735,38.1872633 35.3007462,38.1942614 C35.3342119,38.1625642 35.3611477,38.1386883 35.3815536,38.1209872 C35.4031838,38.0822919 35.4199166,38.0563577 35.4317521,38.0419499 C35.4203248,38.0658258 35.4068569,38.088055 35.393389,38.1102843 C35.3958377,38.1086376 35.397062,38.1074027 35.3991026,38.1057561 C35.3958377,38.109461 35.3925727,38.1131658 35.3888997,38.1168707 C35.3823698,38.1275737 35.3758399,38.1382767 35.3689019,38.1489796 C35.3668613,38.1506262 35.3652288,38.1522728 35.3631883,38.1535078 L35.3631883,38.1535078 Z M31.6170746,41.4866606 L31.6170746,44.5188953 C31.6170746,44.5732334 31.6166665,44.6279833 31.6170746,44.6819098 C31.6174827,44.6810865 31.6178908,44.6806748 31.6182989,44.6798515 C31.6178908,44.6806748 31.6178908,44.6814981 31.6174827,44.6823214 L31.6170746,44.6823214 C31.6170746,44.6819098 31.6166665,44.6823214 31.6166665,44.6823214 L29.5519983,44.6823214 L29.5519983,43.5321635 L29.5519983,41.7015434 C30.2413093,41.6447353 30.9306204,41.5759893 31.6170746,41.4866606 L31.6170746,41.4866606 Z M13.4333841,44.6823214 L11.3683078,44.6823214 C11.3683078,44.6707951 11.3678997,44.6592689 11.3678997,44.6477426 C11.3630023,43.8985345 11.3678997,43.1489147 11.3678997,42.3997066 L11.3678997,41.4870723 C11.9017179,41.5541717 12.4371685,41.6089215 12.9697623,41.6587315 C13.1240308,41.673551 13.2787075,41.6859006 13.432976,41.6990735 L13.432976,43.2226006 L13.432976,44.2982494 C13.432976,44.4262734 13.4333841,44.5542974 13.4333841,44.6823214 L13.4333841,44.6823214 Z M7.50710494,38.0213673 C7.5266946,38.0386567 7.54465178,38.0538878 7.56016026,38.0687073 C7.56056838,38.0699423 7.56138461,38.0711772 7.56179273,38.0724122 C7.54342743,38.0547111 7.52547024,38.0374217 7.50710494,38.0213673 L7.50710494,38.0213673 Z M7.66667902,38.1831468 C7.63729453,38.1522728 7.60750193,38.1205756 7.57770933,38.08929 C7.57607686,38.0868201 7.5748525,38.0839385 7.57322003,38.0810569 C7.62423476,38.128397 7.65565983,38.1633875 7.67280078,38.1868517 C7.67076019,38.1856167 7.66871961,38.1843818 7.66667902,38.1831468 L7.66667902,38.1831468 Z M11.1132342,20.852975 C11.1479242,20.7632347 11.1838386,20.673906 11.2193448,20.5845774 C11.2262828,20.5685229 11.2332208,20.5520568 11.240567,20.5360024 C11.2446481,20.5236528 11.2491374,20.5117148 11.2540348,20.5014235 C11.2601566,20.4882506 11.2654621,20.4750777 11.2715839,20.4623165 C11.2756651,20.4512019 11.2797463,20.4400872 11.2830112,20.4289726 C11.2805625,20.4376173 11.2785219,20.4442038 11.2760732,20.4520252 C11.3442289,20.2976554 11.4136089,20.1436972 11.4874783,19.992209 C11.6193003,19.7233997 11.7678552,19.4689983 11.9323267,19.2199483 C11.9498758,19.2006006 11.967833,19.1808413 11.9861983,19.161082 C12.0053798,19.1483207 12.0257857,19.1339129 12.0388455,19.1227982 C12.0519052,19.1166235 12.0661894,19.1096254 12.0804735,19.1030389 C12.2286203,19.0610503 12.3743183,19.011652 12.5249138,18.9766615 C12.7550923,18.9235583 12.9873113,18.8807464 13.2199385,18.8416394 C13.3831856,18.8140586 13.5464328,18.7889478 13.710088,18.7654836 C13.7149854,18.7646603 13.7215153,18.7634253 13.727229,18.7621904 C13.7406969,18.7605438 13.7623271,18.7576622 13.7937522,18.7535457 C13.8472156,18.7465476 13.9010872,18.7395495 13.9549587,18.732963 C14.7250771,18.6362246 15.4984604,18.5629504 16.2722518,18.5028491 C18.0124663,18.3670037 19.7579863,18.2957877 21.5035063,18.2867314 C23.0686383,18.2953761 24.6337702,18.3546541 26.195229,18.4645654 C26.9135165,18.514787 27.6301714,18.5757117 28.3460101,18.6531024 C28.650466,18.6860346 28.9708385,18.7012658 29.270397,18.763837 C28.9349241,18.693856 29.3389608,18.77454 29.4205844,18.7868895 C29.5577119,18.8074722 29.6940233,18.8292898 29.8299266,18.852754 C30.1935595,18.9153252 30.5461734,18.9972441 30.8991953,19.1001573 C30.9126632,19.1067438 30.9261311,19.1133302 30.9383746,19.1190934 C30.9322528,19.1149768 30.9269473,19.1108603 30.9216418,19.1067438 C30.9249067,19.1075671 30.9281717,19.1083904 30.9314366,19.1096254 C30.9412314,19.1125069 30.9485776,19.1141535 30.9551074,19.1158001 C30.9587805,19.119505 30.9616373,19.1223866 30.9657185,19.1260915 C30.9693916,19.1297963 30.9726565,19.1339129 30.9767377,19.1376177 C30.988165,19.1429692 30.9987761,19.1483207 31.0093871,19.1532606 C31.0110196,19.1561421 31.0122439,19.1582004 31.0146926,19.1623169 C31.0146926,19.1627286 31.0151008,19.1627286 31.0151008,19.1631402 C31.022855,19.1672567 31.0293849,19.1701383 31.0359148,19.1730199 C31.0322417,19.1689034 31.0289768,19.1651985 31.0261199,19.1614936 C31.251401,19.2718166 31.1436579,19.229828 31.0379554,19.1754898 C31.0371391,19.1746665 31.036731,19.1738432 31.0359148,19.1730199 C31.0306092,19.1709616 31.0257118,19.1684917 31.0199982,19.1660218 C31.0183657,19.1651985 31.0171414,19.1643752 31.0155089,19.1635519 C31.0155089,19.1635519 31.0155089,19.1639635 31.015917,19.1639635 C31.0061222,19.1594353 30.9971436,19.1549072 30.988165,19.1499673 C31.0097952,19.1726082 31.0310174,19.1956608 31.0518314,19.2187133 C31.1248845,19.3290363 31.1987538,19.4377126 31.2656851,19.5529754 C31.4411758,19.8584218 31.5897307,20.1786877 31.7309395,20.5014235 C31.7346125,20.5096566 31.7386937,20.517478 31.7415505,20.5244761 C31.7452236,20.5347674 31.7497129,20.5454704 31.7550184,20.5586433 C31.7946058,20.656205 31.8337852,20.75459 31.8717401,20.852975 C31.9521393,21.0608597 32.0300898,21.270391 32.1043673,21.4803339 C32.2749605,21.9578512 32.4329021,22.4398966 32.5834976,22.9240003 C32.8944834,23.9230817 33.1752685,24.9316311 33.4409532,25.9438854 C33.6299118,26.6646894 33.8102999,27.3879634 33.9857905,28.1120607 C33.4132012,28.1696921 32.8406119,28.2174438 32.2676144,28.2557276 C30.056432,28.4043342 27.8476982,28.4080391 25.6332508,28.4080391 L21.1823176,28.4080391 C21.1766039,28.4080391 21.1712984,28.4088624 21.1659929,28.4092741 C17.9463512,28.4175071 14.7193634,28.4800783 11.5050273,28.3038909 C10.6687939,28.2577858 9.83337664,28.1960379 9.00000001,28.1120607 C9.11345677,27.6415416 9.22936223,27.1718457 9.34853264,26.7025615 C9.84929324,24.7319795 10.378214,22.7502828 11.1132342,20.852975 L11.1132342,20.852975 Z M11.9572219,19.1623169 C11.9539569,19.1651985 11.9511001,19.1684917 11.9482433,19.1721966 C11.8327459,19.2306513 11.6980671,19.2874594 11.9572219,19.1623169 L11.9572219,19.1623169 Z M13.8606835,18.7440777 C13.7962009,18.7527224 13.7525323,18.7588972 13.7300858,18.7617787 C13.7717138,18.7539573 13.8288503,18.7391378 13.8606835,18.7440777 L13.8606835,18.7440777 Z M30.9359259,19.0980991 C30.922458,19.0923359 30.9065414,19.0853378 30.8898086,19.0787514 C30.8620566,19.049524 30.873892,19.0421143 30.9359259,19.0980991 L30.9359259,19.0980991 Z M40.9539946,27.520104 C40.7629954,26.9240307 40.1757138,26.5613646 39.5614965,26.7223208 C39.2260236,26.8100029 38.9044268,27.023239 38.5897679,27.172669 C38.5428344,27.1911934 38.4950846,27.2105411 38.4473348,27.2282421 C38.2938825,27.2854619 38.1387977,27.3381534 37.9833048,27.3867285 C37.5531486,27.5205156 37.1156463,27.6267221 36.6744709,27.7176973 C36.5304053,27.747748 36.3855234,27.7757404 36.2406416,27.8024978 C36.1826889,27.5587993 36.124328,27.3151009 36.0643347,27.0714024 C35.6623386,25.4313776 35.2334068,23.795881 34.7265244,22.1854952 C34.3098361,20.8583265 33.8723338,19.4471807 33.1373135,18.258739 C32.84102,17.7791635 32.4782032,17.3242871 31.9586692,17.0892333 C31.9574449,17.0879984 31.9570367,17.0867634 31.9558124,17.0851168 C31.8892892,17.0093727 31.6954332,16.9694424 31.6089122,16.9352752 C31.4983123,16.8912283 31.3856718,16.8562379 31.2705825,16.8253639 C30.9522506,16.7393285 30.6257563,16.6808738 30.3004864,16.6273589 C27.9476871,16.2408169 25.5459136,16.0992083 23.1653622,16.0300507 C22.7494901,16.0177011 22.3340261,16.010703 21.9181541,16.0061748 C21.8801991,16.0020583 21.8422441,16 21.8034729,16 C21.6626723,16.0004117 21.5226879,16.0008233 21.3814791,16.0016466 C21.3149559,16.0016466 21.2484327,16.0004117 21.1823176,16 C21.1578305,16 21.1337516,16.0024699 21.1100807,16.0041165 C18.8193153,16.0255225 16.5216118,16.1453134 14.246763,16.4124761 C13.3966535,16.5125078 12.5212407,16.6030714 11.6927615,16.831127 C11.590324,16.8591194 11.4903351,16.89164 11.3903462,16.9295121 C11.3136201,16.9583277 11.1769006,17.0476564 11.0654844,17.0772954 C11.1075205,17.058771 11.1642489,17.0328369 11.2381183,16.999493 C11.1307833,17.0455981 11.0646682,17.058771 10.9283568,17.1295753 C10.7161355,17.2403099 10.5190146,17.3971496 10.3561756,17.5741604 C9.47627353,18.5320765 9.03060884,19.9061735 8.61187994,21.1123163 C8.06826697,22.6790669 7.62831594,24.2828663 7.21652504,25.8895472 C7.05368602,26.5255508 6.89696877,27.1636126 6.74392458,27.8024978 C6.73453787,27.8004395 6.72515115,27.7992046 6.71576444,27.797558 C5.91707783,27.6489513 5.13145098,27.4542395 4.37235179,27.163201 C4.3335806,27.1450883 4.29440129,27.1273872 4.25563009,27.1088628 C4.17155782,27.0681092 4.08870989,27.0252973 4.00586197,26.9820738 C3.81935212,26.884512 3.62753673,26.7758357 3.42388593,26.7223208 C2.85170472,26.5720676 2.16810733,26.9125044 2.03097973,27.520104 C1.89956579,28.1013578 2.19341064,28.7303633 2.77620291,28.9110788 C2.79579257,28.9205469 2.81538223,28.9300149 2.83456377,28.9403062 C2.99862714,29.02593 3.16350675,29.1082605 3.33287565,29.1827697 C4.1140132,29.5269114 4.92208653,29.7603186 5.75668752,29.9311545 C5.91381288,29.9632634 6.07134637,29.9937257 6.22887986,30.0229531 C6.22030938,30.0608251 6.21133079,30.0986972 6.20276032,30.1365693 C6.09542532,30.6149098 5.96646009,31.0940737 5.90116123,31.5802357 C5.71669197,32.9502162 5.59017544,34.3251366 5.52814152,35.7066435 C5.48855409,36.5945786 5.48243233,37.483337 5.45182349,38.3716838 C5.43182571,38.9591124 5.64894441,39.4333364 6.0811412,39.8174085 C6.77330906,40.4328294 7.68830926,40.7456856 8.56821133,40.9741529 C8.74451824,41.0198463 8.92123326,41.0626582 9.09876452,41.1025886 C9.09101029,42.3017332 9.07386934,43.5021128 9.10243759,44.6996108 C9.11223241,45.100149 9.19956963,45.4763997 9.38199831,45.8333027 C9.83949841,46.727001 10.7500093,46.9715227 11.6756206,46.9715227 C12.7767225,46.9715227 14.1275926,47.1896987 15.0393278,46.4182613 C15.8167923,45.7604401 15.6988463,44.6979642 15.6988463,43.7816251 L15.6988463,41.8538549 C17.0358403,41.9230126 18.3752831,41.9580031 19.7139096,41.9765275 C20.1889588,41.9831139 20.6644161,41.9864072 21.1398733,41.9880538 C21.1537493,41.9888771 21.1676254,41.9905237 21.1823176,41.9905237 C21.2941419,41.9905237 21.4063743,41.9897004 21.5190148,41.9892887 C21.6136982,41.9897004 21.7083815,41.9905237 21.8034729,41.9905237 C21.814084,41.9905237 21.8255113,41.9888771 21.8365305,41.9884654 C23.6538792,41.981879 25.4716361,41.9464768 27.2865362,41.8517967 L27.2865362,43.4300736 C27.2865362,44.2418529 27.1416543,45.229408 27.5652806,45.9572102 C28.2190854,47.0806107 29.48874,46.9715227 30.5902501,46.9715227 C31.5301455,46.9715227 32.5394209,47.0596164 33.2540352,46.3186414 C33.6633774,45.8938157 33.8613146,45.3170901 33.8829448,44.7333664 C33.9070238,44.0619606 33.8829448,43.3852034 33.8829448,42.7137977 L33.8829448,41.1021769 C34.7391761,40.9177564 35.6300973,40.6707648 36.3765449,40.2113602 C36.740586,39.9878327 37.0723858,39.7066739 37.3041967,39.3423611 C37.6784408,38.7541093 37.5213154,37.8855218 37.5058069,37.2108229 C37.4792793,36.0651931 37.4303051,34.9203866 37.3319487,33.7788734 C37.2482846,32.8032562 37.1580905,31.819406 36.945053,30.8631365 C36.8817947,30.5828009 36.8189446,30.3020537 36.7560944,30.0217181 C36.7765003,30.0180133 36.7973144,30.0143084 36.8181284,30.0106035 C37.6339559,29.8607619 38.4530484,29.6738715 39.2252074,29.3630736 C39.5223172,29.2436943 39.8157539,29.1152586 40.0993958,28.9670636 C40.1344939,28.9485392 40.1700002,28.9304265 40.2050983,28.9119021 C40.7556493,28.7402429 41.1360151,28.0869499 40.9539946,27.520104 L40.9539946,27.520104 Z" id="Fill-59"></path>
            <path d="M28,35.5 C28,36.3284546 29.1192424,37 30.5,37 C31.8807576,37 33,36.3284546 33,35.5 C33,34.6715454 31.8807576,34 30.5,34 C29.1192424,34 28,34.6715454 28,35.5" id="Fill-61"></path>
        </g>
    </g>
</svg>