<svg width="108" height="83" xmlns="http://www.w3.org/2000/svg" xmlns:xlink="http://www.w3.org/1999/xlink"><defs><path id="a" d="M0 .334h20.578V42H0z"/><path id="c" d="M.308.438h38.368V23.86H.308z"/></defs><g fill="none" fill-rule="evenodd"><circle fill="#CD171A" fill-rule="nonzero" cx="66.5" cy="41.5" r="41.5"/><circle fill="#CD171A" fill-rule="nonzero" cx="20.5" cy="20.5" r="20.5"/><text fill="#FFF" font-family="TisaSansOT, Tisa Sans OT" font-size="25"><tspan x="11.25" y="26">2</tspan></text><g transform="translate(35.5 19)"><mask id="b" fill="#fff"><use xlink:href="#a"/></mask><path d="M4.05 2.172c-1.154 0-2.093.915-2.093 2.04 0 .144-.002.287-.003.426-.017 1.253.063 1.406.409 1.515a.921.921 0 0 1 .652.886.922.922 0 0 1-.674.87c-.377.109-.464.27-.454 1.604l.003.35-.004.397c-.014 1.287.069 1.443.427 1.552.394.12.663.475.663.878a.922.922 0 0 1-.663.877c-.358.109-.44.265-.427 1.552l.004.397-.004.396c-.014 1.287.069 1.443.427 1.552.394.12.663.475.663.877a.922.922 0 0 1-.663.878c-.358.108-.44.265-.427 1.551l.004.397-.004.397c-.014 1.286.069 1.443.428 1.552.394.12.662.475.662.877a.922.922 0 0 1-.663.877c-.358.11-.44.265-.427 1.552l.004.396-.004.397c-.014 1.287.069 1.443.427 1.552.394.12.663.475.663.877a.922.922 0 0 1-.663.878c-.358.109-.44.265-.427 1.552l.004.397-.004.396c-.014 1.287.069 1.443.427 1.552.394.12.663.475.663.878a.923.923 0 0 1-.663.877c-.358.11-.44.265-.427 1.552l.004.397c0 1.124.938 2.04 2.092 2.04H16.53c1.154 0 2.092-.916 2.092-2.04l.003-.396c.015-1.288-.068-1.444-.427-1.553a.923.923 0 0 1-.662-.877c0-.403.268-.758.662-.878.36-.109.442-.265.427-1.553l-.003-.395.003-.396c.015-1.288-.068-1.444-.427-1.553a.922.922 0 0 1-.662-.878c0-.402.268-.757.662-.877.36-.109.442-.265.427-1.553l-.003-.396.003-.395c.015-1.287-.068-1.444-.427-1.553a.922.922 0 0 1-.662-.877c0-.402.268-.757.661-.877.36-.11.443-.266.428-1.553l-.003-.396.003-.396c.015-1.287-.068-1.443-.427-1.552a.922.922 0 0 1-.662-.878c0-.402.268-.757.662-.877.36-.11.442-.266.427-1.553l-.003-.395.003-.396c.015-1.288-.068-1.444-.427-1.553a.922.922 0 0 1-.662-.877c0-.403.268-.758.662-.878.36-.109.442-.265.427-1.553l-.003-.395c0-.145.002-.288.004-.427.017-1.253-.062-1.406-.409-1.515a.921.921 0 0 1-.652-.885.921.921 0 0 1 .674-.87c.377-.11.465-.27.453-1.605l-.002-.35c0-1.125-.938-2.04-2.092-2.04H4.05zM16.53 42H3.982C1.789 42 .005 40.26.005 38.123l-.003-.377c-.008-.77-.02-1.729.477-2.45-.496-.72-.485-1.678-.477-2.449l.003-.376-.003-.377c-.008-.771-.02-1.729.477-2.45-.496-.72-.485-1.678-.477-2.45l.003-.376-.003-.376c-.008-.77-.02-1.728.477-2.45-.497-.72-.485-1.678-.477-2.448l.003-.377-.003-.377c-.008-.77-.02-1.728.477-2.449-.496-.72-.485-1.678-.477-2.45l.003-.375-.003-.377c-.008-.771-.02-1.73.477-2.45-.496-.72-.485-1.678-.477-2.449l.003-.376-.002-.335c-.006-.799-.015-1.794.513-2.527C.046 6.29.06 5.363.07 4.614c.002-.131.004-.266.004-.402C.073 2.074 1.857.334 4.05.334h12.548c2.193 0 3.977 1.74 3.977 3.878l.002.334c.006.8.015 1.794-.514 2.528.47.71.458 1.638.448 2.387a24.47 24.47 0 0 0-.004.403l.003.375c.009.771.019 1.73-.478 2.45.497.721.487 1.68.478 2.45l-.003.377.003.375c.009.771.019 1.73-.478 2.45.497.721.487 1.68.478 2.45l-.003.376.003.375c.009.771.019 1.73-.478 2.45.497.722.487 1.68.478 2.451l-.003.375.003.376c.009.772.019 1.73-.478 2.45.497.721.487 1.68.478 2.451l-.003.376.003.375c.009.771.019 1.73-.478 2.45.497.721.487 1.68.478 2.451l-.003.376c0 2.138-1.784 3.877-3.977 3.877z" fill="#FEFEFE" fill-rule="nonzero" mask="url(#b)"/></g><g transform="translate(58.5 38)"><mask id="d" fill="#fff"><use xlink:href="#c"/></mask><path d="M7.982 16.305c1.705 0 3.07 1.343 3.07 3.022 0 1.678-1.365 3.022-3.07 3.022-1.706 0-3.07-1.344-3.07-3.022 0-1.68 1.364-3.022 3.07-3.022zm23.02 0c1.706 0 3.07 1.343 3.07 3.022 0 1.678-1.364 3.022-3.07 3.022-1.705 0-3.07-1.344-3.07-3.022 0-1.68 1.365-3.022 3.07-3.022zm6.14-6.8v8.546a.51.51 0 0 1-.529.52h-1.079c-.366-2.143-2.257-3.778-4.532-3.778s-4.166 1.635-4.532 3.778H12.514c-.366-2.143-2.257-3.778-4.532-3.778s-4.166 1.635-4.532 3.778h-.84a.76.76 0 0 1-.767-.755V12.81c0-1.113.803-2.037 1.918-2.22l6.642-1.085h26.738zM23.328 7.993h-11.39l4.483-5.241a2.294 2.294 0 0 1 1.75-.803h5.157v6.044zM32.08 1.95c.873 0 1.67.484 2.063 1.251l2.445 4.793H24.864V1.95h7.217zM18.172.438a3.841 3.841 0 0 0-2.924 1.346L9.9 8.04 3.521 9.104C1.678 9.407.308 10.968.308 12.81v5.006c0 1.242 1.04 2.266 2.302 2.266h.84c.366 2.143 2.257 3.778 4.532 3.778s4.166-1.635 4.532-3.778H26.47c.366 2.143 2.257 3.778 4.532 3.778s4.166-1.635 4.532-3.778h1.08c1.133 0 2.062-.915 2.062-2.03V9.598c0-.673-.207-1.334-.552-1.912h.024l-.048-.071-2.59-5.1A3.846 3.846 0 0 0 32.082.438h-13.91z" fill="#FEFEFE" fill-rule="nonzero" mask="url(#d)"/></g><path d="M58.78 36c-.12 0-.24-.001-.36-.004a.931.931 0 0 1-.92-.945.915.915 0 0 1 .968-.897c3.144.076 6.168-1.048 8.461-3.174 2.294-2.126 3.602-4.996 3.684-8.082a.921.921 0 0 1 .967-.897.932.932 0 0 1 .92.944c-.094 3.578-1.61 6.905-4.27 9.37C65.658 34.7 62.315 36 58.78 36" fill="#FEFEFE" fill-rule="nonzero"/><path d="M58.697 32l-.258-.003c-.532-.013-.952-.432-.939-.937.014-.505.465-.91.989-.89a8.037 8.037 0 0 0 5.632-2.053c1.527-1.375 2.398-3.231 2.452-5.227.012-.505.457-.908.988-.89.532.014.952.433.939.937-.067 2.484-1.15 4.794-3.05 6.505C63.611 31.097 61.221 32 58.696 32m-.172-5c-.044 0-.086 0-.13-.002-.507-.013-.907-.449-.894-.973.013-.525.425-.951.94-.926a3.07 3.07 0 0 0 2.248-.895c.61-.599.957-1.408.978-2.278.013-.525.446-.943.94-.925.507.013.907.449.894.974a5.205 5.205 0 0 1-1.549 3.607A4.858 4.858 0 0 1 58.524 27" fill="#FEFEFE" fill-rule="nonzero"/></g></svg>