<svg width="54" height="63" xmlns="http://www.w3.org/2000/svg" xmlns:xlink="http://www.w3.org/1999/xlink"><defs><path id="a" d="M0 .182h53.876V63H0z"/></defs><g fill="none" fill-rule="evenodd"><mask id="b" fill="#fff"><use xlink:href="#a"/></mask><path d="M53.696 52.455L44.43 36.327c.938-.435 1.502-1.427 1.44-2.543l-.689-5.708 3.945-4.093c.875-.869.938-2.357.061-3.412l-3.943-4.218.813-5.769c.125-1.24-.751-2.481-2.003-2.73l-5.698-1.116-2.754-5.025C35.039.535 33.66.04 32.409.535h-.063l-5.259 2.42L21.953.472a2.465 2.465 0 0 0-1.878-.186 2.46 2.46 0 0 0-1.44 1.179L15.817 6.49l-5.697.992c-1.315.249-2.192 1.427-2.066 2.792l.689 5.707-3.945 4.094c-.877.869-.94 2.357-.063 3.411l3.945 4.218-.814 5.769c-.126 1.117.564 2.172 1.628 2.606L.165 52.455c-.25.372-.188.868 0 1.24.25.373.626.621 1.065.621h10.017l4.57 7.877c.25.373.626.621 1.065.621.438 0 .877-.248 1.064-.62l8.953-15.136 8.953 15.321c.25.373.626.62 1.064.62.44 0 .877-.247 1.065-.62l4.57-8.063H52.57c.438 0 .876-.248 1.064-.62a1.02 1.02 0 0 0 .063-1.241zm-36.752 6.637l-3.881-6.637c-.25-.373-.627-.62-1.065-.62h-8.64l8.64-15.136 3.568.62 2.756 5.025c.563 1.178 1.94 1.675 3.193 1.178h.063l2.566-1.178 1.253 2.17-8.453 14.578zm3.632-17.803h-.063l-2.754-5.148c-.376-.62-1.002-1.117-1.754-1.179l-5.76-1.054.814-5.707c.125-.745-.125-1.551-.626-2.047l-3.882-4.219 3.945-4.093c.563-.559.814-1.303.688-2.048l-.688-5.644s0-.062.062-.124l5.698-.993c.688-.124 1.377-.558 1.752-1.24l2.818-5.025L25.96 5.25a2.416 2.416 0 0 0 2.254 0l5.197-2.358h.062l2.755 5.149c.376.62 1.002 1.116 1.69 1.179l5.698 1.116-.814 5.707c-.125.744.124 1.55.626 2.047l3.944 4.218-4.007 4.094c-.563.558-.814 1.302-.688 2.047l.688 5.707-5.635.93c-.688.124-1.377.559-1.753 1.241l-2.817 5.024-5.134-2.481a2.418 2.418 0 0 0-2.254 0l-5.196 2.419zm21.287 10.546c-.439 0-.877.247-1.065.62l-3.882 6.823-8.828-15.135a.989.989 0 0 0-.25-.435l-1.377-2.419.438-.185 5.134 2.48c.376.186.75.248 1.127.248.877 0 1.753-.434 2.191-1.24l2.818-5.025 3.756-.682 8.578 14.95h-8.64z" fill="#CD171A" mask="url(#b)"/><path d="M39 21.5C39 14.625 33.375 9 26.5 9S14 14.625 14 21.5 19.625 34 26.5 34 39 28.375 39 21.5zm-12.5 10c-5.5 0-10-4.5-10-10s4.5-10 10-10 10 4.5 10 10-4.5 10-10 10z" fill="#CD171A"/></g></svg>