<svg width="66" height="62" xmlns="http://www.w3.org/2000/svg" xmlns:xlink="http://www.w3.org/1999/xlink"><defs><path id="a" d="M0 .001h66v31.982H0z"/></defs><g fill="none" fill-rule="evenodd"><g transform="translate(0 30)"><mask id="b" fill="#fff"><use xlink:href="#a"/></mask><path d="M3.738 30.981a1.19 1.19 0 0 0 1.374.984l9.69-1.73a1.21 1.21 0 0 0 .965-1.4l-.19-1.104 2.261-1.874a4.38 4.38 0 0 1 3.173-1.035l15.805 1.179.078.003h.098a16.284 16.284 0 0 0 9.699-3.24c.045-.034.088-.07.129-.111L65.644 3.848a1.229 1.229 0 0 0 .065-1.659 6.125 6.125 0 0 0-8.536-.83l-8.647 6.595c-1.798-2.232-4.633-3.305-7.422-2.81l-8.838 1.578a9.339 9.339 0 0 1-4.229-.225l-.988-.288c-5.08-1.488-10.551-.33-14.63 3.098l-.372-2.17a1.19 1.19 0 0 0-1.374-.985l-9.69 1.73a1.209 1.209 0 0 0-.965 1.402l3.72 21.697zM26.4 8.54l.988.287c1.72.497 3.526.593 5.287.281l8.838-1.577c2.532-.449 5.03.954 6.014 3.377l-13.23 2.36a1.206 1.206 0 0 0-.98 1.298 1.196 1.196 0 0 0 1.388 1.089l14.528-2.593a1.21 1.21 0 0 0 .964-1.401 8.104 8.104 0 0 0-.45-1.612l8.859-6.76.024-.019a3.781 3.781 0 0 1 4.438-.238L45.22 20.867a13.93 13.93 0 0 1-8.228 2.726h-.045l-15.764-1.18a6.706 6.706 0 0 0-4.85 1.575L15.108 25l-2.206-12.87c3.519-3.622 8.692-4.998 13.497-3.59zm-16.487.207l3.312 19.312-7.353 1.312L2.56 10.06l7.352-1.313z" fill="#CD171A" mask="url(#b)"/></g><path d="M36 33c8.837 0 16-7.387 16-16.5C52 7.388 44.837 0 36 0c-8.836 0-16 7.387-16 16.5.01 9.109 7.167 16.49 16 16.5zm0-30.57c7.535 0 13.643 6.3 13.643 14.07 0 7.771-6.108 14.07-13.643 14.07-7.535 0-13.644-6.3-13.644-14.07C22.366 8.733 28.468 2.439 36 2.43z" fill="#CD171A"/><path d="M35.236 20h6.587c.65 0 1.177-.572 1.177-1.278 0-.705-.527-1.277-1.177-1.277h-5.469V9.277c0-.706-.527-1.277-1.177-1.277S34 8.571 34 9.277v9.382c.024.73.563 1.316 1.236 1.341z" fill="#CD171A"/></g></svg>