<svg width="50" height="61" xmlns="http://www.w3.org/2000/svg" xmlns:xlink="http://www.w3.org/1999/xlink"><defs><path id="a" d="M.007.005H50v60.87H.007z"/></defs><g fill="none" fill-rule="evenodd"><mask id="b" fill="#fff"><use xlink:href="#a"/></mask><path d="M45.093 0H19.386c-2.672 0-4.906 2.25-4.906 4.966v13.397H4.021C1.838 18.363 0 20.194 0 22.413v16.048c0 2.219 1.838 4.05 4.021 4.05h10.46V55.91c0 2.715 2.233 4.965 4.905 4.965h25.707c2.672 0 4.907-2.25 4.907-4.965V4.966C50 2.25 47.765 0 45.093 0zM19.386 2.012h25.707c1.58 0 2.927 1.348 2.927 2.954V9.81H16.46V4.966c0-1.606 1.345-2.954 2.926-2.954zM4.02 20.375h26.92v3.145H1.98v-1.106c0-1.11.949-2.039 2.04-2.039zm-2.04 7.798h28.96v-2.641H1.98v2.641zm0 10.288v-8.275h28.96v10.313H4.02c-1.091 0-2.04-.93-2.04-2.038zm28.96 4.05v.226a.998.998 0 0 0 .99 1.006c.546 0 .99-.45.99-1.006v-24.6a.998.998 0 0 0-.99-1.006c-.547 0-.99.45-.99 1.006v.226H16.46v-6.54h31.56v35.216H16.46v-4.528h14.48zm14.152 16.35H19.386c-1.58 0-2.926-1.347-2.926-2.952v-6.857h31.56v6.857c0 1.605-1.347 2.953-2.927 2.953z" fill="#CD171A" mask="url(#b)"/><path d="M27.958 7h8.084c.529 0 .958-.448.958-1s-.429-1-.958-1h-8.084C27.429 5 27 5.448 27 6s.429 1 .958 1zM32.5 50a3.5 3.5 0 1 0 0 7 3.5 3.5 0 0 0 0-7zm0 5.054a1.554 1.554 0 1 1 0-3.108 1.554 1.554 0 0 1 0 3.108zM9.028 33c-.539 0-1.066.147-1.527.427a2.953 2.953 0 0 0-3.795.632 3.021 3.021 0 0 0 0 3.882 2.953 2.953 0 0 0 3.795.631 2.95 2.95 0 0 0 3.413-.254 3.017 3.017 0 0 0 .912-3.33A2.973 2.973 0 0 0 9.028 33zm-4.072 3a1.025 1.025 0 0 1 .392-.812c.248-.195.572-.262.876-.183a3.019 3.019 0 0 0 0 1.99c-.304.08-.628.012-.876-.183A1.026 1.026 0 0 1 4.956 36zm4.072 1.028a1.045 1.045 0 0 1-.25-.033 3.019 3.019 0 0 0 0-1.99c.381-.098.785.035 1.036.342.25.307.303.732.135 1.092-.169.36-.527.589-.921.588z" fill="#CD171A"/></g></svg>