<svg width="108" height="84" xmlns="http://www.w3.org/2000/svg" xmlns:xlink="http://www.w3.org/1999/xlink"><defs><path id="a" d="M0 0h37.897v61.454H0z"/><path id="c" d="M0 0h37.897v61.454H0z"/></defs><g fill="none" fill-rule="evenodd"><circle fill="#CD171A" fill-rule="nonzero" cx="66.5" cy="41.954" r="41.5"/><circle fill="#CD171A" fill-rule="nonzero" cx="20.5" cy="20.954" r="20.5"/><g transform="translate(47 10)"><mask id="b" fill="#fff"><use xlink:href="#a"/></mask><path d="M18.818 58.802c.042 0 .246 0 .283-.008-.001-.011.034-.073.068-.205v-.001c4.013-15.329 8.536-23.546 11.838-29.546 2.481-4.505 4.12-7.482 4.12-11.082 0-7.364-6.185-15.314-16.178-15.314-9.992 0-16.178 7.95-16.178 15.314 0 3.6 1.639 6.577 4.12 11.082 3.302 6 7.825 14.217 11.837 29.546.034.127.068.19.083.214h.007m.131 2.652c-1.477 0-2.537-.81-2.908-2.224-3.932-15.02-8.366-23.075-11.604-28.956C1.861 25.594 0 22.214 0 17.96c0-5.11 2.185-9.788 6.152-13.175C9.713 1.745 14.377 0 18.949 0c4.572 0 9.237 1.744 12.798 4.785 3.967 3.387 6.15 8.066 6.15 13.175 0 4.253-1.86 7.635-4.436 12.314-3.238 5.881-7.672 13.936-11.603 28.956-.37 1.414-1.43 2.224-2.909 2.224" fill="#FEFEFE" fill-rule="nonzero" mask="url(#b)"/></g><g transform="translate(47 10)"><mask id="d" fill="#fff"><use xlink:href="#c"/></mask><path d="M19 10.057c-5.05 0-9.16 3.767-9.16 8.397 0 4.63 4.11 8.397 9.16 8.397 5.052 0 9.16-3.767 9.16-8.397 0-4.63-4.108-8.397-9.16-8.397m0 19.397c-6.616 0-12-4.935-12-11s5.384-11 12-11c6.617 0 12 4.935 12 11s-5.383 11-12 11" fill="#FEFEFE" fill-rule="nonzero" mask="url(#d)"/></g><text fill="#FFF" font-family="TisaSansOT, Tisa Sans OT" font-size="25"><tspan x="11.25" y="26.454">2</tspan></text></g></svg>