<svg width="262" height="49" xmlns="http://www.w3.org/2000/svg"><g fill="#1D1D1B" fill-rule="evenodd"><path d="M65.426 39.517c.382.416.574.9.574 1.447 0 .595-.192 1.084-.574 1.464-.383.382-.86.572-1.428.572H53.002a1.86 1.86 0 0 1-1.428-.626C51.19 41.959 51 41.44 51 40.82V20.18c0-.62.19-1.138.574-1.555A1.859 1.859 0 0 1 53.002 18h10.996c.569 0 1.045.196 1.428.59.382.391.574.898.574 1.517 0 .594-.186 1.077-.558 1.445-.373.371-.853.555-1.444.555h-8.895v6.07h7.418c.569 0 1.045.197 1.428.59.382.393.574.9.574 1.519 0 .594-.186 1.076-.558 1.445-.373.37-.853.554-1.444.554h-7.418v6.608h8.895c.569 0 1.045.208 1.428.624m15.204-3.625c.94-1.027 1.412-2.318 1.412-3.875s-.471-2.855-1.411-3.893c-.94-1.038-2.157-1.557-3.648-1.557-1.47 0-2.673.519-3.613 1.557-.942 1.038-1.412 2.336-1.412 3.893s.465 2.848 1.393 3.875c.93 1.027 2.14 1.541 3.632 1.541 1.49 0 2.707-.514 3.648-1.541m4.784-12.341c.39.367.585.843.585 1.427v13.72c0 .562-.195 1.033-.585 1.41-.39.378-.884.568-1.48.568-.597 0-1.084-.184-1.463-.552-.38-.367-.579-.83-.601-1.394-.575.627-1.349 1.162-2.325 1.606a7.365 7.365 0 0 1-3.08.664c-1.583 0-3.017-.383-4.302-1.151-1.285-.767-2.3-1.832-3.045-3.194C68.372 35.292 68 33.746 68 32.017c0-1.73.367-3.282 1.102-4.655.733-1.373 1.736-2.443 3.01-3.21C73.386 23.382 74.793 23 76.33 23c1.1 0 2.134.19 3.097.567.964.379 1.779.86 2.445 1.444v-.033c0-.562.193-1.032.584-1.41.39-.378.883-.568 1.48-.568.596 0 1.09.184 1.48.551M89 37.011c0-.562.286-1.037.863-1.427a1.78 1.78 0 0 1 .962-.292c.464 0 .906.206 1.326.616.665.67 1.356 1.167 2.074 1.493.719.324 1.586.486 2.604.486 1.726-.066 2.589-.703 2.589-1.913 0-.628-.294-1.104-.879-1.428-.587-.324-1.5-.648-2.737-.972-1.284-.347-2.33-.693-3.136-1.038a5.525 5.525 0 0 1-2.09-1.574c-.586-.703-.88-1.649-.88-2.838 0-1.038.304-1.94.913-2.708.608-.767 1.404-1.362 2.388-1.784A7.882 7.882 0 0 1 96.133 23c1.127 0 2.256.206 3.384.616 1.127.41 2.013 1.017 2.654 1.817.288.345.432.735.432 1.166 0 .5-.21.909-.63 1.233a1.69 1.69 0 0 1-1.063.357c-.486 0-.885-.151-1.193-.453-.4-.476-.913-.854-1.544-1.137-.63-.28-1.344-.421-2.14-.421-1.68 0-2.522.595-2.522 1.785 0 .474.156.859.466 1.15.309.293.701.52 1.178.681a35.49 35.49 0 0 0 2.007.6c1.194.325 2.189.66 2.986 1.006a5.11 5.11 0 0 1 2.023 1.59c.553.713.829 1.654.829 2.82 0 1.061-.32 1.985-.962 2.774-.642.79-1.465 1.39-2.471 1.8a8.14 8.14 0 0 1-3.102.616c-1.46 0-2.821-.237-4.08-.714a6.76 6.76 0 0 1-3.086-2.302c-.2-.26-.299-.583-.299-.973m30.442-12.415c.372.397.558.89.558 1.48v14.456c0 2.947-.766 5.096-2.298 6.445-1.532 1.349-3.578 2.023-6.138 2.023-.745 0-1.504-.062-2.282-.187-.776-.124-1.406-.288-1.887-.492-1.072-.476-1.608-1.134-1.608-1.973 0-.16.034-.34.098-.544.131-.5.356-.88.674-1.14.317-.26.662-.391 1.033-.391.22 0 .427.033.624.102.153.068.422.181.805.34.382.159.787.29 1.213.392.427.1.871.152 1.33.152 1.554 0 2.698-.346 3.431-1.037.732-.693 1.1-1.877 1.1-3.555v-.34c-1.139 1.476-2.912 2.21-5.32 2.21-1.137 0-2.144-.277-3.018-.833-.876-.554-1.555-1.326-2.036-2.312-.482-.987-.721-2.114-.721-3.385v-9.932c0-.59.185-1.082.557-1.479.372-.397.842-.596 1.411-.596.57 0 1.04.2 1.412.596.372.397.558.89.558 1.48v8.707c0 1.428.3 2.455.903 3.078.602.624 1.483.936 2.642.936 1.138 0 2.019-.345 2.643-1.038.623-.692.936-1.684.936-2.976v-8.708c0-.59.185-1.082.557-1.479.372-.397.842-.596 1.412-.596s1.038.2 1.411.596m23.526-3.449c0 .489-.162.967-.485 1.434-.345.489-.787.733-1.325.733-.366 0-.732-.105-1.1-.313a7.447 7.447 0 0 0-3.425-.804c-1.508 0-2.822.343-3.942 1.03-1.12.688-1.982 1.655-2.585 2.903-.604 1.247-.905 2.674-.905 4.283 0 2.75.683 4.837 2.052 6.259 1.368 1.422 3.16 2.133 5.38 2.133 1.314 0 2.457-.269 3.426-.806.388-.186.733-.279 1.034-.279.56 0 1.034.257 1.422.77.323.442.485.92.485 1.432 0 .374-.086.712-.259 1.015a1.73 1.73 0 0 1-.743.7A11.11 11.11 0 0 1 136.633 43c-2.11 0-4.05-.484-5.816-1.451-1.767-.967-3.178-2.395-4.234-4.283-1.055-1.888-1.583-4.173-1.583-6.853 0-2.377.501-4.51 1.503-6.399 1.001-1.888 2.385-3.363 4.153-4.423 1.766-1.06 3.758-1.591 5.977-1.591 1.918 0 3.696.455 5.333 1.364.667.373 1.002.967 1.002 1.783m14.663 14.745c.94-1.027 1.411-2.318 1.411-3.875s-.47-2.855-1.411-3.893c-.942-1.038-2.157-1.557-3.648-1.557-1.469 0-2.673.519-3.614 1.557-.942 1.038-1.411 2.336-1.411 3.893s.464 2.848 1.394 3.875c.929 1.027 2.139 1.541 3.631 1.541 1.49 0 2.706-.514 3.648-1.541m4.783-12.341c.39.367.586.843.586 1.427v13.72c0 .562-.196 1.033-.586 1.41-.39.378-.883.568-1.48.568s-1.084-.184-1.462-.552c-.379-.367-.58-.83-.602-1.394-.575.627-1.35 1.162-2.323 1.606a7.372 7.372 0 0 1-3.08.664c-1.583 0-3.018-.383-4.302-1.151-1.286-.767-2.301-1.832-3.045-3.194-.747-1.363-1.12-2.909-1.12-4.638 0-1.73.367-3.282 1.101-4.655.734-1.373 1.739-2.443 3.013-3.21 1.272-.769 2.677-1.152 4.215-1.152a8.42 8.42 0 0 1 3.097.567c.963.379 1.778.86 2.444 1.444v-.033c0-.562.194-1.032.584-1.41.39-.378.883-.568 1.48-.568s1.09.184 1.48.551m14.88.01c.47.374.706.816.706 1.322 0 .683-.184 1.195-.55 1.535a1.856 1.856 0 0 1-1.307.512c-.343 0-.734-.076-1.17-.23a13.954 13.954 0 0 0-.463-.133 2.92 2.92 0 0 0-.774-.099c-.596 0-1.17.176-1.72.527-.55.353-1.002.888-1.357 1.604-.356.715-.534 1.567-.534 2.559v7.827c0 .572-.194 1.052-.583 1.436-.39.386-.883.579-1.48.579-.596 0-1.088-.193-1.477-.579-.39-.384-.585-.864-.585-1.436v-13.64c0-.572.195-1.05.585-1.436.389-.386.881-.579 1.477-.579.597 0 1.09.193 1.48.579.389.385.583.864.583 1.436v.429c.527-.902 1.285-1.59 2.27-2.063A7.213 7.213 0 0 1 175.56 23c.687 0 1.266.187 1.735.561m32.03-4.904c.45.439.675.99.675 1.654 0 .214-.033.45-.1.711l-6.486 20.626a1.856 1.856 0 0 1-.692.961c-.33.237-.69.368-1.086.391-.395 0-.768-.12-1.12-.356-.35-.236-.625-.58-.823-1.031l-4.677-11.487-4.708 11.487c-.198.45-.473.795-.824 1.031a1.973 1.973 0 0 1-1.12.356 2.036 2.036 0 0 1-1.086-.39 1.871 1.871 0 0 1-.692-.962l-6.487-20.626a2.903 2.903 0 0 1-.099-.71c0-.665.226-1.216.675-1.655.45-.438.95-.657 1.5-.657.437 0 .832.124 1.184.373.35.248.593.587.725 1.014l4.906 16.074 4.282-11.095c.175-.428.428-.765.756-1.014.33-.249.703-.362 1.121-.338.417-.024.785.09 1.103.338.318.249.565.586.74 1.014l4.052 10.988 4.874-15.967a1.85 1.85 0 0 1 .74-1.014A2.073 2.073 0 0 1 207.86 18c.526 0 1.015.219 1.465.657m12.305 17.235c.94-1.027 1.412-2.318 1.412-3.875s-.471-2.855-1.411-3.893c-.941-1.038-2.157-1.557-3.648-1.557-1.47 0-2.673.519-3.614 1.557-.941 1.038-1.412 2.336-1.412 3.893s.465 2.848 1.394 3.875c.93 1.027 2.14 1.541 3.632 1.541 1.49 0 2.707-.514 3.648-1.541m4.784-12.341c.39.367.585.843.585 1.427v13.72c0 .562-.195 1.033-.585 1.41-.39.378-.884.568-1.48.568-.597 0-1.084-.184-1.463-.552-.38-.367-.579-.83-.603-1.394-.573.627-1.347 1.162-2.323 1.606a7.365 7.365 0 0 1-3.08.664c-1.583 0-3.017-.383-4.302-1.151-1.285-.767-2.3-1.832-3.045-3.194-.747-1.363-1.119-2.909-1.119-4.638 0-1.73.367-3.282 1.102-4.655.733-1.373 1.736-2.443 3.01-3.21 1.273-.769 2.68-1.152 4.216-1.152 1.102 0 2.135.19 3.098.567.964.379 1.777.86 2.443 1.444v-.033c0-.562.195-1.032.586-1.41.39-.378.883-.568 1.48-.568.596 0 1.09.184 1.48.551M230 37.011c0-.562.288-1.037.862-1.427.31-.195.63-.292.962-.292.466 0 .907.206 1.328.616.663.67 1.354 1.167 2.073 1.493.718.324 1.586.486 2.605.486 1.724-.066 2.586-.703 2.586-1.913 0-.628-.293-1.104-.878-1.428-.586-.324-1.5-.648-2.737-.972-1.284-.347-2.329-.693-3.134-1.038a5.519 5.519 0 0 1-2.091-1.574c-.586-.703-.88-1.649-.88-2.838 0-1.038.303-1.94.913-2.708.607-.767 1.404-1.362 2.39-1.784a7.874 7.874 0 0 1 3.133-.632c1.129 0 2.256.206 3.384.616 1.127.41 2.013 1.017 2.654 1.817.288.345.432.735.432 1.166 0 .5-.211.909-.63 1.233a1.69 1.69 0 0 1-1.063.357c-.486 0-.885-.151-1.193-.453-.4-.476-.913-.854-1.544-1.137-.63-.28-1.342-.421-2.14-.421-1.68 0-2.521.595-2.521 1.785 0 .474.155.859.466 1.15.308.293.7.52 1.177.681.475.163 1.145.364 2.007.6 1.194.325 2.189.66 2.986 1.006a5.11 5.11 0 0 1 2.023 1.59c.552.713.83 1.654.83 2.82 0 1.061-.321 1.985-.962 2.774-.642.79-1.466 1.39-2.472 1.8a8.139 8.139 0 0 1-3.102.616c-1.459 0-2.82-.237-4.08-.714a6.763 6.763 0 0 1-3.086-2.302c-.199-.26-.298-.583-.298-.973m30.75-11.379c.834 1.362 1.25 3.248 1.25 5.658v8.649c0 .585-.187 1.076-.56 1.469-.373.394-.844.592-1.413.592-.571 0-1.042-.198-1.415-.592-.373-.393-.559-.884-.559-1.469V31.29c0-1.239-.236-2.212-.707-2.922-.472-.71-1.3-1.064-2.485-1.064-1.227 0-2.186.377-2.877 1.132-.69.755-1.037 1.705-1.037 2.854v8.649c0 .585-.186 1.076-.559 1.469-.372.394-.844.592-1.414.592-.571 0-1.043-.198-1.415-.592-.372-.393-.559-.884-.559-1.469V19.061c0-.586.187-1.075.56-1.47.371-.393.843-.591 1.414-.591.57 0 1.042.198 1.414.59.373.396.56.885.56 1.47v7.467a8.118 8.118 0 0 1 2.253-2.078c.909-.575 1.924-.861 3.043-.861 2.17 0 3.672.682 4.506 2.044M5.522 12h-.044C4.662 12 4 11.469 4 10.813V1.187C4 .532 4.662 0 5.478 0h.044C6.34 0 7 .532 7 1.187v9.626C7 11.47 6.339 12 5.522 12m5 0h-.044C9.662 12 9 11.469 9 10.813V1.187C9 .532 9.662 0 10.478 0h.044C11.34 0 12 .532 12 1.187v9.626C12 11.47 11.339 12 10.522 12m5 0h-.044C14.66 12 14 11.469 14 10.813V1.187C14 .532 14.661 0 15.478 0h.044C16.338 0 17 .532 17 1.187v9.626C17 11.47 16.338 12 15.522 12m6 0h-.044C20.662 12 20 11.469 20 10.813V1.187C20 .532 20.662 0 21.478 0h.044C22.338 0 23 .532 23 1.187v9.626C23 11.47 22.338 12 21.522 12m4 0h-.044C24.66 12 24 11.469 24 10.813V1.187C24 .532 24.661 0 25.478 0h.044C26.338 0 27 .532 27 1.187v9.626C27 11.47 26.338 12 25.522 12m6 0h-.044C30.662 12 30 11.469 30 10.813V1.187C30 .532 30.662 0 31.478 0h.044C32.338 0 33 .532 33 1.187v9.626C33 11.47 32.338 12 31.522 12m5 0h-.044C35.66 12 35 11.469 35 10.813V1.187C35 .532 35.661 0 36.478 0h.044C37.34 0 38 .532 38 1.187v9.626C38 11.47 37.339 12 36.522 12M2.401 5C1.081 5 0 5.675 0 6.5S1.08 8 2.401 8H3V5h-.599zm37.198 3C40.919 8 42 7.325 42 6.5S40.919 5 39.599 5H39v3h.599zM11.03 20.914a.078.078 0 0 0-.005.01c-.009.025-.02.05-.03.074-.03.084-.046.178.035-.084m-4.1 19.059c.106.045.253.096 0 0M11.5 34c-1.38 0-2.5.672-2.5 1.5s1.12 1.5 2.5 1.5 2.5-.672 2.5-1.5-1.12-1.5-2.5-1.5m23.409 6.046a3.051 3.051 0 0 1 .132-.061c.072-.04.094-.062-.132.061m-4.901-20.041l-.016-.01.016.01m-.004-.003l-.008-.004.008.004m.021.014a.37.37 0 0 1-.032-.02l.031.02-.008-.01-.025-.011-.013-.007c.014.01.03.02.05.031-.002 0-.002-.002-.003-.003"/><path d="M35.01 39.988a.139.139 0 0 0-.012.011l-.008.013a.181.181 0 0 0 .015-.017l.005-.007m-5.017-19.992l.014.008-.014-.008"/><path d="M34.693 31.172c.065.285.139.571.184.86.006.045.02.138.022.16a48.07 48.07 0 0 1 .126 1.13c.047.478.085.955.115 1.434.074 1.154.077 2.309.122 3.463a3.76 3.76 0 0 1-.2.118c-.045.024-.091.044-.137.065-.033.018-.076.04-.11.053l-.013.005-.046.023.036-.02a7.381 7.381 0 0 1-.208.077c-.324.113-.655.205-.988.286a21.341 21.341 0 0 1-1.768.335c-1.134.134-2.27.268-3.409.338l-.044.005a83.9 83.9 0 0 1-1.22.07c-1.91.095-3.82.128-5.73.131-2.24-.004-4.488-.04-6.726-.19a1.423 1.423 0 0 0-.133-.016c-1.136-.07-2.27-.204-3.402-.337l-.23-.034c-.44-.07-.88-.15-1.314-.249a11.903 11.903 0 0 1-1.006-.268 7.635 7.635 0 0 1-.412-.144c-.062-.023-.123-.05-.185-.074l.092.035a3.504 3.504 0 0 1-.357-.189l-.028-.019c.036-.984.039-1.97.09-2.953a44.143 44.143 0 0 1 .264-3.014c-.001.011.054-.39.024-.19.01-.063.017-.114.03-.173.02-.106.046-.212.07-.318l.273-1.212c2.91.338 5.866.333 8.783.333h3.924c3.464 0 6.94.085 10.4-.11a53.198 53.198 0 0 0 2.925-.237c.063.275.126.55.186.826zm.73 6.902a.774.774 0 0 0 .01-.033c.024-.031.021-.011-.01.033zm-.06.08l.01-.02a.47.47 0 0 1-.04.04 1.14 1.14 0 0 1-.032.02l.08-.073a.59.59 0 0 1 .05-.08c-.01.025-.024.047-.038.07l.006-.005a.252.252 0 0 1-.01.01l-.02.033-.006.005zm-3.746 3.333v3.195l.001-.002v.002h-2.066v-2.98a44.57 44.57 0 0 0 2.065-.215zm-18.184 3.195h-2.065v-.034c-.005-.75 0-1.5 0-2.248v-.913c.534.067 1.07.122 1.602.172.154.015.309.027.463.04v2.983zm-5.926-6.66c.02.017.038.032.053.047l.002.003a1.55 1.55 0 0 0-.055-.05zm.16.161l-.09-.094-.004-.008a.812.812 0 0 1 .1.106l-.006-.004zm3.446-17.33c.035-.09.07-.18.106-.268l.022-.049a.304.304 0 0 1 .013-.035l.018-.039a.536.536 0 0 0 .004-.01c.068-.154.138-.308.211-.46.132-.269.28-.523.445-.772l.054-.059a.62.62 0 0 0 .053-.038l.041-.02c.149-.042.294-.091.445-.126.23-.053.462-.096.695-.135a19.857 19.857 0 0 1 .507-.08l.067-.008.161-.021c.77-.097 1.543-.17 2.317-.23a72.03 72.03 0 0 1 5.232-.216 71.98 71.98 0 0 1 4.691.178c.719.05 1.435.11 2.151.188.304.033.625.048.924.11-.335-.07.069.012.15.024.138.02.274.042.41.066.364.062.716.144 1.07.247l.038.02-.016-.013.01.003.023.006.01.01.012.012.032.015a.454.454 0 0 0 .006.01.299.299 0 0 0 .02.01.214.214 0 0 1-.009-.012c.225.11.118.069.012.014l-.002-.002-.016-.007-.004-.002a.438.438 0 0 1-.028-.014l.064.069c.073.11.147.219.214.334.175.305.324.626.465.948l.01.023.014.035a23.119 23.119 0 0 1 .35.922c.17.477.328.959.478 1.443.311 1 .592 2.008.858 3.02.189.72.37 1.444.545 2.168-.573.058-1.145.105-1.718.144-2.212.148-4.42.152-6.635.152h-4.45l-.017.001c-3.22.009-6.447.071-9.661-.105A55.405 55.405 0 0 1 9 28.112c.113-.47.23-.94.349-1.41.5-1.97 1.03-3.952 1.764-5.849zm.844-1.69a.07.07 0 0 0-.009.01c-.115.058-.25.114.01-.01zm1.904-.419l-.13.018c.04-.008.098-.023.13-.018zm17.075.354l-.046-.02c-.028-.028-.016-.036.046.02zm10.018 8.422c-.191-.596-.778-.959-1.393-.798-.335.088-.657.301-.971.45a9.068 9.068 0 0 1-.606.214c-.43.135-.868.24-1.31.332-.144.03-.288.058-.433.084a95.037 95.037 0 0 0-.177-.73c-.402-1.64-.83-3.276-1.337-4.887-.417-1.327-.855-2.738-1.59-3.926-.296-.48-.659-.935-1.178-1.17l-.003-.004c-.067-.076-.26-.116-.347-.15a3.034 3.034 0 0 0-.338-.11 9.833 9.833 0 0 0-.97-.198c-2.353-.386-4.755-.528-7.136-.597a64.83 64.83 0 0 0-1.247-.024 1.06 1.06 0 0 0-.115-.006c-.14 0-.28 0-.422.002L21.182 16c-.024 0-.048.002-.072.004a64.03 64.03 0 0 0-6.863.408c-.85.1-1.726.191-2.554.42a2.97 2.97 0 0 0-.303.098c-.076.028-.213.118-.325.147.043-.018.1-.044.173-.078-.107.047-.173.06-.31.13a2.146 2.146 0 0 0-.572.445c-.88.958-1.325 2.332-1.744 3.538-.544 1.567-.984 3.17-1.395 4.778-.163.636-.32 1.274-.473 1.912l-.028-.004a13.318 13.318 0 0 1-2.344-.635l-.116-.054a9.488 9.488 0 0 1-.25-.127c-.187-.097-.378-.206-.582-.26-.572-.15-1.256.19-1.393.798-.131.581.162 1.21.745 1.391.02.01.04.019.059.03.164.085.329.167.498.242.781.344 1.59.577 2.424.748.157.032.314.063.472.092l-.026.114c-.108.478-.237.957-.302 1.443a46.554 46.554 0 0 0-.373 4.127c-.04.888-.046 1.776-.076 2.665-.02.587.197 1.061.63 1.445.691.616 1.606.929 2.486 1.157.177.046.353.089.53.129-.007 1.199-.024 2.4.004 3.597.01.4.098.776.28 1.133.457.894 1.368 1.139 2.294 1.139 1.1 0 2.452.218 3.363-.554.778-.658.66-1.72.66-2.636v-1.928c1.337.069 2.676.104 4.015.123.475.006.95.01 1.426.011l.042.003.337-.002.284.002.034-.003c1.817-.006 3.635-.042 5.45-.136v1.578c0 .812-.145 1.8.278 2.527.654 1.124 1.924 1.015 3.025 1.015.94 0 1.95.088 2.664-.653.41-.425.607-1.002.629-1.586.024-.671 0-1.348 0-2.02v-1.61c.856-.185 1.747-.432 2.494-.892.364-.223.695-.504.927-.869.374-.588.217-1.456.202-2.131a54.724 54.724 0 0 0-.174-3.432c-.084-.976-.174-1.96-.387-2.916l-.189-.841.062-.011c.816-.15 1.635-.337 2.407-.648.297-.12.59-.248.874-.396l.106-.055c.55-.172.931-.825.749-1.392z"/><path d="M28 35.5c0 .828 1.12 1.5 2.5 1.5s2.5-.672 2.5-1.5-1.12-1.5-2.5-1.5-2.5.672-2.5 1.5"/></g></svg>