<svg width="108" height="83" xmlns="http://www.w3.org/2000/svg" xmlns:xlink="http://www.w3.org/1999/xlink"><defs><path id="a" d="M0 .147h14.945V33H0z"/></defs><g transform="translate(0 -2)" fill="none" fill-rule="evenodd"><circle fill="#CD171A" fill-rule="nonzero" cx="66.5" cy="43.5" r="41.5"/><circle fill="#CD171A" fill-rule="nonzero" cx="20.5" cy="22.5" r="20.5"/><text fill="#FFF" font-family="TisaSansOT, Tisa Sans OT" font-size="25"><tspan x="11.3" y="26">3</tspan></text><path d="M61.759 53.44h9.202l-.785 1.606c-.27.113-1.516.601-3.816.601s-3.545-.488-3.816-.6l-.785-1.606zm-1.166-1.47a.721.721 0 0 0-.614.348.758.758 0 0 0-.031.718l1.442 2.941c.076.152.2.273.352.342 0 0 1.79.799 4.618.799 2.827 0 4.618-.799 4.618-.799a.733.733 0 0 0 .352-.342l1.442-2.941a.757.757 0 0 0-.031-.718.721.721 0 0 0-.614-.348H60.593zm-7.339-6.611h.85c.052 0 .229.094.418.264l-.31.787-.113.115-1.306-.589c.022-.072.01-.08.042-.149a1.07 1.07 0 0 1 .222-.348c.07-.064.096-.08.197-.08zm25.417-.003c.04-.003.505.003.794.003.102 0 .127.016.198.08.07.063.155.192.222.348.029.066.017.075.037.14l-1.32.578-.094-.095-.287-.736c.036-.034.034-.037.079-.074.194-.155.476-.25.371-.244zm-19.01-5.15h13.398c.887 0 1.679.546 2.008 1.387l2.16 5.503c.033.092.09.176.157.247l.896.914a3.71 3.71 0 0 1 1.034 2.37L75.01 51.97c0 .813.645 1.47 1.442 1.47h2.883v8.09h-3.604v-1.92a.732.732 0 0 0-.243-.545.696.696 0 0 0-.56-.181c-2.064.244-4.863.44-8.57.44-3.705 0-6.504-.196-8.568-.44a.697.697 0 0 0-.56.18.732.732 0 0 0-.243.546v1.92h-3.604v-8.09h2.883c.798 0 1.443-.657 1.443-1.47l-4.304-1.344a3.703 3.703 0 0 1 1.034-2.37l.895-.913a.768.768 0 0 0 .16-.247l2.158-5.503a2.16 2.16 0 0 1 2.008-1.387zm0-1.47c-1.473 0-2.802.918-3.349 2.312h.003l-1.23 3.142a1.747 1.747 0 0 0-.98-.302h-.85c-.462 0-.882.198-1.167.46a2.465 2.465 0 0 0-.574.844 3.961 3.961 0 0 0-.287 1.08.739.739 0 0 0 .422.755l1.391.627a5.229 5.229 0 0 0-1.098 3.202V61.53c0 .805.653 1.471 1.442 1.471h3.604c.789 0 1.442-.666 1.442-1.47v-1.147c2.053.221 4.52.411 7.93.411s5.877-.19 7.93-.41v1.145c0 .805.653 1.471 1.442 1.471h3.604c.789 0 1.442-.666 1.442-1.47V50.855a5.199 5.199 0 0 0-1.113-3.216l1.397-.61a.744.744 0 0 0 .434-.758s-.05-.523-.29-1.08a2.47 2.47 0 0 0-.574-.844 1.753 1.753 0 0 0-1.167-.46c-.241 0-.607-.02-.906.003-.414.031-.67.195-.896.365l-1.259-3.212c-.546-1.392-1.872-2.309-3.345-2.309H59.661z" fill="#FEFEFE" fill-rule="nonzero"/><path d="M91.446 37.702c0-1.022.122-1.892-.792-2.192.94-.283.843-1.166.843-2.207 0-1.267-1.022-2.303-2.272-2.303h-9.397c-1.25 0-2.272 1.036-2.272 2.303 0 1.022-.122 1.893.792 2.192-.94.283-.844 1.166-.844 2.207 0 1.03-.11 1.908.814 2.2-.924.292-.814 1.17-.814 2.199 0 1.03-.11 1.908.814 2.2-.924.292-.814 1.17-.814 2.199 0 1.03-.11 1.907.814 2.2-.924.292-.814 1.17-.814 2.2 0 1.029-.11 1.906.814 2.199-.924.291-.814 1.17-.814 2.199 0 1.03-.11 1.907.814 2.2-.924.292-.814 1.17-.814 2.2 0 1.266 1.023 2.302 2.273 2.302h9.397c1.25 0 2.272-1.036 2.272-2.303 0-1.03.111-1.907-.813-2.2.924-.292.813-1.17.813-2.2 0-1.029.111-1.907-.813-2.198.924-.293.813-1.17.813-2.2 0-1.03.111-1.907-.813-2.2.924-.292.813-1.169.813-2.199 0-1.03.111-1.907-.813-2.2.924-.291.813-1.17.813-2.2 0-1.029.111-1.906-.813-2.198.924-.292.813-1.17.813-2.2" fill="#CA2A1E" fill-rule="nonzero"/><path d="M80.527 31.706c-.76 0-1.378.66-1.378 1.472l-.002.337c-.012.988.052 1.01.208 1.064.333.114.557.448.553.822a.847.847 0 0 1-.571.807c-.174.056-.246.078-.238 1.135l.001.276-.002.311c-.01 1.018.058 1.04.22 1.095a.85.85 0 0 1 .561.814.849.849 0 0 1-.56.814c-.163.055-.23.077-.22 1.095l.001.311-.002.312c-.01 1.017.057 1.04.22 1.094.334.111.561.44.561.815a.85.85 0 0 1-.56.814c-.163.054-.23.077-.22 1.095l.001.311-.002.311c-.01 1.018.057 1.04.22 1.094a.85.85 0 0 1 .561.815.849.849 0 0 1-.56.815c-.163.054-.23.076-.22 1.094l.001.312-.002.311c-.01 1.018.058 1.04.22 1.095.334.11.561.44.561.814a.85.85 0 0 1-.56.815c-.164.054-.23.076-.22 1.094l.001.311-.002.312c-.01 1.018.058 1.04.22 1.094a.85.85 0 0 1 .561.815.849.849 0 0 1-.56.814c-.164.054-.23.077-.22 1.094l.001.312c0 .812.619 1.472 1.378 1.472h8.997c.759 0 1.377-.66 1.377-1.472l.002-.313c.01-1.016-.057-1.039-.22-1.093a.849.849 0 0 1-.56-.814.85.85 0 0 1 .56-.815c.163-.054.23-.076.22-1.093l-.002-.313.002-.312c.01-1.017-.057-1.039-.22-1.093a.849.849 0 0 1-.56-.815.85.85 0 0 1 .56-.814c.163-.055.23-.077.22-1.094l-.002-.312.002-.313c.01-1.017-.057-1.039-.22-1.093a.849.849 0 0 1-.56-.815.85.85 0 0 1 .56-.815c.163-.054.23-.076.22-1.093l-.002-.312.002-.312c.01-1.017-.057-1.04-.22-1.094a.85.85 0 0 1-.56-.814c0-.374.226-.704.56-.815.163-.054.23-.077.22-1.093l-.002-.313.002-.312c.01-1.017-.057-1.04-.22-1.094a.849.849 0 0 1-.56-.814c0-.373.226-.703.56-.814.163-.055.23-.077.22-1.094l-.002-.312.003-.338c.012-.987-.053-1.01-.208-1.063a.85.85 0 0 1-.553-.822c.004-.374.235-.701.57-.807.175-.055.246-.079.238-1.135l-.001-.276c0-.812-.618-1.472-1.377-1.472h-8.997zM89.475 63h-8.997c-1.64 0-2.974-1.426-2.974-3.178l-.002-.293c-.007-.574-.014-1.331.321-1.927-.335-.597-.328-1.354-.321-1.927l.002-.294-.002-.293c-.007-.573-.014-1.331.321-1.927-.335-.596-.328-1.354-.321-1.927l.002-.293-.002-.294c-.007-.572-.014-1.33.321-1.927-.335-.596-.328-1.354-.321-1.927l.002-.293-.002-.293c-.007-.573-.014-1.33.321-1.927-.335-.597-.328-1.354-.321-1.928l.002-.293-.002-.293c-.007-.573-.014-1.33.321-1.927-.335-.597-.328-1.354-.321-1.927l.002-.293-.002-.262c-.004-.594-.01-1.382.348-1.99-.316-.586-.307-1.319-.3-1.874l.002-.315c0-1.752 1.335-3.178 2.975-3.178h8.997c1.64 0 2.974 1.426 2.974 3.178v.262c.005.594.012 1.382-.347 1.99.316.586.307 1.318.3 1.874l-.002.315.002.293c.005.573.013 1.331-.322 1.927.335.596.327 1.353.322 1.927l-.002.293.002.294c.005.573.013 1.33-.322 1.927.335.596.327 1.353.322 1.926l-.002.294.002.294c.005.573.013 1.33-.322 1.926.335.597.327 1.354.322 1.926l-.002.295.002.294c.005.573.013 1.33-.322 1.926.335.596.327 1.354.322 1.927l-.002.293.002.294c.005.573.013 1.33-.322 1.927.335.596.327 1.353.322 1.926l-.002.294c0 1.752-1.334 3.178-2.974 3.178z" fill="#FEFEFE" fill-rule="nonzero"/><path d="M54.446 37.702c0-1.022.122-1.892-.792-2.192.94-.283.843-1.166.843-2.207 0-1.267-1.022-2.303-2.272-2.303h-9.397c-1.25 0-2.272 1.036-2.272 2.303 0 1.022-.122 1.893.792 2.192-.94.283-.844 1.166-.844 2.207 0 1.03-.11 1.908.814 2.2-.924.292-.814 1.17-.814 2.199 0 1.03-.11 1.908.814 2.2-.924.292-.814 1.17-.814 2.199 0 1.03-.11 1.907.814 2.2-.924.292-.814 1.17-.814 2.2 0 1.029-.11 1.906.814 2.199-.924.291-.814 1.17-.814 2.199 0 1.03-.11 1.907.814 2.2-.924.292-.814 1.17-.814 2.2 0 1.266 1.023 2.302 2.273 2.302h9.397c1.25 0 2.272-1.036 2.272-2.303 0-1.03.111-1.907-.813-2.2.924-.292.813-1.17.813-2.2 0-1.029.111-1.907-.813-2.198.924-.293.813-1.17.813-2.2 0-1.03.111-1.907-.813-2.2.924-.292.813-1.169.813-2.199 0-1.03.111-1.907-.813-2.2.924-.291.813-1.17.813-2.2 0-1.029.111-1.906-.813-2.198.924-.292.813-1.17.813-2.2" fill="#CA2A1E" fill-rule="nonzero"/><g transform="translate(40.5 30)"><mask id="b" fill="#fff"><use xlink:href="#a"/></mask><path d="M3.016 1.846c-.757 0-1.373.657-1.373 1.466l-.002.335c-.012.983.052 1.005.207 1.059a.847.847 0 0 1 .551.818.843.843 0 0 1-.57.804c-.172.055-.244.078-.236 1.13l.001.274-.002.31c-.01 1.013.057 1.035.22 1.09.332.11.558.439.558.81 0 .372-.226.7-.558.811-.163.054-.23.077-.22 1.09l.002.31-.002.31c-.01 1.013.057 1.035.22 1.09.332.11.558.438.558.81 0 .372-.226.7-.558.811-.163.054-.23.076-.22 1.09l.002.31-.002.31c-.01 1.013.057 1.035.22 1.089.332.11.558.439.558.81 0 .372-.226.7-.558.812-.163.054-.23.076-.22 1.09l.002.31-.002.31c-.01 1.013.057 1.035.22 1.09.332.11.558.438.558.81 0 .372-.226.7-.558.811-.163.054-.23.076-.22 1.09l.002.31-.002.31c-.01 1.013.057 1.035.22 1.089.332.11.558.439.558.81 0 .373-.226.7-.558.812-.163.054-.23.076-.22 1.089l.002.31c0 .808.616 1.465 1.373 1.465h8.963c.757 0 1.373-.657 1.373-1.465l.002-.311c.01-1.012-.057-1.034-.22-1.088a.845.845 0 0 1-.558-.811c0-.372.226-.7.558-.811.163-.054.23-.076.22-1.088l-.002-.312.002-.31c.01-1.013-.057-1.035-.22-1.089a.845.845 0 0 1-.558-.81c0-.373.226-.701.558-.812.163-.054.23-.076.22-1.088l-.002-.311.002-.312c.01-1.012-.057-1.034-.22-1.088a.845.845 0 0 1-.558-.811c0-.372.226-.7.558-.811.163-.054.23-.076.22-1.088l-.002-.311.002-.311c.01-1.013-.057-1.035-.22-1.089a.846.846 0 0 1-.558-.81c0-.373.226-.701.558-.812.163-.054.23-.076.22-1.088l-.002-.311.002-.311c.01-1.012-.057-1.035-.22-1.089a.845.845 0 0 1-.558-.81c0-.372.226-.7.558-.811.163-.055.23-.077.22-1.089l-.002-.311.002-.336c.012-.982-.052-1.005-.207-1.058a.847.847 0 0 1-.55-.818.843.843 0 0 1 .568-.805c.173-.054.245-.078.237-1.13l-.002-.273c0-.809-.615-1.466-1.372-1.466H3.016zM11.93 33H2.967C1.333 33 .003 31.58.003 29.836l-.001-.292c-.007-.57-.014-1.325.32-1.918-.334-.594-.327-1.348-.32-1.919l.002-.292-.002-.291c-.007-.571-.014-1.326.32-1.919-.334-.594-.327-1.348-.32-1.919l.002-.291-.002-.292c-.007-.57-.014-1.325.32-1.92-.334-.592-.327-1.347-.32-1.918l.002-.291-.002-.292c-.007-.57-.014-1.325.32-1.919-.334-.593-.327-1.348-.32-1.919l.002-.291-.002-.292c-.007-.57-.014-1.325.32-1.918-.334-.594-.327-1.349-.32-1.92l.002-.291-.002-.26c-.004-.592-.01-1.376.346-1.982C.034 4.907.043 4.178.05 3.625l.002-.313c0-1.745 1.33-3.165 2.964-3.165h8.963c1.634 0 2.963 1.42 2.963 3.165l.002.26c.004.591.01 1.376-.347 1.981.315.583.306 1.312.3 1.866l-.004.313.003.292c.005.57.013 1.325-.321 1.919.334.593.326 1.347.32 1.917l-.002.293.003.292c.005.57.013 1.325-.321 1.918.334.594.326 1.347.32 1.918l-.002.293.003.292c.005.57.013 1.325-.321 1.918.334.594.326 1.348.32 1.918l-.002.293.003.292c.005.57.013 1.325-.321 1.918.334.593.326 1.347.32 1.918l-.002.292.003.293c.005.57.013 1.324-.321 1.918.334.593.326 1.347.32 1.918l-.002.292c0 1.744-1.329 3.164-2.963 3.164z" fill="#FEFEFE" fill-rule="nonzero" mask="url(#b)"/></g><path d="M55.5 47.5h22" stroke="#FFF" stroke-width="1.5" stroke-linecap="square"/><path d="M41.391 25.945v4.108l49.218-.112v-3.996H41.39zM40.446 32a.934.934 0 0 1-.668-.284.987.987 0 0 1-.278-.689v-6.054a.96.96 0 0 1 .946-.973h51.108a.96.96 0 0 1 .946.973v5.938a.96.96 0 0 1-.944.972L40.448 32h-.002z" fill="#FEFEFE" fill-rule="nonzero"/></g></svg>