<svg width="108" height="83" xmlns="http://www.w3.org/2000/svg" xmlns:xlink="http://www.w3.org/1999/xlink"><defs><path id="a" d="M.433.062h39.415V30H.433z"/></defs><g fill="none" fill-rule="evenodd"><circle fill="#CD171A" fill-rule="nonzero" cx="66.5" cy="41.5" r="41.5"/><circle fill="#CD171A" fill-rule="nonzero" cx="20.5" cy="20.5" r="20.5"/><text fill="#FFF" font-family="TisaSansOT, Tisa Sans OT" font-size="25"><tspan x="13.3" y="26">1</tspan></text><path d="M69.188 27H41.812c-.449 0-.812-.448-.812-1s.363-1 .812-1h27.376c.449 0 .812.448.812 1s-.363 1-.812 1m0 7H41.812c-.449 0-.812-.448-.812-1s.363-1 .812-1h27.376c.449 0 .812.448.812 1s-.363 1-.812 1m0 7H41.812c-.449 0-.812-.448-.812-1s.363-1 .812-1h27.376c.449 0 .812.448.812 1s-.363 1-.812 1m0 7H41.812c-.449 0-.812-.447-.812-1 0-.553.363-1 .812-1h27.376c.449 0 .812.447.812 1 0 .553-.363 1-.812 1" fill="#FEFEFE" fill-rule="nonzero"/><g transform="translate(58 34)"><mask id="b" fill="#fff"><use xlink:href="#a"/></mask><path d="M35.795 19.977l-6.228 6.2a8.13 8.13 0 0 1-6.98 2.26L7.506 26.064a2.297 2.297 0 0 1-.594-2.309 2.306 2.306 0 0 1 1.756-1.624l6.048-1.313 1.279 1.273c.143.143.33.214.518.214a.731.731 0 0 0 .52-.214.728.728 0 0 0 0-1.036L15.44 19.47 2.545 6.555a2.192 2.192 0 0 1 .01-3.109 2.21 2.21 0 0 1 3.12 0l9.06 9.029c.12.163.253.319.398.463l.872.864a.735.735 0 0 0 1.04 0 .728.728 0 0 0 0-1.032l-.871-.866a2.588 2.588 0 0 1-.149-.163.804.804 0 0 0-.138-.192l-.018-.017a2.438 2.438 0 0 1 .294-3.067c.005-.003.01-.01.014-.013a2.448 2.448 0 0 1 3.153-.26l1.449 1.031a.734.734 0 1 0 .945-1.117 2.193 2.193 0 0 1-.072-3.032 2.218 2.218 0 0 1 2.711-.203l1.051.697.262.264.005.004a.74.74 0 0 0 1.04 0 .732.732 0 0 0 0-1.037v-.002a1.898 1.898 0 0 1-.004-2.704 2.009 2.009 0 0 1 1.313-.57c.48-.02.966.132 1.353.458l5.952 5.138a8.696 8.696 0 0 1 3.039 6.33 8.68 8.68 0 0 1-2.579 6.528zM18.078 6.284a3.925 3.925 0 0 0-2.945 1.134 3.89 3.89 0 0 0-1.113 2.274L6.713 2.41A3.657 3.657 0 0 0 4.11 1.337a3.66 3.66 0 0 0-2.603 1.08A3.659 3.659 0 0 0 1.5 7.59l11.356 11.373.018.023.605.606-5.127 1.11a3.76 3.76 0 0 0-2.851 2.643c-.177.595-.163 1.52-.087 1.775.102.334.342 1.101.62 1.465.354.46.269.355.428.517.164.16.358.278.57.35l13.401 2.131 1.925.303a9.622 9.622 0 0 0 8.251-2.672l6.225-6.204a10.124 10.124 0 0 0 3.007-7.613 10.135 10.135 0 0 0-3.544-7.383L30.337.868c-1.353-1.145-3.4-1.06-4.66.193a3.356 3.356 0 0 0-.992 2.317 3.693 3.693 0 0 0-3.871.483.645.645 0 0 0-.133.103l-.143.143a.633.633 0 0 0-.105.128 3.683 3.683 0 0 0-.827 2.424c-.017-.009-.04-.012-.057-.023l-1.47-.352z" fill="#FEFEFE" fill-rule="nonzero" mask="url(#b)"/></g><path d="M93.378 53.446l-6.317 6.198c-1.85 1.816-4.498 2.659-7.08 2.258l-15.3-2.37a2.273 2.273 0 0 1-.601-2.308c.25-.834.915-1.44 1.78-1.623l6.135-1.313 1.297 1.273a.747.747 0 0 0 .526.213.747.747 0 0 0 .528-.213.72.72 0 0 0 0-1.037l-1.616-1.583-13.08-12.91a2.169 2.169 0 0 1 .01-3.107c.42-.414.98-.645 1.58-.645.598 0 1.16.231 1.585.645l9.19 9.024c.123.163.258.319.405.463l.884.864a.753.753 0 0 0 1.055 0 .72.72 0 0 0 0-1.032l-.884-.866a2.74 2.74 0 0 1-.15-.162.804.804 0 0 0-.14-.192l-.02-.017a2.41 2.41 0 0 1 .314-3.079 2.511 2.511 0 0 1 3.198-.26l1.469 1.03a.76.76 0 0 0 1.002-.122.726.726 0 0 0-.043-.994 2.169 2.169 0 0 1-.073-3.03 2.277 2.277 0 0 1 2.75-.203l1.066.697.266.263.005.004a.757.757 0 0 0 1.055 0 .723.723 0 0 0 0-1.036v-.002a1.883 1.883 0 0 1-.004-2.703 2.053 2.053 0 0 1 1.332-.57c.487-.02.979.132 1.372.459l6.038 5.135c1.898 1.616 2.99 3.862 3.082 6.327.09 2.463-.839 4.78-2.616 6.524" fill="#CA2A1E" fill-rule="nonzero"/></g></svg>