<svg width="108" height="83" xmlns="http://www.w3.org/2000/svg"><g transform="translate(0 -2)" fill="none" fill-rule="evenodd"><circle fill="#CD171A" fill-rule="nonzero" cx="66.5" cy="43.5" r="41.5"/><circle fill="#CD171A" fill-rule="nonzero" cx="20.5" cy="22.5" r="20.5"/><path d="M47 63h38c-.61-12.7-5.692-23.916-12.822-28.13l-1.387-.82 1.282-.977c2.53-1.926 3.982-4.845 3.982-8.007C76.055 19.516 71.545 15 66 15c-5.544 0-10.055 4.516-10.055 10.066 0 3.162 1.452 6.08 3.982 8.007l1.282.976-1.387.82C52.693 39.083 47.61 50.3 47 63zm40 2H45l.03-1.107c.359-13.264 5.23-24.832 12.537-30.045a12.07 12.07 0 0 1-3.651-8.693C53.916 18.453 59.336 13 66 13s12.084 5.453 12.084 12.155a12.07 12.07 0 0 1-3.65 8.693C81.74 39.06 86.611 50.63 86.97 63.893L87 65z" fill="#FEFEFE" fill-rule="nonzero"/><text fill="#FFF" font-family="TisaSansOT, Tisa Sans OT" font-size="25"><tspan x="11.3" y="26">3</tspan></text></g></svg>