<?xml version="1.0" encoding="UTF-8"?>
<svg width="108px" height="83px" viewBox="0 0 108 83" version="1.1" xmlns="http://www.w3.org/2000/svg" xmlns:xlink="http://www.w3.org/1999/xlink">
    <!-- Generator: Sketch 54.1 (76490) - https://sketchapp.com -->
    <title>icon-wash-1</title>
    <desc>Created with Sketch.</desc>
    <defs>
        <polygon id="path-1" points="0.43334764 0.0621451537 39.8479374 0.0621451537 39.8479374 30 0.43334764 30"></polygon>
    </defs>
    <g id="Page-1" stroke="none" stroke-width="1" fill="none" fill-rule="evenodd">
        <g id="icon-wash-1">
            <circle id="Oval" fill="#CD171A" fill-rule="nonzero" cx="66.5" cy="41.5" r="41.5"></circle>
            <circle id="Oval-Copy-2" fill="#CD171A" fill-rule="nonzero" cx="20.5" cy="20.5" r="20.5"></circle>
            <text id="1" fill="#FFFFFF" font-family="TisaSansOT, Tisa Sans OT" font-size="25" font-weight="normal">
                <tspan x="13.3" y="26">1</tspan>
            </text>
            <g id="Group-14" transform="translate(41.000000, 25.000000)">
                <path d="M28.188,2 L0.812,2 C0.363312,2 0,1.552 0,1 C0,0.448 0.363312,0 0.812,0 L28.188,0 C28.636688,0 29,0.448 29,1 C29,1.552 28.636688,2 28.188,2" id="Fill-1" fill="#FEFEFE" fill-rule="nonzero"></path>
                <path d="M28.188,9 L0.812,9 C0.363312,9 0,8.552 0,8 C0,7.448 0.363312,7 0.812,7 L28.188,7 C28.636688,7 29,7.448 29,8 C29,8.552 28.636688,9 28.188,9" id="Fill-3" fill="#FEFEFE" fill-rule="nonzero"></path>
                <path d="M28.188,16 L0.812,16 C0.363312,16 0,15.552 0,15 C0,14.448 0.363312,14 0.812,14 L28.188,14 C28.636688,14 29,14.448 29,15 C29,15.552 28.636688,16 28.188,16" id="Fill-5" fill="#FEFEFE" fill-rule="nonzero"></path>
                <path d="M28.188,23 L0.812,23 C0.363312,23 0,22.5525714 0,22 C0,21.4474286 0.363312,21 0.812,21 L28.188,21 C28.636688,21 29,21.4474286 29,22 C29,22.5525714 28.636688,23 28.188,23" id="Fill-7" fill="#FEFEFE" fill-rule="nonzero"></path>
                <g id="Group-11" transform="translate(17.000000, 9.000000)">
                    <g id="Fill-9-Clipped">
                        <mask id="mask-2" fill="white">
                            <use xlink:href="#path-1"></use>
                        </mask>
                        <g id="path-1"></g>
                        <path d="M35.7950588,19.9765312 L29.5672941,26.1771562 C27.7437647,27.9935625 25.1334118,28.8373125 22.5875294,28.4360625 L7.50470588,26.065125 C6.88729412,25.450125 6.66658824,24.5895 6.91129412,23.7560625 C7.15741176,22.9212187 7.81341176,22.315125 8.66658824,22.1323125 L14.7145882,20.818875 L15.9936471,22.092 C16.1371765,22.2345 16.3230588,22.3062187 16.5117647,22.3062187 C16.7032941,22.3062187 16.8891765,22.2345 17.0322353,22.092 C17.3211765,21.8060625 17.3211765,21.3424687 17.0322353,21.0555937 L15.4388235,19.4712187 L2.54517647,6.5548125 C1.68823529,5.69840625 1.68823529,4.3048125 2.55458824,3.4460625 C2.96823529,3.032625 3.52117647,2.80153125 4.11129412,2.80153125 C4.70141176,2.80153125 5.25623529,3.032625 5.67411765,3.4460625 L14.7348235,12.4746562 C14.8557647,12.63825 14.9884706,12.793875 15.1334118,12.93825 L16.0049412,13.8021562 C16.2915294,14.0899687 16.7564706,14.0899687 17.0454118,13.8021562 C17.332,13.5171562 17.332,13.0554375 17.0454118,12.7695 L16.1738824,11.9037187 C16.1225882,11.8521562 16.0727059,11.7977812 16.0251765,11.7410625 C15.9903529,11.6712187 15.9437647,11.608875 15.8872941,11.548875 L15.8689412,11.532 C15.2378824,10.587 15.3352941,9.2998125 16.1630588,8.46496875 C16.1682353,8.4616875 16.1738824,8.45559375 16.1771765,8.4523125 C17.0251765,7.60621875 18.3503529,7.4979375 19.3301176,8.19215625 L20.7785882,9.22340625 C21.0891765,9.44278125 21.5197647,9.38746875 21.7658824,9.100125 C22.0138824,8.80715625 21.9936471,8.37496875 21.7235294,8.10590625 C20.8872941,7.2748125 20.8647059,5.9341875 21.652,5.07403125 C22.3941176,4.39809375 23.5178824,4.30996875 24.3630588,4.87059375 L25.4143529,5.56809375 L25.676,5.83153125 C25.6774118,5.83153125 25.6774118,5.83153125 25.6811765,5.83575 C25.9682353,6.12121875 26.4327059,6.12121875 26.7216471,5.83575 C27.0087059,5.5479375 27.0087059,5.0848125 26.7216471,4.798875 L26.7216471,4.797 C26.3597647,4.43653125 26.1574118,3.955125 26.1555294,3.4460625 C26.1555294,2.93325 26.3555294,2.455125 26.7178824,2.09278125 C27.0797647,1.73559375 27.5545882,1.54715625 28.0303529,1.52325 C28.5103529,1.50309375 28.9955294,1.6554375 29.3832941,1.98121875 L35.3352941,7.1191875 C37.2068235,8.736375 38.284,10.982625 38.3738824,13.4487187 C38.4623529,15.9134062 37.5470588,18.2318437 35.7950588,19.9765312 L35.7950588,19.9765312 Z M18.0783529,6.28434375 C17.0176471,6.23840625 15.9531765,6.61340625 15.148,7.40278125 C15.1465882,7.40840625 15.1409412,7.4135625 15.1334118,7.41778125 C14.4976471,8.0548125 14.1225882,8.85871875 14.0195294,9.6916875 L6.71270588,2.40965625 C6.01764706,1.7173125 5.09670588,1.3366875 4.11129412,1.3366875 C3.12776471,1.3366875 2.20682353,1.7210625 1.50847059,2.41715625 C0.0783529412,3.84121875 0.0745882353,6.16153125 1.49952941,7.58934375 L12.8557647,18.9621562 C12.8614118,18.96825 12.8647059,18.9752812 12.8741176,18.9846562 L13.4792941,19.59075 L8.35223529,20.7016875 C6.96823529,20.998875 5.90329412,21.988875 5.50094118,23.3445 C5.32447059,23.938875 5.33764706,24.86325 5.41435294,25.1187187 C5.51552941,25.4534062 5.756,26.2202812 6.03411765,26.5835625 C6.388,27.0448125 6.30282353,26.938875 6.46235294,27.1010625 C6.62564706,27.261375 6.82,27.3790312 7.03129412,27.4512187 L20.4331765,29.5821562 L22.3578824,29.8849687 C22.8524706,29.9618437 23.3465882,30.0002812 23.8392941,30.0002812 C26.3555294,30.0002812 28.8058824,29.0060625 30.6091765,27.2130937 L36.8336471,21.0091875 C38.876,18.9752812 39.9437647,16.2729375 39.8411765,13.39575 C39.7381176,10.5190312 38.4792941,7.8973125 36.2967059,6.0129375 L30.3371765,0.8679375 C28.9842353,-0.27675 26.9367059,-0.192375 25.6774118,1.06059375 C25.0543529,1.68075 24.7051765,2.5010625 24.6849412,3.37809375 C23.4185882,2.79028125 21.9032941,2.97403125 20.8138824,3.861375 C20.7658824,3.88903125 20.7216471,3.92371875 20.6811765,3.96403125 L20.5381176,4.10746875 C20.4976471,4.1473125 20.4590588,4.1895 20.4327059,4.23496875 C19.8595294,4.9366875 19.5837647,5.80434375 19.6058824,6.65934375 C19.5889412,6.6504375 19.5654118,6.6466875 19.5489412,6.63590625 L18.0783529,6.28434375 Z" id="Fill-9" fill="#FEFEFE" fill-rule="nonzero" mask="url(#mask-2)"></path>
                    </g>
                </g>
                <path d="M52.3781906,28.446346 L46.0609781,34.6440459 C44.2112578,36.4595953 41.563413,37.3029473 38.9809647,36.9018865 L23.6815103,34.5320675 C23.0547535,33.9168891 22.831355,33.0566701 23.0795755,32.2240943 C23.3292281,31.3896444 23.9946501,30.7838365 24.8600805,30.6011103 L30.9949464,29.2882924 L32.2923761,30.5608168 C32.437967,30.7032496 32.6265191,30.774466 32.8179353,30.774466 C33.0122156,30.774466 33.2007678,30.7032496 33.3458813,30.5608168 C33.6389725,30.2750142 33.6389725,29.8116391 33.3458813,29.5244309 L31.7295838,27.9412719 L18.6507484,15.0309588 C17.7814992,14.174488 17.7814992,12.7820202 18.6602954,11.9236753 C19.0798835,11.5099644 19.6407665,11.2794481 20.2393598,11.2794481 C20.8379532,11.2794481 21.4007455,11.5099644 21.8246298,11.9236753 L31.0154724,20.9480099 C31.1381506,21.111058 31.2727625,21.2666096 31.4197854,21.411385 L32.3038324,22.2748837 C32.5945368,22.5625604 33.0661558,22.5625604 33.359247,22.2748837 C33.6499514,21.9895496 33.6499514,21.5285172 33.359247,21.2427146 L32.4752,20.3773418 C32.4231692,20.3258036 32.3725704,20.2709857 32.3243583,20.2147623 C32.2890346,20.1449515 32.2417773,20.0826371 32.1844956,20.0226654 L32.1658791,20.0057984 C31.5257565,19.0612442 31.6245674,17.7746639 32.4642211,16.940214 C32.4694719,16.9364657 32.4752,16.9308434 32.4785415,16.9270952 C33.3387211,16.0818691 34.6829307,15.9736389 35.6767676,16.6675302 L37.1460422,17.6978252 C37.4610913,17.9175652 37.897864,17.8622788 38.1475166,17.5750706 C38.3990785,17.2822401 38.3785526,16.8502564 38.1045553,16.5813209 C37.255832,15.7506192 37.2333967,14.4106266 38.0315212,13.5504076 C38.784775,12.8752575 39.9246801,12.7871741 40.7819956,13.3475346 L41.8483892,14.0447055 L42.1137943,14.3080188 C42.1152263,14.3080188 42.1152263,14.3080188 42.1190451,14.311767 C42.4102269,14.5975696 42.8813685,14.5975696 43.1744597,14.311767 C43.4656415,14.0245588 43.4656415,13.5616523 43.1744597,13.2758497 L43.1744597,13.2739756 C42.8073797,12.9136769 42.6021204,12.4324977 42.600211,11.9236753 C42.600211,11.4111048 42.8030836,10.9332053 43.1706409,10.5710325 C43.5377209,10.2140135 44.0193642,10.0256649 44.5019622,10.0017699 C44.9888563,9.98162318 45.4810012,10.1334265 45.8743353,10.4595226 L51.9118224,15.5950676 C53.8102322,17.2110237 54.9028798,19.4566825 54.9940532,21.9216129 C55.0837944,24.3851377 54.1553542,26.7024815 52.3781906,28.446346" id="Fill-12" fill="#CA2A1E" fill-rule="nonzero"></path>
            </g>
        </g>
    </g>
</svg>