<?xml version="1.0" encoding="UTF-8"?>
<svg width="108px" height="83px" viewBox="0 0 108 83" version="1.1" xmlns="http://www.w3.org/2000/svg" xmlns:xlink="http://www.w3.org/1999/xlink">
    <!-- Generator: Sketch 54.1 (76490) - https://sketchapp.com -->
    <title>icon-wash-3</title>
    <desc>Created with Sketch.</desc>
    <defs>
        <polygon id="path-1" points="0 0.147383824 14.9445848 0.147383824 14.9445848 32.9998544 0 32.9998544"></polygon>
    </defs>
    <g id="Page-1" stroke="none" stroke-width="1" fill="none" fill-rule="evenodd">
        <g id="icon-wash-3" transform="translate(0.000000, -2.000000)">
            <circle id="Oval-Copy-5" fill="#CD171A" fill-rule="nonzero" cx="66.5" cy="43.5" r="41.5"></circle>
            <circle id="Oval-Copy-6" fill="#CD171A" fill-rule="nonzero" cx="20.5" cy="22.5" r="20.5"></circle>
            <text id="3" fill="#FFFFFF" font-family="TisaSansOT, Tisa Sans OT" font-size="25" font-weight="normal">
                <tspan x="11.3" y="26">3</tspan>
            </text>
            <g id="Group-14" transform="translate(39.000000, 24.000000)">
                <path d="M22.7586439,29.4409377 L31.9611091,29.4409377 L31.1758184,31.0462144 C30.9051576,31.1589324 29.6604928,31.6470588 27.3598765,31.6470588 C25.0592602,31.6470588 23.8145954,31.1589324 23.544403,31.0462144 L22.7586439,29.4409377 Z M21.5926487,27.9703494 C21.3425919,27.9703494 21.1107977,28.1021722 20.9787452,28.3175783 C20.8495023,28.5363277 20.8354542,28.8061823 20.9478393,29.0359169 L22.3896462,31.9770934 C22.4655062,32.1294538 22.5900663,32.2502913 22.7417862,32.3190685 C22.7417862,32.3190685 24.5324552,33.1176471 27.3598765,33.1176471 C30.1872979,33.1176471 31.9779669,32.3190685 31.9779669,32.3190685 C32.130155,32.2502913 32.2537786,32.1294538 32.3301068,31.9770934 L33.7719138,29.0359169 C33.8847671,28.8061823 33.8702507,28.5363277 33.7410079,28.3175783 C33.6084871,28.1021722 33.3776294,27.9703494 33.1271044,27.9703494 L21.5926487,27.9703494 Z M14.2543711,21.3586726 L15.1047515,21.3586726 C15.1557931,21.3586726 15.3327996,21.4532411 15.5215129,21.6227958 L15.2119856,22.4099115 L15.0991323,22.5250177 L13.7926557,21.9361137 C13.8146644,21.8644709 13.8038942,21.8553961 13.8348001,21.7870967 C13.9022311,21.6313929 13.98652,21.5024359 14.0572289,21.4389126 C14.1274696,21.3753893 14.1527562,21.3586726 14.2543711,21.3586726 L14.2543711,21.3586726 Z M39.6711941,21.3558069 C39.7109971,21.3529412 40.1755221,21.3586726 40.465382,21.3586726 C40.5669968,21.3586726 40.5922835,21.3753893 40.6625242,21.4389126 C40.7332331,21.5024359 40.8175219,21.6313929 40.884953,21.7870967 C40.9135175,21.8525304 40.9018107,21.8616052 40.9219464,21.9275166 L39.6014217,22.5049577 L39.5082357,22.4099115 L39.2207172,21.6743786 C39.2572423,21.6399901 39.254901,21.6371244 39.299855,21.5998701 C39.4937193,21.4451216 39.7756185,21.3500755 39.6711941,21.3558069 L39.6711941,21.3558069 Z M20.6607891,16.2061212 L34.0594323,16.2061212 C34.9458696,16.2061212 35.7377162,16.7515618 36.0669108,17.5931261 L38.2265775,23.0962497 C38.260293,23.1879525 38.3169538,23.2715358 38.3843849,23.3431786 L39.2797194,24.2568634 C39.9020518,24.8916187 40.2570013,25.7360488 40.3136621,26.6263302 L36.0107183,27.9703494 C36.0107183,28.7832566 36.6555277,29.4409377 37.4525252,29.4409377 L40.3361391,29.4409377 L40.3361391,37.5294118 L36.7318559,37.5294118 L36.7318559,35.6103395 C36.7318559,35.4035306 36.6442892,35.2024531 36.4892914,35.0648988 C36.3371033,34.9240013 36.1320005,34.8580899 35.9287708,34.8838813 C33.8650997,35.1279445 31.0657746,35.3232906 27.3598765,35.3232906 C23.6539784,35.3232906 20.8551216,35.1279445 18.7909822,34.8838813 C18.5882208,34.8580899 18.3826498,34.9240013 18.2304616,35.0648988 C18.0754639,35.2024531 17.9878972,35.4035306 17.9878972,35.6103395 L17.9878972,37.5294118 L14.3836139,37.5294118 L14.3836139,29.4409377 L17.2672278,29.4409377 C18.0646936,29.4409377 18.7095031,28.7832566 18.7095031,27.9703494 L14.4060909,26.6263302 C14.4627517,25.7360488 14.817233,24.8916187 15.4400337,24.2568634 L16.3348999,23.3431786 C16.4032675,23.2715358 16.45946,23.1879525 16.4955169,23.0962497 L18.6528422,17.5931261 C18.9825052,16.7544275 19.7734152,16.2061212 20.6607891,16.2061212 L20.6607891,16.2061212 Z M20.6607891,14.7350553 C19.1876079,14.7350553 17.8586543,15.6544715 17.3121819,17.0476855 L17.3154598,17.0476855 L16.0848431,20.1899394 C15.8141824,20.0117876 15.4929483,19.8880844 15.1042833,19.8880844 L14.2543711,19.8880844 C13.7926557,19.8880844 13.3726164,20.0862962 13.0883758,20.3480313 C12.8069449,20.6092887 12.6350893,20.9135319 12.5138071,21.1919836 C12.2740523,21.7493648 12.2267569,22.2718797 12.2267569,22.2718797 C12.1902317,22.5909291 12.3620872,22.8951722 12.6491375,23.0274726 L14.0403711,23.6536309 C13.3360913,24.5611065 12.941807,25.6873316 12.941807,26.8560648 L12.941807,37.5294118 C12.941807,38.3337218 13.5950453,39 14.3836139,39 L17.9878972,39 C18.7769341,39 19.4301724,38.3337218 19.4301724,37.5294118 L19.4301724,36.3831267 C21.482605,36.6042642 23.9499258,36.7943565 27.3598765,36.7943565 C30.7698272,36.7943565 33.2371481,36.6042642 35.2900489,36.3831267 L35.2900489,37.5294118 C35.2900489,38.3337218 35.942819,39 36.7318559,39 L40.3361391,39 C41.1247078,39 41.7779461,38.3337218 41.7779461,37.5294118 L41.7779461,26.8560648 C41.7779461,25.6811226 41.3808521,24.5472556 40.6653338,23.6397799 L42.0621867,23.0298607 C42.3525148,22.9013813 42.5299896,22.5937948 42.4958058,22.2718797 C42.4958058,22.2718797 42.4452325,21.7493648 42.205946,21.1919836 C42.0846637,20.9135319 41.9128082,20.6092887 41.6318455,20.3480313 C41.3471366,20.0862962 40.9275656,19.8880844 40.465382,19.8880844 C40.2237541,19.8880844 39.857566,19.8680244 39.558809,19.8909501 C39.1448573,19.9224729 38.8882447,20.0862962 38.6634745,20.2563284 L37.4042933,17.0443421 C36.8582891,15.6516058 35.5316769,14.7350553 34.0594323,14.7350553 L20.6607891,14.7350553 Z" id="Fill-1" fill="#FEFEFE" fill-rule="nonzero"></path>
                <path d="M52.4461925,13.7021154 C52.4461925,12.6803072 52.5677055,11.8096455 51.6542135,11.5102499 C52.5939142,11.2272727 52.4971803,10.3435728 52.4971803,9.30341454 C52.4971803,8.0362951 51.4750413,7 50.225125,7 L40.828118,7 C39.5782017,7 38.5555863,8.0362951 38.5555863,9.30341454 C38.5555863,10.3247399 38.4340732,11.1958845 39.3475652,11.4947972 C38.4078645,11.7777743 38.5041219,12.6614742 38.5041219,13.7021154 C38.5041219,14.7316499 38.3935689,15.6095551 39.3175444,15.9017073 C38.3935689,16.1938594 38.5041219,17.0712817 38.5041219,18.1008163 C38.5041219,19.1308337 38.3935689,20.0087389 39.3175444,20.3004081 C38.3935689,20.5930432 38.5041219,21.4704654 38.5041219,22.5 C38.5041219,23.5300174 38.3935689,24.4074397 39.3175444,24.699109 C38.3935689,24.991744 38.5041219,25.8691663 38.5041219,26.8991837 C38.5041219,27.9287183 38.3935689,28.8061406 39.3175444,29.0987756 C38.3935689,29.3904449 38.5041219,30.2683501 38.5041219,31.2978846 C38.5041219,32.327902 38.3935689,33.2053243 39.3175444,33.4974765 C38.3935689,33.7896286 38.5041219,34.6670509 38.5041219,35.6970684 C38.5041219,36.9637049 39.5272139,38 40.7771302,38 L50.1736607,38 C51.423577,38 52.4461925,36.9637049 52.4461925,35.6970684 C52.4461925,34.6670509 52.557222,33.7896286 51.63277,33.4974765 C52.557222,33.2053243 52.4461925,32.327902 52.4461925,31.2978846 C52.4461925,30.2683501 52.557222,29.3904449 51.63277,29.0987756 C52.557222,28.8061406 52.4461925,27.9287183 52.4461925,26.8991837 C52.4461925,25.8691663 52.557222,24.991744 51.6332465,24.699109 C52.557222,24.4074397 52.4461925,23.5300174 52.4461925,22.5 C52.4461925,21.4704654 52.557222,20.5930432 51.63277,20.3004081 C52.557222,20.0087389 52.4461925,19.1308337 52.4461925,18.1008163 C52.4461925,17.0712817 52.557222,16.1938594 51.63277,15.9017073 C52.557222,15.6095551 52.4461925,14.7316499 52.4461925,13.7021154" id="Fill-3" fill="#CA2A1E" fill-rule="nonzero"></path>
                <path d="M41.5270397,7.70615694 C40.7674206,7.70615694 40.149232,8.36619593 40.149232,9.17832664 L40.1469509,9.51517076 C40.1346327,10.5027919 40.1989608,10.5252157 40.3549907,10.5788377 C40.6875807,10.693394 40.9115885,11.0268258 40.9079387,11.4007179 C40.9038326,11.77461 40.672069,12.1021922 40.3367416,12.2084614 C40.1629188,12.2635459 40.0912911,12.2864571 40.099047,13.342812 L40.1004156,13.6187219 L40.0981345,13.9302174 C40.0880975,14.9475745 40.1556192,14.9699982 40.3189487,15.0245952 C40.6519949,15.1357392 40.8791964,15.4657587 40.8791964,15.8391633 C40.8791964,16.2120805 40.6519949,16.5421 40.3189487,16.6532439 C40.1556192,16.7078409 40.0880975,16.7302647 40.0981345,17.7476217 L40.1004156,18.0591172 L40.0981345,18.3706127 C40.0880975,19.3884572 40.155163,19.410881 40.3184925,19.4649905 C40.6519949,19.5761345 40.8791964,19.9056665 40.8791964,20.2795586 C40.8791964,20.6529632 40.6524512,20.9824953 40.3189487,21.0941267 C40.1556192,21.1482362 40.0880975,21.17066 40.0981345,22.1885045 L40.1004156,22.5 L40.0981345,22.8114955 C40.0880975,23.8288525 40.155163,23.8512763 40.3184925,23.9053858 C40.6519949,24.0165298 40.8791964,24.3465493 40.8791964,24.7199539 C40.8791964,25.0933585 40.6524512,25.423378 40.3189487,25.534522 C40.1556192,25.589119 40.0880975,25.6110553 40.0981345,26.6288998 L40.1004156,26.9408828 L40.0981345,27.2523783 C40.0880975,28.2702228 40.1556192,28.2921591 40.3189487,28.3467561 C40.6524512,28.4579 40.8791964,28.7879195 40.8791964,29.1613242 C40.8791964,29.5347288 40.6519949,29.8642608 40.3184925,29.9758922 C40.155163,30.0300018 40.0880975,30.0524255 40.0981345,31.0697826 L40.1004156,31.3812781 L40.0981345,31.693261 C40.0880975,32.7106181 40.1556192,32.7330418 40.3189487,32.7871514 C40.6524512,32.8987828 40.8791964,33.2283148 40.8791964,33.6017195 C40.8791964,33.9756116 40.6519949,34.3046561 40.3184925,34.4162875 C40.155163,34.4703971 40.0880975,34.4928208 40.0981345,35.5101779 L40.1004156,35.8221608 C40.1004156,36.6338041 40.7186042,37.2938431 41.4782233,37.2938431 L50.4745776,37.2938431 C51.2337406,37.2938431 51.8519291,36.6338041 51.8519291,35.8221608 L51.8542103,35.5092029 C51.8642473,34.4928208 51.7971818,34.4703971 51.6338523,34.4162875 C51.3003498,34.3051436 51.0731484,33.9756116 51.0731484,33.6017195 C51.0731484,33.2283148 51.3003498,32.8987828 51.633396,32.7871514 C51.7971818,32.7330418 51.8642473,32.7106181 51.8542103,31.694236 L51.8519291,31.3812781 L51.8542103,31.0688076 C51.8642473,30.0524255 51.7971818,30.0300018 51.6338523,29.9758922 C51.3003498,29.8647483 51.0731484,29.5347288 51.0731484,29.1613242 C51.0731484,28.7879195 51.3003498,28.4579 51.633396,28.3467561 C51.7971818,28.2921591 51.8642473,28.2702228 51.8542103,27.2533532 L51.8519291,26.9408828 L51.8542103,26.6279248 C51.8642473,25.6110553 51.7971818,25.589119 51.6338523,25.534522 C51.3003498,25.423378 51.0736046,25.0933585 51.0736046,24.7199539 C51.0736046,24.3465493 51.300806,24.0165298 51.6343085,23.9053858 C51.7971818,23.8512763 51.8642473,23.8288525 51.8542103,22.8124705 L51.8519291,22.5 L51.8542103,22.1875295 C51.8642473,21.17066 51.7971818,21.1482362 51.633396,21.0941267 C51.3003498,20.9824953 51.0731484,20.6529632 51.0731484,20.2795586 C51.0731484,19.9056665 51.3003498,19.5761345 51.6338523,19.4649905 C51.7971818,19.410881 51.8642473,19.3884572 51.8542103,18.3715877 L51.8519291,18.0591172 L51.8542103,17.7466468 C51.8642473,16.7302647 51.7971818,16.7078409 51.6338523,16.6532439 C51.3003498,16.5421 51.0731484,16.2120805 51.0731484,15.8391633 C51.0731484,15.4657587 51.3003498,15.1357392 51.6338523,15.0245952 C51.7971818,14.9699982 51.8642473,14.9475745 51.8542103,13.9311924 L51.8519291,13.6187219 L51.8546665,13.2813903 C51.8665284,12.2942567 51.8022003,12.2718329 51.6466266,12.2182108 C51.3135804,12.1031671 51.0895726,11.7697353 51.0936787,11.3963307 C51.0977847,11.0224385 51.3290922,10.6948564 51.6648757,10.5885872 C51.8386985,10.5335027 51.9103263,10.510104 51.9021142,9.45374911 L51.9007455,9.17832664 C51.9007455,8.36619593 51.2830132,7.70615694 50.5238502,7.70615694 L41.5270397,7.70615694 Z M50.4745776,39 L41.4782233,39 C39.8380847,39 38.5036186,37.5741403 38.5036186,35.8221608 L38.5017937,35.5287018 C38.4954065,34.9554331 38.4881069,34.1978994 38.8234343,33.6017195 C38.4881069,33.005052 38.4954065,32.2480058 38.5017937,31.6747371 L38.5036186,31.3812781 L38.5017937,31.0883065 C38.4954065,30.5150378 38.4881069,29.7570167 38.8234343,29.1613242 C38.4881069,28.5646567 38.4954065,27.8066355 38.5017937,27.2338543 L38.5036186,26.9408828 L38.5017937,26.6474238 C38.4954065,26.0746425 38.4881069,25.3166214 38.8234343,24.7199539 C38.4881069,24.1242614 38.4954065,23.3662403 38.5017937,22.7929715 L38.5036186,22.5 L38.5017937,22.2070285 C38.4954065,21.6337597 38.4881069,20.8762261 38.8234343,20.2795586 C38.4881069,19.6833786 38.4954065,18.925845 38.5017937,18.3520887 L38.5036186,18.0591172 L38.5017937,17.7661457 C38.4954065,17.192877 38.4881069,16.4353433 38.8234343,15.8391633 C38.4881069,15.2424959 38.4954065,14.4849622 38.5017937,13.9116935 L38.5036186,13.6187219 L38.50225,13.3569487 C38.4976877,12.7627186 38.4917567,11.9749616 38.8498955,11.3665948 C38.5341859,10.7811392 38.5433105,10.0484667 38.5501539,9.49323446 L38.552435,9.17832664 C38.552435,7.42585973 39.8869011,6 41.5270397,6 L50.5238502,6 C52.1635326,6 53.4975425,7.42585973 53.4975425,9.17832664 L53.4989112,9.43961238 C53.5034734,10.0338425 53.5098606,10.822087 53.1512656,11.4299663 C53.4669752,12.0159094 53.4578507,12.7480944 53.4514635,13.3038141 L53.4487261,13.6187219 L53.4510073,13.9121809 C53.456482,14.4854497 53.4642379,15.2429833 53.1289105,15.8391633 C53.4642379,16.4348558 53.456482,17.1923895 53.4510073,17.7656582 L53.4487261,18.0591172 L53.4510073,18.3530637 C53.456482,18.9263324 53.4642379,19.6833786 53.1289105,20.2795586 C53.4642379,20.8757386 53.456482,21.6327848 53.4510073,22.2060535 L53.4487261,22.5 L53.4510073,22.7939465 C53.456482,23.3667277 53.4642379,24.1242614 53.1293667,24.7199539 C53.4642379,25.3166214 53.456482,26.074155 53.4510073,26.6464488 L53.4487261,26.9408828 L53.4510073,27.2348292 C53.456482,27.8076105 53.4642379,28.5651442 53.1289105,29.1613242 C53.4642379,29.7570167 53.456482,30.5145503 53.4510073,31.0878191 L53.4487261,31.3812781 L53.4510073,31.6752245 C53.456482,32.2484933 53.4642379,33.0055395 53.1289105,33.6017195 C53.4642379,34.1978994 53.456482,34.9549456 53.4510073,35.5282144 L53.4487261,35.8221608 C53.4487261,37.5741403 52.1147163,39 50.4745776,39 L50.4745776,39 Z" id="Fill-5" fill="#FEFEFE" fill-rule="nonzero"></path>
                <path d="M15.4461925,13.7021154 C15.4461925,12.6803072 15.5677055,11.8096455 14.6542135,11.5102499 C15.5939142,11.2272727 15.4971803,10.3435728 15.4971803,9.30341454 C15.4971803,8.0362951 14.4750413,7 13.225125,7 L3.82811802,7 C2.57820172,7 1.55558625,8.0362951 1.55558625,9.30341454 C1.55558625,10.3247399 1.43407323,11.1958845 2.34756524,11.4947972 C1.40786454,11.7777743 1.50412192,12.6614742 1.50412192,13.7021154 C1.50412192,14.7316499 1.39356889,15.6095551 2.31754438,15.9017073 C1.39356889,16.1938594 1.50412192,17.0712817 1.50412192,18.1008163 C1.50412192,19.1308337 1.39356889,20.0087389 2.31754438,20.3004081 C1.39356889,20.5930432 1.50412192,21.4704654 1.50412192,22.5 C1.50412192,23.5300174 1.39356889,24.4074397 2.31754438,24.699109 C1.39356889,24.991744 1.50412192,25.8691663 1.50412192,26.8991837 C1.50412192,27.9287183 1.39356889,28.8061406 2.31754438,29.0987756 C1.39356889,29.3904449 1.50412192,30.2683501 1.50412192,31.2978846 C1.50412192,32.327902 1.39356889,33.2053243 2.31754438,33.4974765 C1.39356889,33.7896286 1.50412192,34.6670509 1.50412192,35.6970684 C1.50412192,36.9637049 2.52721391,38 3.7771302,38 L13.1736607,38 C14.423577,38 15.4461925,36.9637049 15.4461925,35.6970684 C15.4461925,34.6670509 15.557222,33.7896286 14.63277,33.4974765 C15.557222,33.2053243 15.4461925,32.327902 15.4461925,31.2978846 C15.4461925,30.2683501 15.557222,29.3904449 14.63277,29.0987756 C15.557222,28.8061406 15.4461925,27.9287183 15.4461925,26.8991837 C15.4461925,25.8691663 15.557222,24.991744 14.63277,24.699109 C15.557222,24.4074397 15.4461925,23.5300174 15.4461925,22.5 C15.4461925,21.4704654 15.557222,20.5930432 14.63277,20.3004081 C15.557222,20.0087389 15.4461925,19.1308337 15.4461925,18.1008163 C15.4461925,17.0712817 15.557222,16.1938594 14.63277,15.9017073 C15.557222,15.6095551 15.4461925,14.7316499 15.4461925,13.7021154" id="Fill-7" fill="#CA2A1E" fill-rule="nonzero"></path>
                <g id="Group-11" transform="translate(1.500000, 6.000000)">
                    <g id="Fill-9-Clipped">
                        <mask id="mask-2" fill="white">
                            <use xlink:href="#path-1"></use>
                        </mask>
                        <g id="path-1"></g>
                        <path d="M3.01577273,1.84591324 C2.25895455,1.84591324 1.64304545,2.50300147 1.64304545,3.31150147 L1.64077273,3.64683971 C1.6285,4.63004559 1.69259091,4.65236912 1.84804545,4.70575147 C2.17940909,4.81979559 2.40259091,5.15173676 2.39895455,5.52395735 C2.39486364,5.89617794 2.16395455,6.22229559 1.82986364,6.32808971 C1.65668182,6.38292794 1.58531818,6.40573676 1.59304545,7.45736912 L1.59440909,7.73204559 L1.59213636,8.04214853 C1.58213636,9.05495735 1.64940909,9.07728088 1.81213636,9.13163382 C2.14395455,9.24228088 2.37031818,9.570825 2.37031818,9.94256029 C2.37031818,10.3138103 2.14395455,10.6423544 1.81213636,10.7530015 C1.64940909,10.8073544 1.58213636,10.8296779 1.59213636,11.8424868 L1.59440909,12.1525897 L1.59213636,12.4626926 C1.58213636,13.4759868 1.64895455,13.4983103 1.81168182,13.5521779 C2.14395455,13.662825 2.37031818,13.9908838 2.37031818,14.3631044 C2.37031818,14.7348397 2.14440909,15.0628985 1.81213636,15.1740309 C1.64940909,15.2278985 1.58213636,15.2502221 1.59213636,16.2635162 L1.59440909,16.5736191 L1.59213636,16.8837221 C1.58213636,17.8965309 1.64895455,17.9188544 1.81168182,17.9727221 C2.14395455,18.0833691 2.37031818,18.4119132 2.37031818,18.7836485 C2.37031818,19.1553838 2.14440909,19.4839279 1.81213636,19.594575 C1.64940909,19.6489279 1.58213636,19.6707662 1.59213636,20.6840603 L1.59440909,20.9946485 L1.59213636,21.3047515 C1.58213636,22.3180456 1.64940909,22.3398838 1.81213636,22.3942368 C2.14440909,22.5048838 2.37031818,22.8334279 2.37031818,23.2051632 C2.37031818,23.5768985 2.14395455,23.9049574 1.81168182,24.0160897 C1.64895455,24.0699574 1.58213636,24.0922809 1.59213636,25.1050897 L1.59440909,25.4151926 L1.59213636,25.7257809 C1.58213636,26.7385897 1.64940909,26.7609132 1.81213636,26.8147809 C2.14440909,26.9259132 2.37031818,27.2539721 2.37031818,27.6257074 C2.37031818,27.9979279 2.14395455,28.3255015 1.81168182,28.4366338 C1.64895455,28.4905015 1.58213636,28.512825 1.59213636,29.5256338 L1.59440909,29.8362221 C1.59440909,30.6442368 2.21031818,31.301325 2.96713636,31.301325 L11.9303182,31.301325 C12.6866818,31.301325 13.3025909,30.6442368 13.3025909,29.8362221 L13.3048636,29.5246632 C13.3148636,28.512825 13.2480455,28.4905015 13.0853182,28.4366338 C12.7530455,28.3259868 12.5266818,27.9979279 12.5266818,27.6257074 C12.5266818,27.2539721 12.7530455,26.9259132 13.0848636,26.8147809 C13.2480455,26.7609132 13.3148636,26.7385897 13.3048636,25.7267515 L13.3025909,25.4151926 L13.3048636,25.1041191 C13.3148636,24.0922809 13.2480455,24.0699574 13.0853182,24.0160897 C12.7530455,23.9054426 12.5266818,23.5768985 12.5266818,23.2051632 C12.5266818,22.8334279 12.7530455,22.5048838 13.0848636,22.3942368 C13.2480455,22.3398838 13.3148636,22.3180456 13.3048636,21.3057221 L13.3025909,20.9946485 L13.3048636,20.6830897 C13.3148636,19.6707662 13.2480455,19.6489279 13.0848636,19.594575 C12.7530455,19.4839279 12.5266818,19.1553838 12.5266818,18.7836485 C12.5266818,18.4119132 12.7530455,18.0833691 13.0853182,17.9727221 C13.2480455,17.9188544 13.3148636,17.8965309 13.3048636,16.8846926 L13.3025909,16.5736191 L13.3048636,16.2625456 C13.3148636,15.2502221 13.2480455,15.2278985 13.0848636,15.1740309 C12.7530455,15.0628985 12.5266818,14.7348397 12.5266818,14.3631044 C12.5266818,13.9908838 12.7530455,13.662825 13.0853182,13.5521779 C13.2480455,13.4983103 13.3148636,13.4759868 13.3048636,12.4636632 L13.3025909,12.1525897 L13.3048636,11.8415162 C13.3148636,10.8296779 13.2480455,10.8073544 13.0853182,10.7530015 C12.7530455,10.6423544 12.5266818,10.3138103 12.5266818,9.94256029 C12.5266818,9.570825 12.7530455,9.24228088 13.0853182,9.13163382 C13.2480455,9.07728088 13.3148636,9.05495735 13.3048636,8.04311912 L13.3025909,7.73204559 L13.3053182,7.39622206 C13.3171364,6.41350147 13.2530455,6.39117794 13.0980455,6.33779559 C12.7662273,6.22326618 12.5430455,5.891325 12.5471364,5.51958971 C12.5512273,5.14736912 12.7816818,4.82125147 13.1162273,4.71545735 C13.2894091,4.66061912 13.3607727,4.637325 13.3525909,3.58569265 L13.3512273,3.31150147 C13.3512273,2.50300147 12.7357727,1.84591324 11.9794091,1.84591324 L3.01577273,1.84591324 Z M11.9303182,32.9998544 L2.96713636,32.9998544 C1.33304545,32.9998544 0.0035,31.5803691 0.0035,29.8362221 L0.00168181818,29.544075 C-0.00468181818,28.9733691 -0.0119545455,28.2192221 0.322136364,27.6257074 C-0.0119545455,27.0317074 -0.00468181818,26.2780456 0.00168181818,25.7073397 L0.0035,25.4151926 L0.00168181818,25.1235309 C-0.00468181818,24.552825 -0.0119545455,23.7981926 0.322136364,23.2051632 C-0.0119545455,22.6111632 -0.00468181818,21.8565309 0.00168181818,21.2863103 L0.0035,20.9946485 L0.00168181818,20.7025015 C-0.00468181818,20.1322809 -0.0119545455,19.3776485 0.322136364,18.7836485 C-0.0119545455,18.1906191 -0.00468181818,17.4359868 0.00168181818,16.8652809 L0.0035,16.5736191 L0.00168181818,16.2819574 C-0.00468181818,15.7112515 -0.0119545455,14.9571044 0.322136364,14.3631044 C-0.0119545455,13.7695897 -0.00468181818,13.0154426 0.00168181818,12.4442515 L0.0035,12.1525897 L0.00168181818,11.8609279 C-0.00468181818,11.2902221 -0.0119545455,10.536075 0.322136364,9.94256029 C-0.0119545455,9.34856029 -0.00468181818,8.59441324 0.00168181818,8.02370735 L0.0035,7.73204559 L0.00213636364,7.47144265 C-0.00240909091,6.87986912 -0.00831818182,6.09563382 0.3485,5.48998676 C0.0339545455,4.90714853 0.0430454545,4.17775147 0.0498636364,3.62500147 L0.0521363636,3.31150147 C0.0521363636,1.56686912 1.38168182,0.147383824 3.01577273,0.147383824 L11.9794091,0.147383824 C13.6130455,0.147383824 14.9421364,1.56686912 14.9421364,3.31150147 L14.9435,3.57161912 C14.9480455,4.16319265 14.9544091,4.94791324 14.5971364,5.553075 C14.9116818,6.13639853 14.9025909,6.86531029 14.8962273,7.41854559 L14.8935,7.73204559 L14.8957727,8.02419265 C14.9012273,8.59489853 14.9089545,9.34904559 14.5748636,9.94256029 C14.9089545,10.5355897 14.9012273,11.2897368 14.8957727,11.8604426 L14.8935,12.1525897 L14.8957727,12.4452221 C14.9012273,13.0159279 14.9089545,13.7695897 14.5748636,14.3631044 C14.9089545,14.9566191 14.9012273,15.7102809 14.8957727,16.2809868 L14.8935,16.5736191 L14.8957727,16.8657662 C14.9012273,17.4364721 14.9089545,18.1906191 14.5748636,18.7836485 C14.9089545,19.3776485 14.9012273,20.1317956 14.8957727,20.7020162 L14.8935,20.9946485 L14.8957727,21.2872809 C14.9012273,21.8575015 14.9089545,22.6116485 14.5748636,23.2051632 C14.9089545,23.7981926 14.9012273,24.5523397 14.8957727,25.1230456 L14.8935,25.4151926 L14.8957727,25.707825 C14.9012273,26.2785309 14.9089545,27.0321926 14.5748636,27.6257074 C14.9089545,28.2192221 14.9012273,28.9728838 14.8957727,29.5435897 L14.8935,29.8362221 C14.8935,31.5803691 13.5644091,32.9998544 11.9303182,32.9998544 L11.9303182,32.9998544 Z" id="Fill-9" fill="#FEFEFE" fill-rule="nonzero" mask="url(#mask-2)"></path>
                    </g>
                </g>
                <path d="M16.5,23.5 L38.5,23.5" id="Line-2" stroke="#FFFFFF" stroke-width="1.5" stroke-linecap="square"></path>
                <path d="M2.3911686,1.94505227 L2.3911686,6.05300267 L51.6088314,5.94067591 L51.6088314,1.94505227 L2.3911686,1.94505227 Z M1.4455843,8 C1.19547725,8 0.954826048,7.89788476 0.777528992,7.71602237 C0.599759144,7.53367372 0.5,7.28567955 0.5,7.02747386 L0.5,0.972526137 C0.5,0.435691709 0.923621766,0 1.4455843,0 L52.5544157,0 C53.0763782,0 53.5,0.435691709 53.5,0.972526137 L53.5,6.91077073 C53.5,7.44711889 53.0777966,7.88232434 52.5563069,7.88329686 L1.44794826,8 L1.4455843,8 Z" id="Fill-12" fill="#FEFEFE" fill-rule="nonzero"></path>
            </g>
        </g>
    </g>
</svg>