<svg width="57" height="61" xmlns="http://www.w3.org/2000/svg" xmlns:xlink="http://www.w3.org/1999/xlink"><defs><path id="a" d="M.008.05h43.863v48.942H.008z"/></defs><g fill="none" fill-rule="evenodd"><g transform="translate(0 12)"><mask id="b" fill="#fff"><use xlink:href="#a"/></mask><path d="M34.739 28.948a1.13 1.13 0 0 0-.506.95v5.738H22.008v-5.807a1.13 1.13 0 0 0-.506-.949 15.834 15.834 0 0 1-6.995-12.923c.216-7.553 6.486-13.5 14.005-13.282 7.215.208 13.015 6.034 13.222 13.282a15.834 15.834 0 0 1-6.995 12.957v.034zm-.506 11.907H22.008v-2.994h12.214l.01 2.994zm-3.441 5.92h-5.354l-2.451-3.66h10.245l-2.44 3.66zM28.115.05c-8.761.007-15.862 7.14-15.868 15.94a18.167 18.167 0 0 0 7.501 14.47v11.512c.004.132.03.262.079.384v.09c.02.047.042.093.067.136l3.959 5.92c.21.311.56.498.933.497h6.545c.374 0 .724-.186.934-.497l3.958-5.92c.026-.043.048-.089.068-.135v-.09c.048-.123.075-.253.079-.385v-11.51a18.167 18.167 0 0 0 7.5-14.471C43.866 7.234 36.833.119 28.116.05z" fill="#000" mask="url(#b)"/><path d="M28.565 5.168c-.621 0-1.125.506-1.125 1.13 0 .624.504 1.13 1.125 1.13 4.674.006 8.462 3.81 8.468 8.506 0 .624.504 1.13 1.125 1.13.62 0 1.124-.506 1.124-1.13-.006-5.943-4.8-10.76-10.717-10.766M10.346 15.934c0-.624-.503-1.13-1.124-1.13H1.125c-.621 0-1.125.506-1.125 1.13 0 .624.504 1.13 1.125 1.13h8.097c.62 0 1.124-.506 1.124-1.13" fill="#000" mask="url(#b)"/></g><path d="M55.913 27h-7.826c-.6 0-1.087.448-1.087 1s.487 1 1.087 1h7.826c.6 0 1.087-.448 1.087-1s-.487-1-1.087-1M14.05 40.365L8.387 46.05a1.108 1.108 0 1 0 1.563 1.563l5.663-5.663a1.108 1.108 0 1 0-1.563-1.563v-.022m28.079-25.376c.301.001.591-.117.805-.329l5.793-5.79a1.133 1.133 0 0 0-1.598-1.598l-5.794 5.79A1.133 1.133 0 0 0 42.14 15l-.011-.011m.809 25.395a1.103 1.103 0 0 0-1.553-.12 1.098 1.098 0 0 0 0 1.67l5.628 5.62a1.103 1.103 0 0 0 1.54.23 1.099 1.099 0 0 0 .013-1.759l-5.628-5.64m-28.824-25.66a1.143 1.143 0 0 0 1.611-1.611l-5.839-5.84a1.143 1.143 0 0 0-1.611 1.612l5.839 5.84M29 10c.552 0 1-.484 1-1.08V1.08C30 .484 29.552 0 29 0s-1 .484-1 1.08v7.808c-.016.596.418 1.094.97 1.111L29 10" fill="#000"/></g></svg>