<svg width="108" height="83" xmlns="http://www.w3.org/2000/svg" xmlns:xlink="http://www.w3.org/1999/xlink"><defs><path id="a" d="M0 0h54v50H0z"/></defs><g fill="none" fill-rule="evenodd"><circle fill="#CD171A" fill-rule="nonzero" cx="66.5" cy="41.5" r="41.5"/><circle fill="#CD171A" fill-rule="nonzero" cx="20.5" cy="20.5" r="20.5"/><g transform="translate(44 16)"><mask id="b" fill="#fff"><use xlink:href="#a"/></mask><path d="M15.281 43.333c-.938 0-1.698.745-1.698 1.667 0 .921.76 1.667 1.698 1.667.939 0 1.698-.746 1.698-1.667 0-.922-.76-1.667-1.698-1.667zM1.698 41.667h13.26c.152.204.31.404.495.588.26.251.584.414.938.47l12.425 1.923c-.25 2.07-2.024 3.685-4.196 3.685H5.943c-2.341 0-4.245-1.868-4.245-4.167v-2.5zm38.657-28.513a2.294 2.294 0 0 1 1.563.521l6.872 5.846c2.16 1.84 3.405 4.396 3.509 7.201.101 2.804-.956 5.443-2.978 7.427l-7.191 7.055c-2.105 2.067-5.12 3.027-8.059 2.57l-17.414-2.697a2.588 2.588 0 0 1-.686-2.627 2.65 2.65 0 0 1 2.027-1.848l6.984-1.494 1.476 1.448a.85.85 0 0 0 .599.244c.22 0 .435-.081.6-.244a.819.819 0 0 0 0-1.179l-1.84-1.802L10.93 18.879a2.47 2.47 0 0 1 .011-3.537 2.545 2.545 0 0 1 1.798-.733c.68 0 1.322.262 1.804.733l10.462 10.272c.14.186.293.363.46.528l1.006.982a.856.856 0 0 0 1.202 0 .82.82 0 0 0 0-1.175l-1.007-.984a2.964 2.964 0 0 1-.171-.186.941.941 0 0 0-.16-.218l-.02-.02a2.743 2.743 0 0 1 .339-3.489l.016-.015a2.857 2.857 0 0 1 3.64-.295l1.673 1.173a.865.865 0 0 0 1.14-.14.826.826 0 0 0-.05-1.131 2.47 2.47 0 0 1-.082-3.45 2.591 2.591 0 0 1 3.13-.231l1.215.793.302.3.005.004a.861.861 0 0 0 1.201 0 .823.823 0 0 0 0-1.179v-.003a2.157 2.157 0 0 1-.653-1.536c0-.584.231-1.128.649-1.54.418-.406.967-.62 1.515-.648zM1.698 8.334h27.167V18.57a4.573 4.573 0 0 0-3.383 1.273 4.409 4.409 0 0 0-1.303 2.604l-8.437-8.285a4.254 4.254 0 0 0-3.003-1.221 4.26 4.26 0 0 0-3.006 1.229 4.12 4.12 0 0 0-.01 5.885l13.112 12.94c.006.006.01.015.021.025l.7.69-5.92 1.264c-1.599.338-2.828 1.464-3.293 3.006a4.214 4.214 0 0 0-.1 2.019H1.699V8.333zm14.433-5a.841.841 0 0 0-.85.833.84.84 0 0 0 .85.832h3.396a.84.84 0 0 0 .848-.832.84.84 0 0 0-.848-.834H16.13zm-5.095 0a.84.84 0 0 0-.848.833.84.84 0 0 0 .848.832h1.699a.84.84 0 0 0 .848-.832.84.84 0 0 0-.848-.834h-1.699zM5.943 1.665H24.62c2.341 0 4.245 1.87 4.245 4.167v.833H1.698v-.833c0-2.298 1.904-4.167 4.245-4.167zm0-1.666C2.666 0 0 2.617 0 5.833v38.333C0 47.383 2.666 50 5.943 50H24.62c3.018 0 5.514-2.223 5.89-5.087l3.296.51a11.196 11.196 0 0 0 9.527-3.04l7.187-7.059c2.358-2.313 3.591-5.389 3.472-8.662-.119-3.273-1.572-6.256-4.092-8.4l-6.88-5.853c-1.563-1.303-3.927-1.207-5.381.218a3.794 3.794 0 0 0-1.146 2.638 4.314 4.314 0 0 0-4.47.55.743.743 0 0 0-.153.116l-.165.163a.74.74 0 0 0-.121.145 4.148 4.148 0 0 0-.955 2.759c-.02-.01-.047-.015-.066-.027V5.833C30.563 2.617 27.893 0 24.62 0H5.943z" fill="#FEFEFE" fill-rule="nonzero" mask="url(#b)"/></g><text fill="#FFF" font-family="TisaSansOT, Tisa Sans OT" font-size="25"><tspan x="13.3" y="26">1</tspan></text></g></svg>