<svg width="57" height="56" xmlns="http://www.w3.org/2000/svg" xmlns:xlink="http://www.w3.org/1999/xlink"><defs><filter x="-24.5%" y="-25%" width="149%" height="150%" filterUnits="objectBoundingBox" id="a"><feOffset dy="2" in="SourceAlpha" result="shadowOffsetOuter1"/><feGaussianBlur stdDeviation="2" in="shadowOffsetOuter1" result="shadowBlurOuter1"/><feColorMatrix values="0 0 0 0 0 0 0 0 0 0 0 0 0 0 0 0 0 0 0.5 0" in="shadowBlurOuter1" result="shadowMatrixOuter1"/><feMerge><feMergeNode in="shadowMatrixOuter1"/><feMergeNode in="SourceGraphic"/></feMerge></filter><path id="b" d="M0 0h49v48H0z"/></defs><g filter="url(#a)" transform="translate(4 2)" fill="none" fill-rule="evenodd"><mask id="c" fill="#fff"><use xlink:href="#b"/></mask><path d="M47.935 21.752a3.612 3.612 0 0 0 .889-3.678c-.414-1.313-1.502-2.253-2.837-2.45L34.122 13.86a1.534 1.534 0 0 1-1.166-.866L27.652 2C27.054.768 25.848 0 24.5 0a3.483 3.483 0 0 0-3.15 2.001l-5.303 10.994a1.55 1.55 0 0 1-1.17.866L3.01 15.628c-1.334.193-2.417 1.133-2.836 2.446a3.623 3.623 0 0 0 .888 3.678l8.586 8.558c.368.366.532.888.445 1.406L8.07 43.796a3.598 3.598 0 0 0 1.395 3.51 3.43 3.43 0 0 0 3.705.278l10.61-5.705c.45-.246.991-.246 1.445 0l10.61 5.705a3.436 3.436 0 0 0 3.7-.277c1.093-.81 1.625-2.152 1.4-3.511l-2.03-12.08a1.608 1.608 0 0 1 .45-1.406l8.581-8.558zM36.974 32.055l2.023 12.08a1.574 1.574 0 0 1-.618 1.552 1.502 1.502 0 0 1-1.63.12l-10.614-5.705a3.479 3.479 0 0 0-1.635-.413 3.47 3.47 0 0 0-1.636.413l-10.61 5.705a1.51 1.51 0 0 1-1.635-.12 1.591 1.591 0 0 1-.617-1.552l2.027-12.08a3.65 3.65 0 0 0-1.01-3.182l-8.587-8.558a1.58 1.58 0 0 1-.392-1.625 1.54 1.54 0 0 1 1.252-1.082l11.865-1.76a3.511 3.511 0 0 0 2.647-1.965l5.305-10.994a1.516 1.516 0 0 1 1.39-.883c.604 0 1.124.33 1.39.883l5.31 10.994a3.503 3.503 0 0 0 2.641 1.965l11.867 1.76c.598.09 1.063.496 1.252 1.082.183.585.04 1.196-.393 1.625l-8.586 8.558a3.627 3.627 0 0 0-1.006 3.182z" fill="#CD171A" mask="url(#c)"/></g></svg>