<?xml version="1.0" standalone="no"?>
<!DOCTYPE svg PUBLIC "-//W3C//DTD SVG 1.1//EN" "http://www.w3.org/Graphics/SVG/1.1/DTD/svg11.dtd" >
<svg xmlns="http://www.w3.org/2000/svg" xmlns:xlink="http://www.w3.org/1999/xlink" version="1.1">
<metadata>
Created by FontForge 20170731 at Mon Feb 25 03:00:00 2019
 By Aleksey,,,
Copyright (c) 2014-2019 by Gayane Bagdasaryan, Vyacheslav Kirilenko. All rights reserved.
</metadata>
<defs>
<font id="Formular" horiz-adv-x="856" >
  <font-face 
    font-family="Formular"
    font-weight="400"
    font-stretch="normal"
    units-per-em="1000"
    panose-1="2 0 0 0 0 0 0 0 0 0"
    ascent="800"
    descent="-200"
    x-height="504"
    cap-height="714"
    bbox="-134 -220 1396 970"
    underline-thickness="50"
    underline-position="-200"
    unicode-range="U+000D-FB02"
  />
<missing-glyph horiz-adv-x="528" 
d="M58 0v714h412v-714h-412zM126 63h276v588h-276v-588z" />
    <glyph glyph-name="fi" unicode="fi" horiz-adv-x="645" 
d="M351 430h-140v-430h-85v430h-99v74h99v66q0 84 40 120.5t126 36.5h67v-76h-62q-46 0 -66 -19.5t-20 -65.5v-62h140v-74zM567 627h-98v100h98v-100zM560 504v-504h-85v504h85z" />
    <glyph glyph-name="fl" unicode="fl" horiz-adv-x="640" 
d="M351 430h-140v-430h-85v430h-99v74h99v66q0 84 40 120.5t126 36.5h67v-76h-62q-46 0 -66 -19.5t-20 -65.5v-62h140v-74zM473 727h85v-727h-85v727z" />
    <glyph glyph-name=".notdef" horiz-adv-x="528" 
d="M58 0v714h412v-714h-412zM126 63h276v588h-276v-588z" />
    <glyph glyph-name=".null" horiz-adv-x="0" 
 />
    <glyph glyph-name="nonmarkingreturn" horiz-adv-x="333" 
 />
    <glyph glyph-name="NULL" horiz-adv-x="0" 
 />
    <glyph glyph-name="NULL" horiz-adv-x="0" 
 />
    <glyph glyph-name="CR" unicode="&#xd;" horiz-adv-x="278" 
 />
    <glyph glyph-name="space" unicode=" " horiz-adv-x="278" 
 />
    <glyph glyph-name="exclam" unicode="!" horiz-adv-x="314" 
d="M112 714h90v-295l-17 -230h-57l-16 230v295zM209 0h-104v116h104v-116z" />
    <glyph glyph-name="quotedbl" unicode="&#x22;" horiz-adv-x="396" 
d="M78 460v254h81v-254h-81zM237 460v254h81v-254h-81z" />
    <glyph glyph-name="numbersign" unicode="#" horiz-adv-x="599" 
d="M75 506h113l35 194h71l-35 -194h136l35 194h71l-35 -194h99v-68h-111l-30 -176h101v-68h-113l-35 -194h-72l35 194h-135l-35 -194h-72l35 194h-100v68h112l31 176h-101v68zM247 438l-30 -176h135l31 176h-136z" />
    <glyph glyph-name="dollar" unicode="$" horiz-adv-x="630" 
d="M282 798h60v-86q91 -8 146 -58t65 -129h-84q-24 98 -127 109v-234l48 -9q181 -37 181 -194q0 -81 -59.5 -141t-169.5 -68v-86h-60v87q-102 8 -164 64t-70 143h87q18 -113 147 -129v259l-27 5q-82 13 -131.5 59t-49.5 126q0 78 55 133.5t153 63.5v85zM366 313l-24 4v-251
q63 5 102 40t39 89q0 99 -117 118zM274 413l8 -2v223q-52 -6 -86 -37t-34 -78q0 -84 112 -106z" />
    <glyph glyph-name="percent" unicode="%" horiz-adv-x="880" 
d="M267 0h-77l424 700h76zM209 714q77 0 119 -53.5t42 -135.5t-42 -135.5t-119 -53.5t-119 53.5t-42 135.5t42 135.5t119 53.5zM209 399q45 0 68.5 34.5t23.5 91.5t-23.5 91.5t-68.5 34.5t-68.5 -34.5t-23.5 -91.5t23.5 -91.5t68.5 -34.5zM670 365q77 0 119 -53.5t42 -135.5
t-42 -135.5t-119 -53.5t-119 53.5t-42 135.5t42 135.5t119 53.5zM670 50q45 0 68.5 34.5t23.5 91.5t-23.5 91.5t-68.5 34.5t-68.5 -34.5t-23.5 -91.5t23.5 -91.5t68.5 -34.5z" />
    <glyph glyph-name="ampersand" unicode="&#x26;" horiz-adv-x="719" 
d="M540 330h84q-13 -109 -72 -193l133 -137h-108l-67 69h-20q-88 -82 -201 -82q-102 0 -166.5 52.5t-64.5 146.5q0 58 28.5 105t71.5 75l29 19v20l-20 23q-55 63 -55 131q0 69 46.5 112t121.5 43q77 0 127.5 -42t50.5 -111q0 -84 -99 -153l-41 -29l177 -183q36 61 45 134z
M288 65q93 0 159 69l-195 203l-35 -23q-75 -48 -75 -127q0 -57 42 -89.5t104 -32.5zM241 459l28 -30l41 30q66 48 66 101q0 37 -27 59t-67 22t-64 -21t-24 -61q0 -49 47 -100z" />
    <glyph glyph-name="quotesingle" unicode="'" horiz-adv-x="237" 
d="M78 460v254h81v-254h-81z" />
    <glyph glyph-name="parenleft" unicode="(" horiz-adv-x="294" 
d="M128 312q0 -239 161 -453h-82q-159 188 -159 453q0 254 152 447h82q-154 -210 -154 -447z" />
    <glyph glyph-name="parenright" unicode=")" horiz-adv-x="294" 
d="M166 312q0 237 -154 447h82q152 -193 152 -447q0 -265 -159 -453h-82q161 214 161 453z" />
    <glyph glyph-name="asterisk" unicode="*" horiz-adv-x="475" 
d="M204 714h67l-5 -169l160 58l21 -65l-162 -48l103 -133l-55 -41l-96 139l-95 -139l-55 41l103 133l-161 48l21 65l159 -58z" />
    <glyph glyph-name="plus" unicode="+" horiz-adv-x="683" 
d="M378 538v-217h218v-73h-218v-217h-73v217h-218v73h218v217h73z" />
    <glyph glyph-name="comma" unicode="," horiz-adv-x="258" 
d="M125 0h-48v116h104v-133l-56 -98h-56l56 98v17z" />
    <glyph glyph-name="hyphen" unicode="-" horiz-adv-x="371" 
d="M322 240h-273v75h273v-75z" />
    <glyph glyph-name="period" unicode="." horiz-adv-x="258" 
d="M181 0h-104v116h104v-116z" />
    <glyph glyph-name="slash" unicode="/" horiz-adv-x="406" 
d="M79 -141h-80l302 900h77z" />
    <glyph glyph-name="zero" unicode="0" horiz-adv-x="625" 
d="M312 714q117 0 187.5 -91.5t70.5 -272.5t-70.5 -272t-187.5 -91t-187 91t-70 272q0 182 70 273t187 91zM312 65q85 0 127.5 75.5t42.5 209.5q0 135 -42.5 210.5t-127.5 75.5t-127 -75.5t-42 -210.5q0 -134 42 -209.5t127 -75.5z" />
    <glyph glyph-name="one" unicode="1" horiz-adv-x="504" 
d="M59 0v78h166v530h-18l-149 -99v92l148 99h107v-622h153v-78h-407z" />
    <glyph glyph-name="two" unicode="2" horiz-adv-x="577" 
d="M140 507h-88q6 101 70.5 154t162.5 53q105 0 166 -57t61 -156q0 -79 -43 -138t-139 -140l-148 -125v-20h348v-78h-476v98l206 171q93 78 128.5 125.5t35.5 106.5q0 65 -38 100t-103 35q-61 0 -98.5 -32.5t-44.5 -96.5z" />
    <glyph glyph-name="three" unicode="3" horiz-adv-x="569" 
d="M79 700h409v-96l-173 -154v-19q91 -2 148.5 -58.5t57.5 -154.5q0 -107 -69 -169t-178 -62q-105 0 -172 59t-73 150h88q6 -59 49.5 -95t107.5 -36q73 0 116 41t43 112q0 70 -41 109.5t-117 39.5q-37 0 -61 -6v91l169 152v20h-304v76z" />
    <glyph glyph-name="four" unicode="4" horiz-adv-x="612" 
d="M471 242h96v-78h-96v-164h-86v164h-346v98l311 438h121v-458zM130 242h256v353h-20l-236 -333v-20z" />
    <glyph glyph-name="five" unicode="5" horiz-adv-x="595" 
d="M316 471q103 0 164.5 -67t61.5 -167q0 -113 -66.5 -181.5t-173.5 -68.5q-111 0 -174.5 58t-69.5 151h87q8 -64 48 -97.5t105 -33.5q70 0 113 45.5t43 122.5q0 73 -41.5 118.5t-111.5 45.5q-94 0 -139 -66h-88l31 369h400v-76h-329l-16 -203h20q55 50 136 50z" />
    <glyph glyph-name="six" unicode="6" horiz-adv-x="593" 
d="M325 456q97 0 161 -64.5t64 -163.5q0 -103 -64.5 -172t-173.5 -69q-119 0 -188 82t-69 262q0 169 67.5 276t198.5 107q87 0 142.5 -46.5t67.5 -120.5h-87q-26 89 -123 89q-83 0 -130 -66.5t-51 -182.5h20q58 69 165 69zM311 65q66 0 108.5 42t42.5 117t-43 115t-110 40
q-66 0 -109 -41t-43 -113q0 -74 44 -117t110 -43z" />
    <glyph glyph-name="seven" unicode="7" horiz-adv-x="548" 
d="M495 604l-303 -604h-92l304 604v20h-355v76h446v-96z" />
    <glyph glyph-name="eight" unicode="8" horiz-adv-x="611" 
d="M448 379v-20q41 -14 75.5 -59t34.5 -109q0 -88 -69.5 -146t-183.5 -58t-183.5 58t-69.5 146q0 64 34.5 109t75.5 59v20q-33 14 -61 53.5t-28 94.5q0 83 65 135t167 52t167 -52t65 -135q0 -54 -28 -93t-61 -55zM305 638q-63 0 -104.5 -30.5t-41.5 -84.5t41.5 -85
t104.5 -31t104.5 31t41.5 85t-41.5 84.5t-104.5 30.5zM305 65q77 0 121.5 36.5t44.5 97.5q0 62 -44 97t-122 35t-122 -35t-44 -97q0 -61 44.5 -97.5t121.5 -36.5z" />
    <glyph glyph-name="nine" unicode="9" horiz-adv-x="593" 
d="M268 245q-97 0 -161 64.5t-64 163.5q0 103 64.5 172t173.5 69q119 0 188 -82t69 -262q0 -169 -67.5 -276t-198.5 -107q-87 0 -142.5 46.5t-67.5 120.5h87q26 -89 123 -89q83 0 130 66.5t51 182.5h-20q-23 -28 -65 -48.5t-100 -20.5zM282 636q-66 0 -108.5 -42t-42.5 -117
t43 -115t110 -40q66 0 109 41t43 113q0 74 -44 117t-110 43z" />
    <glyph glyph-name="colon" unicode=":" horiz-adv-x="258" 
d="M181 0h-104v116h104v-116zM181 388h-104v116h104v-116z" />
    <glyph glyph-name="semicolon" unicode=";" horiz-adv-x="258" 
d="M125 0h-48v116h104v-133l-56 -98h-56l56 98v17zM181 388h-104v116h104v-116z" />
    <glyph glyph-name="less" unicode="&#x3c;" horiz-adv-x="683" 
d="M596 105v-76l-509 221v67l509 221v-76l-391 -169v-20z" />
    <glyph glyph-name="equal" unicode="=" horiz-adv-x="683" 
d="M596 221v-73h-509v73h509zM596 420v-73h-509v73h509z" />
    <glyph glyph-name="greater" unicode="&#x3e;" horiz-adv-x="683" 
d="M87 105l391 168v20l-391 169v76l509 -221v-67l-509 -221v76z" />
    <glyph glyph-name="question" unicode="?" horiz-adv-x="547" 
d="M267 727q98 0 156.5 -52.5t58.5 -140.5q0 -36 -8 -64t-27.5 -51.5t-36.5 -38t-50 -39.5q-40 -31 -52.5 -50.5t-12.5 -65.5v-36h-86v36q0 62 20.5 95t75.5 75q48 34 69.5 63.5t21.5 75.5q0 49 -34.5 84t-93.5 35q-129 0 -136 -133h-86q4 97 62.5 152t158.5 55zM304 0h-104
v116h104v-116z" />
    <glyph glyph-name="at" unicode="@" horiz-adv-x="977" 
d="M668 -64l25 -52q-117 -74 -264 -74q-174 0 -273 104t-99 277q0 216 137 359.5t357 143.5q158 0 264 -92.5t106 -248.5q0 -128 -65.5 -222t-170.5 -94q-73 0 -96 57h-18q-53 -57 -129 -57q-75 0 -118 47t-43 131q0 101 60.5 175.5t155.5 74.5q38 0 66.5 -15t39.5 -34h18
l8 35h71l-42 -254l-2 -21q-3 -21 -3 -30q0 -27 10.5 -39.5t35.5 -12.5q58 0 108 69t50 183q0 131 -84 210.5t-234 79.5q-171 0 -294.5 -123t-123.5 -309q0 -68 17 -126.5t52.5 -106.5t98.5 -75.5t147 -27.5q120 0 232 68zM456 102q59 0 98 51.5t39 131.5q0 115 -96 115
q-59 0 -97.5 -56t-38.5 -126q0 -53 23.5 -84.5t71.5 -31.5z" />
    <glyph glyph-name="A" unicode="A" horiz-adv-x="687" 
d="M573 0l-76 219h-310l-75 -219h-92l251 714h144l252 -714h-94zM326 622l-111 -321h254l-111 321h-32z" />
    <glyph glyph-name="B" unicode="B" horiz-adv-x="701" 
d="M551 387v-20q45 -21 73 -66.5t28 -99.5q0 -90 -62 -145.5t-180 -55.5h-319v714h311q109 0 168.5 -51.5t59.5 -129.5q0 -103 -79 -146zM181 634v-223h219q139 0 139 114q0 56 -40 82.5t-101 26.5h-217zM181 80h223q69 0 113 29.5t44 98.5q0 65 -43.5 94.5t-112.5 29.5
h-224v-252z" />
    <glyph glyph-name="C" unicode="C" horiz-adv-x="718" 
d="M573 203h95q-23 -99 -96 -157.5t-187 -58.5q-156 0 -243 103t-87 267t88 267t243 103q108 0 180 -53.5t94 -146.5h-95q-42 118 -179 118q-118 0 -179 -83t-61 -205q0 -123 60.5 -205.5t178.5 -82.5q74 0 122 35.5t66 98.5z" />
    <glyph glyph-name="D" unicode="D" horiz-adv-x="743" 
d="M91 714h267q161 0 245.5 -96t84.5 -261t-85 -261t-245 -96h-267v714zM181 82h177q122 0 180.5 76.5t58.5 198.5t-58.5 198.5t-180.5 76.5h-177v-550z" />
    <glyph glyph-name="E" unicode="E" horiz-adv-x="652" 
d="M181 82h423v-82h-513v714h497v-82h-407v-221h328v-82h-328v-247z" />
    <glyph glyph-name="F" unicode="F" horiz-adv-x="634" 
d="M590 632h-409v-232h331v-82h-331v-318h-90v714h499v-82z" />
    <glyph glyph-name="G" unicode="G" horiz-adv-x="744" 
d="M373 379h313v-72q0 -64 -17 -119.5t-51.5 -101.5t-94 -72.5t-137.5 -26.5q-157 0 -244 104t-87 266q0 163 88 266.5t245 103.5q111 0 183 -51.5t93 -143.5h-94q-37 113 -182 113q-119 0 -180.5 -82t-61.5 -206q0 -79 24 -142.5t80 -104.5t137 -41q105 0 156 61t51 156v13
h-221v80z" />
    <glyph glyph-name="H" unicode="H" horiz-adv-x="761" 
d="M580 714h90v-714h-90v326h-399v-326h-90v714h90v-304h399v304z" />
    <glyph glyph-name="I" unicode="I" horiz-adv-x="284" 
d="M97 714h90v-714h-90v714z" />
    <glyph glyph-name="J" unicode="J" horiz-adv-x="582" 
d="M268 -13q-100 0 -161.5 59.5t-68.5 168.5h90q12 -146 142 -146q62 0 97.5 39.5t35.5 118.5v487h90v-486q0 -114 -59.5 -177.5t-165.5 -63.5z" />
    <glyph glyph-name="K" unicode="K" horiz-adv-x="718" 
d="M547 714h116l-248 -239l270 -475h-101l-227 399h-20l-156 -153v-246h-90v714h90v-356z" />
    <glyph glyph-name="L" unicode="L" horiz-adv-x="623" 
d="M181 85h401v-85h-491v714h90v-629z" />
    <glyph glyph-name="M" unicode="M" horiz-adv-x="862" 
d="M91 0v714h147l184 -353h20l181 353h148v-714h-88v612h-20l-186 -357h-92l-186 357h-20v-612h-88z" />
    <glyph glyph-name="N" unicode="N" horiz-adv-x="766" 
d="M587 714h88v-714h-140l-336 597h-20v-597h-88v714h140l336 -597h20v597z" />
    <glyph glyph-name="O" unicode="O" horiz-adv-x="776" 
d="M388 727q157 0 245 -105t88 -265t-88 -265t-245 -105q-158 0 -245.5 104.5t-87.5 265.5t87.5 265.5t245.5 104.5zM388 69q120 0 181 83t61 205t-61 205t-181 83t-181 -83t-61 -205t61 -205t181 -83z" />
    <glyph glyph-name="P" unicode="P" horiz-adv-x="687" 
d="M91 714h302q116 0 179 -56t63 -157q0 -102 -63 -158.5t-179 -56.5h-212v-286h-90v714zM181 366h197q166 0 166 134t-166 134h-197v-268z" />
    <glyph glyph-name="Q" unicode="Q" horiz-adv-x="786" 
d="M388 727q157 0 245 -105t88 -265q0 -167 -91 -270l97 -154h-92l-64 104q-80 -50 -183 -50q-158 0 -245.5 104.5t-87.5 265.5t87.5 265.5t245.5 104.5zM388 69q83 0 138 41l-126 205h87l93 -148q50 74 50 190q0 122 -61 205t-181 83t-181 -83t-61 -205t61 -205t181 -83z
" />
    <glyph glyph-name="R" unicode="R" horiz-adv-x="709" 
d="M642 506q0 -140 -119 -188l124 -318h-95l-117 299q-9 -1 -28 -1h-226v-298h-90v714h316q113 0 174 -54.5t61 -153.5zM551 506q0 63 -37 95.5t-120 32.5h-213v-256h213q83 0 120 32.5t37 95.5z" />
    <glyph glyph-name="S" unicode="S" horiz-adv-x="664" 
d="M288 422l129 -24q187 -38 187 -199q0 -88 -70.5 -150t-198.5 -62q-123 0 -201 59t-86 153h91q11 -68 65 -99t135 -31q76 0 125 34.5t49 93.5q0 96 -125 119l-126 23q-184 34 -184 187q0 86 66.5 143.5t184.5 57.5q109 0 178 -52.5t81 -140.5h-91q-26 111 -170 111
q-69 0 -113.5 -31t-44.5 -86q0 -85 119 -106z" />
    <glyph glyph-name="T" unicode="T" horiz-adv-x="597" 
d="M578 714v-80h-234v-634h-90v634h-236v80h560z" />
    <glyph glyph-name="U" unicode="U" horiz-adv-x="740" 
d="M561 714h90v-459q0 -128 -72.5 -198t-208.5 -70t-208.5 70t-72.5 198v459h90v-458q0 -86 49.5 -136.5t141.5 -50.5t141.5 50.5t49.5 136.5v458z" />
    <glyph glyph-name="V" unicode="V" horiz-adv-x="667" 
d="M253 0l-233 714h94l203 -622h36l203 622h91l-233 -714h-161z" />
    <glyph glyph-name="W" unicode="W" horiz-adv-x="910" 
d="M241 98l145 616h138l145 -616h20l123 616h88l-143 -714h-149l-144 616h-20l-144 -616h-147l-143 714h88l123 -616h20z" />
    <glyph glyph-name="X" unicode="X" horiz-adv-x="647" 
d="M338 420l161 294h95l-189 -345l220 -369h-99l-190 318h-27l-190 -318h-97l220 369l-189 345h97l161 -294h27z" />
    <glyph glyph-name="Y" unicode="Y" horiz-adv-x="643" 
d="M337 389l191 325h95l-257 -441v-273h-90v273l-257 441h99l191 -325h28z" />
    <glyph glyph-name="Z" unicode="Z" horiz-adv-x="645" 
d="M582 714v-101l-423 -511v-20h437v-82h-548v102l424 510v20h-397v82h507z" />
    <glyph glyph-name="bracketleft" unicode="[" horiz-adv-x="324" 
d="M266 -141h-189v900h189v-68h-109v-764h109v-68z" />
    <glyph glyph-name="backslash" unicode="\" horiz-adv-x="406" 
d="M407 -141h-80l-299 900h77z" />
    <glyph glyph-name="bracketright" unicode="]" horiz-adv-x="324" 
d="M247 -141h-189v68h109v764h-109v68h189v-900z" />
    <glyph glyph-name="asciicircum" unicode="^" horiz-adv-x="547" 
d="M121 294h-79l201 398h61l200 -398h-78l-145 288h-16z" />
    <glyph glyph-name="underscore" unicode="_" horiz-adv-x="505" 
d="M506 -133h-507v64h507v-64z" />
    <glyph glyph-name="grave" unicode="`" horiz-adv-x="264" 
d="M147 582l-108 145h100l86 -145h-78z" />
    <glyph glyph-name="a" unicode="a" horiz-adv-x="557" 
d="M403 0v54h-20q-53 -67 -158 -67q-84 0 -133 48t-49 116q0 69 48 118t145 49h164v20q0 48 -30 76.5t-93 28.5q-110 0 -117 -70h-85q4 68 59 106t141 38q97 0 152.5 -45t55.5 -129v-343h-80zM245 61q63 0 109 41t46 100v45h-151q-121 0 -121 -94q0 -43 30.5 -67.5
t86.5 -24.5z" />
    <glyph glyph-name="b" unicode="b" horiz-adv-x="615" 
d="M82 727h85v-278h20q53 68 153 68q103 0 163.5 -74.5t60.5 -190.5q0 -115 -60.5 -190t-163.5 -75q-102 0 -156 68h-20v-55h-82v727zM324 61q74 0 114.5 52.5t40.5 138.5t-40.5 138.5t-114.5 52.5q-79 0 -118.5 -55t-39.5 -136t39.5 -136t118.5 -55z" />
    <glyph glyph-name="c" unicode="c" horiz-adv-x="553" 
d="M423 150h85q-14 -75 -70 -119t-142 -44q-114 0 -179.5 74.5t-65.5 190.5q0 117 65 191t180 74q88 0 142 -42.5t67 -114.5h-85q-26 83 -124 83q-81 0 -120.5 -53.5t-39.5 -135.5q0 -83 40 -138t120 -55q106 0 127 89z" />
    <glyph glyph-name="d" unicode="d" horiz-adv-x="615" 
d="M448 727h85v-727h-82v55h-20q-54 -68 -156 -68q-103 0 -163.5 75t-60.5 190q0 116 60.5 190.5t163.5 74.5q100 0 153 -68h20v278zM291 61q79 0 118.5 55t39.5 136t-39.5 136t-118.5 55q-74 0 -114.5 -52.5t-40.5 -138.5t40.5 -138.5t114.5 -52.5z" />
    <glyph glyph-name="e" unicode="e" horiz-adv-x="569" 
d="M519 282v-29h-384q2 -91 43 -141.5t118 -50.5q104 0 128 78h86q-13 -68 -68.5 -110t-145.5 -42q-115 0 -180 75t-65 195q0 118 65 189t178 71q107 0 165 -67.5t60 -167.5zM292 443q-65 0 -104 -33.5t-48 -85.5h291q-4 51 -41 85t-98 34z" />
    <glyph glyph-name="f" unicode="f" horiz-adv-x="391" 
d="M351 430h-140v-430h-85v430h-99v74h99v66q0 84 40 120.5t126 36.5h67v-76h-62q-46 0 -66 -19.5t-20 -65.5v-62h140v-74z" />
    <glyph glyph-name="g" unicode="g" horiz-adv-x="615" 
d="M451 504h82v-479q0 -107 -62.5 -169.5t-172.5 -62.5q-98 0 -157.5 40t-70.5 114h84q20 -80 143 -80q151 0 151 162v41h-20q-52 -68 -150 -68q-103 0 -165 72.5t-62 184.5q0 113 62 185.5t165 72.5q101 0 153 -68h20v55zM291 76q77 0 118 53t41 130q0 78 -41 131t-118 53
q-73 0 -114 -50t-41 -134q0 -83 41 -133t114 -50z" />
    <glyph glyph-name="h" unicode="h" horiz-adv-x="604" 
d="M332 517q94 0 146 -54t52 -146v-317h-85v302q0 139 -129 139q-66 0 -107.5 -49t-41.5 -118v-274h-85v727h85v-278h19q44 68 146 68z" />
    <glyph glyph-name="i" unicode="i" horiz-adv-x="254" 
d="M176 627h-98v100h98v-100zM169 504v-504h-85v504h85z" />
    <glyph glyph-name="j" unicode="j" horiz-adv-x="265" 
d="M187 627h-98v100h98v-100zM96 -38v542h85v-547q0 -84 -40 -120.5t-126 -36.5h-59v76h55q46 0 65.5 20t19.5 66z" />
    <glyph glyph-name="k" unicode="k" horiz-adv-x="553" 
d="M540 0h-93l-147 263h-20l-113 -120v-143h-85v727h85v-477l238 254h100l-154 -166z" />
    <glyph glyph-name="l" unicode="l" horiz-adv-x="249" 
d="M82 727h85v-727h-85v727z" />
    <glyph glyph-name="m" unicode="m" horiz-adv-x="851" 
d="M606 517q85 0 128 -51t43 -141v-325h-85v316q0 125 -96 125q-59 0 -91.5 -40.5t-32.5 -107.5v-293h-85v317q0 124 -96 124q-57 0 -90.5 -44t-33.5 -111v-286h-85v504h82v-49h19q40 62 128 62q89 0 134 -68h20q51 68 141 68z" />
    <glyph glyph-name="n" unicode="n" horiz-adv-x="604" 
d="M332 517q94 0 146 -54t52 -146v-317h-85v302q0 139 -129 139q-66 0 -107.5 -49t-41.5 -118v-274h-85v504h82v-55h19q47 68 149 68z" />
    <glyph glyph-name="o" unicode="o" horiz-adv-x="598" 
d="M299 517q115 0 181.5 -75t66.5 -190t-66.5 -190t-181.5 -75t-181.5 75t-66.5 190t66.5 190t181.5 75zM299 61q79 0 121 55.5t42 135.5t-42 135.5t-121 55.5t-121 -55.5t-42 -135.5t42 -135.5t121 -55.5z" />
    <glyph glyph-name="p" unicode="p" horiz-adv-x="615" 
d="M167 -200h-85v704h82v-55h20q54 68 156 68q103 0 163.5 -75t60.5 -190q0 -116 -60.5 -190.5t-163.5 -74.5q-100 0 -153 68h-20v-255zM324 443q-79 0 -118.5 -55t-39.5 -136t39.5 -136t118.5 -55q74 0 114.5 52.5t40.5 138.5t-40.5 138.5t-114.5 52.5z" />
    <glyph glyph-name="q" unicode="q" horiz-adv-x="615" 
d="M533 -200h-85v255h-20q-53 -68 -153 -68q-103 0 -163.5 74.5t-60.5 190.5q0 115 60.5 190t163.5 75q102 0 156 -68h20v55h82v-704zM291 443q-74 0 -114.5 -52.5t-40.5 -138.5t40.5 -138.5t114.5 -52.5q79 0 118.5 55t39.5 136t-39.5 136t-118.5 55z" />
    <glyph glyph-name="r" unicode="r" horiz-adv-x="394" 
d="M365 504v-80h-39q-75 0 -117 -44.5t-42 -127.5v-252h-85v504h82v-61h20q49 61 146 61h35z" />
    <glyph glyph-name="s" unicode="s" horiz-adv-x="513" 
d="M224 306l97 -16q149 -24 149 -147q0 -64 -55.5 -110t-152.5 -46q-102 0 -157.5 42t-64.5 116h85q7 -41 42.5 -62.5t90.5 -21.5q59 0 93 20t34 60q0 59 -86 73l-99 16q-141 22 -141 137q0 65 52 107.5t148 42.5q86 0 137.5 -38.5t59.5 -105.5h-84q-5 34 -38 52t-80 18
q-50 0 -80 -18.5t-30 -52.5q0 -52 80 -66z" />
    <glyph glyph-name="t" unicode="t" horiz-adv-x="408" 
d="M214 504h136v-74h-136v-286q0 -37 19 -52.5t69 -15.5h48v-76h-56q-87 0 -126 27t-39 103v300h-102v74h102v152h85v-152z" />
    <glyph glyph-name="u" unicode="u" horiz-adv-x="601" 
d="M270 -13q-94 0 -145 54t-51 146v317h85v-302q0 -139 127 -139q65 0 106.5 49.5t41.5 117.5v274h85v-504h-82v55h-19q-47 -68 -148 -68z" />
    <glyph glyph-name="v" unicode="v" horiz-adv-x="539" 
d="M195 0l-173 504h89l145 -424h29l145 424h87l-173 -504h-149z" />
    <glyph glyph-name="w" unicode="w" horiz-adv-x="733" 
d="M430 494l104 -405h18l91 415h80l-110 -504h-135l-103 405h-19l-103 -405h-133l-110 504h80l91 -415h18l104 405h127z" />
    <glyph glyph-name="x" unicode="x" horiz-adv-x="551" 
d="M291 302l117 202h92l-143 -247l159 -257h-96l-131 212h-29l-131 -212h-94l159 257l-143 247h94l117 -202h29z" />
    <glyph glyph-name="y" unicode="y" horiz-adv-x="538" 
d="M216 -200h-90l106 244l-210 460h92l150 -330h25l143 330h90z" />
    <glyph glyph-name="z" unicode="z" horiz-adv-x="515" 
d="M467 0h-419v94l306 317v19h-289v74h399v-93l-305 -317v-20h308v-74z" />
    <glyph glyph-name="braceleft" unicode="{" horiz-adv-x="390" 
d="M174 319v-20q55 -18 55 -105v-168q0 -99 89 -99h33v-68h-39q-73 0 -118 41.5t-45 117.5v160q0 49 -13.5 72.5t-49.5 23.5h-14v70h14q36 0 49.5 23.5t13.5 72.5v160q0 76 45 117.5t118 41.5h39v-68h-33q-89 0 -89 -99v-168q0 -87 -55 -105z" />
    <glyph glyph-name="bar" unicode="|" horiz-adv-x="251" 
d="M87 -141v900h77v-900h-77z" />
    <glyph glyph-name="braceright" unicode="}" horiz-adv-x="390" 
d="M216 299v20q-55 18 -55 105v168q0 99 -89 99h-33v68h39q73 0 118 -41.5t45 -117.5v-160q0 -49 13.5 -72.5t49.5 -23.5h14v-70h-14q-36 0 -49.5 -23.5t-13.5 -72.5v-160q0 -76 -45 -117.5t-118 -41.5h-39v68h33q89 0 89 99v168q0 87 55 105z" />
    <glyph glyph-name="asciitilde" unicode="~" horiz-adv-x="670" 
d="M513 366h70q0 -77 -37 -121t-95 -44q-7 0 -14 1t-13 2t-14 3.5t-12.5 4t-13 5.5t-12 5.5t-13 7t-12 6.5t-13 7.5t-12.5 7.5q-2 2 -15.5 10t-17 10t-14.5 7.5t-17 7.5t-15.5 4t-17.5 2q-69 0 -69 -91h-69q0 77 36.5 121t94.5 44q16 0 30 -2.5t31.5 -10.5t24 -11.5
t27.5 -16.5t23 -14q59 -36 90 -36q69 0 69 91z" />
    <glyph glyph-name="uni00A0" unicode="&#xa0;" horiz-adv-x="278" 
 />
    <glyph glyph-name="exclamdown" unicode="&#xa1;" horiz-adv-x="314" 
d="M202 -200h-90v285l16 230h57l17 -230v-285zM209 388h-104v116h104v-116z" />
    <glyph glyph-name="cent" unicode="&#xa2;" horiz-adv-x="553" 
d="M261 -80v69q-99 12 -154.5 84t-55.5 179t55.5 179t154.5 84v69h61v-68q77 -7 124 -48t59 -108h-85q-24 71 -98 81v-379q82 12 101 88h85q-13 -69 -61 -111.5t-125 -50.5v-68h-61zM136 254q0 -73 31.5 -126t93.5 -64v376q-63 -11 -94 -62t-31 -124z" />
    <glyph glyph-name="sterling" unicode="&#xa3;" horiz-adv-x="635" 
d="M213 78h384v-78h-537v77h19q38 0 54.5 23t16.5 69v116h-90v74h90v139q0 102 55.5 159t154.5 57q94 0 147.5 -53t56.5 -148h-87q-5 123 -116 123q-63 0 -93 -37.5t-30 -100.5v-139h216v-74h-216v-107q0 -30 -4.5 -47t-20.5 -33v-20z" />
    <glyph glyph-name="currency" unicode="&#xa4;" horiz-adv-x="724" 
d="M590 7l-68 67q-69 -55 -159 -55t-161 55l-68 -67l-47 47l67 68q-55 71 -55 161t55 159l-67 68l47 48l68 -67q74 54 161 54t159 -54l68 67l47 -48l-67 -68q55 -69 55 -159q0 -91 -55 -160l67 -69zM363 83q81 0 135.5 57t54.5 143q0 85 -54.5 141.5t-135.5 56.5t-137 -57
t-56 -141q0 -86 55.5 -143t137.5 -57z" />
    <glyph glyph-name="yen" unicode="&#xa5;" horiz-adv-x="613" 
d="M105 302v57h97l-180 341h92l178 -341h28l179 341h92l-181 -341h98v-57h-128l-30 -58v-15h158v-57h-158v-172h-88v172h-157v57h157v15l-30 58h-127z" />
    <glyph glyph-name="brokenbar" unicode="&#xa6;" horiz-adv-x="251" 
d="M87 414v345h77v-345h-77zM87 -141v345h77v-345h-77z" />
    <glyph glyph-name="section" unicode="&#xa7;" horiz-adv-x="593" 
d="M229 194l149 -45q74 42 74 99q0 40 -21 61.5t-68 36.5l-149 46q-27 -10 -50.5 -36t-23.5 -64q0 -40 21 -61.5t68 -36.5zM533 260q0 -48 -27 -86.5t-58 -49.5v-20q47 -41 47 -111q0 -71 -57.5 -119t-147.5 -48q-93 0 -151.5 52t-60.5 146h81q2 -59 35.5 -92.5t97.5 -33.5
q58 0 89.5 28t31.5 68q0 67 -74 90l-134 40q-79 24 -113 60.5t-34 96.5q0 48 27.5 86.5t58.5 49.5v20q-47 37 -47 111q0 72 55.5 119t146.5 47q92 0 149.5 -51.5t61.5 -145.5h-81q-2 58 -35.5 92t-97.5 34q-57 0 -87 -28t-30 -68q0 -68 73 -90q12 0 135 -41
q79 -24 112.5 -60.5t33.5 -95.5z" />
    <glyph glyph-name="dieresis" unicode="&#xa8;" horiz-adv-x="345" 
d="M128 627h-92v100h92v-100zM309 627h-92v100h92v-100z" />
    <glyph glyph-name="copyright" unicode="&#xa9;" 
d="M534 296h63q-9 -60 -51.5 -98.5t-108.5 -38.5q-84 0 -132.5 56t-48.5 141q0 87 48 142.5t133 55.5q63 0 105.5 -35t50.5 -93h-63q-14 72 -93 72q-59 0 -88.5 -39.5t-29.5 -102.5q0 -62 29.5 -101t88.5 -39q82 0 97 80zM428 727q154 0 261 -108t107 -262t-107 -262
t-261 -108t-261 108t-107 262t107 262t261 108zM428 43q130 0 219 91t89 223t-89 223t-219 91t-219 -91t-89 -223t89 -223t219 -91z" />
    <glyph glyph-name="ordfeminine" unicode="&#xaa;" horiz-adv-x="429" 
d="M303 334v41h-9q-42 -49 -119 -49q-65 0 -100.5 36t-35.5 88q0 51 35 87t109 36h117v18q0 71 -86 71q-78 0 -84 -56h-67q3 53 44 84t105 31q71 0 112.5 -33.5t41.5 -97.5v-256h-63zM188 383q46 0 79 29.5t33 72.5v36h-103q-42 0 -67 -19t-25 -49q0 -32 23 -51t60 -19z" />
    <glyph glyph-name="guillemotleft" unicode="&#xab;" horiz-adv-x="564" 
d="M135 294v-20l162 -173h-94l-145 151v63l145 152h94zM344 294v-20l162 -173h-94l-146 151v63l146 152h94z" />
    <glyph glyph-name="logicalnot" unicode="&#xac;" horiz-adv-x="683" 
d="M524 108v207h-437v72h509v-279h-72z" />
    <glyph glyph-name="uni00AD" unicode="&#xad;" horiz-adv-x="369" 
d="M322 240h-273v75h273v-75z" />
    <glyph glyph-name="registered" unicode="&#xae;" 
d="M588 434q0 -76 -61 -101l65 -167h-66l-60 155h-116v-155h-62v381h173q62 0 94.5 -29.5t32.5 -83.5zM526 434q0 57 -74 57h-102v-114h102q74 0 74 57zM428 727q154 0 261 -108t107 -262t-107 -262t-261 -108t-261 108t-107 262t107 262t261 108zM428 43q130 0 219 91
t89 223t-89 223t-219 91t-219 -91t-89 -223t89 -223t219 -91z" />
    <glyph glyph-name="macron" unicode="&#xaf;" horiz-adv-x="362" 
d="M322 619h-282v64h282v-64z" />
    <glyph glyph-name="degree" unicode="&#xb0;" horiz-adv-x="472" 
d="M431 523q0 -85 -56 -141.5t-140 -56.5t-140 56.5t-56 141.5t56 141.5t140 56.5t140 -56.5t56 -141.5zM235 383q57 0 95 40t38 100t-38 100t-95 40t-95 -40t-38 -100t38 -100t95 -40z" />
    <glyph glyph-name="plusminus" unicode="&#xb1;" horiz-adv-x="682" 
d="M87 0v73h509v-73h-509zM305 379v165h73v-165h218v-73h-218v-160h-73v160h-218v73h218z" />
    <glyph glyph-name="twosuperior" unicode="&#xb2;" horiz-adv-x="362" 
d="M139 391h182v-58h-282v71l113 81q32 22 48 36t29.5 35t13.5 43q0 29 -17.5 46t-48.5 17q-73 0 -74 -69h-65q2 64 40.5 96t99.5 32q59 0 94.5 -30.5t35.5 -88.5q0 -40 -23.5 -73t-71.5 -69l-74 -55v-14z" />
    <glyph glyph-name="threesuperior" unicode="&#xb3;" horiz-adv-x="368" 
d="M229 584v-14q43 -6 71 -36.5t28 -79.5q0 -59 -40.5 -93.5t-104.5 -34.5q-63 0 -103.5 35.5t-42.5 90.5h64q3 -31 26 -49t56 -18q36 0 58 19t22 51q0 33 -21.5 51.5t-57.5 18.5q-24 0 -36 -3v59l76 61v14h-159v58h247v-64z" />
    <glyph glyph-name="acute" unicode="&#xb4;" horiz-adv-x="264" 
d="M225 727l-109 -145h-77l86 145h100z" />
    <glyph glyph-name="mu" unicode="&#xb5;" horiz-adv-x="609" 
d="M278 -13q-62 0 -111 27v-214h-85v704h85v-302q0 -139 127 -139q65 0 106.5 49.5t41.5 117.5v274h85v-504h-82v55h-19q-47 -68 -148 -68z" />
    <glyph glyph-name="paragraph" unicode="&#xb6;" horiz-adv-x="655" 
d="M335 -177h-77v491q-97 0 -158.5 50t-61.5 150q0 101 58.5 150.5t161.5 49.5h349v-65h-80v-826h-77v826h-115v-826z" />
    <glyph glyph-name="periodcentered" unicode="&#xb7;" horiz-adv-x="258" 
d="M181 264h-104v116h104v-116z" />
    <glyph glyph-name="cedilla" unicode="&#xb8;" horiz-adv-x="262" 
d="M98 23h46l-32 -83h13q11 8 31 8q28 0 48 -22t20 -56q0 -35 -24 -60t-71 -25q-40 0 -63.5 20.5t-25.5 48.5h54q6 -24 36 -24q17 0 27 10.5t10 27.5t-10 27t-26 10q-20 0 -31 -11h-52z" />
    <glyph glyph-name="onesuperior" unicode="&#xb9;" horiz-adv-x="331" 
d="M199 391h93v-58h-253v58h94v246h-14l-80 -45v65l97 57h63v-323z" />
    <glyph glyph-name="ordmasculine" unicode="&#xba;" horiz-adv-x="446" 
d="M223 721q85 0 134.5 -56t49.5 -141t-50 -141.5t-134 -56.5t-134 56.5t-50 141.5t49.5 141t134.5 56zM223 385q56 0 87 41.5t31 97.5q0 57 -31 97t-87 40q-57 0 -87.5 -40t-30.5 -97t31 -98t87 -41z" />
    <glyph glyph-name="guillemotright" unicode="&#xbb;" horiz-adv-x="564" 
d="M220 274v20l-162 173h94l145 -152v-63l-145 -151h-94zM428 274v20l-162 173h94l146 -152v-63l-146 -151h-94z" />
    <glyph glyph-name="onequarter" unicode="&#xbc;" horiz-adv-x="865" 
d="M267 0h-77l424 700h76zM199 391h93v-58h-253v58h94v246h-14l-80 -45v65l97 57h63v-323zM774 144h52v-58h-52v-86h-65v86h-192v62l173 233h84v-237zM590 144h120v158h-14l-106 -144v-14z" />
    <glyph glyph-name="onehalf" unicode="&#xbd;" horiz-adv-x="874" 
d="M267 0h-77l424 700h76zM199 391h93v-58h-253v58h94v246h-14l-80 -45v65l97 57h63v-323zM651 58h182v-58h-282v71l113 81q32 22 48 36t29.5 35t13.5 43q0 29 -17.5 46t-48.5 17q-73 0 -74 -69h-65q2 64 40.5 96t99.5 32q59 0 94.5 -30.5t35.5 -88.5q0 -40 -23.5 -73
t-71.5 -69l-74 -55v-14z" />
    <glyph glyph-name="threequarters" unicode="&#xbe;" horiz-adv-x="869" 
d="M271 0h-77l424 700h76zM778 144h52v-58h-52v-86h-65v86h-192v62l173 233h84v-237zM594 144h120v158h-14l-106 -144v-14zM228 584v-14q43 -6 71 -36.5t28 -79.5q0 -59 -40.5 -93.5t-104.5 -34.5q-63 0 -103.5 35.5t-42.5 90.5h64q3 -31 26 -49t56 -18q36 0 58 19t22 51
q0 33 -21.5 51.5t-57.5 18.5q-24 0 -36 -3v59l76 61v14h-159v58h247v-64z" />
    <glyph glyph-name="questiondown" unicode="&#xbf;" horiz-adv-x="542" 
d="M232 504h104v-116h-104v116zM269 -207q-98 0 -156.5 52.5t-58.5 140.5q0 67 28.5 106t93.5 87q39 28 52 49.5t13 66.5v20h86v-20q0 -62 -20.5 -95t-75.5 -75q-48 -35 -69.5 -64t-21.5 -75q0 -49 34.5 -84t93.5 -35q129 0 136 133h86q-4 -97 -62.5 -152t-158.5 -55z" />
    <glyph glyph-name="Agrave" unicode="&#xc0;" horiz-adv-x="687" 
d="M573 0l-76 219h-310l-75 -219h-92l251 714h144l252 -714h-94zM326 622l-111 -321h254l-111 321h-32zM303 767l-108 129h101l86 -129h-79z" />
    <glyph glyph-name="Aacute" unicode="&#xc1;" horiz-adv-x="687" 
d="M573 0l-76 219h-310l-75 -219h-92l251 714h144l252 -714h-94zM326 622l-111 -321h254l-111 321h-32zM490 896l-109 -129h-78l85 129h102z" />
    <glyph glyph-name="Acircumflex" unicode="&#xc2;" horiz-adv-x="687" 
d="M573 0l-76 219h-310l-75 -219h-92l251 714h144l252 -714h-94zM326 622l-111 -321h254l-111 321h-32zM390 896l107 -129h-84l-61 71h-18l-61 -71h-82l107 129h92z" />
    <glyph glyph-name="Atilde" unicode="&#xc3;" horiz-adv-x="687" 
d="M573 0l-76 219h-310l-75 -219h-92l251 714h144l252 -714h-94zM326 622l-111 -321h254l-111 321h-32zM415 832q38 0 38 67h54q0 -135 -93 -135q-40 0 -85 36q-2 2 -11 8.5t-12.5 9t-10.5 6.5t-13 5.5t-13 1.5q-38 0 -38 -67h-54q0 135 93 135q38 0 89 -39q35 -28 56 -28z
" />
    <glyph glyph-name="Adieresis" unicode="&#xc4;" horiz-adv-x="687" 
d="M573 0l-76 219h-310l-75 -219h-92l251 714h144l252 -714h-94zM326 622l-111 -321h254l-111 321h-32zM300 796h-92v100h92v-100zM481 796h-92v100h92v-100z" />
    <glyph glyph-name="Aring" unicode="&#xc5;" horiz-adv-x="687" 
d="M343 877q45 0 77 -31.5t32 -76.5q0 -40 -28 -71l243 -698h-94l-74 219h-313l-74 -219h-92l241 698q-27 30 -27 71q0 45 32 76.5t77 31.5zM322 622l-109 -321h258l-109 321h-40zM343 714q23 0 39 16t16 39t-16 39t-39 16t-39 -16t-16 -39t16 -39t39 -16z" />
    <glyph glyph-name="AE" unicode="&#xc6;" horiz-adv-x="1009" 
d="M392 714h554v-82h-357v-221h277v-82h-277v-247h372v-82h-462v219h-272l-116 -219h-103zM441 632l-174 -331h232v331h-58z" />
    <glyph glyph-name="Ccedilla" unicode="&#xc7;" horiz-adv-x="718" 
d="M573 203h95q-23 -99 -96 -157.5t-187 -58.5h-6l-18 -47h13q11 8 31 8q28 0 48 -22t20 -56q0 -35 -24 -60t-71 -25q-40 0 -63.5 20.5t-25.5 48.5h54q6 -24 36 -24q17 0 27 10.5t10 27.5t-10 27t-26 10q-20 0 -31 -11h-52l37 96q-133 18 -206 117.5t-73 249.5q0 164 88 267
t243 103q108 0 180 -53.5t94 -146.5h-95q-42 118 -179 118q-118 0 -179 -83t-61 -205q0 -123 60.5 -205.5t178.5 -82.5q74 0 122 35.5t66 98.5z" />
    <glyph glyph-name="Egrave" unicode="&#xc8;" horiz-adv-x="652" 
d="M181 82h423v-82h-513v714h497v-82h-407v-221h328v-82h-328v-247zM323 767l-108 129h101l86 -129h-79z" />
    <glyph glyph-name="Eacute" unicode="&#xc9;" horiz-adv-x="652" 
d="M181 82h423v-82h-513v714h497v-82h-407v-221h328v-82h-328v-247zM451 896l-109 -129h-78l85 129h102z" />
    <glyph glyph-name="Ecircumflex" unicode="&#xca;" horiz-adv-x="652" 
d="M181 82h423v-82h-513v714h497v-82h-407v-221h328v-82h-328v-247zM385 896l107 -129h-84l-61 71h-18l-61 -71h-82l107 129h92z" />
    <glyph glyph-name="Edieresis" unicode="&#xcb;" horiz-adv-x="652" 
d="M181 82h423v-82h-513v714h497v-82h-407v-221h328v-82h-328v-247zM290 796h-92v100h92v-100zM471 796h-92v100h92v-100z" />
    <glyph glyph-name="Igrave" unicode="&#xcc;" horiz-adv-x="284" 
d="M97 714h90v-714h-90v714zM105 767l-108 129h101l86 -129h-79z" />
    <glyph glyph-name="Iacute" unicode="&#xcd;" horiz-adv-x="284" 
d="M97 714h90v-714h-90v714zM291 896l-109 -129h-78l85 129h102z" />
    <glyph glyph-name="Icircumflex" unicode="&#xce;" horiz-adv-x="284" 
d="M97 714h90v-714h-90v714zM190 896l107 -129h-84l-61 71h-18l-61 -71h-82l107 129h92z" />
    <glyph glyph-name="Idieresis" unicode="&#xcf;" horiz-adv-x="284" 
d="M97 714h90v-714h-90v714zM99 796h-92v100h92v-100zM280 796h-92v100h92v-100z" />
    <glyph glyph-name="Eth" unicode="&#xd0;" horiz-adv-x="768" 
d="M20 332v74h96v308h267q161 0 245.5 -96t84.5 -261t-85 -261t-245 -96h-267v332h-96zM206 82h177q122 0 180.5 76.5t58.5 198.5t-58.5 198.5t-180.5 76.5h-177v-226h215v-74h-215v-250z" />
    <glyph glyph-name="Ntilde" unicode="&#xd1;" horiz-adv-x="766" 
d="M587 714h88v-714h-140l-336 597h-20v-597h-88v714h140l336 -597h20v597zM456 832q38 0 38 67h54q0 -135 -93 -135q-40 0 -85 36q-2 2 -11 8.5t-12.5 9t-10.5 6.5t-13 5.5t-13 1.5q-38 0 -38 -67h-54q0 135 93 135q38 0 89 -39q35 -28 56 -28z" />
    <glyph glyph-name="Ograve" unicode="&#xd2;" horiz-adv-x="776" 
d="M388 727q157 0 245 -105t88 -265t-88 -265t-245 -105q-158 0 -245.5 104.5t-87.5 265.5t87.5 265.5t245.5 104.5zM388 69q120 0 181 83t61 205t-61 205t-181 83t-181 -83t-61 -205t61 -205t181 -83zM359 767l-108 129h101l86 -129h-79z" />
    <glyph glyph-name="Oacute" unicode="&#xd3;" horiz-adv-x="776" 
d="M388 727q157 0 245 -105t88 -265t-88 -265t-245 -105q-158 0 -245.5 104.5t-87.5 265.5t87.5 265.5t245.5 104.5zM388 69q120 0 181 83t61 205t-61 205t-181 83t-181 -83t-61 -205t61 -205t181 -83zM532 896l-109 -129h-78l85 129h102z" />
    <glyph glyph-name="Ocircumflex" unicode="&#xd4;" horiz-adv-x="776" 
d="M388 727q157 0 245 -105t88 -265t-88 -265t-245 -105q-158 0 -245.5 104.5t-87.5 265.5t87.5 265.5t245.5 104.5zM388 69q120 0 181 83t61 205t-61 205t-181 83t-181 -83t-61 -205t61 -205t181 -83zM435 896l107 -129h-84l-61 71h-18l-61 -71h-82l107 129h92z" />
    <glyph glyph-name="Otilde" unicode="&#xd5;" horiz-adv-x="776" 
d="M388 727q157 0 245 -105t88 -265t-88 -265t-245 -105q-158 0 -245.5 104.5t-87.5 265.5t87.5 265.5t245.5 104.5zM388 69q120 0 181 83t61 205t-61 205t-181 83t-181 -83t-61 -205t61 -205t181 -83zM461 832q38 0 38 67h54q0 -135 -93 -135q-40 0 -85 36q-2 2 -11 8.5
t-12.5 9t-10.5 6.5t-13 5.5t-13 1.5q-38 0 -38 -67h-54q0 135 93 135q38 0 89 -39q35 -28 56 -28z" />
    <glyph glyph-name="Odieresis" unicode="&#xd6;" horiz-adv-x="776" 
d="M388 727q157 0 245 -105t88 -265t-88 -265t-245 -105q-158 0 -245.5 104.5t-87.5 265.5t87.5 265.5t245.5 104.5zM388 69q120 0 181 83t61 205t-61 205t-181 83t-181 -83t-61 -205t61 -205t181 -83zM343 796h-92v100h92v-100zM524 796h-92v100h92v-100z" />
    <glyph glyph-name="multiply" unicode="&#xd7;" horiz-adv-x="639" 
d="M269 284l-182 183l50 50l183 -183l182 183l50 -50l-182 -183l182 -183l-50 -50l-182 182l-183 -182l-50 50z" />
    <glyph glyph-name="Oslash" unicode="&#xd8;" horiz-adv-x="776" 
d="M388 727q122 0 206 -68l46 55h84l-83 -101q80 -103 80 -256q0 -160 -88 -265t-245 -105q-124 0 -207 67l-45 -54h-84l83 101q-80 101 -80 256q0 161 87.5 265.5t245.5 104.5zM388 69q120 0 181 83t61 205q0 110 -47 185l-347 -421q58 -52 152 -52zM146 357
q0 -112 47 -186l347 422q-63 52 -152 52q-120 0 -181 -83t-61 -205z" />
    <glyph glyph-name="Ugrave" unicode="&#xd9;" horiz-adv-x="740" 
d="M561 714h90v-459q0 -128 -72.5 -198t-208.5 -70t-208.5 70t-72.5 198v459h90v-458q0 -86 49.5 -136.5t141.5 -50.5t141.5 50.5t49.5 136.5v458zM350 767l-108 129h101l86 -129h-79z" />
    <glyph glyph-name="Uacute" unicode="&#xda;" horiz-adv-x="740" 
d="M561 714h90v-459q0 -128 -72.5 -198t-208.5 -70t-208.5 70t-72.5 198v459h90v-458q0 -86 49.5 -136.5t141.5 -50.5t141.5 50.5t49.5 136.5v458zM497 896l-109 -129h-78l85 129h102z" />
    <glyph glyph-name="Ucircumflex" unicode="&#xdb;" horiz-adv-x="740" 
d="M561 714h90v-459q0 -128 -72.5 -198t-208.5 -70t-208.5 70t-72.5 198v459h90v-458q0 -86 49.5 -136.5t141.5 -50.5t141.5 50.5t49.5 136.5v458zM417 896l107 -129h-84l-61 71h-18l-61 -71h-82l107 129h92z" />
    <glyph glyph-name="Udieresis" unicode="&#xdc;" horiz-adv-x="740" 
d="M561 714h90v-459q0 -128 -72.5 -198t-208.5 -70t-208.5 70t-72.5 198v459h90v-458q0 -86 49.5 -136.5t141.5 -50.5t141.5 50.5t49.5 136.5v458zM326 796h-92v100h92v-100zM507 796h-92v100h92v-100z" />
    <glyph glyph-name="Yacute" unicode="&#xdd;" horiz-adv-x="643" 
d="M337 389l191 325h95l-257 -441v-273h-90v273l-257 441h99l191 -325h28zM463 896l-109 -129h-78l85 129h102z" />
    <glyph glyph-name="Thorn" unicode="&#xde;" horiz-adv-x="647" 
d="M181 562h183q111 0 171 -54t60 -151t-60 -150.5t-171 -53.5h-183v-153h-90v714h90v-152zM181 233h170q153 0 153 124q0 125 -153 125h-170v-249z" />
    <glyph glyph-name="germandbls" unicode="&#xdf;" horiz-adv-x="587" 
d="M415 402v-19q56 -12 92.5 -58.5t36.5 -114.5q0 -101 -62 -155.5t-166 -54.5h-62v74h50q155 0 155 136q0 67 -43.5 104t-127.5 37h-15v73h15q70 0 102 31t32 81q0 54 -33 85.5t-90 31.5q-132 0 -132 -156v-497h-85v504q0 106 56 165t162 59q94 0 150 -51.5t56 -130.5
q0 -54 -24.5 -92t-66.5 -52z" />
    <glyph glyph-name="agrave" unicode="&#xe0;" horiz-adv-x="557" 
d="M403 0v54h-20q-53 -67 -158 -67q-84 0 -133 48t-49 116q0 69 48 118t145 49h164v20q0 48 -30 76.5t-93 28.5q-110 0 -117 -70h-85q4 68 59 106t141 38q97 0 152.5 -45t55.5 -129v-343h-80zM245 61q63 0 109 41t46 100v45h-151q-121 0 -121 -94q0 -43 30.5 -67.5
t86.5 -24.5zM260 582l-108 145h100l86 -145h-78z" />
    <glyph glyph-name="aacute" unicode="&#xe1;" horiz-adv-x="557" 
d="M403 0v54h-20q-53 -67 -158 -67q-84 0 -133 48t-49 116q0 69 48 118t145 49h164v20q0 48 -30 76.5t-93 28.5q-110 0 -117 -70h-85q4 68 59 106t141 38q97 0 152.5 -45t55.5 -129v-343h-80zM245 61q63 0 109 41t46 100v45h-151q-121 0 -121 -94q0 -43 30.5 -67.5
t86.5 -24.5zM410 727l-109 -145h-77l86 145h100z" />
    <glyph glyph-name="acircumflex" unicode="&#xe2;" horiz-adv-x="557" 
d="M403 0v54h-20q-53 -67 -158 -67q-84 0 -133 48t-49 116q0 69 48 118t145 49h164v20q0 48 -30 76.5t-93 28.5q-110 0 -117 -70h-85q4 68 59 106t141 38q97 0 152.5 -45t55.5 -129v-343h-80zM245 61q63 0 109 41t46 100v45h-151q-121 0 -121 -94q0 -43 30.5 -67.5
t86.5 -24.5zM329 727l107 -145h-80l-65 86h-18l-64 -86h-79l108 145h91z" />
    <glyph glyph-name="atilde" unicode="&#xe3;" horiz-adv-x="557" 
d="M403 0v54h-20q-53 -67 -158 -67q-84 0 -133 48t-49 116q0 69 48 118t145 49h164v20q0 48 -30 76.5t-93 28.5q-110 0 -117 -70h-85q4 68 59 106t141 38q97 0 152.5 -45t55.5 -129v-343h-80zM245 61q63 0 109 41t46 100v45h-151q-121 0 -121 -94q0 -43 30.5 -67.5
t86.5 -24.5zM353 655q38 0 38 67h54q0 -135 -93 -135q-40 0 -85 36q-2 2 -11 8.5t-12.5 9t-10.5 6.5t-13 5.5t-13 1.5q-38 0 -38 -67h-54q0 135 93 135q38 0 89 -39q35 -28 56 -28z" />
    <glyph glyph-name="adieresis" unicode="&#xe4;" horiz-adv-x="557" 
d="M403 0v54h-20q-53 -67 -158 -67q-84 0 -133 48t-49 116q0 69 48 118t145 49h164v20q0 48 -30 76.5t-93 28.5q-110 0 -117 -70h-85q4 68 59 106t141 38q97 0 152.5 -45t55.5 -129v-343h-80zM245 61q63 0 109 41t46 100v45h-151q-121 0 -121 -94q0 -43 30.5 -67.5
t86.5 -24.5zM235 627h-92v100h92v-100zM416 627h-92v100h92v-100z" />
    <glyph glyph-name="aring" unicode="&#xe5;" horiz-adv-x="557" 
d="M403 0v54h-20q-53 -67 -158 -67q-84 0 -133 48t-49 116q0 69 48 118t145 49h164v20q0 48 -30 76.5t-93 28.5q-110 0 -117 -70h-85q4 68 59 106t141 38q97 0 152.5 -45t55.5 -129v-343h-80zM245 61q63 0 109 41t46 100v45h-151q-121 0 -121 -94q0 -43 30.5 -67.5
t86.5 -24.5zM170 687q0 45 32 76.5t77 31.5t77 -31.5t32 -76.5t-32 -76.5t-77 -31.5t-77 31.5t-32 76.5zM224 687q0 -23 16 -39t39 -16t39 16t16 39t-16 39t-39 16t-39 -16t-16 -39z" />
    <glyph glyph-name="ae" unicode="&#xe6;" horiz-adv-x="900" 
d="M850 247h-376q0 -84 41.5 -135t115.5 -51q102 0 127 78h86q-14 -69 -68.5 -110.5t-144.5 -41.5q-123 0 -188 98h-20q-29 -43 -79 -70.5t-115 -27.5q-87 0 -136.5 47.5t-49.5 117.5q0 68 47.5 117t144.5 49h157v20q0 48 -29.5 76.5t-89.5 28.5q-51 0 -80.5 -18.5
t-32.5 -51.5h-85q6 68 58.5 106t138.5 38q116 0 167 -75h20q65 75 171 75q103 0 161.5 -69t58.5 -167v-34zM392 198v49h-139q-61 0 -93 -24t-32 -68q0 -45 31 -69.5t85 -24.5q63 0 105.5 39t42.5 98zM627 443q-63 0 -100 -35.5t-48 -89.5h284q-6 55 -41 90t-95 35z" />
    <glyph glyph-name="ccedilla" unicode="&#xe7;" horiz-adv-x="553" 
d="M423 150h85q-15 -76 -70 -119.5t-141 -43.5l-18 -47h13q11 8 31 8q28 0 48 -22t20 -56q0 -35 -24 -60t-71 -25q-40 0 -63.5 20.5t-25.5 48.5h54q6 -24 36 -24q17 0 27 10.5t10 27.5t-10 27t-26 10q-20 0 -31 -11h-52l37 96q-96 14 -148.5 86t-52.5 176q0 117 65 191
t180 74q88 0 142 -42.5t67 -114.5h-85q-26 83 -124 83q-81 0 -120.5 -53.5t-39.5 -135.5q0 -83 40 -138t120 -55q106 0 127 89z" />
    <glyph glyph-name="egrave" unicode="&#xe8;" horiz-adv-x="569" 
d="M519 282v-29h-384q2 -91 43 -141.5t118 -50.5q104 0 128 78h86q-13 -68 -68.5 -110t-145.5 -42q-115 0 -180 75t-65 195q0 118 65 189t178 71q107 0 165 -67.5t60 -167.5zM292 443q-65 0 -104 -33.5t-48 -85.5h291q-4 51 -41 85t-98 34zM275 582l-108 145h100l86 -145
h-78z" />
    <glyph glyph-name="eacute" unicode="&#xe9;" horiz-adv-x="569" 
d="M519 282v-29h-384q2 -91 43 -141.5t118 -50.5q104 0 128 78h86q-13 -68 -68.5 -110t-145.5 -42q-115 0 -180 75t-65 195q0 118 65 189t178 71q107 0 165 -67.5t60 -167.5zM292 443q-65 0 -104 -33.5t-48 -85.5h291q-4 51 -41 85t-98 34zM431 727l-109 -145h-77l86 145
h100z" />
    <glyph glyph-name="ecircumflex" unicode="&#xea;" horiz-adv-x="569" 
d="M519 282v-29h-384q2 -91 43 -141.5t118 -50.5q104 0 128 78h86q-13 -68 -68.5 -110t-145.5 -42q-115 0 -180 75t-65 195q0 118 65 189t178 71q107 0 165 -67.5t60 -167.5zM292 443q-65 0 -104 -33.5t-48 -85.5h291q-4 51 -41 85t-98 34zM342 727l107 -145h-80l-65 86h-18
l-64 -86h-79l108 145h91z" />
    <glyph glyph-name="edieresis" unicode="&#xeb;" horiz-adv-x="569" 
d="M519 282v-29h-384q2 -91 43 -141.5t118 -50.5q104 0 128 78h86q-13 -68 -68.5 -110t-145.5 -42q-115 0 -180 75t-65 195q0 118 65 189t178 71q107 0 165 -67.5t60 -167.5zM292 443q-65 0 -104 -33.5t-48 -85.5h291q-4 51 -41 85t-98 34zM246 627h-92v100h92v-100z
M427 627h-92v100h92v-100z" />
    <glyph glyph-name="igrave" unicode="&#xec;" horiz-adv-x="254" 
d="M169 504v-504h-85v504h85zM91 582l-108 145h100l86 -145h-78z" />
    <glyph glyph-name="iacute" unicode="&#xed;" horiz-adv-x="254" 
d="M169 504v-504h-85v504h85zM276 727l-109 -145h-77l86 145h100z" />
    <glyph glyph-name="icircumflex" unicode="&#xee;" horiz-adv-x="254" 
d="M169 504v-504h-85v504h85zM174 727l107 -145h-80l-65 86h-18l-64 -86h-79l108 145h91z" />
    <glyph glyph-name="idieresis" unicode="&#xef;" horiz-adv-x="254" 
d="M169 504v-504h-85v504h85zM83 627h-92v100h92v-100zM264 627h-92v100h92v-100z" />
    <glyph glyph-name="eth" unicode="&#xf0;" horiz-adv-x="592" 
d="M142 550v59h164q-51 55 -143 118h107q79 -56 134 -118h122v-59h-77q92 -120 92 -292q0 -120 -63 -195.5t-183 -75.5q-111 0 -177.5 71t-66.5 177q0 105 64 175t166 70q81 0 125 -44h22q-22 58 -71 114h-215zM296 61q80 0 120 49t40 124q0 76 -40 125t-120 49t-121 -49.5
t-41 -124.5t41 -124t121 -49z" />
    <glyph glyph-name="ntilde" unicode="&#xf1;" horiz-adv-x="604" 
d="M332 517q94 0 146 -54t52 -146v-317h-85v302q0 139 -129 139q-66 0 -107.5 -49t-41.5 -118v-274h-85v504h82v-55h19q47 68 149 68zM379 655q38 0 38 67h54q0 -135 -93 -135q-40 0 -85 36q-2 2 -11 8.5t-12.5 9t-10.5 6.5t-13 5.5t-13 1.5q-38 0 -38 -67h-54q0 135 93 135
q38 0 89 -39q35 -28 56 -28z" />
    <glyph glyph-name="ograve" unicode="&#xf2;" horiz-adv-x="598" 
d="M299 517q115 0 181.5 -75t66.5 -190t-66.5 -190t-181.5 -75t-181.5 75t-66.5 190t66.5 190t181.5 75zM299 61q79 0 121 55.5t42 135.5t-42 135.5t-121 55.5t-121 -55.5t-42 -135.5t42 -135.5t121 -55.5zM269 582l-108 145h100l86 -145h-78z" />
    <glyph glyph-name="oacute" unicode="&#xf3;" horiz-adv-x="598" 
d="M299 517q115 0 181.5 -75t66.5 -190t-66.5 -190t-181.5 -75t-181.5 75t-66.5 190t66.5 190t181.5 75zM299 61q79 0 121 55.5t42 135.5t-42 135.5t-121 55.5t-121 -55.5t-42 -135.5t42 -135.5t121 -55.5zM445 727l-109 -145h-77l86 145h100z" />
    <glyph glyph-name="ocircumflex" unicode="&#xf4;" horiz-adv-x="598" 
d="M299 517q115 0 181.5 -75t66.5 -190t-66.5 -190t-181.5 -75t-181.5 75t-66.5 190t66.5 190t181.5 75zM299 61q79 0 121 55.5t42 135.5t-42 135.5t-121 55.5t-121 -55.5t-42 -135.5t42 -135.5t121 -55.5zM345 727l107 -145h-80l-65 86h-18l-64 -86h-79l108 145h91z" />
    <glyph glyph-name="otilde" unicode="&#xf5;" horiz-adv-x="598" 
d="M299 517q115 0 181.5 -75t66.5 -190t-66.5 -190t-181.5 -75t-181.5 75t-66.5 190t66.5 190t181.5 75zM299 61q79 0 121 55.5t42 135.5t-42 135.5t-121 55.5t-121 -55.5t-42 -135.5t42 -135.5t121 -55.5zM371 655q38 0 38 67h54q0 -135 -93 -135q-40 0 -85 36
q-2 2 -11 8.5t-12.5 9t-10.5 6.5t-13 5.5t-13 1.5q-38 0 -38 -67h-54q0 135 93 135q38 0 89 -39q35 -28 56 -28z" />
    <glyph glyph-name="odieresis" unicode="&#xf6;" horiz-adv-x="598" 
d="M299 517q115 0 181.5 -75t66.5 -190t-66.5 -190t-181.5 -75t-181.5 75t-66.5 190t66.5 190t181.5 75zM299 61q79 0 121 55.5t42 135.5t-42 135.5t-121 55.5t-121 -55.5t-42 -135.5t42 -135.5t121 -55.5zM255 627h-92v100h92v-100zM436 627h-92v100h92v-100z" />
    <glyph glyph-name="divide" unicode="&#xf7;" horiz-adv-x="684" 
d="M391 25h-100v111h100v-111zM391 433h-100v111h100v-111zM596 248h-509v73h509v-73z" />
    <glyph glyph-name="oslash" unicode="&#xf8;" horiz-adv-x="601" 
d="M301 517q85 0 148 -45l27 32h78l-62 -73q57 -72 57 -179q0 -115 -66.5 -190t-181.5 -75q-88 0 -149 45l-27 -32h-78l62 73q-56 71 -56 179q0 115 66.5 190t181.5 75zM301 61q79 0 121 55.5t42 135.5q0 66 -28 113l-232 -273q41 -31 97 -31zM138 252q0 -67 27 -114
l232 273q-40 32 -96 32q-79 0 -121 -55.5t-42 -135.5z" />
    <glyph glyph-name="ugrave" unicode="&#xf9;" horiz-adv-x="594" 
d="M270 -13q-94 0 -145 54t-51 146v317h85v-302q0 -139 127 -139q65 0 106.5 49.5t41.5 117.5v274h85v-504h-82v55h-19q-47 -68 -148 -68zM270 582l-108 145h100l86 -145h-78z" />
    <glyph glyph-name="uacute" unicode="&#xfa;" horiz-adv-x="601" 
d="M270 -13q-94 0 -145 54t-51 146v317h85v-302q0 -139 127 -139q65 0 106.5 49.5t41.5 117.5v274h85v-504h-82v55h-19q-47 -68 -148 -68zM424 727l-109 -145h-77l86 145h100z" />
    <glyph glyph-name="ucircumflex" unicode="&#xfb;" horiz-adv-x="594" 
d="M270 -13q-94 0 -145 54t-51 146v317h85v-302q0 -139 127 -139q65 0 106.5 49.5t41.5 117.5v274h85v-504h-82v55h-19q-47 -68 -148 -68zM342 727l107 -145h-80l-65 86h-18l-64 -86h-79l108 145h91z" />
    <glyph glyph-name="udieresis" unicode="&#xfc;" horiz-adv-x="601" 
d="M270 -13q-94 0 -145 54t-51 146v317h85v-302q0 -139 127 -139q65 0 106.5 49.5t41.5 117.5v274h85v-504h-82v55h-19q-47 -68 -148 -68zM251 627h-92v100h92v-100zM432 627h-92v100h92v-100z" />
    <glyph glyph-name="yacute" unicode="&#xfd;" horiz-adv-x="538" 
d="M216 -200h-90l106 244l-210 460h92l150 -330h25l143 330h90zM417 727l-109 -145h-77l86 145h100z" />
    <glyph glyph-name="thorn" unicode="&#xfe;" horiz-adv-x="615" 
d="M564 252q0 -116 -60.5 -190.5t-163.5 -74.5q-100 0 -153 68h-20v-255h-85v927h85v-278h20q53 68 153 68q103 0 163.5 -74.5t60.5 -190.5zM479 252q0 86 -40.5 138.5t-114.5 52.5q-79 0 -118.5 -55t-39.5 -136t39.5 -136t118.5 -55q74 0 114.5 52.5t40.5 138.5z" />
    <glyph glyph-name="ydieresis" unicode="&#xff;" horiz-adv-x="538" 
d="M216 -200h-90l106 244l-210 460h92l150 -330h25l143 330h90zM228 627h-92v100h92v-100zM409 627h-92v100h92v-100z" />
    <glyph glyph-name="Amacron" unicode="&#x100;" horiz-adv-x="688" 
d="M573 0l-76 219h-310l-75 -219h-92l251 714h144l252 -714h-94zM326 622l-111 -321h254l-111 321h-32zM484 809h-282v64h282v-64z" />
    <glyph glyph-name="amacron" unicode="&#x101;" horiz-adv-x="558" 
d="M403 0v54h-20q-53 -67 -158 -67q-84 0 -133 48t-49 116q0 69 48 118t145 49h164v20q0 48 -30 76.5t-93 28.5q-110 0 -117 -70h-85q4 68 59 106t141 38q97 0 152.5 -45t55.5 -129v-343h-80zM245 61q63 0 109 41t46 100v45h-151q-121 0 -121 -94q0 -43 30.5 -67.5
t86.5 -24.5zM425 619h-282v64h282v-64z" />
    <glyph glyph-name="Abreve" unicode="&#x102;" horiz-adv-x="687" 
d="M573 0l-76 219h-310l-75 -219h-92l251 714h144l252 -714h-94zM326 622l-111 -321h254l-111 321h-32zM419 896h64q0 -63 -37 -96.5t-103 -33.5t-102 33.5t-37 96.5h64q0 -33 19.5 -51.5t55.5 -18.5q76 0 76 70z" />
    <glyph glyph-name="abreve" unicode="&#x103;" horiz-adv-x="558" 
d="M403 0v54h-20q-53 -67 -158 -67q-84 0 -133 48t-49 116q0 69 48 118t145 49h164v20q0 48 -30 76.5t-93 28.5q-110 0 -117 -70h-85q4 68 59 106t141 38q97 0 152.5 -45t55.5 -129v-343h-80zM245 61q63 0 109 41t46 100v45h-151q-121 0 -121 -94q0 -43 30.5 -67.5
t86.5 -24.5zM353 727h66q0 -69 -36.5 -107t-101.5 -38q-66 0 -102.5 38t-36.5 107h65q0 -39 18.5 -61.5t54.5 -22.5t54.5 22.5t18.5 61.5z" />
    <glyph glyph-name="Aogonek" unicode="&#x104;" horiz-adv-x="688" 
d="M573 0l-76 219h-310l-75 -219h-92l251 714h144l252 -714q-31 -16 -51.5 -40.5t-20.5 -49.5q0 -52 74 -52v-58h-21q-58 0 -91 25t-33 70q0 31 21 60t52 45h-24zM326 622l-111 -321h254l-111 321h-32z" />
    <glyph glyph-name="aogonek" unicode="&#x105;" horiz-adv-x="558" 
d="M403 0v54h-20q-53 -67 -158 -67q-84 0 -133 48t-49 116q0 69 48 118t145 49h164v20q0 48 -30 76.5t-93 28.5q-110 0 -117 -70h-85q4 68 59 106t141 38q97 0 152.5 -45t55.5 -129v-343q-31 -16 -51.5 -40.5t-20.5 -49.5q0 -52 74 -52v-58h-21q-58 0 -91 25t-33 70
q0 29 17.5 58t45.5 47zM245 61q63 0 109 41t46 100v45h-151q-121 0 -121 -94q0 -43 30.5 -67.5t86.5 -24.5z" />
    <glyph glyph-name="Cacute" unicode="&#x106;" horiz-adv-x="718" 
d="M573 203h95q-23 -99 -96 -157.5t-187 -58.5q-156 0 -243 103t-87 267t88 267t243 103q108 0 180 -53.5t94 -146.5h-95q-42 118 -179 118q-118 0 -179 -83t-61 -205q0 -123 60.5 -205.5t178.5 -82.5q74 0 122 35.5t66 98.5zM521 896l-109 -129h-78l85 129h102z" />
    <glyph glyph-name="cacute" unicode="&#x107;" horiz-adv-x="553" 
d="M423 150h85q-14 -75 -70 -119t-142 -44q-114 0 -179.5 74.5t-65.5 190.5q0 117 65 191t180 74q88 0 142 -42.5t67 -114.5h-85q-26 83 -124 83q-81 0 -120.5 -53.5t-39.5 -135.5q0 -83 40 -138t120 -55q106 0 127 89zM423 727l-109 -145h-77l86 145h100z" />
    <glyph glyph-name="Ccaron" unicode="&#x10c;" horiz-adv-x="718" 
d="M573 203h95q-23 -99 -96 -157.5t-187 -58.5q-156 0 -243 103t-87 267t88 267t243 103q108 0 180 -53.5t94 -146.5h-95q-42 118 -179 118q-118 0 -179 -83t-61 -205q0 -123 60.5 -205.5t178.5 -82.5q74 0 122 35.5t66 98.5zM332 767l-107 129h84l61 -71h18l61 71h82
l-107 -129h-92z" />
    <glyph glyph-name="ccaron" unicode="&#x10d;" horiz-adv-x="553" 
d="M423 150h85q-14 -75 -70 -119t-142 -44q-114 0 -179.5 74.5t-65.5 190.5q0 117 65 191t180 74q88 0 142 -42.5t67 -114.5h-85q-26 83 -124 83q-81 0 -120.5 -53.5t-39.5 -135.5q0 -83 40 -138t120 -55q106 0 127 89zM248 582l-107 145h80l65 -86h18l64 86h79l-108 -145
h-91z" />
    <glyph glyph-name="Dcaron" unicode="&#x10e;" horiz-adv-x="743" 
d="M91 714h267q161 0 245.5 -96t84.5 -261t-85 -261t-245 -96h-267v714zM181 82h177q122 0 180.5 76.5t58.5 198.5t-58.5 198.5t-180.5 76.5h-177v-550zM292 767l-107 129h84l61 -71h18l61 71h82l-107 -129h-92z" />
    <glyph glyph-name="dcaron" unicode="&#x10f;" horiz-adv-x="698" 
d="M671 627h-46v100h102v-117l-53 -74h-56l53 74v17zM448 727h85v-727h-82v55h-20q-54 -68 -156 -68q-103 0 -163.5 75t-60.5 190q0 116 60.5 190.5t163.5 74.5q100 0 153 -68h20v278zM291 61q79 0 118.5 55t39.5 136t-39.5 136t-118.5 55q-74 0 -114.5 -52.5t-40.5 -138.5
t40.5 -138.5t114.5 -52.5z" />
    <glyph glyph-name="Dcroat" unicode="&#x110;" horiz-adv-x="749" 
d="M20 332v74h77v308h267q161 0 245.5 -96t84.5 -261t-85 -261t-245 -96h-267v332h-77zM187 82h177q122 0 180.5 76.5t58.5 198.5t-58.5 198.5t-180.5 76.5h-177v-226h234v-74h-234v-250z" />
    <glyph glyph-name="dcroat" unicode="&#x111;" horiz-adv-x="624" 
d="M533 0h-82v55h-20q-54 -68 -156 -68q-103 0 -163.5 75t-60.5 190q0 116 60.5 190.5t163.5 74.5q100 0 153 -68h20v129h-162v61h162v88h85v-88h79v-61h-79v-578zM291 61q79 0 118.5 55t39.5 136t-39.5 136t-118.5 55q-74 0 -114.5 -52.5t-40.5 -138.5t40.5 -138.5
t114.5 -52.5z" />
    <glyph glyph-name="Emacron" unicode="&#x112;" horiz-adv-x="652" 
d="M181 82h423v-82h-513v714h497v-82h-407v-221h328v-82h-328v-247zM488 809h-282v64h282v-64z" />
    <glyph glyph-name="emacron" unicode="&#x113;" horiz-adv-x="569" 
d="M519 282v-29h-384q2 -91 43 -141.5t118 -50.5q104 0 128 78h86q-13 -68 -68.5 -110t-145.5 -42q-115 0 -180 75t-65 195q0 118 65 189t178 71q107 0 165 -67.5t60 -167.5zM292 443q-65 0 -104 -33.5t-48 -85.5h291q-4 51 -41 85t-98 34zM438 619h-282v64h282v-64z" />
    <glyph glyph-name="Edotaccent" unicode="&#x116;" horiz-adv-x="652" 
d="M181 82h423v-82h-513v714h497v-82h-407v-221h328v-82h-328v-247zM396 796h-98v100h98v-100z" />
    <glyph glyph-name="edotaccent" unicode="&#x117;" horiz-adv-x="569" 
d="M519 282v-29h-384q2 -91 43 -141.5t118 -50.5q104 0 128 78h86q-13 -68 -68.5 -110t-145.5 -42q-115 0 -180 75t-65 195q0 118 65 189t178 71q107 0 165 -67.5t60 -167.5zM292 443q-65 0 -104 -33.5t-48 -85.5h291q-4 51 -41 85t-98 34zM344 627h-98v100h98v-100z" />
    <glyph glyph-name="Eogonek" unicode="&#x118;" horiz-adv-x="652" 
d="M181 82h423v-82q-31 -16 -51.5 -40.5t-20.5 -49.5q0 -52 74 -52v-58h-21q-58 0 -91 25t-33 70q0 31 21 60t52 45h-443v714h497v-82h-407v-221h328v-82h-328v-247z" />
    <glyph glyph-name="eogonek" unicode="&#x119;" horiz-adv-x="569" 
d="M519 279v-26h-384q2 -91 43 -141.5t118 -50.5q104 0 128 78h86q-15 -88 -112 -134q-76 -36 -76 -93q0 -25 19.5 -39.5t54.5 -14.5v-58h-21q-58 0 -91 25t-33 70q0 55 55 92h-10q-115 0 -180 75t-65 195q0 118 65 189t178 71q106 0 165.5 -69.5t59.5 -168.5zM292 443
q-65 0 -104 -33.5t-48 -85.5h291q-4 51 -41 85t-98 34z" />
    <glyph glyph-name="Ecaron" unicode="&#x11a;" horiz-adv-x="652" 
d="M181 82h423v-82h-513v714h497v-82h-407v-221h328v-82h-328v-247zM302 767l-107 129h84l61 -71h18l61 71h82l-107 -129h-92z" />
    <glyph glyph-name="ecaron" unicode="&#x11b;" horiz-adv-x="569" 
d="M519 282v-29h-384q2 -91 43 -141.5t118 -50.5q104 0 128 78h86q-13 -68 -68.5 -110t-145.5 -42q-115 0 -180 75t-65 195q0 118 65 189t178 71q107 0 165 -67.5t60 -167.5zM292 443q-65 0 -104 -33.5t-48 -85.5h291q-4 51 -41 85t-98 34zM240 582l-107 145h80l65 -86h18
l64 86h79l-108 -145h-91z" />
    <glyph glyph-name="uni0122" unicode="&#x122;" horiz-adv-x="746" 
d="M373 379h313v-72q0 -64 -17 -119.5t-51.5 -101.5t-94 -72.5t-137.5 -26.5q-157 0 -244 104t-87 266q0 163 88 266.5t245 103.5q111 0 183 -51.5t93 -143.5h-94q-37 113 -182 113q-119 0 -180.5 -82t-61.5 -206q0 -79 24 -142.5t80 -104.5t137 -41q105 0 156 61t51 156v13
h-221v80zM387 -220h-57l55 62v17h-44v83h100v-100z" />
    <glyph glyph-name="uni0123" unicode="&#x123;" horiz-adv-x="616" 
d="M452 504h82v-479q0 -107 -63 -169.5t-172 -62.5q-98 0 -157.5 40t-70.5 114h84q20 -80 143 -80q151 0 151 162v41h-20q-52 -68 -150 -68q-103 0 -165 72.5t-62 184.5q0 113 62 185.5t165 72.5q101 0 153 -68h20v55zM292 76q77 0 118 53t41 130q0 78 -41 131t-118 53
q-73 0 -114 -50t-41 -134q0 -83 41 -133t114 -50zM307 736h57l-55 -62v-17h44v-83h-100v100z" />
    <glyph glyph-name="Itilde" unicode="&#x128;" horiz-adv-x="284" 
d="M97 714h90v-714h-90v714zM217 832q38 0 38 67h54q0 -135 -93 -135q-40 0 -85 36q-2 2 -11 8.5t-12.5 9t-10.5 6.5t-13 5.5t-13 1.5q-38 0 -38 -67h-54q0 135 93 135q38 0 89 -39q35 -28 56 -28z" />
    <glyph glyph-name="itilde" unicode="&#x129;" horiz-adv-x="254" 
d="M169 504v-504h-85v504h85zM200 655q38 0 38 67h54q0 -135 -93 -135q-40 0 -85 36q-2 2 -11 8.5t-12.5 9t-10.5 6.5t-13 5.5t-13 1.5q-38 0 -38 -67h-54q0 135 93 135q38 0 89 -39q35 -28 56 -28z" />
    <glyph glyph-name="Imacron" unicode="&#x12a;" horiz-adv-x="284" 
d="M97 714h90v-714h-90v714zM284 809h-282v64h282v-64z" />
    <glyph glyph-name="imacron" unicode="&#x12b;" horiz-adv-x="254" 
d="M237 619h-222v64h222v-64zM169 504v-504h-85v504h85z" />
    <glyph glyph-name="Iogonek" unicode="&#x12e;" horiz-adv-x="284" 
d="M97 714h90v-714q-31 -16 -51.5 -40.5t-20.5 -49.5q0 -52 74 -52v-58h-21q-58 0 -91 25t-33 70q0 31 21 60t52 45h-20v714z" />
    <glyph glyph-name="iogonek" unicode="&#x12f;" horiz-adv-x="254" 
d="M169 504v-504q-31 -16 -51.5 -40.5t-20.5 -49.5q0 -52 74 -52v-58h-21q-58 0 -91 25t-33 70q0 31 21 60t52 45h-15v504h85zM176 627h-98v100h98v-100z" />
    <glyph glyph-name="dotlessi" unicode="&#x131;" horiz-adv-x="254" 
d="M169 504v-504h-85v504h85z" />
    <glyph glyph-name="uni0136" unicode="&#x136;" horiz-adv-x="718" 
d="M547 714h116l-248 -239l270 -475h-101l-227 399h-20l-156 -153v-246h-90v714h90v-356zM377 -220h-57l55 62v17h-44v83h100v-100z" />
    <glyph glyph-name="uni0137" unicode="&#x137;" horiz-adv-x="553" 
d="M540 0h-93l-147 263h-20l-113 -120v-143h-85v727h85v-477l238 254h100l-154 -166zM302 -220h-57l55 62v17h-44v83h100v-100z" />
    <glyph glyph-name="kgreenlandic" unicode="&#x138;" horiz-adv-x="553" 
d="M540 0h-93l-147 264h-20l-113 -121v-143h-85v504h85v-254l238 254h100l-154 -165z" />
    <glyph glyph-name="Lacute" unicode="&#x139;" horiz-adv-x="623" 
d="M181 85h401v-85h-491v714h90v-629zM284 896l-109 -129h-78l85 129h102z" />
    <glyph glyph-name="lacute" unicode="&#x13a;" horiz-adv-x="249" 
d="M82 727h85v-727h-85v727zM274 896l-109 -129h-78l85 129h102z" />
    <glyph glyph-name="uni013B" unicode="&#x13b;" horiz-adv-x="623" 
d="M181 85h401v-85h-491v714h90v-629zM334 -220h-57l55 62v17h-44v83h100v-100z" />
    <glyph glyph-name="uni013C" unicode="&#x13c;" horiz-adv-x="249" 
d="M82 727h85v-727h-85v727zM120 -220h-57l55 62v17h-44v83h100v-100z" />
    <glyph glyph-name="Lcaron" unicode="&#x13d;" horiz-adv-x="623" 
d="M181 85h401v-85h-491v714h90v-629zM415 614h-46v100h102v-117l-53 -74h-56l53 74v17z" />
    <glyph glyph-name="lcaron" unicode="&#x13e;" horiz-adv-x="333" 
d="M82 727h85v-727h-85v727zM306 627h-46v100h102v-117l-53 -74h-56l53 74v17z" />
    <glyph glyph-name="Lslash" unicode="&#x141;" horiz-adv-x="641" 
d="M199 85h401v-85h-491v309l-89 -36v78l89 36v327h90v-291l174 70v-77l-174 -71v-260z" />
    <glyph glyph-name="lslash" unicode="&#x142;" horiz-adv-x="337" 
d="M27 267v81l99 45v334h85v-296l99 45v-81l-99 -45v-350h-85v312z" />
    <glyph glyph-name="Nacute" unicode="&#x143;" horiz-adv-x="766" 
d="M587 714h88v-714h-140l-336 597h-20v-597h-88v714h140l336 -597h20v597zM524 896l-109 -129h-78l85 129h102z" />
    <glyph glyph-name="nacute" unicode="&#x144;" horiz-adv-x="604" 
d="M332 517q94 0 146 -54t52 -146v-317h-85v302q0 139 -129 139q-66 0 -107.5 -49t-41.5 -118v-274h-85v504h82v-55h19q47 68 149 68zM449 727l-109 -145h-77l86 145h100z" />
    <glyph glyph-name="uni0145" unicode="&#x145;" horiz-adv-x="766" 
d="M587 714h88v-714h-140l-336 597h-20v-597h-88v714h140l336 -597h20v597zM373 -220h-57l55 62v17h-44v83h100v-100z" />
    <glyph glyph-name="uni0146" unicode="&#x146;" horiz-adv-x="604" 
d="M332 517q94 0 146 -54t52 -146v-317h-85v302q0 139 -129 139q-66 0 -107.5 -49t-41.5 -118v-274h-85v504h82v-55h19q47 68 149 68zM302 -220h-57l55 62v17h-44v83h100v-100z" />
    <glyph glyph-name="Ncaron" unicode="&#x147;" horiz-adv-x="766" 
d="M587 714h88v-714h-140l-336 597h-20v-597h-88v714h140l336 -597h20v597zM337 767l-107 129h84l61 -71h18l61 71h82l-107 -129h-92z" />
    <glyph glyph-name="ncaron" unicode="&#x148;" horiz-adv-x="604" 
d="M332 517q94 0 146 -54t52 -146v-317h-85v302q0 139 -129 139q-66 0 -107.5 -49t-41.5 -118v-274h-85v504h82v-55h19q47 68 149 68zM259 582l-107 145h80l65 -86h18l64 86h79l-108 -145h-91z" />
    <glyph glyph-name="Eng" unicode="&#x14a;" horiz-adv-x="766" 
d="M675 714v-693q0 -104 -55.5 -162.5t-152.5 -58.5h-60v78h58q54 0 87.5 30t35.5 92h-53l-336 597h-20v-597h-88v714h140l336 -597h20v597h88z" />
    <glyph glyph-name="eng" unicode="&#x14b;" horiz-adv-x="604" 
d="M445 -38v340q0 139 -129 139q-66 0 -107.5 -49t-41.5 -118v-274h-85v504h82v-55h19q47 68 149 68q94 0 146 -54t52 -146v-360q0 -84 -40 -120.5t-126 -36.5h-59v76h55q46 0 65.5 20t19.5 66z" />
    <glyph glyph-name="Omacron" unicode="&#x14c;" horiz-adv-x="776" 
d="M388 727q157 0 245 -105t88 -265t-88 -265t-245 -105q-158 0 -245.5 104.5t-87.5 265.5t87.5 265.5t245.5 104.5zM388 69q120 0 181 83t61 205t-61 205t-181 83t-181 -83t-61 -205t61 -205t181 -83zM529 809h-282v64h282v-64z" />
    <glyph glyph-name="omacron" unicode="&#x14d;" horiz-adv-x="598" 
d="M299 517q115 0 181.5 -75t66.5 -190t-66.5 -190t-181.5 -75t-181.5 75t-66.5 190t66.5 190t181.5 75zM299 61q79 0 121 55.5t42 135.5t-42 135.5t-121 55.5t-121 -55.5t-42 -135.5t42 -135.5t121 -55.5zM440 619h-282v64h282v-64z" />
    <glyph glyph-name="Ohungarumlaut" unicode="&#x150;" horiz-adv-x="776" 
d="M388 727q157 0 245 -105t88 -265t-88 -265t-245 -105q-158 0 -245.5 104.5t-87.5 265.5t87.5 265.5t245.5 104.5zM388 69q120 0 181 83t61 205t-61 205t-181 83t-181 -83t-61 -205t61 -205t181 -83zM440 896l-99 -129h-74l77 129h96zM602 896l-100 -129h-73l77 129h96z
" />
    <glyph glyph-name="ohungarumlaut" unicode="&#x151;" horiz-adv-x="598" 
d="M299 517q115 0 181.5 -75t66.5 -190t-66.5 -190t-181.5 -75t-181.5 75t-66.5 190t66.5 190t181.5 75zM299 61q79 0 121 55.5t42 135.5t-42 135.5t-121 55.5t-121 -55.5t-42 -135.5t42 -135.5t121 -55.5zM346 727l-98 -145h-72l76 145h94zM504 727l-99 -145h-71l76 145h94
z" />
    <glyph glyph-name="OE" unicode="&#x152;" horiz-adv-x="1085" 
d="M665 82h372v-82h-462v51h-20q-64 -64 -175 -64q-152 0 -238.5 103t-86.5 267t86.5 267t238.5 103q112 0 175 -63h20v50h447v-82h-357v-221h277v-82h-277v-247zM386 69q72 0 121 31t68 79v357q-19 47 -68 78t-121 31q-61 0 -108 -24t-75.5 -64.5t-42.5 -91t-14 -108.5
t14 -108.5t42.5 -91t75.5 -64.5t108 -24z" />
    <glyph glyph-name="oe" unicode="&#x153;" horiz-adv-x="966" 
d="M916 253h-376q1 -89 41 -140.5t115 -51.5q100 0 127 78h86q-13 -68 -68 -110t-145 -42q-124 0 -188 98h-21q-64 -98 -192 -98q-113 0 -178.5 75t-65.5 190t65.5 190t178.5 75q125 0 191 -95h22q63 95 189 95q103 0 161 -68.5t58 -166.5v-29zM295 61q78 0 119 55.5
t41 135.5t-41 135.5t-119 55.5q-77 0 -118 -55.5t-41 -135.5t41 -135.5t118 -55.5zM694 443q-64 0 -101.5 -33t-48.5 -86h284q-4 51 -39 85t-95 34z" />
    <glyph glyph-name="Racute" unicode="&#x154;" horiz-adv-x="709" 
d="M642 506q0 -140 -119 -188l124 -318h-95l-117 299q-9 -1 -28 -1h-226v-298h-90v714h316q113 0 174 -54.5t61 -153.5zM551 506q0 63 -37 95.5t-120 32.5h-213v-256h213q83 0 120 32.5t37 95.5zM463 896l-109 -129h-78l85 129h102z" />
    <glyph glyph-name="racute" unicode="&#x155;" horiz-adv-x="399" 
d="M365 504v-80h-39q-75 0 -117 -44.5t-42 -127.5v-252h-85v504h82v-61h20q49 61 146 61h35zM339 727l-109 -145h-77l86 145h100z" />
    <glyph glyph-name="uni0156" unicode="&#x156;" horiz-adv-x="709" 
d="M642 506q0 -140 -119 -188l124 -318h-95l-117 299q-9 -1 -28 -1h-226v-298h-90v714h316q113 0 174 -54.5t61 -153.5zM551 506q0 63 -37 95.5t-120 32.5h-213v-256h213q83 0 120 32.5t37 95.5zM350 -220h-57l55 62v17h-44v83h100v-100z" />
    <glyph glyph-name="uni0157" unicode="&#x157;" horiz-adv-x="399" 
d="M365 504v-80h-39q-75 0 -117 -44.5t-42 -127.5v-252h-85v504h82v-61h20q49 61 146 61h35zM124 -220h-57l55 62v17h-44v83h100v-100z" />
    <glyph glyph-name="Rcaron" unicode="&#x158;" horiz-adv-x="709" 
d="M642 506q0 -140 -119 -188l124 -318h-95l-117 299q-9 -1 -28 -1h-226v-298h-90v714h316q113 0 174 -54.5t61 -153.5zM551 506q0 63 -37 95.5t-120 32.5h-213v-256h213q83 0 120 32.5t37 95.5zM302 767l-107 129h84l61 -71h18l61 71h82l-107 -129h-92z" />
    <glyph glyph-name="rcaron" unicode="&#x159;" horiz-adv-x="399" 
d="M365 504v-80h-39q-75 0 -117 -44.5t-42 -127.5v-252h-85v504h82v-61h20q49 61 146 61h35zM175 582l-107 145h80l65 -86h18l64 86h79l-108 -145h-91z" />
    <glyph glyph-name="Sacute" unicode="&#x15a;" horiz-adv-x="664" 
d="M288 422l129 -24q187 -38 187 -199q0 -88 -70.5 -150t-198.5 -62q-123 0 -201 59t-86 153h91q11 -68 65 -99t135 -31q76 0 125 34.5t49 93.5q0 96 -125 119l-126 23q-184 34 -184 187q0 86 66.5 143.5t184.5 57.5q109 0 178 -52.5t81 -140.5h-91q-26 111 -170 111
q-69 0 -113.5 -31t-44.5 -86q0 -85 119 -106zM458 896l-109 -129h-78l85 129h102z" />
    <glyph glyph-name="sacute" unicode="&#x15b;" horiz-adv-x="514" 
d="M226 306l97 -16q149 -24 149 -147q0 -64 -55.5 -110t-152.5 -46q-102 0 -157.5 42t-64.5 116h85q7 -41 42.5 -62.5t90.5 -21.5q59 0 93 20t34 60q0 59 -86 73l-99 16q-141 22 -141 137q0 65 52 107.5t148 42.5q86 0 137.5 -38.5t59.5 -105.5h-84q-5 34 -38 52t-80 18
q-50 0 -80 -18.5t-30 -52.5q0 -52 80 -66zM387 727l-109 -145h-77l86 145h100z" />
    <glyph glyph-name="Scedilla" unicode="&#x15e;" horiz-adv-x="664" 
d="M289 419l124 -22q191 -33 191 -198q0 -87 -70.5 -149.5t-198.5 -62.5l-18 -47h13q11 8 31 8q28 0 48 -22t20 -56q0 -35 -24 -60t-71 -25q-40 0 -63.5 20.5t-25.5 48.5h54q6 -24 36 -24q17 0 27 10.5t10 27.5t-10 27t-26 10q-20 0 -31 -11h-52l37 95q-104 10 -169 67
t-73 143h91q11 -68 65 -99t135 -31q76 0 125 35t49 93q0 97 -127 118l-116 19q-191 32 -191 189q0 86 67 145t184 59q109 0 178 -52.5t81 -140.5h-91q-26 111 -170 111q-68 0 -113 -32t-45 -87q0 -86 119 -107z" />
    <glyph glyph-name="scedilla" unicode="&#x15f;" horiz-adv-x="513" 
d="M224 306l97 -16q149 -24 149 -147q0 -64 -55.5 -110t-152.5 -46h-10l-18 -47h13q11 8 31 8q28 0 48 -22t20 -56q0 -35 -24 -60t-71 -25q-40 0 -63.5 20.5t-25.5 48.5h54q6 -24 36 -24q17 0 27 10.5t10 27.5t-10 27t-26 10q-20 0 -31 -11h-52l37 97q-153 22 -167 154h85
q7 -41 42.5 -62.5t90.5 -21.5q59 0 93 20t34 60q0 31 -20.5 48t-65.5 25l-99 16q-141 22 -141 137q0 65 52 107.5t148 42.5q86 0 137.5 -38.5t59.5 -105.5h-84q-5 34 -38 52t-80 18q-50 0 -80 -18.5t-30 -52.5q0 -52 80 -66z" />
    <glyph glyph-name="Scaron" unicode="&#x160;" horiz-adv-x="664" 
d="M288 422l129 -24q187 -38 187 -199q0 -88 -70.5 -150t-198.5 -62q-123 0 -201 59t-86 153h91q11 -68 65 -99t135 -31q76 0 125 34.5t49 93.5q0 96 -125 119l-126 23q-184 34 -184 187q0 86 66.5 143.5t184.5 57.5q109 0 178 -52.5t81 -140.5h-91q-26 111 -170 111
q-69 0 -113.5 -31t-44.5 -86q0 -85 119 -106zM283 767l-107 129h84l61 -71h18l61 71h82l-107 -129h-92z" />
    <glyph glyph-name="scaron" unicode="&#x161;" horiz-adv-x="514" 
d="M226 306l97 -16q149 -24 149 -147q0 -64 -55.5 -110t-152.5 -46q-102 0 -157.5 42t-64.5 116h85q7 -41 42.5 -62.5t90.5 -21.5q59 0 93 20t34 60q0 59 -86 73l-99 16q-141 22 -141 137q0 65 52 107.5t148 42.5q86 0 137.5 -38.5t59.5 -105.5h-84q-5 34 -38 52t-80 18
q-50 0 -80 -18.5t-30 -52.5q0 -52 80 -66zM213 582l-107 145h80l65 -86h18l64 86h79l-108 -145h-91z" />
    <glyph glyph-name="uni0162" unicode="&#x162;" horiz-adv-x="597" 
d="M578 714v-80h-234v-634h-90v634h-236v80h560zM295 -220h-57l55 62v17h-44v83h100v-100z" />
    <glyph glyph-name="uni0163" unicode="&#x163;" horiz-adv-x="408" 
d="M214 504h136v-74h-136v-286q0 -37 19 -52.5t69 -15.5h48v-76h-56q-87 0 -126 27t-39 103v300h-102v74h102v152h85v-152zM230 -220h-57l55 62v17h-44v83h100v-100z" />
    <glyph glyph-name="Tcaron" unicode="&#x164;" horiz-adv-x="597" 
d="M578 714v-80h-234v-634h-90v634h-236v80h560zM252 767l-107 129h84l61 -71h18l61 71h82l-107 -129h-92z" />
    <glyph glyph-name="tcaron" unicode="&#x165;" horiz-adv-x="433" 
d="M394 645h-46v100h102v-117l-53 -74h-56l53 74v17zM214 504h136v-74h-136v-279q0 -40 19.5 -57.5t69.5 -17.5h47v-76h-53q-87 0 -127.5 28.5t-40.5 105.5v296h-102v74h102v152h85v-152z" />
    <glyph glyph-name="Tbar" unicode="&#x166;" horiz-adv-x="597" 
d="M578 714v-80h-234v-228h160v-74h-160v-332h-90v332h-162v74h162v228h-236v80h560z" />
    <glyph glyph-name="tbar" unicode="&#x167;" horiz-adv-x="408" 
d="M214 504h136v-74h-136v-106h136v-74h-136v-106q0 -37 19 -52.5t69 -15.5h48v-76h-56q-87 0 -126 27t-39 103v120h-102v74h102v106h-102v74h102v152h85v-152z" />
    <glyph glyph-name="Utilde" unicode="&#x168;" horiz-adv-x="740" 
d="M561 714h90v-459q0 -128 -72.5 -198t-208.5 -70t-208.5 70t-72.5 198v459h90v-458q0 -86 49.5 -136.5t141.5 -50.5t141.5 50.5t49.5 136.5v458zM443 832q38 0 38 67h54q0 -135 -93 -135q-40 0 -85 36q-2 2 -11 8.5t-12.5 9t-10.5 6.5t-13 5.5t-13 1.5q-38 0 -38 -67h-54
q0 135 93 135q38 0 89 -39q35 -28 56 -28z" />
    <glyph glyph-name="utilde" unicode="&#x169;" horiz-adv-x="601" 
d="M270 -13q-94 0 -145 54t-51 146v317h85v-302q0 -139 127 -139q65 0 106.5 49.5t41.5 117.5v274h85v-504h-82v55h-19q-47 -68 -148 -68zM368 655q38 0 38 67h54q0 -135 -93 -135q-40 0 -85 36q-2 2 -11 8.5t-12.5 9t-10.5 6.5t-13 5.5t-13 1.5q-38 0 -38 -67h-54
q0 135 93 135q38 0 89 -39q35 -28 56 -28z" />
    <glyph glyph-name="Umacron" unicode="&#x16a;" horiz-adv-x="740" 
d="M561 714h90v-459q0 -128 -72.5 -198t-208.5 -70t-208.5 70t-72.5 198v459h90v-458q0 -86 49.5 -136.5t141.5 -50.5t141.5 50.5t49.5 136.5v458zM511 809h-282v64h282v-64z" />
    <glyph glyph-name="umacron" unicode="&#x16b;" horiz-adv-x="601" 
d="M270 -13q-94 0 -145 54t-51 146v317h85v-302q0 -139 127 -139q65 0 106.5 49.5t41.5 117.5v274h85v-504h-82v55h-19q-47 -68 -148 -68zM437 619h-282v64h282v-64z" />
    <glyph glyph-name="Uring" unicode="&#x16e;" horiz-adv-x="740" 
d="M561 714h90v-459q0 -128 -72.5 -198t-208.5 -70t-208.5 70t-72.5 198v459h90v-458q0 -86 49.5 -136.5t141.5 -50.5t141.5 50.5t49.5 136.5v458zM370 970q45 0 77 -31.5t32 -76.5q0 -44 -32 -76t-77 -32t-77 32t-32 76q0 45 32 76.5t77 31.5zM370 807q23 0 39 16t16 39
t-16 39t-39 16t-39 -16t-16 -39t16 -39t39 -16z" />
    <glyph glyph-name="uring" unicode="&#x16f;" horiz-adv-x="601" 
d="M270 -13q-94 0 -145 54t-51 146v317h85v-302q0 -139 127 -139q65 0 106.5 49.5t41.5 117.5v274h85v-504h-82v55h-19q-47 -68 -148 -68zM188 687q0 45 32 76.5t77 31.5t77 -31.5t32 -76.5t-32 -76.5t-77 -31.5t-77 31.5t-32 76.5zM242 687q0 -23 16 -39t39 -16t39 16
t16 39t-16 39t-39 16t-39 -16t-16 -39z" />
    <glyph glyph-name="Uhungarumlaut" unicode="&#x170;" horiz-adv-x="740" 
d="M561 714h90v-459q0 -128 -72.5 -198t-208.5 -70t-208.5 70t-72.5 198v459h90v-458q0 -86 49.5 -136.5t141.5 -50.5t141.5 50.5t49.5 136.5v458zM410 896l-99 -129h-74l77 129h96zM572 896l-100 -129h-73l77 129h96z" />
    <glyph glyph-name="uhungarumlaut" unicode="&#x171;" horiz-adv-x="601" 
d="M270 -13q-94 0 -145 54t-51 146v317h85v-302q0 -139 127 -139q65 0 106.5 49.5t41.5 117.5v274h85v-504h-82v55h-19q-47 -68 -148 -68zM326 727l-98 -145h-72l76 145h94zM484 727l-99 -145h-71l76 145h94z" />
    <glyph glyph-name="Uogonek" unicode="&#x172;" horiz-adv-x="740" 
d="M561 714h90v-459q0 -183 -151 -246q-99 -41 -99 -99q0 -52 74 -52v-58h-21q-58 0 -91 25t-33 70q0 52 54 92h-14q-136 0 -208.5 70t-72.5 198v459h90v-458q0 -86 49.5 -136.5t141.5 -50.5t141.5 50.5t49.5 136.5v458z" />
    <glyph glyph-name="uogonek" unicode="&#x173;" horiz-adv-x="601" 
d="M437 0v55h-19q-47 -68 -148 -68q-94 0 -145 54t-51 146v317h85v-302q0 -139 127 -139q65 0 106.5 49.5t41.5 117.5v274h85v-504q-31 -16 -51.5 -40.5t-20.5 -49.5q0 -52 74 -52v-58h-21q-58 0 -91 25t-33 70q0 30 17 58.5t44 46.5z" />
    <glyph glyph-name="Ydieresis" unicode="&#x178;" horiz-adv-x="643" 
d="M337 389l191 325h95l-257 -441v-273h-90v273l-257 441h99l191 -325h28zM277 796h-92v100h92v-100zM458 796h-92v100h92v-100z" />
    <glyph glyph-name="Zacute" unicode="&#x179;" horiz-adv-x="645" 
d="M582 714v-101l-423 -511v-20h437v-82h-548v102l424 510v20h-397v82h507zM464 896l-109 -129h-78l85 129h102z" />
    <glyph glyph-name="zacute" unicode="&#x17a;" horiz-adv-x="515" 
d="M467 0h-419v94l306 317v19h-289v74h399v-93l-305 -317v-20h308v-74zM391 727l-109 -145h-77l86 145h100z" />
    <glyph glyph-name="Zdotaccent" unicode="&#x17b;" horiz-adv-x="645" 
d="M582 714v-101l-423 -511v-20h437v-82h-548v102l424 510v20h-397v82h507zM372 796h-98v100h98v-100z" />
    <glyph glyph-name="zdotaccent" unicode="&#x17c;" horiz-adv-x="515" 
d="M467 0h-419v94l306 317v19h-289v74h399v-93l-305 -317v-20h308v-74zM307 627h-98v100h98v-100z" />
    <glyph glyph-name="Zcaron" unicode="&#x17d;" horiz-adv-x="645" 
d="M582 714v-101l-423 -511v-20h437v-82h-548v102l424 510v20h-397v82h507zM277 767l-107 129h84l61 -71h18l61 71h82l-107 -129h-92z" />
    <glyph glyph-name="zcaron" unicode="&#x17e;" horiz-adv-x="515" 
d="M467 0h-419v94l306 317v19h-289v74h399v-93l-305 -317v-20h308v-74zM222 582l-107 145h80l65 -86h18l64 86h79l-108 -145h-91z" />
    <glyph glyph-name="florin" unicode="&#x192;" horiz-adv-x="432" 
d="M135 -200h-85l98 555h-94v71h106l22 125q17 93 65.5 134.5t135.5 41.5h39v-74h-41q-95 0 -115 -114l-21 -113h121v-71h-133z" />
    <glyph glyph-name="circumflex" unicode="&#x2c6;" horiz-adv-x="378" 
d="M235 727l107 -145h-80l-65 86h-18l-64 -86h-79l108 145h91z" />
    <glyph glyph-name="caron" unicode="&#x2c7;" horiz-adv-x="378" 
d="M143 582l-107 145h80l65 -86h18l64 86h79l-108 -145h-91z" />
    <glyph glyph-name="breve" unicode="&#x2d8;" horiz-adv-x="357" 
d="M251 727h66q0 -69 -36.5 -107t-101.5 -38q-66 0 -102.5 38t-36.5 107h65q0 -39 18.5 -61.5t54.5 -22.5t54.5 22.5t18.5 61.5z" />
    <glyph glyph-name="dotaccent" unicode="&#x2d9;" horiz-adv-x="170" 
d="M134 627h-98v100h98v-100z" />
    <glyph glyph-name="ring" unicode="&#x2da;" horiz-adv-x="298" 
d="M40 687q0 45 32 76.5t77 31.5t77 -31.5t32 -76.5t-32 -76.5t-77 -31.5t-77 31.5t-32 76.5zM94 687q0 -23 16 -39t39 -16t39 16t16 39t-16 39t-39 16t-39 -16t-16 -39z" />
    <glyph glyph-name="ogonek" unicode="&#x2db;" horiz-adv-x="224" 
d="M115 7l54 -7q-31 -16 -51.5 -40.5t-20.5 -49.5q0 -52 74 -52v-58h-21q-58 0 -91 25t-33 70q0 37 26 68.5t63 43.5z" />
    <glyph glyph-name="tilde" unicode="&#x2dc;" horiz-adv-x="407" 
d="M276 655q38 0 38 67h54q0 -135 -93 -135q-40 0 -85 36q-2 2 -11 8.5t-12.5 9t-10.5 6.5t-13 5.5t-13 1.5q-38 0 -38 -67h-54q0 135 93 135q38 0 89 -39q35 -28 56 -28z" />
    <glyph glyph-name="hungarumlaut" unicode="&#x2dd;" horiz-adv-x="406" 
d="M209 727l-98 -145h-72l76 145h94zM367 727l-99 -145h-71l76 145h94z" />
    <glyph glyph-name="uni03A9" unicode="&#x3a9;" horiz-adv-x="758" 
d="M569 98v-20h132v-78h-275v76q186 114 186 302q0 122 -64 194.5t-169 72.5q-106 0 -169.5 -72.5t-63.5 -194.5q0 -189 185 -302v-76h-275v78h133v20q-134 114 -134 289q0 152 88 246t236 94t236 -94t88 -246q0 -175 -134 -289z" />
    <glyph glyph-name="pi" unicode="&#x3c0;" horiz-adv-x="615" 
d="M565 0h-36q-77 0 -109 37.5t-32 106.5v286h-196v-430h-85v430h-80v74h538v-74h-92v-284q0 -72 57 -72h35v-74z" />
    <glyph glyph-name="uni0401" unicode="&#x401;" horiz-adv-x="652" 
d="M181 82h423v-82h-513v714h497v-82h-407v-221h328v-82h-328v-247zM290 796h-92v100h92v-100zM471 796h-92v100h92v-100z" />
    <glyph glyph-name="uni0402" unicode="&#x402;" horiz-adv-x="799" 
d="M747 204q0 -103 -60.5 -160t-173.5 -57q-34 0 -53 4v82q12 -4 43 -4q154 0 154 136q0 67 -42.5 102.5t-146.5 35.5q-81 0 -162 -19v-324h-90v634h-198v80h544v-80h-256v-229q90 18 177 18q137 0 200.5 -60t63.5 -159z" />
    <glyph glyph-name="uni0403" unicode="&#x403;" horiz-adv-x="623" 
d="M579 632h-398v-632h-90v714h488v-82zM453 896l-109 -129h-78l85 129h102z" />
    <glyph glyph-name="uni0404" unicode="&#x404;" horiz-adv-x="717" 
d="M572 194h95q-21 -94 -95.5 -150.5t-187.5 -56.5q-154 0 -241.5 104t-87.5 266q0 163 87 266.5t242 103.5q107 0 179.5 -51.5t95.5 -142.5h-95q-42 113 -181 113q-106 0 -164 -67t-69 -172h334v-80h-335q4 -112 64 -185.5t171 -73.5q73 0 121.5 33.5t66.5 92.5z" />
    <glyph glyph-name="uni0405" unicode="&#x405;" horiz-adv-x="664" 
d="M288 422l129 -24q187 -38 187 -199q0 -88 -70.5 -150t-198.5 -62q-123 0 -201 59t-86 153h91q11 -68 65 -99t135 -31q76 0 125 34.5t49 93.5q0 96 -125 119l-126 23q-184 34 -184 187q0 86 66.5 143.5t184.5 57.5q109 0 178 -52.5t81 -140.5h-91q-26 111 -170 111
q-69 0 -113.5 -31t-44.5 -86q0 -85 119 -106z" />
    <glyph glyph-name="uni0406" unicode="&#x406;" horiz-adv-x="284" 
d="M97 714h90v-714h-90v714z" />
    <glyph glyph-name="uni0407" unicode="&#x407;" horiz-adv-x="284" 
d="M97 714h90v-714h-90v714zM99 796h-92v100h92v-100zM280 796h-92v100h92v-100z" />
    <glyph glyph-name="uni0408" unicode="&#x408;" horiz-adv-x="582" 
d="M268 -13q-100 0 -161.5 59.5t-68.5 168.5h90q12 -146 142 -146q62 0 97.5 39.5t35.5 118.5v487h90v-486q0 -114 -59.5 -177.5t-165.5 -63.5z" />
    <glyph glyph-name="uni0409" unicode="&#x409;" horiz-adv-x="1125" 
d="M825 0h-296v632h-278v-197q0 -174 -23.5 -269.5t-69 -130.5t-125.5 -35h-20v89h19q49 0 76.5 25t42.5 101.5t15 220.5v278h453v-273h206q118 0 183 -58.5t65 -161.5q0 -105 -64.5 -163t-183.5 -58zM619 80h190q173 0 173 141q0 140 -173 140h-190v-281z" />
    <glyph glyph-name="uni040A" unicode="&#x40a;" horiz-adv-x="1157" 
d="M863 0h-293v336h-389v-336h-90v714h90v-294h389v294h90v-287h203q116 0 179 -55.5t63 -157.5q0 -100 -63.5 -157t-178.5 -57zM660 80h190q87 0 125.5 34.5t38.5 99.5q0 133 -164 133h-190v-267z" />
    <glyph glyph-name="uni040B" unicode="&#x40b;" horiz-adv-x="805" 
d="M747 0h-90v198q0 23 -1 35t-5.5 32t-16.5 31t-31 23t-51 17t-75 5q-86 0 -171 -20v-321h-90v634h-198v80h544v-80h-256v-230q87 19 182 19q52 0 92.5 -7t67.5 -17.5t46 -29t29.5 -35.5t16 -43t6.5 -44.5t1 -47.5v-199z" />
    <glyph glyph-name="uni040C" unicode="&#x40c;" horiz-adv-x="689" 
d="M91 0v714h90v-305h198l158 305h98l-180 -347l189 -367h-98l-169 327h-196v-327h-90zM476 896l-109 -129h-78l85 129h102z" />
    <glyph glyph-name="uni040E" unicode="&#x40e;" horiz-adv-x="637" 
d="M313 339h28l179 375h94l-341 -714h-93l102 214l-264 500h97zM414 904h73q-2 -73 -50 -114t-125 -41q-75 0 -123 41t-50 114h73q1 -42 28 -66t72 -24t73 24t29 66z" />
    <glyph glyph-name="uni040F" unicode="&#x40f;" horiz-adv-x="750" 
d="M330 -175v175h-239v714h90v-632h388v632h90v-714h-239v-175h-90z" />
    <glyph glyph-name="uni0410" unicode="&#x410;" horiz-adv-x="687" 
d="M573 0l-76 219h-310l-75 -219h-92l251 714h144l252 -714h-94zM326 622l-111 -321h254l-111 321h-32z" />
    <glyph glyph-name="uni0411" unicode="&#x411;" horiz-adv-x="687" 
d="M181 424h215q114 0 176.5 -56t62.5 -156t-62.5 -156t-176.5 -56h-305v714h489v-82h-399v-208zM181 80h200q87 0 125.5 34t38.5 99q0 132 -164 132h-200v-265z" />
    <glyph glyph-name="uni0412" unicode="&#x412;" horiz-adv-x="701" 
d="M551 387v-20q45 -21 73 -66.5t28 -99.5q0 -90 -62 -145.5t-180 -55.5h-319v714h311q109 0 168.5 -51.5t59.5 -129.5q0 -103 -79 -146zM181 634v-223h219q139 0 139 114q0 56 -40 82.5t-101 26.5h-217zM181 80h223q69 0 113 29.5t44 98.5q0 65 -43.5 94.5t-112.5 29.5
h-224v-252z" />
    <glyph glyph-name="uni0413" unicode="&#x413;" horiz-adv-x="623" 
d="M579 632h-398v-632h-90v714h488v-82z" />
    <glyph glyph-name="uni0414" unicode="&#x414;" horiz-adv-x="758" 
d="M628 82h103v-257h-89v175h-541v-175h-89v257h74q90 190 90 488v144h452v-632zM539 82v550h-277v-77q0 -292 -80 -473h357z" />
    <glyph glyph-name="uni0415" unicode="&#x415;" horiz-adv-x="652" 
d="M181 82h423v-82h-513v714h497v-82h-407v-221h328v-82h-328v-247z" />
    <glyph glyph-name="uni0416" unicode="&#x416;" horiz-adv-x="1026" 
d="M724 322h-166v-322h-89v322h-167l-151 -322h-95l169 362l-160 352h96l141 -310h167v310h89v-310h166l142 310h96l-161 -352l170 -362h-95z" />
    <glyph glyph-name="uni0417" unicode="&#x417;" horiz-adv-x="659" 
d="M492 527q0 56 -43.5 87t-111.5 31q-142 0 -167 -112h-92q12 90 80.5 142t178.5 52q117 0 181.5 -54t64.5 -135q0 -103 -77 -146v-20q103 -43 103 -171q0 -90 -71.5 -152t-197.5 -62q-129 0 -203.5 55.5t-90.5 153.5h94q34 -127 201 -127q80 0 128 36t48 98
q0 128 -162 128h-114v82h115q71 0 103.5 32t32.5 82z" />
    <glyph glyph-name="uni0418" unicode="&#x418;" horiz-adv-x="765" 
d="M91 714h88v-605h20l336 605h139v-714h-88v605h-20l-336 -605h-139v714z" />
    <glyph glyph-name="uni0419" unicode="&#x419;" horiz-adv-x="765" 
d="M91 714h88v-605h20l336 605h139v-714h-88v605h-20l-336 -605h-139v714zM484 904h73q-2 -73 -50 -114t-125 -41q-75 0 -123 41t-50 114h73q1 -42 28 -66t72 -24t73 24t29 66z" />
    <glyph glyph-name="uni041A" unicode="&#x41a;" horiz-adv-x="677" 
d="M91 0v714h90v-305h198l158 305h98l-180 -347l189 -367h-98l-169 327h-196v-327h-90z" />
    <glyph glyph-name="uni041B" unicode="&#x41b;" horiz-adv-x="726" 
d="M13 89h19q50 0 77 26t42 105.5t15 231.5v262h469v-714h-90v632h-294v-197q0 -174 -23.5 -269.5t-69 -130.5t-125.5 -35h-20v89z" />
    <glyph glyph-name="uni041C" unicode="&#x41c;" horiz-adv-x="862" 
d="M91 0v714h147l184 -353h20l181 353h148v-714h-88v612h-20l-186 -357h-92l-186 357h-20v-612h-88z" />
    <glyph glyph-name="uni041D" unicode="&#x41d;" horiz-adv-x="761" 
d="M580 714h90v-714h-90v326h-399v-326h-90v714h90v-304h399v304z" />
    <glyph glyph-name="uni041E" unicode="&#x41e;" horiz-adv-x="776" 
d="M388 727q157 0 245 -105t88 -265t-88 -265t-245 -105q-158 0 -245.5 104.5t-87.5 265.5t87.5 265.5t245.5 104.5zM388 69q120 0 181 83t61 205t-61 205t-181 83t-181 -83t-61 -205t61 -205t181 -83z" />
    <glyph glyph-name="uni041F" unicode="&#x41f;" horiz-adv-x="754" 
d="M91 714h572v-714h-90v632h-392v-632h-90v714z" />
    <glyph glyph-name="uni0420" unicode="&#x420;" horiz-adv-x="687" 
d="M91 714h302q116 0 179 -56t63 -157q0 -102 -63 -158.5t-179 -56.5h-212v-286h-90v714zM181 366h197q166 0 166 134t-166 134h-197v-268z" />
    <glyph glyph-name="uni0421" unicode="&#x421;" horiz-adv-x="718" 
d="M573 203h95q-23 -99 -96 -157.5t-187 -58.5q-156 0 -243 103t-87 267t88 267t243 103q108 0 180 -53.5t94 -146.5h-95q-42 118 -179 118q-118 0 -179 -83t-61 -205q0 -123 60.5 -205.5t178.5 -82.5q74 0 122 35.5t66 98.5z" />
    <glyph glyph-name="uni0422" unicode="&#x422;" horiz-adv-x="597" 
d="M578 714v-80h-234v-634h-90v634h-236v80h560z" />
    <glyph glyph-name="uni0423" unicode="&#x423;" horiz-adv-x="637" 
d="M313 339h28l179 375h94l-341 -714h-93l102 214l-264 500h97z" />
    <glyph glyph-name="uni0424" unicode="&#x424;" horiz-adv-x="852" 
d="M470 655h12q151 0 238.5 -73.5t87.5 -214.5q0 -142 -87 -215t-239 -73h-12v-92h-88v92h-12q-152 0 -239 73t-87 215q0 141 87.5 214.5t238.5 73.5h12v82h88v-82zM370 159h12v416h-12q-112 0 -174.5 -52.5t-62.5 -155.5q0 -104 62.5 -156t174.5 -52zM470 159h12
q111 0 174 52t63 156q0 103 -62.5 155.5t-174.5 52.5h-12v-416z" />
    <glyph glyph-name="uni0425" unicode="&#x425;" horiz-adv-x="647" 
d="M338 420l161 294h95l-189 -345l220 -369h-99l-190 318h-27l-190 -318h-97l220 369l-189 345h97l161 -294h27z" />
    <glyph glyph-name="uni0426" unicode="&#x426;" horiz-adv-x="788" 
d="M672 -175v175h-581v714h90v-632h387v632h90v-632h103v-257h-89z" />
    <glyph glyph-name="uni0427" unicode="&#x427;" horiz-adv-x="680" 
d="M58 714h90v-204q0 -28 1.5 -42.5t10.5 -37t27 -34t53.5 -20.5t87.5 -9q86 0 171 20v327h90v-714h-90v304q-87 -19 -182 -19q-72 0 -122.5 14t-76.5 33t-40 52.5t-17 59t-3 66.5v204z" />
    <glyph glyph-name="uni0428" unicode="&#x428;" horiz-adv-x="1008" 
d="M460 82v632h88v-632h281v632h88v-714h-826v714h88v-632h281z" />
    <glyph glyph-name="uni0429" unicode="&#x429;" horiz-adv-x="1047" 
d="M931 -175v175h-840v714h88v-632h281v632h88v-632h281v632h88v-632h103v-257h-89z" />
    <glyph glyph-name="uni042A" unicode="&#x42a;" horiz-adv-x="781" 
d="M481 0h-296v632h-183v82h273v-273h206q118 0 183 -58.5t65 -161.5q0 -105 -64.5 -163t-183.5 -58zM275 80h190q173 0 173 141q0 140 -173 140h-190v-281z" />
    <glyph glyph-name="uni042B" unicode="&#x42b;" horiz-adv-x="899" 
d="M718 714h90v-714h-90v714zM181 80h177q173 0 173 141q0 140 -173 140h-177v-281zM374 0h-283v714h90v-273h193q118 0 183 -58.5t65 -161.5q0 -105 -64.5 -163t-183.5 -58z" />
    <glyph glyph-name="uni042C" unicode="&#x42c;" horiz-adv-x="687" 
d="M181 80h190q173 0 173 141q0 140 -173 140h-190v-281zM387 0h-296v714h90v-273h206q118 0 183 -58.5t65 -161.5q0 -105 -64.5 -163t-183.5 -58z" />
    <glyph glyph-name="uni042D" unicode="&#x42d;" horiz-adv-x="714" 
d="M47 194h95q18 -59 66.5 -92.5t121.5 -33.5q111 0 171 73.5t64 185.5h-335v80h334q-11 105 -69 172t-164 67q-139 0 -181 -113h-95q23 91 95.5 142.5t179.5 51.5q155 0 242 -103.5t87 -266.5q0 -162 -87.5 -266t-241.5 -104q-113 0 -187.5 56.5t-95.5 150.5z" />
    <glyph glyph-name="uni042E" unicode="&#x42e;" horiz-adv-x="1033" 
d="M653 727q153 0 239 -105t86 -265t-86 -265t-239 -105q-146 0 -230.5 94.5t-93.5 244.5h-148v-326h-90v714h90v-304h150q15 140 99 228.5t223 88.5zM653 68q59 0 105 24t73.5 65t41.5 91.5t14 108.5t-14 108.5t-41.5 91.5t-73.5 65t-105 24t-105 -24t-73.5 -65
t-41.5 -91.5t-14 -108.5t14 -108.5t41.5 -91.5t73.5 -65t105 -24z" />
    <glyph glyph-name="uni042F" unicode="&#x42f;" horiz-adv-x="713" 
d="M71 506q0 99 61 153.5t174 54.5h316v-714h-90v298h-244l-127 -298h-95l134 314q-61 22 -95 71.5t-34 120.5zM162 506q0 -63 37 -95.5t120 -32.5h213v256h-213q-83 0 -120 -32.5t-37 -95.5z" />
    <glyph glyph-name="uni0430" unicode="&#x430;" horiz-adv-x="557" 
d="M403 0v54h-20q-53 -67 -158 -67q-84 0 -133 48t-49 116q0 69 48 118t145 49h164v20q0 48 -30 76.5t-93 28.5q-110 0 -117 -70h-85q4 68 59 106t141 38q97 0 152.5 -45t55.5 -129v-343h-80zM245 61q63 0 109 41t46 100v45h-151q-121 0 -121 -94q0 -43 30.5 -67.5
t86.5 -24.5z" />
    <glyph glyph-name="uni0431" unicode="&#x431;" horiz-adv-x="602" 
d="M314 496q110 0 173.5 -71.5t63.5 -182.5t-67.5 -183t-181.5 -72q-119 0 -185 78.5t-66 224.5q0 57 3.5 102t16 94t34 83.5t58.5 61t88 35.5l71 11l64 10q28 4 38.5 11.5t12.5 28.5h79q-4 -52 -23.5 -79.5t-77.5 -38.5q-20 -5 -85.5 -14t-69.5 -10q-64 -11 -92 -52.5
t-38 -110.5h19q57 74 165 74zM301 61q80 0 122.5 52.5t42.5 128.5q0 75 -43 127.5t-122 52.5t-122 -52.5t-43 -127.5q0 -76 42.5 -128.5t122.5 -52.5z" />
    <glyph glyph-name="uni0432" unicode="&#x432;" horiz-adv-x="569" 
d="M438 275v-20q37 -9 59 -39.5t22 -77.5q0 -138 -178 -138h-259v504h261q75 0 117 -34.5t42 -94.5q0 -36 -19.5 -63.5t-44.5 -36.5zM166 72h170q98 0 98 75q0 76 -98 76h-170v-151zM166 432v-137h169q43 0 62.5 19t19.5 49q0 69 -82 69h-169z" />
    <glyph glyph-name="uni0433" unicode="&#x433;" horiz-adv-x="491" 
d="M82 0v504h378v-74h-293v-430h-85z" />
    <glyph glyph-name="uni0434" unicode="&#x434;" horiz-adv-x="652" 
d="M531 74h93v-217h-83v143h-436v-143h-83v217h67q64 136 64 292v138h378v-430zM446 74v356h-214v-64q0 -167 -57 -292h271z" />
    <glyph glyph-name="uni0435" unicode="&#x435;" horiz-adv-x="569" 
d="M519 282v-29h-384q2 -91 43 -141.5t118 -50.5q104 0 128 78h86q-13 -68 -68.5 -110t-145.5 -42q-115 0 -180 75t-65 195q0 118 65 189t178 71q107 0 165 -67.5t60 -167.5zM292 443q-65 0 -104 -33.5t-48 -85.5h291q-4 51 -41 85t-98 34z" />
    <glyph glyph-name="uni0436" unicode="&#x436;" horiz-adv-x="791" 
d="M244 221l-116 -221h-89l135 259l-128 245h89l109 -209h110v209h82v-209h110l109 209h89l-128 -245l136 -259h-90l-116 221h-110v-221h-82v221h-110z" />
    <glyph glyph-name="uni0437" unicode="&#x437;" horiz-adv-x="527" 
d="M371 366q0 37 -30.5 57t-80.5 20q-54 0 -83.5 -18.5t-38.5 -59.5h-81q7 72 62 112t143 40q90 0 141.5 -40t51.5 -100q0 -40 -16 -67t-39 -36v-20q31 -9 52 -38t21 -77q0 -65 -55.5 -108.5t-153.5 -43.5q-101 0 -158 41t-69 115h82q25 -82 145 -82q56 0 90 20.5t34 60.5
q0 39 -25.5 58.5t-85.5 19.5h-89v74h85q51 0 74.5 20t23.5 52z" />
    <glyph glyph-name="uni0438" unicode="&#x438;" horiz-adv-x="614" 
d="M200 0h-118v504h83v-390h20l225 390h122v-504h-83v390h-20z" />
    <glyph glyph-name="uni0439" unicode="&#x439;" horiz-adv-x="614" 
d="M200 0h-118v504h83v-390h20l225 390h122v-504h-83v390h-20zM392 724h69q-2 -70 -43 -108t-113 -38q-71 0 -112 38t-43 108h69q2 -85 86 -85q82 0 87 85z" />
    <glyph glyph-name="uni043A" unicode="&#x43a;" horiz-adv-x="560" 
d="M425 0l-126 222h-132v-222h-85v504h85v-208h135l121 208h91l-142 -243l149 -261h-96z" />
    <glyph glyph-name="uni043B" unicode="&#x43b;" horiz-adv-x="608" 
d="M25 0v80h17q53 0 76 47.5t23 177.5v199h386v-504h-86v430h-221v-127q0 -170 -41.5 -236.5t-136.5 -66.5h-17z" />
    <glyph glyph-name="uni043C" unicode="&#x43c;" horiz-adv-x="702" 
d="M82 0v504h133l127 -243h20l127 243h131v-504h-83v405h-20l-120 -229h-92l-120 229h-20v-405h-83z" />
    <glyph glyph-name="uni043D" unicode="&#x43d;" horiz-adv-x="613" 
d="M531 0h-85v222h-279v-222h-85v504h85v-208h279v208h85v-504z" />
    <glyph glyph-name="uni043E" unicode="&#x43e;" horiz-adv-x="598" 
d="M299 517q115 0 181.5 -75t66.5 -190t-66.5 -190t-181.5 -75t-181.5 75t-66.5 190t66.5 190t181.5 75zM299 61q79 0 121 55.5t42 135.5t-42 135.5t-121 55.5t-121 -55.5t-42 -135.5t42 -135.5t121 -55.5z" />
    <glyph glyph-name="uni043F" unicode="&#x43f;" horiz-adv-x="609" 
d="M527 0h-85v430h-275v-430h-85v504h445v-504z" />
    <glyph glyph-name="uni0440" unicode="&#x440;" horiz-adv-x="615" 
d="M167 -200h-85v704h82v-55h20q54 68 156 68q103 0 163.5 -75t60.5 -190q0 -116 -60.5 -190.5t-163.5 -74.5q-100 0 -153 68h-20v-255zM324 443q-79 0 -118.5 -55t-39.5 -136t39.5 -136t118.5 -55q74 0 114.5 52.5t40.5 138.5t-40.5 138.5t-114.5 52.5z" />
    <glyph glyph-name="uni0441" unicode="&#x441;" horiz-adv-x="553" 
d="M423 150h85q-14 -75 -70 -119t-142 -44q-114 0 -179.5 74.5t-65.5 190.5q0 117 65 191t180 74q88 0 142 -42.5t67 -114.5h-85q-26 83 -124 83q-81 0 -120.5 -53.5t-39.5 -135.5q0 -83 40 -138t120 -55q106 0 127 89z" />
    <glyph glyph-name="uni0442" unicode="&#x442;" horiz-adv-x="494" 
d="M30 430v74h434v-74h-174v-430h-85v430h-175z" />
    <glyph glyph-name="uni0443" unicode="&#x443;" horiz-adv-x="538" 
d="M216 -200h-90l106 244l-210 460h92l150 -330h25l143 330h90z" />
    <glyph glyph-name="uni0444" unicode="&#x444;" horiz-adv-x="715" 
d="M400 0v-200h-84v200h-16q-117 0 -183 70t-66 182q0 113 65 182.5t183 69.5h17v223h84v-223h16q117 0 182.5 -70t65.5 -182q0 -118 -69 -185t-195 -67zM135 252q0 -78 42 -129t123 -51h16v360h-16q-80 0 -122.5 -51t-42.5 -129zM400 72h14q81 0 123.5 51t42.5 129
t-42.5 129t-123.5 51h-14v-360z" />
    <glyph glyph-name="uni0445" unicode="&#x445;" horiz-adv-x="551" 
d="M291 302l117 202h92l-143 -247l159 -257h-96l-131 212h-29l-131 -212h-94l159 257l-143 247h94l117 -202h29z" />
    <glyph glyph-name="uni0446" unicode="&#x446;" horiz-adv-x="643" 
d="M438 504h85v-430h92v-217h-82v143h-451v504h85v-430h271v430z" />
    <glyph glyph-name="uni0447" unicode="&#x447;" horiz-adv-x="559" 
d="M53 504h85v-142q0 -24 3 -37.5t14 -30.5t38.5 -25t71.5 -8q66 0 126 13v230h86v-504h-86v199q-67 -14 -144 -14q-53 0 -90.5 10.5t-57 25t-30.5 39.5t-13.5 45t-2.5 50v149z" />
    <glyph glyph-name="uni0448" unicode="&#x448;" horiz-adv-x="809" 
d="M644 504h83v-504h-645v504h83v-430h198v430h83v-430h198v430z" />
    <glyph glyph-name="uni0449" unicode="&#x449;" horiz-adv-x="848" 
d="M644 504h83v-430h93v-217h-83v143h-655v504h83v-430h198v430h83v-430h198v430z" />
    <glyph glyph-name="uni044A" unicode="&#x44a;" horiz-adv-x="633" 
d="M19 430v74h235v-168h149q92 0 141.5 -44t49.5 -123t-50 -124t-141 -45h-234v430h-150zM254 74h138q63 0 89.5 24t26.5 71t-26.5 71t-89.5 24h-138v-190z" />
    <glyph glyph-name="uni044B" unicode="&#x44b;" horiz-adv-x="744" 
d="M82 504h85v-168h139q91 0 140.5 -44t49.5 -123q0 -80 -49.5 -124.5t-140.5 -44.5h-224v504zM167 264v-190h127q63 0 90 24t27 71t-27 71t-90 24h-127zM577 504h85v-504h-85v504z" />
    <glyph glyph-name="uni044C" unicode="&#x44c;" horiz-adv-x="545" 
d="M167 504v-168h149q91 0 140.5 -44t49.5 -123q0 -80 -49.5 -124.5t-140.5 -44.5h-234v504h85zM167 74h137q63 0 90 24t27 71t-27 71t-90 24h-137v-190z" />
    <glyph glyph-name="uni044D" unicode="&#x44d;" horiz-adv-x="560" 
d="M50 146h83q21 -85 135 -85q69 0 109.5 44t44.5 115h-227v72h226q-6 69 -44.5 110t-108.5 41q-108 0 -131 -79h-83q15 70 71 111.5t142 41.5q112 0 177 -73.5t65 -191.5q0 -119 -65 -192t-178 -73q-85 0 -143.5 44t-72.5 115z" />
    <glyph glyph-name="uni044E" unicode="&#x44e;" horiz-adv-x="818" 
d="M523 517q112 0 178 -75.5t66 -189.5t-66 -189.5t-178 -75.5q-104 0 -168.5 66t-73.5 169h-115v-222h-84v504h84v-208h118q12 99 75.5 160t163.5 61zM523 61q77 0 118 55.5t41 135.5t-41 135.5t-118 55.5t-118 -55.5t-41 -135.5t41 -135.5t118 -55.5z" />
    <glyph glyph-name="uni044F" unicode="&#x44f;" horiz-adv-x="577" 
d="M410 0v199h-159l-98 -199h-92l103 211q-96 32 -96 140q0 73 45.5 113t131.5 40h251v-504h-86zM410 271v161h-156q-55 0 -78 -20.5t-23 -60.5t23 -60t78 -20h156z" />
    <glyph glyph-name="uni0451" unicode="&#x451;" horiz-adv-x="569" 
d="M519 282v-29h-384q2 -91 43 -141.5t118 -50.5q104 0 128 78h86q-13 -68 -68.5 -110t-145.5 -42q-115 0 -180 75t-65 195q0 118 65 189t178 71q107 0 165 -67.5t60 -167.5zM292 443q-65 0 -104 -33.5t-48 -85.5h291q-4 51 -41 85t-98 34zM246 624h-92v100h92v-100z
M427 624h-92v100h92v-100z" />
    <glyph glyph-name="uni0452" unicode="&#x452;" horiz-adv-x="631" 
d="M472 -38v306q0 139 -129 139q-66 0 -107.5 -49t-41.5 -118v-240h-85v578h-82v61h82v88h85v-88h208v-61h-208v-163h19q44 68 146 68q94 0 146 -54t52 -146v-326q0 -84 -40 -120.5t-126 -36.5h-59v76h55q46 0 65.5 20t19.5 66z" />
    <glyph glyph-name="uni0453" unicode="&#x453;" horiz-adv-x="491" 
d="M82 0v504h378v-74h-293v-430h-85zM401 727l-109 -145h-77l86 145h100z" />
    <glyph glyph-name="uni0454" unicode="&#x454;" horiz-adv-x="555" 
d="M427 146h83q-14 -71 -72.5 -115t-143.5 -44q-113 0 -178 73t-65 192q0 118 65 191.5t177 73.5q86 0 142 -41.5t71 -111.5h-83q-23 79 -131 79q-70 0 -108.5 -41t-44.5 -110h226v-72h-227q4 -71 44.5 -115t109.5 -44q114 0 135 85z" />
    <glyph glyph-name="uni0455" unicode="&#x455;" horiz-adv-x="514" 
d="M226 306l97 -16q149 -24 149 -147q0 -64 -55.5 -110t-152.5 -46q-102 0 -157.5 42t-64.5 116h85q7 -41 42.5 -62.5t90.5 -21.5q59 0 93 20t34 60q0 59 -86 73l-99 16q-141 22 -141 137q0 65 52 107.5t148 42.5q86 0 137.5 -38.5t59.5 -105.5h-84q-5 34 -38 52t-80 18
q-50 0 -80 -18.5t-30 -52.5q0 -52 80 -66z" />
    <glyph glyph-name="uni0456" unicode="&#x456;" horiz-adv-x="254" 
d="M176 627h-98v100h98v-100zM169 504v-504h-85v504h85z" />
    <glyph glyph-name="uni0457" unicode="&#x457;" horiz-adv-x="254" 
d="M169 504v-504h-85v504h85zM83 627h-92v100h92v-100zM264 627h-92v100h92v-100z" />
    <glyph glyph-name="uni0458" unicode="&#x458;" horiz-adv-x="265" 
d="M187 627h-98v100h98v-100zM96 -38v542h85v-547q0 -84 -40 -120.5t-126 -36.5h-59v76h55q46 0 65.5 20t19.5 66z" />
    <glyph glyph-name="uni0459" unicode="&#x459;" horiz-adv-x="890" 
d="M521 74h129q63 0 89.5 24t26.5 71t-26.5 71t-89.5 24h-129v-190zM141 504h380v-168h139q92 0 141.5 -44t49.5 -123t-50 -124t-141 -45h-224v430h-216v-127q0 -171 -41.5 -239t-136.5 -68h-17v80h17q53 0 76 49.5t23 179.5v199z" />
    <glyph glyph-name="uni045A" unicode="&#x45a;" horiz-adv-x="876" 
d="M647 0h-225v222h-255v-222h-85v504h85v-208h255v208h85v-168h140q91 0 140.5 -44t49.5 -123q0 -80 -49.5 -124.5t-140.5 -44.5zM507 74h128q63 0 90 24t27 71t-27 71t-90 24h-128v-190z" />
    <glyph glyph-name="uni045B" unicode="&#x45b;" horiz-adv-x="631" 
d="M557 0h-85v268q0 139 -129 139q-66 0 -107.5 -49t-41.5 -118v-240h-85v578h-82v61h82v88h85v-88h208v-61h-208v-163h19q44 68 146 68q94 0 146 -54t52 -146v-283z" />
    <glyph glyph-name="uni045C" unicode="&#x45c;" horiz-adv-x="560" 
d="M425 0l-126 222h-132v-222h-85v504h85v-208h135l121 208h91l-142 -243l149 -261h-96zM417 727l-109 -145h-77l86 145h100z" />
    <glyph glyph-name="uni045E" unicode="&#x45e;" horiz-adv-x="538" 
d="M216 -200h-90l106 244l-210 460h92l150 -330h25l143 330h90zM353 724h69q-2 -70 -43 -108t-113 -38q-71 0 -112 38t-43 108h69q2 -85 86 -85q82 0 87 85z" />
    <glyph glyph-name="uni045F" unicode="&#x45f;" horiz-adv-x="605" 
d="M438 504h85v-504h-179v-143h-83v143h-179v504h85v-430h271v430z" />
    <glyph glyph-name="uni0490" unicode="&#x490;" horiz-adv-x="623" 
d="M181 632v-632h-90v714h401v150h87v-232h-398z" />
    <glyph glyph-name="uni0491" unicode="&#x491;" horiz-adv-x="481" 
d="M367 625h83v-195h-283v-430h-85v504h285v121z" />
    <glyph glyph-name="uni0492" unicode="&#x492;" horiz-adv-x="655" 
d="M28 317v74h96v323h487v-82h-397v-241h245v-74h-245v-317h-90v317h-96z" />
    <glyph glyph-name="uni0493" unicode="&#x493;" horiz-adv-x="517" 
d="M24 195v70h86v239h376v-74h-291v-165h191v-70h-191v-195h-85v195h-86z" />
    <glyph glyph-name="uni049A" unicode="&#x49a;" horiz-adv-x="723" 
d="M91 0v714h90v-305h200l158 305h96l-180 -347l147 -285h94v-257h-89v175h-59l-169 327h-198v-327h-90z" />
    <glyph glyph-name="uni049B" unicode="&#x49b;" horiz-adv-x="593" 
d="M430 0l-130 222h-133v-222h-85v504h85v-208h136l121 208h90l-142 -243l107 -187h86v-217h-82v143h-53z" />
    <glyph glyph-name="uni04A2" unicode="&#x4a2;" horiz-adv-x="800" 
d="M580 714h90v-632h103v-257h-89v175h-104v326h-399v-326h-90v714h90v-304h399v304z" />
    <glyph glyph-name="uni04A3" unicode="&#x4a3;" horiz-adv-x="651" 
d="M531 504v-430h92v-217h-82v143h-95v222h-279v-222h-85v504h85v-208h279v208h85z" />
    <glyph glyph-name="uni04AE" unicode="&#x4ae;" horiz-adv-x="643" 
d="M337 389l191 325h95l-257 -441v-273h-90v273l-257 441h99l191 -325h28z" />
    <glyph glyph-name="uni04AF" unicode="&#x4af;" horiz-adv-x="539" 
d="M195 0l-173 504h89l145 -424h29l145 424h87l-173 -504h-31v-200h-85v200h-33z" />
    <glyph glyph-name="uni04B0" unicode="&#x4b0;" horiz-adv-x="643" 
d="M337 389l191 325h95l-228 -391h156v-74h-185v-249h-90v249h-184v74h155l-228 391h99l191 -325h28z" />
    <glyph glyph-name="uni04B1" unicode="&#x4b1;" horiz-adv-x="539" 
d="M77 -30v69h104l-159 465h89l145 -424h29l145 424h87l-160 -465h104v-69h-148v-170h-85v170h-151z" />
    <glyph glyph-name="uni04BA" unicode="&#x4ba;" horiz-adv-x="680" 
d="M622 0h-90v204q0 28 -1.5 42.5t-10.5 37t-27 34t-53.5 20.5t-87.5 9q-86 0 -171 -20v-327h-90v714h90v-304q87 19 182 19q72 0 122.5 -14t76.5 -33t40 -52.5t17 -59t3 -66.5v-204z" />
    <glyph glyph-name="uni04BB" unicode="&#x4bb;" horiz-adv-x="604" 
d="M332 517q94 0 146 -54t52 -146v-317h-85v302q0 139 -129 139q-66 0 -107.5 -49t-41.5 -118v-274h-85v727h85v-278h19q44 68 146 68z" />
    <glyph glyph-name="uni04D8" unicode="&#x4d8;" horiz-adv-x="757" 
d="M371 69q113 0 172 72t66 185h-464q2 -111 59 -184t167 -73zM369 727q157 0 245 -104t88 -266q0 -160 -87 -265t-243 -105q-151 0 -234 104t-83 277q0 26 1 38h552q-10 106 -71 172.5t-169 66.5q-148 0 -184 -112h-94q21 91 95 142.5t184 51.5z" />
    <glyph glyph-name="uni04D9" unicode="&#x4d9;" horiz-adv-x="570" 
d="M51 247q0 22 1 33h381q-8 79 -50 121t-110 42q-104 0 -128 -78h-84q12 68 68 110t144 42q114 0 180 -76.5t66 -193.5t-65 -188.5t-177 -71.5q-108 0 -167 68.5t-59 191.5zM278 61q69 0 109.5 37.5t45.5 110.5h-299q1 -69 38.5 -108.5t105.5 -39.5z" />
    <glyph glyph-name="uni04E8" unicode="&#x4e8;" horiz-adv-x="776" 
d="M388 727q157 0 245 -105t88 -265t-88 -265t-245 -105q-158 0 -245.5 104.5t-87.5 265.5t87.5 265.5t245.5 104.5zM388 69q112 0 172 72t69 185h-482q6 -112 67.5 -184.5t173.5 -72.5zM388 645q-108 0 -167.5 -66t-72.5 -173h479q-10 105 -70.5 172t-168.5 67z" />
    <glyph glyph-name="uni04E9" unicode="&#x4e9;" horiz-adv-x="598" 
d="M299 517q115 0 181.5 -75t66.5 -190t-66.5 -190t-181.5 -75t-181.5 75t-66.5 190t66.5 190t181.5 75zM299 61q70 0 111 44.5t50 113.5h-322q6 -69 47.5 -113.5t113.5 -44.5zM299 443q-69 0 -110 -43t-50 -109h320q-9 66 -50 109t-110 43z" />
    <glyph glyph-name="endash" unicode="&#x2013;" horiz-adv-x="617" 
d="M568 241h-520v72h520v-72z" />
    <glyph glyph-name="emdash" unicode="&#x2014;" horiz-adv-x="877" 
d="M828 241h-780v72h780v-72z" />
    <glyph glyph-name="quoteleft" unicode="&#x2018;" horiz-adv-x="258" 
d="M133 599h48v-116h-104v133l56 98h56l-56 -98v-17z" />
    <glyph glyph-name="quoteright" unicode="&#x2019;" horiz-adv-x="258" 
d="M125 598h-48v116h104v-133l-56 -98h-56l56 98v17z" />
    <glyph glyph-name="quotesinglbase" unicode="&#x201a;" horiz-adv-x="258" 
d="M125 0h-48v116h104v-133l-56 -98h-56l56 98v17z" />
    <glyph glyph-name="quotedblleft" unicode="&#x201c;" horiz-adv-x="433" 
d="M133 599h48v-116h-104v133l56 98h56l-56 -98v-17zM308 599h48v-116h-104v133l56 98h56l-56 -98v-17z" />
    <glyph glyph-name="quotedblright" unicode="&#x201d;" horiz-adv-x="433" 
d="M125 598h-48v116h104v-133l-56 -98h-56l56 98v17zM300 598h-48v116h104v-133l-56 -98h-56l56 98v17z" />
    <glyph glyph-name="quotedblbase" unicode="&#x201e;" horiz-adv-x="433" 
d="M125 0h-48v116h104v-133l-56 -98h-56l56 98v17zM300 0h-48v116h104v-133l-56 -98h-56l56 98v17z" />
    <glyph glyph-name="dagger" unicode="&#x2020;" horiz-adv-x="549" 
d="M234 434h-188v72h188v208h81v-208h188v-72h-188v-586h-81v586z" />
    <glyph glyph-name="daggerdbl" unicode="&#x2021;" horiz-adv-x="549" 
d="M234 434h-188v72h188v208h81v-208h188v-72h-188v-305h188v-72h-188v-209h-81v209h-188v72h188v305z" />
    <glyph glyph-name="bullet" unicode="&#x2022;" horiz-adv-x="429" 
d="M67 356q0 61 43 104t104 43t104 -43t43 -104t-43 -104t-104 -43t-104 43t-43 104z" />
    <glyph glyph-name="ellipsis" unicode="&#x2026;" horiz-adv-x="754" 
d="M181 0h-104v116h104v-116zM429 0h-104v116h104v-116zM677 0h-104v116h104v-116z" />
    <glyph glyph-name="perthousand" unicode="&#x2030;" horiz-adv-x="1252" 
d="M268 0h-78l424 700h77zM209 714q77 0 119 -53.5t42 -135.5t-42 -135.5t-119 -53.5t-119 53.5t-42 135.5t42 135.5t119 53.5zM209 399q45 0 68.5 34.5t23.5 91.5t-23.5 91.5t-68.5 34.5t-68.5 -34.5t-23.5 -91.5t23.5 -91.5t68.5 -34.5zM671 365q77 0 119 -53.5t42 -135.5
t-42 -135.5t-119 -53.5t-119 53.5t-42 135.5t42 135.5t119 53.5zM671 50q45 0 68.5 34.5t23.5 91.5t-23.5 91.5t-68.5 34.5t-68.5 -34.5t-23.5 -91.5t23.5 -91.5t68.5 -34.5zM1043 365q77 0 119 -53.5t42 -135.5t-42 -135.5t-119 -53.5t-119 53.5t-42 135.5t42 135.5
t119 53.5zM1043 50q45 0 68.5 34.5t23.5 91.5t-23.5 91.5t-68.5 34.5t-68.5 -34.5t-23.5 -91.5t23.5 -91.5t68.5 -34.5z" />
    <glyph glyph-name="guilsinglleft" unicode="&#x2039;" horiz-adv-x="355" 
d="M135 294v-20l162 -173h-94l-145 151v63l145 152h94z" />
    <glyph glyph-name="guilsinglright" unicode="&#x203a;" horiz-adv-x="355" 
d="M220 274v20l-162 173h94l145 -152v-63l-145 -151h-94z" />
    <glyph glyph-name="fraction" unicode="&#x2044;" horiz-adv-x="236" 
d="M-57 0h-77l424 700h76z" />
    <glyph glyph-name="Euro" unicode="&#x20ac;" horiz-adv-x="674" 
d="M415 319l-19 -57h-193q29 -197 181 -197q65 0 104.5 35t48.5 100h87q-13 -100 -77 -156.5t-164 -56.5q-108 0 -179 70t-89 205h-80l19 57h56q-2 48 1 73h-76l19 57h63q20 129 91.5 197t174.5 68q97 0 159 -53t76 -148h-88q-19 123 -147 123q-70 0 -116 -48.5t-62 -138.5
h255l-19 -57h-242q-3 -41 -2 -73h218z" />
    <glyph glyph-name="uni20B4" unicode="&#x20b4;" horiz-adv-x="650" 
d="M38 261v57h574v-57h-415q-16 -28 -16 -66q0 -62 43 -96t114 -34q138 0 163 116h88q-15 -90 -78.5 -142t-171.5 -52q-114 0 -180 58t-66 148q0 35 13 68h-68zM38 448h413q25 30 25 72q0 55 -37.5 85.5t-97.5 30.5q-121 0 -145 -101h-87q12 81 74.5 130t157.5 49
q101 0 161.5 -55.5t60.5 -134.5q0 -43 -18 -76h67v-57h-574v57z" />
    <glyph glyph-name="uni20B8" unicode="&#x20b8;" horiz-adv-x="526" 
d="M18 513v57h489v-57h-201v-513h-87v513h-201zM18 643v57h489v-57h-489z" />
    <glyph glyph-name="uni20BD" unicode="&#x20bd;" horiz-adv-x="684" 
d="M44 288v77h97v335h258q112 0 172.5 -54t60.5 -151q0 -98 -60.5 -152.5t-172.5 -54.5h-170v-73h236v-57h-236v-158h-88v158h-97v57h97v73h-97zM229 365h159q156 0 156 130q0 128 -156 128h-159v-258z" />
    <glyph glyph-name="uni2116" unicode="&#x2116;" horiz-adv-x="1150" 
d="M576 700h86v-700h-136l-330 585h-19v-585h-86v700h136l330 -585h19v585zM1086 212h-323v60h323v-60zM924 714q77 0 119 -53.5t42 -135.5t-42 -135.5t-119 -53.5t-119 53.5t-42 135.5t42 135.5t119 53.5zM924 399q45 0 68.5 34.5t23.5 91.5t-23.5 91.5t-68.5 34.5
t-68.5 -34.5t-23.5 -91.5t23.5 -91.5t68.5 -34.5z" />
    <glyph glyph-name="trademark" unicode="&#x2122;" horiz-adv-x="852" 
d="M507 714l84 -172h12l83 172h101v-380h-60v313h-12l-86 -175h-65l-86 175h-12v-313h-61v380h102zM341 714v-56h-127v-324h-62v324h-128v56h317z" />
    <glyph glyph-name="Omega" unicode="&#x2126;" horiz-adv-x="758" 
d="M569 98v-20h132v-78h-275v76q186 114 186 302q0 122 -64 194.5t-169 72.5q-106 0 -169.5 -72.5t-63.5 -194.5q0 -189 185 -302v-76h-275v78h133v20q-134 114 -134 289q0 152 88 246t236 94t236 -94t88 -246q0 -175 -134 -289z" />
    <glyph glyph-name="arrowleft" unicode="&#x2190;" horiz-adv-x="818" 
d="M207 290h553v-76h-553v-20l193 -194h-103l-251 252l251 252h103l-193 -194v-20z" />
    <glyph glyph-name="arrowup" unicode="&#x2191;" horiz-adv-x="678" 
d="M301 0v553h-20l-194 -193v103l252 251l252 -251v-103l-194 193h-20v-553h-76z" />
    <glyph glyph-name="arrowright" unicode="&#x2192;" horiz-adv-x="818" 
d="M58 290h553v20l-193 194h103l251 -252l-251 -252h-103l193 194v20h-553v76z" />
    <glyph glyph-name="arrowdown" unicode="&#x2193;" horiz-adv-x="678" 
d="M377 714v-553h20l194 193v-103l-252 -251l-252 251v103l194 -193h20v553h76z" />
    <glyph glyph-name="uni2196" unicode="&#x2196;" horiz-adv-x="705" 
d="M565 183l-391 391l-15 -14v-274l-72 73v355h355l73 -72h-274l-14 -15l391 -391z" />
    <glyph glyph-name="uni2197" unicode="&#x2197;" horiz-adv-x="705" 
d="M531 574l-391 -391l-53 53l391 391l-14 15h-274l73 72h355v-355l-72 -73v274z" />
    <glyph glyph-name="uni2198" unicode="&#x2198;" horiz-adv-x="705" 
d="M174 140l391 391l53 -53l-391 -391l14 -15h274l-73 -72h-355v355l72 73v-274z" />
    <glyph glyph-name="uni2199" unicode="&#x2199;" horiz-adv-x="705" 
d="M140 531l391 -391l15 14v274l72 -73v-355h-355l-73 72h274l14 15l-391 391z" />
    <glyph glyph-name="partialdiff" unicode="&#x2202;" horiz-adv-x="592" 
d="M296 61q80 0 120 49t40 124t-40 124t-120 49t-121 -49t-41 -124t41 -124t121 -49zM163 727h107q271 -195 271 -469q0 -120 -63.5 -195.5t-183.5 -75.5q-111 0 -177 71.5t-66 176.5t63 175.5t166 70.5q81 0 125 -44h23q-62 145 -265 290z" />
    <glyph glyph-name="Delta" unicode="&#x2206;" horiz-adv-x="639" 
d="M372 714l227 -617v-97h-559v97l228 617h104zM519 78v20l-189 520h-20l-189 -520v-20h398z" />
    <glyph glyph-name="product" unicode="&#x220f;" horiz-adv-x="597" 
d="M471 -200h-82v839h-181v-839h-83v839h-96v75h539v-75h-97v-839z" />
    <glyph glyph-name="summation" unicode="&#x2211;" horiz-adv-x="553" 
d="M143 78h382v-78h-487v97l200 250v20l-191 251v96h461v-78h-357v-19l186 -246v-29l-194 -245v-19z" />
    <glyph glyph-name="minus" unicode="&#x2212;" horiz-adv-x="683" 
d="M596 248h-509v73h509v-73z" />
    <glyph glyph-name="uni2215" unicode="&#x2215;" horiz-adv-x="500" 
d="M77 0h-77l424 700h76z" />
    <glyph glyph-name="radical" unicode="&#x221a;" horiz-adv-x="643" 
d="M36 504h78l125 -412h19l199 622h158v-69h-103l-208 -645h-112z" />
    <glyph glyph-name="infinity" unicode="&#x221e;" horiz-adv-x="926" 
d="M453 324h20q24 25 32 33t33 30t41.5 30.5t43 17.5t52.5 9q73 0 118.5 -44t45.5 -118t-45.5 -118t-118.5 -44q-42 0 -83 21t-65 43t-54 56h-20q-30 -34 -54 -56t-65 -43t-83 -21q-73 0 -118.5 44t-45.5 118t45.5 118t118.5 44q26 0 52.5 -9t43 -17.5t41.5 -30.5t33 -30
t32 -33zM422 282q-28 34 -47.5 53.5t-53.5 38.5t-67 19q-48 0 -80 -29.5t-32 -81.5t32 -81.5t80 -29.5t88 30.5t80 80.5zM504 282q40 -50 80 -80.5t88 -30.5t80 29.5t32 81.5t-32 81.5t-80 29.5q-33 0 -67 -19t-53.5 -38.5t-47.5 -53.5z" />
    <glyph glyph-name="integral" unicode="&#x222b;" horiz-adv-x="477" 
d="M426 727h39v-74h-41q-52 0 -78.5 -29t-36.5 -84l-100 -564q-17 -94 -65.5 -135t-134.5 -41h-39v74h40q96 0 116 113l99 564q17 93 65.5 134.5t135.5 41.5z" />
    <glyph glyph-name="approxequal" unicode="&#x2248;" horiz-adv-x="670" 
d="M513 483h70q0 -77 -37 -121t-95 -44q-7 0 -14 1t-13 2t-14 3.5t-12.5 4t-13 5.5t-12 5.5t-13 7t-12 6.5t-13 7.5t-12.5 7.5q-2 2 -15.5 10t-17 10t-14.5 7.5t-17 7.5t-15.5 4t-17.5 2q-69 0 -69 -91h-69q0 77 36.5 121t94.5 44q16 0 30 -2.5t31.5 -10.5t24 -11.5
t27.5 -16.5t23 -14q59 -36 90 -36q69 0 69 91zM513 273h70q0 -77 -37 -121t-95 -44q-7 0 -14 1t-13 2t-14 3.5t-12.5 4t-13 5.5t-12 5.5t-13 7t-12 6.5t-13 7.5t-12.5 7.5q-2 2 -15.5 10t-17 10t-14.5 7.5t-17 7.5t-15.5 4t-17.5 2q-69 0 -69 -91h-69q0 77 36.5 121t94.5 44
q16 0 30 -2.5t31.5 -10.5t24 -11.5t27.5 -16.5t23 -14q59 -36 90 -36q69 0 69 91z" />
    <glyph glyph-name="notequal" unicode="&#x2260;" horiz-adv-x="683" 
d="M596 420v-73h-177l-80 -126h257v-73h-305l-78 -124h-79l79 124h-126v73h174l81 126h-255v73h303l81 124h75l-80 -124h130z" />
    <glyph glyph-name="lessequal" unicode="&#x2264;" horiz-adv-x="681" 
d="M87 0v74h509v-74h-509zM596 119l-509 171v82l509 171v-77l-392 -125v-20l392 -125v-77z" />
    <glyph glyph-name="greaterequal" unicode="&#x2265;" horiz-adv-x="683" 
d="M87 119v77l392 125v20l-392 125v77l509 -171v-82zM596 0h-509v74h509v-74z" />
    <glyph glyph-name="uni2460" unicode="&#x2460;" 
d="M428 727q154 0 261 -108t107 -262t-107 -262t-261 -108t-261 108t-107 262t107 262t261 108zM428 43q130 0 219 91t89 223t-89 223t-219 91t-219 -91t-89 -223t89 -223t219 -91zM476 224h93v-58h-253v58h94v246h-14l-80 -45v65l97 57h63v-323z" />
    <glyph glyph-name="uni2461" unicode="&#x2461;" 
d="M428 727q154 0 261 -108t107 -262t-107 -262t-261 -108t-261 108t-107 262t107 262t261 108zM428 43q130 0 219 91t89 223t-89 223t-219 91t-219 -91t-89 -223t89 -223t219 -91zM394 224h182v-58h-282v71l113 81q32 22 48 36t29.5 35t13.5 43q0 29 -17.5 46t-48.5 17
q-73 0 -74 -69h-65q2 64 40.5 96t99.5 32q59 0 94.5 -30.5t35.5 -88.5q0 -40 -23.5 -73t-71.5 -69l-74 -55v-14z" />
    <glyph glyph-name="uni2462" unicode="&#x2462;" 
d="M475 417v-14q43 -6 71 -36.5t28 -79.5q0 -59 -40.5 -93.5t-104.5 -34.5q-63 0 -103.5 35.5t-42.5 90.5h64q3 -31 26 -49t56 -18q36 0 58 19t22 51q0 33 -21.5 51.5t-57.5 18.5q-24 0 -36 -3v59l76 61v14h-159v58h247v-64zM428 727q154 0 261 -108t107 -262t-107 -262
t-261 -108t-261 108t-107 262t107 262t261 108zM428 43q130 0 219 91t89 223t-89 223t-219 91t-219 -91t-89 -223t89 -223t219 -91z" />
    <glyph glyph-name="uni2463" unicode="&#x2463;" 
d="M519 310h52v-58h-52v-86h-65v86h-192v62l173 233h84v-237zM335 310h120v158h-14l-106 -144v-14zM428 727q154 0 261 -108t107 -262t-107 -262t-261 -108t-261 108t-107 262t107 262t261 108zM428 43q130 0 219 91t89 223t-89 223t-219 91t-219 -91t-89 -223t89 -223
t219 -91z" />
    <glyph glyph-name="uni2464" unicode="&#x2464;" 
d="M428 727q154 0 261 -108t107 -262t-107 -262t-261 -108t-261 108t-107 262t107 262t261 108zM428 43q130 0 219 91t89 223t-89 223t-219 91t-219 -91t-89 -223t89 -223t219 -91zM442 427q59 0 94.5 -37.5t35.5 -92.5q0 -63 -39 -100.5t-102 -37.5q-67 0 -103.5 34
t-40.5 91h65q8 -66 77 -66q36 0 57 20t21 58q0 34 -20 54.5t-55 20.5q-50 0 -75 -34h-61l20 210h236v-58h-185l-7 -84h14q25 22 68 22z" />
    <glyph glyph-name="uni2465" unicode="&#x2465;" 
d="M428 727q154 0 261 -108t107 -262t-107 -262t-261 -108t-261 108t-107 262t107 262t261 108zM428 43q130 0 219 91t89 223t-89 223t-219 91t-219 -91t-89 -223t89 -223t219 -91zM440 420q57 0 95 -36t38 -91q0 -58 -38 -96t-102 -38q-151 0 -151 187q0 92 39 150t117 58
q50 0 83.5 -28.5t41.5 -73.5h-65q-14 44 -62 44q-79 0 -90 -106h14q30 30 80 30zM431 218q34 0 55.5 19t21.5 54t-21.5 54t-55.5 19t-55.5 -19t-21.5 -54t21.5 -54t55.5 -19z" />
    <glyph glyph-name="uni2466" unicode="&#x2466;" 
d="M428 727q154 0 261 -108t107 -262t-107 -262t-261 -108t-261 108t-107 262t107 262t261 108zM428 43q130 0 219 91t89 223t-89 223t-219 91t-219 -91t-89 -223t89 -223t219 -91zM305 547h264v-59l-169 -322h-69l163 309v14h-189v58z" />
    <glyph glyph-name="uni2467" unicode="&#x2467;" 
d="M428 727q154 0 261 -108t107 -262t-107 -262t-261 -108t-261 108t-107 262t107 262t261 108zM428 43q130 0 219 91t89 223t-89 223t-219 91t-219 -91t-89 -223t89 -223t219 -91zM429 499q-31 0 -50.5 -14t-19.5 -40q0 -25 19.5 -39t50.5 -14q30 0 49.5 14t19.5 39
t-19.5 39.5t-49.5 14.5zM429 215q37 0 60 17.5t23 45.5q0 27 -23 44t-60 17q-38 0 -61 -17t-23 -44q0 -28 23 -45.5t61 -17.5zM338 361v13q-43 25 -43 75q0 47 37 76t97 29t96.5 -29t36.5 -76q0 -51 -43 -75v-13q58 -28 58 -90q0 -49 -40.5 -80.5t-108.5 -31.5t-108 31.5
t-40 80.5q0 62 58 90z" />
    <glyph glyph-name="uni2468" unicode="&#x2468;" 
d="M428 727q154 0 261 -108t107 -262t-107 -262t-261 -108t-261 108t-107 262t107 262t261 108zM428 43q130 0 219 91t89 223t-89 223t-219 91t-219 -91t-89 -223t89 -223t219 -91zM416 293q-57 0 -95 36t-38 91q0 58 38 96t102 38q151 0 151 -187q0 -92 -39 -150t-117 -58
q-50 0 -83.5 28.5t-41.5 73.5h65q14 -44 62 -44q79 0 90 106h-14q-30 -30 -80 -30zM425 495q-34 0 -55.5 -19t-21.5 -54t21.5 -54t55.5 -19t55.5 19t21.5 54t-21.5 54t-55.5 19z" />
    <glyph glyph-name="lozenge" unicode="&#x25ca;" horiz-adv-x="534" 
d="M310 714l166 -357l-166 -357h-86l-166 357l166 357h86zM277 96l115 261l-115 261h-20l-115 -261l115 -261h20z" />
    <glyph glyph-name="circle" unicode="&#x25cb;" 
d="M428 727q154 0 261 -108t107 -262t-107 -262t-261 -108t-261 108t-107 262t107 262t261 108zM428 43q130 0 219 91t89 223t-89 223t-219 91t-219 -91t-89 -223t89 -223t219 -91z" />
    <glyph glyph-name="H18533" unicode="&#x25cf;" 
d="M428 727q154 0 261 -108t107 -262t-107 -262t-261 -108t-261 108t-107 262t107 262t261 108z" />
    <glyph glyph-name="uni2776" unicode="&#x2776;" 
d="M428 727q154 0 261 -108t107 -262t-107 -262t-261 -108t-261 108t-107 262t107 262t261 108zM569 224h-93v323h-63l-97 -57v-65l80 45h14v-246h-94v-58h253v58z" />
    <glyph glyph-name="uni2777" unicode="&#x2777;" 
d="M576 224h-182v14l74 55q48 36 71.5 69t23.5 73q0 58 -35.5 88.5t-94.5 30.5q-61 0 -99.5 -32t-40.5 -96h65q1 69 74 69q31 0 48.5 -17t17.5 -46q0 -32 -22 -56t-69 -58l-113 -81v-71h282v58zM428 727q154 0 261 -108t107 -262t-107 -262t-261 -108t-261 108t-107 262
t107 262t261 108z" />
    <glyph glyph-name="uni2778" unicode="&#x2778;" 
d="M428 727q154 0 261 -108t107 -262t-107 -262t-261 -108t-261 108t-107 262t107 262t261 108zM475 403v14l83 66v64h-247v-58h159v-14l-76 -61v-59q12 3 36 3q36 0 57.5 -18.5t21.5 -51.5q0 -32 -22 -51t-58 -19q-33 0 -56 18t-26 49h-64q2 -55 42.5 -90.5t103.5 -35.5
q64 0 104.5 34.5t40.5 93.5q0 49 -28 79.5t-71 36.5z" />
    <glyph glyph-name="uni2779" unicode="&#x2779;" 
d="M428 727q154 0 261 -108t107 -262t-107 -262t-261 -108t-261 108t-107 262t107 262t261 108zM571 310h-52v237h-84l-173 -233v-62h192v-86h65v86h52v58zM455 310h-120v14l106 144h14v-158z" />
    <glyph glyph-name="uni277A" unicode="&#x277a;" 
d="M442 427q-43 0 -68 -22h-14l7 84h185v58h-236l-20 -210h61q25 34 75 34q35 0 55 -20.5t20 -54.5q0 -38 -21 -58t-57 -20q-69 0 -77 66h-65q4 -57 40.5 -91t103.5 -34q63 0 102 37.5t39 100.5q0 55 -35.5 92.5t-94.5 37.5zM428 727q154 0 261 -108t107 -262t-107 -262
t-261 -108t-261 108t-107 262t107 262t261 108z" />
    <glyph glyph-name="uni277B" unicode="&#x277b;" 
d="M440 420q-50 0 -80 -30h-14q11 107 90 107q48 0 62 -45h65q-8 45 -41.5 73.5t-83.5 28.5q-78 0 -117 -58t-39 -150q0 -187 151 -187q64 0 102 38t38 96q0 55 -38 91t-95 36zM431 216q-33 0 -55 20t-22 56q0 35 21 53.5t55 18.5t56 -18.5t22 -53.5q0 -36 -22 -56t-55 -20z
M428 727q154 0 261 -108t107 -262t-107 -262t-261 -108t-261 108t-107 262t107 262t261 108z" />
    <glyph glyph-name="uni277C" unicode="&#x277c;" 
d="M569 547h-264v-58h189v-14l-163 -309h69l169 322v59zM428 727q154 0 261 -108t107 -262t-107 -262t-261 -108t-261 108t-107 262t107 262t261 108z" />
    <glyph glyph-name="uni277D" unicode="&#x277d;" 
d="M429 499q30 0 49.5 -14.5t19.5 -39.5t-19.5 -39t-49.5 -14q-31 0 -50.5 14t-19.5 39q0 26 19.5 40t50.5 14zM429 215q-38 0 -61 17.5t-23 45.5q0 27 23 44t61 17q37 0 60 -17t23 -44q0 -28 -23 -45.5t-60 -17.5zM338 374v-13q-58 -28 -58 -90q0 -49 40 -80.5t108 -31.5
t108.5 31.5t40.5 80.5q0 62 -58 90v13q43 24 43 75q0 47 -36.5 76t-96.5 29t-97 -29t-37 -76q0 -50 43 -75zM428 727q154 0 261 -108t107 -262t-107 -262t-261 -108t-261 108t-107 262t107 262t261 108z" />
    <glyph glyph-name="uni277E" unicode="&#x277e;" 
d="M416 293q50 0 80 30h14q-11 -107 -90 -107q-48 0 -62 45h-65q8 -45 41.5 -73.5t83.5 -28.5q78 0 117 58t39 150q0 187 -151 187q-64 0 -102 -38t-38 -96q0 -55 38 -91t95 -36zM425 497q33 0 55 -20t22 -56q0 -35 -21 -53.5t-55 -18.5t-56 18.5t-22 53.5q0 36 22 56t55 20
zM428 727q154 0 261 -108t107 -262t-107 -262t-261 -108t-261 108t-107 262t107 262t261 108z" />
    <glyph glyph-name="commaaccent" unicode="&#xf6c3;" horiz-adv-x="176" 
d="M90 -220h-57l55 62v17h-44v83h100v-100z" />
    <glyph glyph-name="zero.numr" horiz-adv-x="381" 
d="M342 523q0 -98 -41.5 -147.5t-110.5 -49.5t-110 49.5t-41 147.5q0 99 41 148.5t110 49.5t110.5 -49.5t41.5 -148.5zM190 385q87 0 87 138q0 139 -87 139q-86 0 -86 -139q0 -138 86 -138z" />
    <glyph glyph-name="one.numr" horiz-adv-x="331" 
d="M199 391h93v-58h-253v58h94v246h-14l-80 -45v65l97 57h63v-323z" />
    <glyph glyph-name="two.numr" horiz-adv-x="362" 
d="M139 391h182v-58h-282v71l113 81q32 22 48 36t29.5 35t13.5 43q0 29 -17.5 46t-48.5 17q-73 0 -74 -69h-65q2 64 40.5 96t99.5 32q59 0 94.5 -30.5t35.5 -88.5q0 -40 -23.5 -73t-71.5 -69l-74 -55v-14z" />
    <glyph glyph-name="three.numr" horiz-adv-x="364" 
d="M228 584v-14q43 -6 71 -36.5t28 -79.5q0 -59 -40.5 -93.5t-104.5 -34.5q-63 0 -103.5 35.5t-42.5 90.5h64q3 -31 26 -49t56 -18q36 0 58 19t22 51q0 33 -21.5 51.5t-57.5 18.5q-24 0 -36 -3v59l76 61v14h-159v58h247v-64z" />
    <glyph glyph-name="four.numr" horiz-adv-x="385" 
d="M294 477h52v-58h-52v-86h-65v86h-192v62l173 233h84v-237zM110 477h120v158h-14l-106 -144v-14z" />
    <glyph glyph-name="five.numr" horiz-adv-x="363" 
d="M194 594q59 0 94.5 -37.5t35.5 -92.5q0 -63 -39 -100.5t-102 -37.5q-67 0 -103.5 34t-40.5 91h65q8 -66 77 -66q36 0 57 20t21 58q0 34 -20 54.5t-55 20.5q-50 0 -75 -34h-61l20 210h236v-58h-185l-7 -84h14q25 22 68 22z" />
    <glyph glyph-name="six.numr" horiz-adv-x="369" 
d="M197 587q57 0 95 -36t38 -91q0 -58 -38 -96t-102 -38q-151 0 -151 187q0 92 39 150t117 58q50 0 83.5 -28.5t41.5 -73.5h-65q-14 44 -62 44q-79 0 -90 -106h14q30 30 80 30zM188 385q34 0 55.5 19t21.5 54t-21.5 54t-55.5 19t-55.5 -19t-21.5 -54t21.5 -54t55.5 -19z" />
    <glyph glyph-name="seven.numr" horiz-adv-x="342" 
d="M39 714h264v-59l-169 -322h-69l163 309v14h-189v58z" />
    <glyph glyph-name="eight.numr" horiz-adv-x="375" 
d="M188 666q-31 0 -50.5 -14t-19.5 -40q0 -25 19.5 -39t50.5 -14q30 0 49.5 14t19.5 39t-19.5 39.5t-49.5 14.5zM188 382q37 0 60 17.5t23 45.5q0 27 -23 44t-60 17q-38 0 -61 -17t-23 -44q0 -28 23 -45.5t61 -17.5zM97 528v13q-43 25 -43 75q0 47 37 76t97 29t96.5 -29
t36.5 -76q0 -51 -43 -75v-13q58 -28 58 -90q0 -49 -40.5 -80.5t-108.5 -31.5t-108 31.5t-40 80.5q0 62 58 90z" />
    <glyph glyph-name="nine.numr" horiz-adv-x="369" 
d="M172 460q-57 0 -95 36t-38 91q0 58 38 96t102 38q151 0 151 -187q0 -92 -39 -150t-117 -58q-50 0 -83.5 28.5t-41.5 73.5h65q14 -44 62 -44q79 0 90 106h-14q-30 -30 -80 -30zM181 662q-34 0 -55.5 -19t-21.5 -54t21.5 -54t55.5 -19t55.5 19t21.5 54t-21.5 54t-55.5 19z
" />
    <glyph glyph-name="zero.dnom" horiz-adv-x="381" 
d="M342 190q0 -98 -41.5 -147.5t-110.5 -49.5t-110 49.5t-41 147.5q0 99 41 148.5t110 49.5t110.5 -49.5t41.5 -148.5zM190 52q87 0 87 138q0 139 -87 139q-86 0 -86 -139q0 -138 86 -138z" />
    <glyph glyph-name="one.dnom" horiz-adv-x="331" 
d="M199 58h93v-58h-253v58h94v246h-14l-80 -45v65l97 57h63v-323z" />
    <glyph glyph-name="two.dnom" horiz-adv-x="362" 
d="M139 58h182v-58h-282v71l113 81q32 22 48 36t29.5 35t13.5 43q0 29 -17.5 46t-48.5 17q-73 0 -74 -69h-65q2 64 40.5 96t99.5 32q59 0 94.5 -30.5t35.5 -88.5q0 -40 -23.5 -73t-71.5 -69l-74 -55v-14z" />
    <glyph glyph-name="three.dnom" horiz-adv-x="368" 
d="M229 251v-14q43 -6 71 -36.5t28 -79.5q0 -59 -40.5 -93.5t-104.5 -34.5q-63 0 -103.5 35.5t-42.5 90.5h64q3 -31 26 -49t56 -18q36 0 58 19t22 51q0 33 -21.5 51.5t-57.5 18.5q-24 0 -36 -3v59l76 61v14h-159v58h247v-64z" />
    <glyph glyph-name="four.dnom" horiz-adv-x="385" 
d="M294 144h52v-58h-52v-86h-65v86h-192v62l173 233h84v-237zM110 144h120v158h-14l-106 -144v-14z" />
    <glyph glyph-name="five.dnom" horiz-adv-x="363" 
d="M194 261q59 0 94.5 -37.5t35.5 -92.5q0 -63 -39 -100.5t-102 -37.5q-67 0 -103.5 34t-40.5 91h65q8 -66 77 -66q36 0 57 20t21 58q0 34 -20 54.5t-55 20.5q-50 0 -75 -34h-61l20 210h236v-58h-185l-7 -84h14q25 22 68 22z" />
    <glyph glyph-name="six.dnom" horiz-adv-x="369" 
d="M197 254q57 0 95 -36t38 -91q0 -58 -38 -96t-102 -38q-151 0 -151 187q0 92 39 150t117 58q50 0 83.5 -28.5t41.5 -73.5h-65q-14 44 -62 44q-79 0 -90 -106h14q30 30 80 30zM188 52q34 0 55.5 19t21.5 54t-21.5 54t-55.5 19t-55.5 -19t-21.5 -54t21.5 -54t55.5 -19z" />
    <glyph glyph-name="seven.dnom" horiz-adv-x="342" 
d="M39 381h264v-59l-169 -322h-69l163 309v14h-189v58z" />
    <glyph glyph-name="eight.dnom" horiz-adv-x="375" 
d="M188 333q-31 0 -50.5 -14t-19.5 -40q0 -25 19.5 -39t50.5 -14q30 0 49.5 14t19.5 39t-19.5 39.5t-49.5 14.5zM188 49q37 0 60 17.5t23 45.5q0 27 -23 44t-60 17q-38 0 -61 -17t-23 -44q0 -28 23 -45.5t61 -17.5zM97 195v13q-43 25 -43 75q0 47 37 76t97 29t96.5 -29
t36.5 -76q0 -51 -43 -75v-13q58 -28 58 -90q0 -49 -40.5 -80.5t-108.5 -31.5t-108 31.5t-40 80.5q0 62 58 90z" />
    <glyph glyph-name="nine.dnom" horiz-adv-x="369" 
d="M172 127q-57 0 -95 36t-38 91q0 58 38 96t102 38q151 0 151 -187q0 -92 -39 -150t-117 -58q-50 0 -83.5 28.5t-41.5 73.5h65q14 -44 62 -44q79 0 90 106h-14q-30 -30 -80 -30zM181 329q-34 0 -55.5 -19t-21.5 -54t21.5 -54t55.5 -19t55.5 19t21.5 54t-21.5 54t-55.5 19z
" />
    <glyph glyph-name="zero.onum" horiz-adv-x="607" 
d="M304 517q110 0 181.5 -72.5t71.5 -192.5t-71.5 -192.5t-181.5 -72.5t-182 72.5t-72 192.5t72 192.5t182 72.5zM304 63q79 0 123 51.5t44 137.5t-43.5 137.5t-123.5 51.5t-124 -51.5t-44 -137.5t44 -137.5t124 -51.5z" />
    <glyph glyph-name="one.onum" horiz-adv-x="460" 
d="M60 0v76h142v339h-19l-123 -80v90l123 79h105v-428h131v-76h-359z" />
    <glyph glyph-name="two.onum" horiz-adv-x="547" 
d="M499 76v-76h-448v96l195 94q78 38 111.5 69.5t33.5 82.5q0 45 -32 72t-91 27q-66 0 -100.5 -33.5t-34.5 -94.5h-85q0 88 58.5 146t162.5 58q99 0 153 -52t54 -120q0 -71 -43.5 -116.5t-129.5 -86.5l-97 -46v-20h293z" />
    <glyph glyph-name="three.onum" horiz-adv-x="568" 
d="M77 504h410v-94l-172 -153v-19q89 -2 146 -58t57 -153q0 -107 -68.5 -168.5t-176.5 -61.5q-105 0 -172.5 59.5t-71.5 148.5h85q6 -60 50 -96t109 -36q72 0 116 41.5t44 112.5q0 70 -42 109.5t-118 39.5q-37 0 -59 -6v89l169 151v20h-306v74z" />
    <glyph glyph-name="four.onum" horiz-adv-x="612" 
d="M470 76h97v-76h-97v-196h-85v196h-346v97l311 407h120v-428zM129 76h258v331h-20l-238 -311v-20z" />
    <glyph glyph-name="five.onum" horiz-adv-x="595" 
d="M316 278q103 0 164 -66t61 -166q0 -113 -66 -181t-173 -68q-112 0 -174.5 58t-68.5 150h85q8 -64 48.5 -98t105.5 -34q71 0 114.5 46t43.5 123q0 72 -43 118t-112 46q-94 0 -140 -67h-86l31 365h399v-74h-330l-16 -201h20q54 49 137 49z" />
    <glyph glyph-name="six.onum" horiz-adv-x="593" 
d="M324 455q97 0 160 -63.5t63 -163.5q0 -103 -63.5 -172t-172.5 -69q-255 0 -255 344q0 110 27 194t88 136.5t149 52.5q86 0 141.5 -46.5t67.5 -120.5h-85q-26 91 -124 91q-83 0 -130 -67t-51 -184h20q22 27 65 47.5t100 20.5zM310 63q68 0 110 42.5t42 118.5q0 75 -43 116
t-111 41q-66 0 -109.5 -41.5t-43.5 -114.5q0 -75 44 -118.5t111 -43.5z" />
    <glyph glyph-name="seven.onum" horiz-adv-x="548" 
d="M495 409l-303 -605h-90l302 607v19h-355v74h446v-95z" />
    <glyph glyph-name="eight.onum" horiz-adv-x="609" 
d="M446 379v-20q42 -14 76.5 -59t34.5 -109q0 -89 -69 -146.5t-183 -57.5t-183 57.5t-69 146.5q0 64 34.5 109t76.5 59v20q-34 14 -62 54t-28 94q0 83 64.5 135t166.5 52t166.5 -52t64.5 -135q0 -54 -28.5 -94t-61.5 -54zM305 640q-62 0 -104.5 -31t-42.5 -85t42.5 -86
t104.5 -32t104.5 32t42.5 86t-42.5 85t-104.5 31zM305 63q77 0 122 36t45 97q0 62 -45 97.5t-122 35.5t-122 -35.5t-45 -97.5q0 -61 45 -97t122 -36z" />
    <glyph glyph-name="nine.onum" horiz-adv-x="593" 
d="M267 49q-97 0 -160 63.5t-63 163.5q0 103 63.5 172t172.5 69q255 0 255 -344q0 -169 -66.5 -273t-197.5 -104q-86 0 -141.5 46.5t-67.5 120.5h85q26 -91 124 -91q83 0 130 64.5t51 180.5h-20q-22 -27 -65 -47.5t-100 -20.5zM281 441q-67 0 -109.5 -42.5t-42.5 -118.5
q0 -75 43 -116t111 -41q66 0 109.5 41.5t43.5 114.5q0 75 -44 118.5t-111 43.5z" />
    <glyph glyph-name="zero.tnum" horiz-adv-x="630" 
d="M315 714q117 0 187.5 -91.5t70.5 -272.5t-70.5 -272t-187.5 -91t-187 91t-70 272q0 182 70 273t187 91zM146 350q0 -127 36 -198l222 454q-37 30 -89 30q-85 0 -127 -75.5t-42 -210.5zM315 65q85 0 127.5 75.5t42.5 209.5q0 124 -36 197l-221 -454q35 -28 87 -28z" />
    <glyph glyph-name="one.tnum" horiz-adv-x="630" 
d="M63 0v78h229v530h-18l-163 -105v92l162 105h107v-622h190v-78h-507z" />
    <glyph glyph-name="two.tnum" horiz-adv-x="630" 
d="M162 507h-88q6 101 70.5 154t162.5 53q105 0 166 -57t61 -156q0 -79 -43 -138t-139 -140l-148 -125v-20h348v-78h-476v98l206 171q93 78 128.5 125.5t35.5 106.5q0 65 -38 100t-103 35q-61 0 -98.5 -32.5t-44.5 -96.5z" />
    <glyph glyph-name="three.tnum" horiz-adv-x="630" 
d="M107 700h409v-96l-173 -154v-19q91 -2 148.5 -58.5t57.5 -154.5q0 -107 -69 -169t-178 -62q-105 0 -172 59t-73 150h88q6 -59 49.5 -95t107.5 -36q73 0 116 41t43 112q0 70 -41 109.5t-117 39.5q-37 0 -61 -6v91l169 152v20h-304v76z" />
    <glyph glyph-name="four.tnum" horiz-adv-x="630" 
d="M484 242h96v-78h-96v-164h-86v164h-346v98l311 438h121v-458zM143 242h256v353h-20l-236 -333v-20z" />
    <glyph glyph-name="five.tnum" horiz-adv-x="630" 
d="M334 471q103 0 164.5 -67t61.5 -167q0 -113 -66.5 -181.5t-173.5 -68.5q-111 0 -174.5 58t-69.5 151h87q8 -64 48 -97.5t105 -33.5q70 0 113 45.5t43 122.5q0 73 -41.5 118.5t-111.5 45.5q-94 0 -139 -66h-88l31 369h400v-76h-329l-16 -203h20q55 50 136 50z" />
    <glyph glyph-name="six.tnum" horiz-adv-x="630" 
d="M339 456q97 0 161 -64.5t64 -163.5q0 -103 -64.5 -172t-173.5 -69q-119 0 -188 82t-69 262q0 169 67.5 276t198.5 107q87 0 142.5 -46.5t67.5 -120.5h-87q-26 89 -123 89q-83 0 -130 -66.5t-51 -182.5h20q23 28 65 48.5t100 20.5zM325 65q66 0 108.5 42t42.5 117t-43 115
t-110 40q-66 0 -109 -41t-43 -113q0 -74 44 -117t110 -43z" />
    <glyph glyph-name="seven.tnum" horiz-adv-x="630" 
d="M532 604l-303 -604h-92l304 604v20h-355v76h446v-96z" />
    <glyph glyph-name="eight.tnum" horiz-adv-x="630" 
d="M458 379v-20q41 -14 75.5 -59t34.5 -109q0 -88 -69.5 -146t-183.5 -58t-183.5 58t-69.5 146q0 64 34.5 109t75.5 59v20q-33 14 -61 53.5t-28 94.5q0 83 65 135t167 52t167 -52t65 -135q0 -54 -28 -93t-61 -55zM315 638q-63 0 -104.5 -30.5t-41.5 -84.5t41.5 -85
t104.5 -31t104.5 31t41.5 85t-41.5 84.5t-104.5 30.5zM315 65q77 0 121.5 36.5t44.5 97.5q0 62 -44 97t-122 35t-122 -35t-44 -97q0 -61 44.5 -97.5t121.5 -36.5z" />
    <glyph glyph-name="nine.tnum" horiz-adv-x="630" 
d="M291 245q-97 0 -161 64.5t-64 163.5q0 103 64.5 172t173.5 69q119 0 188 -82t69 -262q0 -169 -67.5 -276t-198.5 -107q-87 0 -142.5 46.5t-67.5 120.5h87q26 -89 123 -89q83 0 130 66.5t51 182.5h-20q-58 -69 -165 -69zM305 636q-66 0 -108.5 -42t-42.5 -117t43 -115
t110 -40q66 0 109 41t43 113q0 74 -44 117t-110 43z" />
    <glyph glyph-name="dollar.tnum" horiz-adv-x="630" 
d="M284 798h60v-85q90 -8 144 -58t64 -130h-85q-23 98 -123 109v-236l50 -10q83 -18 129.5 -62.5t46.5 -129.5q0 -82 -59 -142t-167 -66v-86h-60v87q-98 10 -157 65.5t-67 141.5h86q16 -109 138 -128v256l-22 4q-80 13 -128.5 60.5t-48.5 127.5q0 78 52 132.5t147 63.5v86z
M370 310l-26 4v-248q61 4 100.5 39.5t39.5 88.5q0 97 -114 116zM284 409v224q-52 -9 -83.5 -38.5t-31.5 -75.5t32.5 -74t82.5 -36z" />
    <glyph glyph-name="Euro.tnum" horiz-adv-x="630" 
d="M386 319l-19 -57h-184q13 -97 57.5 -147t117.5 -50q63 0 100 35.5t47 99.5h87q-15 -101 -75.5 -157t-158.5 -56q-107 0 -175.5 69.5t-86.5 205.5h-73l19 57h49q-2 48 1 73h-69l19 57h56q20 129 89 197t171 68q95 0 152.5 -52t75.5 -149h-88q-21 123 -140 123
q-69 0 -114 -48t-59 -139h246l-19 -57h-234q-5 -39 0 -73h208z" />
    <glyph glyph-name="sterling.tnum" horiz-adv-x="630" 
d="M199 78h382v-78h-533v77h19q69 0 69 92v116h-88v74h88v139q0 102 56 159t153 57q94 0 147 -53t56 -148h-87q-5 123 -115 123q-62 0 -92 -37.5t-30 -99.5v-140h215v-74h-215v-107q0 -30 -4.5 -47t-20.5 -33v-20z" />
    <glyph glyph-name="yen.tnum" horiz-adv-x="630" 
d="M116 302v57h95l-176 341h92l173 -341h28l174 341h92l-176 -341h94v-57h-124l-30 -58v-15h154v-57h-154v-172h-88v172h-154v57h154v15l-30 58h-124z" />
    <glyph glyph-name="uni20BD.tnum" horiz-adv-x="630" 
d="M43 288v77h86v335h237q111 0 171 -54t60 -151q0 -98 -60 -152.5t-171 -54.5h-149v-73h222v-57h-222v-158h-88v158h-86v57h86v73h-86zM217 365h136q156 0 156 132q0 62 -36.5 94t-119.5 32h-136v-258z" />
    <glyph glyph-name="uni20B4.tnum" horiz-adv-x="630" 
d="M44 318h542v-57h-396q-15 -29 -15 -66q0 -59 40.5 -94.5t104.5 -35.5q129 0 157 116h88q-15 -89 -78.5 -141.5t-165.5 -52.5q-108 0 -170.5 60t-62.5 146q0 36 12 68h-56v57zM44 448h387q26 26 26 72q0 53 -34 84.5t-91 31.5q-113 0 -138 -101h-87q12 80 72.5 129.5
t151.5 49.5q96 0 154.5 -57t58.5 -136q0 -41 -17 -73h59v-57h-542v57z" />
    <glyph glyph-name="uni20B8.tnum" horiz-adv-x="630" 
d="M70 513v57h489v-57h-201v-513h-87v513h-201zM70 643v57h489v-57h-489z" />
    <glyph glyph-name="cent.tnum" horiz-adv-x="630" 
d="M291 -80v69q-99 12 -154.5 84t-55.5 179t55.5 179t154.5 84v69h61v-68q76 -7 123.5 -49t59.5 -109h-85q-25 73 -98 83v-379q82 12 101 90h85q-13 -70 -61 -113t-125 -51v-68h-61zM166 254q0 -73 31.5 -126t93.5 -64v376q-63 -11 -94 -62t-31 -124z" />
    <glyph glyph-name="circumflex.cap" horiz-adv-x="378" 
d="M235 896l107 -129h-84l-61 71h-18l-61 -71h-82l107 129h92z" />
    <glyph glyph-name="dieresis.cap" horiz-adv-x="345" 
d="M128 796h-92v100h92v-100zM309 796h-92v100h92v-100z" />
    <glyph glyph-name="acute.cap" horiz-adv-x="266" 
d="M227 896l-109 -129h-78l85 129h102z" />
    <glyph glyph-name="grave.cap" horiz-adv-x="266" 
d="M148 767l-108 129h101l86 -129h-79z" />
    <glyph glyph-name="ring.cap" horiz-adv-x="298" 
d="M149 967q45 0 77 -31.5t32 -76.5q0 -44 -32 -76t-77 -32t-77 32t-32 76q0 45 32 76.5t77 31.5zM149 804q23 0 39 16t16 39t-16 39t-39 16t-39 -16t-16 -39t16 -39t39 -16z" />
    <glyph glyph-name="caron.cap" horiz-adv-x="378" 
d="M143 767l-107 129h84l61 -71h18l61 71h82l-107 -129h-92z" />
    <glyph glyph-name="dotaccent.cap" horiz-adv-x="170" 
d="M134 796h-98v100h98v-100z" />
    <glyph glyph-name="breve.cap" horiz-adv-x="357" 
d="M254 896h64q0 -63 -37 -96.5t-103 -33.5t-102 33.5t-37 96.5h64q0 -33 19.5 -51.5t55.5 -18.5q76 0 76 70z" />
    <glyph glyph-name="hungarumlaut.cap" horiz-adv-x="407" 
d="M210 896l-99 -129h-74l77 129h96zM372 896l-100 -129h-73l77 129h96z" />
    <glyph glyph-name="tilde.cap" horiz-adv-x="408" 
d="M277 832q38 0 38 67h54q0 -135 -93 -135q-40 0 -85 36q-2 2 -11 8.5t-12.5 9t-10.5 6.5t-13 5.5t-13 1.5q-38 0 -38 -67h-54q0 135 93 135q38 0 89 -39q35 -28 56 -28z" />
    <glyph glyph-name="macron.cap" horiz-adv-x="362" 
d="M322 809h-282v64h282v-64z" />
    <glyph glyph-name="cyrbreve" horiz-adv-x="421" 
d="M297 724h69q-2 -70 -43 -108t-113 -38q-71 0 -112 38t-43 108h69q2 -85 86 -85q82 0 87 85z" />
    <glyph glyph-name="cyrbreve.cap" horiz-adv-x="428" 
d="M315 904h73q-2 -73 -50 -114t-125 -41q-75 0 -123 41t-50 114h73q1 -42 28 -66t72 -24t73 24t29 66z" />
    <glyph glyph-name="hyphen.case" horiz-adv-x="369" 
d="M322 325h-273v75h273v-75z" />
    <glyph glyph-name="endash.case" horiz-adv-x="617" 
d="M568 326h-520v72h520v-72z" />
    <glyph glyph-name="emdash.case" horiz-adv-x="877" 
d="M828 326h-780v72h780v-72z" />
    <glyph glyph-name="emdash.ss02.case" horiz-adv-x="1445" 
d="M1396 326h-1348v72h1348v-72z" />
    <glyph glyph-name="bracketleft.case" horiz-adv-x="324" 
d="M266 -93h-189v900h189v-68h-109v-764h109v-68z" />
    <glyph glyph-name="bracketright.case" horiz-adv-x="324" 
d="M247 -93h-189v68h109v764h-109v68h189v-900z" />
    <glyph glyph-name="braceleft.case" horiz-adv-x="390" 
d="M174 367v-20q55 -18 55 -105v-168q0 -99 89 -99h33v-68h-39q-73 0 -118 41.5t-45 117.5v160q0 49 -13.5 72.5t-49.5 23.5h-14v70h14q36 0 49.5 23.5t13.5 72.5v160q0 76 45 117.5t118 41.5h39v-68h-33q-89 0 -89 -99v-168q0 -87 -55 -105z" />
    <glyph glyph-name="braceright.case" horiz-adv-x="390" 
d="M216 347v20q-55 18 -55 105v168q0 99 -89 99h-33v68h39q73 0 118 -41.5t45 -117.5v-160q0 -49 13.5 -72.5t49.5 -23.5h14v-70h-14q-36 0 -49.5 -23.5t-13.5 -72.5v-160q0 -76 -45 -117.5t-118 -41.5h-39v68h33q89 0 89 99v168q0 87 55 105z" />
    <glyph glyph-name="parenleft.case" horiz-adv-x="294" 
d="M128 360q0 -239 161 -453h-82q-159 188 -159 453q0 254 152 447h82q-154 -210 -154 -447z" />
    <glyph glyph-name="parenright.case" horiz-adv-x="294" 
d="M166 360q0 237 -154 447h82q152 -193 152 -447q0 -265 -159 -453h-82q161 214 161 453z" />
    <glyph glyph-name="guillemotright.case" horiz-adv-x="564" 
d="M220 340v20l-162 173h94l145 -152v-63l-145 -151h-94zM428 340v20l-162 173h94l146 -152v-63l-146 -151h-94z" />
    <glyph glyph-name="guillemotleft.case" horiz-adv-x="564" 
d="M135 360v-20l162 -173h-94l-145 151v63l145 152h94zM344 360v-20l162 -173h-94l-146 151v63l146 152h94z" />
    <glyph glyph-name="guilsinglright.case" horiz-adv-x="355" 
d="M220 340v20l-162 173h94l145 -152v-63l-145 -151h-94z" />
    <glyph glyph-name="guilsinglleft.case" horiz-adv-x="355" 
d="M135 360v-20l162 -173h-94l-145 151v63l145 152h94z" />
    <glyph glyph-name="exclamdown.case" horiz-adv-x="314" 
d="M202 0h-90v295l17 230h57l16 -230v-295zM105 714h104v-116h-104v116z" />
    <glyph glyph-name="questiondown.case" horiz-adv-x="547" 
d="M280 -13q-98 0 -156.5 52.5t-58.5 140.5q0 36 8 64t27.5 51.5t36.5 38t50 39.5q40 31 52.5 50.5t12.5 65.5v36h86v-36q0 -62 -20.5 -95t-75.5 -75q-48 -34 -69.5 -63.5t-21.5 -75.5q0 -49 34.5 -84t93.5 -35q129 0 136 133h86q-4 -97 -62.5 -152t-158.5 -55zM243 714h104
v-116h-104v116z" />
    <glyph glyph-name="a.ss03" horiz-adv-x="615" 
d="M533 504v-504h-82v55h-20q-54 -68 -156 -68q-103 0 -163.5 75t-60.5 190t60.5 190t163.5 75q102 0 156 -68h20v55h82zM449 252q0 81 -39.5 136t-118.5 55q-74 0 -114.5 -52.5t-40.5 -138.5t40.5 -138.5t114.5 -52.5q79 0 118.5 55t39.5 136z" />
    <glyph glyph-name="aacute.ss03" horiz-adv-x="615" 
d="M533 504v-504h-82v55h-20q-54 -68 -156 -68q-103 0 -163.5 75t-60.5 190t60.5 190t163.5 75q102 0 156 -68h20v55h82zM449 252q0 81 -39.5 136t-118.5 55q-74 0 -114.5 -52.5t-40.5 -138.5t40.5 -138.5t114.5 -52.5q79 0 118.5 55t39.5 136zM436 727l-109 -145h-77
l86 145h100z" />
    <glyph glyph-name="agrave.ss03" horiz-adv-x="615" 
d="M533 504v-504h-82v55h-20q-54 -68 -156 -68q-103 0 -163.5 75t-60.5 190t60.5 190t163.5 75q102 0 156 -68h20v55h82zM449 252q0 81 -39.5 136t-118.5 55q-74 0 -114.5 -52.5t-40.5 -138.5t40.5 -138.5t114.5 -52.5q79 0 118.5 55t39.5 136zM272 582l-108 145h100
l86 -145h-78z" />
    <glyph glyph-name="acircumflex.ss03" horiz-adv-x="615" 
d="M533 504v-504h-82v55h-20q-54 -68 -156 -68q-103 0 -163.5 75t-60.5 190t60.5 190t163.5 75q102 0 156 -68h20v55h82zM449 252q0 81 -39.5 136t-118.5 55q-74 0 -114.5 -52.5t-40.5 -138.5t40.5 -138.5t114.5 -52.5q79 0 118.5 55t39.5 136zM346 727l107 -145h-80l-65 86
h-18l-64 -86h-79l108 145h91z" />
    <glyph glyph-name="adieresis.ss03" horiz-adv-x="615" 
d="M533 504v-504h-82v55h-20q-54 -68 -156 -68q-103 0 -163.5 75t-60.5 190t60.5 190t163.5 75q102 0 156 -68h20v55h82zM449 252q0 81 -39.5 136t-118.5 55q-74 0 -114.5 -52.5t-40.5 -138.5t40.5 -138.5t114.5 -52.5q79 0 118.5 55t39.5 136zM254 627h-92v100h92v-100z
M435 627h-92v100h92v-100z" />
    <glyph glyph-name="atilde.ss03" horiz-adv-x="615" 
d="M533 504v-504h-82v55h-20q-54 -68 -156 -68q-103 0 -163.5 75t-60.5 190t60.5 190t163.5 75q102 0 156 -68h20v55h82zM449 252q0 81 -39.5 136t-118.5 55q-74 0 -114.5 -52.5t-40.5 -138.5t40.5 -138.5t114.5 -52.5q79 0 118.5 55t39.5 136zM371 655q38 0 38 67h54
q0 -135 -93 -135q-40 0 -85 36q-2 2 -11 8.5t-12.5 9t-10.5 6.5t-13 5.5t-13 1.5q-38 0 -38 -67h-54q0 135 93 135q38 0 89 -39q35 -28 56 -28z" />
    <glyph glyph-name="aring.ss03" horiz-adv-x="615" 
d="M533 504v-504h-82v55h-20q-54 -68 -156 -68q-103 0 -163.5 75t-60.5 190t60.5 190t163.5 75q102 0 156 -68h20v55h82zM449 252q0 81 -39.5 136t-118.5 55q-74 0 -114.5 -52.5t-40.5 -138.5t40.5 -138.5t114.5 -52.5q79 0 118.5 55t39.5 136zM184 687q0 45 32 76.5
t77 31.5t77 -31.5t32 -76.5t-32 -76.5t-77 -31.5t-77 31.5t-32 76.5zM238 687q0 -23 16 -39t39 -16t39 16t16 39t-16 39t-39 16t-39 -16t-16 -39z" />
    <glyph glyph-name="amacron.ss03" horiz-adv-x="615" 
d="M533 504v-504h-82v55h-20q-54 -68 -156 -68q-103 0 -163.5 75t-60.5 190t60.5 190t163.5 75q102 0 156 -68h20v55h82zM449 252q0 81 -39.5 136t-118.5 55q-74 0 -114.5 -52.5t-40.5 -138.5t40.5 -138.5t114.5 -52.5q79 0 118.5 55t39.5 136zM445 619h-282v64h282v-64z
" />
    <glyph glyph-name="abreve.ss03" horiz-adv-x="615" 
d="M533 504v-504h-82v55h-20q-54 -68 -156 -68q-103 0 -163.5 75t-60.5 190t60.5 190t163.5 75q102 0 156 -68h20v55h82zM449 252q0 81 -39.5 136t-118.5 55q-74 0 -114.5 -52.5t-40.5 -138.5t40.5 -138.5t114.5 -52.5q79 0 118.5 55t39.5 136zM373 727h66q0 -69 -36.5 -107
t-101.5 -38q-66 0 -102.5 38t-36.5 107h65q0 -39 18.5 -61.5t54.5 -22.5t54.5 22.5t18.5 61.5z" />
    <glyph glyph-name="aogonek.ss03" horiz-adv-x="615" 
d="M533 504v-504q-31 -16 -51.5 -40.5t-20.5 -49.5q0 -52 74 -52v-58h-21q-58 0 -91 25t-33 70q0 30 17 58.5t44 46.5v55h-20q-54 -68 -156 -68q-103 0 -163.5 75t-60.5 190t60.5 190t163.5 75q102 0 156 -68h20v55h82zM449 252q0 81 -39.5 136t-118.5 55
q-74 0 -114.5 -52.5t-40.5 -138.5t40.5 -138.5t114.5 -52.5q79 0 118.5 55t39.5 136z" />
    <glyph glyph-name="t.ss04" horiz-adv-x="378" 
d="M214 0h-85v430h-102v74h102v152h85v-152h136v-74h-136v-430z" />
    <glyph glyph-name="tcaron.ss04" horiz-adv-x="433" 
d="M214 0h-85v430h-102v74h102v152h85v-152h136v-74h-136v-430zM394 645h-46v100h102v-117l-53 -74h-56l53 74v17z" />
    <glyph glyph-name="uni0163.ss04" horiz-adv-x="378" 
d="M214 0h-85v430h-102v74h102v152h85v-152h136v-74h-136v-430zM168 -220h-57l55 62v17h-44v83h100v-100z" />
    <glyph glyph-name="Y.ss05" horiz-adv-x="637" 
d="M313 339h28l179 375h94l-341 -714h-93l102 214l-264 500h97z" />
    <glyph glyph-name="Yacute.ss05" horiz-adv-x="637" 
d="M313 339h28l179 375h94l-341 -714h-93l102 214l-264 500h97zM453 896l-109 -129h-78l85 129h102z" />
    <glyph glyph-name="Ydieresis.ss05" horiz-adv-x="637" 
d="M313 339h28l179 375h94l-341 -714h-93l102 214l-264 500h97zM281 796h-92v100h92v-100zM462 796h-92v100h92v-100z" />
    <glyph glyph-name="ampersand.ss06" horiz-adv-x="656" 
d="M620 414v-76h-70v-123q0 -104 -69.5 -166t-180.5 -62t-182 59.5t-71 151.5q0 70 33.5 113t81.5 59v20q-88 36 -88 143q0 83 61.5 132t153.5 49t147.5 -42.5t66.5 -118.5h-86q-22 85 -129 85q-59 0 -93.5 -30t-34.5 -78q0 -53 35 -84.5t102 -31.5h43v-76h-43
q-75 0 -119 -34t-44 -103q0 -63 46.5 -100t119.5 -37q81 0 122.5 39.5t41.5 111.5v199h156z" />
    <glyph glyph-name="zero.ss07" horiz-adv-x="625" 
d="M313 714q117 0 187.5 -91.5t70.5 -272.5t-70.5 -272t-187.5 -91t-187 91t-70 272q0 182 70 273t187 91zM144 350q0 -127 36 -198l222 454q-38 30 -89 30q-85 0 -127 -75.5t-42 -210.5zM313 65q85 0 127.5 75.5t42.5 209.5q0 124 -36 197l-221 -454q35 -28 87 -28z" />
    <glyph glyph-name="emdash.ss02" horiz-adv-x="1445" 
d="M1396 241h-1348v72h1348v-72z" />
    <glyph glyph-name="uni0430.ss03" horiz-adv-x="615" 
d="M533 504v-504h-82v55h-20q-54 -68 -156 -68q-103 0 -163.5 75t-60.5 190t60.5 190t163.5 75q102 0 156 -68h20v55h82zM449 252q0 81 -39.5 136t-118.5 55q-74 0 -114.5 -52.5t-40.5 -138.5t40.5 -138.5t114.5 -52.5q79 0 118.5 55t39.5 136z" />
    <glyph glyph-name="uni0423.ss08" horiz-adv-x="640" 
d="M122 0v87h27q41 0 65.5 15t44.5 58l27 55l-263 499h95l199 -375h28l179 375h93l-263 -554q-43 -89 -86.5 -124.5t-117.5 -35.5h-28z" />
    <glyph glyph-name="uni040E.ss08" horiz-adv-x="640" 
d="M122 0v87h27q41 0 65.5 15t44.5 58l27 55l-263 499h95l199 -375h28l179 375h93l-263 -554q-43 -89 -86.5 -124.5t-117.5 -35.5h-28zM428 904h73q-2 -73 -50 -114t-125 -41q-75 0 -123 41t-50 114h73q1 -42 28 -66t72 -24t73 24t29 66z" />
    <glyph glyph-name="quotedbl.ss01" horiz-adv-x="317" 
d="M80 473v241h34v-241h-34zM203 473v241h34v-241h-34z" />
    <glyph glyph-name="numbersign.ss01" horiz-adv-x="555" 
d="M296 0l36 208h-159l-36 -208h-34l36 208h-104v31h111l37 222h-102v31h108l37 208h34l-38 -208h161l37 208h34l-37 -208h103v-31h-109l-38 -222h102v-31h-108l-36 -208h-35zM217 461l-38 -222h160l38 222h-160z" />
    <glyph glyph-name="quotesingle.ss01" horiz-adv-x="194" 
d="M80 473v241h34v-241h-34z" />
    <glyph glyph-name="parenleft.ss01" horiz-adv-x="238" 
d="M190 759h42q-148 -188 -148 -450t148 -450h-43q-139 189 -139 450q0 260 140 450z" />
    <glyph glyph-name="parenright.ss01" horiz-adv-x="240" 
d="M6 759h42q140 -190 140 -450q0 -261 -139 -450h-43q148 188 148 450t-148 450z" />
    <glyph glyph-name="bracketleft.ss01" horiz-adv-x="258" 
d="M198 -141h-118v900h118v-31h-84v-838h84v-31z" />
    <glyph glyph-name="bracketright.ss01" horiz-adv-x="258" 
d="M178 -141h-118v31h84v838h-84v31h118v-900z" />
    <glyph glyph-name="braceleft.ss01" horiz-adv-x="337" 
d="M137 318v-18q36 -14 36 -91v-215q0 -55 21.5 -79.5t72.5 -24.5h30v-31h-30q-63 0 -95.5 31.5t-32.5 104.5v204q0 51 -8.5 73t-37.5 22h-13v30h13q29 0 37.5 22t8.5 73v204q0 73 32.5 104.5t95.5 31.5h30v-31h-30q-51 0 -72.5 -24.5t-21.5 -79.5v-215q0 -77 -36 -91z" />
    <glyph glyph-name="braceright.ss01" horiz-adv-x="337" 
d="M200 300v18q-36 14 -36 91v215q0 55 -21.5 79.5t-72.5 24.5h-30v31h30q63 0 95.5 -31.5t32.5 -104.5v-204q0 -51 8.5 -73t37.5 -22h13v-30h-13q-29 0 -37.5 -22t-8.5 -73v-204q0 -73 -32.5 -104.5t-95.5 -31.5h-30v31h30q51 0 72.5 24.5t21.5 79.5v215q0 77 36 91z" />
    <glyph glyph-name="asterisk.ss01" horiz-adv-x="452" 
d="M209 714h34l-1 -180l170 60l10 -35l-170 -55l107 -141l-28 -23l-105 147l-105 -147l-28 23l108 142l-171 54l11 35l169 -60z" />
    <glyph glyph-name="plus.ss01" horiz-adv-x="682" 
d="M325 300v238h33v-238h237v-31h-237v-238h-33v238h-238v31h238z" />
    <glyph glyph-name="minus.ss01" horiz-adv-x="682" 
d="M595 269h-508v31h508v-31z" />
    <glyph glyph-name="less.ss01" horiz-adv-x="678" 
d="M591 78v-33l-504 216v44l504 216v-33l-454 -196v-18z" />
    <glyph glyph-name="equal.ss01" horiz-adv-x="680" 
d="M593 203v-31h-506v31h506zM593 395v-31h-506v31h506z" />
    <glyph glyph-name="greater.ss01" horiz-adv-x="678" 
d="M87 45v33l454 196v18l-454 196v33l504 -216v-44z" />
    <glyph glyph-name="hyphen.ss01" horiz-adv-x="371" 
d="M322 262h-273v31h273v-31z" />
    <glyph glyph-name="endash.ss01" horiz-adv-x="617" 
d="M568 262h-520v31h520v-31z" />
    <glyph glyph-name="emdash.ss01" horiz-adv-x="877" 
d="M828 262h-780v31h780v-31z" />
    <glyph glyph-name="emdash.ss01.ss02" horiz-adv-x="1445" 
d="M1396 262h-1348v31h1348v-31z" />
    <glyph glyph-name="underscore.ss01" horiz-adv-x="505" 
d="M506 -117h-507v31h507v-31z" />
    <glyph glyph-name="slash.ss01" horiz-adv-x="365" 
d="M36 -141h-36l302 900h33z" />
    <glyph glyph-name="bar.ss01" horiz-adv-x="214" 
d="M90 -141v900h34v-900h-34z" />
    <glyph glyph-name="backslash.ss01" horiz-adv-x="365" 
d="M365 -141h-36l-299 900h33z" />
    <glyph glyph-name="degree.ss01" horiz-adv-x="461" 
d="M40 523q0 85 54.5 141.5t135.5 56.5t136 -56.5t55 -141.5q0 -84 -55 -140.5t-136 -56.5t-135.5 56t-54.5 141zM74 523q0 -71 44 -118.5t112 -47.5t112.5 47.5t44.5 118.5q0 72 -44 119.5t-113 47.5q-68 0 -112 -47.5t-44 -119.5z" />
    <glyph glyph-name="guillemotleft.ss01" horiz-adv-x="484" 
d="M94 293v-18l166 -174h-42l-160 163v39l159 164h42zM260 293v-18l166 -174h-42l-160 163v39l159 164h42z" />
    <glyph glyph-name="guillemotright.ss01" horiz-adv-x="484" 
d="M390 275v18l-166 174h42l160 -163v-39l-159 -164h-42zM224 275v18l-166 174h42l160 -163v-39l-159 -164h-42z" />
    <glyph glyph-name="guilsinglleft.ss01" horiz-adv-x="318" 
d="M94 293v-18l166 -174h-42l-160 163v39l159 164h42z" />
    <glyph glyph-name="guilsinglright.ss01" horiz-adv-x="318" 
d="M224 275v18l-165 174h42l159 -164v-39l-160 -163h-42z" />
    <glyph glyph-name="quoteleft.ss01" horiz-adv-x="234" 
d="M106 610h33v-102h-64v119l48 87h31l-48 -87v-17z" />
    <glyph glyph-name="quoteright.ss01" horiz-adv-x="234" 
d="M123 612h-33v102h64v-119l-48 -87h-31l48 87v17z" />
    <glyph glyph-name="quotesinglbase.ss01" horiz-adv-x="234" 
d="M123 0h-33v102h64v-119l-48 -87h-31l48 87v17z" />
    <glyph glyph-name="quotedblleft.ss01" horiz-adv-x="371" 
d="M243 610h33v-102h-64v119l48 87h31l-48 -87v-17zM106 610h33v-102h-64v119l48 87h31l-48 -87v-17z" />
    <glyph glyph-name="quotedblright.ss01" horiz-adv-x="371" 
d="M123 612h-33v102h64v-119l-48 -87h-31l48 87v17zM260 612h-33v102h64v-119l-48 -87h-31l48 87v17z" />
    <glyph glyph-name="quotedblbase.ss01" horiz-adv-x="371" 
d="M123 0h-33v102h64v-119l-48 -87h-31l48 87v17zM260 0h-33v102h64v-119l-48 -87h-31l48 87v17z" />
    <glyph glyph-name="arrowleft.ss01" horiz-adv-x="818" 
d="M297 504h46l-214 -216v-20h631v-31h-631v-21l214 -216h-46l-251 252z" />
    <glyph glyph-name="arrowup.ss01" horiz-adv-x="678" 
d="M591 463v-46l-216 216h-19v-633h-34v633h-19l-216 -216v46l252 251z" />
    <glyph glyph-name="arrowright.ss01" horiz-adv-x="818" 
d="M475 504h46l251 -252l-251 -252h-46l214 216v21h-631v31h631v20z" />
    <glyph glyph-name="arrowdown.ss01" horiz-adv-x="678" 
d="M591 297v-46l-252 -251l-252 251v46l216 -216h19v633h34v-633h19z" />
    <glyph glyph-name="uni2196.ss01" horiz-adv-x="690" 
d="M442 714l32 -32h-303l-13 -14l445 -447l-23 -23l-447 446l-13 -14v-304l-33 33v355h355z" />
    <glyph glyph-name="uni2197.ss01" horiz-adv-x="690" 
d="M216 682l32 32h355v-355l-33 -33v304l-13 14l-447 -446l-23 23l445 447l-13 14h-303z" />
    <glyph glyph-name="uni2198.ss01" horiz-adv-x="690" 
d="M474 32l-32 -32h-355v355l33 33v-304l13 -14l447 446l23 -23l-445 -447l13 -14h303z" />
    <glyph glyph-name="uni2199.ss01" horiz-adv-x="690" 
d="M248 0l-32 32h303l13 14l-445 447l23 23l447 -446l13 14v304l33 -33v-355h-355z" />
    <glyph glyph-name="parenleft.ss01.case" horiz-adv-x="238" 
d="M190 807h42q-148 -188 -148 -450t148 -450h-43q-139 189 -139 450q0 260 140 450z" />
    <glyph glyph-name="parenright.ss01.case" horiz-adv-x="238" 
d="M6 807h42q140 -190 140 -450q0 -261 -139 -450h-43q148 188 148 450t-148 450z" />
    <glyph glyph-name="bracketleft.ss01.case" horiz-adv-x="258" 
d="M198 -93h-118v900h118v-31h-84v-838h84v-31z" />
    <glyph glyph-name="bracketright.ss01.case" horiz-adv-x="258" 
d="M178 -93h-118v31h84v838h-84v31h118v-900z" />
    <glyph glyph-name="braceleft.ss01.case" horiz-adv-x="337" 
d="M137 366v-18q36 -14 36 -91v-215q0 -55 21.5 -79.5t72.5 -24.5h30v-31h-30q-63 0 -95.5 31.5t-32.5 104.5v204q0 51 -8.5 73t-37.5 22h-13v30h13q29 0 37.5 22t8.5 73v204q0 73 32.5 104.5t95.5 31.5h30v-31h-30q-51 0 -72.5 -24.5t-21.5 -79.5v-215q0 -77 -36 -91z" />
    <glyph glyph-name="braceright.ss01.case" horiz-adv-x="337" 
d="M200 348v18q-36 14 -36 91v215q0 55 -21.5 79.5t-72.5 24.5h-30v31h30q63 0 95.5 -31.5t32.5 -104.5v-204q0 -51 8.5 -73t37.5 -22h13v-30h-13q-29 0 -37.5 -22t-8.5 -73v-204q0 -73 -32.5 -104.5t-95.5 -31.5h-30v31h30q51 0 72.5 24.5t21.5 79.5v215q0 77 36 91z" />
    <glyph glyph-name="guillemotleft.ss01.case" horiz-adv-x="484" 
d="M94 359v-18l166 -174h-42l-160 163v39l159 164h42zM260 359v-18l166 -174h-42l-160 163v39l159 164h42z" />
    <glyph glyph-name="guillemotright.ss01.case" horiz-adv-x="484" 
d="M390 341v18l-166 174h42l160 -163v-39l-159 -164h-42zM224 341v18l-166 174h42l160 -163v-39l-159 -164h-42z" />
    <glyph glyph-name="guilsinglleft.ss01.case" horiz-adv-x="318" 
d="M94 359v-18l166 -174h-42l-160 163v39l159 164h42z" />
    <glyph glyph-name="guilsinglright.ss01.case" horiz-adv-x="318" 
d="M224 341v18l-165 174h42l159 -164v-39l-160 -163h-42z" />
    <glyph glyph-name="hyphen.ss01.case" horiz-adv-x="371" 
d="M322 347h-273v31h273v-31z" />
    <glyph glyph-name="endash.ss01.case" horiz-adv-x="617" 
d="M568 347h-520v31h520v-31z" />
    <glyph glyph-name="emdash.ss01.case" horiz-adv-x="877" 
d="M828 347h-780v31h780v-31z" />
    <glyph glyph-name="emdash.ss01.ss02.case" horiz-adv-x="1445" 
d="M1396 347h-1348v31h1348v-31z" />
    <glyph glyph-name="tbar.ss04" horiz-adv-x="378" 
d="M214 0h-85v250h-102v74h102v106h-102v74h102v152h85v-152h136v-74h-136v-106h136v-74h-136v-250z" />
    <glyph glyph-name="at.case" horiz-adv-x="977" 
d="M668 41l25 -52q-117 -74 -264 -74q-174 0 -273 104t-99 277q0 216 137 359.5t357 143.5q158 0 264 -92.5t106 -248.5q0 -128 -65.5 -222t-170.5 -94q-73 0 -96 57h-18q-53 -57 -129 -57q-75 0 -118 47t-43 131q0 101 60.5 175.5t155.5 74.5q38 0 66.5 -15t39.5 -34h18
l8 35h71l-42 -254l-2 -21q-3 -21 -3 -30q0 -27 10.5 -39.5t35.5 -12.5q58 0 108 69t50 183q0 131 -84 210.5t-234 79.5q-171 0 -294.5 -123t-123.5 -309q0 -68 17 -126.5t52.5 -106.5t98.5 -75.5t147 -27.5q120 0 232 68zM456 207q59 0 98 51.5t39 131.5q0 115 -96 115
q-59 0 -97.5 -56t-38.5 -126q0 -53 23.5 -84.5t71.5 -31.5z" />
    <glyph glyph-name="y.ss08" horiz-adv-x="531" 
d="M218 -22l16 40l-212 486h89l152 -351h25l140 351h87l-219 -547q-39 -95 -69 -126t-97 -31h-50v76h46q34 0 50.5 20t36.5 69q3 9 5 13z" />
    <glyph glyph-name="W.ss10" horiz-adv-x="876" 
d="M377 481h124l132 -380h20l77 613h87l-91 -714h-142l-135 392h-20l-136 -392h-142l-91 714h88l77 -613h20z" />
    <glyph glyph-name="w.ss10" horiz-adv-x="691" 
d="M293 349h110l84 -259h20l59 414h82l-74 -504h-130l-88 265h-19l-88 -265h-132l-73 504h82l61 -414h20z" />
    <glyph glyph-name="uni0443.ss08" horiz-adv-x="531" 
d="M218 -22l16 40l-212 486h89l152 -351h25l140 351h87l-219 -547q-39 -95 -69 -126t-97 -31h-50v76h46q34 0 50.5 20t36.5 69q3 9 5 13z" />
    </font>
</defs>
</svg>
