<?xml version="1.0" standalone="no"?>
<!DOCTYPE svg PUBLIC "-//W3C//DTD SVG 1.1//EN" "http://www.w3.org/Graphics/SVG/1.1/DTD/svg11.dtd" >
<svg xmlns="http://www.w3.org/2000/svg" xmlns:xlink="http://www.w3.org/1999/xlink" version="1.1">
<metadata>
Created by FontForge 20170731 at Sat Jun 12 11:52:59 2021
 By Aleksey,,,
Copyright (c) 2010 by Hannes von Doehren. All rights reserved.
</metadata>
<defs>
<font id="ReklameScript-Bold" horiz-adv-x="1126" >
  <font-face 
    font-family="Reklame Script Bold"
    font-weight="400"
    font-stretch="normal"
    units-per-em="2048"
    panose-1="3 6 8 2 4 6 7 8 13 5"
    ascent="1556"
    descent="-492"
    x-height="1014"
    cap-height="1464"
    bbox="-373.299 -678 3273 2138"
    underline-thickness="102"
    underline-position="-307"
    unicode-range="U+0020-FB02"
  />
<missing-glyph horiz-adv-x="1388" 
d="M412 893l77 -117q29 16 67 61t38 58l-12 16q33 59 93 101.5t113 42.5q17 0 27 -12t10 -31q0 -32 -33 -75t-75.5 -81t-89.5 -90.5t-68 -97.5q11 -31 57.5 -77t57.5 -32q23 38 61.5 82.5t74 80.5t69 75t53.5 81t20 83q0 83 -61.5 159t-138.5 76q-117 0 -215 -86t-125 -217z
M555 297q0 -37 30 -64.5t66 -27.5q35 0 59 34t32 70t8 64q0 45 -21.5 65.5t-46.5 20.5q-42 0 -73 -32t-42.5 -67t-11.5 -63zM205 0v1434h979v-1434h-979z" />
    <glyph glyph-name="fi" unicode="fi" horiz-adv-x="1398" 
d="M817 211q0 87 36.5 250.5t86.5 326.5q-326 -9 -397 -22l-2 -12q106 -103 149 -199.5t43 -243.5q0 -117 -36.5 -228.5t-94 -193.5t-125.5 -146t-131.5 -98.5t-112.5 -39.5q-46 -3 -94 8q-76 17 -114.5 74t-38.5 143q0 92 14 184q21 146 83 390.5t71 297.5l-82 56
q-31 18 -49.5 66.5t-18.5 84.5q0 3 -0.5 11.5t0 10t2 8t6.5 8t11.5 6.5t18.5 7t27 6t38 7.5t50 8t64 9.5q17 66 48 192.5t55 223t36 139.5q23 8 72 8q127 0 195.5 -37t68.5 -94q0 -45 -16 -112t-46.5 -165.5t-37.5 -125.5q457 24 512 14q54 -11 113 -35.5t104 -63.5t33 -77
q-148 -472 -158 -639q-3 -47 10 -72.5t35 -25.5q47 0 86.5 53.5t58 110.5t23.5 100h10.5t25 -2t35.5 -6.5t38 -14.5t36 -23.5t25 -36.5t10 -52q0 -73 -62 -150t-169.5 -130.5t-224.5 -53.5q-151 0 -235.5 74t-84.5 221zM358 25q-18 -101 -22 -146q-3 -74 24 -74q8 0 26 17.5
t43 56t48.5 89t42.5 127.5t25 161q11 193 -76 324q-6 -37 -48.5 -231.5t-62.5 -323.5zM1221 1112q-54 0 -106 40t-52 114q0 24 6 55.5t23 71t42.5 71.5t68 54t95.5 22q78 0 110 -19t13 -73q52 -19 81.5 -43.5t29.5 -69.5q0 -32 -16.5 -68t-50.5 -72t-98 -59.5t-146 -23.5z
" />
    <glyph glyph-name="fl" unicode="fl" horiz-adv-x="1302" 
d="M852 0q-8 13 -8.5 40t4.5 79t6 65q18 222 96 623q-296 -14 -403 -25l-2 -12q110 -106 160.5 -211t50.5 -248q0 -121 -41 -236t-104 -198t-136.5 -146.5t-140.5 -95.5t-115 -32q-112 0 -172.5 62t-60.5 165q0 92 14 184q21 147 83 399t71 304l-82 55q-31 18 -49.5 67
t-18.5 85q0 3 -0.5 11.5t0 10t2 8t6.5 8t11.5 6.5t18.5 7t27 6t38 7.5t50 8t64 9.5q109 431 139 540q23 8 72 8q127 0 195.5 -37t68.5 -94q0 -45 -16.5 -110t-45.5 -155t-38 -124q66 8 127.5 16t88.5 12t57 6.5t61 2.5q36 0 67 -39q76 332 123 481q10 19 47 19t107.5 -21.5
t125.5 -50t50 -45.5q-197 -766 -250 -1345q-12 -108 -16 -166q-15 -16 -94.5 1t-155 47.5t-82.5 47.5zM358 25q-18 -101 -22 -146q-3 -74 24 -74q8 0 26 17.5t43 56t48.5 89t42.5 127.5t25 161q11 193 -76 324q-6 -37 -48.5 -231.5t-62.5 -323.5z" />
    <glyph glyph-name="f_f" unicode="ff" horiz-adv-x="1603" 
d="M154 688l-82 57q-31 18 -49.5 63.5t-18.5 80.5q0 3 -0.5 11.5t0 10t2 8t6.5 8t11.5 6.5t18.5 7t27 6t38 7.5t50 8t64 9.5q24 94 60.5 284.5t48.5 235.5q22 8 71 8q127 0 196 -37t69 -94q0 -130 -74 -401q54 6 214.5 25.5t221.5 25.5q103 420 133 528q25 8 74 8
q126 0 194 -37t68 -94q0 -45 -16.5 -107t-44.5 -144t-39 -121q46 5 207 27t211 22q40 0 76 -48t53.5 -99.5t17.5 -78.5v-3.5t-2.5 -9t-7.5 -11.5t-16.5 -10t-28.5 -6q-433 -31 -559 -43v-17q108 -105 158 -211.5t50 -251.5q0 -121 -40.5 -236t-103 -198t-135.5 -146.5
t-140.5 -95.5t-114.5 -32q-113 0 -174.5 62t-61.5 165q0 72 17 184q19 147 87.5 439t74.5 327q-303 -16 -420 -30v-17q99 -94 139.5 -212t40.5 -265q0 -122 -39.5 -236.5t-100 -198t-132 -147t-137.5 -95.5t-113 -32q-113 0 -174.5 62.5t-61.5 165.5q0 72 17 184
q21 146 91 410.5t79 318.5zM1159 25q-14 -79 -20 -146q-7 -74 22 -74q8 0 27 17.5t44 56t48.5 89t42 127.5t23.5 161q11 197 -76 324q-6 -41 -48 -234.5t-63 -320.5zM340 -31q-2 -13 -10.5 -66t-10.5 -79q-4 -72 25 -72q8 0 26 17.5t43 55.5t48 88.5t41.5 127t23.5 160.5
q20 255 -57 368q-6 -40 -57 -256.5t-72 -343.5z" />
    <glyph glyph-name="a_a" unicode="aa" horiz-adv-x="2224" 
d="M1853 94h-14q-44 -62 -116 -105.5t-160 -43.5q-195 0 -308 116q-104 -124 -268 -124q-52 0 -93.5 14.5t-65 35t-40.5 47t-23.5 46.5t-8.5 37h-15q-127 -170 -333 -170q-146 0 -254.5 120t-108.5 302q0 103 22 198.5t68.5 179.5t114.5 146.5t166.5 98.5t216.5 36
q135 0 226 -77.5t91 -159.5q0 -12 -2.5 -23.5t-5.5 -17.5l-2 -5q1 0 11.5 -2t15.5 -3.5t16.5 -4.5t18 -7t15.5 -9.5t13 -13t7.5 -16.5t2.5 -21.5t-6 -26.5q-56 -180 -65 -385q-7 -139 55 -139q81 0 115 178q-4 46 -4 70q0 135 35 263t98.5 232t164.5 167t222 63
q171 0 280 -57.5t109 -135.5l-4 -33q6 -1 26.5 -3.5t39 -5.5t37.5 -8t28.5 -15t5.5 -23q-97 -302 -106 -537q-7 -147 53 -147q30 0 52 19.5t35.5 56.5t21 77t12.5 95q4 1 11 1.5t27 0t38 -3.5t40 -12t38 -22.5t27 -38.5t11 -58q0 -50 -22 -102t-63 -99t-110 -77t-153 -30
q-53 0 -95 12.5t-67 30.5t-42 41.5t-23.5 42t-8.5 35.5zM401 305q-7 -77 3 -111t40 -34q41 0 90.5 96.5t82.5 205.5t49 193q5 31 7.5 51.5t4 46.5t-1 42t-8.5 31.5t-18 22.5t-29 7q-51 0 -101.5 -103t-80.5 -227.5t-38 -220.5zM1497 295q-7 -82 3 -117t38 -35
q42 0 92.5 111.5t81.5 223.5t35 153q-52 10 -70 39q53 78 66 178q7 57 -25 57q-51 0 -102.5 -116t-81.5 -254t-37 -240z" />
    <glyph glyph-name="d_d" unicode="dd" horiz-adv-x="2320" 
d="M1892 125h-8q-14 -29 -31.5 -56.5t-46 -59.5t-60 -55.5t-75 -39.5t-90.5 -16q-107 0 -187.5 45.5t-129.5 122.5q-62 -77 -148.5 -126t-181.5 -49q-62 0 -110.5 42.5t-70.5 94.5t-22 97h-8q-18 -37 -42 -71.5t-61 -72.5t-88.5 -60.5t-109.5 -22.5q-96 0 -173.5 38.5
t-123.5 101t-70 135.5t-24 149q0 102 28 211.5t81.5 211.5t146.5 172t209 80q70 6 137 -14q35 -9 66.5 -26.5t46.5 -30.5l14 -13q14 71 29.5 170.5t26 169t24 137t32 103t41.5 37.5q26 4 68 -2q57 -7 109 -23t87.5 -44.5t24.5 -61.5q-60 -176 -137.5 -632t-77.5 -601
q0 -86 53 -86q39 0 82 74q49 97 70 206q4 83 24 171t58.5 179t91.5 164t129.5 123t165.5 58q65 5 135 -13q35 -10 66.5 -28t45.5 -30l15 -13q10 49 21 113t19 113.5t17.5 103.5t18.5 93t20 71.5t24.5 50t29.5 18.5q37 4 94 -8q52 -6 96 -20.5t74 -40t26 -56.5
q-16 -99 -72.5 -372t-100.5 -505t-44 -311q0 -86 56 -86q38 0 71 48.5t51 109.5t23 119q4 1 10 2t23.5 2t33.5 -0.5t35.5 -8.5t34 -20t24 -37t9.5 -57q0 -54 -33 -115t-87.5 -113t-135 -86t-166.5 -34q-94 0 -148.5 55.5t-54.5 124.5zM1520 223q-6 -117 28 -117
q40 0 101 110.5t104.5 230t46.5 163.5q-31 4 -49 35q2 4 15 37.5t18.5 49t13 42.5t8.5 47q4 62 -26 62q-57 0 -116.5 -114t-97.5 -265.5t-46 -280.5zM358 223v-6q0 -22 0.5 -35t3 -34t9.5 -31.5t18 -10.5q40 0 97.5 98.5t98 202.5t52.5 158q35 145 32 195q-6 64 -53 65
q-57 0 -115 -99t-96.5 -238t-46.5 -265z" />
    <glyph glyph-name="e_e" unicode="ee" horiz-adv-x="1656" 
d="M-14 260q0 143 31.5 282t89 254.5t149.5 187t203 71.5q37 0 78 -10.5t83 -35.5t75 -60t54 -89t21 -119q0 -190 -87 -328.5t-189 -138.5q-53 0 -97 26t-62 52l-18 25q-22 -60 -22 -189q0 -137 129 -137q69 0 135.5 34.5t126 102.5t103.5 182t61 259q18 16 49 18
q59 204 164 332.5t248 128.5q48 0 103.5 -18t109.5 -53.5t89.5 -98.5t35.5 -143q0 -95 -27 -183t-69.5 -149.5t-94 -98t-100.5 -36.5q-54 0 -103 19t-64 31t-26 23q-3 -5 -8.5 -27.5t-12.5 -78.5t-7 -119q0 -143 118 -143q69 0 130.5 35.5t102 89t66 109t33.5 102.5
q22 16 55 16q75 0 122.5 -30.5t47.5 -90.5q0 -52 -18.5 -108.5t-59 -113.5t-97.5 -102t-142.5 -73.5t-185.5 -28.5q-138 0 -254 61t-172 169q-60 -95 -155 -152t-224 -57q-74 0 -147 15.5t-140 48.5t-118.5 79t-82 113t-30.5 145zM1192 539q22 -23 61 -23q48 0 93 109.5
t45 216.5q0 30 -7 51t-14.5 28t-13.5 7q-14 0 -31 -33q-109 -233 -133 -356zM346 516q0 -2 1 -5t4.5 -10.5t8 -13.5t13 -11t18.5 -5q48 0 83 99t38 212q0 84 -25 84q-11 0 -28 -32q-88 -188 -113 -318z" />
    <glyph glyph-name="g_g" unicode="gg" horiz-adv-x="2033" 
d="M1157 -150q29 -42 82 -85t88 -58q50 15 91 52.5t72 95.5t51 110t42 123q-108 -104 -194 -104q-348 0 -367 405v6q-36 -169 -84 -344q-81 -262 -205 -390t-311 -128q-108 0 -200 25t-134 61q-45 31 -48 80t24.5 91t77.5 70.5t102 22.5q15 -21 50 -83t56 -81
q50 14 90.5 50.5t71 93.5t50.5 107t42 120q-109 -100 -192 -100q-181 0 -268.5 102t-96.5 295q-8 182 49 334t175.5 245t275.5 93q161 0 279 -65.5t132 -155.5q4 -26 11.5 -52.5t13.5 -39.5l6 -13q12 -2 33.5 -17t32.5 -36q54 180 177 288.5t292 108.5q165 0 282.5 -66
t122.5 -159l-2 -29q11 0 30.5 -2t45.5 -7.5t43.5 -17.5t15.5 -28q-2 -10 -27 -167.5t-51.5 -285t-66.5 -268.5q-76 -266 -202.5 -398t-315.5 -132q-113 0 -213.5 30t-145.5 68q-36 26 -50 60.5t-4.5 66t31.5 58.5t60 41t80 9zM403 330q-3 -77 19 -117.5t57 -40.5q42 0 83 66
t70.5 162.5t47.5 207.5q19 131 15 180q-11 92 -77 93q-43 0 -83.5 -60.5t-68 -148t-44.5 -180t-19 -162.5zM1378 330q-1 -79 21 -120.5t57 -41.5q42 0 87.5 75t77 179t38.5 194q-22 -2 -45 27q14 31 22.5 87t8.5 93q0 30 -13.5 52t-36.5 22q-43 0 -84 -62t-69 -152
t-45 -185.5t-19 -167.5z" />
    <glyph glyph-name="l_l" unicode="ll" horiz-adv-x="989" 
d="M49 -68q-22 36 -24.5 112t11 143.5t32.5 86.5q9 145 91.5 551.5t157.5 622.5q7 18 48 18q48 0 119 -27.5t119.5 -61.5t41.5 -52q-69 -186 -143 -580t-105 -735q-12 -108 -16 -166q-15 -16 -94 0t-154 44.5t-84 43.5zM539 0q-8 13 -8.5 40t4.5 79t6 65q22 245 104 659
t162 670q9 19 47 19q37 0 107.5 -21.5t125.5 -50t50 -45.5q-197 -766 -250 -1345q-15 -136 -17 -166q-15 -16 -94.5 1t-154.5 47.5t-82 47.5z" />
    <glyph glyph-name="m_m" unicode="mm" horiz-adv-x="3088" 
d="M2130 563h-14q-60 -141 -111.5 -311.5t-58.5 -284.5q-54 -33 -113 -33q-178 0 -242 132q-87 -162 -245 -162q-136 0 -215 87.5t-70 215.5q3 54 24 160.5t41 179.5h-20q-14 -31 -28.5 -69t-30.5 -89.5t-26 -85t-27 -99.5t-22 -87t-22.5 -91.5t-17.5 -72.5
q-49 -27 -119 -27q-129 0 -194 55.5t-60 157.5q11 276 37 455h-14q-60 -143 -117 -328t-64 -299q-53 -33 -110 -33q-130 0 -199 70t-69 197q0 181 24.5 369t70.5 321t101 133q47 0 102.5 -16.5t90.5 -39t30 -38.5q-90 -323 -100 -471h8q194 482 258 622q5 11 36 17t58 6
q113 0 189 -42.5t70 -88.5q-6 -44 -47.5 -263t-49.5 -298h8q42 134 67 205t68 169.5t97 188.5q6 12 36 22.5t62 10.5q70 0 143.5 -22.5t118 -56.5t37.5 -65q-14 -76 -49 -202t-59.5 -236t-24.5 -197q0 -135 72 -135q71 0 133 242q13 162 50.5 337t81 287.5t73.5 112.5
q48 0 104 -17t91 -39.5t30 -37.5q-108 -388 -117 -520h8q29 73 105 276t110 277q5 11 36 16.5t59 5.5q114 0 196 -42t74 -87q-5 -41 -31.5 -214t-34.5 -253h9q24 59 72 193t92 237.5t94 188.5q6 12 37 22.5t63 10.5q108 0 208 -48.5t91 -95.5q-14 -76 -57 -223t-74 -277
t-31 -217q0 -135 72 -135q31 0 62.5 42.5t46.5 79.5t26 73q6 1 16.5 2t37 -1.5t47 -11t37 -31.5t16.5 -57q0 -43 -20.5 -91t-60 -92.5t-108.5 -73.5t-155 -29q-93 0 -160 23.5t-103 66t-51 95.5t-10 118q6 110 66 346h-21q-63 -118 -121.5 -322.5t-66.5 -330.5
q-49 -25 -119 -25q-128 0 -193.5 60.5t-60.5 164.5q16 286 41 463z" />
    <glyph glyph-name="n_n" unicode="nn" horiz-adv-x="2033" 
d="M1618 549h-23q-72 -131 -133 -309t-65 -295q-64 -37 -166 -37q-126 0 -164 123q-92 -166 -244 -166q-75 0 -132.5 26.5t-90.5 71t-49 96t-16 107.5q0 129 65 383h-22q-71 -132 -132 -309.5t-67 -294.5q-62 -37 -166 -37q-102 0 -142 69.5t-40 198.5q0 166 17 325
t48 288.5t79.5 208.5t107.5 79q39 0 81.5 -13.5t72 -42.5t18.5 -65q-2 -6 -14.5 -52t-16 -59t-14.5 -56.5t-15.5 -64.5t-13 -60.5t-12.5 -67t-8.5 -62.5t-6.5 -67h8q58 137 80.5 188t70 144.5t101.5 183.5q6 15 27 28t57 13q35 0 87.5 -14t104.5 -37.5t82.5 -61t16.5 -77.5
q-3 -12 -21.5 -72.5t-30.5 -100.5t-30 -110.5t-29 -124.5t-19.5 -118t-8.5 -115q0 -136 76 -136q67 0 127 289q13 191 45 352t83.5 263t110.5 102q37 0 82 -12t77 -32.5t26 -41.5q-31 -113 -47 -174.5t-34 -158t-24 -177.5h8q6 14 27 65t28.5 69t27.5 65t30.5 70t29.5 65
t33 69.5t32 63.5t36 68t37 63q6 15 27 28t57 13q45 0 113.5 -19t123 -51t50.5 -63q-11 -79 -88.5 -349.5t-77.5 -390.5q0 -135 76 -135q22 0 45.5 24t42.5 62t30.5 66t20.5 53q1 -2 15.5 0.5t37.5 -3.5t45 -15.5t37.5 -34t15.5 -60.5q0 -35 -25.5 -82t-70 -93t-115 -77.5
t-149.5 -31.5q-75 0 -133 18t-94 47t-58.5 68.5t-30.5 81t-6 86.5q8 109 68 342z" />
    <glyph glyph-name="o_o" unicode="oo" horiz-adv-x="2009" 
d="M1403 739q-21 -75 -37 -187t-16 -220q0 -213 90 -213q50 0 95.5 48t76 120t53.5 155.5t34 155t11 117.5q0 116 -55 116q-29 0 -45 -8q-33 37 -41 78t8 75.5t62.5 57.5t115.5 23q83 0 139.5 -32.5t84.5 -93.5t37.5 -131t6.5 -161q-2 -62 -15 -133.5t-39 -155.5t-70 -160
t-102 -138.5t-142.5 -100t-184.5 -37.5q-98 0 -176 32t-126 83.5t-78.5 120.5t-41.5 138.5t-8 141.5q7 122 39 219q-24 -4 -45 -4q-27 0 -39 2q2 -44 -4 -110q-11 -77 -30 -149.5t-59 -156t-94 -145t-140 -102.5t-191 -41q-122 0 -216.5 43.5t-148 115t-79 155.5t-21.5 173
q7 134 59 257.5t138.5 208t187.5 103.5q28 -10 71 -48t52 -56q1 5 3.5 14t11 31t18.5 39t27 31t36 14q321 0 373 -225q19 -8 49 -8q48 0 103 12q61 113 139.5 188t161.5 92q25 -6 50.5 -22.5t31.5 -30.5q0 -2 2.5 -22.5t2.5 -37t-1 -43.5t-9 -50.5t-21 -49t-37.5 -48.5
t-57.5 -40zM346 352q-6 -104 19.5 -161.5t80.5 -57.5q58 0 107.5 67t78.5 165t45 176t21 131q0 4 1 18t1 21q-136 51 -163 108q-80 -57 -133 -196t-58 -271z" />
    <glyph glyph-name="s_s" unicode="ss" horiz-adv-x="1763" 
d="M1253 709l4 -9q10 -3 28 -9.5t69.5 -29t98.5 -49t104 -70.5t98.5 -92.5t69.5 -116t28 -140.5q0 -86 -32.5 -150t-90 -101t-128 -55t-154.5 -18q-140 0 -275 74t-205 176q-21 -130 -126.5 -208.5t-231.5 -78.5q-109 0 -216 40.5t-183 101.5t-123 134.5t-47 139.5
q0 60 21.5 116.5t64.5 95t98 38.5q51 0 96.5 -25.5t67 -51.5t20.5 -36q-2 -32 -41 -119.5t-39 -91.5q-1 -11 9 -33.5t40 -45.5t72 -23q77 0 119.5 43t42.5 125q0 68 -40 140t-99 127.5t-125 96t-121 53.5q-22 22 -51 96t-25 111q4 30 111.5 70t240 72t244.5 54.5t133 22.5
q23 0 64 -83.5t41 -114.5q0 -54 -82.5 -100t-149.5 -46q-15 0 -46 18.5t-46 18.5q-65 -2 -141 -55l2 -8q12 -5 32.5 -14.5t77.5 -44t106.5 -73t104.5 -100.5t86 -129q27 103 129 103q51 0 99 -22.5t72 -45t24 -31.5q-2 -33 -22.5 -104t-20.5 -76q-1 -10 9 -29t40 -39t72 -20
q77 0 119.5 55.5t42.5 147.5q0 64 -44.5 125t-111 103.5t-136.5 71t-128 36.5q-21 21 -43.5 109.5t-16.5 127.5q4 30 124 68.5t267.5 68t271 50t144.5 20.5q23 0 76 -78.5t53 -107.5q0 -56 -92 -123.5t-155 -67.5q-15 0 -35 28t-37 28q-65 -2 -162.5 -15.5t-114.5 -25.5z
" />
    <glyph glyph-name="t_t" unicode="tt" horiz-adv-x="1841" 
d="M133 786q-29 -4 -55 24.5t-37 67t-13.5 74t15.5 45.5q45 25 295 60q70 178 106 211q24 22 65 24.5t82 -10.5t78 -31t59 -34.5t20 -22.5l-31 -88l96 14q180 26 199 0q25 -35 51 -121q90 18 178 31q98 239 148 262q24 11 92 -9.5t123.5 -49.5t52.5 -39l-39 -123l63 6
q49 6 92.5 5t55.5 -19q22 -36 104 -66q12 -4 39 -59t27 -66q0 -30 -49 -30q-136 -2 -416 -29q-125 -419 -125 -588q0 -43 16.5 -64.5t44.5 -21.5q57 0 110 31.5t88.5 77.5t57.5 93.5t27 84.5q4 1 10.5 1.5t25 -0.5t35.5 -4.5t38 -14.5t36 -27t25 -44t10 -65
q0 -102 -79.5 -183t-198.5 -122t-250 -41q-145 0 -242 79.5t-116 215.5q-65 -122 -224 -208.5t-325 -86.5q-163 0 -270 98.5t-107 258.5q0 83 32.5 225.5t84.5 294.5zM1059 758q-34 -6 -67 30.5t-46 83.5q-130 -5 -325 -26q-138 -401 -138 -584q0 -123 82 -123
q62 0 120.5 43.5t100 110t67 121t40.5 100.5h13.5t32 -3.5t43.5 -11t43 -25t36 -42.5q22 133 82 338z" />
    <glyph glyph-name=".notdef" horiz-adv-x="1388" 
d="M412 893l77 -117q29 16 67 61t38 58l-12 16q33 59 93 101.5t113 42.5q17 0 27 -12t10 -31q0 -32 -33 -75t-75.5 -81t-89.5 -90.5t-68 -97.5q11 -31 57.5 -77t57.5 -32q23 38 61.5 82.5t74 80.5t69 75t53.5 81t20 83q0 83 -61.5 159t-138.5 76q-117 0 -215 -86t-125 -217z
M555 297q0 -37 30 -64.5t66 -27.5q35 0 59 34t32 70t8 64q0 45 -21.5 65.5t-46.5 20.5q-42 0 -73 -32t-42.5 -67t-11.5 -63zM205 0v1434h979v-1434h-979z" />
    <glyph glyph-name=".null" horiz-adv-x="0" 
 />
    <glyph glyph-name="nonmarkingreturn" horiz-adv-x="682" 
 />
    <glyph glyph-name="space" unicode=" " horiz-adv-x="518" 
 />
    <glyph glyph-name="exclam" unicode="!" horiz-adv-x="854" 
d="M391 639q-5 206 29 465t94 409q4 11 19 20t28 9q168 0 232 -35q15 -8 3 -44t-1 -44q7 -5 21 -13.5t25.5 -15t23 -17t17 -22t4.5 -28t-12 -35.5q-5 -12 -40 -99t-51 -127t-48.5 -128t-52 -147.5t-41 -135.5t-33.5 -139q-10 -10 -35 -10.5t-55 9t-58 26.5t-47.5 44
t-21.5 58zM219 100q0 30 16.5 65t50 70t96.5 58.5t144 23.5q54 0 102 -38.5t48 -110.5q0 -24 -6 -54.5t-22 -69.5t-40 -70.5t-65 -53.5t-92 -22q-84 0 -158 68.5t-74 133.5z" />
    <glyph glyph-name="quotedbl" unicode="&#x22;" horiz-adv-x="1218" 
d="M526 1149l23 -19q14 -12 -16.5 -99.5t-63.5 -131.5q-11 -14 -43.5 -15t-72 8t-77.5 22.5t-62.5 29.5t-23.5 27q30 267 66 499q1 14 82 0t160 -45t75 -59q-30 -165 -47 -217zM647 977q8 73 20.5 158t30.5 194t21 127q1 14 82 0t160 -45t75 -59q-8 -44 -45.5 -205
t-48.5 -242q-2 -11 -19.5 -15t-44 -1.5t-58 9.5t-62.5 17t-56 21t-40.5 22t-14.5 19z" />
    <glyph glyph-name="numbersign" unicode="#" horiz-adv-x="1601" 
d="M850 1137l-25 4q-4 -14 -13.5 -47t-14.5 -50l204 23q71 268 105 340q2 4 5 18.5t7 20t21 12t47 6.5q41 0 125 -26.5t110 -44.5q-28 -67 -90 -301q79 3 120 -5t79 -45q32 -32 64.5 -79.5t21.5 -57.5q-19 -17 -308 -40q-7 -1 -11 -1.5t-10 -1t-11 -0.5l-49 -221h45
q23 -1 74 -66q63 -81 61 -125q-1 -26 -29 -26q-132 -4 -200 -10q-64 -308 -74 -371q-3 -25 -49 -25t-152 35.5t-119 48.5q4 24 54 271q-79 -10 -211 -31q-46 -249 -52 -434q-1 -17 -34 -19t-79.5 7t-94.5 22t-83.5 26t-41.5 19q14 135 51 326q-17 -4 -51 -8q-49 -7 -114 66
q-52 60 -58 102q-3 21 12 24q152 34 262 55l57 226l-49 -9q-48 -8 -111 63q-52 60 -58 104q-3 22 12 26q138 35 274 59q81 273 149 451q68 3 172 -24.5t105 -57.5q6 -59 -6.5 -145.5t-38.5 -83.5zM891 616q23 105 51 215q-90 -8 -209 -24q-36 -132 -55 -219z" />
    <glyph glyph-name="dollar" unicode="$" horiz-adv-x="1499" 
d="M422 297q0 -40 33 -79t84 -58q67 267 163 622q-92 72 -204 121.5t-201 65.5q-23 5 -54.5 100.5t-31.5 116.5q-2 40 100.5 84t253 79t320.5 60q26 87 55 164q103 16 111 -57l-27 -89q189 18 276 13q36 -3 83 -84t47 -107q0 -42 -55 -94.5t-123 -87.5t-107 -35
q-16 0 -37 11.5t-21 21.5q0 7 16.5 39.5t16.5 44.5q0 9 -51 9.5t-123 -7.5q-6 -23 -29 -101t-34 -122q64 -38 120 -79.5t111.5 -97t95 -113.5t64 -130.5t24.5 -147.5q0 -95 -47.5 -170.5t-129 -122t-185.5 -70.5t-223 -24q-10 0 -31.5 1t-30.5 1l-12 -63q8 -4 11.5 -6.5
t6.5 -9.5t2 -19q0 -26 -22.5 -73.5t-50.5 -77.5q-44 -48 -138 34l-4 4l54 232q-199 44 -314.5 156t-115.5 235q0 98 55.5 172t144.5 74q86 0 162.5 -41t85.5 -76q-34 -36 -64 -99.5t-30 -119.5zM815 672q-53 -197 -125 -514q100 21 157.5 89.5t57.5 178.5q0 124 -90 246z
M762 993l39 137q-140 -23 -217 -61q95 -35 178 -76z" />
    <glyph glyph-name="percent" unicode="%" horiz-adv-x="2277" 
d="M498 -92q59 282 108 282q9 0 22.5 -3t16.5 -3q4 0 8 4q418 585 746 1004q-6 -5 -18.5 -11.5t-60.5 -18t-106 -11.5q-60 0 -115.5 17.5t-84.5 43.5q18 -38 18 -127q0 -21 -5 -52t-19.5 -75.5t-36.5 -89t-60 -89t-86.5 -78t-120 -55t-155.5 -21.5q-89 0 -161 23.5t-118 62
t-76.5 89.5t-43.5 102.5t-13 105.5q0 91 36.5 175t100 148.5t158 103t203.5 38.5q42 0 93 -8t69 -23q52 26 59 26q19 0 43 -18.5t52.5 -45t63 -53t87.5 -45t115 -18.5q69 0 129 16t85 32l25 16q2 2 43 45.5t73.5 64.5t67.5 21q31 0 104 -49t73 -72q0 -34 -55 -100.5
t-107 -77.5q-89 -81 -245.5 -298.5t-297 -436t-276 -425t-181.5 -260.5q-38 0 -97.5 56.5t-59.5 87.5zM1231 236q0 107 57.5 220.5t147.5 192t180 92.5q67 -17 76 -39q43 19 104 19q83 0 147 -19.5t102 -49.5t62 -72.5t32.5 -83.5t8.5 -86q0 -108 -34 -204.5t-97 -171
t-160.5 -118t-216.5 -43.5q-106 0 -187.5 33t-128.5 87t-70 116t-23 127zM535 821q45 0 88.5 77.5t68 172t25.5 160.5q-5 5 -12 12.5t-10.5 11t-7.5 9t-6 10t-4 11t-3 15.5q-72 0 -131 -99t-66 -238q-3 -62 11.5 -102t46.5 -40zM1569 213q-7 -156 57 -156q41 0 76.5 53.5
t56.5 127t33 134.5t14 93v38.5t-8.5 31t-25.5 12.5q-46 0 -80 -54.5t-43 -113.5h-4q-18 0 -33 10q-37 -72 -43 -176z" />
    <glyph glyph-name="ampersand" unicode="&#x26;" horiz-adv-x="1695" 
d="M31 391q4 84 115 183.5t362 246.5q-177 275 -174 385q3 120 161 206.5t406 86.5q122 0 236.5 -55t186 -149t69.5 -197q-1 -54 -42.5 -107t-148 -126.5t-297.5 -176.5q65 -82 146 -176q124 83 219.5 161t130.5 124q58 10 110 -5t86 -46t53.5 -71t18.5 -79
q-1 -43 -113 -140t-280 -206l74 -84q16 12 45 12q27 0 52.5 -21t45 -56t31 -61t20.5 -54q-2 -30 -77 -92t-121 -68q-72 40 -293 289q-353 -195 -521 -195q-100 0 -198 52t-164 126t-105 154.5t-34 138.5zM434 207q106 0 400 170q-88 109 -148 190q-180 -100 -254.5 -160
t-75.5 -124q0 -76 78 -76zM662 1085q0 -46 59 -143q219 120 276 158q108 73 113 123q3 31 -20 45t-56 14q-57 0 -143.5 -28t-157 -75.5t-71.5 -93.5z" />
    <glyph glyph-name="quotesingle" unicode="'" horiz-adv-x="735" 
d="M190 973q8 73 20.5 158t30.5 194t21 127q4 6 35.5 4t80.5 -16t94.5 -30t77 -37t28.5 -38q-10 -60 -47.5 -215t-49.5 -229q-3 -16 -34.5 -16.5t-74 10.5t-84.5 26.5t-70.5 33t-27.5 28.5z" />
    <glyph glyph-name="parenleft" unicode="(" horiz-adv-x="700" 
d="M803 1346l-6 -41q-236 -167 -361 -360t-125 -431q0 -139 90.5 -285.5t194.5 -230.5q2 -22 -13 -54.5t-51.5 -61t-82.5 -29.5q-63 52 -131 135t-134.5 192t-109.5 245t-43 265q0 135 38.5 261t104.5 225.5t149.5 176.5t178.5 126q13 7 42 -0.5t68.5 -27t71 -36.5t71.5 -41
t48 -28z" />
    <glyph glyph-name="parenright" unicode=")" horiz-adv-x="886" 
d="M53 -66l6 43q229 161 357.5 374t128.5 456q0 141 -88.5 288t-196.5 228q-4 41 34.5 92.5t113.5 54.5q63 -52 131 -135.5t134.5 -193t109 -245.5t42.5 -265q0 -135 -38.5 -267.5t-104 -239.5t-150.5 -191t-178 -132q-36 -19 -144 27.5t-157 105.5z" />
    <glyph glyph-name="asterisk" unicode="*" horiz-adv-x="1200" 
d="M393 817l45 207q-34 -5 -92.5 -20t-85.5 -19q-34 -7 -76.5 39.5t-55.5 91t7 58.5q39 11 136 18.5t139 13.5q-28 23 -92 55.5t-99 65.5q-23 30 -6 61t63 51t84 9l140 -150q6 28 8.5 106t15.5 120q9 33 63.5 39.5t114 -11t86.5 -45.5q-8 -40 -35 -129t-34 -133
q16 2 60 17.5t94 24.5t100 3q21 -1 59 -66q52 -87 47 -137q-2 -30 -30 -30q-36 -1 -122.5 3.5t-131.5 2.5l178 -127q41 -34 -6 -69q-44 -32 -109 -33q-19 0 -35 4l-166 166q-2 -30 1 -118t-3 -112q-4 -27 -36.5 -33t-74.5 5t-84 30.5t-67 40.5z" />
    <glyph glyph-name="plus" unicode="+" horiz-adv-x="1249" 
d="M272 420q-38 -6 -87 47t-66 103.5t4 64.5q133 30 321 51q31 189 74 307q23 42 151.5 15t178.5 -70q-36 -170 -45 -221l84 6q8 0 15.5 18.5t15.5 18.5q24 2 122 -35q43 -15 90 -89q50 -80 41 -125q-5 -26 -34 -26q-162 -3 -375 -16l-51 -319q-3 -20 -32 -23.5t-70.5 6.5
t-87 26t-84.5 35.5t-60 34.5q17 83 33 209z" />
    <glyph glyph-name="comma" unicode="," horiz-adv-x="765" 
d="M229 104q0 31 12.5 64.5t40.5 69t84 58.5t132 23q72 0 127 -61.5t55 -157.5q0 -156 -73.5 -288.5t-196.5 -200.5q-101 -53 -182 -20t-78 120q96 47 167 113t74 131q-51 -9 -106.5 33.5t-55.5 115.5z" />
    <glyph glyph-name="hyphen" unicode="-" horiz-adv-x="1130" 
d="M283 403q-37 -6 -85 56.5t-64 121t5 74.5q158 38 403.5 61.5t356.5 18.5q21 -1 64 -75q57 -100 57 -161q0 -40 -31 -40q-363 -5 -706 -56z" />
    <glyph glyph-name="period" unicode="." horiz-adv-x="765" 
d="M225 123q0 34 16.5 73.5t50 79t95.5 65.5t141 26q52 0 100 -43t48 -123q0 -36 -10.5 -81.5t-33 -98t-69.5 -88t-110 -35.5q-139 0 -136 100q-47 16 -69.5 44.5t-22.5 80.5z" />
    <glyph glyph-name="slash" unicode="/" horiz-adv-x="1271" 
d="M82 80q13 22 32 24.5t31 -4t21 1.5q89 126 222.5 332t241 372.5t218.5 327.5t197 252t135 91q40 0 82 -39t34 -68q-71 -66 -200 -248.5t-269 -403.5t-274 -437.5t-243.5 -387.5t-149.5 -217q-37 -2 -106 43t-66 72q44 226 94 289z" />
    <glyph glyph-name="zero" unicode="0" 
d="M-31 459q0 144 35 288.5t94.5 263t134.5 214.5t158.5 153.5t161.5 69.5q17 -4 29 -9.5t16.5 -9.5t14.5 -15t14 -15q75 35 151 35q176 0 277.5 -121.5t101.5 -311.5q0 -102 -10.5 -205t-36 -213.5t-63.5 -208.5t-98 -187t-134.5 -153.5t-177.5 -102t-223 -37.5
q-99 0 -176.5 32.5t-127 86.5t-82 128.5t-46 152.5t-13.5 165zM328 373q-8 -120 17 -173t89 -53q74 0 144 92t119 232.5t81 297.5t41 296q10 164 -65 164q-101 0 -185 -217q0 -2 -4 -2q-8 0 -35 10t-32 18q-10 -20 -30 -73.5t-51.5 -147t-57 -214.5t-31.5 -230z" />
    <glyph glyph-name="one" unicode="1" horiz-adv-x="978" 
d="M-33 84q3 19 143.5 65t217.5 60q-8 11 -21.5 22.5t-19 19.5t-2.5 19q21 92 92 372t94 390q-64 -55 -170 -119.5t-133 -64.5q-61 0 -123.5 65.5t-62.5 110.5q0 13 26.5 28t77 37t74.5 35q137 71 306.5 187.5t221.5 148.5q22 -7 56.5 -19t99.5 -45.5t82 -62.5
q-5 -51 -72 -168q-14 -28 -78.5 -308t-120.5 -566q233 53 267 53q13 0 65.5 -110t52.5 -119q0 -4 -5 -18.5t-5 -18.5q-348 -56 -921 -195q-24 -6 -85.5 81t-56.5 120z" />
    <glyph glyph-name="two" unicode="2" horiz-adv-x="1159" 
d="M-8 143l45 37q-4 4 -6 31t0 31l372 331q77 69 135.5 123.5t126 124t111.5 124t73.5 110t29.5 94.5q0 30 -20 45.5t-48 15.5q-107 0 -264 -92.5t-213 -181.5l12 -43q0 -14 -44 -50t-104.5 -68t-97.5 -32l-155 162q44 139 161 263.5t278.5 201t322.5 76.5q109 0 203 -34.5
t154.5 -89.5t95 -120.5t34.5 -130.5q0 -81 -38.5 -165.5t-112 -169t-159 -161t-200.5 -163.5l-186 -154l436 90q26 43 86 43q27 0 83 -115.5t56 -156.5q0 -29 -74 -43q-95 -16 -309.5 -48t-379.5 -57.5t-210 -38.5q-52 3 -121 76.5t-73 134.5z" />
    <glyph glyph-name="three" unicode="3" horiz-adv-x="1118" 
d="M827 813l-2 -6q50 -5 106.5 -30t105.5 -63.5t79 -94t25 -113.5q-8 -103 -55.5 -192.5t-121 -154t-167 -111t-196.5 -69t-206 -22.5q-101 0 -188.5 32t-142 80.5t-86 101t-33.5 99.5l7.5 12.5t19 25.5t28 30.5t30.5 20t31 1.5q34 -19 99.5 -67.5t93.5 -75.5q119 0 243 50
t212 140t94 191q0 61 -70 61q-47 0 -88 -12q-81 -67 -194 -78q-50 14 -99.5 79t-64.5 122q22 26 83.5 57.5t131.5 40.5q73 45 160 150.5t90 167.5q2 24 -14 37.5t-46 13.5q-55 0 -129 -40.5t-146 -103t-131 -123.5t-104 -116q-30 -2 -76 40.5t-77.5 90t-30.5 62.5
q3 32 36.5 83t95 109.5t138.5 109.5t179 85t204 34q85 0 157 -29t115.5 -71.5t74 -92.5t42 -90.5t9.5 -66.5q-4 -51 -28.5 -101t-56 -85.5t-63 -63t-53.5 -41.5z" />
    <glyph glyph-name="four" unicode="4" horiz-adv-x="1161" 
d="M178 389l-207 199q-8 60 105 406.5t184 457.5q14 20 66.5 13t110 -24.5t104 -41.5t47.5 -39q-201 -487 -254 -684q22 0 139 36.5t154 51.5q5 19 27 110t37 153t35.5 149t35 155.5t22.5 114.5q29 5 101 -9t139.5 -45t73.5 -65q3 -17 -23.5 -146t-54.5 -249l-27 -121
q3 0 31 7t35 7q53 -7 98.5 -98.5t38.5 -140.5l-262 -60q-9 -40 -49.5 -245.5t-67.5 -311.5q-10 -22 -21.5 -29t-43.5 -3q-29 4 -151.5 46.5t-125.5 55.5v6l100 430l-6 4q-9 -2 -54.5 -14.5t-67.5 -18.5t-66.5 -17t-74 -17.5t-65 -13t-63.5 -9.5z" />
    <glyph glyph-name="five" unicode="5" horiz-adv-x="1042" 
d="M391 1110l-18 -129q95 43 202 43q119 0 232 -60.5t184.5 -164.5t71.5 -219q0 -151 -99 -297t-254 -236t-311 -90q-89 0 -176.5 30.5t-150 77t-105.5 99t-55 98.5l37 58q69 95 102 73q22 -16 114 -90.5t130 -95.5q67 14 143.5 59.5t141.5 108.5t108 144t43 157
q0 104 -94 104q-40 0 -94.5 -18t-89 -35t-90.5 -48.5t-60 -33.5q-67 25 -145 76.5t-92 89.5q5 41 23.5 173t21.5 171q4 40 7.5 90t5.5 84t3 39q18 84 305 84v-51q10 3 442 110q42 -20 108 -103.5t87 -129.5l-16 -43q-42 -11 -106 -24.5t-146.5 -28.5t-144 -26t-150.5 -26.5
t-115 -19.5z" />
    <glyph glyph-name="six" unicode="6" horiz-adv-x="1134" 
d="M-31 492q0 136 41 278t112 261t160 214t192.5 149t201.5 54q83 0 191 -40.5t193 -102.5t105 -119l-3 -6t-8.5 -15.5t-13 -22t-17 -26t-19.5 -26.5t-21 -23.5t-21.5 -18t-21.5 -9.5t-20 3q-41 22 -108 83t-99 75q-120 -19 -229 -142t-156 -261q70 63 129 96t123 33
q88 0 173.5 -37t144.5 -91.5t95.5 -117.5t36.5 -115q0 -111 -42 -220t-115 -196.5t-183 -141.5t-235 -54q-140 0 -254.5 48.5t-185 127t-108.5 172.5t-38 191zM365 354q-7 -99 16 -156t63 -57q69 0 140 89.5t115.5 209t50.5 219.5q3 72 -45 72q-47 0 -92.5 -30.5t-73 -66.5
t-51.5 -66.5t-33 -30.5q-47 0 -60 10q-22 -62 -30 -193z" />
    <glyph glyph-name="seven" unicode="7" horiz-adv-x="1179" 
d="M262 465q-38 -6 -86 35.5t-71 90t-1 60.5q46 27 418 88q72 108 146 215t112 160l39 53q-82 -20 -254 -41.5t-246 -21.5q39 -139 41 -191q0 -14 0.5 -26t-8.5 -20.5t-28 -8.5q-25 3 -62.5 9.5t-107.5 25t-86 35.5q-97 267 -105 289q-19 46 -24.5 74.5t3.5 51.5t42 32.5
t92 8.5q198 -2 529.5 29.5t463.5 83.5q38 -10 69.5 -41t49.5 -70t28 -74t13 -63l-103 -32l64 -84q-108 -133 -252 -345q43 5 80 3.5t49 -17.5q10 -15 39 -17t47 -14q11 -7 45.5 -67t34.5 -70q0 -31 -47 -31q-153 -3 -408 -34q-207 -342 -377 -705q-21 -14 -100.5 5.5
t-154 59.5t-80.5 74q87 181 286 504q-80 -13 -90 -14z" />
    <glyph glyph-name="eight" unicode="8" horiz-adv-x="1196" 
d="M-53 387q3 83 110 189t334 253q-78 62 -126 104t-94.5 91.5t-67 92.5t-19.5 85q3 91 92 158.5t251.5 103t381.5 35.5q21 -3 26 -20t1.5 -31.5t5.5 -22.5q30 11 59 11q63 0 145.5 -52t141.5 -127t57 -133q-2 -47 -31.5 -97t-85 -102t-111 -95t-134.5 -97
q80 -60 132 -104.5t100 -98.5t70 -108t21 -111q-4 -101 -89 -176.5t-228 -114t-324 -38.5q-137 0 -258.5 41.5t-198.5 103.5t-120 131.5t-41 128.5zM319 264q0 -36 20 -56t56 -20q60 0 157 31.5t176.5 82.5t80.5 97q0 65 -135 193q-188 -131 -271 -205t-84 -123zM457 1112
q-2 -26 26 -59.5t109 -98.5q151 95 227 157t76 101q1 27 -23 47.5t-57 20.5q-67 0 -152 -26t-145.5 -66.5t-60.5 -75.5z" />
    <glyph glyph-name="nine" unicode="9" horiz-adv-x="1146" 
d="M-31 217q1 2 3.5 5.5l10 14t14.5 20t17.5 24t20 24.5t21 22.5t20 17.5t18.5 9.5t15 -0.5q27 -16 114.5 -75t134.5 -82q122 24 235 135t165 248q-161 -134 -309 -134q-104 0 -207 58t-165.5 143.5t-62.5 165.5q0 78 21.5 162.5t69 169.5t113.5 152.5t164.5 110t213.5 42.5
q110 0 217.5 -49t187 -126.5t128.5 -178.5t49 -201q0 -182 -58.5 -359t-153.5 -309t-220.5 -213.5t-253.5 -81.5q-79 0 -167.5 27.5t-160 69.5t-125 92.5t-70.5 95.5zM428 647q40 0 78.5 22t66 53.5t50.5 63.5t39.5 54t25.5 22q23 0 62 -26q10 63 18 159q6 96 -5.5 174
t-47.5 78q-67 0 -129 -54t-103.5 -135t-68 -171t-31.5 -168q-3 -37 7.5 -54.5t37.5 -17.5z" />
    <glyph glyph-name="colon" unicode=":" horiz-adv-x="765" 
d="M467 672q-52 16 -80.5 40.5t-28.5 69.5q0 31 16.5 66t49.5 70t94.5 58t140.5 23q51 0 99.5 -38.5t48.5 -110.5q0 -23 -6 -54t-21.5 -70t-39 -70.5t-64 -53.5t-90.5 -22q-73 0 -105 20t-14 72zM236 152q0 31 16.5 66t49.5 70t94.5 58t140.5 23q52 0 99.5 -39t47.5 -111
q0 -23 -6 -54t-21.5 -70t-39 -70.5t-64 -53.5t-90.5 -22q-81 0 -154 69t-73 134z" />
    <glyph glyph-name="semicolon" unicode=";" horiz-adv-x="765" 
d="M463 668q-51 16 -80 40.5t-29 69.5q0 31 16.5 66t49.5 70t94.5 58t140.5 23q52 0 100 -38.5t48 -110.5q0 -31 -10.5 -72t-33 -88t-68.5 -79t-107 -32q-74 0 -106.5 20.5t-14.5 72.5zM236 92q0 29 12 61t38.5 66t80.5 56t127 22q71 0 124.5 -58.5t53.5 -152.5
q0 -151 -72 -279t-190 -192q-98 -51 -175.5 -20.5t-74.5 114.5q93 47 161.5 111.5t69.5 126.5q-48 -9 -101.5 32t-53.5 113z" />
    <glyph glyph-name="less" unicode="&#x3c;" horiz-adv-x="966" 
d="M125 485l20 144q150 135 348 259t252 124q42 0 80 -57t55 -119.5t7 -83.5q-75 -33 -202.5 -117.5t-201.5 -153.5q36 -46 82 -91t121.5 -111.5t93.5 -83.5q41 -33 -8 -89l-57 -69q-9 -14 -38.5 -9.5t-58.5 29.5q-28 24 -136.5 113t-202.5 170.5t-154 144.5z" />
    <glyph glyph-name="equal" unicode="=" horiz-adv-x="1400" 
d="M442 631q-38 -6 -85 46.5t-62 103.5t6 65q85 25 314.5 58.5t289.5 33.5q28 0 52.5 -5.5t39 -10.5t33 -21t24 -21.5t24.5 -28t22 -26.5q13 -15 21 -32.5t8.5 -35.5t-17 -30.5t-53.5 -13.5q-60 -1 -126 -6.5t-141.5 -17t-121 -18.5t-128.5 -22t-100 -18zM266 479
q151 41 336 68.5t316 27.5q23 0 67 -66q56 -86 56 -139q0 -34 -31 -34q-223 2 -600 -72q-38 -7 -86.5 45.5t-64 103.5t6.5 66z" />
    <glyph glyph-name="greater" unicode="&#x3e;" horiz-adv-x="878" 
d="M815 569l-24 -149q-133 -117 -329.5 -255.5t-256.5 -133.5q-32 0 -58.5 25.5t-40.5 61t-24 73.5t-9 64t3 32q224 124 379 284q-35 47 -116 124t-163 145q-42 31 2 94l43 59q18 23 49.5 20t65.5 -30q66 -50 225.5 -187t253.5 -227z" />
    <glyph glyph-name="question" unicode="?" horiz-adv-x="1253" 
d="M344 807l-188 192q42 142 161 257t285 179t344 64q93 0 183.5 -36t154.5 -92t103.5 -126t39.5 -135q0 -58 -34.5 -117.5t-88.5 -110t-127 -107.5t-142 -105.5t-142 -110t-119 -115.5q-29 -22 -140 54t-138 127q41 62 121.5 130t163.5 123.5t161.5 110t128 107t49.5 96.5
q0 33 -22.5 52.5t-61.5 19.5q-119 0 -257 -70t-212 -166l27 -29q0 -23 -91 -96t-159 -96zM373 51q0 25 9.5 57.5t33.5 70.5t57.5 69.5t87.5 52.5t119 21q23 0 48.5 -7.5t51.5 -23.5t43 -46t17 -69q0 -24 -7 -56.5t-24.5 -72t-43.5 -72.5t-68.5 -55t-94.5 -22q-87 0 -158 45
t-71 108z" />
    <glyph glyph-name="at" unicode="@" horiz-adv-x="1984" 
d="M1188 246h-14q-40 -62 -114 -109t-167 -47q-161 0 -275 106t-114 279q0 174 63 322t173 235.5t241 87.5q79 0 162 -26.5t140.5 -74t57.5 -101.5q0 -22 -4 -43.5t-8 -32.5l-4 -11q0 -2 20.5 -10t43.5 -19.5t37.5 -36t5.5 -54.5q-8 -30 -30 -111t-36 -137.5t-18 -89.5
q-9 -68 23 -117t95 -49q67 0 130 71t103 196t40 269q0 254 -161.5 412t-434.5 158q-184 0 -335.5 -54t-254.5 -146.5t-173 -218.5t-102 -267t-32 -295q0 -227 144 -371.5t388 -144.5q79 0 151.5 17.5t119 42.5t81.5 50t50 42l16 18q70 -40 68 -112q-2 -77 -87 -136
q-107 -74 -292 -74q-186 0 -343 62t-261 165.5t-162 238t-58 280.5q0 156 40 304t123.5 280.5t202.5 232t288 157.5t368 58q198 0 358.5 -59t265 -161.5t160.5 -238.5t56 -293q0 -76 -13 -157.5t-45 -167.5t-79 -153t-121 -110t-164 -43q-79 0 -140.5 21t-95.5 53.5
t-51.5 60t-25.5 52.5zM842 422q-4 -78 7.5 -113t41.5 -35q31 0 63.5 46.5t55 109.5t37 119.5t16.5 83.5q-52 8 -70 35q29 42 51 109t25 116q0 57 -29 57q-50 0 -96.5 -98t-71 -216t-30.5 -214z" />
    <glyph glyph-name="A" unicode="A" horiz-adv-x="1218" 
d="M782 238l29 6q-2 59 -2 184q-180 -11 -406 -39q-106 -249 -174 -555q-4 -17 -40.5 -19t-86.5 9t-99.5 27.5t-86 38t-39.5 38.5q22 172 148 463q-33 46 -47 105.5t8 72.5q36 19 147 41q108 201 233 373.5t273.5 312.5t286.5 195q68 18 166.5 -20t140.5 -78
q-56 -250 -76 -560.5t-12 -532.5t29 -361q-13 -34 -86.5 -23.5t-162 45t-104.5 57.5q-25 36 -34 101t-5 119zM885 1141q-192 -188 -346 -469q25 3 104 8q14 1 62.5 4t66.5 3t53 -3q20 202 74 455z" />
    <glyph glyph-name="B" unicode="B" horiz-adv-x="1427" 
d="M164 -139q0 8 4 24q-81 15 -119 35q-42 25 -53.5 65.5t3 83.5t48.5 89q5 -1 26 -9t59.5 -21.5t76.5 -25.5q64 326 139 640t111 395q29 57 96.5 72t131.5 0t112 -44q-28 -85 -99 -409h68q133 44 204.5 119.5t71.5 181.5q0 111 -89 184.5t-250 73.5q-77 0 -140 -13.5
t-109.5 -38.5t-75.5 -48t-61 -56q-3 -3 1.5 -15.5t1.5 -15.5q-14 -14 -85 -46.5t-92 -32.5q-60 0 -108.5 51t-40.5 86q4 6 12.5 16.5t41 40.5t71 57t104 60.5t139.5 57.5t178.5 40.5t219.5 16.5q289 0 458 -115.5t169 -286.5q0 -104 -80 -198t-217 -166q152 -47 240.5 -140
t88.5 -221q0 -79 -34 -149.5t-94.5 -124t-141 -96t-174.5 -70t-195.5 -41.5t-203.5 -14h-56q0 -2 -1 -7.5t-1 -7.5q-11 -49 -32 -60.5t-64 -8.5q-65 3 -152.5 39t-107.5 53zM662 565q-23 -107 -59.5 -293t-43.5 -223q68 2 129 11t124 31t108.5 55t74.5 86t29 120
q0 104 -104 163t-258 50z" />
    <glyph glyph-name="C" unicode="C" horiz-adv-x="1200" 
d="M31 496q0 127 32.5 262t97.5 261.5t153.5 227t210 161t257.5 60.5q70 0 144.5 -25t136.5 -68t101.5 -108t39.5 -139q0 -77 -24.5 -143.5t-64 -109t-86 -67t-91.5 -24.5q-130 0 -182 119q6 6 15 17.5t33 47t42 70t33 81t16 87.5q0 32 -18 50t-46 18q-58 0 -133.5 -76.5
t-141.5 -195t-111.5 -277.5t-45.5 -307q0 -291 189 -291q50 0 93 21t74.5 58.5t57 82.5t42.5 99t28 101.5t18 96.5q66 28 162 28q72 0 118 -48t46 -140q0 -61 -21 -130.5t-67.5 -142t-111 -130.5t-162 -95t-210.5 -37q-289 0 -456.5 163t-167.5 442z" />
    <glyph glyph-name="D" unicode="D" horiz-adv-x="1527" 
d="M285 174q30 -78 113.5 -136t207.5 -58q110 0 215 64.5t185.5 174.5t130 267.5t49.5 332.5q0 132 -54.5 227t-150.5 140q-58 -229 -126 -547t-93 -459q-11 -53 -36.5 -74.5t-66.5 -21.5q-83 0 -166 32.5t-102 51.5q37 219 113 518.5t145 517.5q-80 -24 -139.5 -77
t-89 -110t-45.5 -124q0 -2 -10 -2q-22 0 -75 7.5t-115.5 29t-68.5 51.5q1 9 4.5 24t21 59.5t42.5 85t74 90t110 85.5t156 62t207 28q21 80 96 80q67 0 139 -20.5t99 -40.5l-21 -56q246 -67 387.5 -240t141.5 -417q0 -215 -72 -394t-193 -296t-277.5 -181.5t-328.5 -64.5
q-128 0 -251 28t-220 75t-172.5 107t-118 128t-47.5 133q19 31 70 64.5t101.5 48.5t84.5 -2q52 -33 105.5 -77.5t56.5 -68.5q1 -9 -9 -23.5t-7 -21.5z" />
    <glyph glyph-name="E" unicode="E" horiz-adv-x="1148" 
d="M227 1077q-33 -6 -90 60q-55 63 -58 102q-1 17 11 21q133 36 336 77q39 99 88 176q68 -7 158 -29t123 -44q-16 -37 -17 -41q151 23 256 37q14 1 77 14.5t103 11t72 -27.5q9 -7 37.5 -86.5t28.5 -92.5q0 -10 -80.5 -63.5t-108.5 -65.5q-56 -22 -104 -23t-49 17
q-2 13 -1.5 26t1.5 22l2 10q-175 -12 -322 -31q-45 -143 -86 -320l82 7q37 2 100 8.5t91.5 6t40.5 -10.5q30 -23 64 -86.5t34 -79.5q0 -43 -43 -43q-158 -2 -416 -33q-16 -93 -51 -352q508 108 698 100q22 -1 64 -68q56 -90 56 -145q-1 -35 -32 -35q-272 -5 -813 -92
q-8 -59 -10 -98q-1 -17 -35.5 -18t-83 11t-96 27.5t-82.5 30.5l-16 -4q-49 -7 -107 62q-47 57 -49 98q-1 21 14 24l142 31q25 210 57 377q-4 -2 -10 -2q-38 -6 -82 35.5t-58 84t3 60.5q42 23 194 53q44 194 82 320z" />
    <glyph glyph-name="F" unicode="F" horiz-adv-x="1193" 
d="M170 1047q-38 -6 -86.5 46t-64.5 102.5t4 64.5q169 45 509 104q21 46 60 106q49 -4 116 -23t115 -40q196 25 295 31q4 0 53 11.5t94.5 9t92.5 -26.5q15 -12 45 -42.5t67 -80.5t37 -80q0 -55 -65 -55q-321 -4 -666 -41q-46 -139 -102 -363q144 19 190 21q49 6 107.5 4.5
t70.5 -19.5q9 -15 39 -16.5t47 -14.5q9 -8 44.5 -77.5t35.5 -81.5q0 -15 -10.5 -29t-36.5 -14q-196 -3 -549 -33q-60 -278 -120 -676q-3 -17 -36 -17.5t-79.5 10.5t-93.5 25.5t-82 29t-41 20.5q56 327 108 569q-3 0 -10 -1t-10 -1q-38 -6 -83 35.5t-65.5 90t0.5 60.5
q31 16 224 58q60 237 104 377q-100 -14 -258 -43z" />
    <glyph glyph-name="G" unicode="G" horiz-adv-x="1267" 
d="M541 618q0 47 107 65.5t192 -1.5q81 22 186.5 34.5t171.5 12.5q52 0 74.5 -4.5t38.5 -17.5q31 -24 64.5 -75t33.5 -65q0 -43 -45 -43q-119 -3 -227 -18q67 -74 67 -172q0 -48 -22.5 -105t-71 -117t-115.5 -109t-166 -80.5t-211 -31.5q-287 0 -452.5 159t-165.5 423
q0 90 22 197t63 218.5t105.5 215t143 185t182 130.5t215.5 49q188 0 316.5 -97t128.5 -243q0 -138 -73.5 -225.5t-197.5 -87.5q-56 0 -100.5 24.5t-63 48.5t-18.5 36q0 5 24.5 27.5t53.5 52.5t53.5 86t24.5 120q0 34 -20.5 51t-47.5 17q-45 0 -105 -51t-120 -140t-112 -197
t-84 -235.5t-32 -242.5q0 -145 60 -233.5t166 -88.5q112 0 187 63.5t75 180.5q0 61 -33 106q-53 -12 -121 -20q-44 -5 -97.5 78t-53.5 120z" />
    <glyph glyph-name="H" unicode="H" horiz-adv-x="1361" 
d="M705 1169l-41 -10q-61 -187 -103 -342q355 49 387 29q22 -18 37 -35q85 397 168 627q19 45 42 67t65 23q46 0 141 -26.5t125 -45.5q-117 -386 -216.5 -852t-99.5 -670q0 -61 -177 -6q-108 34 -159 64q-4 2 -6 4q-38 42 -46 145.5t18 132.5q5 7 17.5 4t20.5 -6.5t11 7.5
q11 80 55 321q-175 -11 -444 -51q-82 -398 -97 -713q-2 -46 -122 -24q-108 19 -187 64q-31 17 -39 30q5 220 78 583l-98 -16q-37 -6 -81 46.5t-65 111.5t-2 71q27 15 308 62q120 473 227 709q30 17 159 -15.5t167 -58.5q2 -38 -12 -118.5t-31 -111.5z" />
    <glyph glyph-name="I" unicode="I" horiz-adv-x="1122" 
d="M319 285q38 214 98.5 457t117.5 421q-135 -25 -304 -51q-38 -6 -83 48.5t-58.5 106t6.5 66.5q228 61 477 91.5t437 39.5q99 5 161 -3.5t103 -41.5q9 -8 37 -59.5t28 -63.5q0 -10 -55 -39.5t-86 -39.5q-34 -8 -48 -2t-35.5 17.5t-39.5 12.5q-89 -6 -174 -18
q-55 -178 -119.5 -459t-99.5 -481q258 46 389 41q22 -1 69 -69q60 -89 64 -145q2 -38 -30 -38q-206 -3 -463 -31.5t-643 -91.5q-36 -6 -78.5 38t-55 88t8.5 60q25 10 64.5 32t65 31.5t44.5 2.5q12 -4 21.5 -10.5t14 -10t7.5 -2.5q44 8 124 25t117 24q-79 25 -82 54z" />
    <glyph glyph-name="J" unicode="J" horiz-adv-x="1265" 
d="M-31 285q0 145 64 225q63 57 162.5 34.5t148.5 -106.5q45 -82 35 -96q-5 -8 -35 -9t-37 -11q-9 -15 -12.5 -51t0.5 -70q9 -70 48 -117t91 -47q40 0 77.5 14t77.5 49t73 89.5t62.5 141.5t49 198.5t29.5 267.5t6 342q-196 -35 -367 -68q-31 -6 -75.5 46t-74.5 111.5
t-30 80.5q0 30 62 39q229 49 664.5 90.5t473.5 13.5q4 -3 57.5 -74.5t67.5 -85.5l-33 -51q-25 -3 -107 -9t-128 -13q-187 -28 -232 -35q36 -12 66 -29t41 -31q7 -219 -2 -397t-31.5 -311t-60.5 -233t-84.5 -165.5t-109 -106t-130.5 -57t-151 -16.5q-178 0 -329 60.5
t-239 163.5t-88 223z" />
    <glyph glyph-name="K" unicode="K" horiz-adv-x="1280" 
d="M10 -8q43 339 131.5 758.5t173.5 631.5q24 56 47.5 77t79.5 22q82 1 155 -24t110 -52q-95 -303 -132 -434q99 70 196 132t210 124.5t216.5 99.5t176.5 37q79 0 120.5 -47t31.5 -100q-227 -115 -483 -259t-373 -239q58 -67 177.5 -173.5t238.5 -212.5t176 -171
q29 -27 42.5 -47.5t10 -37t-9 -24.5t-21.5 -24q-15 -18 -89.5 -76.5t-92.5 -67.5q-50 -22 -101 21q-94 79 -197 179.5t-205 204.5t-155 154q-33 -170 -41 -219q6 -1 15 -3t20 -15t4 -33l-90 -258q-23 -25 -97.5 -9.5t-152.5 44.5t-92 41z" />
    <glyph glyph-name="L" unicode="L" horiz-adv-x="987" 
d="M-41 74l170 41q67 372 159 775t163 568q47 22 182.5 -15t181.5 -67q-73 -197 -166.5 -546.5t-146.5 -636.5q365 68 571 59q23 -1 79 -74q72 -92 76 -143q3 -31 -26 -31q-350 -7 -739 -63q-8 -74 -8 -103q-1 -17 -38.5 -17.5t-90.5 11.5t-105 28t-88 31l-18 -4
q-49 -7 -112 65q-52 58 -56 99q-2 20 12 23z" />
    <glyph glyph-name="M" unicode="M" horiz-adv-x="1748" 
d="M928 610h20q157 445 235 624q138 317 214 318q65 0 148.5 -22.5t105.5 -44.5q-29 -874 96 -1618q6 -33 -51 -43q-84 -15 -212 18q-68 18 -112 43q-41 26 -60 404.5t-9 709.5q-108 -246 -196.5 -515t-109.5 -474q-20 -30 -120 -30q-87 0 -148.5 39.5t-71.5 89.5
q-53 407 -26 839l-10 10q-65 -116 -138 -325.5t-121 -439.5q-2 -14 7.5 -18.5t21.5 -3.5t21 -5.5t6 -22.5q-8 -37 -52.5 -134.5t-72.5 -147.5q-24 -25 -94 -9.5t-143.5 44.5t-84.5 41q11 130 54 308.5t113 371t154 368.5t185.5 313t198.5 191q74 -9 163.5 -31t112.5 -49
q-34 -181 -40.5 -438.5t16.5 -360.5z" />
    <glyph glyph-name="N" unicode="N" horiz-adv-x="1333" 
d="M858 545h25q13 46 40 141q61 215 93.5 325.5t81 261t83 217t60.5 66.5q123 0 220 -22t108 -51q-181 -385 -295.5 -784.5t-169.5 -747.5q-6 -19 -76 -19q-69 0 -164.5 30.5t-118.5 70.5q-37 112 -77.5 292t-78 366.5t-50.5 242.5l-21 10q-48 -132 -91 -346t-54 -430
q-1 -13 2 -17t16.5 -8t24.5 -10q19 -10 0 -77.5t-52 -145.5t-34 -84q-6 -21 -57 -13t-114 30.5t-116 45.5t-63 31q31 277 95 592t155.5 596t179.5 381q65 -7 160.5 -36t131.5 -58q21 -197 70 -473t86 -377z" />
    <glyph glyph-name="O" unicode="O" horiz-adv-x="1325" 
d="M31 555q0 127 32 254t88 233t127.5 193t154.5 142t165 71q13 -2 23.5 -5.5t17 -6t14.5 -8.5t10.5 -8t11 -10t11.5 -11q82 35 172 35q120 0 211.5 -27.5t148.5 -73t92.5 -112t49.5 -137.5t14 -156q0 -64 -9 -143t-33 -180.5t-59.5 -198t-95 -190.5t-133.5 -164.5
t-179.5 -114t-229.5 -43.5q-126 0 -229.5 40t-172 105.5t-115 152.5t-67 178t-20.5 185zM432 489q-9 -160 27 -261t116 -101q73 0 136.5 79t104 190t71 243t44 226t17.5 151q5 93 -16.5 156t-75.5 63q-32 0 -60.5 -15t-51 -45.5t-39 -60t-32.5 -76t-24 -74.5t-20 -73
q-11 -28 -29 -19q-10 2 -35.5 15t-34.5 22l-8 -19q-8 -18 -21 -56t-27 -86t-26 -117.5t-16 -141.5z" />
    <glyph glyph-name="P" unicode="P" horiz-adv-x="1288" 
d="M160 -80q49 269 104 506q-101 13 -141 31q-45 20 -64.5 58.5t-14 75.5t25.5 69t47 42q7 -1 29.5 -13.5t66.5 -31t98 -32.5q97 406 138 491q21 51 46 71.5t85 20.5q49 0 123.5 -21t97.5 -50q-55 -141 -139 -531q160 27 260 130.5t100 254.5q0 142 -116.5 217.5
t-336.5 75.5q-268 0 -411 -174l-5 -2.5t-12 -4t-18 0.5q-41 7 -86.5 66.5t-48.5 109.5q3 4 9.5 11t31.5 27.5t57 38.5t89 40.5t123 39t163 27.5t207 11q208 0 373.5 -49t264.5 -147t99 -230q0 -114 -56 -220.5t-156.5 -191t-248.5 -143t-323 -76.5l-58 -279q-4 -12 5 -17
t20 -5.5t16.5 -9.5t-4.5 -29q-11 -23 -38.5 -110.5t-47.5 -110.5q-21 -25 -51 -25q-45 0 -166.5 37.5t-136.5 50.5z" />
    <glyph glyph-name="Q" unicode="Q" horiz-adv-x="1361" 
d="M53 578q0 174 75.5 367.5t201.5 335.5t258 167q76 -14 121 -47q82 33 172 33q100 0 181 -18t136.5 -52t95 -78.5t61.5 -101.5t32 -116t10 -128q0 -70 -12.5 -159t-39.5 -195.5t-78.5 -217t-119.5 -196.5q90 -97 139 -158q79 -87 17 -149q-122 -116 -154 -131
q-11 -9 -45.5 -6.5t-54.5 26.5q-177 210 -181 215q-101 -37 -211 -37q-159 0 -277.5 49.5t-188.5 139t-104 204t-34 253.5zM590 338q-34 56 -7.5 108t78.5 89t101 47q61 -79 137 -158q47 114 71.5 248t24.5 243q0 145 -32 234.5t-89 89.5q-43 0 -79.5 -19.5t-61 -51.5
t-40 -65t-23.5 -67q-2 -5 -7.5 -8t-11.5 -2q-44 15 -59 27l-13 -27q-13 -28 -34 -81.5t-42 -119.5t-38.5 -155.5t-22.5 -175.5q-11 -147 39 -249t133 -102q49 0 97 25q-61 81 -121 170z" />
    <glyph glyph-name="R" unicode="R" horiz-adv-x="1300" 
d="M49 -63q36 212 125 588t168 675q-131 -35 -192 -125q-21 -33 -46 -33q-39 0 -84 55t-47 93q3 7 10 18t38.5 41t74 55.5t122.5 51.5t177 37q7 26 13 39q18 52 47 73t90 21q47 0 124 -22t103 -48l-22 -63q283 -33 457.5 -153.5t174.5 -291.5q0 -147 -136 -262t-357 -176
q138 -116 266 -244l27 8q28 8 60 -13.5t57.5 -57.5t42.5 -66.5t24 -48.5q17 -40 0 -68q-16 -29 -116 -101t-136 -75q-74 63 -290.5 275.5t-309.5 290.5l-55 -263q-2 -15 7.5 -38.5t2.5 -57.5q-13 -67 -42 -128.5t-62 -61.5q-46 0 -174.5 32t-141.5 44zM694 1192
q-59 -233 -125 -526q201 11 304.5 76t103.5 182q0 95 -77.5 164.5t-205.5 103.5z" />
    <glyph glyph-name="S" unicode="S" horiz-adv-x="1204" 
d="M315 219q0 -60 39 -101.5t105 -41.5q123 0 197.5 77t74.5 218q0 97 -39 182t-98.5 143t-137 104t-147.5 71t-137 38q-24 5 -54 118.5t-30 139.5q-3 62 203.5 131t465 109t412.5 31q36 -3 80.5 -88t44.5 -113q0 -46 -54 -106t-120.5 -101t-105.5 -41q-16 0 -38 12.5
t-22 22.5q0 8 11.5 43t11.5 47q-4 9 -34 9t-86 -10.5t-115 -25t-120.5 -36t-103.5 -43.5q37 -14 77.5 -31t108 -52.5t126.5 -76t124 -100.5t111 -125.5t76 -153t30 -180.5q0 -103 -47 -184t-128.5 -131t-185 -75.5t-222.5 -25.5q-147 0 -271.5 40t-204 104t-123.5 141.5
t-44 154.5q0 106 55.5 185.5t142.5 79.5q89 0 168.5 -43.5t89.5 -81.5q-32 -35 -59 -103.5t-27 -130.5z" />
    <glyph glyph-name="T" unicode="T" horiz-adv-x="1112" 
d="M211 991q-37 -7 -86.5 61t-67 131.5t1.5 80.5q207 56 553 90q16 48 54 131q17 19 51.5 19t71 -11.5t77 -31t67.5 -35t44 -27.5l-6 -21l104 6q200 10 238 -20q16 -13 66.5 -84.5t50.5 -95.5q0 -51 -68 -51q-179 -3 -467 -35q-85 -331 -180 -926q6 -3 18 -5t20 -5t11 -10
q8 -20 -19 -87.5t-59 -125.5l-31 -58q-12 -21 -67 -16.5t-120 21.5t-119.5 36t-63.5 27q110 642 233 1100q-155 -26 -307 -58z" />
    <glyph glyph-name="U" unicode="U" horiz-adv-x="1327" 
d="M412 375q-17 -133 8.5 -187.5t91.5 -54.5q77 0 135 140q58 141 137 560q16 84 50 273q25 134 38 205q12 71 34.5 99t68.5 28q37 0 155 -29.5t140 -46.5q-25 -177 -97 -530t-83 -455q-16 -145 -2 -191.5t67 -46.5q92 0 152 215q1 -2 17 0.5t40.5 -4t48 -16.5t40.5 -37
t17 -66q0 -52 -18.5 -105t-54.5 -100t-98 -76.5t-140 -29.5q-101 0 -177.5 55.5t-102.5 133.5q-26 -43 -61.5 -82t-84 -77.5t-113 -61.5t-133.5 -23q-219 0 -337.5 149t-118.5 410q0 190 80.5 506.5t152.5 507.5q18 46 79.5 51.5t129 -17.5t121.5 -48.5t70 -39.5
q-69 -198 -151 -519t-101 -490z" />
    <glyph glyph-name="V" unicode="V" horiz-adv-x="976" 
d="M782 1219q5 9 -11.5 32t-2.5 45q35 61 100 126t117 65q83 0 150 -39.5t67 -65.5q-166 -252 -390.5 -778.5t-266.5 -769.5q-29 -29 -88 -29q-42 0 -94 14.5t-104.5 41t-90 72.5t-43.5 102q-29 293 -62 810.5t-12 629.5q3 20 23.5 37.5t48.5 17.5q51 0 122 -15.5t130 -46
t59 -63.5q-29 -445 17 -1006h22q2 5 29 89t53 159t63.5 179.5t80 207.5t83.5 185z" />
    <glyph glyph-name="W" unicode="W" horiz-adv-x="1687" 
d="M862 741h-22q-54 -127 -104 -387.5t-74 -478.5q-5 -7 -33.5 -8.5t-70.5 4t-88.5 15.5t-94.5 29t-82 42q-70 88 -106 288t-36.5 425t17 436t47.5 348q15 46 86.5 49.5t152.5 -29t126 -79.5q-4 -38 -17.5 -158.5t-18.5 -169.5t-15 -150.5t-13 -156t-5.5 -127.5t0.5 -123.5
t11 -89.5h15q41 231 118 478t174 433q21 34 78.5 34t117.5 -22.5t108.5 -50t54.5 -43.5q-18 -454 47 -841q28 192 95.5 441.5t156 449.5t155.5 206q112 4 196 -44t75 -101q-188 -326 -307.5 -686.5t-221.5 -851.5q-55 -7 -161.5 6.5t-206.5 58.5q-68 39 -154 854z" />
    <glyph glyph-name="X" unicode="X" horiz-adv-x="1236" 
d="M1327 -74l-143 -123q-72 -22 -97 21q-112 185 -393 588q-28 -29 -119 -122.5t-131 -133.5q3 0 8 -1t17.5 -4t22 -7.5t17.5 -13t7 -19.5q-2 -17 -82.5 -63t-160.5 -83l-80 -37q-24 -1 -86.5 54.5t-110.5 119t-33 80.5q42 44 217.5 231t290.5 308q-197 263 -289 352l-20 17
q-20 17 -35 30t-38 35.5t-36.5 41t-22 39t-3.5 34.5q6 26 58 90t73 67q61 10 112 -32q118 -105 394 -473q503 514 585 514q42 0 104.5 -52t103.5 -110.5t32 -77.5q-139 -126 -596 -586q212 -293 258 -354q2 -5 17 -1.5t18 1.5q28 -14 72.5 -92t68 -154t0.5 -84z" />
    <glyph glyph-name="Y" unicode="Y" horiz-adv-x="1245" 
d="M131 133q12 22 28.5 26t27 -2t18.5 3q126 180 268 409q-176 282 -319 465q-8 10 -26 5.5t-28 2.5q-35 35 -98 131t-53 113q33 63 127 114t137 15q99 -77 426 -581q73 116 130 201t122.5 173t117.5 143.5t103.5 90.5t91.5 35q49 0 111.5 -47.5t102 -101t34.5 -73.5
q-89 -61 -223 -230t-270.5 -375.5t-263 -407.5t-230 -364.5t-141.5 -207.5q-40 -2 -182 59t-138 87q11 58 48 148.5t79 168.5z" />
    <glyph glyph-name="Z" unicode="Z" horiz-adv-x="1097" 
d="M150 584q-26 -4 -50.5 9.5t-40.5 37t-26 48.5t-8.5 45.5t14.5 27.5q33 14 166.5 38t288.5 44q184 187 299 276q-149 -2 -361.5 -30t-306.5 -66q-22 -9 -42 27.5t-32 90t-19 99.5t-7 63q-1 36 161 73t368.5 61.5t385 39.5t225.5 13q34 -1 63 -97t29 -135
q-87 -63 -401 -377q82 5 86 5q39 1 56.5 -2t22 -7.5t17.5 -21.5q7 -11 12.5 -15.5t10 -4.5t14 -4t21.5 -13q10 -9 25 -28t30 -45t2.5 -43.5t-57.5 -16.5q-183 3 -457 -25q-281 -292 -315 -358q474 96 766 84q38 -5 66.5 -51.5t41.5 -105.5t19 -100t6 -54q0 -17 -104 -29
t-311 -29t-351 -37q-217 -26 -412 -82q-37 -2 -65.5 21t-43 60t-21.5 67t-9 55q0 58 102.5 198t261.5 312q-28 -3 -70 -10t-50 -8z" />
    <glyph glyph-name="bracketleft" unicode="[" horiz-adv-x="1040" 
d="M125 -297q9 281 104 733.5t205 780.5q-21 11 -22 43.5t11.5 66.5t32.5 61.5t36 30.5q330 62 579 62q27 0 75 -70q54 -79 53 -123q-2 -21 -21 -22q-110 0 -174 -5t-136.5 -17.5t-107.5 -16.5q-130 -480 -174 -681q-77 -352 -103 -661q27 4 69 10.5t65.5 9.5t61 6t77.5 3
q22 0 66 -62q56 -77 54 -124q-2 -29 -32 -29q-173 0 -469 -41q-12 -2 -46 -7.5t-51.5 -7.5t-46.5 -2t-46 5.5t-34 19.5t-26 37z" />
    <glyph glyph-name="backslash" unicode="\" horiz-adv-x="1271" 
d="M954 -324q-33 54 -131 303t-200 519t-218.5 530t-185.5 342q0 30 50 68.5t89 38.5q47 0 110 -95.5t134 -261.5t139.5 -340t151.5 -382t143 -337q2 -4 9.5 -3t14.5 5t16 -1.5t14 -22.5q36 -71 32 -248q-3 -28 -68 -72.5t-100 -42.5z" />
    <glyph glyph-name="bracketright" unicode="]" horiz-adv-x="1036" 
d="M-137 -178q137 16 413 39q212 784 277 1341q-38 -1 -73 -3t-57 -5t-62.5 -8t-71.5 -8q-21 -2 -66 56q-59 75 -58 122q0 29 28 33q61 9 151 18.5t238.5 23t173.5 15.5q107 9 149 -78q-2 -14 -26.5 -158.5t-47 -274t-56.5 -321t-64.5 -344.5t-62.5 -296t-58.5 -223.5
t-44.5 -82.5q-64 -6 -204.5 -19t-220.5 -22t-138 -20q-24 -4 -75 62q-59 75 -64 123q-1 27 20 30z" />
    <glyph glyph-name="asciicircum" unicode="^" horiz-adv-x="878" 
d="M176 956l-127 78q-27 24 -31.5 52t21.5 59q13 14 67.5 72.5t93 98t96.5 89.5t105 78l177 -29q60 -29 125 -78.5t118 -103t87 -91.5t57 -67q21 -35 3.5 -80t-57 -78t-59.5 -16q-64 56 -158.5 157t-140.5 138q-107 -96 -268 -279q-39 -44 -109 0z" />
    <glyph glyph-name="underscore" unicode="_" horiz-adv-x="1167" 
d="M96 -82q150 34 489 51t474 11q22 -1 68 -63q59 -80 56 -124q-3 -25 -30 -26q-640 -9 -909 -37q-48 -5 -109 65q-51 58 -53 100q-2 20 14 23z" />
    <glyph glyph-name="grave" unicode="`" 
d="M561 1225l-190 262q-10 15 -12.5 31t5 28.5t25.5 16.5q182 34 217 -21q23 -33 55.5 -90.5t60.5 -110.5t32 -59q12 -23 6.5 -46.5t-25.5 -27.5q-139 -29 -174 17z" />
    <glyph glyph-name="a" unicode="a" horiz-adv-x="1112" 
d="M741 94h-14q-44 -62 -116 -105.5t-160 -43.5q-194 0 -311 111t-117 309q0 135 35 263t98.5 232t164.5 167t222 63q171 0 280 -57.5t109 -135.5l-4 -33q6 -1 26.5 -3.5t39 -5.5t37.5 -8t28.5 -15t5.5 -23q-98 -305 -107 -537q-7 -147 54 -147q30 0 52 19.5t35.5 56.5
t21 77t12.5 95q8 1 20.5 2t45.5 -3t58 -15.5t45.5 -41.5t20.5 -75q0 -50 -21.5 -102t-62 -99t-109.5 -77t-153 -30q-53 0 -95 12.5t-67 30.5t-42 41.5t-23.5 42t-8.5 35.5zM385 295q-7 -82 3 -117t38 -35q42 0 92.5 111.5t81.5 223.5t35 153q-52 10 -70 39q53 78 66 178
q7 57 -25 57q-51 0 -102.5 -116t-81.5 -254t-37 -240z" />
    <glyph glyph-name="b" unicode="b" horiz-adv-x="1019" 
d="M39 358q0 171 67 453t142 489.5t102 212.5q48 9 115.5 -7t116.5 -46t49 -57q-33 -85 -93.5 -261t-82.5 -261q32 45 52.5 70t51 53t63.5 40.5t72 12.5q134 0 243.5 -119t109.5 -262q0 -40 -8 -95.5t-27 -127t-46.5 -142.5t-70.5 -140t-94.5 -121.5t-123 -85t-151.5 -32.5
q-237 0 -362 110.5t-125 315.5zM436 457l-37 18q-22 -74 -30 -201q-3 -53 20.5 -91t61.5 -38q44 0 83 43.5t66.5 114t48.5 144t34 150.5t18.5 114.5t7.5 54.5q2 20 1.5 39.5t-3 34.5t-11.5 24.5t-24 9.5q-47 0 -98 -81t-82 -176t-35 -154q0 -1 -9.5 -3.5t-11.5 -2.5z" />
    <glyph glyph-name="c" unicode="c" horiz-adv-x="905" 
d="M20 358q0 86 19 177t60.5 180.5t99 159.5t142 113.5t183.5 43.5q61 0 125.5 -18.5t120 -51t91.5 -84t36 -110.5q0 -136 -58.5 -217.5t-144.5 -81.5q-115 0 -141 90v12q8 14 20.5 37t35 86.5t26.5 116.5q0 41 -29 41q-32 0 -68 -41.5t-66 -110t-49.5 -168t-19.5 -204.5
q0 -240 164 -240q76 0 139 50t98 121t44 147q45 24 98 24q61 0 99 -41.5t38 -112.5q0 -41 -17.5 -89.5t-58.5 -101.5t-100 -95.5t-151 -70.5t-201 -28q-144 0 -264.5 55t-195.5 163t-75 249z" />
    <glyph glyph-name="d" unicode="d" horiz-adv-x="1159" 
d="M731 125h-8q-18 -37 -42 -71.5t-61 -72.5t-88.5 -60.5t-109.5 -22.5q-96 0 -173.5 38.5t-123.5 101t-70 135.5t-24 149q0 70 13 149t38.5 162.5t67.5 159.5t95.5 136t127 96t157.5 36q40 0 78.5 -9.5t65 -22.5t47.5 -26t31 -23l10 -9q12 58 26.5 138t28 162t17.5 103
q28 162 86 162q32 0 78.5 -7.5t95.5 -22t81 -40t27 -57.5q-12 -82 -113.5 -583t-101.5 -605q0 -86 53 -86q38 0 71.5 48.5t51.5 109t25 119.5q4 1 10 2t23.5 2t33.5 -0.5t35.5 -8.5t34 -20t24 -37t9.5 -57q0 -43 -20.5 -91t-60 -93.5t-90.5 -82t-117.5 -59t-135.5 -22.5
q-93 0 -148 56t-55 124zM358 223v-6q0 -22 0.5 -35t3 -34t9.5 -31.5t18 -10.5q40 0 101 110t104 230.5t45 163.5q-31 4 -47 35q3 7 12 30t14 37t12 35t10.5 39.5t4.5 34.5q9 62 -24 62q-57 0 -117 -113.5t-99 -266t-47 -280.5z" />
    <glyph glyph-name="e" unicode="e" horiz-adv-x="829" 
d="M-14 240q0 113 21.5 233.5t64.5 233.5t101 202.5t138.5 144t169.5 54.5q48 0 103.5 -18t109.5 -53.5t89.5 -98.5t35.5 -143q0 -125 -45 -235t-112 -171t-134 -61q-33 0 -63.5 9.5t-49 22t-34 27.5t-21.5 23.5t-8 13.5q-4 -9 -13 -34.5t-20.5 -88t-11.5 -125.5
q0 -143 121 -143q55 0 106 24t88 60.5t66.5 82.5t46.5 89t23 80q22 16 55 16q75 0 123.5 -30.5t48.5 -90.5q0 -52 -18.5 -108.5t-59.5 -113.5t-98.5 -102t-143 -73.5t-186.5 -28.5q-123 0 -234 46t-185 140t-74 216zM379 559q0 -2 1 -5t4.5 -10t8 -13t13 -10.5t18.5 -4.5
q48 0 84.5 107.5t38.5 220.5q2 84 -21 84q-13 0 -28 -33q-92 -197 -119 -336z" />
    <glyph glyph-name="f" unicode="f" horiz-adv-x="800" 
d="M154 717l-82 55q-31 18 -49.5 67t-18.5 85q0 3 -0.5 11.5t0 10t2 8t6.5 8t11.5 6.5t18.5 7t27 6t38 7.5t50 8t64 9.5q109 431 139 540q23 8 72 8q127 0 195.5 -37t68.5 -94q0 -45 -16.5 -110t-45.5 -155t-38 -124q107 13 240 39.5t176 26.5q41 0 77.5 -49.5t54 -101.5
t17.5 -79q0 -1 -0.5 -3t-3.5 -6.5t-8.5 -8.5t-17.5 -7.5t-29 -4.5q-117 -8 -557 -56l-2 -10q110 -104 161.5 -211.5t51.5 -251.5q0 -121 -41 -236t-104 -198t-136.5 -146.5t-140.5 -95.5t-115 -32q-112 0 -172.5 62t-60.5 165q0 92 14 184q21 147 83 399t71 304zM358 25
q-18 -101 -22 -146q-3 -74 24 -74q8 0 26 17.5t43 56t48.5 89t42.5 127.5t25 161q11 193 -76 324q-6 -37 -48.5 -231.5t-62.5 -323.5z" />
    <glyph glyph-name="g" unicode="g" horiz-adv-x="1056" 
d="M182 -150q29 -42 81.5 -85.5t86.5 -57.5q50 15 91 52.5t72 95.5t51 110t42 123q-108 -104 -194 -104q-348 0 -367 405q-8 186 49.5 342t176.5 251t276 95q165 0 282.5 -66t122.5 -159l-2 -29q11 0 30.5 -2t45.5 -7.5t43.5 -17.5t15.5 -28q-2 -10 -27 -167.5t-51.5 -285
t-66.5 -268.5q-76 -266 -202.5 -398t-315.5 -132q-113 0 -213.5 30t-145.5 68q-36 26 -49.5 60.5t-4 66t32 58.5t60.5 41t80 9zM401 330q-1 -79 21 -120.5t57 -41.5q42 0 87.5 75t77 179t38.5 194q-22 -2 -45 27q14 31 22.5 87t8.5 93q0 30 -13.5 52t-36.5 22q-43 0 -84 -62
t-69 -152t-45 -185.5t-19 -167.5z" />
    <glyph glyph-name="h" unicode="h" horiz-adv-x="1122" 
d="M664 618l-21 3q-41 -55 -121 -273.5t-90 -384.5q-45 -29 -113 -29q-114 0 -194 56t-80 153q0 98 38.5 408t102.5 624.5t119 354.5q18 13 66.5 8t100.5 -18t92 -34t40 -38q0 -36 -8 -77t-15.5 -65.5t-22 -65.5t-17.5 -50q-26 -76 -78.5 -354t-52.5 -338l14 -4
q19 55 56.5 146t87.5 200t100 185.5t80 76.5q68 0 132.5 -16t106 -39t67 -47.5t25.5 -41.5q0 -41 -38.5 -185.5t-77.5 -307t-39 -248.5q0 -55 21 -91t61 -36q56 0 100 77t55 171q7 1 19 1.5t42.5 -3t53.5 -12.5t42 -32.5t19 -58.5q0 -119 -128 -211t-308 -92
q-155 0 -227 80.5t-72 220.5q0 75 23 203.5t39 183.5z" />
    <glyph glyph-name="i" unicode="i" horiz-adv-x="598" 
d="M420 1112q-56 0 -107 40t-51 114q0 31 11.5 73t36 89.5t73.5 79.5t113 32q79 0 111.5 -19t13.5 -73q51 -19 80.5 -43.5t29.5 -69.5q0 -32 -16.5 -68t-50.5 -72t-98 -59.5t-146 -23.5zM14 211q0 121 72 384.5t127 391.5q9 27 55 27q26 0 76 -11t103.5 -29.5t86.5 -49.5
t21 -66q-147 -489 -156 -639q-3 -47 10 -72.5t33 -25.5q36 0 68.5 30.5t52.5 76t32.5 86t16.5 71.5h10.5t25 -2t36 -6.5t38 -14.5t35.5 -23.5t25.5 -36.5t10.5 -52q0 -54 -37.5 -113.5t-98.5 -108t-147 -80.5t-174 -32q-152 0 -237 74t-85 221z" />
    <glyph glyph-name="j" unicode="j" horiz-adv-x="540" 
d="M381 1149q-55 0 -107.5 38.5t-52.5 108.5q-1 29 10 69.5t35 86t73 76.5t114 31q78 0 130 -28.5t56 -84.5q42 -13 48.5 -23.5t6.5 -60.5q1 -31 -15 -65t-50 -68.5t-98.5 -57t-149.5 -22.5zM172 825q5 45 11.5 74t19 57.5t34 42t52.5 13.5q97 0 175 -30t118 -77
q-18 -95 -35.5 -210t-29 -206.5t-27 -195t-29.5 -184t-35.5 -164t-46.5 -145.5t-61 -118t-80 -91t-103.5 -55.5t-130.5 -20.5q-66 0 -144.5 9.5t-119.5 24.5q-56 19 -80.5 58t-18.5 76.5t33.5 68t65.5 37.5q123 -56 231 -80q99 109 201 1116z" />
    <glyph glyph-name="k" unicode="k" horiz-adv-x="1036" 
d="M39 16q-6 80 12 306q20 228 82.5 567t128.5 592q8 31 24 43t31 12q40 0 122 -20.5t130 -38.5q33 -12 37.5 -28.5t-6.5 -39.5q-35 -130 -93 -379t-67 -285q13 11 53 47.5t60.5 55t61.5 52.5t68 53t67 44.5t72.5 38.5t70 23t72.5 10q47 0 83 -13t53.5 -32t28.5 -41.5
t9.5 -41.5t-4.5 -32q-315 -142 -535 -338q345 -380 477 -553q40 -44 45 -68t-20 -44q-14 -12 -90.5 -50t-120.5 -57q-56 -28 -100 21q-53 63 -204.5 262.5t-203.5 247.5q-15 -112 -10 -367q1 -35 -12 -51t-33 -14q-21 3 -70 14.5t-96.5 23.5t-50.5 13q-44 10 -55.5 21.5
t-16.5 45.5z" />
    <glyph glyph-name="l" unicode="l" horiz-adv-x="501" 
d="M49 0q-5 8 -6.5 23t-0.5 36.5t2.5 38.5t4.5 45.5t4 40.5q23 248 104.5 662t161.5 667q7 19 48 19q37 0 107 -21.5t125 -50t50 -45.5q-195 -745 -250 -1345q-12 -108 -16 -166q-23 -25 -172 21.5t-162 74.5z" />
    <glyph glyph-name="m" unicode="m" horiz-adv-x="1544" 
d="M586 563h-15q-60 -141 -111.5 -311.5t-58.5 -284.5q-53 -33 -110 -33q-130 0 -199 70t-69 197q0 168 38 378t89 352t86 142q47 0 102.5 -17t90.5 -39.5t30 -37.5q-108 -388 -117 -520h8q29 73 105 276t110 277q5 11 35.5 16.5t58.5 5.5q114 0 196.5 -42t74.5 -87
q-5 -41 -31.5 -214t-34.5 -253h8q24 59 72 193t92 237.5t94 188.5q6 12 37.5 22.5t63.5 10.5q108 0 208 -48.5t91 -95.5q-14 -76 -57 -223t-74 -277t-31 -217q0 -135 72 -135q31 0 62.5 42.5t46.5 79.5t26 73q6 1 16.5 2t37 -1.5t47 -11t37 -31.5t16.5 -57q0 -43 -20.5 -91
t-60.5 -92.5t-109 -73.5t-155 -29q-180 0 -256.5 83.5t-66.5 219.5q3 52 24 159.5t41 186.5h-20q-63 -118 -121.5 -322.5t-66.5 -330.5q-49 -25 -119 -25q-128 0 -193.5 60.5t-60.5 164.5q16 286 41 463z" />
    <glyph glyph-name="n" unicode="n" horiz-adv-x="1017" 
d="M600 549h-22q-71 -132 -132 -309.5t-67 -294.5q-62 -37 -166 -37q-102 0 -142 69.5t-40 198.5q0 218 31 421.5t88 334.5t124 131q38 0 83 -12t76.5 -32.5t25.5 -41.5q-31 -113 -47 -174.5t-34 -158t-24 -177.5h8q11 26 48.5 115.5t55.5 130t50.5 112t63 129t63.5 111.5
q21 41 84 41q45 0 113.5 -19t123 -51t50.5 -63q-11 -78 -87.5 -349t-76.5 -391q0 -135 76 -135q21 0 44 24t42 62t30.5 66t20.5 53q1 -2 15.5 0.5t37.5 -3.5t45 -15.5t37.5 -34t15.5 -60.5q0 -35 -25.5 -82t-70 -93t-115 -77.5t-149.5 -31.5q-92 0 -158.5 26.5t-101 71
t-48.5 95.5t-11 108q6 110 65 342z" />
    <glyph glyph-name="o" unicode="o" horiz-adv-x="1003" 
d="M12 430q8 134 70 278.5t159 250t197 124.5q67 -23 82 -53q45 27 113 27q99 0 172 -23.5t114.5 -61t65.5 -94t31 -112.5t4 -127q-3 -53 -13 -112.5t-30.5 -131t-49 -138t-73 -130t-98.5 -110t-128.5 -75t-160.5 -28.5q-98 0 -178.5 32t-132 83.5t-86 120t-48 139
t-10.5 141.5zM346 369q-11 -109 12 -179.5t78 -70.5q58 0 108.5 74.5t81.5 181.5t49 192.5t23 137.5q0 2 2 26.5t2.5 34t0.5 32.5t-3.5 34.5t-9 25.5t-16 20.5t-25.5 6.5q-36 0 -76 -49.5t-70.5 -121.5t-52.5 -136t-32 -109q-3 -2 -12.5 -0.5t-22 6.5t-16.5 10
q-17 -50 -21 -116z" />
    <glyph glyph-name="p" unicode="p" horiz-adv-x="1030" 
d="M520 -68q-152 0 -225 86q-14 -70 -27 -161t-23.5 -174.5t-11.5 -92.5q-5 -20 -13 -33t-19 -18t-19.5 -6.5t-21.5 -1.5q-21 0 -108 26t-124 40q-21 7 -23.5 50.5t14 133t34 167t52 218.5t52.5 221q7 143 25.5 295t54 277.5t76.5 125.5q53 0 157 -40t101 -58l-16 -104
q118 159 241 159q110 0 194.5 -57.5t126 -147t40.5 -192.5q-1 -123 -40.5 -249t-107.5 -229.5t-170.5 -169t-218.5 -65.5zM414 379q-9 -107 11 -175.5t69 -68.5q45 0 85.5 50.5t67 122t48.5 157.5t32 147.5t14 100.5q0 2 2 25t2.5 33t1 32t-2.5 33.5t-8 25.5t-14.5 20.5
t-23.5 6.5q-34 0 -70.5 -48.5t-66 -120t-50 -134t-30.5 -107.5q-1 -6 -20.5 1t-26.5 14q-14 -58 -20 -115z" />
    <glyph glyph-name="q" unicode="q" horiz-adv-x="1028" 
d="M23 315q0 123 22.5 235.5t68.5 208.5t110.5 167t154 111t194.5 40q84 0 165 -23.5t136.5 -70t55.5 -104.5l-2 -29q11 0 32 -2t49.5 -7.5t46.5 -17.5t15 -28q-66 -289 -145 -498q-12 -53 -35 -150.5t-38.5 -167.5t-31.5 -153q-1 -7 9 -10l20 -6t10 -9q3 -35 -18.5 -111
t-44.5 -135l-23 -59q-223 21 -307 58q-17 7 -17.5 56t12.5 122t31 149.5t39 151.5q-95 -88 -196 -88q-313 0 -313 370zM381 295q-5 -83 7 -118.5t44 -35.5q44 0 97.5 108t86.5 219.5t35 152.5q-30 3 -53 32q22 34 36.5 85t16.5 87q4 70 -35 70q-56 0 -110.5 -113.5t-86 -249
t-38.5 -237.5z" />
    <glyph glyph-name="r" unicode="r" horiz-adv-x="847" 
d="M401 664l13 -7q23 51 45.5 119.5t43.5 142.5t29 97q15 45 65 60.5t132 -1.5q67 -13 90 -40.5t21 -61.5q-2 -27 -29.5 -84t-56 -126t-31.5 -124q-2 -20 10.5 -36.5t34.5 -16.5q46 0 85 44t59.5 88t21.5 44q13 0 25.5 -1.5t39 -9t42.5 -29t16 -54.5q0 -101 -77 -190
t-192 -89q-53 0 -93.5 16t-63.5 39.5t-37.5 57.5t-19 63t-5.5 62q-51 -103 -108 -302t-66 -366q-35 -14 -125.5 2t-166.5 46t-76 52q0 57 71 627q4 41 6.5 61t8 61.5t10.5 64.5t13 57.5t18 53.5t23 39t29.5 29t35.5 9q36 0 90 -17t90 -34l35 -17q-6 -43 -28 -158.5
t-28 -170.5z" />
    <glyph glyph-name="s" unicode="s" horiz-adv-x="880" 
d="M408 713l4 -8q10 -3 26.5 -9.5t64 -29.5t91 -50t96.5 -72t91.5 -94t64.5 -116.5t26 -140.5q0 -86 -32.5 -150t-90 -101t-128 -55t-154.5 -18q-126 0 -250.5 61.5t-200 150.5t-75.5 169q0 95 51.5 173.5t132.5 78.5q51 0 101 -22t75.5 -44.5t24.5 -32.5
q-2 -32 -49.5 -127.5t-47.5 -99.5q-1 -10 9 -29t40 -39t72 -20q76 0 119 55.5t43 147.5q0 64 -39 126t-98.5 105.5t-125 73t-122.5 37.5q-21 21 -50.5 110t-25.5 127q5 39 194.5 94t375 91.5t217.5 36.5q24 0 77.5 -79t53.5 -108q0 -37 -45.5 -83t-104.5 -76.5t-98 -30.5
q-15 0 -36 27.5t-36 27.5q-58 -1 -139.5 -22t-101.5 -35z" />
    <glyph glyph-name="t" unicode="t" horiz-adv-x="919" 
d="M139 758q-29 -4 -58 24.5t-44 67t-21 74t11 45.5q46 25 295 61q98 240 147 262q24 11 92 -9.5t123.5 -49.5t52.5 -39l-41 -121l66 4q49 6 92 5t53 -19q24 -35 107 -66q11 -4 37 -59t26 -66q0 -30 -47 -30q-159 -3 -414 -27q-127 -429 -127 -590q0 -42 17 -64t45 -22
q46 0 89.5 21t75.5 53t58 71t41 76t19 66q4 1 10.5 1.5t25 -0.5t35 -4.5t37 -14.5t35.5 -27t25 -44t10 -65q0 -102 -79.5 -183t-198.5 -122t-249 -41q-161 0 -262.5 98t-101.5 259q0 157 106 487q-20 -2 -49.5 -6.5t-38.5 -5.5z" />
    <glyph glyph-name="u" unicode="u" horiz-adv-x="1077" 
d="M659 244l-18 6q-19 -43 -45 -87t-64.5 -93.5t-88.5 -81t-101 -31.5q-68 0 -145 43.5t-130 113t-53 136.5q0 123 35.5 306t94 328.5t112.5 145.5q97 0 165.5 -26t82.5 -50q-184 -548 -150 -729l23 -10q82 83 180 346t143 451q7 28 84 28q43 0 99 -22t94 -50.5t35 -45.5
q-4 -26 -27.5 -162.5t-43 -265t-23.5 -187.5q-6 -60 11.5 -100.5t57.5 -40.5q24 0 46.5 21.5t38.5 52t29 61.5t19 53l6 21q156 0 156 -107q0 -44 -27.5 -95t-74.5 -95.5t-117.5 -73.5t-147.5 -29q-67 0 -116.5 17t-77 43.5t-43 64t-19 71.5t-0.5 73z" />
    <glyph glyph-name="v" unicode="v" horiz-adv-x="788" 
d="M397 406h15q27 140 84 324.5t127 333t116 148.5q13 0 43 -6.5t68 -19t66 -37.5t28 -55q0 -40 -20.5 -81t-53 -87.5t-45.5 -75.5q-95 -207 -181.5 -466t-111.5 -488q-41 -29 -102 -29q-125 0 -204 47.5t-97 122.5q-63 259 -63 581q0 60 4.5 176t9.5 202l4 85q9 58 76 58
q27 0 91 -17.5t122.5 -48t56.5 -59.5q-26 -114 -45 -371q-3 -49 -0.5 -98t7.5 -91t5 -48z" />
    <glyph glyph-name="w" unicode="w" horiz-adv-x="1243" 
d="M598 502h-12q-54 -109 -95 -248.5t-61 -267.5q-17 -17 -88 -21q-58 -2 -103 16.5t-74.5 57t-49.5 86.5t-30.5 115t-14.5 132t-4 146q0 64 8 150.5t25 183t50.5 162t77.5 65.5q51 0 112 -22t99 -48.5t33 -41.5q-30 -94 -50.5 -208.5t-23.5 -203.5q-4 -33 2 -84h15
q117 277 204 555q20 40 42 53t69 13q58 0 110.5 -21.5t78.5 -48t22 -43.5q-88 -334 -80 -578h17q16 56 33 113.5t57.5 173.5t79.5 204.5t91.5 170t100.5 106.5q18 5 65 -6t91.5 -39.5t44.5 -64.5q0 -35 -20 -71.5t-52 -81.5t-47 -77q-117 -208 -205 -452t-112 -477
q-40 -29 -103 -29q-127 0 -210.5 72.5t-86.5 152.5q-2 48 -4.5 216t-1.5 190z" />
    <glyph glyph-name="x" unicode="x" horiz-adv-x="931" 
d="M928 -51l-76 -66q-19 -21 -53 -19.5t-54 30.5q-39 56 -126 193t-117 183q-101 -108 -150 -149l13 -39q-76 -62 -142 -98t-95 -42l-28 -5q-25 -1 -79.5 46t-92.5 101t-22 70q48 49 181.5 191.5t207.5 219.5q-136 172 -252 269q-18 14 -18.5 28.5t5 21.5t19.5 19l101 117
q8 11 44 2t66 -35q90 -78 215 -237q288 288 373 288q24 0 79 -49.5t96 -106.5t32 -75q-99 -45 -377 -344q50 -77 130 -208t103 -167q58 -102 17 -139z" />
    <glyph glyph-name="y" unicode="y" horiz-adv-x="958" 
d="M14 287q1 180 44.5 362.5t111.5 321.5q47 78 143 78q78 0 146.5 -35.5t68.5 -71.5q-6 -18 -33.5 -102t-36.5 -113t-30 -101t-30 -114.5t-18.5 -101.5t-12.5 -111q-8 -92 30 -92q37 0 88.5 92t69.5 164q2 8 36 169.5t69 283.5t59 122q97 0 195 -33t98 -67
q0 -86 -29.5 -198t-66 -215.5t-42.5 -137.5q-35 -160 -80 -409t-63 -386q-6 -26 -13 -42t-17 -23t-18.5 -8.5t-23.5 -1.5q-22 0 -105.5 25.5t-133.5 43.5q-20 7 -25.5 17t-5.5 35q0 42 48 228.5t59 254.5q-37 -54 -96.5 -91.5t-131.5 -37.5q-59 0 -105.5 19.5t-73.5 49.5
t-44.5 70.5t-24 78t-6.5 77.5z" />
    <glyph glyph-name="z" unicode="z" horiz-adv-x="872" 
d="M-35 131q2 136 535 567q-61 -6 -212.5 -47t-199.5 -49q-14 -3 -47 94.5t-33 128.5q0 46 197 92.5t395 71.5t266 25q32 0 66.5 -84.5t34.5 -116.5q-132 -102 -525 -518q86 18 222.5 39t181.5 18q37 -4 66 -70t40 -122.5t11 -73.5t-91.5 -30t-224 -23t-164.5 -15
q-242 -38 -428 -98q-19 -2 -34 4t-24.5 16.5t-16.5 28t-10 33t-4.5 37.5t-1.5 35.5t0.5 33t0.5 23.5z" />
    <glyph glyph-name="braceleft" unicode="{" horiz-adv-x="1040" 
d="M651 508v-12q215 -25 215 -166q0 -58 -52 -177.5t-52 -160.5q0 -148 233 -94q18 4 55 -44.5t51.5 -94t-11.5 -60.5q-39 -10 -93.5 -18t-123.5 -10.5t-138 2.5t-135.5 23.5t-117.5 48.5t-82 82.5t-31 121.5q0 65 32.5 140.5t64.5 141t32 105.5q0 23 -9 41.5t-20 29.5
t-33 19t-34 11.5t-38.5 5t-31 1.5h-25.5q-24 0 -52.5 32t-46.5 73.5t-23.5 81.5t16.5 57q1 1 23.5 -0.5t60.5 2t82 7t89.5 16t82.5 28.5t60.5 44.5t23.5 64.5q0 64 -34 190.5t-34 192.5q0 43 10 79t31 62t45.5 46.5t61.5 33.5t71.5 22t81.5 12.5t86 5t91.5 -0.5t90.5 -5
t90 -7q26 -2 65 -75q47 -86 44 -134q-3 -27 -25 -25q-32 4 -75.5 9.5t-69.5 9t-60.5 7t-55 3t-44.5 -3.5t-37.5 -11.5t-26 -22t-17.5 -34.5t-5 -49q0 -57 33 -189.5t33 -209.5q0 -58 -31 -105t-81 -75.5t-103 -45t-107 -22.5z" />
    <glyph glyph-name="bar" unicode="|" horiz-adv-x="866" 
d="M354 4q-2 22 5.5 27t15.5 0t10 4q11 155 12 417.5t-0.5 458t14.5 363t54 203.5q26 21 68 3.5t55 -48.5q-21 -114 -27 -496.5t-6 -765t-6 -453.5q-22 -11 -68.5 1t-60.5 38q-74 173 -66 248z" />
    <glyph glyph-name="braceright" unicode="}" horiz-adv-x="1040" 
d="M694 612v9q-293 28 -293 182q0 51 23 110t50 105t50 104t23 107q0 56 -46.5 71.5t-174.5 2.5q-41 0 -77 62t-36 101q0 17 86.5 29t157.5 12q130 0 242.5 -31.5t187 -98.5t74.5 -158q0 -44 -19.5 -91t-46.5 -87t-54.5 -77.5t-47 -75.5t-19.5 -69q0 -131 234 -131h22
q48 -8 83.5 -98t35.5 -133q0 -8 -40.5 -11t-97.5 -8t-114.5 -16.5t-98 -43t-40.5 -81.5q0 -37 20.5 -133.5t20.5 -161.5q0 -125 -76.5 -210.5t-230 -120t-383.5 6.5q-34 6 -65.5 89t-31.5 114l13 17q179 -34 245 -34q130 2 161 96q11 34 11 81q0 44 -22.5 154.5t-22.5 171.5
q0 123 71.5 176t225.5 69z" />
    <glyph glyph-name="asciitilde" unicode="~" horiz-adv-x="1232" 
d="M229 436q-40 0 -68.5 62.5t-6.5 95.5q17 24 45 56t68.5 70.5t88.5 64.5t90 26q57 0 112.5 -23t91.5 -50.5t75 -50.5t68 -23q37 0 75.5 23t71 46t53.5 23q23 0 44 -27.5t26.5 -65t-12.5 -75.5q-13 -22 -42.5 -54t-71.5 -67t-98.5 -59.5t-109.5 -24.5q-51 0 -108 24.5
t-97 54.5t-80.5 54.5t-62.5 24.5q-25 0 -79 -52.5t-73 -52.5z" />
    <glyph glyph-name="uni00A0" unicode="&#xa0;" horiz-adv-x="0" 
 />
    <glyph glyph-name="exclamdown" unicode="&#xa1;" horiz-adv-x="854" 
d="M629 375q6 -204 -27.5 -464t-93.5 -411q-6 -11 -21 -19.5t-26 -8.5q-171 0 -234 34q-14 8 -2.5 44t0.5 44q-7 5 -21 13.5t-25 15t-22.5 17.5t-17 22.5t-4.5 28t12 35.5q6 14 61 152.5t83 212.5t66.5 197t56.5 214q10 10 35 10.5t55 -9t57.5 -26.5t47 -44t20.5 -58z
M803 913q0 -30 -16.5 -65t-50 -70t-96.5 -58.5t-144 -23.5q-53 0 -101.5 39t-48.5 111q0 24 5.5 54.5t21.5 69.5t40 70.5t65 53.5t93 22q83 0 157.5 -69t74.5 -134z" />
    <glyph glyph-name="cent" unicode="&#xa2;" horiz-adv-x="905" 
d="M332 -313q23 115 51 227q-162 45 -262.5 161t-100.5 283q0 88 21 177.5t70 180t119.5 160t179 113t239.5 43.5q5 0 15.5 -1t15.5 -1q33 109 65 197q103 16 111 -58l-45 -155q124 -30 203.5 -94.5t79.5 -153.5q0 -60 -28 -101t-82.5 -52.5t-133.5 22.5q-1 6 1 30t1.5 50
t-6 55t-25.5 53.5t-53 36.5q-108 -387 -190 -772q73 3 133.5 53.5t94 120t42.5 144.5q45 24 98 24q61 0 99 -41.5t38 -112.5q0 -41 -17.5 -89.5t-58.5 -101.5t-100 -95.5t-151 -70.5t-201 -28h-16q-10 -43 -11 -57q10 -20 0 -63q-5 -27 -20.5 -64.5t-34.5 -58.5
q-7 -8 -14.5 -12.5t-15 -6t-16.5 0t-16 3.5t-16.5 7.5t-15.5 9t-15 10.5t-12.5 10t-11 9.5t-8.5 7.5zM328 328q0 -138 106 -203q72 291 197 739q-89 -21 -158.5 -99t-107 -192t-37.5 -245z" />
    <glyph glyph-name="sterling" unicode="&#xa3;" horiz-adv-x="1439" 
d="M238 483q-38 -6 -79.5 24.5t-53.5 64t4 49.5q54 28 194 57q4 72 9 127t15 124.5t23.5 121.5t35.5 111t50 101.5t68 83t88.5 66t113 40.5t140.5 15t151.5 -16t142.5 -48.5t118 -76.5t81 -104t29 -127q-3 -133 -92 -222.5t-189 -89.5q-44 0 -78 12t-54.5 33t-30.5 37
t-19 37q6 6 16.5 15.5t37 40.5t47 61.5t37.5 73t18 80.5q2 38 -21.5 66t-68.5 28q-46 0 -86 -21t-71.5 -62.5t-57 -90t-47.5 -116t-37.5 -128t-32.5 -137.5q96 0 152 -31q12 -7 41.5 -53.5t29.5 -55.5q0 -26 -47 -26q-95 -2 -211 -10q-37 -196 -63 -273q77 3 300 50t310 73
q29 8 81.5 -59t85.5 -143t15 -89q-64 -42 -372.5 -75t-495.5 -31q-74 -76 -126 -111t-85.5 -33.5t-63.5 21.5q-44 30 -72.5 76.5t-33 97t36.5 97.5t127 71q33 97 43 283z" />
    <glyph glyph-name="currency" unicode="&#xa4;" horiz-adv-x="1443" 
d="M322 508q6 114 104 227q-64 61 -129 111q-17 11 -19.5 28.5t3.5 30.5t14 21l72 67q35 32 106 -24q48 -42 111 -115q32 14 67 20q9 0 29 1t32.5 0.5t20.5 -3.5q11 -4 62 -4q59 0 114 -10q158 115 213 115q32 0 93 -78t49 -102q-67 -26 -174 -101q2 -20 2 -63
q-13 -141 -93 -254q99 -103 129 -144q26 -38 -6 -67l-63 -62q-12 -12 -41 -9t-45 26l-107 137q-82 -45 -198 -45q-118 0 -199 43q-62 -46 -108 -78.5t-61 -41.5l-15 -9q-22 0 -62.5 40.5t-66.5 86.5t-11 61q18 16 45.5 36t67.5 48t66 47q-5 31 -2 64zM596 481q-3 -53 12 -87
t49 -34q38 0 70.5 37t51.5 89.5t29.5 96t12.5 68.5q6 86 -41 86q-68 0 -123 -72.5t-61 -183.5z" />
    <glyph glyph-name="yen" unicode="&#xa5;" horiz-adv-x="1566" 
d="M397 365q-38 -6 -81 26.5t-56.5 67t2.5 51.5q56 27 299 61q-163 260 -319 463q-7 10 -24.5 5.5t-29.5 2.5q-36 37 -98 132t-53 112q21 39 67.5 76.5t93.5 51.5t81 -9q98 -75 440 -586q80 128 133.5 210t121.5 176t118 147t103 89t97 36q49 0 109 -46t97 -97.5t32 -71.5
q-151 -105 -510 -641l43 4q49 6 92 4.5t55 -19.5q9 -15 38 -16.5t46 -13.5q12 -7 40 -46.5t28 -48.5q0 -30 -47 -30q-146 -3 -391 -27l-13 -82q50 4 70 4q118 3 193 -45q12 -7 38.5 -47t26.5 -49q0 -31 -47 -31q-136 -3 -307 -16l-58 -398q-41 -2 -198 56.5t-152 83.5
l31 219l-111 -14q-38 -6 -79.5 26t-53.5 66t4 51q50 27 267 55l12 78z" />
    <glyph glyph-name="brokenbar" unicode="&#xa6;" horiz-adv-x="866" 
d="M383 768q2 305 24 486t85 223q28 18 69 1.5t53 -46.5q-27 -68 -37 -225.5t-14 -418.5q-6 -19 -71 -25t-109 5zM344 4q-2 22 4.5 27t14 0t10.5 4q10 117 10 389q105 60 178 20v-108.5v-109.5v-100t-0.5 -98t-1 -85t-1.5 -79t-2 -62t-3 -52.5t-4 -32.5q-119 -5 -141 39
q-64 150 -64 248z" />
    <glyph glyph-name="section" unicode="&#xa7;" horiz-adv-x="1429" 
d="M1040 1161q-8 51 -51.5 86t-114.5 35q-131 0 -197.5 -57.5t-49.5 -173.5q9 -69 56 -133.5t113 -111.5t146.5 -85t154 -60.5t136.5 -33.5q22 -4 61 -101.5t43 -122.5q11 -54 -78 -127.5t-200 -121.5q132 -141 151 -289q11 -83 -25.5 -149t-109 -107t-169 -62.5
t-208.5 -21.5q-140 0 -263.5 33t-206.5 85t-133 115.5t-58 126.5q-11 89 32 154t126 65t160 -35.5t89 -68.5q-30 -30 -49.5 -76.5t-13.5 -95.5q6 -52 49 -85.5t115 -33.5q131 0 199 55.5t51 169.5q-10 78 -56.5 143.5t-108 108.5t-142.5 77t-146.5 51.5t-134.5 29.5
q-22 3 -71 109.5t-52 128.5q-11 54 87 120.5t218 104.5q-155 155 -180 313q-11 83 26.5 149t110 107t169 62.5t208.5 21.5q140 0 263.5 -32.5t207 -85t134.5 -116t61 -126.5q11 -89 -34 -154t-130 -65q-82 0 -159.5 35.5t-90.5 68.5q31 29 51 78t14 98zM418 551
q65 -20 193.5 -85t248.5 -149q128 43 174 111q-67 20 -197.5 83t-252.5 146q-127 -51 -166 -106z" />
    <glyph glyph-name="dieresis" unicode="&#xa8;" 
d="M229 1284q-43 14 -67.5 35.5t-24.5 60.5q0 28 14 60t42 63.5t81.5 52.5t122.5 21q46 0 88.5 -35t42.5 -100q0 -22 -4 -47t-17 -57.5t-34 -58t-59.5 -43t-89.5 -17.5q-42 0 -64.5 13t-30.5 52zM596 1358q0 28 12.5 58.5t39 62.5t78 52.5t120.5 20.5q47 0 94 -35t47 -98
q0 -21 -5 -49t-18.5 -63t-34 -63.5t-55.5 -48t-79 -19.5q-71 0 -135 62t-64 120z" />
    <glyph glyph-name="copyright" unicode="&#xa9;" horiz-adv-x="1845" 
d="M156 657q0 107 32.5 216t102 211.5t166.5 182t237 127.5t303 48q126 0 238 -41t164 -109q46 16 69 -2q220 -186 220 -526q0 -160 -61 -300t-168.5 -241.5t-262.5 -160t-334 -58.5q-168 0 -304 52.5t-222.5 142.5t-133 207.5t-46.5 250.5zM305 580q0 -208 135 -334.5
t353 -126.5q230 0 397 78t260.5 239t93.5 393q0 112 -29.5 202.5t-82.5 139.5q-58 -13 -84 23q-38 59 -114 97t-179 38q-155 0 -281 -40t-212.5 -109.5t-145 -165.5t-85 -204.5t-26.5 -229.5zM915 831v9q5 6 13 15.5t21.5 38.5t13.5 56q0 31 -27 31q-53 0 -99 -127t-51 -248
q-3 -74 17 -103.5t65 -29.5q62 0 117.5 64.5t71.5 126.5q41 18 82 18q46 0 76.5 -25t27.5 -75q-2 -34 -23 -76t-58 -83t-99 -68t-135 -27q-179 0 -284 88t-99 237q3 60 16.5 121t42.5 124.5t69.5 111.5t104 79t140.5 31q87 0 166 -58t75 -140q-4 -91 -39.5 -132.5
t-91.5 -41.5q-58 0 -85.5 25.5t-27.5 57.5z" />
    <glyph glyph-name="ordfeminine" unicode="&#xaa;" horiz-adv-x="1017" 
d="M655 717h-10q-82 -99 -194 -99q-144 0 -233 78t-89 199q0 69 14.5 136t44.5 127.5t72.5 106t103 72.5t130.5 27q126 0 215.5 -53t89.5 -115l-4 -27q4 -1 34.5 -4t51 -10t16.5 -20q-25 -74 -45.5 -169t-22.5 -128q-5 -39 2 -67t25 -28q34 0 49.5 41.5t22.5 118.5q3 0 9 1
t22 0.5t31 -2.5t33 -9t31 -18.5t22 -31.5t9 -46q0 -74 -66.5 -133.5t-187.5 -59.5q-50 0 -86 12.5t-54 32.5t-25.5 35.5t-10.5 32.5zM389 852q-14 -98 25 -98q38 0 89.5 126t59.5 179q-35 6 -47 24q35 42 49 111q7 35 -14 35q-34 0 -71 -72.5t-60 -157t-31 -147.5zM311 295
q-28 -4 -64 41t-47 86.5t5 52.5q118 26 305.5 41t273.5 12q18 -1 53 -62q48 -82 38 -119q-5 -17 -23 -17q-268 -3 -541 -35z" />
    <glyph glyph-name="guillemotleft" unicode="&#xab;" horiz-adv-x="1253" 
d="M125 485l29 144q368 311 446 311q31 0 65.5 -41.5t52 -88t9.5 -62.5q-21 -18 -86.5 -69.5t-121 -100t-99.5 -93.5q34 -41 77 -82t98.5 -90t84.5 -77q19 -20 17 -43.5t-17 -38.5l-45 -43q-40 -40 -94 4q-73 54 -196 164.5t-220 205.5zM625 457l28 118q44 37 104 88.5
t99.5 85.5t81 67.5t70 50t45.5 16.5q32 0 65 -42t49 -88.5t9 -62.5q-137 -112 -254 -248q15 -18 38 -46.5t32.5 -40t27 -31.5t35 -37.5t41.5 -40.5q19 -18 20 -47t-14 -43l-39 -47q-39 -45 -96 2q-61 46 -188.5 183.5t-153.5 162.5z" />
    <glyph glyph-name="logicalnot" unicode="&#xac;" horiz-adv-x="1062" 
d="M283 553q-38 -6 -86.5 57t-64 122t6.5 75q152 33 384 55.5t376 22.5q54 0 71.5 -85.5t4 -194t-38 -207t-45.5 -126.5q-10 -10 -53.5 -6t-90 32.5t-40.5 61.5q31 184 34 238q-271 -18 -458 -45z" />
    <glyph glyph-name="uni00AD" unicode="&#xad;" horiz-adv-x="1130" 
d="M283 403q-37 -6 -85 56.5t-64 121t5 74.5q158 38 403.5 61.5t356.5 18.5q21 -1 64 -75q57 -100 57 -161q0 -40 -31 -40q-363 -5 -706 -56z" />
    <glyph glyph-name="registered" unicode="&#xae;" horiz-adv-x="1372" 
d="M199 1083q0 63 21.5 127t67 124t110 106.5t157.5 75t201 28.5q83 0 156.5 -23.5t109.5 -64.5q30 10 49 -2q146 -106 146 -307q0 -192 -155.5 -320.5t-395.5 -128.5q-113 0 -203 31t-147 84t-87 122t-30 148zM328 1022q0 -112 84.5 -174t205.5 -62q139 0 247 46
t172.5 140.5t64.5 225.5q0 114 -74 174q-36 -7 -47 10q-21 30 -69 50t-105 20q-124 0 -217.5 -32.5t-150 -91.5t-84 -135.5t-27.5 -170.5zM526 922q12 89 76 323q-43 -13 -55 -37h-2q-9 0 -37.5 23t-28.5 29q3 6 10.5 16t44.5 29.5t91 25.5l12 37l2 6q2 6 7 8t16 2
q5 0 28.5 -6.5t50 -14.5t31.5 -9l-10 -27q77 -14 128.5 -50t51.5 -79q0 -45 -39 -76t-108 -43q47 -40 87 -80t33 -41q-7 -10 -45 -36.5t-59 -22.5l-60 60t-69 67q-8 -40 -12 -70q0 -1 1 -11.5t0.5 -18t-2.5 -16.5t-8 -14t-16 -5q-13 0 -65.5 13t-53.5 18zM739 1249
q-12 -41 -30 -116q79 16 79 67q0 38 -49 49z" />
    <glyph glyph-name="macron" unicode="&#xaf;" 
d="M236 1421q107 24 274.5 31.5t288.5 1.5q23 -1 62 -59q51 -73 45 -115q-4 -25 -34 -25q-138 4 -273 3.5t-237 -11.5q-48 -5 -100 59q-44 55 -43 93q1 19 17 22z" />
    <glyph glyph-name="degree" unicode="&#xb0;" horiz-adv-x="1038" 
d="M137 1151q0 71 27.5 141.5t79.5 132t138.5 100t192.5 38.5q170 0 267.5 -99t97.5 -260q0 -172 -121.5 -285.5t-314.5 -113.5q-87 0 -157.5 28t-115.5 75.5t-69.5 110t-24.5 132.5zM410 1151q0 -53 29.5 -82t72.5 -29q73 0 120.5 46.5t47.5 127.5q0 47 -32 79t-75 32
q-82 0 -122.5 -48.5t-40.5 -125.5z" />
    <glyph glyph-name="plusminus" unicode="&#xb1;" horiz-adv-x="1267" 
d="M285 791q-37 -6 -86 47.5t-66 104t4 65.5q97 23 342 53q34 190 76 303q8 22 49.5 25t91 -9.5t97 -32t69.5 -38.5q-34 -150 -47 -219l84 6q9 0 17 18.5t16 18.5q25 2 123 -35q42 -15 88 -89q51 -82 42 -127q-5 -26 -34 -26q-165 -3 -381 -16l-37 -222q-10 -33 -70.5 -21.5
t-131.5 42.5t-109 59l20 113q-2 0 -157 -20zM293 201q-37 -6 -86 47t-66 103.5t4 64.5q160 40 436.5 76.5t372.5 13.5q42 -10 87 -82q49 -78 43 -127q-4 -31 -35 -31q-351 -5 -756 -65z" />
    <glyph glyph-name="twosuperior" unicode="&#xb2;" horiz-adv-x="880" 
d="M360 1100l33 20q-3 3 -4.5 25.5t0.5 23.5l258 172q149 96 224 152.5t75 85.5t-39 29q-56 0 -157 -45.5t-127 -77.5v-31q0 -14 -71.5 -58t-107.5 -36l-110 121q45 116 196 206.5t314 90.5q158 0 253 -71.5t95 -158.5q0 -79 -88.5 -156.5t-251.5 -160.5l-147 -76l305 62
q16 24 59 24q20 0 61 -84t41 -108q0 -15 -49 -25q-67 -9 -212.5 -27t-262 -33t-147.5 -20q-36 2 -86.5 58t-53.5 98z" />
    <glyph glyph-name="threesuperior" unicode="&#xb3;" horiz-adv-x="845" 
d="M938 1409v-4q31 -5 67 -21t69 -39.5t53 -58t16 -69.5q-7 -67 -49.5 -118.5t-110 -81.5t-147 -44.5t-168.5 -14.5q-82 0 -150.5 21t-108 52t-61 63t-22.5 59q4 9 12 21.5t29 32.5t39 18q16 -4 62 -32.5t71 -47.5q131 0 232 37.5t114 101.5q2 11 -8.5 21t-24.5 10
q-38 0 -55 -10q-31 -21 -71.5 -33.5t-70.5 -11.5q-38 10 -63.5 49t-32.5 84q16 14 58 31t90 22q36 13 104 74t68 86q0 24 -29 24q-57 0 -175.5 -68t-185.5 -128q-31 -1 -81 63t-46 80q7 22 45.5 56.5t97 70t144.5 61t174 25.5q59 0 109 -17.5t80.5 -43.5t51 -55.5t28.5 -53
t6 -37.5q-6 -44 -46 -87.5t-77 -65.5z" />
    <glyph glyph-name="acute" unicode="&#xb4;" 
d="M508 1186q-19 -16 -71.5 0.5t-92 45.5t-27.5 44q11 13 54 69t63.5 79.5t55 56.5t63.5 47q57 28 155 -13q73 -31 96 -69q13 -21 -3 -33q-51 -40 -117 -90.5t-108.5 -83t-67.5 -53.5z" />
    <glyph glyph-name="paragraph" unicode="&#xb6;" horiz-adv-x="1515" 
d="M586 -440q56 321 192 821q-109 65 -219 105.5t-180 43.5q-19 1 -41.5 108t-22.5 134q-1 41 98 88.5t246.5 87.5t315.5 68q50 137 76 188q53 8 93 -5.5t44 -51.5q-187 -611 -261 -896q-80 -310 -120 -544q19 3 25.5 -5t3.5 -26q-8 -36 -30.5 -80.5t-49.5 -74.5
q-16 -18 -42.5 -18.5t-52.5 11.5t-44.5 24t-30.5 22zM928 -217q14 65 57 268t66.5 304.5t63 259t78.5 272t81 203.5q5 -1 21 -3t23 -3t21.5 -3.5t22.5 -4.5t20 -5.5t19.5 -7t15.5 -8.5t13 -11q-119 -331 -180.5 -594t-131.5 -708q-1 -41 -100 -6q-69 27 -90 47z" />
    <glyph glyph-name="periodcentered" unicode="&#xb7;" horiz-adv-x="765" 
d="M340 600q-104 34 -104 121q0 33 16 71t47.5 76.5t91 64t135.5 25.5q50 0 96 -41.5t46 -119.5q0 -26 -5.5 -60t-20.5 -77t-37.5 -77.5t-61.5 -58.5t-88 -24q-71 0 -101 22t-14 78z" />
    <glyph glyph-name="cedilla" unicode="&#xb8;" 
d="M809 -367q0 -91 -73 -145.5t-177 -54.5q-118 0 -181 52.5t-63 115.5q0 31 20 49t52 18q13 0 25.5 -3t19.5 -6l6 -3q7 -52 36 -90.5t79 -38.5q32 0 53 19t21 57q0 46 -29.5 78t-65 43t-69.5 21t-39 17q-24 31 51 119t127 117q29 19 57.5 19.5t45 -12.5t16.5 -32
q0 -23 -26 -49.5t-60.5 -51t-42.5 -34.5q88 -21 152.5 -72t64.5 -133z" />
    <glyph glyph-name="onesuperior" unicode="&#xb9;" horiz-adv-x="757" 
d="M346 1069q1 10 90 33.5t144 32.5q-7 9 -16.5 17.5t-12.5 13.5t0 12q18 51 65.5 173.5t63.5 172.5q-42 -35 -104 -66t-82 -31q-45 0 -92.5 45t-47.5 84q0 8 18.5 17t55.5 21t51 18q92 39 195 96.5t149 79.5q166 -41 189 -76q-5 -60 -45 -117q-5 -7 -23.5 -57t-48.5 -145.5
t-57 -196.5q43 7 81 16t56.5 13t28.5 4t46.5 -82.5t36.5 -89.5q0 -2 -5 -12.5t-5 -12.5q-184 -24 -635 -112q-17 -4 -59 63t-37 86z" />
    <glyph glyph-name="ordmasculine" unicode="&#xba;" horiz-adv-x="817" 
d="M131 932q6 87 52.5 182t119.5 164.5t146 81.5q51 -16 61 -35q35 16 86 16q74 0 128 -15t85 -39.5t49 -61.5t23 -73t4 -83q-3 -51 -16.5 -107.5t-45 -124t-75.5 -120t-116 -88t-159 -35.5q-74 0 -134 20.5t-99 54.5t-64.5 78.5t-36 91t-8.5 93.5zM401 897q-8 -66 5 -109
t47 -43q35 0 68 45.5t54 110.5t33.5 118t16.5 85q9 71 0 92q-8 18 -27 18q-30 0 -64.5 -52.5t-55 -107.5t-29.5 -93q-1 -4 -14 0t-17 8q-13 -31 -17 -72zM268 307q-25 -4 -56.5 39.5t-41.5 84.5t4 52q106 24 270 39.5t238 12.5q16 0 48 -62q42 -83 30 -118q-5 -13 -19 -13
q-229 -2 -473 -35z" />
    <glyph glyph-name="guillemotright" unicode="&#xbb;" horiz-adv-x="1368" 
d="M1300 541l-28 -144q-372 -311 -447 -311q-32 0 -67 42t-52.5 88.5t-9.5 62.5q17 14 87 68.5t124 101t97 92.5q-34 41 -77 82.5t-99 90.5t-85 77q-19 20 -16.5 43t18.5 38l43 43q40 40 97 -4q73 -55 197 -166.5t218 -203.5zM799 569l-29 -118q-45 -37 -104.5 -88.5
t-99 -85.5t-80.5 -67.5t-69.5 -50t-45.5 -16.5q-31 0 -64 42t-49 88.5t-8 62.5q127 104 254 248q-17 20 -46.5 55.5t-41 49t-35.5 38.5t-53 53q-19 18 -20 47t14 43l40 48q38 43 97 -3q59 -45 184.5 -181t155.5 -165z" />
    <glyph glyph-name="onequarter" unicode="&#xbc;" horiz-adv-x="2217" 
d="M1364 199l-147 125q-5 34 72 225t126 250q24 17 79.5 9.5t114 -28t60.5 -32.5q-23 -44 -56.5 -106t-51 -95t-36 -73.5t-28.5 -72.5q13 0 73.5 17.5t86.5 27.5q3 9 50 153t58 196q38 6 134 -19t104 -57q2 -9 -16.5 -71.5t-38.5 -120.5l-19 -58q3 0 19 3t22 3
q31 -2 55 -35.5t32.5 -71t4.5 -57.5l-170 -32q-6 -21 -20 -79t-28.5 -114.5t-28.5 -101.5q-5 -11 -9 -15.5t-15 -8.5t-28 1q-20 2 -115 30t-96 36v2l68 221l-4 4q-190 -50 -252 -55zM551 131q19 29 50 38t34 13q89 125 221 323.5t234 353t207 303.5t181.5 232t114.5 83
q39 0 75 -34.5t28 -64.5q-86 -81 -257 -324.5t-329 -493.5t-309 -482.5t-199 -286.5q-36 -2 -85.5 32.5t-45.5 61.5q29 168 80 246zM156 807q1 10 89.5 33t143.5 32q-6 8 -13 15l-9.5 9.5t-5 8.5t0.5 10q17 48 64 172t63 175q-40 -34 -101.5 -65.5t-82.5 -31.5q-45 0 -92 45
t-47 84q0 8 18 16.5t54.5 21t50.5 18.5q94 39 198.5 97t147.5 79q163 -41 188 -76q-10 -64 -45 -117q-5 -8 -23.5 -57.5t-49.5 -145.5t-58 -196q44 7 82.5 16t57 13t28.5 4q9 0 46.5 -83t37.5 -89q0 -2 -5 -12.5t-5 -12.5q-174 -23 -637 -113q-15 -4 -57 63.5t-39 86.5z" />
    <glyph glyph-name="onehalf" unicode="&#xbd;" horiz-adv-x="2217" 
d="M551 131q18 29 49.5 38t34.5 13q88 124 219.5 323.5t233.5 353t207 303.5t181.5 232.5t114.5 82.5q41 0 77 -34.5t28 -64.5q-87 -81 -258 -324.5t-329.5 -493.5t-309.5 -482.5t-197 -286.5q-36 -2 -86.5 32.5t-46.5 61.5q35 178 82 246zM156 807q1 10 89.5 33t143.5 32
q-7 9 -16.5 17.5t-12.5 13.5t0 12q18 51 65.5 174t63.5 173q-42 -35 -104 -66t-82 -31q-45 0 -92 45t-47 84q0 8 18.5 17t55.5 21t51 18q92 39 195 96.5t149 79.5q165 -41 188 -76q-5 -60 -45 -117q-5 -7 -23.5 -57t-48.5 -145.5t-57 -196.5q43 7 81 16t56.5 13t28.5 4
t47 -82.5t37 -89.5q0 -2 -5 -12.5t-5 -12.5q-168 -22 -635 -113q-17 -4 -59 63.5t-37 86.5zM1233 119l33 20q-3 3 -4.5 24.5t0.5 22.5l258 172q77 51 116 77.5t89.5 63.5t72 60.5t21.5 38.5q0 27 -39 27q-56 0 -157.5 -45.5t-127.5 -77.5v-29q0 -8 -32.5 -33.5t-76.5 -46
t-69 -14.5l-111 121q45 116 196 206.5t314 90.5q158 0 253 -72t95 -158q0 -79 -88.5 -156.5t-251.5 -160.5l-147 -78l305 64q16 24 60 24q20 0 61 -84t41 -108q0 -15 -49 -25q-61 -8 -211.5 -27t-265 -34t-146.5 -21q-36 3 -86 59.5t-53 98.5z" />
    <glyph glyph-name="threequarters" unicode="&#xbe;" horiz-adv-x="2217" 
d="M1380 199l-145 125q-6 33 71.5 224t127.5 251q23 17 79 9.5t114.5 -28t60.5 -32.5q-22 -42 -57 -105.5t-52.5 -96t-36.5 -73t-29 -72.5q15 0 75.5 18t84.5 27q7 23 34.5 101.5t48 143.5t28.5 104q38 6 133.5 -19t103.5 -57q2 -9 -16.5 -71.5t-37.5 -120.5l-19 -58
q2 0 19 3t22 3q46 -3 72.5 -66t17.5 -98l-170 -32q-40 -170 -78 -295q-7 -16 -16 -21.5t-33 -1.5q-19 2 -114.5 30t-98.5 36v2l69 221l-4 4q-189 -50 -254 -55zM748 1102v-4q71 -11 141 -66t63 -123q-7 -67 -49.5 -118.5t-110 -81t-147 -44t-168.5 -14.5q-82 0 -150 21
t-108 52t-61.5 63t-22.5 59q5 9 12.5 21.5t29 32.5t38.5 18q16 -4 63.5 -33t71.5 -47q130 0 231.5 37.5t112.5 101.5q3 11 -7 21t-25 10q-38 0 -54 -11q-31 -21 -72 -33.5t-71 -11.5q-37 10 -63 49.5t-33 83.5q16 14 57.5 31.5t89.5 22.5q36 13 104 73.5t68 85.5t-29 25
q-57 0 -175 -68.5t-183 -128.5q-31 -1 -82 63.5t-47 80.5q8 22 46.5 56.5t97 70.5t144 61t173.5 25q59 0 109 -17.5t80 -43.5t51 -55.5t28.5 -53t5.5 -37.5q-6 -44 -46 -87.5t-77 -64.5zM569 131q18 29 49.5 38t34.5 13q89 125 220.5 323.5t234 352.5t207.5 304t181.5 232.5
t115.5 82.5t74.5 -34.5t27.5 -64.5q-87 -81 -257.5 -324.5t-329 -493.5t-309.5 -482.5t-197 -286.5q-36 -2 -86.5 32.5t-47.5 61.5q34 173 82 246z" />
    <glyph glyph-name="questiondown" unicode="&#xbf;" horiz-adv-x="1253" 
d="M1038 170l189 -193q-42 -142 -161.5 -256.5t-285.5 -178.5t-344 -64q-93 0 -183.5 36t-154.5 92t-103.5 125t-39.5 134q0 69 47 138.5t125 134t161 124.5t174.5 133.5t145.5 136.5q29 22 140.5 -54.5t138.5 -127.5q-41 -62 -122 -129.5t-164 -123t-161.5 -109.5
t-128 -106.5t-49.5 -96.5q0 -33 22.5 -52.5t61.5 -19.5q119 0 257 70t212 166l-27 26q0 23 91 97.5t159 97.5zM1010 924q0 -25 -10 -57.5t-33.5 -70t-57.5 -68.5t-88 -52t-119 -21q-23 0 -48.5 7.5t-51.5 23t-42.5 45.5t-16.5 70q0 32 12 74.5t37.5 90.5t74.5 80.5t113 32.5
q87 0 158.5 -46t71.5 -109z" />
    <glyph glyph-name="Agrave" unicode="&#xc0;" horiz-adv-x="1218" 
d="M782 238l29 6q-2 59 -2 184q-180 -11 -406 -39q-106 -249 -174 -555q-4 -17 -40.5 -19t-86.5 9t-99.5 27.5t-86 38t-39.5 38.5q22 172 148 463q-33 46 -47 105.5t8 72.5q36 19 147 41q108 201 233 373.5t273.5 312.5t286.5 195q68 18 166.5 -20t140.5 -78
q-56 -250 -76 -560.5t-12 -532.5t29 -361q-13 -34 -86.5 -23.5t-162 45t-104.5 57.5q-25 36 -34 101t-5 119zM885 1141q-192 -188 -346 -469q25 3 104 8q14 1 62.5 4t66.5 3t53 -3q20 202 74 455zM1038 1587l-190 262q-10 15 -12.5 31t5 28.5t25.5 16.5q183 34 217 -20
q23 -33 55.5 -90.5t60.5 -110.5t32 -59q12 -23 6.5 -46.5t-25.5 -27.5q-140 -29 -174 16z" />
    <glyph glyph-name="Aacute" unicode="&#xc1;" horiz-adv-x="1218" 
d="M782 238l29 6q-2 59 -2 184q-180 -11 -406 -39q-106 -249 -174 -555q-4 -17 -40.5 -19t-86.5 9t-99.5 27.5t-86 38t-39.5 38.5q22 172 148 463q-33 46 -47 105.5t8 72.5q36 19 147 41q108 201 233 373.5t273.5 312.5t286.5 195q68 18 166.5 -20t140.5 -78
q-56 -250 -76 -560.5t-12 -532.5t29 -361q-13 -34 -86.5 -23.5t-162 45t-104.5 57.5q-25 36 -34 101t-5 119zM885 1141q-192 -188 -346 -469q25 3 104 8q14 1 62.5 4t66.5 3t53 -3q20 202 74 455zM1126 1554q-19 -16 -71 0.5t-91.5 46t-27.5 44.5q11 14 54 69t63 79
t54.5 56.5t63.5 46.5q58 29 156 -13q74 -32 95 -69q12 -20 -3 -32q-48 -37 -116 -89.5t-110 -85t-67 -53.5z" />
    <glyph glyph-name="Acircumflex" unicode="&#xc2;" horiz-adv-x="1218" 
d="M782 238l29 6q-2 59 -2 184q-180 -11 -406 -39q-106 -249 -174 -555q-4 -17 -40.5 -19t-86.5 9t-99.5 27.5t-86 38t-39.5 38.5q22 172 148 463q-33 46 -47 105.5t8 72.5q36 19 147 41q108 201 233 373.5t273.5 312.5t286.5 195q68 18 166.5 -20t140.5 -78
q-56 -250 -76 -560.5t-12 -532.5t29 -361q-13 -34 -86.5 -23.5t-162 45t-104.5 57.5q-25 36 -34 101t-5 119zM885 1141q-192 -188 -346 -469q25 3 104 8q14 1 62.5 4t66.5 3t53 -3q20 202 74 455zM848 1575l-100 57q-27 15 -28.5 34t25.5 40q115 93 289 219l131 -18
q46 -58 121 -162.5t88 -126.5q14 -20 7 -38.5t-29 -23.5q-41 -11 -79.5 -7.5t-55.5 22.5q-18 20 -59.5 79t-53.5 74q-1 -1 -162 -129q-15 -9 -23 -13.5t-21.5 -9.5t-25.5 -4t-24 7z" />
    <glyph glyph-name="Atilde" unicode="&#xc3;" horiz-adv-x="1218" 
d="M782 238l29 6q-2 59 -2 184q-180 -11 -406 -39q-106 -249 -174 -555q-4 -17 -40.5 -19t-86.5 9t-99.5 27.5t-86 38t-39.5 38.5q22 172 148 463q-33 46 -47 105.5t8 72.5q36 19 147 41q108 201 233 373.5t273.5 312.5t286.5 195q68 18 166.5 -20t140.5 -78
q-56 -250 -76 -560.5t-12 -532.5t29 -361q-13 -34 -86.5 -23.5t-162 45t-104.5 57.5q-25 36 -34 101t-5 119zM885 1141q-192 -188 -346 -469q25 3 104 8q14 1 62.5 4t66.5 3t53 -3q20 202 74 455zM803 1571q-29 0 -51 40t-7 62q29 42 92 93t119 51q52 0 100.5 -21.5
t85.5 -43t62 -21.5q32 0 81.5 29.5t66.5 29.5q26 0 45.5 -36t5.5 -71q-18 -39 -89 -89t-145 -50q-48 0 -99.5 22t-92.5 44t-62 22t-60 -30.5t-52 -30.5z" />
    <glyph glyph-name="Adieresis" unicode="&#xc4;" horiz-adv-x="1218" 
d="M782 238l29 6q-2 59 -2 184q-180 -11 -406 -39q-106 -249 -174 -555q-4 -17 -40.5 -19t-86.5 9t-99.5 27.5t-86 38t-39.5 38.5q22 172 148 463q-33 46 -47 105.5t8 72.5q36 19 147 41q108 201 233 373.5t273.5 312.5t286.5 195q68 18 166.5 -20t140.5 -78
q-56 -250 -76 -560.5t-12 -532.5t29 -361q-13 -34 -86.5 -23.5t-162 45t-104.5 57.5q-25 36 -34 101t-5 119zM885 1141q-192 -188 -346 -469q25 3 104 8q14 1 62.5 4t66.5 3t53 -3q20 202 74 455zM727 1614q-43 14 -67.5 35.5t-24.5 60.5q0 28 14 60t42 63.5t81.5 52.5
t122.5 21q46 0 88.5 -35t42.5 -100q0 -29 -7.5 -61.5t-27.5 -72t-64 -65t-106 -25.5q-42 0 -64 13.5t-30 52.5zM1094 1688q0 28 12 58.5t38.5 62.5t78 52.5t120.5 20.5q47 0 94.5 -35t47.5 -98q0 -21 -5 -49t-19 -63t-34.5 -64t-55.5 -48.5t-79 -19.5q-71 0 -134.5 62.5
t-63.5 120.5z" />
    <glyph glyph-name="Aring" unicode="&#xc5;" horiz-adv-x="1218" 
d="M854 1544q0 41 19.5 82.5t55.5 77t95.5 58t132.5 22.5q123 0 186.5 -56.5t63.5 -150.5q0 -75 -49 -133t-133 -84q-52 -248 -70.5 -550.5t-10 -519.5t29.5 -351q-13 -34 -86.5 -23.5t-162 45t-104.5 57.5q-25 36 -34 101t-5 119l29 6q-2 59 -2 184q-180 -11 -406 -39
q-106 -249 -174 -555q-4 -17 -40.5 -19t-86.5 9t-99.5 27.5t-86 38t-39.5 38.5q22 172 148 463q-33 46 -47 105.5t8 72.5q36 19 147 41q100 186 216.5 350t254 301t266.5 203q-16 40 -16 80zM885 1141q-192 -188 -346 -469q25 3 104 8q14 1 62.5 4t66.5 3t53 -3
q20 202 74 455zM1057 1542q0 -22 17 -34.5t40 -12.5q44 0 71 22t27 64q0 22 -17 36.5t-40 14.5q-98 0 -98 -90z" />
    <glyph glyph-name="AE" unicode="&#xc6;" horiz-adv-x="1796" 
d="M662 158q78 17 108 22v23q-4 154 0 248q-231 -45 -356 -66q-107 -274 -176 -565q-6 -22 -60.5 -15t-119.5 26.5t-120 41t-63 29.5q36 188 156 456q-41 39 -62.5 97t2.5 73q29 14 168 50q113 208 241.5 387.5t281.5 325t292 200.5q3 0 55.5 -4.5t74.5 -7.5t62.5 -9
t63.5 -15t35 -21q-10 -34 -20 -82q244 48 456 59q11 1 37.5 2.5t36 1.5t31.5 1t32 0t27 -2t27 -4t23.5 -6.5t23.5 -9.5t20 -14q9 -8 38.5 -70.5t29.5 -74.5q0 -10 -81.5 -64.5t-108.5 -66.5q-37 -14 -89 -12q-26 2 -24 10l22 72q-64 -7 -127.5 -13.5t-84 -8.5t-52 -5.5
t-37 -4.5t-32 -5t-44 -7.5t-66.5 -12t-105 -17.5q-23 -164 -31 -305q188 36 254 39q53 6 111 4.5t67 -19.5q8 -15 37 -16.5t45 -14.5q10 -10 41.5 -67t28.5 -68q0 -13 -12 -26t-38 -17q-135 -19 -542 -94q0 -141 6 -258q516 101 692 94q22 -1 68 -71q61 -93 64 -149
q1 -36 -30 -36q-143 -3 -313.5 -26t-460.5 -72q3 -34 9 -59q-20 -18 -109.5 -13t-177.5 25l-72 -12q-47 -7 -107 70q-53 67 -60 118q-3 27 14 31zM844 1100q-160 -138 -305 -430q203 44 254 53q24 207 65 375z" />
    <glyph glyph-name="Ccedilla" unicode="&#xc7;" horiz-adv-x="1200" 
d="M719 -367q0 -91 -73 -145.5t-177 -54.5q-118 0 -181 52.5t-63 115.5q0 31 20 49t52 18q13 0 25.5 -3t19.5 -6l6 -3q7 -52 36 -90.5t79 -38.5q32 0 53 19t21 57q0 46 -29.5 78t-65 43t-69.5 21t-39 17q-16 20 12 67t76 95q-187 57 -289 206t-102 366q0 127 32.5 262
t97.5 261.5t153.5 227t210 161t257.5 60.5q70 0 144.5 -25t136.5 -68t101.5 -108t39.5 -139q0 -77 -24.5 -143.5t-64 -109t-86 -67t-91.5 -24.5q-130 0 -182 119q6 6 15 17.5t33 47t42 70t33 81t16 87.5q0 32 -18 50t-46 18q-58 0 -133.5 -76.5t-141.5 -195t-111.5 -277.5
t-45.5 -307q0 -291 189 -291q50 0 93 21t74.5 58.5t57 82.5t42.5 99t28 101.5t18 96.5q66 28 162 28q72 0 118 -48t46 -140q0 -61 -21 -130.5t-67.5 -142t-111 -130.5t-162 -95t-210.5 -37q-15 0 -82 5q-9 -7 -27 -20.5t-28.5 -22t-15.5 -15.5q88 -21 152.5 -72t64.5 -133z
" />
    <glyph glyph-name="Egrave" unicode="&#xc8;" horiz-adv-x="1148" 
d="M227 1077q-33 -6 -90 60q-55 63 -58 102q-1 17 11 21q133 36 336 77q39 99 88 176q68 -7 158 -29t123 -44q-16 -37 -17 -41q151 23 256 37q14 1 77 14.5t103 11t72 -27.5q9 -7 37.5 -86.5t28.5 -92.5q0 -10 -80.5 -63.5t-108.5 -65.5q-56 -22 -104 -23t-49 17
q-2 13 -1.5 26t1.5 22l2 10q-175 -12 -322 -31q-45 -143 -86 -320l82 7q37 2 100 8.5t91.5 6t40.5 -10.5q30 -23 64 -86.5t34 -79.5q0 -43 -43 -43q-158 -2 -416 -33q-16 -93 -51 -352q508 108 698 100q22 -1 64 -68q56 -90 56 -145q-1 -35 -32 -35q-272 -5 -813 -92
q-8 -59 -10 -98q-1 -17 -35.5 -18t-83 11t-96 27.5t-82.5 30.5l-16 -4q-49 -7 -107 62q-47 57 -49 98q-1 21 14 24l142 31q25 210 57 377q-4 -2 -10 -2q-38 -6 -82 35.5t-58 84t3 60.5q42 23 194 53q44 194 82 320zM760 1577l-191 262q-10 15 -12.5 31t5.5 28.5t26 16.5
q182 34 217 -21q23 -33 55.5 -90.5t60 -110t31.5 -59.5q12 -23 7 -46t-25 -27q-140 -29 -174 16z" />
    <glyph glyph-name="Eacute" unicode="&#xc9;" horiz-adv-x="1148" 
d="M227 1077q-33 -6 -90 60q-55 63 -58 102q-1 17 11 21q133 36 336 77q39 99 88 176q68 -7 158 -29t123 -44q-16 -37 -17 -41q151 23 256 37q14 1 77 14.5t103 11t72 -27.5q9 -7 37.5 -86.5t28.5 -92.5q0 -10 -80.5 -63.5t-108.5 -65.5q-56 -22 -104 -23t-49 17
q-2 13 -1.5 26t1.5 22l2 10q-175 -12 -322 -31q-45 -143 -86 -320l82 7q37 2 100 8.5t91.5 6t40.5 -10.5q30 -23 64 -86.5t34 -79.5q0 -43 -43 -43q-158 -2 -416 -33q-16 -93 -51 -352q508 108 698 100q22 -1 64 -68q56 -90 56 -145q-1 -35 -32 -35q-272 -5 -813 -92
q-8 -59 -10 -98q-1 -17 -35.5 -18t-83 11t-96 27.5t-82.5 30.5l-16 -4q-49 -7 -107 62q-47 57 -49 98q-1 21 14 24l142 31q25 210 57 377q-4 -2 -10 -2q-38 -6 -82 35.5t-58 84t3 60.5q42 23 194 53q44 194 82 320zM817 1550q-19 -16 -71 0.5t-91.5 45.5t-27.5 44t54 69
t63 79t55 57.5t63 46.5q58 29 156 -13q74 -32 95 -69q12 -20 -3 -32q-48 -37 -116 -89.5t-110 -85t-67 -53.5z" />
    <glyph glyph-name="Ecircumflex" unicode="&#xca;" horiz-adv-x="1148" 
d="M227 1077q-33 -6 -90 60q-55 63 -58 102q-1 17 11 21q133 36 336 77q39 99 88 176q68 -7 158 -29t123 -44q-16 -37 -17 -41q151 23 256 37q14 1 77 14.5t103 11t72 -27.5q9 -7 37.5 -86.5t28.5 -92.5q0 -10 -80.5 -63.5t-108.5 -65.5q-56 -22 -104 -23t-49 17
q-2 13 -1.5 26t1.5 22l2 10q-175 -12 -322 -31q-45 -143 -86 -320l82 7q37 2 100 8.5t91.5 6t40.5 -10.5q30 -23 64 -86.5t34 -79.5q0 -43 -43 -43q-158 -2 -416 -33q-16 -93 -51 -352q508 108 698 100q22 -1 64 -68q56 -90 56 -145q-1 -35 -32 -35q-272 -5 -813 -92
q-8 -59 -10 -98q-1 -17 -35.5 -18t-83 11t-96 27.5t-82.5 30.5l-16 -4q-49 -7 -107 62q-47 57 -49 98q-1 21 14 24l142 31q25 210 57 377q-4 -2 -10 -2q-38 -6 -82 35.5t-58 84t3 60.5q42 23 194 53q44 194 82 320zM555 1569l-100 57q-58 33 -2 74q124 100 288 219l131 -18
q46 -58 121 -162.5t88 -126.5q14 -20 7 -38.5t-29 -23.5q-41 -11 -79.5 -7.5t-55.5 22.5q-18 20 -59.5 79t-53.5 74q-1 -1 -162 -129q-15 -9 -23 -13.5t-21.5 -9.5t-25.5 -4t-24 7z" />
    <glyph glyph-name="Edieresis" unicode="&#xcb;" horiz-adv-x="1148" 
d="M227 1077q-33 -6 -90 60q-55 63 -58 102q-1 17 11 21q133 36 336 77q39 99 88 176q68 -7 158 -29t123 -44q-16 -37 -17 -41q151 23 256 37q14 1 77 14.5t103 11t72 -27.5q9 -7 37.5 -86.5t28.5 -92.5q0 -10 -80.5 -63.5t-108.5 -65.5q-56 -22 -104 -23t-49 17
q-2 13 -1.5 26t1.5 22l2 10q-175 -12 -322 -31q-45 -143 -86 -320l82 7q37 2 100 8.5t91.5 6t40.5 -10.5q30 -23 64 -86.5t34 -79.5q0 -43 -43 -43q-158 -2 -416 -33q-16 -93 -51 -352q508 108 698 100q22 -1 64 -68q56 -90 56 -145q-1 -35 -32 -35q-272 -5 -813 -92
q-8 -59 -10 -98q-1 -17 -35.5 -18t-83 11t-96 27.5t-82.5 30.5l-16 -4q-49 -7 -107 62q-47 57 -49 98q-1 21 14 24l142 31q25 210 57 377q-4 -2 -10 -2q-38 -6 -82 35.5t-58 84t3 60.5q42 23 194 53q44 194 82 320zM367 1632q-43 14 -68 36t-25 61q0 28 14 59.5t42.5 63.5
t82 52.5t122.5 20.5q46 0 88.5 -35t42.5 -100q0 -22 -4 -47t-17.5 -57.5t-34.5 -58t-59.5 -43t-89.5 -17.5q-42 0 -64 13t-30 52zM733 1706q0 28 12.5 59t39 63t78 52.5t120.5 20.5q46 0 93.5 -35.5t47.5 -98.5q0 -21 -5 -49t-18.5 -63t-34 -63.5t-55.5 -48t-79 -19.5
q-71 0 -135 62t-64 120z" />
    <glyph glyph-name="Igrave" unicode="&#xcc;" horiz-adv-x="1122" 
d="M319 285q38 214 98.5 457t117.5 421q-135 -25 -304 -51q-38 -6 -83 48.5t-58.5 106t6.5 66.5q228 61 477 91.5t437 39.5q99 5 161 -3.5t103 -41.5q9 -8 37 -59.5t28 -63.5q0 -10 -55 -39.5t-86 -39.5q-34 -8 -48 -2t-35.5 17.5t-39.5 12.5q-89 -6 -174 -18
q-55 -178 -119.5 -459t-99.5 -481q258 46 389 41q22 -1 69 -69q60 -89 64 -145q2 -38 -30 -38q-206 -3 -463 -31.5t-643 -91.5q-36 -6 -78.5 38t-55 88t8.5 60q25 10 64.5 32t65 31.5t44.5 2.5q12 -4 21.5 -10.5t14 -10t7.5 -2.5q44 8 124 25t117 24q-79 25 -82 54z
M651 1571l-190 262q-10 15 -12.5 31t5 28.5t25.5 16.5q182 34 217 -21q23 -33 55.5 -90.5t60.5 -110.5t32 -59q12 -23 6.5 -46.5t-25.5 -27.5q-139 -29 -174 17z" />
    <glyph glyph-name="Iacute" unicode="&#xcd;" horiz-adv-x="1122" 
d="M319 285q38 214 98.5 457t117.5 421q-135 -25 -304 -51q-38 -6 -83 48.5t-58.5 106t6.5 66.5q228 61 477 91.5t437 39.5q99 5 161 -3.5t103 -41.5q9 -8 37 -59.5t28 -63.5q0 -10 -55 -39.5t-86 -39.5q-34 -8 -48 -2t-35.5 17.5t-39.5 12.5q-89 -6 -174 -18
q-55 -178 -119.5 -459t-99.5 -481q258 46 389 41q22 -1 69 -69q60 -89 64 -145q2 -38 -30 -38q-206 -3 -463 -31.5t-643 -91.5q-36 -6 -78.5 38t-55 88t8.5 60q25 10 64.5 32t65 31.5t44.5 2.5q12 -4 21.5 -10.5t14 -10t7.5 -2.5q44 8 124 25t117 24q-79 25 -82 54z
M889 1540q-19 -16 -71.5 0.5t-92 45.5t-27.5 44q11 13 54 69t63.5 79.5t55 56.5t63.5 47q57 28 155 -13q73 -31 96 -69q13 -21 -3 -33q-51 -40 -117 -90.5t-108.5 -83t-67.5 -53.5z" />
    <glyph glyph-name="Icircumflex" unicode="&#xce;" horiz-adv-x="1122" 
d="M319 285q38 214 98.5 457t117.5 421q-135 -25 -304 -51q-38 -6 -83 48.5t-58.5 106t6.5 66.5q228 61 477 91.5t437 39.5q99 5 161 -3.5t103 -41.5q9 -8 37 -59.5t28 -63.5q0 -10 -55 -39.5t-86 -39.5q-34 -8 -48 -2t-35.5 17.5t-39.5 12.5q-89 -6 -174 -18
q-55 -178 -119.5 -459t-99.5 -481q258 46 389 41q22 -1 69 -69q60 -89 64 -145q2 -38 -30 -38q-206 -3 -463 -31.5t-643 -91.5q-36 -6 -78.5 38t-55 88t8.5 60q25 10 64.5 32t65 31.5t44.5 2.5q12 -4 21.5 -10.5t14 -10t7.5 -2.5q44 8 124 25t117 24q-79 25 -82 54z
M598 1573l-100 57q-58 33 -2 74q124 100 288 219l131 -18q46 -58 121 -162.5t88 -126.5q14 -20 7 -38.5t-29 -23.5q-41 -11 -79.5 -7.5t-55.5 22.5q-18 20 -59.5 79t-53.5 74q-1 -1 -162 -129q-15 -9 -23 -13.5t-21.5 -9.5t-25.5 -4t-24 7z" />
    <glyph glyph-name="Idieresis" unicode="&#xcf;" horiz-adv-x="1122" 
d="M319 285q38 214 98.5 457t117.5 421q-135 -25 -304 -51q-38 -6 -83 48.5t-58.5 106t6.5 66.5q228 61 477 91.5t437 39.5q99 5 161 -3.5t103 -41.5q9 -8 37 -59.5t28 -63.5q0 -10 -55 -39.5t-86 -39.5q-34 -8 -48 -2t-35.5 17.5t-39.5 12.5q-89 -6 -174 -18
q-55 -178 -119.5 -459t-99.5 -481q258 46 389 41q22 -1 69 -69q60 -89 64 -145q2 -38 -30 -38q-206 -3 -463 -31.5t-643 -91.5q-36 -6 -78.5 38t-55 88t8.5 60q25 10 64.5 32t65 31.5t44.5 2.5q12 -4 21.5 -10.5t14 -10t7.5 -2.5q44 8 124 25t117 24q-79 25 -82 54z
M471 1624q-43 14 -67.5 35.5t-24.5 60.5q0 28 14 60t42 63.5t81.5 52.5t122.5 21q46 0 88.5 -35t42.5 -100q0 -22 -4 -47t-17.5 -57.5t-34.5 -58t-59.5 -43t-89.5 -17.5q-42 0 -64 13t-30 52zM838 1698q0 28 12 58.5t38.5 62.5t78 52.5t120.5 20.5q47 0 94.5 -35t47.5 -98
q0 -28 -9 -64.5t-29 -79t-60.5 -71t-94.5 -28.5q-71 0 -134.5 62t-63.5 120z" />
    <glyph glyph-name="Eth" unicode="&#xd0;" horiz-adv-x="1527" 
d="M342 702q79 16 172 25q85 323 135 477q-80 -24 -139.5 -77t-89 -110t-45.5 -124q0 -2 -10 -2q-22 0 -75 7.5t-115.5 29t-68.5 51.5q1 9 4.5 24t21 59.5t42.5 85t74 90t110 85.5t156 62t207 28q21 80 96 80q67 0 139 -20.5t99 -40.5l-21 -56q246 -67 387.5 -240
t141.5 -417q0 -215 -72 -394t-193 -296t-277.5 -181.5t-328.5 -64.5q-128 0 -251 28t-220 75t-172.5 107t-118 128t-47.5 133q19 31 70 64.5t101.5 48.5t84.5 -2q52 -33 105.5 -77.5t56.5 -68.5q1 -9 -9 -23.5t-7 -21.5q30 -78 113.5 -136t207.5 -58q110 0 215 64.5
t185.5 174.5t130 267.5t49.5 332.5q0 132 -54.5 227t-150.5 140q-39 -150 -107 -451h31q23 -1 63 -59q51 -73 44 -114q-4 -25 -33 -25q-26 0 -74.5 1t-70.5 1q-56 -252 -72 -359q-11 -53 -36.5 -74.5t-66.5 -21.5q-83 0 -166 32.5t-102 51.5q21 126 74 360q-48 -2 -99 62
q-44 55 -41 92q2 17 17 20z" />
    <glyph glyph-name="Ntilde" unicode="&#xd1;" horiz-adv-x="1333" 
d="M858 545h25q13 46 40 141q61 215 93.5 325.5t81 261t83 217t60.5 66.5q123 0 220 -22t108 -51q-181 -385 -295.5 -784.5t-169.5 -747.5q-6 -19 -76 -19q-69 0 -164.5 30.5t-118.5 70.5q-37 112 -77.5 292t-78 366.5t-50.5 242.5l-21 10q-48 -132 -91 -346t-54 -430
q-1 -13 2 -17t16.5 -8t24.5 -10q19 -10 0 -77.5t-52 -145.5t-34 -84q-6 -21 -57 -13t-114 30.5t-116 45.5t-63 31q31 277 95 592t155.5 596t179.5 381q65 -7 160.5 -36t131.5 -58q21 -197 70 -473t86 -377zM674 1599q-29 0 -51 40.5t-7 62.5q28 42 91.5 92.5t119.5 50.5
q52 0 100.5 -21.5t85.5 -43t62 -21.5q32 0 81.5 30t66.5 30q26 0 45.5 -36t5.5 -71q-18 -39 -89 -89t-145 -50q-48 0 -99.5 22t-92.5 44t-62 22t-60 -31t-52 -31z" />
    <glyph glyph-name="Ograve" unicode="&#xd2;" horiz-adv-x="1325" 
d="M31 555q0 127 32 254t88 233t127.5 193t154.5 142t165 71q13 -2 23.5 -5.5t17 -6t14.5 -8.5t10.5 -8t11 -10t11.5 -11q82 35 172 35q120 0 211.5 -27.5t148.5 -73t92.5 -112t49.5 -137.5t14 -156q0 -64 -9 -143t-33 -180.5t-59.5 -198t-95 -190.5t-133.5 -164.5
t-179.5 -114t-229.5 -43.5q-126 0 -229.5 40t-172 105.5t-115 152.5t-67 178t-20.5 185zM432 489q-9 -160 27 -261t116 -101q73 0 136.5 79t104 190t71 243t44 226t17.5 151q5 93 -16.5 156t-75.5 63q-32 0 -60.5 -15t-51 -45.5t-39 -60t-32.5 -76t-24 -74.5t-20 -73
q-11 -28 -29 -19q-10 2 -35.5 15t-34.5 22l-8 -19q-8 -18 -21 -56t-27 -86t-26 -117.5t-16 -141.5zM809 1581l-191 262q-10 15 -12.5 31t5.5 28.5t26 16.5q182 34 217 -21q23 -33 55.5 -90.5t60 -110t31.5 -59.5q12 -23 7 -46t-25 -27q-140 -29 -174 16z" />
    <glyph glyph-name="Oacute" unicode="&#xd3;" horiz-adv-x="1325" 
d="M31 555q0 127 32 254t88 233t127.5 193t154.5 142t165 71q13 -2 23.5 -5.5t17 -6t14.5 -8.5t10.5 -8t11 -10t11.5 -11q82 35 172 35q120 0 211.5 -27.5t148.5 -73t92.5 -112t49.5 -137.5t14 -156q0 -64 -9 -143t-33 -180.5t-59.5 -198t-95 -190.5t-133.5 -164.5
t-179.5 -114t-229.5 -43.5q-126 0 -229.5 40t-172 105.5t-115 152.5t-67 178t-20.5 185zM432 489q-9 -160 27 -261t116 -101q73 0 136.5 79t104 190t71 243t44 226t17.5 151q5 93 -16.5 156t-75.5 63q-32 0 -60.5 -15t-51 -45.5t-39 -60t-32.5 -76t-24 -74.5t-20 -73
q-11 -28 -29 -19q-10 2 -35.5 15t-34.5 22l-8 -19q-8 -18 -21 -56t-27 -86t-26 -117.5t-16 -141.5zM926 1548q-19 -16 -71.5 0.5t-92 45.5t-27.5 44q11 13 54 69t63.5 79.5t55 56.5t63.5 47q58 29 156 -13q74 -32 95 -69q12 -20 -3 -32q-48 -37 -116 -89.5t-110 -85
t-67 -53.5z" />
    <glyph glyph-name="Ocircumflex" unicode="&#xd4;" horiz-adv-x="1325" 
d="M31 555q0 127 32 254t88 233t127.5 193t154.5 142t165 71q13 -2 23.5 -5.5t17 -6t14.5 -8.5t10.5 -8t11 -10t11.5 -11q82 35 172 35q120 0 211.5 -27.5t148.5 -73t92.5 -112t49.5 -137.5t14 -156q0 -64 -9 -143t-33 -180.5t-59.5 -198t-95 -190.5t-133.5 -164.5
t-179.5 -114t-229.5 -43.5q-126 0 -229.5 40t-172 105.5t-115 152.5t-67 178t-20.5 185zM432 489q-9 -160 27 -261t116 -101q73 0 136.5 79t104 190t71 243t44 226t17.5 151q5 93 -16.5 156t-75.5 63q-32 0 -60.5 -15t-51 -45.5t-39 -60t-32.5 -76t-24 -74.5t-20 -73
q-11 -28 -29 -19q-10 2 -35.5 15t-34.5 22l-8 -19q-8 -18 -21 -56t-27 -86t-26 -117.5t-16 -141.5zM719 1561l-101 57q-58 33 -2 74q115 93 289 219l131 -19q46 -58 121 -162.5t88 -125.5q14 -20 7 -38.5t-29 -23.5q-40 -11 -80 -8t-56 22q-18 20 -58.5 79.5t-53.5 74.5
q-1 -1 -162 -129q-15 -9 -23 -13.5t-21.5 -9.5t-25.5 -4t-24 7z" />
    <glyph glyph-name="Otilde" unicode="&#xd5;" horiz-adv-x="1325" 
d="M31 555q0 127 32 254t88 233t127.5 193t154.5 142t165 71q13 -2 23.5 -5.5t17 -6t14.5 -8.5t10.5 -8t11 -10t11.5 -11q82 35 172 35q120 0 211.5 -27.5t148.5 -73t92.5 -112t49.5 -137.5t14 -156q0 -64 -9 -143t-33 -180.5t-59.5 -198t-95 -190.5t-133.5 -164.5
t-179.5 -114t-229.5 -43.5q-126 0 -229.5 40t-172 105.5t-115 152.5t-67 178t-20.5 185zM432 489q-9 -160 27 -261t116 -101q73 0 136.5 79t104 190t71 243t44 226t17.5 151q5 93 -16.5 156t-75.5 63q-32 0 -60.5 -15t-51 -45.5t-39 -60t-32.5 -76t-24 -74.5t-20 -73
q-11 -28 -29 -19q-10 2 -35.5 15t-34.5 22l-8 -19q-8 -18 -21 -56t-27 -86t-26 -117.5t-16 -141.5zM639 1565q-29 0 -50.5 40t-6.5 62q28 42 91.5 92.5t119.5 50.5q52 0 100 -21.5t85 -43t62 -21.5q32 0 81.5 30t66.5 30q26 0 45.5 -36t5.5 -71q-18 -39 -88.5 -89
t-144.5 -50q-48 0 -99.5 22t-92.5 44t-62 22t-60.5 -30.5t-52.5 -30.5z" />
    <glyph glyph-name="Odieresis" unicode="&#xd6;" horiz-adv-x="1325" 
d="M31 555q0 127 32 254t88 233t127.5 193t154.5 142t165 71q13 -2 23.5 -5.5t17 -6t14.5 -8.5t10.5 -8t11 -10t11.5 -11q82 35 172 35q120 0 211.5 -27.5t148.5 -73t92.5 -112t49.5 -137.5t14 -156q0 -64 -9 -143t-33 -180.5t-59.5 -198t-95 -190.5t-133.5 -164.5
t-179.5 -114t-229.5 -43.5q-126 0 -229.5 40t-172 105.5t-115 152.5t-67 178t-20.5 185zM432 489q-9 -160 27 -261t116 -101q73 0 136.5 79t104 190t71 243t44 226t17.5 151q5 93 -16.5 156t-75.5 63q-32 0 -60.5 -15t-51 -45.5t-39 -60t-32.5 -76t-24 -74.5t-20 -73
q-11 -28 -29 -19q-10 2 -35.5 15t-34.5 22l-8 -19q-8 -18 -21 -56t-27 -86t-26 -117.5t-16 -141.5zM588 1622q-43 14 -67.5 35.5t-24.5 60.5q0 28 14 60t42 63.5t81.5 52.5t122.5 21q46 0 88.5 -35t42.5 -100q0 -29 -7.5 -61.5t-27.5 -72t-64 -65t-106 -25.5q-42 0 -64 13.5
t-30 52.5zM954 1696q0 28 12.5 58.5t39 62.5t78 52.5t120.5 20.5q47 0 94.5 -35t47.5 -98q0 -21 -5 -49t-19 -63t-34.5 -64t-55.5 -48.5t-79 -19.5q-71 0 -135 62.5t-64 120.5z" />
    <glyph glyph-name="multiply" unicode="&#xd7;" horiz-adv-x="1069" 
d="M872 295l-53 -45q-14 -15 -40 -14.5t-40 20.5q-24 33 -80 113l-84 120q-106 -101 -116 -110l10 -25q-56 -44 -105 -69.5t-70 -28.5l-22 -4q-18 -1 -62 39.5t-76.5 86.5t-20.5 58q39 37 142.5 140.5t145.5 144.5q-95 116 -186 184q-29 23 2 49l72 78q8 9 34.5 3t49.5 -25
q68 -57 159 -166q221 203 283 203q31 0 106.5 -86.5t63.5 -106.5q-74 -33 -278 -233q53 -76 155 -232q39 -69 10 -94z" />
    <glyph glyph-name="Oslash" unicode="&#xd8;" horiz-adv-x="1325" 
d="M190 37l19 26q-89 94 -133.5 224.5t-44.5 267.5q0 127 32 254t88 233t127.5 193t154.5 142t165 71q13 -2 23.5 -5.5t17 -6t14.5 -8.5t10.5 -8t11 -10t11.5 -11q82 35 172 35q149 0 252 -41q98 116 154 116q38 0 56.5 -23t10.5 -54q-35 -32 -100 -111q143 -123 143 -393
q0 -64 -9 -143t-33 -180.5t-59.5 -198t-95 -190.5t-133.5 -164.5t-179.5 -114t-229.5 -43.5q-175 0 -309 77q-119 -177 -154 -219q-35 -2 -59.5 19t-20.5 49q8 49 38.5 113.5t59.5 103.5zM432 489q-6 -68 0 -127q59 91 237.5 378.5t266.5 416.5q-20 78 -80 78
q-32 0 -60.5 -15t-51 -45.5t-39 -60t-32.5 -76t-24 -74.5t-20 -73q-11 -28 -29 -19q-10 2 -35.5 15t-34.5 22l-8 -19q-8 -18 -21 -56t-27 -86t-26 -117.5t-16 -141.5zM575 127q62 0 117.5 58t93.5 143t70 197.5t50 203.5t30 180q-98 -146 -463 -712q37 -70 102 -70z" />
    <glyph glyph-name="Ugrave" unicode="&#xd9;" horiz-adv-x="1327" 
d="M412 375q-17 -133 8.5 -187.5t91.5 -54.5q77 0 135 140q58 141 137 560q16 84 50 273q25 134 38 205q12 71 34.5 99t68.5 28q37 0 155 -29.5t140 -46.5q-25 -177 -97 -530t-83 -455q-16 -145 -2 -191.5t67 -46.5q92 0 152 215q1 -2 17 0.5t40.5 -4t48 -16.5t40.5 -37
t17 -66q0 -52 -18.5 -105t-54.5 -100t-98 -76.5t-140 -29.5q-101 0 -177.5 55.5t-102.5 133.5q-26 -43 -61.5 -82t-84 -77.5t-113 -61.5t-133.5 -23q-219 0 -337.5 149t-118.5 410q0 190 80.5 506.5t152.5 507.5q18 46 79.5 51.5t129 -17.5t121.5 -48.5t70 -39.5
q-69 -198 -151 -519t-101 -490zM702 1583l-190 262q-10 15 -12.5 31t5 28.5t25.5 16.5q184 34 218 -20q23 -33 55.5 -91t60 -110.5t31.5 -59.5q12 -23 7 -46t-25 -27q-141 -30 -175 16z" />
    <glyph glyph-name="Uacute" unicode="&#xda;" horiz-adv-x="1327" 
d="M412 375q-17 -133 8.5 -187.5t91.5 -54.5q77 0 135 140q58 141 137 560q16 84 50 273q25 134 38 205q12 71 34.5 99t68.5 28q37 0 155 -29.5t140 -46.5q-25 -177 -97 -530t-83 -455q-16 -145 -2 -191.5t67 -46.5q92 0 152 215q1 -2 17 0.5t40.5 -4t48 -16.5t40.5 -37
t17 -66q0 -52 -18.5 -105t-54.5 -100t-98 -76.5t-140 -29.5q-101 0 -177.5 55.5t-102.5 133.5q-26 -43 -61.5 -82t-84 -77.5t-113 -61.5t-133.5 -23q-219 0 -337.5 149t-118.5 410q0 190 80.5 506.5t152.5 507.5q18 46 79.5 51.5t129 -17.5t121.5 -48.5t70 -39.5
q-69 -198 -151 -519t-101 -490zM852 1552q-19 -16 -71 0.5t-91.5 45.5t-27.5 44t54 69t63 79t55 57.5t63 46.5q58 29 156 -13q74 -32 95 -69q12 -20 -3 -32q-48 -37 -116 -89.5t-110 -85t-67 -53.5z" />
    <glyph glyph-name="Ucircumflex" unicode="&#xdb;" horiz-adv-x="1327" 
d="M412 375q-17 -133 8.5 -187.5t91.5 -54.5q77 0 135 140q58 141 137 560q16 84 50 273q25 134 38 205q12 71 34.5 99t68.5 28q37 0 155 -29.5t140 -46.5q-25 -177 -97 -530t-83 -455q-16 -145 -2 -191.5t67 -46.5q92 0 152 215q1 -2 17 0.5t40.5 -4t48 -16.5t40.5 -37
t17 -66q0 -52 -18.5 -105t-54.5 -100t-98 -76.5t-140 -29.5q-101 0 -177.5 55.5t-102.5 133.5q-26 -43 -61.5 -82t-84 -77.5t-113 -61.5t-133.5 -23q-219 0 -337.5 149t-118.5 410q0 190 80.5 506.5t152.5 507.5q18 46 79.5 51.5t129 -17.5t121.5 -48.5t70 -39.5
q-69 -198 -151 -519t-101 -490zM596 1563l-100 57q-58 33 -2 74q124 100 288 219l131 -19q46 -58 121 -162.5t88 -125.5q14 -20 7 -38.5t-29 -23.5q-41 -11 -79.5 -7.5t-55.5 22.5q-18 20 -59.5 79t-53.5 74q-1 -1 -162 -129q-15 -9 -23 -13.5t-21.5 -9.5t-25.5 -4t-24 7z
" />
    <glyph glyph-name="Udieresis" unicode="&#xdc;" horiz-adv-x="1327" 
d="M412 375q-17 -133 8.5 -187.5t91.5 -54.5q77 0 135 140q58 141 137 560q16 84 50 273q25 134 38 205q12 71 34.5 99t68.5 28q37 0 155 -29.5t140 -46.5q-25 -177 -97 -530t-83 -455q-16 -145 -2 -191.5t67 -46.5q92 0 152 215q1 -2 17 0.5t40.5 -4t48 -16.5t40.5 -37
t17 -66q0 -52 -18.5 -105t-54.5 -100t-98 -76.5t-140 -29.5q-101 0 -177.5 55.5t-102.5 133.5q-26 -43 -61.5 -82t-84 -77.5t-113 -61.5t-133.5 -23q-219 0 -337.5 149t-118.5 410q0 190 80.5 506.5t152.5 507.5q18 46 79.5 51.5t129 -17.5t121.5 -48.5t70 -39.5
q-69 -198 -151 -519t-101 -490zM494 1638q-43 14 -68 36t-25 61q0 28 14 59.5t42.5 63.5t82 52.5t122.5 20.5q46 0 88.5 -35t42.5 -100q0 -22 -4 -47t-17.5 -57.5t-34.5 -58t-59.5 -43t-89.5 -17.5q-42 0 -64 13t-30 52zM860 1712q0 28 12.5 59t39 63t78 52.5t120.5 20.5
q47 0 94 -35t47 -98q0 -21 -5 -49t-18.5 -63t-34 -64t-55.5 -48.5t-79 -19.5q-71 0 -135 62t-64 120z" />
    <glyph glyph-name="Yacute" unicode="&#xdd;" horiz-adv-x="1245" 
d="M131 133q12 22 28.5 26t27 -2t18.5 3q126 180 268 409q-176 282 -319 465q-8 10 -26 5.5t-28 2.5q-35 35 -98 131t-53 113q33 63 127 114t137 15q99 -77 426 -581q73 116 130 201t122.5 173t117.5 143.5t103.5 90.5t91.5 35q49 0 111.5 -47.5t102 -101t34.5 -73.5
q-89 -61 -223 -230t-270.5 -375.5t-263 -407.5t-230 -364.5t-141.5 -207.5q-40 -2 -182 59t-138 87q11 58 48 148.5t79 168.5zM776 1550q-19 -16 -71 0.5t-91.5 45.5t-27.5 44t54 69t63 79t55 57.5t63 46.5q58 29 156 -13q74 -32 95 -69q12 -20 -3 -32q-48 -37 -116 -89.5
t-110 -85t-67 -53.5z" />
    <glyph glyph-name="Thorn" unicode="&#xde;" horiz-adv-x="1288" 
d="M160 -80q5 31 47 234q-84 14 -111 26q-46 20 -65.5 58.5t-14.5 76t25 69.5t47 42q6 -1 26 -11.5t57.5 -27t80.5 -29.5q59 261 158 637q-175 -34 -279 -161q-2 -1 -5.5 -3t-13 -4t-18.5 0q-41 7 -86.5 67t-48.5 110q5 6 15 16.5t51 38t92.5 50.5t144 47t201.5 34
q41 134 53 162q21 51 46 71.5t85 20.5q49 0 123.5 -21.5t97.5 -50.5q-23 -58 -55 -184q253 -29 408 -138.5t155 -277.5q0 -115 -57.5 -223t-160.5 -193t-254 -142.5t-329 -74.5q-17 -68 -20 -102q-3 -12 -11 -41t-12.5 -43.5t-12 -35.5t-15.5 -36t-17 -26q-16 -23 -51 -23
q-44 0 -152.5 37.5t-123.5 50.5zM995 715q0 200 -231 266q-15 -70 -46.5 -218.5t-55 -254t-41.5 -180.5q165 24 269.5 128.5t104.5 258.5z" />
    <glyph glyph-name="germandbls" unicode="&#xdf;" horiz-adv-x="1173" 
d="M598 549q-12 0 -29 3t-28 6l-11 3q-9 51 -2.5 122.5t25.5 113.5q67 13 182 0q76 38 125 151t49 228q0 55 -27 82.5t-75 27.5q-67 0 -127.5 -65t-105.5 -170.5t-85 -245.5t-67 -283t-50 -291.5t-36 -261.5t-23.5 -202.5t-13.5 -106.5q-1 -3 12.5 -13t27 -19.5t11.5 -12.5
q-5 -8 -25 -83t-42 -142.5t-35 -67.5q-42 0 -117.5 23.5t-136.5 56.5t-62 55q1 26 3.5 71t13.5 182.5t26.5 271t45.5 315.5t67.5 338t95 315.5t124.5 271.5t160.5 182.5t199.5 70.5q130 0 252 -54t198 -144t76 -187q0 -279 -219 -418q88 -44 148.5 -129t60.5 -207
q0 -92 -29.5 -173t-76.5 -136.5t-105.5 -95.5t-116 -59t-108.5 -19q-72 0 -134 20t-98 51q-52 44 -61.5 107.5t13.5 113.5t60 68q4 0 41 -31.5t90 -61.5t97 -30q55 0 91 55t36 146q0 54 -23 111.5t-68.5 103.5t-101.5 55q-67 -12 -92 -12z" />
    <glyph glyph-name="agrave" unicode="&#xe0;" horiz-adv-x="1112" 
d="M741 94h-14q-44 -62 -116 -105.5t-160 -43.5q-194 0 -311 111t-117 309q0 135 35 263t98.5 232t164.5 167t222 63q171 0 280 -57.5t109 -135.5l-4 -33q6 -1 26.5 -3.5t39 -5.5t37.5 -8t28.5 -15t5.5 -23q-98 -305 -107 -537q-7 -147 54 -147q30 0 52 19.5t35.5 56.5
t21 77t12.5 95q8 1 20.5 2t45.5 -3t58 -15.5t45.5 -41.5t20.5 -75q0 -50 -21.5 -102t-62 -99t-109.5 -77t-153 -30q-53 0 -95 12.5t-67 30.5t-42 41.5t-23.5 42t-8.5 35.5zM385 295q-7 -82 3 -117t38 -35q42 0 92.5 111.5t81.5 223.5t35 153q-52 10 -70 39q53 78 66 178
q7 57 -25 57q-51 0 -102.5 -116t-81.5 -254t-37 -240zM555 1223l-190 262q-10 15 -12.5 31t5 28.5t25.5 16.5q182 34 217 -21q23 -33 55.5 -90.5t60.5 -110.5t32 -59q12 -23 6.5 -46.5t-25.5 -27.5q-139 -29 -174 17z" />
    <glyph glyph-name="aacute" unicode="&#xe1;" horiz-adv-x="1112" 
d="M741 94h-14q-44 -62 -116 -105.5t-160 -43.5q-194 0 -311 111t-117 309q0 135 35 263t98.5 232t164.5 167t222 63q171 0 280 -57.5t109 -135.5l-4 -33q6 -1 26.5 -3.5t39 -5.5t37.5 -8t28.5 -15t5.5 -23q-98 -305 -107 -537q-7 -147 54 -147q30 0 52 19.5t35.5 56.5
t21 77t12.5 95q8 1 20.5 2t45.5 -3t58 -15.5t45.5 -41.5t20.5 -75q0 -50 -21.5 -102t-62 -99t-109.5 -77t-153 -30q-53 0 -95 12.5t-67 30.5t-42 41.5t-23.5 42t-8.5 35.5zM385 295q-7 -82 3 -117t38 -35q42 0 92.5 111.5t81.5 223.5t35 153q-52 10 -70 39q53 78 66 178
q7 57 -25 57q-51 0 -102.5 -116t-81.5 -254t-37 -240zM731 1190q-19 -16 -71 0.5t-91.5 45.5t-27.5 44t54 69t63 79t55 57.5t63 46.5q57 28 155 -13q73 -31 96 -69q13 -21 -3 -33q-51 -40 -117 -90.5t-108.5 -83t-67.5 -53.5z" />
    <glyph glyph-name="acircumflex" unicode="&#xe2;" horiz-adv-x="1112" 
d="M741 94h-14q-44 -62 -116 -105.5t-160 -43.5q-194 0 -311 111t-117 309q0 135 35 263t98.5 232t164.5 167t222 63q171 0 280 -57.5t109 -135.5l-4 -33q6 -1 26.5 -3.5t39 -5.5t37.5 -8t28.5 -15t5.5 -23q-98 -305 -107 -537q-7 -147 54 -147q30 0 52 19.5t35.5 56.5
t21 77t12.5 95q8 1 20.5 2t45.5 -3t58 -15.5t45.5 -41.5t20.5 -75q0 -50 -21.5 -102t-62 -99t-109.5 -77t-153 -30q-53 0 -95 12.5t-67 30.5t-42 41.5t-23.5 42t-8.5 35.5zM385 295q-7 -82 3 -117t38 -35q42 0 92.5 111.5t81.5 223.5t35 153q-52 10 -70 39q53 78 66 178
q7 57 -25 57q-51 0 -102.5 -116t-81.5 -254t-37 -240zM467 1202l-100 58q-57 33 -2 73q124 100 288 219l131 -18q46 -58 121 -162.5t88 -126.5q14 -20 7 -38t-29 -23q-40 -11 -79.5 -8t-55.5 22q-18 20 -59.5 79.5t-53.5 74.5q-1 -1 -162 -129q-16 -10 -23.5 -14t-21.5 -9.5
t-25.5 -4.5t-23.5 7z" />
    <glyph glyph-name="atilde" unicode="&#xe3;" horiz-adv-x="1112" 
d="M741 94h-14q-44 -62 -116 -105.5t-160 -43.5q-194 0 -311 111t-117 309q0 135 35 263t98.5 232t164.5 167t222 63q171 0 280 -57.5t109 -135.5l-4 -33q6 -1 26.5 -3.5t39 -5.5t37.5 -8t28.5 -15t5.5 -23q-98 -305 -107 -537q-7 -147 54 -147q30 0 52 19.5t35.5 56.5
t21 77t12.5 95q8 1 20.5 2t45.5 -3t58 -15.5t45.5 -41.5t20.5 -75q0 -50 -21.5 -102t-62 -99t-109.5 -77t-153 -30q-53 0 -95 12.5t-67 30.5t-42 41.5t-23.5 42t-8.5 35.5zM385 295q-7 -82 3 -117t38 -35q42 0 92.5 111.5t81.5 223.5t35 153q-52 10 -70 39q53 78 66 178
q7 57 -25 57q-51 0 -102.5 -116t-81.5 -254t-37 -240zM420 1219q-29 0 -51 40t-7 62q28 42 91.5 92.5t119.5 50.5q52 0 100.5 -21.5t85.5 -43t62 -21.5q32 0 81.5 30t66.5 30q26 0 45.5 -36t5.5 -71q-18 -39 -89 -89t-145 -50q-48 0 -99.5 22t-92.5 44t-62 22t-60 -30.5
t-52 -30.5z" />
    <glyph glyph-name="adieresis" unicode="&#xe4;" horiz-adv-x="1112" 
d="M741 94h-14q-44 -62 -116 -105.5t-160 -43.5q-194 0 -311 111t-117 309q0 135 35 263t98.5 232t164.5 167t222 63q171 0 280 -57.5t109 -135.5l-4 -33q6 -1 26.5 -3.5t39 -5.5t37.5 -8t28.5 -15t5.5 -23q-98 -305 -107 -537q-7 -147 54 -147q30 0 52 19.5t35.5 56.5
t21 77t12.5 95q8 1 20.5 2t45.5 -3t58 -15.5t45.5 -41.5t20.5 -75q0 -50 -21.5 -102t-62 -99t-109.5 -77t-153 -30q-53 0 -95 12.5t-67 30.5t-42 41.5t-23.5 42t-8.5 35.5zM385 295q-7 -82 3 -117t38 -35q42 0 92.5 111.5t81.5 223.5t35 153q-52 10 -70 39q53 78 66 178
q7 57 -25 57q-51 0 -102.5 -116t-81.5 -254t-37 -240zM373 1270q-43 14 -67.5 35.5t-24.5 60.5q0 28 14 60t42 63.5t81.5 52.5t122.5 21q46 0 88.5 -35.5t42.5 -100.5q0 -22 -4 -47t-17.5 -57.5t-34.5 -58t-59.5 -43t-89.5 -17.5q-42 0 -64 13.5t-30 52.5zM739 1343
q0 28 12.5 59t39 63t78 52.5t120.5 20.5q47 0 94 -35t47 -98q0 -21 -5 -49t-18.5 -63t-34 -64t-55.5 -48.5t-79 -19.5q-71 0 -135 62t-64 120z" />
    <glyph glyph-name="aring" unicode="&#xe5;" horiz-adv-x="1112" 
d="M741 94h-14q-44 -62 -116 -105.5t-160 -43.5q-194 0 -311 111t-117 309q0 135 35 263t98.5 232t164.5 167t222 63q171 0 280 -57.5t109 -135.5l-4 -33q6 -1 26.5 -3.5t39 -5.5t37.5 -8t28.5 -15t5.5 -23q-98 -305 -107 -537q-7 -147 54 -147q30 0 52 19.5t35.5 56.5
t21 77t12.5 95q8 1 20.5 2t45.5 -3t58 -15.5t45.5 -41.5t20.5 -75q0 -50 -21.5 -102t-62 -99t-109.5 -77t-153 -30q-53 0 -95 12.5t-67 30.5t-42 41.5t-23.5 42t-8.5 35.5zM385 295q-7 -82 3 -117t38 -35q42 0 92.5 111.5t81.5 223.5t35 153q-52 10 -70 39q53 78 66 178
q7 57 -25 57q-51 0 -102.5 -116t-81.5 -254t-37 -240zM442 1376q0 41 19.5 82.5t55.5 77t95.5 58t132.5 22.5q123 0 186.5 -56.5t63.5 -150.5q0 -99 -84 -166t-215 -67q-120 0 -187 58t-67 142zM645 1374q0 -22 17 -34.5t40 -12.5q44 0 71.5 22.5t27.5 63.5q0 21 -17 36
t-41 15q-98 0 -98 -90z" />
    <glyph glyph-name="ae" unicode="&#xe6;" horiz-adv-x="1437" 
d="M1087 -162q-120 0 -222 46.5t-163 131.5q-87 -127 -274 -127q-155 0 -260 107.5t-105 279.5q0 102 26 184t67.5 130.5t89 74t94.5 25.5q91 0 161 -37t93 -90q31 156 -2.5 250t-128.5 94q-52 0 -108.5 -49.5t-92.5 -109.5q-24 0 -53.5 13.5t-55 40t-31 65t18.5 89.5
q37 70 139 115t244 45q124 0 190 -68t81 -176q126 236 295 236q48 0 103.5 -18t109 -53.5t89 -98.5t35.5 -143q0 -126 -45 -235.5t-111.5 -170.5t-133.5 -61q-41 0 -77.5 13t-61 33.5t-34 30t-16.5 19.5q-3 -5 -10 -33.5t-15 -90t-8 -124.5q0 -143 121 -143q55 0 106 24
t88 60.5t66.5 82.5t46.5 89t23 80q22 16 55 16q75 0 123.5 -30.5t48.5 -90.5q0 -52 -18.5 -108.5t-59.5 -113.5t-98.5 -102t-143 -73.5t-186.5 -28.5zM307 164q0 -55 11.5 -79t37.5 -24q39 0 78.5 56.5t61 116.5t26.5 96q-33 2 -51 20q35 63 35 111q0 51 -37 51
q-45 0 -83.5 -63t-58 -141.5t-20.5 -143.5zM973 559q2 -5 7 -12t20.5 -19t31.5 -12q48 0 84.5 107.5t38.5 220.5q2 84 -20 84q-23 0 -41 -33q-73 -120 -121 -336z" />
    <glyph glyph-name="ccedilla" unicode="&#xe7;" horiz-adv-x="905" 
d="M659 -367q0 -91 -72.5 -145.5t-176.5 -54.5q-118 0 -181 52.5t-63 115.5q0 31 20 49t52 18q13 0 25.5 -3t18.5 -6l7 -3q7 -53 35.5 -91t78.5 -38q32 0 53 19t21 57q0 46 -29.5 78t-65 43t-69.5 21t-39 17q-16 20 10.5 64.5t73.5 93.5q-152 47 -245 162t-93 276
q0 86 19 177t60.5 180.5t99 159.5t142 113.5t183.5 43.5q61 0 125.5 -18.5t120 -51t91.5 -84t36 -110.5q0 -136 -58.5 -217.5t-144.5 -81.5q-115 0 -141 90v12q8 14 20.5 37t35 86.5t26.5 116.5q0 41 -29 41q-32 0 -68 -41.5t-66 -110t-49.5 -168t-19.5 -204.5
q0 -240 164 -240q76 0 139 50t98 121t44 147q45 24 98 24q61 0 99 -41.5t38 -112.5q0 -41 -17.5 -89.5t-58.5 -101.5t-100 -95.5t-151 -70.5t-201 -28q-24 0 -45 3q-10 -9 -26 -21t-27 -20.5t-15 -14.5q88 -21 152.5 -72t64.5 -133z" />
    <glyph glyph-name="egrave" unicode="&#xe8;" horiz-adv-x="829" 
d="M-14 240q0 113 21.5 233.5t64.5 233.5t101 202.5t138.5 144t169.5 54.5q48 0 103.5 -18t109.5 -53.5t89.5 -98.5t35.5 -143q0 -125 -45 -235t-112 -171t-134 -61q-33 0 -63.5 9.5t-49 22t-34 27.5t-21.5 23.5t-8 13.5q-4 -9 -13 -34.5t-20.5 -88t-11.5 -125.5
q0 -143 121 -143q55 0 106 24t88 60.5t66.5 82.5t46.5 89t23 80q22 16 55 16q75 0 123.5 -30.5t48.5 -90.5q0 -52 -18.5 -108.5t-59.5 -113.5t-98.5 -102t-143 -73.5t-186.5 -28.5q-123 0 -234 46t-185 140t-74 216zM379 559q0 -2 1 -5t4.5 -10t8 -13t13 -10.5t18.5 -4.5
q48 0 84.5 107.5t38.5 220.5q2 84 -21 84q-13 0 -28 -33q-92 -197 -119 -336zM578 1223l-191 262q-10 15 -12.5 31t5.5 28.5t26 16.5q182 34 217 -21q23 -33 55.5 -90.5t60 -110t31.5 -59.5q12 -23 7 -46.5t-25 -27.5q-139 -29 -174 17z" />
    <glyph glyph-name="eacute" unicode="&#xe9;" horiz-adv-x="829" 
d="M-14 240q0 113 21.5 233.5t64.5 233.5t101 202.5t138.5 144t169.5 54.5q48 0 103.5 -18t109.5 -53.5t89.5 -98.5t35.5 -143q0 -125 -45 -235t-112 -171t-134 -61q-33 0 -63.5 9.5t-49 22t-34 27.5t-21.5 23.5t-8 13.5q-4 -9 -13 -34.5t-20.5 -88t-11.5 -125.5
q0 -143 121 -143q55 0 106 24t88 60.5t66.5 82.5t46.5 89t23 80q22 16 55 16q75 0 123.5 -30.5t48.5 -90.5q0 -52 -18.5 -108.5t-59.5 -113.5t-98.5 -102t-143 -73.5t-186.5 -28.5q-123 0 -234 46t-185 140t-74 216zM379 559q0 -2 1 -5t4.5 -10t8 -13t13 -10.5t18.5 -4.5
q48 0 84.5 107.5t38.5 220.5q2 84 -21 84q-13 0 -28 -33q-92 -197 -119 -336zM600 1190q-19 -16 -71 0.5t-91.5 45.5t-27.5 44t54 69t63 79t55 57.5t63 46.5q57 28 155 -13q73 -31 96 -69q13 -21 -3 -33q-51 -40 -117 -90.5t-108.5 -83t-67.5 -53.5z" />
    <glyph glyph-name="ecircumflex" unicode="&#xea;" horiz-adv-x="829" 
d="M-14 240q0 113 21.5 233.5t64.5 233.5t101 202.5t138.5 144t169.5 54.5q48 0 103.5 -18t109.5 -53.5t89.5 -98.5t35.5 -143q0 -125 -45 -235t-112 -171t-134 -61q-33 0 -63.5 9.5t-49 22t-34 27.5t-21.5 23.5t-8 13.5q-4 -9 -13 -34.5t-20.5 -88t-11.5 -125.5
q0 -143 121 -143q55 0 106 24t88 60.5t66.5 82.5t46.5 89t23 80q22 16 55 16q75 0 123.5 -30.5t48.5 -90.5q0 -52 -18.5 -108.5t-59.5 -113.5t-98.5 -102t-143 -73.5t-186.5 -28.5q-123 0 -234 46t-185 140t-74 216zM379 559q0 -2 1 -5t4.5 -10t8 -13t13 -10.5t18.5 -4.5
q48 0 84.5 107.5t38.5 220.5q2 84 -21 84q-13 0 -28 -33q-92 -197 -119 -336zM362 1200l-100 57q-58 33 -2 74q115 93 289 219l131 -18q46 -58 121 -162.5t88 -126.5q14 -20 6.5 -38t-29.5 -23q-40 -11 -79.5 -8t-55.5 22q-18 20 -59.5 79.5t-53.5 74.5q-12 -11 -161 -129
q-15 -9 -23 -13.5t-22 -10t-26 -4.5t-24 7z" />
    <glyph glyph-name="edieresis" unicode="&#xeb;" horiz-adv-x="829" 
d="M-14 240q0 113 21.5 233.5t64.5 233.5t101 202.5t138.5 144t169.5 54.5q48 0 103.5 -18t109.5 -53.5t89.5 -98.5t35.5 -143q0 -125 -45 -235t-112 -171t-134 -61q-33 0 -63.5 9.5t-49 22t-34 27.5t-21.5 23.5t-8 13.5q-4 -9 -13 -34.5t-20.5 -88t-11.5 -125.5
q0 -143 121 -143q55 0 106 24t88 60.5t66.5 82.5t46.5 89t23 80q22 16 55 16q75 0 123.5 -30.5t48.5 -90.5q0 -52 -18.5 -108.5t-59.5 -113.5t-98.5 -102t-143 -73.5t-186.5 -28.5q-123 0 -234 46t-185 140t-74 216zM379 559q0 -2 1 -5t4.5 -10t8 -13t13 -10.5t18.5 -4.5
q48 0 84.5 107.5t38.5 220.5q2 84 -21 84q-13 0 -28 -33q-92 -197 -119 -336zM266 1270q-43 14 -67.5 35.5t-24.5 60.5q0 28 14 60t42 63.5t81.5 52.5t122.5 21q46 0 88.5 -35.5t42.5 -100.5q0 -22 -4 -47t-17.5 -57.5t-34.5 -58t-59.5 -43t-89.5 -17.5q-42 0 -64 13.5
t-30 52.5zM633 1343q0 28 12.5 59t39 63t78 52.5t120.5 20.5q47 0 94 -35t47 -98q0 -21 -5 -49t-19 -63t-34.5 -64t-55.5 -48.5t-79 -19.5q-71 0 -134.5 62t-63.5 120z" />
    <glyph glyph-name="igrave" unicode="&#xec;" horiz-adv-x="598" 
d="M14 211q0 121 72 384.5t127 391.5q9 27 55 27q26 0 76 -11t103.5 -29.5t86.5 -49.5t21 -66q-147 -489 -156 -639q-3 -47 10 -72.5t33 -25.5q36 0 68.5 30.5t52.5 76t32.5 86t16.5 71.5h10.5t25 -2t36 -6.5t38 -14.5t35.5 -23.5t25.5 -36.5t10.5 -52q0 -54 -37.5 -113.5
t-98.5 -108t-147 -80.5t-174 -32q-152 0 -237 74t-85 221zM383 1210l-190 263q-10 15 -12.5 30.5t5 28t25.5 16.5q183 34 217 -20q23 -33 55.5 -90.5t60 -110t31.5 -59.5q12 -23 7 -46.5t-25 -27.5q-140 -29 -174 16z" />
    <glyph glyph-name="iacute" unicode="&#xed;" horiz-adv-x="598" 
d="M14 211q0 121 72 384.5t127 391.5q9 27 55 27q26 0 76 -11t103.5 -29.5t86.5 -49.5t21 -66q-147 -489 -156 -639q-3 -47 10 -72.5t33 -25.5q36 0 68.5 30.5t52.5 76t32.5 86t16.5 71.5h10.5t25 -2t36 -6.5t38 -14.5t35.5 -23.5t25.5 -36.5t10.5 -52q0 -54 -37.5 -113.5
t-98.5 -108t-147 -80.5t-174 -32q-152 0 -237 74t-85 221zM516 1188q-19 -16 -71 0.5t-91.5 45.5t-27.5 44t54 69t63 79t55 57.5t63 46.5q57 28 155 -13q73 -31 96 -69q13 -21 -3 -33q-51 -40 -117 -90.5t-108.5 -83t-67.5 -53.5z" />
    <glyph glyph-name="icircumflex" unicode="&#xee;" horiz-adv-x="598" 
d="M14 211q0 121 72 384.5t127 391.5q9 27 55 27q26 0 76 -11t103.5 -29.5t86.5 -49.5t21 -66q-147 -489 -156 -639q-3 -47 10 -72.5t33 -25.5q36 0 68.5 30.5t52.5 76t32.5 86t16.5 71.5h10.5t25 -2t36 -6.5t38 -14.5t35.5 -23.5t25.5 -36.5t10.5 -52q0 -54 -37.5 -113.5
t-98.5 -108t-147 -80.5t-174 -32q-152 0 -237 74t-85 221zM244 1190l-101 57q-58 33 -2 74q115 93 289 219l131 -18q46 -58 121 -162.5t88 -126.5q14 -20 7 -38.5t-29 -23.5q-41 -11 -80 -7.5t-56 22.5q-18 20 -58.5 79t-53.5 74q-1 -1 -162 -129q-15 -9 -23 -13.5
t-21.5 -9.5t-25.5 -4t-24 7z" />
    <glyph glyph-name="idieresis" unicode="&#xef;" horiz-adv-x="598" 
d="M14 211q0 121 72 384.5t127 391.5q9 27 55 27q26 0 76 -11t103.5 -29.5t86.5 -49.5t21 -66q-147 -489 -156 -639q-3 -47 10 -72.5t33 -25.5q36 0 68.5 30.5t52.5 76t32.5 86t16.5 71.5h10.5t25 -2t36 -6.5t38 -14.5t35.5 -23.5t25.5 -36.5t10.5 -52q0 -54 -37.5 -113.5
t-98.5 -108t-147 -80.5t-174 -32q-152 0 -237 74t-85 221zM129 1266q-43 14 -67.5 35.5t-24.5 60.5q0 28 14 60t42 63.5t81.5 52.5t122.5 21q46 0 88.5 -35.5t42.5 -100.5q0 -22 -4 -47t-17.5 -57.5t-34.5 -58t-59.5 -43t-89.5 -17.5q-42 0 -64 13.5t-30 52.5zM496 1339
q0 22 7 46t25 51t45 48.5t71.5 35.5t100.5 14q47 0 94.5 -35t47.5 -98q0 -21 -5 -49t-19 -63t-34.5 -64t-55.5 -48.5t-79 -19.5q-71 0 -134.5 62t-63.5 120z" />
    <glyph glyph-name="eth" unicode="&#xf0;" horiz-adv-x="1122" 
d="M559 1147q-39 -15 -93 33q-43 37 -44 66q1 11 10 16l123 53q-46 37 -125 88q6 47 67 89t132 55.5t131 -1.5q79 -60 117 -102q106 37 129 43q20 5 65 -38q53 -51 47 -81q-3 -14 -24 -18l-111 -37q140 -210 177 -475t-42 -496q-52 -138 -154.5 -230.5t-219 -125.5
t-236.5 -19t-213 76q-94 64 -156.5 175.5t-82 229.5t-3.5 233.5t68 192.5q75 109 206 153.5t269 -7.5q77 -34 142.5 -120t90.5 -163q21 257 -149 457q-117 -45 -121 -47zM592 817q-29 17 -53.5 7t-44.5 -44q-47 -77 -72 -208t-8 -251.5t82 -152.5q46 -23 98 18t91 119
t56 164q-34 0 -55 16q-8 5 -12.5 50.5t-8.5 99t-22.5 108t-50.5 74.5z" />
    <glyph glyph-name="ntilde" unicode="&#xf1;" horiz-adv-x="1017" 
d="M600 549h-22q-71 -132 -132 -309.5t-67 -294.5q-62 -37 -166 -37q-102 0 -142 69.5t-40 198.5q0 218 31 421.5t88 334.5t124 131q38 0 83 -12t76.5 -32.5t25.5 -41.5q-31 -113 -47 -174.5t-34 -158t-24 -177.5h8q11 26 48.5 115.5t55.5 130t50.5 112t63 129t63.5 111.5
q21 41 84 41q45 0 113.5 -19t123 -51t50.5 -63q-11 -78 -87.5 -349t-76.5 -391q0 -135 76 -135q21 0 44 24t42 62t30.5 66t20.5 53q1 -2 15.5 0.5t37.5 -3.5t45 -15.5t37.5 -34t15.5 -60.5q0 -35 -25.5 -82t-70 -93t-115 -77.5t-149.5 -31.5q-92 0 -158.5 26.5t-101 71
t-48.5 95.5t-11 108q6 110 65 342zM387 1221q-29 0 -50.5 40t-6.5 62q28 42 91.5 92.5t119.5 50.5q52 0 100 -21.5t85 -43t62 -21.5q32 0 81.5 30t66.5 30q26 0 45.5 -36t5.5 -71q-18 -39 -88.5 -89t-144.5 -50q-48 0 -99.5 22t-92.5 44t-62 22t-60.5 -30.5t-52.5 -30.5z
" />
    <glyph glyph-name="ograve" unicode="&#xf2;" horiz-adv-x="1003" 
d="M12 430q8 134 70 278.5t159 250t197 124.5q67 -23 82 -53q45 27 113 27q99 0 172 -23.5t114.5 -61t65.5 -94t31 -112.5t4 -127q-3 -53 -13 -112.5t-30.5 -131t-49 -138t-73 -130t-98.5 -110t-128.5 -75t-160.5 -28.5q-98 0 -178.5 32t-132 83.5t-86 120t-48 139
t-10.5 141.5zM346 369q-11 -109 12 -179.5t78 -70.5q58 0 108.5 74.5t81.5 181.5t49 192.5t23 137.5q0 2 2 26.5t2.5 34t0.5 32.5t-3.5 34.5t-9 25.5t-16 20.5t-25.5 6.5q-36 0 -76 -49.5t-70.5 -121.5t-52.5 -136t-32 -109q-3 -2 -12.5 -0.5t-22 6.5t-16.5 10
q-17 -50 -21 -116zM625 1219l-191 262q-10 15 -12.5 30.5t5.5 28t26 16.5q183 34 217 -20q23 -33 55.5 -90.5t60 -110t31.5 -59.5q12 -23 7 -46.5t-25 -27.5q-139 -29 -174 17z" />
    <glyph glyph-name="oacute" unicode="&#xf3;" horiz-adv-x="1003" 
d="M12 430q8 134 70 278.5t159 250t197 124.5q67 -23 82 -53q45 27 113 27q99 0 172 -23.5t114.5 -61t65.5 -94t31 -112.5t4 -127q-3 -53 -13 -112.5t-30.5 -131t-49 -138t-73 -130t-98.5 -110t-128.5 -75t-160.5 -28.5q-98 0 -178.5 32t-132 83.5t-86 120t-48 139
t-10.5 141.5zM346 369q-11 -109 12 -179.5t78 -70.5q58 0 108.5 74.5t81.5 181.5t49 192.5t23 137.5q0 2 2 26.5t2.5 34t0.5 32.5t-3.5 34.5t-9 25.5t-16 20.5t-25.5 6.5q-36 0 -76 -49.5t-70.5 -121.5t-52.5 -136t-32 -109q-3 -2 -12.5 -0.5t-22 6.5t-16.5 10
q-17 -50 -21 -116zM733 1184q-19 -16 -71 0.5t-91.5 45.5t-27.5 44t54 69t63 79t55 57.5t63 46.5q57 28 155 -13q73 -31 96 -69q13 -21 -3 -33q-51 -40 -117 -90.5t-108.5 -83t-67.5 -53.5z" />
    <glyph glyph-name="ocircumflex" unicode="&#xf4;" horiz-adv-x="1003" 
d="M12 430q8 134 70 278.5t159 250t197 124.5q67 -23 82 -53q45 27 113 27q99 0 172 -23.5t114.5 -61t65.5 -94t31 -112.5t4 -127q-3 -53 -13 -112.5t-30.5 -131t-49 -138t-73 -130t-98.5 -110t-128.5 -75t-160.5 -28.5q-98 0 -178.5 32t-132 83.5t-86 120t-48 139
t-10.5 141.5zM346 369q-11 -109 12 -179.5t78 -70.5q58 0 108.5 74.5t81.5 181.5t49 192.5t23 137.5q0 2 2 26.5t2.5 34t0.5 32.5t-3.5 34.5t-9 25.5t-16 20.5t-25.5 6.5q-36 0 -76 -49.5t-70.5 -121.5t-52.5 -136t-32 -109q-3 -2 -12.5 -0.5t-22 6.5t-16.5 10
q-17 -50 -21 -116zM483 1202l-100 58q-57 33 -2 73q115 93 289 219l131 -18q46 -58 121 -162.5t88 -126.5q14 -20 6.5 -38t-29.5 -23q-40 -11 -79.5 -8t-55.5 22q-18 20 -59.5 79.5t-53.5 74.5q-12 -10 -161 -129q-15 -9 -23 -13.5t-22 -10t-26 -4.5t-24 7z" />
    <glyph glyph-name="otilde" unicode="&#xf5;" horiz-adv-x="1003" 
d="M12 430q8 134 70 278.5t159 250t197 124.5q67 -23 82 -53q45 27 113 27q99 0 172 -23.5t114.5 -61t65.5 -94t31 -112.5t4 -127q-3 -53 -13 -112.5t-30.5 -131t-49 -138t-73 -130t-98.5 -110t-128.5 -75t-160.5 -28.5q-98 0 -178.5 32t-132 83.5t-86 120t-48 139
t-10.5 141.5zM346 369q-11 -109 12 -179.5t78 -70.5q58 0 108.5 74.5t81.5 181.5t49 192.5t23 137.5q0 2 2 26.5t2.5 34t0.5 32.5t-3.5 34.5t-9 25.5t-16 20.5t-25.5 6.5q-36 0 -76 -49.5t-70.5 -121.5t-52.5 -136t-32 -109q-3 -2 -12.5 -0.5t-22 6.5t-16.5 10
q-17 -50 -21 -116zM424 1214q-29 0 -50.5 40.5t-6.5 62.5q28 42 91.5 92.5t119.5 50.5q52 0 100 -21.5t85 -43t62 -21.5q32 0 81.5 30t66.5 30q26 0 45.5 -36t5.5 -71q-18 -39 -88.5 -89t-144.5 -50q-48 0 -99.5 22t-92.5 44t-62 22t-60.5 -31t-52.5 -31z" />
    <glyph glyph-name="odieresis" unicode="&#xf6;" horiz-adv-x="1003" 
d="M12 430q8 134 70 278.5t159 250t197 124.5q67 -23 82 -53q45 27 113 27q99 0 172 -23.5t114.5 -61t65.5 -94t31 -112.5t4 -127q-3 -53 -13 -112.5t-30.5 -131t-49 -138t-73 -130t-98.5 -110t-128.5 -75t-160.5 -28.5q-98 0 -178.5 32t-132 83.5t-86 120t-48 139
t-10.5 141.5zM346 369q-11 -109 12 -179.5t78 -70.5q58 0 108.5 74.5t81.5 181.5t49 192.5t23 137.5q0 2 2 26.5t2.5 34t0.5 32.5t-3.5 34.5t-9 25.5t-16 20.5t-25.5 6.5q-36 0 -76 -49.5t-70.5 -121.5t-52.5 -136t-32 -109q-3 -2 -12.5 -0.5t-22 6.5t-16.5 10
q-17 -50 -21 -116zM354 1268q-43 14 -67.5 35.5t-24.5 60.5q0 28 14 60t42 63.5t81.5 52.5t122.5 21q46 0 88.5 -35.5t42.5 -100.5q0 -22 -4 -47t-17 -57.5t-34 -58t-59.5 -43t-89.5 -17.5q-42 0 -64.5 13.5t-30.5 52.5zM721 1341q0 28 12.5 59t39 63t78 52.5t120.5 20.5
q47 0 94 -35t47 -98q0 -21 -5 -49t-18.5 -63t-34 -64t-55.5 -48.5t-79 -19.5q-71 0 -135 62t-64 120z" />
    <glyph glyph-name="divide" unicode="&#xf7;" horiz-adv-x="1101" 
d="M281 492q-37 -6 -85 56.5t-63.5 120.5t6.5 74q156 38 401.5 61.5t358.5 18.5q21 -1 64 -76q58 -102 57 -162q0 -38 -31 -38q-372 -5 -708 -55zM463 1010q-51 16 -79 40.5t-28 69.5q0 31 16 66.5t49 71t94 58.5t140 23q52 0 100 -38.5t48 -110.5q0 -24 -5.5 -55t-21 -70
t-39 -70.5t-63.5 -53t-90 -21.5q-74 0 -105.5 19.5t-15.5 70.5zM256 190q0 31 16 66.5t49 71.5t94 59t140 23q52 0 99.5 -39t47.5 -111q0 -32 -10 -72.5t-33 -87.5t-69.5 -78.5t-108.5 -31.5q-81 0 -153 68.5t-72 131.5z" />
    <glyph glyph-name="oslash" unicode="&#xf8;" horiz-adv-x="1003" 
d="M12 430q8 134 70 278.5t159 250t197 124.5q67 -23 82 -53q45 27 113 27q85 0 153 -19q93 127 158 127q38 0 57 -23.5t11 -54.5q-44 -41 -99 -112q65 -54 87.5 -138.5t19.5 -197.5q-3 -53 -13 -112.5t-30.5 -131t-49 -138t-73 -130t-98.5 -110t-128.5 -75t-160.5 -28.5
q-91 0 -170 29q-85 -143 -125 -191q-35 -2 -59.5 19t-20.5 49q15 88 82 192q-86 74 -126.5 187.5t-35.5 230.5zM319 365q-9 -90 5 -152q66 116 188 349.5t176 326.5q-12 4 -20 4q-42 0 -89.5 -50.5t-85 -122t-65 -139t-37.5 -110.5q-1 -4 -20 1t-27 11q-21 -50 -25 -118z
M420 111q50 0 97 46t79.5 113t59.5 149.5t41.5 147.5t21.5 115q-93 -154 -324 -569q6 -2 25 -2z" />
    <glyph glyph-name="ugrave" unicode="&#xf9;" horiz-adv-x="1077" 
d="M659 244l-18 6q-19 -43 -45 -87t-64.5 -93.5t-88.5 -81t-101 -31.5q-68 0 -145 43.5t-130 113t-53 136.5q0 123 35.5 306t94 328.5t112.5 145.5q97 0 165.5 -26t82.5 -50q-184 -548 -150 -729l23 -10q82 83 180 346t143 451q7 28 84 28q43 0 99 -22t94 -50.5t35 -45.5
q-4 -26 -27.5 -162.5t-43 -265t-23.5 -187.5q-6 -60 11.5 -100.5t57.5 -40.5q24 0 46.5 21.5t38.5 52t29 61.5t19 53l6 21q156 0 156 -107q0 -44 -27.5 -95t-74.5 -95.5t-117.5 -73.5t-147.5 -29q-67 0 -116.5 17t-77 43.5t-43 64t-19 71.5t-0.5 73zM584 1210l-191 263
q-10 15 -12.5 30.5t5.5 28t26 16.5q183 34 217 -20q23 -33 55.5 -90.5t60 -110t31.5 -59.5q12 -23 7 -46.5t-25 -27.5q-140 -29 -174 16z" />
    <glyph glyph-name="uacute" unicode="&#xfa;" horiz-adv-x="1077" 
d="M659 244l-18 6q-19 -43 -45 -87t-64.5 -93.5t-88.5 -81t-101 -31.5q-68 0 -145 43.5t-130 113t-53 136.5q0 123 35.5 306t94 328.5t112.5 145.5q97 0 165.5 -26t82.5 -50q-184 -548 -150 -729l23 -10q82 83 180 346t143 451q7 28 84 28q43 0 99 -22t94 -50.5t35 -45.5
q-4 -26 -27.5 -162.5t-43 -265t-23.5 -187.5q-6 -60 11.5 -100.5t57.5 -40.5q24 0 46.5 21.5t38.5 52t29 61.5t19 53l6 21q156 0 156 -107q0 -44 -27.5 -95t-74.5 -95.5t-117.5 -73.5t-147.5 -29q-67 0 -116.5 17t-77 43.5t-43 64t-19 71.5t-0.5 73zM688 1192
q-19 -16 -71 0.5t-91.5 45.5t-27.5 44t54 69t63 79t55 57.5t63 46.5q57 28 155 -13q73 -31 96 -69q13 -21 -3 -33q-51 -40 -117 -90.5t-108.5 -83t-67.5 -53.5z" />
    <glyph glyph-name="ucircumflex" unicode="&#xfb;" horiz-adv-x="1077" 
d="M659 244l-18 6q-19 -43 -45 -87t-64.5 -93.5t-88.5 -81t-101 -31.5q-68 0 -145 43.5t-130 113t-53 136.5q0 123 35.5 306t94 328.5t112.5 145.5q97 0 165.5 -26t82.5 -50q-184 -548 -150 -729l23 -10q82 83 180 346t143 451q7 28 84 28q43 0 99 -22t94 -50.5t35 -45.5
q-4 -26 -27.5 -162.5t-43 -265t-23.5 -187.5q-6 -60 11.5 -100.5t57.5 -40.5q24 0 46.5 21.5t38.5 52t29 61.5t19 53l6 21q156 0 156 -107q0 -44 -27.5 -95t-74.5 -95.5t-117.5 -73.5t-147.5 -29q-67 0 -116.5 17t-77 43.5t-43 64t-19 71.5t-0.5 73zM459 1200l-101 57
q-58 33 -2 74q115 93 289 219l131 -18q46 -58 121 -162.5t88 -126.5q14 -20 7 -38t-29 -23q-40 -11 -80 -8t-56 22q-18 20 -58.5 79.5t-53.5 74.5q-1 -1 -162 -129q-16 -10 -23.5 -14t-21.5 -9.5t-25.5 -4.5t-23.5 7z" />
    <glyph glyph-name="udieresis" unicode="&#xfc;" horiz-adv-x="1077" 
d="M659 244l-18 6q-19 -43 -45 -87t-64.5 -93.5t-88.5 -81t-101 -31.5q-68 0 -145 43.5t-130 113t-53 136.5q0 123 35.5 306t94 328.5t112.5 145.5q97 0 165.5 -26t82.5 -50q-184 -548 -150 -729l23 -10q82 83 180 346t143 451q7 28 84 28q43 0 99 -22t94 -50.5t35 -45.5
q-4 -26 -27.5 -162.5t-43 -265t-23.5 -187.5q-6 -60 11.5 -100.5t57.5 -40.5q24 0 46.5 21.5t38.5 52t29 61.5t19 53l6 21q156 0 156 -107q0 -44 -27.5 -95t-74.5 -95.5t-117.5 -73.5t-147.5 -29q-67 0 -116.5 17t-77 43.5t-43 64t-19 71.5t-0.5 73zM338 1270
q-43 14 -67.5 35.5t-24.5 60.5q0 28 14 60t42 63.5t81.5 52.5t122.5 21q46 0 88.5 -35.5t42.5 -100.5q0 -22 -4 -47t-17.5 -57.5t-34.5 -58t-59.5 -43t-89.5 -17.5q-42 0 -64 13.5t-30 52.5zM705 1343q0 22 7 46t25 51t45 48.5t71.5 35.5t100.5 14q47 0 94.5 -35t47.5 -98
q0 -21 -5 -49t-19 -63t-34.5 -64t-55.5 -48.5t-79 -19.5q-71 0 -134.5 62t-63.5 120z" />
    <glyph glyph-name="yacute" unicode="&#xfd;" horiz-adv-x="958" 
d="M14 287q1 180 44.5 362.5t111.5 321.5q47 78 143 78q78 0 146.5 -35.5t68.5 -71.5q-6 -18 -33.5 -102t-36.5 -113t-30 -101t-30 -114.5t-18.5 -101.5t-12.5 -111q-8 -92 30 -92q37 0 88.5 92t69.5 164q2 8 36 169.5t69 283.5t59 122q97 0 195 -33t98 -67
q0 -86 -29.5 -198t-66 -215.5t-42.5 -137.5q-35 -160 -80 -409t-63 -386q-6 -26 -13 -42t-17 -23t-18.5 -8.5t-23.5 -1.5q-22 0 -105.5 25.5t-133.5 43.5q-20 7 -25.5 17t-5.5 35q0 42 48 228.5t59 254.5q-37 -54 -96.5 -91.5t-131.5 -37.5q-59 0 -105.5 19.5t-73.5 49.5
t-44.5 70.5t-24 78t-6.5 77.5zM688 1184q-19 -16 -71 0.5t-91.5 45.5t-27.5 44t54 69t63 79t55 57.5t63 46.5q57 28 155 -13q73 -31 96 -69q13 -21 -3 -33q-51 -40 -117 -90.5t-108.5 -83t-67.5 -53.5z" />
    <glyph glyph-name="thorn" unicode="&#xfe;" horiz-adv-x="866" 
d="M-70 358q80 402 177.5 775t134.5 380q48 9 115.5 -7t116 -45.5t48.5 -57.5q-33 -85 -93.5 -261t-82.5 -261q64 90 115 133t125 43q134 0 243 -119t109 -262q0 -40 -7.5 -95.5t-25 -127t-43.5 -142.5t-67.5 -140t-92 -121.5t-121 -85t-151.5 -32.5q-65 0 -133.5 30.5
t-118.5 74.5q-16 -90 -34 -265.5t-19 -181.5q-7 -27 -21 -40.5t-24.5 -16t-28.5 -2.5q-22 0 -105 25t-128 41q-19 7 -21.5 49.5t11.5 124.5t31.5 162.5t45.5 208t45 216.5zM328 457l-37 18q-23 -74 -31 -201q-3 -53 20.5 -91t61.5 -38q44 0 83 43.5t66.5 114t48.5 144
t34 150.5t18.5 114.5t7.5 54.5q2 20 1.5 39.5t-3 34.5t-11.5 24.5t-24 9.5q-47 0 -98 -81t-82 -176t-35 -154q0 -1 -9 -3.5t-11 -2.5z" />
    <glyph glyph-name="ydieresis" unicode="&#xff;" horiz-adv-x="958" 
d="M14 287q1 180 44.5 362.5t111.5 321.5q47 78 143 78q78 0 146.5 -35.5t68.5 -71.5q-6 -18 -33.5 -102t-36.5 -113t-30 -101t-30 -114.5t-18.5 -101.5t-12.5 -111q-8 -92 30 -92q37 0 88.5 92t69.5 164q2 8 36 169.5t69 283.5t59 122q97 0 195 -33t98 -67
q0 -86 -29.5 -198t-66 -215.5t-42.5 -137.5q-35 -160 -80 -409t-63 -386q-6 -26 -13 -42t-17 -23t-18.5 -8.5t-23.5 -1.5q-22 0 -105.5 25.5t-133.5 43.5q-20 7 -25.5 17t-5.5 35q0 42 48 228.5t59 254.5q-37 -54 -96.5 -91.5t-131.5 -37.5q-59 0 -105.5 19.5t-73.5 49.5
t-44.5 70.5t-24 78t-6.5 77.5zM346 1268q-43 14 -67.5 35.5t-24.5 60.5q0 28 14 60t42 63.5t81.5 52.5t122.5 21q46 0 88.5 -35.5t42.5 -100.5q0 -22 -4 -47t-17.5 -57.5t-34.5 -58t-59.5 -43t-89.5 -17.5q-42 0 -64 13.5t-30 52.5zM713 1341q0 28 12.5 59t39 63t78 52.5
t120.5 20.5q47 0 94 -35t47 -98q0 -21 -5 -49t-19 -63t-34.5 -64t-55.5 -48.5t-79 -19.5q-71 0 -134.5 62t-63.5 120z" />
    <glyph glyph-name="Amacron" unicode="&#x100;" horiz-adv-x="1218" 
d="M782 238l29 6q-2 59 -2 184q-180 -11 -406 -39q-106 -249 -174 -555q-4 -17 -40.5 -19t-86.5 9t-99.5 27.5t-86 38t-39.5 38.5q22 172 148 463q-33 46 -47 105.5t8 72.5q36 19 147 41q108 201 233 373.5t273.5 312.5t286.5 195q68 18 166.5 -20t140.5 -78
q-56 -250 -76 -560.5t-12 -532.5t29 -361q-13 -34 -86.5 -23.5t-162 45t-104.5 57.5q-25 36 -34 101t-5 119zM885 1141q-192 -188 -346 -469q25 3 104 8q14 1 62.5 4t66.5 3t53 -3q20 202 74 455zM707 1720q107 24 274.5 31.5t288.5 1.5q23 -1 62 -59q51 -73 45 -115
q-4 -25 -34 -25q-138 4 -272.5 3.5t-236.5 -11.5q-49 -5 -102 61q-44 54 -41 92q2 17 16 21z" />
    <glyph glyph-name="amacron" unicode="&#x101;" horiz-adv-x="1112" 
d="M741 94h-14q-44 -62 -116 -105.5t-160 -43.5q-194 0 -311 111t-117 309q0 135 35 263t98.5 232t164.5 167t222 63q171 0 280 -57.5t109 -135.5l-4 -33q6 -1 26.5 -3.5t39 -5.5t37.5 -8t28.5 -15t5.5 -23q-98 -305 -107 -537q-7 -147 54 -147q30 0 52 19.5t35.5 56.5
t21 77t12.5 95q8 1 20.5 2t45.5 -3t58 -15.5t45.5 -41.5t20.5 -75q0 -50 -21.5 -102t-62 -99t-109.5 -77t-153 -30q-53 0 -95 12.5t-67 30.5t-42 41.5t-23.5 42t-8.5 35.5zM385 295q-7 -82 3 -117t38 -35q42 0 92.5 111.5t81.5 223.5t35 153q-52 10 -70 39q53 78 66 178
q7 57 -25 57q-51 0 -102.5 -116t-81.5 -254t-37 -240zM334 1395q107 24 274 31t289 1q23 -1 63 -59q51 -73 44 -114q-4 -25 -33 -25q-138 4 -273 3.5t-237 -11.5q-49 -5 -102 61q-44 54 -41 92q2 17 16 21z" />
    <glyph glyph-name="Abreve" unicode="&#x102;" horiz-adv-x="1218" 
d="M782 238l29 6q-2 59 -2 184q-180 -11 -406 -39q-106 -249 -174 -555q-4 -17 -40.5 -19t-86.5 9t-99.5 27.5t-86 38t-39.5 38.5q22 172 148 463q-33 46 -47 105.5t8 72.5q36 19 147 41q108 201 233 373.5t273.5 312.5t286.5 195q68 18 166.5 -20t140.5 -78
q-56 -250 -76 -560.5t-12 -532.5t29 -361q-13 -34 -86.5 -23.5t-162 45t-104.5 57.5q-25 36 -34 101t-5 119zM885 1141q-192 -188 -346 -469q25 3 104 8q14 1 62.5 4t66.5 3t53 -3q20 202 74 455zM1210 1837q5 12 41.5 9.5t78 -11t76.5 -25.5t36 -34q-27 -90 -118.5 -162
t-207.5 -72q-108 0 -177 49t-99 115q-9 20 -8.5 44t9 44.5t31 32t54.5 6.5q16 -36 30.5 -60t44 -45.5t64.5 -21.5q52 0 85 36.5t60 94.5z" />
    <glyph glyph-name="abreve" unicode="&#x103;" horiz-adv-x="1112" 
d="M741 94h-14q-44 -62 -116 -105.5t-160 -43.5q-194 0 -311 111t-117 309q0 135 35 263t98.5 232t164.5 167t222 63q171 0 280 -57.5t109 -135.5l-4 -33q6 -1 26.5 -3.5t39 -5.5t37.5 -8t28.5 -15t5.5 -23q-98 -305 -107 -537q-7 -147 54 -147q30 0 52 19.5t35.5 56.5
t21 77t12.5 95q8 1 20.5 2t45.5 -3t58 -15.5t45.5 -41.5t20.5 -75q0 -50 -21.5 -102t-62 -99t-109.5 -77t-153 -30q-53 0 -95 12.5t-67 30.5t-42 41.5t-23.5 42t-8.5 35.5zM385 295q-7 -82 3 -117t38 -35q42 0 92.5 111.5t81.5 223.5t35 153q-52 10 -70 39q53 78 66 178
q7 57 -25 57q-51 0 -102.5 -116t-81.5 -254t-37 -240zM782 1489q5 12 41.5 9.5t78 -11t76.5 -26t36 -34.5q-27 -90 -118.5 -161.5t-207.5 -71.5q-108 0 -177 49t-99 115q-9 20 -8.5 44t9 44.5t31 32t54.5 6.5q16 -36 30.5 -60t44 -45.5t64.5 -21.5q52 0 85 36.5t60 94.5z
" />
    <glyph glyph-name="Aogonek" unicode="&#x104;" horiz-adv-x="1218" 
d="M668 -203q0 147 151 223q-24 37 -32.5 101t-4.5 117l29 6q-2 59 -2 184q-180 -11 -406 -39q-106 -249 -174 -555q-4 -17 -40.5 -19t-86.5 9t-99.5 27.5t-86 38t-39.5 38.5q22 172 148 463q-33 46 -47 105.5t8 72.5q36 19 147 41q108 201 233 373.5t273.5 312.5t286.5 195
q68 18 166.5 -20t140.5 -78q-56 -250 -76 -560.5t-12 -532.5t29 -361q-3 -35 -101 -21q-5 -2 -38 -10.5t-49.5 -14t-46 -20t-44.5 -29.5t-28 -40.5t-13 -55.5t24.5 -47.5t61.5 -17.5q53 0 107 24t81 57q43 -10 87.5 -44.5t44.5 -81.5q0 -15 -12 -30.5t-38.5 -31.5
t-79.5 -26.5t-124 -10.5q-150 0 -244 74.5t-94 183.5zM885 1141q-192 -188 -346 -469q25 3 104 8q14 1 62.5 4t66.5 3t53 -3q20 202 74 455z" />
    <glyph glyph-name="aogonek" unicode="&#x105;" horiz-adv-x="1112" 
d="M690 -170q0 108 80 178q-23 29 -29 86h-14q-44 -62 -116 -105.5t-160 -43.5q-194 0 -311 111t-117 309q0 135 35 263t98.5 232t164.5 167t222 63q171 0 280 -57.5t109 -135.5l-4 -33q6 -1 26.5 -3.5t39 -5.5t37.5 -8t28.5 -15t5.5 -23q-98 -305 -107 -537
q-7 -147 54 -147q30 0 52 19.5t35.5 56.5t21 77t12.5 95q8 1 20.5 2t45.5 -3t58 -15.5t45.5 -41.5t20.5 -75q0 -50 -21.5 -102t-62 -99t-107.5 -77t-149 -30q-66 0 -99.5 -39.5t-33.5 -95.5q0 -39 32 -60.5t81 -21.5q53 0 107 24.5t81 57.5q42 -10 86.5 -45t44.5 -82
q0 -15 -12 -30.5t-38.5 -31.5t-79.5 -26t-124 -10q-150 0 -244 74.5t-94 183.5zM385 295q-7 -82 3 -117t38 -35q42 0 92.5 111.5t81.5 223.5t35 153q-52 10 -70 39q53 78 66 178q7 57 -25 57q-51 0 -102.5 -116t-81.5 -254t-37 -240z" />
    <glyph glyph-name="Cacute" unicode="&#x106;" horiz-adv-x="1200" 
d="M31 496q0 127 32.5 262t97.5 261.5t153.5 227t210 161t257.5 60.5q70 0 144.5 -25t136.5 -68t101.5 -108t39.5 -139q0 -77 -24.5 -143.5t-64 -109t-86 -67t-91.5 -24.5q-130 0 -182 119q6 6 15 17.5t33 47t42 70t33 81t16 87.5q0 32 -18 50t-46 18q-58 0 -133.5 -76.5
t-141.5 -195t-111.5 -277.5t-45.5 -307q0 -291 189 -291q50 0 93 21t74.5 58.5t57 82.5t42.5 99t28 101.5t18 96.5q66 28 162 28q72 0 118 -48t46 -140q0 -61 -21 -130.5t-67.5 -142t-111 -130.5t-162 -95t-210.5 -37q-289 0 -456.5 163t-167.5 442zM920 1550
q-19 -16 -71.5 0.5t-92 45.5t-27.5 44q11 13 54 69t63.5 79.5t55 56.5t63.5 47q57 29 155 -13q74 -31 95 -69q11 -20 -3 -32q-278 -216 -292 -228z" />
    <glyph glyph-name="cacute" unicode="&#x107;" horiz-adv-x="905" 
d="M20 358q0 86 19 177t60.5 180.5t99 159.5t142 113.5t183.5 43.5q61 0 125.5 -18.5t120 -51t91.5 -84t36 -110.5q0 -136 -58.5 -217.5t-144.5 -81.5q-115 0 -141 90v12q8 14 20.5 37t35 86.5t26.5 116.5q0 41 -29 41q-32 0 -68 -41.5t-66 -110t-49.5 -168t-19.5 -204.5
q0 -240 164 -240q76 0 139 50t98 121t44 147q45 24 98 24q61 0 99 -41.5t38 -112.5q0 -41 -17.5 -89.5t-58.5 -101.5t-100 -95.5t-151 -70.5t-201 -28q-144 0 -264.5 55t-195.5 163t-75 249zM711 1182q-19 -16 -71.5 0.5t-92 45.5t-27.5 44q11 13 54 69t63.5 79.5t55 56.5
t63.5 47q57 28 155 -13q73 -31 96 -69q13 -21 -3 -33q-51 -40 -117 -90.5t-108.5 -83t-67.5 -53.5z" />
    <glyph glyph-name="Ccircumflex" unicode="&#x108;" horiz-adv-x="1200" 
d="M31 496q0 127 32.5 262t97.5 261.5t153.5 227t210 161t257.5 60.5q70 0 144.5 -25t136.5 -68t101.5 -108t39.5 -139q0 -77 -24.5 -143.5t-64 -109t-86 -67t-91.5 -24.5q-130 0 -182 119q6 6 15 17.5t33 47t42 70t33 81t16 87.5q0 32 -18 50t-46 18q-58 0 -133.5 -76.5
t-141.5 -195t-111.5 -277.5t-45.5 -307q0 -291 189 -291q50 0 93 21t74.5 58.5t57 82.5t42.5 99t28 101.5t18 96.5q66 28 162 28q72 0 118 -48t46 -140q0 -61 -21 -130.5t-67.5 -142t-111 -130.5t-162 -95t-210.5 -37q-289 0 -456.5 163t-167.5 442zM643 1542l-100 57
q-58 33 -2 74q124 100 288 219l132 -18q45 -58 119.5 -162t88.5 -127q14 -20 7 -38t-29 -23q-40 -11 -79.5 -8t-55.5 22q-18 20 -59.5 79.5t-53.5 74.5q-1 -1 -162 -129q-16 -10 -23.5 -14t-21.5 -9.5t-25.5 -4.5t-23.5 7z" />
    <glyph glyph-name="ccircumflex" unicode="&#x109;" horiz-adv-x="905" 
d="M20 358q0 86 19 177t60.5 180.5t99 159.5t142 113.5t183.5 43.5q61 0 125.5 -18.5t120 -51t91.5 -84t36 -110.5q0 -136 -58.5 -217.5t-144.5 -81.5q-115 0 -141 90v12q8 14 20.5 37t35 86.5t26.5 116.5q0 41 -29 41q-32 0 -68 -41.5t-66 -110t-49.5 -168t-19.5 -204.5
q0 -240 164 -240q76 0 139 50t98 121t44 147q45 24 98 24q61 0 99 -41.5t38 -112.5q0 -41 -17.5 -89.5t-58.5 -101.5t-100 -95.5t-151 -70.5t-201 -28q-144 0 -264.5 55t-195.5 163t-75 249zM442 1188l-100 57q-58 33 -2 74q115 93 289 219l131 -18q46 -58 121 -162.5
t88 -126.5q14 -20 6.5 -38.5t-29.5 -23.5q-41 -11 -79.5 -7.5t-55.5 22.5q-18 20 -59.5 79t-53.5 74q-12 -11 -161 -129q-14 -9 -23 -13.5t-22.5 -9.5t-25.5 -4t-24 7z" />
    <glyph glyph-name="Cdotaccent" unicode="&#x10a;" horiz-adv-x="1200" 
d="M31 496q0 127 32.5 262t97.5 261.5t153.5 227t210 161t257.5 60.5q70 0 144.5 -25t136.5 -68t101.5 -108t39.5 -139q0 -77 -24.5 -143.5t-64 -109t-86 -67t-91.5 -24.5q-130 0 -182 119q6 6 15 17.5t33 47t42 70t33 81t16 87.5q0 32 -18 50t-46 18q-58 0 -133.5 -76.5
t-141.5 -195t-111.5 -277.5t-45.5 -307q0 -291 189 -291q50 0 93 21t74.5 58.5t57 82.5t42.5 99t28 101.5t18 96.5q66 28 162 28q72 0 118 -48t46 -140q0 -61 -21 -130.5t-67.5 -142t-111 -130.5t-162 -95t-210.5 -37q-289 0 -456.5 163t-167.5 442zM809 1595q-44 14 -69 36
t-25 61q0 28 14 59.5t42.5 63.5t82 52.5t123.5 20.5q45 0 87 -35t42 -100q0 -22 -3.5 -47t-17 -57.5t-34.5 -58t-60 -43t-90 -17.5q-42 0 -63.5 13t-28.5 52z" />
    <glyph glyph-name="cdotaccent" unicode="&#x10b;" horiz-adv-x="905" 
d="M20 358q0 86 19 177t60.5 180.5t99 159.5t142 113.5t183.5 43.5q61 0 125.5 -18.5t120 -51t91.5 -84t36 -110.5q0 -136 -58.5 -217.5t-144.5 -81.5q-115 0 -141 90v12q8 14 20.5 37t35 86.5t26.5 116.5q0 41 -29 41q-32 0 -68 -41.5t-66 -110t-49.5 -168t-19.5 -204.5
q0 -240 164 -240q76 0 139 50t98 121t44 147q45 24 98 24q61 0 99 -41.5t38 -112.5q0 -41 -17.5 -89.5t-58.5 -101.5t-100 -95.5t-151 -70.5t-201 -28q-144 0 -264.5 55t-195.5 163t-75 249zM602 1233q-45 14 -69.5 35.5t-24.5 60.5q0 28 14 60t42.5 63.5t82 52.5t123.5 21
q45 0 87 -35t42 -100q0 -30 -7.5 -62t-27 -71.5t-63.5 -65t-107 -25.5q-42 0 -63.5 13.5t-28.5 52.5z" />
    <glyph glyph-name="Ccaron" unicode="&#x10c;" horiz-adv-x="1200" 
d="M31 496q0 127 32.5 262t97.5 261.5t153.5 227t210 161t257.5 60.5q70 0 144.5 -25t136.5 -68t101.5 -108t39.5 -139q0 -77 -24.5 -143.5t-64 -109t-86 -67t-91.5 -24.5q-130 0 -182 119q6 6 15 17.5t33 47t42 70t33 81t16 87.5q0 32 -18 50t-46 18q-58 0 -133.5 -76.5
t-141.5 -195t-111.5 -277.5t-45.5 -307q0 -291 189 -291q50 0 93 21t74.5 58.5t57 82.5t42.5 99t28 101.5t18 96.5q66 28 162 28q72 0 118 -48t46 -140q0 -61 -21 -130.5t-67.5 -142t-111 -130.5t-162 -95t-210.5 -37q-289 0 -456.5 163t-167.5 442zM1130 1874l101 -55
q28 -12 29 -33t-27 -41q-115 -93 -289 -219l-131 18q-86 109 -215 293q-14 20 -7.5 39.5t27.5 24.5q104 22 138 -15q16 -19 59 -81t57 -79q26 22 87 68t77 59q56 42 94 21z" />
    <glyph glyph-name="ccaron" unicode="&#x10d;" horiz-adv-x="905" 
d="M20 358q0 86 19 177t60.5 180.5t99 159.5t142 113.5t183.5 43.5q61 0 125.5 -18.5t120 -51t91.5 -84t36 -110.5q0 -136 -58.5 -217.5t-144.5 -81.5q-115 0 -141 90v12q8 14 20.5 37t35 86.5t26.5 116.5q0 41 -29 41q-32 0 -68 -41.5t-66 -110t-49.5 -168t-19.5 -204.5
q0 -240 164 -240q76 0 139 50t98 121t44 147q45 24 98 24q61 0 99 -41.5t38 -112.5q0 -41 -17.5 -89.5t-58.5 -101.5t-100 -95.5t-151 -70.5t-201 -28q-144 0 -264.5 55t-195.5 163t-75 249zM928 1520l100 -56q28 -12 29 -32.5t-27 -40.5q-127 -103 -289 -220l-131 19
q-86 109 -215 293q-14 20 -7 39t28 24q104 22 137 -14q16 -19 59.5 -81t57.5 -79q26 22 87 68t77 59q56 42 94 21z" />
    <glyph glyph-name="Dcaron" unicode="&#x10e;" horiz-adv-x="1527" 
d="M285 174q30 -78 113.5 -136t207.5 -58q110 0 215 64.5t185.5 174.5t130 267.5t49.5 332.5q0 132 -54.5 227t-150.5 140q-58 -229 -126 -547t-93 -459q-11 -53 -36.5 -74.5t-66.5 -21.5q-83 0 -166 32.5t-102 51.5q37 219 113 518.5t145 517.5q-80 -24 -139.5 -77
t-89 -110t-45.5 -124q0 -2 -10 -2q-22 0 -75 7.5t-115.5 29t-68.5 51.5q1 9 4.5 24t21 59.5t42.5 85t74 90t110 85.5t156 62t207 28q21 80 96 80q67 0 139 -20.5t99 -40.5l-21 -56q246 -67 387.5 -240t141.5 -417q0 -215 -72 -394t-193 -296t-277.5 -181.5t-328.5 -64.5
q-128 0 -251 28t-220 75t-172.5 107t-118 128t-47.5 133q19 31 70 64.5t101.5 48.5t84.5 -2q52 -33 105.5 -77.5t56.5 -68.5q1 -9 -9 -23.5t-7 -21.5zM1204 1878l101 -55q28 -12 29 -33t-27 -41q-115 -93 -289 -219l-131 18q-86 109 -215 293q-14 20 -7.5 39.5t27.5 24.5
q103 22 137 -15q16 -19 59.5 -80.5t57.5 -78.5q26 22 87 68t77 59q55 41 94 20z" />
    <glyph glyph-name="dcaron" unicode="&#x10f;" horiz-adv-x="1378" 
d="M731 125h-8q-18 -37 -42 -71.5t-61 -72.5t-88.5 -60.5t-109.5 -22.5q-96 0 -173.5 38.5t-123.5 101t-70 135.5t-24 149q0 70 13 149t38.5 162.5t67.5 159.5t95.5 136t127 96t157.5 36q40 0 78.5 -9.5t65 -22.5t47.5 -26t31 -23l10 -9q12 58 26.5 138t28 162t17.5 103
q28 162 86 162q32 0 78.5 -7.5t95.5 -22t81 -40t27 -57.5q-12 -82 -113.5 -583t-101.5 -605q0 -86 53 -86q38 0 71.5 48.5t51.5 109t25 119.5q4 1 10 2t23.5 2t33.5 -0.5t35.5 -8.5t34 -20t24 -37t9.5 -57q0 -43 -20.5 -91t-60 -93.5t-90.5 -82t-117.5 -59t-135.5 -22.5
q-93 0 -148 56t-55 124zM358 223v-6q0 -22 0.5 -35t3 -34t9.5 -31.5t18 -10.5q40 0 101 110t104 230.5t45 163.5q-31 4 -47 35q3 7 12 30t14 37t12 35t10.5 39.5t4.5 34.5q9 62 -24 62q-57 0 -117 -113.5t-99 -266t-47 -280.5zM1282 1362q0 61 56 100t147 39
q83 0 139.5 -43.5t56.5 -124.5q0 -83 -64 -154t-159 -94q-54 -14 -105.5 -11.5t-86 19t-49.5 45.5t4 68q57 -2 109.5 10.5t66.5 36.5q-46 6 -80.5 31t-34.5 78z" />
    <glyph glyph-name="Dcroat" unicode="&#x110;" horiz-adv-x="1527" 
d="M342 702q79 16 172 25q85 323 135 477q-80 -24 -139.5 -77t-89 -110t-45.5 -124q0 -2 -10 -2q-22 0 -75 7.5t-115.5 29t-68.5 51.5q1 9 4.5 24t21 59.5t42.5 85t74 90t110 85.5t156 62t207 28q21 80 96 80q67 0 139 -20.5t99 -40.5l-21 -56q246 -67 387.5 -240
t141.5 -417q0 -215 -72 -394t-193 -296t-277.5 -181.5t-328.5 -64.5q-128 0 -251 28t-220 75t-172.5 107t-118 128t-47.5 133q19 31 70 64.5t101.5 48.5t84.5 -2q52 -33 105.5 -77.5t56.5 -68.5q1 -9 -9 -23.5t-7 -21.5q30 -78 113.5 -136t207.5 -58q110 0 215 64.5
t185.5 174.5t130 267.5t49.5 332.5q0 132 -54.5 227t-150.5 140q-39 -150 -107 -451h31q23 -1 63 -59q51 -73 44 -114q-4 -25 -33 -25q-26 0 -74.5 1t-70.5 1q-56 -252 -72 -359q-11 -53 -36.5 -74.5t-66.5 -21.5q-83 0 -166 32.5t-102 51.5q21 126 74 360q-48 -2 -99 62
q-44 55 -41 92q2 17 17 20z" />
    <glyph glyph-name="dcroat" unicode="&#x111;" horiz-adv-x="1159" 
d="M752 1139q-41 -4 -90 56q-42 50 -38 79q1 10 11 12q105 16 186 23l13 65q28 162 86 162q32 0 78.5 -7.5t95.5 -22t81 -40t27 -57.5l-14 -78h69q21 0 60 -52q49 -64 39 -94q-5 -14 -25 -14l-174 -4q-13 -66 -42 -208t-47 -233.5t-39 -202.5t-31.5 -186.5t-10.5 -115.5
q0 -86 53 -86q38 0 71.5 48.5t51.5 109t25 119.5q4 1 10 2t23.5 2t33.5 -0.5t35.5 -8.5t34 -20t24 -37t9.5 -57q0 -43 -20.5 -91t-60 -93.5t-90.5 -82t-117.5 -59t-135.5 -22.5q-93 0 -148 56t-55 124h-8q-18 -37 -42 -71.5t-61 -72.5t-88.5 -60.5t-109.5 -22.5
q-96 0 -173.5 38.5t-123.5 101t-70 135.5t-24 149q0 70 13 149t38.5 162.5t67.5 159.5t95.5 136t127 96t157.5 36q40 0 78.5 -9.5t65 -22.5t47.5 -26t31 -23l10 -9q14 69 31 172q-13 0 -41 -4zM358 223v-6q0 -22 0.5 -35t3 -34t9.5 -31.5t18 -10.5q40 0 101 110t104 230.5
t45 163.5q-31 4 -47 35q3 7 12 30t14 37t12 35t10.5 39.5t4.5 34.5q9 62 -24 62q-57 0 -117 -113.5t-99 -266t-47 -280.5z" />
    <glyph glyph-name="Emacron" unicode="&#x112;" horiz-adv-x="1148" 
d="M227 1077q-33 -6 -90 60q-55 63 -58 102q-1 17 11 21q133 36 336 77q39 99 88 176q68 -7 158 -29t123 -44q-16 -37 -17 -41q151 23 256 37q14 1 77 14.5t103 11t72 -27.5q9 -7 37.5 -86.5t28.5 -92.5q0 -10 -80.5 -63.5t-108.5 -65.5q-56 -22 -104 -23t-49 17
q-2 13 -1.5 26t1.5 22l2 10q-175 -12 -322 -31q-45 -143 -86 -320l82 7q37 2 100 8.5t91.5 6t40.5 -10.5q30 -23 64 -86.5t34 -79.5q0 -43 -43 -43q-158 -2 -416 -33q-16 -93 -51 -352q508 108 698 100q22 -1 64 -68q56 -90 56 -145q-1 -35 -32 -35q-272 -5 -813 -92
q-8 -59 -10 -98q-1 -17 -35.5 -18t-83 11t-96 27.5t-82.5 30.5l-16 -4q-49 -7 -107 62q-47 57 -49 98q-1 21 14 24l142 31q25 210 57 377q-4 -2 -10 -2q-38 -6 -82 35.5t-58 84t3 60.5q42 23 194 53q44 194 82 320zM375 1741q107 24 274.5 31.5t288.5 1.5q23 -1 63 -59
q51 -73 44 -115q-3 -25 -33 -25q-138 4 -273 3.5t-237 -11.5q-49 -5 -102 61q-44 54 -41 92q2 17 16 21z" />
    <glyph glyph-name="emacron" unicode="&#x113;" horiz-adv-x="829" 
d="M-14 240q0 113 21.5 233.5t64.5 233.5t101 202.5t138.5 144t169.5 54.5q48 0 103.5 -18t109.5 -53.5t89.5 -98.5t35.5 -143q0 -125 -45 -235t-112 -171t-134 -61q-33 0 -63.5 9.5t-49 22t-34 27.5t-21.5 23.5t-8 13.5q-4 -9 -13 -34.5t-20.5 -88t-11.5 -125.5
q0 -143 121 -143q55 0 106 24t88 60.5t66.5 82.5t46.5 89t23 80q22 16 55 16q75 0 123.5 -30.5t48.5 -90.5q0 -52 -18.5 -108.5t-59.5 -113.5t-98.5 -102t-143 -73.5t-186.5 -28.5q-123 0 -234 46t-185 140t-74 216zM379 559q0 -2 1 -5t4.5 -10t8 -13t13 -10.5t18.5 -4.5
q48 0 84.5 107.5t38.5 220.5q2 84 -21 84q-13 0 -28 -33q-92 -197 -119 -336zM252 1384q107 24 274.5 31.5t288.5 1.5q23 -1 63 -59q51 -73 44 -114q-4 -25 -33 -25q-357 7 -510 -9q-49 -5 -102 61q-44 54 -41 92q2 17 16 21z" />
    <glyph glyph-name="Ebreve" unicode="&#x114;" horiz-adv-x="1148" 
d="M227 1077q-33 -6 -90 60q-55 63 -58 102q-1 17 11 21q133 36 336 77q39 99 88 176q68 -7 158 -29t123 -44q-16 -37 -17 -41q151 23 256 37q14 1 77 14.5t103 11t72 -27.5q9 -7 37.5 -86.5t28.5 -92.5q0 -10 -80.5 -63.5t-108.5 -65.5q-56 -22 -104 -23t-49 17
q-2 13 -1.5 26t1.5 22l2 10q-175 -12 -322 -31q-45 -143 -86 -320l82 7q37 2 100 8.5t91.5 6t40.5 -10.5q30 -23 64 -86.5t34 -79.5q0 -43 -43 -43q-158 -2 -416 -33q-16 -93 -51 -352q508 108 698 100q22 -1 64 -68q56 -90 56 -145q-1 -35 -32 -35q-272 -5 -813 -92
q-8 -59 -10 -98q-1 -17 -35.5 -18t-83 11t-96 27.5t-82.5 30.5l-16 -4q-49 -7 -107 62q-47 57 -49 98q-1 21 14 24l142 31q25 210 57 377q-4 -2 -10 -2q-38 -6 -82 35.5t-58 84t3 60.5q42 23 194 53q44 194 82 320zM852 1841q5 12 41.5 9.5t78 -11t76 -25.5t35.5 -34
q-27 -90 -118 -162t-207 -72q-109 0 -178 49t-99 115q-9 20 -8.5 44t9 44.5t31 32t54.5 6.5q24 -56 56.5 -91.5t83.5 -35.5q52 0 85 36.5t60 94.5z" />
    <glyph glyph-name="ebreve" unicode="&#x115;" horiz-adv-x="829" 
d="M-14 240q0 113 21.5 233.5t64.5 233.5t101 202.5t138.5 144t169.5 54.5q48 0 103.5 -18t109.5 -53.5t89.5 -98.5t35.5 -143q0 -125 -45 -235t-112 -171t-134 -61q-33 0 -63.5 9.5t-49 22t-34 27.5t-21.5 23.5t-8 13.5q-4 -9 -13 -34.5t-20.5 -88t-11.5 -125.5
q0 -143 121 -143q55 0 106 24t88 60.5t66.5 82.5t46.5 89t23 80q22 16 55 16q75 0 123.5 -30.5t48.5 -90.5q0 -52 -18.5 -108.5t-59.5 -113.5t-98.5 -102t-143 -73.5t-186.5 -28.5q-123 0 -234 46t-185 140t-74 216zM379 559q0 -2 1 -5t4.5 -10t8 -13t13 -10.5t18.5 -4.5
q48 0 84.5 107.5t38.5 220.5q2 84 -21 84q-13 0 -28 -33q-92 -197 -119 -336zM709 1491q5 12 41.5 9.5t78 -11t76 -25.5t35.5 -34q-27 -90 -118.5 -162t-207.5 -72q-108 0 -177 49t-99 115q-9 20 -8.5 44t9 44.5t31 32t54.5 6.5q16 -36 30.5 -60t44 -45.5t64.5 -21.5
q28 0 51.5 11.5t41 32.5t29.5 41t24 46z" />
    <glyph glyph-name="Edotaccent" unicode="&#x116;" horiz-adv-x="1148" 
d="M227 1077q-33 -6 -90 60q-55 63 -58 102q-1 17 11 21q133 36 336 77q39 99 88 176q68 -7 158 -29t123 -44q-16 -37 -17 -41q151 23 256 37q14 1 77 14.5t103 11t72 -27.5q9 -7 37.5 -86.5t28.5 -92.5q0 -10 -80.5 -63.5t-108.5 -65.5q-56 -22 -104 -23t-49 17
q-2 13 -1.5 26t1.5 22l2 10q-175 -12 -322 -31q-45 -143 -86 -320l82 7q37 2 100 8.5t91.5 6t40.5 -10.5q30 -23 64 -86.5t34 -79.5q0 -43 -43 -43q-158 -2 -416 -33q-16 -93 -51 -352q508 108 698 100q22 -1 64 -68q56 -90 56 -145q-1 -35 -32 -35q-272 -5 -813 -92
q-8 -59 -10 -98q-1 -17 -35.5 -18t-83 11t-96 27.5t-82.5 30.5l-16 -4q-49 -7 -107 62q-47 57 -49 98q-1 21 14 24l142 31q25 210 57 377q-4 -2 -10 -2q-38 -6 -82 35.5t-58 84t3 60.5q42 23 194 53q44 194 82 320zM684 1610q-45 14 -69.5 35.5t-24.5 60.5q0 28 14 60
t42.5 63.5t82 52.5t123.5 21q45 0 87 -35.5t42 -100.5q0 -22 -3.5 -47t-17 -57.5t-34.5 -58t-60 -43t-90 -17.5q-42 0 -63.5 13.5t-28.5 52.5z" />
    <glyph glyph-name="edotaccent" unicode="&#x117;" horiz-adv-x="829" 
d="M-14 240q0 113 21.5 233.5t64.5 233.5t101 202.5t138.5 144t169.5 54.5q48 0 103.5 -18t109.5 -53.5t89.5 -98.5t35.5 -143q0 -125 -45 -235t-112 -171t-134 -61q-33 0 -63.5 9.5t-49 22t-34 27.5t-21.5 23.5t-8 13.5q-4 -9 -13 -34.5t-20.5 -88t-11.5 -125.5
q0 -143 121 -143q55 0 106 24t88 60.5t66.5 82.5t46.5 89t23 80q22 16 55 16q75 0 123.5 -30.5t48.5 -90.5q0 -52 -18.5 -108.5t-59.5 -113.5t-98.5 -102t-143 -73.5t-186.5 -28.5q-123 0 -234 46t-185 140t-74 216zM379 559q0 -2 1 -5t4.5 -10t8 -13t13 -10.5t18.5 -4.5
q48 0 84.5 107.5t38.5 220.5q2 84 -21 84q-13 0 -28 -33q-92 -197 -119 -336zM500 1253q-44 14 -69 36t-25 61q0 28 14 59.5t42.5 63.5t82 52.5t123.5 20.5q45 0 87 -35t42 -100q0 -22 -3.5 -47t-17 -57.5t-34.5 -58t-60 -43t-90 -17.5q-42 0 -63.5 13t-28.5 52z" />
    <glyph glyph-name="Eogonek" unicode="&#x118;" horiz-adv-x="1148" 
d="M801 -25q0 43 12 78q-45 -5 -98.5 -13t-123 -19t-112.5 -17q-8 -59 -10 -98q-1 -17 -35.5 -18t-83 11t-96 27.5t-82.5 30.5l-16 -4q-49 -7 -107 62q-47 57 -49 98q-1 21 14 24l142 31q25 210 57 377q-4 -2 -10 -2q-38 -6 -82 35.5t-58 84t3 60.5q42 23 194 53
q44 194 82 320l-115 -19q-33 -6 -90 60q-55 63 -58 102q-1 17 11 21q133 36 336 77q39 99 88 176q68 -7 158 -29t123 -44q-16 -37 -17 -41q151 23 256 37q14 1 77 14.5t103 11t72 -27.5q9 -7 37.5 -86.5t28.5 -92.5q0 -10 -80.5 -63.5t-108.5 -65.5q-56 -22 -104 -23t-49 17
q-2 13 -1.5 26t1.5 22l2 10q-175 -12 -322 -31q-45 -143 -86 -320l82 7q37 2 100 8.5t91.5 6t40.5 -10.5q30 -23 64 -86.5t34 -79.5q0 -43 -43 -43q-158 -2 -416 -33q-16 -93 -51 -352q508 108 698 100q22 -1 64 -68q56 -90 56 -145q-1 -35 -32 -35q-206 -6 -479 -43
q46 130 248 189q68 18 111.5 11.5t63.5 -28t19 -52.5t-22 -62q-4 -8 -32 -16t-63 -18.5t-69.5 -27t-58 -48.5t-23.5 -75q0 -30 24.5 -47.5t61.5 -17.5q53 0 107.5 24.5t81.5 57.5q42 -10 86.5 -45t44.5 -82q0 -15 -12 -30.5t-38.5 -31.5t-79.5 -26.5t-124 -10.5
q-150 0 -244 74.5t-94 183.5z" />
    <glyph glyph-name="eogonek" unicode="&#x119;" horiz-adv-x="829" 
d="M301 -229q0 47 16 90q-144 39 -237.5 138t-93.5 241q0 113 21.5 233.5t64.5 233.5t101 202.5t138.5 144t169.5 54.5q48 0 103.5 -18t109.5 -53.5t89.5 -98.5t35.5 -143q0 -125 -45 -235t-112 -171t-134 -61q-33 0 -63.5 9.5t-49 22t-34 27.5t-21.5 23.5t-8 13.5
q-4 -9 -13 -34.5t-20.5 -88t-11.5 -125.5q0 -143 121 -143q55 0 106 24t88 60.5t66.5 82.5t46.5 89t23 80q22 16 55 16q75 0 123.5 -30.5t48.5 -90.5q0 -47 -15.5 -98.5t-49 -104t-81 -96.5t-118.5 -77t-154 -44q-80 -44 -80 -123q0 -30 24.5 -47.5t61.5 -17.5
q53 0 107.5 24.5t81.5 57.5q42 -10 86.5 -45t44.5 -82q0 -15 -12 -30.5t-38.5 -31.5t-79.5 -26t-124 -10q-150 0 -244 74.5t-94 183.5zM379 559q0 -2 1 -5t4.5 -10t8 -13t13 -10.5t18.5 -4.5q48 0 84.5 107.5t38.5 220.5q2 84 -21 84q-13 0 -28 -33q-92 -197 -119 -336z" />
    <glyph glyph-name="Ecaron" unicode="&#x11a;" horiz-adv-x="1148" 
d="M227 1077q-33 -6 -90 60q-55 63 -58 102q-1 17 11 21q133 36 336 77q39 99 88 176q68 -7 158 -29t123 -44q-16 -37 -17 -41q151 23 256 37q14 1 77 14.5t103 11t72 -27.5q9 -7 37.5 -86.5t28.5 -92.5q0 -10 -80.5 -63.5t-108.5 -65.5q-56 -22 -104 -23t-49 17
q-2 13 -1.5 26t1.5 22l2 10q-175 -12 -322 -31q-45 -143 -86 -320l82 7q37 2 100 8.5t91.5 6t40.5 -10.5q30 -23 64 -86.5t34 -79.5q0 -43 -43 -43q-158 -2 -416 -33q-16 -93 -51 -352q508 108 698 100q22 -1 64 -68q56 -90 56 -145q-1 -35 -32 -35q-272 -5 -813 -92
q-8 -59 -10 -98q-1 -17 -35.5 -18t-83 11t-96 27.5t-82.5 30.5l-16 -4q-49 -7 -107 62q-47 57 -49 98q-1 21 14 24l142 31q25 210 57 377q-4 -2 -10 -2q-38 -6 -82 35.5t-58 84t3 60.5q42 23 194 53q44 194 82 320zM961 1888l100 -55q28 -12 29 -33t-27 -41
q-115 -93 -289 -219l-131 19q-92 117 -215 292q-14 20 -7 39.5t28 24.5q104 22 137 -14q16 -19 59 -81t57 -79q26 22 87 68t77 59q56 41 95 20z" />
    <glyph glyph-name="ecaron" unicode="&#x11b;" horiz-adv-x="829" 
d="M-14 240q0 113 21.5 233.5t64.5 233.5t101 202.5t138.5 144t169.5 54.5q48 0 103.5 -18t109.5 -53.5t89.5 -98.5t35.5 -143q0 -125 -45 -235t-112 -171t-134 -61q-33 0 -63.5 9.5t-49 22t-34 27.5t-21.5 23.5t-8 13.5q-4 -9 -13 -34.5t-20.5 -88t-11.5 -125.5
q0 -143 121 -143q55 0 106 24t88 60.5t66.5 82.5t46.5 89t23 80q22 16 55 16q75 0 123.5 -30.5t48.5 -90.5q0 -52 -18.5 -108.5t-59.5 -113.5t-98.5 -102t-143 -73.5t-186.5 -28.5q-123 0 -234 46t-185 140t-74 216zM379 559q0 -2 1 -5t4.5 -10t8 -13t13 -10.5t18.5 -4.5
q48 0 84.5 107.5t38.5 220.5q2 84 -21 84q-13 0 -28 -33q-92 -197 -119 -336zM831 1528l101 -55q28 -12 29 -33t-27 -41q-115 -93 -289 -219l-131 18q-86 109 -215 293q-14 20 -7.5 39t27.5 24q105 22 138 -14q16 -19 59 -81t57 -79q26 22 87 68t77 59q56 42 94 21z" />
    <glyph glyph-name="Gcircumflex" unicode="&#x11c;" horiz-adv-x="1267" 
d="M541 618q0 47 107 65.5t192 -1.5q81 22 186.5 34.5t171.5 12.5q52 0 74.5 -4.5t38.5 -17.5q31 -24 64.5 -75t33.5 -65q0 -43 -45 -43q-119 -3 -227 -18q67 -74 67 -172q0 -48 -22.5 -105t-71 -117t-115.5 -109t-166 -80.5t-211 -31.5q-287 0 -452.5 159t-165.5 423
q0 90 22 197t63 218.5t105.5 215t143 185t182 130.5t215.5 49q188 0 316.5 -97t128.5 -243q0 -138 -73.5 -225.5t-197.5 -87.5q-56 0 -100.5 24.5t-63 48.5t-18.5 36q0 5 24.5 27.5t53.5 52.5t53.5 86t24.5 120q0 34 -20.5 51t-47.5 17q-45 0 -105 -51t-120 -140t-112 -197
t-84 -235.5t-32 -242.5q0 -145 60 -233.5t166 -88.5q112 0 187 63.5t75 180.5q0 61 -33 106q-53 -12 -121 -20q-44 -5 -97.5 78t-53.5 120zM604 1569l-100 57q-58 33 -2 74q115 93 289 219l131 -18q45 -58 119.5 -162t88.5 -127q14 -20 7 -38.5t-29 -23.5
q-41 -11 -79.5 -7.5t-55.5 22.5q-18 20 -59.5 79t-53.5 74q-1 -1 -162 -129q-15 -9 -23 -13.5t-21.5 -9.5t-25.5 -4t-24 7z" />
    <glyph glyph-name="gcircumflex" unicode="&#x11d;" horiz-adv-x="1056" 
d="M182 -150q29 -42 81.5 -85.5t86.5 -57.5q50 15 91 52.5t72 95.5t51 110t42 123q-108 -104 -194 -104q-348 0 -367 405q-8 186 49.5 342t176.5 251t276 95q165 0 282.5 -66t122.5 -159l-2 -29q11 0 30.5 -2t45.5 -7.5t43.5 -17.5t15.5 -28q-2 -10 -27 -167.5t-51.5 -285
t-66.5 -268.5q-76 -266 -202.5 -398t-315.5 -132q-113 0 -213.5 30t-145.5 68q-36 26 -49.5 60.5t-4 66t32 58.5t60.5 41t80 9zM401 330q-1 -79 21 -120.5t57 -41.5q42 0 87.5 75t77 179t38.5 194q-22 -2 -45 27q14 31 22.5 87t8.5 93q0 30 -13.5 52t-36.5 22q-43 0 -84 -62
t-69 -152t-45 -185.5t-19 -167.5zM471 1204l-100 58q-57 33 -2 73q124 100 288 219l131 -18q46 -58 121 -162.5t88 -126.5q14 -20 7 -38t-29 -23q-40 -11 -79.5 -8t-55.5 22q-18 20 -59.5 79.5t-53.5 74.5q-1 -1 -162 -129q-16 -10 -23.5 -14t-21.5 -9.5t-25.5 -4.5t-23.5 7
z" />
    <glyph glyph-name="Gbreve" unicode="&#x11e;" horiz-adv-x="1267" 
d="M541 618q0 47 107 65.5t192 -1.5q81 22 186.5 34.5t171.5 12.5q52 0 74.5 -4.5t38.5 -17.5q31 -24 64.5 -75t33.5 -65q0 -43 -45 -43q-119 -3 -227 -18q67 -74 67 -172q0 -48 -22.5 -105t-71 -117t-115.5 -109t-166 -80.5t-211 -31.5q-287 0 -452.5 159t-165.5 423
q0 90 22 197t63 218.5t105.5 215t143 185t182 130.5t215.5 49q188 0 316.5 -97t128.5 -243q0 -138 -73.5 -225.5t-197.5 -87.5q-56 0 -100.5 24.5t-63 48.5t-18.5 36q0 5 24.5 27.5t53.5 52.5t53.5 86t24.5 120q0 34 -20.5 51t-47.5 17q-45 0 -105 -51t-120 -140t-112 -197
t-84 -235.5t-32 -242.5q0 -145 60 -233.5t166 -88.5q112 0 187 63.5t75 180.5q0 61 -33 106q-53 -12 -121 -20q-44 -5 -97.5 78t-53.5 120zM915 1839q5 12 41.5 9.5t78 -11t76.5 -25.5t36 -34q-27 -90 -118.5 -162t-207.5 -72q-108 0 -177 49t-99 115q-9 20 -8.5 44t9 44.5
t31 32t54.5 6.5q16 -36 30.5 -60t44 -45.5t64.5 -21.5q52 0 85 36.5t60 94.5z" />
    <glyph glyph-name="gbreve" unicode="&#x11f;" horiz-adv-x="1056" 
d="M182 -150q29 -42 81.5 -85.5t86.5 -57.5q50 15 91 52.5t72 95.5t51 110t42 123q-108 -104 -194 -104q-348 0 -367 405q-8 186 49.5 342t176.5 251t276 95q165 0 282.5 -66t122.5 -159l-2 -29q11 0 30.5 -2t45.5 -7.5t43.5 -17.5t15.5 -28q-2 -10 -27 -167.5t-51.5 -285
t-66.5 -268.5q-76 -266 -202.5 -398t-315.5 -132q-113 0 -213.5 30t-145.5 68q-36 26 -49.5 60.5t-4 66t32 58.5t60.5 41t80 9zM401 330q-1 -79 21 -120.5t57 -41.5q42 0 87.5 75t77 179t38.5 194q-22 -2 -45 27q14 31 22.5 87t8.5 93q0 30 -13.5 52t-36.5 22q-43 0 -84 -62
t-69 -152t-45 -185.5t-19 -167.5zM813 1481q5 12 41.5 9.5t78 -11t76 -26t35.5 -34.5q-27 -90 -118 -161.5t-207 -71.5q-109 0 -178 49t-99 115q-9 20 -8.5 44t9 44.5t31 32t54.5 6.5q24 -56 56.5 -91.5t83.5 -35.5q52 0 85 36.5t60 94.5z" />
    <glyph glyph-name="Gdotaccent" unicode="&#x120;" horiz-adv-x="1267" 
d="M541 618q0 47 107 65.5t192 -1.5q81 22 186.5 34.5t171.5 12.5q52 0 74.5 -4.5t38.5 -17.5q31 -24 64.5 -75t33.5 -65q0 -43 -45 -43q-119 -3 -227 -18q67 -74 67 -172q0 -48 -22.5 -105t-71 -117t-115.5 -109t-166 -80.5t-211 -31.5q-287 0 -452.5 159t-165.5 423
q0 90 22 197t63 218.5t105.5 215t143 185t182 130.5t215.5 49q188 0 316.5 -97t128.5 -243q0 -138 -73.5 -225.5t-197.5 -87.5q-56 0 -100.5 24.5t-63 48.5t-18.5 36q0 5 24.5 27.5t53.5 52.5t53.5 86t24.5 120q0 34 -20.5 51t-47.5 17q-45 0 -105 -51t-120 -140t-112 -197
t-84 -235.5t-32 -242.5q0 -145 60 -233.5t166 -88.5q112 0 187 63.5t75 180.5q0 61 -33 106q-53 -12 -121 -20q-44 -5 -97.5 78t-53.5 120zM778 1602q-45 14 -69.5 35.5t-24.5 60.5q0 28 14 59.5t42.5 63.5t82 52.5t123.5 20.5q45 0 87 -35t42 -100q0 -22 -3.5 -47
t-17 -57.5t-34.5 -58t-60 -43t-90 -17.5q-42 0 -63.5 13.5t-28.5 52.5z" />
    <glyph glyph-name="gdotaccent" unicode="&#x121;" horiz-adv-x="1056" 
d="M182 -150q29 -42 81.5 -85.5t86.5 -57.5q50 15 91 52.5t72 95.5t51 110t42 123q-108 -104 -194 -104q-348 0 -367 405q-8 186 49.5 342t176.5 251t276 95q165 0 282.5 -66t122.5 -159l-2 -29q11 0 30.5 -2t45.5 -7.5t43.5 -17.5t15.5 -28q-2 -10 -27 -167.5t-51.5 -285
t-66.5 -268.5q-76 -266 -202.5 -398t-315.5 -132q-113 0 -213.5 30t-145.5 68q-36 26 -49.5 60.5t-4 66t32 58.5t60.5 41t80 9zM401 330q-1 -79 21 -120.5t57 -41.5q42 0 87.5 75t77 179t38.5 194q-22 -2 -45 27q14 31 22.5 87t8.5 93q0 30 -13.5 52t-36.5 22q-43 0 -84 -62
t-69 -152t-45 -185.5t-19 -167.5zM639 1251q-44 14 -69 36t-25 61q0 28 14 59.5t42.5 63.5t82 52.5t123.5 20.5q45 0 87 -35t42 -100q0 -22 -3.5 -47t-17 -57.5t-34.5 -58t-60 -43t-90 -17.5q-42 0 -63.5 13t-28.5 52z" />
    <glyph glyph-name="Gcommaaccent" unicode="&#x122;" horiz-adv-x="1267" 
d="M541 618q0 47 107 65.5t192 -1.5q81 22 186.5 34.5t171.5 12.5q52 0 74.5 -4.5t38.5 -17.5q31 -24 64.5 -75t33.5 -65q0 -43 -45 -43q-119 -3 -227 -18q67 -74 67 -172q0 -48 -22.5 -105t-71 -117t-115.5 -109t-166 -80.5t-211 -31.5q-287 0 -452.5 159t-165.5 423
q0 90 22 197t63 218.5t105.5 215t143 185t182 130.5t215.5 49q188 0 316.5 -97t128.5 -243q0 -138 -73.5 -225.5t-197.5 -87.5q-56 0 -100.5 24.5t-63 48.5t-18.5 36q0 5 24.5 27.5t53.5 52.5t53.5 86t24.5 120q0 34 -20.5 51t-47.5 17q-45 0 -105 -51t-120 -140t-112 -197
t-84 -235.5t-32 -242.5q0 -145 60 -233.5t166 -88.5q112 0 187 63.5t75 180.5q0 61 -33 106q-53 -12 -121 -20q-44 -5 -97.5 78t-53.5 120zM303 -315q0 61 56 100t147 39q83 0 139.5 -43.5t56.5 -124.5q0 -83 -64 -154t-159 -94q-54 -14 -105.5 -11.5t-86 19t-49.5 45.5
t4 68q57 -2 109.5 10.5t66.5 36.5q-46 6 -80.5 31t-34.5 78z" />
    <glyph glyph-name="gcommaaccent" unicode="&#x123;" horiz-adv-x="1056" 
d="M182 -150q29 -42 81.5 -85.5t86.5 -57.5q50 15 91 52.5t72 95.5t51 110t42 123q-108 -104 -194 -104q-348 0 -367 405q-8 186 49.5 342t176.5 251t276 95q165 0 282.5 -66t122.5 -159l-2 -29q11 0 30.5 -2t45.5 -7.5t43.5 -17.5t15.5 -28q-2 -10 -27 -167.5t-51.5 -285
t-66.5 -268.5q-76 -266 -202.5 -398t-315.5 -132q-113 0 -213.5 30t-145.5 68q-36 26 -49.5 60.5t-4 66t32 58.5t60.5 41t80 9zM401 330q-1 -79 21 -120.5t57 -41.5q42 0 87.5 75t77 179t38.5 194q-22 -2 -45 27q14 31 22.5 87t8.5 93q0 30 -13.5 52t-36.5 22q-43 0 -84 -62
t-69 -152t-45 -185.5t-19 -167.5zM909 1321q0 -62 -55.5 -101.5t-146.5 -39.5q-83 0 -140 43.5t-57 124.5q0 83 63 153.5t160 95.5q74 15 136 7.5t93 -43t7 -86.5q-53 3 -106.5 -10t-69.5 -38q46 -4 81 -29t35 -77z" />
    <glyph glyph-name="Hcircumflex" unicode="&#x124;" horiz-adv-x="1361" 
d="M705 1169l-41 -10q-61 -187 -103 -342q355 49 387 29q22 -18 37 -35q85 397 168 627q19 45 42 67t65 23q46 0 141 -26.5t125 -45.5q-117 -386 -216.5 -852t-99.5 -670q0 -61 -177 -6q-108 34 -159 64q-4 2 -6 4q-38 42 -46 145.5t18 132.5q5 7 17.5 4t20.5 -6.5t11 7.5
q11 80 55 321q-175 -11 -444 -51q-82 -398 -97 -713q-2 -46 -122 -24q-108 19 -187 64q-31 17 -39 30q5 220 78 583l-98 -16q-37 -6 -81 46.5t-65 111.5t-2 71q27 15 308 62q120 473 227 709q30 17 159 -15.5t167 -58.5q2 -38 -12 -118.5t-31 -111.5zM745 1591l-100 58
q-57 33 -2 73q127 103 289 220l131 -19q46 -58 121 -162.5t88 -126.5q14 -20 6.5 -38t-29.5 -23q-40 -11 -79.5 -8t-55.5 22q-18 20 -59.5 79.5t-53.5 74.5q-12 -10 -161 -129q-15 -9 -23 -13.5t-22 -10t-26 -4.5t-24 7z" />
    <glyph glyph-name="hcircumflex" unicode="&#x125;" horiz-adv-x="1122" 
d="M664 618l-21 3q-41 -55 -121 -273.5t-90 -384.5q-45 -29 -113 -29q-114 0 -194 56t-80 153q0 98 38.5 408t102.5 624.5t119 354.5q18 13 66.5 8t100.5 -18t92 -34t40 -38q0 -36 -8 -77t-15.5 -65.5t-22 -65.5t-17.5 -50q-26 -76 -78.5 -354t-52.5 -338l14 -4
q19 55 56.5 146t87.5 200t100 185.5t80 76.5q68 0 132.5 -16t106 -39t67 -47.5t25.5 -41.5q0 -41 -38.5 -185.5t-77.5 -307t-39 -248.5q0 -55 21 -91t61 -36q56 0 100 77t55 171q7 1 19 1.5t42.5 -3t53.5 -12.5t42 -32.5t19 -58.5q0 -119 -128 -211t-308 -92
q-155 0 -227 80.5t-72 220.5q0 75 23 203.5t39 183.5zM233 1567l-100 57q-58 33 -2 74q115 93 289 219l131 -19q46 -58 121 -162.5t88 -125.5q14 -20 6.5 -38.5t-29.5 -23.5q-41 -11 -79.5 -7.5t-55.5 22.5q-18 20 -59.5 79t-53.5 74q-12 -10 -161 -129q-14 -9 -23 -13.5
t-22.5 -9.5t-25.5 -4t-24 7z" />
    <glyph glyph-name="Hbar" unicode="&#x126;" horiz-adv-x="1361" 
d="M135 1188q34 7 187 24q54 156 100 261q30 17 159 -15.5t167 -58.5q0 -64 -19 -154q152 12 369 27q24 83 55 166q19 45 42 67t65 23q46 0 141 -26.5t125 -45.5l-49 -168h22q23 -1 63 -59q51 -73 44 -114q-4 -25 -33 -25q-53 0 -152 -3q-89 -344 -150 -669.5t-61 -483.5
q0 -61 -177 -6q-108 34 -159 64q-4 2 -6 4q-38 42 -46 145.5t18 132.5q5 7 17.5 4t20.5 -6.5t11 7.5q11 80 55 321q-175 -11 -444 -51q-82 -398 -97 -713q-2 -46 -122 -24q-108 19 -187 64q-31 17 -39 30q5 220 78 583l-98 -16q-37 -6 -81 46.5t-65 111.5t-2 71
q27 15 308 62q32 139 67 250q-49 -5 -102 61q-44 54 -41 92q2 17 16 21zM1044 1067l-419 -25q-30 -99 -64 -225q355 49 387 29q22 -18 37 -35q18 87 59 256z" />
    <glyph glyph-name="hbar" unicode="&#x127;" horiz-adv-x="1122" 
d="M664 618l-21 3q-41 -55 -121 -273.5t-90 -384.5q-45 -29 -113 -29q-114 0 -194 56t-80 153q0 102 45 450t100 605q-4 0 -11.5 -1t-10.5 -1q-55 -5 -102 49q-38 43 -30 73q4 14 21 17q82 13 170 19q41 151 78 176q18 13 66.5 8t100.5 -18t92 -34t40 -38q0 -30 -8 -84
q15 0 42 -1t38 -1q25 -1 60 -49q44 -59 32 -91q-8 -21 -41 -20q-34 0 -94.5 1t-87.5 1q-4 -12 -4 -14q-26 -76 -78.5 -354t-52.5 -338l14 -4q19 55 56.5 146t87.5 200t100 185.5t80 76.5q68 0 132.5 -16t106 -39t67 -47.5t25.5 -41.5q0 -41 -38.5 -185.5t-77.5 -307
t-39 -248.5q0 -55 21 -91t61 -36q56 0 100 77t55 171q7 1 19 1.5t42.5 -3t53.5 -12.5t42 -32.5t19 -58.5q0 -119 -128 -211t-308 -92q-155 0 -227 80.5t-72 220.5q0 75 23 203.5t39 183.5z" />
    <glyph glyph-name="Itilde" unicode="&#x128;" horiz-adv-x="1122" 
d="M319 285q38 214 98.5 457t117.5 421q-135 -25 -304 -51q-38 -6 -83 48.5t-58.5 106t6.5 66.5q228 61 477 91.5t437 39.5q99 5 161 -3.5t103 -41.5q9 -8 37 -59.5t28 -63.5q0 -10 -55 -39.5t-86 -39.5q-34 -8 -48 -2t-35.5 17.5t-39.5 12.5q-89 -6 -174 -18
q-55 -178 -119.5 -459t-99.5 -481q258 46 389 41q22 -1 69 -69q60 -89 64 -145q2 -38 -30 -38q-206 -3 -463 -31.5t-643 -91.5q-36 -6 -78.5 38t-55 88t8.5 60q25 10 64.5 32t65 31.5t44.5 2.5q12 -4 21.5 -10.5t14 -10t7.5 -2.5q44 8 124 25t117 24q-79 25 -82 54z
M541 1565q-29 0 -51 40t-7 62q28 42 91.5 92.5t119.5 50.5q52 0 100.5 -21.5t85.5 -43t62 -21.5q32 0 81.5 30t66.5 30q26 0 45.5 -36t5.5 -71q-18 -39 -89 -89t-145 -50q-48 0 -99.5 22t-92.5 44t-62 22t-60 -30.5t-52 -30.5z" />
    <glyph glyph-name="itilde" unicode="&#x129;" horiz-adv-x="598" 
d="M14 211q0 121 72 384.5t127 391.5q9 27 55 27q26 0 76 -11t103.5 -29.5t86.5 -49.5t21 -66q-147 -489 -156 -639q-3 -47 10 -72.5t33 -25.5q36 0 68.5 30.5t52.5 76t32.5 86t16.5 71.5h10.5t25 -2t36 -6.5t38 -14.5t35.5 -23.5t25.5 -36.5t10.5 -52q0 -54 -37.5 -113.5
t-98.5 -108t-147 -80.5t-174 -32q-152 0 -237 74t-85 221zM203 1210q-29 0 -51 40.5t-7 62.5q28 42 91.5 92.5t119.5 50.5q52 0 100.5 -21.5t85.5 -43t62 -21.5q32 0 81.5 30t66.5 30q26 0 45.5 -36t5.5 -71q-18 -39 -89 -89t-145 -50q-48 0 -99.5 22t-92.5 44t-62 22
t-60 -31t-52 -31z" />
    <glyph glyph-name="imacron" unicode="&#x12b;" horiz-adv-x="598" 
d="M14 211q0 121 72 384.5t127 391.5q9 27 55 27q26 0 76 -11t103.5 -29.5t86.5 -49.5t21 -66q-147 -489 -156 -639q-3 -47 10 -72.5t33 -25.5q36 0 68.5 30.5t52.5 76t32.5 86t16.5 71.5h10.5t25 -2t36 -6.5t38 -14.5t35.5 -23.5t25.5 -36.5t10.5 -52q0 -54 -37.5 -113.5
t-98.5 -108t-147 -80.5t-174 -32q-152 0 -237 74t-85 221zM119 1374q107 24 274.5 31.5t288.5 1.5q23 -1 63 -59q51 -73 44 -115q-3 -25 -33 -25q-138 4 -273 3.5t-237 -11.5q-49 -5 -102 61q-44 54 -41 92q2 17 16 21z" />
    <glyph glyph-name="Ibreve" unicode="&#x12c;" horiz-adv-x="1122" 
d="M319 285q38 214 98.5 457t117.5 421q-135 -25 -304 -51q-38 -6 -83 48.5t-58.5 106t6.5 66.5q228 61 477 91.5t437 39.5q99 5 161 -3.5t103 -41.5q9 -8 37 -59.5t28 -63.5q0 -10 -55 -39.5t-86 -39.5q-34 -8 -48 -2t-35.5 17.5t-39.5 12.5q-89 -6 -174 -18
q-55 -178 -119.5 -459t-99.5 -481q258 46 389 41q22 -1 69 -69q60 -89 64 -145q2 -38 -30 -38q-206 -3 -463 -31.5t-643 -91.5q-36 -6 -78.5 38t-55 88t8.5 60q25 10 64.5 32t65 31.5t44.5 2.5q12 -4 21.5 -10.5t14 -10t7.5 -2.5q44 8 124 25t117 24q-79 25 -82 54z
M893 1833q5 12 41.5 9.5t78 -11t76 -25.5t35.5 -34q-27 -90 -118 -162t-207 -72q-109 0 -178 49t-99 115q-9 20 -8.5 44t9 44.5t31 32t54.5 6.5q24 -56 56.5 -91.5t83.5 -35.5q52 0 85 36.5t60 94.5z" />
    <glyph glyph-name="Iogonek" unicode="&#x12e;" horiz-adv-x="1122" 
d="M348 -66q0 40 8 64q-122 -16 -288 -45q-36 -6 -78.5 38t-55 88t8.5 60q25 10 64.5 32t65 31.5t44.5 2.5q12 -4 21.5 -10.5t14 -10t7.5 -2.5q44 8 124 25t117 24q-79 25 -82 54q38 214 98.5 457t117.5 421q-135 -25 -304 -51q-38 -6 -83 48.5t-58.5 106t6.5 66.5
q228 61 477 91.5t437 39.5q99 5 161 -3.5t103 -41.5q9 -8 37 -59.5t28 -63.5q0 -10 -55 -39.5t-86 -39.5q-34 -8 -48 -2t-35.5 17.5t-39.5 12.5q-89 -6 -174 -18q-55 -178 -119.5 -459t-99.5 -481q258 46 389 41q22 -1 69 -69q60 -89 64 -145q2 -38 -30 -38
q-184 -3 -457 -31q-30 -8 -47.5 -14t-46.5 -19.5t-45.5 -29t-29.5 -41t-13 -56.5q0 -30 24.5 -47.5t61.5 -17.5q53 0 107 24.5t81 57.5q42 -10 86.5 -45t44.5 -82q0 -15 -12 -30.5t-38.5 -31.5t-79.5 -26.5t-124 -10.5q-150 0 -244 74.5t-94 183.5z" />
    <glyph glyph-name="iogonek" unicode="&#x12f;" horiz-adv-x="598" 
d="M-35 -188q0 123 113 200q-64 73 -64 199q0 121 72 384.5t127 391.5q9 27 55 27q26 0 76 -11t103.5 -29.5t86.5 -49.5t21 -66q-147 -489 -156 -639q-3 -47 10 -72.5t33 -25.5q36 0 68.5 30.5t52.5 76t32.5 86t16.5 71.5h10.5t25 -2t36 -6.5t38 -14.5t35.5 -23.5
t25.5 -36.5t10.5 -52q0 -54 -37.5 -113.5t-98.5 -108t-147 -80.5t-174 -32h-23q-32 -9 -56.5 -19.5t-50.5 -28t-40 -44.5t-14 -62q0 -30 24.5 -47.5t61.5 -17.5q53 0 107 24.5t81 57.5q42 -10 86.5 -45t44.5 -82q0 -15 -12 -30.5t-38.5 -31.5t-79.5 -26t-124 -10
q-150 0 -244 74.5t-94 183.5zM420 1112q-56 0 -107 40t-51 114q0 31 11.5 73t36 89.5t73.5 79.5t113 32q79 0 111.5 -19t13.5 -73q51 -19 80.5 -43.5t29.5 -69.5q0 -32 -16.5 -68t-50.5 -72t-98 -59.5t-146 -23.5z" />
    <glyph glyph-name="Idotaccent" unicode="&#x130;" horiz-adv-x="1122" 
d="M319 285q38 214 98.5 457t117.5 421q-135 -25 -304 -51q-38 -6 -83 48.5t-58.5 106t6.5 66.5q228 61 477 91.5t437 39.5q99 5 161 -3.5t103 -41.5q9 -8 37 -59.5t28 -63.5q0 -10 -55 -39.5t-86 -39.5q-34 -8 -48 -2t-35.5 17.5t-39.5 12.5q-89 -6 -174 -18
q-55 -178 -119.5 -459t-99.5 -481q258 46 389 41q22 -1 69 -69q60 -89 64 -145q2 -38 -30 -38q-206 -3 -463 -31.5t-643 -91.5q-36 -6 -78.5 38t-55 88t8.5 60q25 10 64.5 32t65 31.5t44.5 2.5q12 -4 21.5 -10.5t14 -10t7.5 -2.5q44 8 124 25t117 24q-79 25 -82 54z
M694 1599q-44 14 -69 36t-25 61q0 28 14 59.5t42.5 63.5t82 52.5t123.5 20.5q45 0 87 -35t42 -100q0 -22 -3.5 -47t-17 -57.5t-34.5 -58t-60 -43t-90 -17.5q-42 0 -63.5 13t-28.5 52z" />
    <glyph glyph-name="dotlessi" unicode="&#x131;" horiz-adv-x="598" 
d="M14 211q0 121 72 384.5t127 391.5q9 27 55 27q26 0 76 -11t103.5 -29.5t86.5 -49.5t21 -66q-147 -489 -156 -639q-3 -47 10 -72.5t33 -25.5q36 0 68.5 30.5t52.5 76t32.5 86t16.5 71.5h10.5t25 -2t36 -6.5t38 -14.5t35.5 -23.5t25.5 -36.5t10.5 -52q0 -54 -37.5 -113.5
t-98.5 -108t-147 -80.5t-174 -32q-152 0 -237 74t-85 221z" />
    <glyph glyph-name="IJ" unicode="&#x132;" horiz-adv-x="2387" 
d="M319 285q38 214 98.5 457t117.5 421q-135 -25 -304 -51q-38 -6 -83 48.5t-58.5 106t6.5 66.5q228 61 477 91.5t437 39.5q99 5 161 -3.5t103 -41.5q9 -8 37 -59.5t28 -63.5q0 -10 -55 -39.5t-86 -39.5q-34 -8 -48 -2t-35.5 17.5t-39.5 12.5q-89 -6 -174 -18
q-55 -178 -119.5 -459t-99.5 -481q258 46 389 41q8 0 21 -13q3 121 63 195q63 57 162.5 34.5t148.5 -106.5q45 -82 35 -96q-5 -8 -34.5 -9t-36.5 -11q-9 -15 -13 -51t0 -70q9 -70 48 -117t91 -47q40 0 77.5 14t77.5 49t73 89.5t62.5 141.5t49 198.5t29.5 267.5t6 342
q-179 -32 -366 -68q-31 -6 -75.5 46t-75 111.5t-30.5 80.5q0 30 62 39q229 49 665 90.5t474 13.5q4 -3 57.5 -74.5t67.5 -85.5l-33 -51q-25 -3 -107.5 -9t-128.5 -13q-179 -26 -231 -35q36 -12 65.5 -29t40.5 -31q7 -219 -2 -397t-31.5 -311t-60.5 -233t-84.5 -165.5
t-109 -106t-130.5 -57t-151 -16.5q-185 0 -340 65.5t-240 172.5q-364 -5 -1099 -123q-36 -6 -78.5 38t-55 88t8.5 60q25 10 64.5 32t65 31.5t44.5 2.5q12 -4 21.5 -10.5t14 -10t7.5 -2.5q44 8 124 25t117 24q-79 25 -82 54z" />
    <glyph glyph-name="ij" unicode="&#x133;" horiz-adv-x="1124" 
d="M756 825q5 45 11.5 74t18.5 57.5t33.5 42t52.5 13.5q97 0 175 -30t118 -77q-22 -114 -43 -261t-35 -255.5t-35 -232.5t-43.5 -212t-60 -174t-84.5 -138.5t-117 -84.5t-159 -32q-66 0 -144.5 9.5t-119.5 24.5q-56 19 -80.5 58t-18.5 76.5t33.5 68t65.5 37.5
q123 -56 231 -80q48 53 96 316q-147 -109 -315 -109q-152 0 -237 74t-85 221q0 121 72 384.5t127 391.5q9 27 55 27q26 0 76 -11t103.5 -29.5t86.5 -49.5t21 -66q-147 -489 -156 -639q-3 -47 10 -72.5t33 -25.5q36 0 68.5 30.5t52.5 76t32.5 86t16.5 71.5q48 0 93 -16
q38 319 51 456zM420 1112q-56 0 -107 40t-51 114q0 31 11.5 73t36 89.5t73.5 79.5t113 32q79 0 111.5 -19t13.5 -73q51 -19 80.5 -43.5t29.5 -69.5q0 -32 -16.5 -68t-50.5 -72t-98 -59.5t-146 -23.5zM965 1149q-55 0 -107.5 38.5t-52.5 108.5q-1 22 5 52.5t22.5 68.5t41 69
t67 52t95.5 21q78 0 130.5 -28.5t56.5 -84.5q42 -13 48.5 -23.5t6.5 -60.5q1 -31 -15 -65t-50 -68.5t-98.5 -57t-149.5 -22.5z" />
    <glyph glyph-name="Jcircumflex" unicode="&#x134;" horiz-adv-x="1265" 
d="M-31 285q0 145 64 225q63 57 162.5 34.5t148.5 -106.5q45 -82 35 -96q-5 -8 -35 -9t-37 -11q-9 -15 -12.5 -51t0.5 -70q9 -70 48 -117t91 -47q40 0 77.5 14t77.5 49t73 89.5t62.5 141.5t49 198.5t29.5 267.5t6 342q-196 -35 -367 -68q-31 -6 -75.5 46t-74.5 111.5
t-30 80.5q0 30 62 39q229 49 664.5 90.5t473.5 13.5q4 -3 57.5 -74.5t67.5 -85.5l-33 -51q-25 -3 -107 -9t-128 -13q-187 -28 -232 -35q36 -12 66 -29t41 -31q7 -219 -2 -397t-31.5 -311t-60.5 -233t-84.5 -165.5t-109 -106t-130.5 -57t-151 -16.5q-178 0 -329 60.5
t-239 163.5t-88 223zM745 1556l-100 58q-58 33 -2 74q115 93 289 219l131 -19q46 -58 121 -162.5t88 -126.5q14 -20 6.5 -38t-29.5 -23q-40 -11 -79.5 -8t-55.5 22q-18 20 -59.5 79.5t-53.5 74.5q-12 -10 -161 -129q-15 -9 -23 -13.5t-22 -10t-26 -4.5t-24 7z" />
    <glyph glyph-name="jcircumflex" unicode="&#x135;" horiz-adv-x="540" 
d="M172 825q5 45 11.5 74t19 57.5t34 42t52.5 13.5q97 0 175 -30t118 -77q-18 -95 -35.5 -210t-29 -206.5t-27 -195t-29.5 -184t-35.5 -164t-46.5 -145.5t-61 -118t-80 -91t-103.5 -55.5t-130.5 -20.5q-66 0 -144.5 9.5t-119.5 24.5q-56 19 -80.5 58t-18.5 76.5t33.5 68
t65.5 37.5q123 -56 231 -80q99 109 201 1116zM221 1194l-100 57q-58 33 -2 74q115 93 289 219l131 -18q46 -58 121 -162.5t88 -126.5q14 -20 6.5 -38t-29.5 -23q-40 -11 -79.5 -8t-55.5 22q-18 20 -59.5 79t-53.5 74q-1 -1 -162 -129q-15 -9 -23 -13.5t-21.5 -9.5t-25.5 -4
t-24 7z" />
    <glyph glyph-name="Kcommaaccent" unicode="&#x136;" horiz-adv-x="1280" 
d="M10 -8q43 339 131.5 758.5t173.5 631.5q24 56 47.5 77t79.5 22q82 1 155 -24t110 -52q-95 -303 -132 -434q99 70 196 132t210 124.5t216.5 99.5t176.5 37q79 0 120.5 -47t31.5 -100q-227 -115 -483 -259t-373 -239q58 -67 177.5 -173.5t238.5 -212.5t176 -171
q29 -27 42.5 -47.5t10 -37t-9 -24.5t-21.5 -24q-15 -18 -89.5 -76.5t-92.5 -67.5q-50 -22 -101 21q-94 79 -197 179.5t-205 204.5t-155 154q-33 -170 -41 -219q6 -1 15 -3t20 -15t4 -33l-90 -258q-23 -25 -97.5 -9.5t-152.5 44.5t-92 41zM369 -315q0 61 55.5 100t146.5 39
q83 0 140 -43.5t57 -124.5q0 -83 -64 -154t-159 -94q-75 -16 -137 -8.5t-93.5 43.5t-7.5 86q57 -2 109.5 10.5t66.5 36.5q-46 6 -80 31t-34 78z" />
    <glyph glyph-name="kcommaaccent" unicode="&#x137;" horiz-adv-x="1036" 
d="M39 16q-6 80 12 306q20 228 82.5 567t128.5 592q8 31 24 43t31 12q40 0 122 -20.5t130 -38.5q33 -12 37.5 -28.5t-6.5 -39.5q-35 -130 -93 -379t-67 -285q13 11 53 47.5t60.5 55t61.5 52.5t68 53t67 44.5t72.5 38.5t70 23t72.5 10q47 0 83 -13t53.5 -32t28.5 -41.5
t9.5 -41.5t-4.5 -32q-315 -142 -535 -338q345 -380 477 -553q40 -44 45 -68t-20 -44q-14 -12 -90.5 -50t-120.5 -57q-56 -28 -100 21q-53 63 -204.5 262.5t-203.5 247.5q-15 -112 -10 -367q1 -35 -12 -51t-33 -14q-21 3 -70 14.5t-96.5 23.5t-50.5 13q-44 10 -55.5 21.5
t-16.5 45.5zM254 -315q0 61 56 100t147 39q83 0 139.5 -43.5t56.5 -124.5q0 -83 -64 -154t-159 -94q-54 -14 -105.5 -11.5t-86 19t-49.5 45.5t4 68q57 -2 109.5 10.5t66.5 36.5q-46 6 -80.5 31t-34.5 78z" />
    <glyph glyph-name="kgreenlandic" unicode="&#x138;" horiz-adv-x="1036" 
d="M39 16q-3 40 12 306q18 318 105 747q12 55 57 55q40 0 120 -21t130 -40q10 -4 17.5 -7.5t11.5 -8.5t6.5 -7.5t2.5 -10v-9.5t-2.5 -12t-2.5 -13q-11 -51 -27.5 -159.5t-28.5 -151.5q43 45 90 90t114 100.5t129 96.5t130.5 69.5t122.5 28.5q47 0 83 -13t53.5 -32
t28.5 -41.5t9.5 -41.5t-4.5 -32q-141 -64 -301 -171.5t-295 -227.5q94 -88 240.5 -237.5t236.5 -254.5q41 -43 45.5 -68t-20.5 -44q-14 -12 -90.5 -50t-120.5 -57q-53 -26 -100 21q-54 58 -144 160.5t-156.5 176t-107.5 111.5q-14 -104 -10 -305q1 -35 -12 -51t-33 -14
q-21 3 -70 14.5t-96.5 23.5t-50.5 13q-44 10 -55.5 21.5t-16.5 45.5z" />
    <glyph glyph-name="Lacute" unicode="&#x139;" horiz-adv-x="987" 
d="M-41 74l170 41q67 372 159 775t163 568q47 22 182.5 -15t181.5 -67q-73 -197 -166.5 -546.5t-146.5 -636.5q365 68 571 59q23 -1 79 -74q72 -92 76 -143q3 -31 -26 -31q-350 -7 -739 -63q-8 -74 -8 -103q-1 -17 -38.5 -17.5t-90.5 11.5t-105 28t-88 31l-18 -4
q-49 -7 -112 65q-52 58 -56 99q-2 20 12 23zM760 1552q-19 -16 -71.5 0.5t-92 45.5t-27.5 44q11 13 54 69t63.5 79.5t55 56.5t63.5 47q58 29 156 -13q74 -32 95 -69q12 -20 -3 -32q-48 -37 -116 -89.5t-110 -85t-67 -53.5z" />
    <glyph glyph-name="lacute" unicode="&#x13a;" horiz-adv-x="501" 
d="M49 0q-5 8 -6.5 23t-0.5 36.5t2.5 38.5t4.5 45.5t4 40.5q23 248 104.5 662t161.5 667q7 19 48 19q37 0 107 -21.5t125 -50t50 -45.5q-195 -745 -250 -1345q-12 -108 -16 -166q-23 -25 -172 21.5t-162 74.5zM604 1571q-19 -16 -71 0.5t-91.5 45.5t-27.5 44t54 69t63 79
t55 57.5t63 46.5q57 28 155 -13q73 -31 96 -69q13 -21 -3 -33q-51 -40 -117 -90.5t-108.5 -83t-67.5 -53.5z" />
    <glyph glyph-name="Lcommaaccent" unicode="&#x13b;" horiz-adv-x="987" 
d="M-41 74l170 41q67 372 159 775t163 568q47 22 182.5 -15t181.5 -67q-73 -197 -166.5 -546.5t-146.5 -636.5q365 68 571 59q23 -1 79 -74q72 -92 76 -143q3 -31 -26 -31q-350 -7 -739 -63q-8 -74 -8 -103q-1 -17 -38.5 -17.5t-90.5 11.5t-105 28t-88 31l-18 -4
q-49 -7 -112 65q-52 58 -56 99q-2 20 12 23zM485 -315q0 61 56 100t147 39q83 0 140 -43.5t57 -124.5q0 -83 -64 -154t-159 -94q-75 -16 -137 -8.5t-93.5 43.5t-7.5 86q57 -2 109.5 10.5t66.5 36.5q-46 6 -80.5 31t-34.5 78z" />
    <glyph glyph-name="lcommaaccent" unicode="&#x13c;" horiz-adv-x="501" 
d="M49 0q-5 8 -6.5 23t-0.5 36.5t2.5 38.5t4.5 45.5t4 40.5q23 248 104.5 662t161.5 667q7 19 48 19q37 0 107 -21.5t125 -50t50 -45.5q-195 -745 -250 -1345q-12 -108 -16 -166q-23 -25 -172 21.5t-162 74.5zM-16 -315q0 61 55.5 100t146.5 39q83 0 140 -43.5t57 -124.5
q0 -83 -64 -154t-159 -94q-75 -16 -137 -8.5t-93.5 43.5t-7.5 86q57 -2 109.5 10.5t66.5 36.5q-46 6 -80 31t-34 78z" />
    <glyph glyph-name="Lcaron" unicode="&#x13d;" horiz-adv-x="987" 
d="M-41 74l170 41q67 372 159 775t163 568q47 22 182.5 -15t181.5 -67q-73 -197 -166.5 -546.5t-146.5 -636.5q365 68 571 59q23 -1 79 -74q72 -92 76 -143q3 -31 -26 -31q-350 -7 -739 -63q-8 -74 -8 -103q-1 -17 -38.5 -17.5t-90.5 11.5t-105 28t-88 31l-18 -4
q-49 -7 -112 65q-52 58 -56 99q-2 20 12 23zM918 1352q0 61 55.5 101t146.5 40q83 0 140 -44.5t57 -123.5q0 -84 -63.5 -155.5t-159.5 -94.5q-75 -16 -137 -8.5t-93.5 43.5t-7.5 86q57 -2 109.5 10.5t66.5 36.5q-46 6 -80 32t-34 77z" />
    <glyph glyph-name="lcaron" unicode="&#x13e;" horiz-adv-x="692" 
d="M49 0q-5 8 -6.5 23t-0.5 36.5t2.5 38.5t4.5 45.5t4 40.5q23 248 104.5 662t161.5 667q7 19 48 19q37 0 107 -21.5t125 -50t50 -45.5q-195 -745 -250 -1345q-12 -108 -16 -166q-23 -25 -172 21.5t-162 74.5zM711 1321q0 61 55.5 100t146.5 39q83 0 140 -43.5t57 -124.5
q0 -83 -64 -154t-159 -94q-75 -16 -137 -8.5t-93.5 43.5t-7.5 86q57 -2 109.5 10.5t66.5 36.5q-46 6 -80 31t-34 78z" />
    <glyph glyph-name="Ldot" unicode="&#x13f;" horiz-adv-x="1140" 
d="M-41 74l170 41q67 372 159 775t163 568q47 22 182.5 -15t181.5 -67q-73 -197 -166.5 -546.5t-146.5 -636.5q365 68 571 59q23 -1 79 -74q72 -92 76 -143q3 -31 -26 -31q-350 -7 -739 -63q-8 -74 -8 -103q-1 -17 -38.5 -17.5t-90.5 11.5t-105 28t-88 31l-18 -4
q-49 -7 -112 65q-52 58 -56 99q-2 20 12 23zM883 588q-105 34 -105 121q0 33 16 71.5t48 76.5t91.5 63.5t135.5 25.5q50 0 95.5 -42t45.5 -120q0 -26 -5.5 -60t-20.5 -77t-37.5 -77.5t-61.5 -58.5t-88 -24q-70 0 -100 22t-14 79z" />
    <glyph glyph-name="ldot" unicode="&#x140;" horiz-adv-x="1003" 
d="M49 0q-5 8 -6.5 23t-0.5 36.5t2.5 38.5t4.5 45.5t4 40.5q23 248 104.5 662t161.5 667q7 19 48 19q37 0 107 -21.5t125 -50t50 -45.5q-195 -745 -250 -1345q-12 -108 -16 -166q-23 -25 -172 21.5t-162 74.5zM707 557q-105 34 -105 121q0 33 16 71.5t48 76.5t91.5 63.5
t135.5 25.5q50 0 95.5 -41.5t45.5 -119.5q0 -26 -5.5 -60t-20.5 -77t-37.5 -77.5t-61.5 -58.5t-88 -24q-70 0 -100 22t-14 78z" />
    <glyph glyph-name="Lslash" unicode="&#x141;" horiz-adv-x="987" 
d="M72 322q-33 -19 -75.5 7.5t-57 63.5t3.5 58q70 49 284 170q131 621 224 837q47 22 182.5 -15t181.5 -67q-73 -195 -164 -534q131 64 195 86q20 6 60 -31.5t53.5 -77t-23.5 -61.5q-135 -55 -346 -160q-52 -207 -88 -405q365 68 571 59q23 -1 79 -74q72 -92 76 -143
q3 -31 -26 -31q-350 -7 -739 -63q-8 -74 -8 -103q-1 -17 -38.5 -17.5t-90.5 11.5t-105 28t-88 31l-18 -4q-49 -7 -112 65q-52 58 -56 99q-2 20 12 23l170 41l49 266z" />
    <glyph glyph-name="lslash" unicode="&#x142;" horiz-adv-x="501" 
d="M53 426q-33 -19 -75 8t-56.5 64t2.5 57q75 53 201 127q92 511 194 831q7 19 48 19q37 0 107 -21.5t125 -50t50 -45.5q-64 -240 -123 -516q68 33 125 53q19 5 58.5 -32.5t54 -77t-24.5 -62.5q-153 -63 -258 -118q-60 -322 -82 -592q-12 -108 -16 -166q-23 -25 -172 21.5
t-162 74.5q-5 8 -6.5 23t-0.5 36.5t2.5 38.5t4.5 45.5t4 40.5q9 112 33 260z" />
    <glyph glyph-name="Nacute" unicode="&#x143;" horiz-adv-x="1333" 
d="M858 545h25q13 46 40 141q61 215 93.5 325.5t81 261t83 217t60.5 66.5q123 0 220 -22t108 -51q-181 -385 -295.5 -784.5t-169.5 -747.5q-6 -19 -76 -19q-69 0 -164.5 30.5t-118.5 70.5q-37 112 -77.5 292t-78 366.5t-50.5 242.5l-21 10q-48 -132 -91 -346t-54 -430
q-1 -13 2 -17t16.5 -8t24.5 -10q19 -10 0 -77.5t-52 -145.5t-34 -84q-6 -21 -57 -13t-114 30.5t-116 45.5t-63 31q31 277 95 592t155.5 596t179.5 381q65 -7 160.5 -36t131.5 -58q21 -197 70 -473t86 -377zM975 1556q-19 -16 -71.5 0.5t-92 46t-27.5 44.5q9 11 53.5 68.5
t64 80t54.5 55.5t64 47q58 29 156 -13q74 -32 95 -69q12 -20 -3 -32q-48 -37 -116 -89.5t-110 -85t-67 -53.5z" />
    <glyph glyph-name="nacute" unicode="&#x144;" horiz-adv-x="1017" 
d="M600 549h-22q-71 -132 -132 -309.5t-67 -294.5q-62 -37 -166 -37q-102 0 -142 69.5t-40 198.5q0 218 31 421.5t88 334.5t124 131q38 0 83 -12t76.5 -32.5t25.5 -41.5q-31 -113 -47 -174.5t-34 -158t-24 -177.5h8q11 26 48.5 115.5t55.5 130t50.5 112t63 129t63.5 111.5
q21 41 84 41q45 0 113.5 -19t123 -51t50.5 -63q-11 -78 -87.5 -349t-76.5 -391q0 -135 76 -135q21 0 44 24t42 62t30.5 66t20.5 53q1 -2 15.5 0.5t37.5 -3.5t45 -15.5t37.5 -34t15.5 -60.5q0 -35 -25.5 -82t-70 -93t-115 -77.5t-149.5 -31.5q-92 0 -158.5 26.5t-101 71
t-48.5 95.5t-11 108q6 110 65 342zM633 1188q-19 -16 -71.5 0.5t-92 45.5t-27.5 44q11 13 54 69t63.5 79.5t55 56.5t63.5 47q57 28 155 -13q73 -31 96 -69q13 -21 -3 -33q-51 -40 -117 -90.5t-108.5 -83t-67.5 -53.5z" />
    <glyph glyph-name="Ncommaaccent" unicode="&#x145;" horiz-adv-x="1333" 
d="M858 545h25q13 46 40 141q61 215 93.5 325.5t81 261t83 217t60.5 66.5q123 0 220 -22t108 -51q-181 -385 -295.5 -784.5t-169.5 -747.5q-6 -19 -76 -19q-69 0 -164.5 30.5t-118.5 70.5q-37 112 -77.5 292t-78 366.5t-50.5 242.5l-21 10q-48 -132 -91 -346t-54 -430
q-1 -13 2 -17t16.5 -8t24.5 -10q19 -10 0 -77.5t-52 -145.5t-34 -84q-6 -21 -57 -13t-114 30.5t-116 45.5t-63 31q31 277 95 592t155.5 596t179.5 381q65 -7 160.5 -36t131.5 -58q21 -197 70 -473t86 -377zM365 -315q0 61 55.5 100t146.5 39q83 0 140 -43.5t57 -124.5
q0 -83 -64 -154t-159 -94q-75 -16 -137 -8.5t-93.5 43.5t-7.5 86q57 -2 109.5 10.5t66.5 36.5q-46 6 -80 31t-34 78z" />
    <glyph glyph-name="ncommaaccent" unicode="&#x146;" horiz-adv-x="1017" 
d="M600 549h-22q-71 -132 -132 -309.5t-67 -294.5q-62 -37 -166 -37q-102 0 -142 69.5t-40 198.5q0 218 31 421.5t88 334.5t124 131q38 0 83 -12t76.5 -32.5t25.5 -41.5q-31 -113 -47 -174.5t-34 -158t-24 -177.5h8q11 26 48.5 115.5t55.5 130t50.5 112t63 129t63.5 111.5
q21 41 84 41q45 0 113.5 -19t123 -51t50.5 -63q-11 -78 -87.5 -349t-76.5 -391q0 -135 76 -135q21 0 44 24t42 62t30.5 66t20.5 53q1 -2 15.5 0.5t37.5 -3.5t45 -15.5t37.5 -34t15.5 -60.5q0 -35 -25.5 -82t-70 -93t-115 -77.5t-149.5 -31.5q-92 0 -158.5 26.5t-101 71
t-48.5 95.5t-11 108q6 110 65 342zM254 -315q0 61 56 100t147 39q83 0 139.5 -43.5t56.5 -124.5q0 -83 -64 -154t-159 -94q-54 -14 -105.5 -11.5t-86 19t-49.5 45.5t4 68q57 -2 109.5 10.5t66.5 36.5q-46 6 -80.5 31t-34.5 78z" />
    <glyph glyph-name="Ncaron" unicode="&#x147;" horiz-adv-x="1333" 
d="M858 545h25q13 46 40 141q61 215 93.5 325.5t81 261t83 217t60.5 66.5q123 0 220 -22t108 -51q-181 -385 -295.5 -784.5t-169.5 -747.5q-6 -19 -76 -19q-69 0 -164.5 30.5t-118.5 70.5q-37 112 -77.5 292t-78 366.5t-50.5 242.5l-21 10q-48 -132 -91 -346t-54 -430
q-1 -13 2 -17t16.5 -8t24.5 -10q19 -10 0 -77.5t-52 -145.5t-34 -84q-6 -21 -57 -13t-114 30.5t-116 45.5t-63 31q31 277 95 592t155.5 596t179.5 381q65 -7 160.5 -36t131.5 -58q21 -197 70 -473t86 -377zM1167 1884l101 -55q28 -12 29 -33t-27 -41q-115 -93 -289 -219
l-131 18q-86 109 -215 293q-14 20 -7.5 39.5t27.5 24.5q104 22 138 -15q16 -19 59 -80.5t57 -78.5q26 22 87 68t77 59q55 41 94 20z" />
    <glyph glyph-name="ncaron" unicode="&#x148;" horiz-adv-x="1017" 
d="M600 549h-22q-71 -132 -132 -309.5t-67 -294.5q-62 -37 -166 -37q-102 0 -142 69.5t-40 198.5q0 218 31 421.5t88 334.5t124 131q38 0 83 -12t76.5 -32.5t25.5 -41.5q-31 -113 -47 -174.5t-34 -158t-24 -177.5h8q11 26 48.5 115.5t55.5 130t50.5 112t63 129t63.5 111.5
q21 41 84 41q45 0 113.5 -19t123 -51t50.5 -63q-11 -78 -87.5 -349t-76.5 -391q0 -135 76 -135q21 0 44 24t42 62t30.5 66t20.5 53q1 -2 15.5 0.5t37.5 -3.5t45 -15.5t37.5 -34t15.5 -60.5q0 -35 -25.5 -82t-70 -93t-115 -77.5t-149.5 -31.5q-92 0 -158.5 26.5t-101 71
t-48.5 95.5t-11 108q6 110 65 342zM860 1526l101 -56q28 -12 29 -32.5t-27 -40.5q-115 -93 -289 -219l-131 18q-86 109 -215 293q-14 20 -7.5 39t27.5 24q104 22 137 -14q16 -19 59.5 -81t57.5 -79q26 22 87 68t77 59q56 42 94 21z" />
    <glyph glyph-name="napostrophe" unicode="&#x149;" horiz-adv-x="1236" 
d="M819 549h-22q-71 -132 -132 -309.5t-67 -294.5q-62 -37 -166 -37q-102 0 -142 69.5t-40 198.5q0 218 31.5 421.5t88.5 334.5t124 131q61 0 126.5 -27t57.5 -59q-31 -113 -47 -174.5t-34 -158t-24 -177.5h9q13 32 48.5 116t55 128.5t51 113.5t62 127.5t63.5 112.5
q20 41 84 41q45 0 113.5 -19t123 -51t50.5 -63q-11 -78 -87.5 -349t-76.5 -391q0 -135 76 -135q21 0 44 24t42 62t30.5 66t20.5 53q1 -2 15.5 0.5t38 -3.5t45 -15.5t37.5 -34t16 -60.5q0 -27 -15.5 -63t-47.5 -75t-74 -71.5t-101 -53.5t-123 -21q-92 0 -158.5 26.5t-101 71
t-48.5 95.5t-11 108q6 110 65 342zM240 1393q0 61 51.5 101t134.5 40q76 0 128 -44.5t52 -125.5q0 -85 -58.5 -157t-146.5 -95q-69 -17 -125.5 -9t-85 44.5t-6.5 87.5q51 -2 99.5 10.5t62.5 36.5q-106 14 -106 111z" />
    <glyph glyph-name="Eng" unicode="&#x14a;" horiz-adv-x="1333" 
d="M858 545h25q13 46 40 141q61 215 93.5 325.5t81 261t83 217t60.5 66.5q123 0 220 -22t108 -51q-31 -69 -61.5 -144t-53 -133t-51 -144t-42.5 -128.5t-42.5 -139.5t-36 -123.5t-37 -133t-33.5 -119.5q-22 -71 -59 -199q-38 -128 -55.5 -186t-49 -149t-51.5 -127.5t-55 -92
t-68.5 -74.5t-81.5 -42t-104.5 -27.5t-128.5 -1.5q-90 4 -166 30q-56 19 -80.5 58t-18.5 76.5t33.5 68t65.5 37.5q9 -4 33 -15t35 -16t32 -14t35.5 -14.5t33.5 -11t36 -9.5q43 49 76.5 126t68.5 206q-43 127 -80.5 294t-70.5 342.5t-53 256.5l-21 10q-111 -304 -131 -690
q-1 -13 1.5 -17t16.5 -8t25 -10q11 -11 9 -35.5t-16 -66t-29 -77.5t-28.5 -69t-15.5 -41q-6 -21 -57 -12.5t-114 31.5t-115.5 46.5t-63.5 31.5q31 275 90 564t145.5 543.5t174.5 354.5q65 -7 160.5 -36t131.5 -58q21 -197 70 -473t86 -377z" />
    <glyph glyph-name="eng" unicode="&#x14b;" horiz-adv-x="989" 
d="M1014 973q-4 -33 -21 -103.5t-22 -97.5q-22 -101 -42.5 -221t-34.5 -212t-30.5 -193.5t-34 -177.5t-42.5 -151.5t-57.5 -127t-76.5 -93t-104 -61.5t-135 -20q-138 0 -224 30q-56 19 -80.5 58t-18.5 76.5t33.5 68t65.5 37.5q13 -6 46.5 -22t49 -22.5t43 -16t52.5 -15.5
q66 74 132 298.5t99 535.5h-37q-192 -357 -202 -563q-62 -37 -164 -37t-140 65.5t-38 194.5q0 218 31 415t88 321t124 124q38 0 83 -12t76.5 -32.5t25.5 -41.5q-31 -113 -47 -174.5t-34 -158t-24 -177.5h8q11 26 48.5 115.5t55.5 130t50.5 112t63 129t63.5 111.5
q21 41 84 41q45 0 113.5 -19t123 -51t50.5 -63z" />
    <glyph glyph-name="Omacron" unicode="&#x14c;" horiz-adv-x="1325" 
d="M31 555q0 127 32 254t88 233t127.5 193t154.5 142t165 71q13 -2 23.5 -5.5t17 -6t14.5 -8.5t10.5 -8t11 -10t11.5 -11q82 35 172 35q120 0 211.5 -27.5t148.5 -73t92.5 -112t49.5 -137.5t14 -156q0 -64 -9 -143t-33 -180.5t-59.5 -198t-95 -190.5t-133.5 -164.5
t-179.5 -114t-229.5 -43.5q-126 0 -229.5 40t-172 105.5t-115 152.5t-67 178t-20.5 185zM432 489q-9 -160 27 -261t116 -101q73 0 136.5 79t104 190t71 243t44 226t17.5 151q5 93 -16.5 156t-75.5 63q-32 0 -60.5 -15t-51 -45.5t-39 -60t-32.5 -76t-24 -74.5t-20 -73
q-11 -28 -29 -19q-10 2 -35.5 15t-34.5 22l-8 -19q-8 -18 -21 -56t-27 -86t-26 -117.5t-16 -141.5zM541 1716q107 24 274.5 31.5t288.5 1.5q23 -1 63 -59q51 -73 44 -115q-3 -25 -33 -25q-138 4 -273 3.5t-237 -11.5q-49 -5 -102 61q-44 54 -41 92q2 17 16 21z" />
    <glyph glyph-name="omacron" unicode="&#x14d;" horiz-adv-x="1003" 
d="M12 430q8 134 70 278.5t159 250t197 124.5q67 -23 82 -53q45 27 113 27q99 0 172 -23.5t114.5 -61t65.5 -94t31 -112.5t4 -127q-3 -53 -13 -112.5t-30.5 -131t-49 -138t-73 -130t-98.5 -110t-128.5 -75t-160.5 -28.5q-98 0 -178.5 32t-132 83.5t-86 120t-48 139
t-10.5 141.5zM346 369q-11 -109 12 -179.5t78 -70.5q58 0 108.5 74.5t81.5 181.5t49 192.5t23 137.5q0 2 2 26.5t2.5 34t0.5 32.5t-3.5 34.5t-9 25.5t-16 20.5t-25.5 6.5q-36 0 -76 -49.5t-70.5 -121.5t-52.5 -136t-32 -109q-3 -2 -12.5 -0.5t-22 6.5t-16.5 10
q-17 -50 -21 -116zM344 1376q107 24 274.5 31.5t288.5 1.5q23 -1 63 -59q51 -73 44 -115q-3 -25 -33 -25q-138 4 -273 3.5t-237 -11.5q-49 -5 -102 61q-44 54 -41 92q2 17 16 21z" />
    <glyph glyph-name="Obreve" unicode="&#x14e;" horiz-adv-x="1325" 
d="M31 555q0 127 32 254t88 233t127.5 193t154.5 142t165 71q13 -2 23.5 -5.5t17 -6t14.5 -8.5t10.5 -8t11 -10t11.5 -11q82 35 172 35q120 0 211.5 -27.5t148.5 -73t92.5 -112t49.5 -137.5t14 -156q0 -64 -9 -143t-33 -180.5t-59.5 -198t-95 -190.5t-133.5 -164.5
t-179.5 -114t-229.5 -43.5q-126 0 -229.5 40t-172 105.5t-115 152.5t-67 178t-20.5 185zM432 489q-9 -160 27 -261t116 -101q73 0 136.5 79t104 190t71 243t44 226t17.5 151q5 93 -16.5 156t-75.5 63q-32 0 -60.5 -15t-51 -45.5t-39 -60t-32.5 -76t-24 -74.5t-20 -73
q-11 -28 -29 -19q-10 2 -35.5 15t-34.5 22l-8 -19q-8 -18 -21 -56t-27 -86t-26 -117.5t-16 -141.5zM1010 1837q5 12 41.5 9.5t78 -11t76 -25.5t35.5 -34q-27 -90 -118.5 -162t-207.5 -72q-108 0 -177 49t-99 115q-9 20 -8.5 44t9 44.5t31 32t54.5 6.5q16 -36 30.5 -60
t44 -45.5t64.5 -21.5q28 0 51.5 11.5t41 32.5t29.5 41t24 46z" />
    <glyph glyph-name="obreve" unicode="&#x14f;" horiz-adv-x="1003" 
d="M12 430q8 134 70 278.5t159 250t197 124.5q67 -23 82 -53q45 27 113 27q99 0 172 -23.5t114.5 -61t65.5 -94t31 -112.5t4 -127q-3 -53 -13 -112.5t-30.5 -131t-49 -138t-73 -130t-98.5 -110t-128.5 -75t-160.5 -28.5q-98 0 -178.5 32t-132 83.5t-86 120t-48 139
t-10.5 141.5zM346 369q-11 -109 12 -179.5t78 -70.5q58 0 108.5 74.5t81.5 181.5t49 192.5t23 137.5q0 2 2 26.5t2.5 34t0.5 32.5t-3.5 34.5t-9 25.5t-16 20.5t-25.5 6.5q-36 0 -76 -49.5t-70.5 -121.5t-52.5 -136t-32 -109q-3 -2 -12.5 -0.5t-22 6.5t-16.5 10
q-17 -50 -21 -116zM797 1491q5 12 41.5 9.5t78 -11t76 -25.5t35.5 -34q-27 -90 -118.5 -162t-207.5 -72q-108 0 -177 49t-99 115q-9 20 -8.5 44t9 44.5t31 32t54.5 6.5q16 -36 30.5 -60t44 -45.5t64.5 -21.5q28 0 51.5 11.5t41 32.5t29.5 41t24 46z" />
    <glyph glyph-name="Ohungarumlaut" unicode="&#x150;" horiz-adv-x="1325" 
d="M31 555q0 127 32 254t88 233t127.5 193t154.5 142t165 71q13 -2 23.5 -5.5t17 -6t14.5 -8.5t10.5 -8t11 -10t11.5 -11q82 35 172 35q120 0 211.5 -27.5t148.5 -73t92.5 -112t49.5 -137.5t14 -156q0 -64 -9 -143t-33 -180.5t-59.5 -198t-95 -190.5t-133.5 -164.5
t-179.5 -114t-229.5 -43.5q-126 0 -229.5 40t-172 105.5t-115 152.5t-67 178t-20.5 185zM432 489q-9 -160 27 -261t116 -101q73 0 136.5 79t104 190t71 243t44 226t17.5 151q5 93 -16.5 156t-75.5 63q-32 0 -60.5 -15t-51 -45.5t-39 -60t-32.5 -76t-24 -74.5t-20 -73
q-11 -28 -29 -19q-10 2 -35.5 15t-34.5 22l-8 -19q-8 -18 -21 -56t-27 -86t-26 -117.5t-16 -141.5zM727 1550q-20 -16 -59 -0.5t-66 44.5t-18 46q97 179 194 252q39 23 92.5 6.5t92.5 -57t16 -63.5q-137 -133 -252 -228zM1122 1550q-20 -16 -59.5 0.5t-66 45.5t-15.5 44
q7 9 39.5 56.5t45.5 64t39.5 49t49 51.5t45.5 31q47 25 118 -18q55 -33 69 -73q8 -26 -9 -40q-36 -28 -85 -68.5t-102 -85t-69 -57.5z" />
    <glyph glyph-name="ohungarumlaut" unicode="&#x151;" horiz-adv-x="1003" 
d="M12 430q8 134 70 278.5t159 250t197 124.5q67 -23 82 -53q45 27 113 27q99 0 172 -23.5t114.5 -61t65.5 -94t31 -112.5t4 -127q-3 -53 -13 -112.5t-30.5 -131t-49 -138t-73 -130t-98.5 -110t-128.5 -75t-160.5 -28.5q-98 0 -178.5 32t-132 83.5t-86 120t-48 139
t-10.5 141.5zM346 369q-11 -109 12 -179.5t78 -70.5q58 0 108.5 74.5t81.5 181.5t49 192.5t23 137.5q0 2 2 26.5t2.5 34t0.5 32.5t-3.5 34.5t-9 25.5t-16 20.5t-25.5 6.5q-36 0 -76 -49.5t-70.5 -121.5t-52.5 -136t-32 -109q-3 -2 -12.5 -0.5t-22 6.5t-16.5 10
q-17 -50 -21 -116zM516 1186q-20 -16 -59 -0.5t-66 44.5t-18 46q97 179 194 252q39 23 92.5 6t92.5 -57.5t16 -63.5q-130 -126 -252 -227zM911 1186q-20 -16 -59.5 0.5t-66 45.5t-15.5 44q7 9 39.5 56.5t45.5 64t39.5 49t49 51.5t45.5 31q47 25 118 -18q55 -33 69 -73
q8 -26 -9 -40q-36 -28 -85 -68.5t-102 -85t-69 -57.5z" />
    <glyph glyph-name="OE" unicode="&#x152;" horiz-adv-x="1914" 
d="M31 555q0 127 32 254t88 233t127.5 193t154.5 142t165 71q13 -2 23.5 -5.5t17 -6t14.5 -8.5t10.5 -8t11 -10t11.5 -11q82 35 172 35q221 0 350 -95q302 59 592 97q14 1 77 14.5t103 11t72 -27.5q9 -7 37.5 -86.5t28.5 -92.5q0 -10 -80.5 -63.5t-108.5 -65.5
q-56 -22 -104 -23t-49 17q-2 13 -1.5 26t1.5 22l2 10q-214 -14 -430 -45q26 -91 26 -205q0 -46 -6 -101l84 7q35 2 80.5 6.5t70.5 6.5t48 0.5t32 -9.5q30 -23 64.5 -86.5t34.5 -79.5q0 -43 -43 -43q-153 -2 -408 -33q-55 -217 -147 -371q588 126 786 119q22 -1 64 -68
q56 -90 56 -145q-1 -35 -32 -35q-189 -3 -435.5 -36t-700.5 -107h-21q-124 -59 -266 -59q-126 0 -229.5 40t-172 105.5t-115 152.5t-67 178t-20.5 185zM432 489q-9 -160 27 -261t116 -101q52 0 99 39t84 107t65 146t51 171q-34 39 -48.5 79t5.5 54q27 16 80 27
q26 133 37 266q0 53 -2 78q-34 25 -65 68.5t-35 72.5q-31 -2 -58 -18.5t-48.5 -47.5t-37.5 -60.5t-31 -74t-23 -72.5t-19 -71q-11 -28 -29 -19q-10 2 -35.5 15t-34.5 22l-8 -19q-8 -18 -21 -56t-27 -86t-26 -117.5t-16 -141.5z" />
    <glyph glyph-name="oe" unicode="&#x153;" horiz-adv-x="1529" 
d="M12 430q8 134 70 278.5t159 250t197 124.5q67 -23 82 -53q45 27 113 27q202 0 274 -131q110 182 275 182q48 0 103.5 -18t109.5 -53.5t89.5 -98.5t35.5 -143q0 -125 -45 -235t-112 -171t-134 -61q-33 0 -63.5 9.5t-49 22t-34 27.5t-21.5 23.5t-8 13.5q-4 -9 -13 -34.5
t-20.5 -88t-11.5 -125.5q0 -143 120 -143q55 0 106 24t88 60.5t66.5 82.5t46.5 89t23 80q22 16 55 16q75 0 124 -30.5t49 -90.5q0 -52 -18.5 -108.5t-59.5 -113.5t-98.5 -102t-143 -73.5t-186.5 -28.5q-130 0 -230.5 56t-150.5 163q-123 -143 -332 -143q-98 0 -178.5 32
t-132 83.5t-86 120t-48 139t-10.5 141.5zM346 369q-11 -109 12 -179.5t78 -70.5q58 0 108.5 74.5t81.5 181.5t49 192.5t23 137.5q0 2 2 26.5t2.5 34t0.5 32.5t-3.5 34.5t-9 25.5t-16 20.5t-25.5 6.5q-36 0 -76 -49.5t-70.5 -121.5t-52.5 -136t-32 -109q-3 -2 -12.5 -0.5
t-22 6.5t-16.5 10q-17 -50 -21 -116zM1079 559q0 -2 1 -5t4.5 -10t8 -13t13 -10.5t18.5 -4.5q48 0 84.5 107.5t38.5 220.5q2 84 -20 84q-14 0 -29 -33q-92 -197 -119 -336z" />
    <glyph glyph-name="Racute" unicode="&#x154;" horiz-adv-x="1300" 
d="M49 -63q36 212 125 588t168 675q-131 -35 -192 -125q-21 -33 -46 -33q-39 0 -84 55t-47 93q3 7 10 18t38.5 41t74 55.5t122.5 51.5t177 37q7 26 13 39q18 52 47 73t90 21q47 0 124 -22t103 -48l-22 -63q283 -33 457.5 -153.5t174.5 -291.5q0 -147 -136 -262t-357 -176
q138 -116 266 -244l27 8q28 8 60 -13.5t57.5 -57.5t42.5 -66.5t24 -48.5q17 -40 0 -68q-16 -29 -116 -101t-136 -75q-74 63 -290.5 275.5t-309.5 290.5l-55 -263q-2 -15 7.5 -38.5t2.5 -57.5q-13 -67 -42 -128.5t-62 -61.5q-46 0 -174.5 32t-141.5 44zM694 1192
q-59 -233 -125 -526q201 11 304.5 76t103.5 182q0 95 -77.5 164.5t-205.5 103.5zM872 1538q-19 -16 -71 0.5t-91.5 45.5t-27.5 44q11 13 54 69t63.5 79.5t55 56.5t63.5 47q57 29 155 -13q73 -31 95 -69q13 -21 -3 -33q-51 -40 -117 -90.5t-108.5 -83t-67.5 -53.5z" />
    <glyph glyph-name="racute" unicode="&#x155;" horiz-adv-x="847" 
d="M401 664l13 -7q23 51 45.5 119.5t43.5 142.5t29 97q15 45 65 60.5t132 -1.5q67 -13 90 -40.5t21 -61.5q-2 -27 -29.5 -84t-56 -126t-31.5 -124q-2 -20 10.5 -36.5t34.5 -16.5q46 0 85 44t59.5 88t21.5 44q13 0 25.5 -1.5t39 -9t42.5 -29t16 -54.5q0 -101 -77 -190
t-192 -89q-53 0 -93.5 16t-63.5 39.5t-37.5 57.5t-19 63t-5.5 62q-51 -103 -108 -302t-66 -366q-35 -14 -125.5 2t-166.5 46t-76 52q0 57 71 627q4 41 6.5 61t8 61.5t10.5 64.5t13 57.5t18 53.5t23 39t29.5 29t35.5 9q36 0 90 -17t90 -34l35 -17q-6 -43 -28 -158.5
t-28 -170.5zM569 1190q-19 -16 -71 0.5t-91.5 45.5t-27.5 44t54 69t63 79t55 57.5t63 46.5q57 28 155 -13q73 -31 96 -69q13 -21 -3 -33q-51 -40 -117 -90.5t-108.5 -83t-67.5 -53.5z" />
    <glyph glyph-name="Rcommaaccent" unicode="&#x156;" horiz-adv-x="1300" 
d="M49 -63q36 212 125 588t168 675q-131 -35 -192 -125q-21 -33 -46 -33q-39 0 -84 55t-47 93q3 7 10 18t38.5 41t74 55.5t122.5 51.5t177 37q7 26 13 39q18 52 47 73t90 21q47 0 124 -22t103 -48l-22 -63q283 -33 457.5 -153.5t174.5 -291.5q0 -147 -136 -262t-357 -176
q138 -116 266 -244l27 8q28 8 60 -13.5t57.5 -57.5t42.5 -66.5t24 -48.5q17 -40 0 -68q-16 -29 -116 -101t-136 -75q-74 63 -290.5 275.5t-309.5 290.5l-55 -263q-2 -15 7.5 -38.5t2.5 -57.5q-13 -67 -42 -128.5t-62 -61.5q-46 0 -174.5 32t-141.5 44zM694 1192
q-59 -233 -125 -526q201 11 304.5 76t103.5 182q0 95 -77.5 164.5t-205.5 103.5zM406 -315q0 61 55.5 100t146.5 39q83 0 140 -43.5t57 -124.5q0 -83 -64 -154t-159 -94q-75 -16 -137 -8.5t-93.5 43.5t-7.5 86q57 -2 109.5 10.5t66.5 36.5q-46 6 -80 31t-34 78z" />
    <glyph glyph-name="rcommaaccent" unicode="&#x157;" horiz-adv-x="847" 
d="M401 664l13 -7q23 51 45.5 119.5t43.5 142.5t29 97q15 45 65 60.5t132 -1.5q67 -13 90 -40.5t21 -61.5q-2 -27 -29.5 -84t-56 -126t-31.5 -124q-2 -20 10.5 -36.5t34.5 -16.5q46 0 85 44t59.5 88t21.5 44q13 0 25.5 -1.5t39 -9t42.5 -29t16 -54.5q0 -101 -77 -190
t-192 -89q-53 0 -93.5 16t-63.5 39.5t-37.5 57.5t-19 63t-5.5 62q-51 -103 -108 -302t-66 -366q-35 -14 -125.5 2t-166.5 46t-76 52q0 57 71 627q4 41 6.5 61t8 61.5t10.5 64.5t13 57.5t18 53.5t23 39t29.5 29t35.5 9q36 0 90 -17t90 -34l35 -17q-6 -43 -28 -158.5
t-28 -170.5zM-33 -315q0 61 56 100t147 39q83 0 140 -43.5t57 -124.5q0 -83 -64 -154t-160 -94q-54 -14 -105.5 -11.5t-86 19t-49.5 45.5t4 68q57 -2 109.5 10.5t66.5 36.5q-46 6 -80.5 31t-34.5 78z" />
    <glyph glyph-name="Rcaron" unicode="&#x158;" horiz-adv-x="1300" 
d="M49 -63q36 212 125 588t168 675q-131 -35 -192 -125q-21 -33 -46 -33q-39 0 -84 55t-47 93q3 7 10 18t38.5 41t74 55.5t122.5 51.5t177 37q7 26 13 39q18 52 47 73t90 21q47 0 124 -22t103 -48l-22 -63q283 -33 457.5 -153.5t174.5 -291.5q0 -147 -136 -262t-357 -176
q138 -116 266 -244l27 8q28 8 60 -13.5t57.5 -57.5t42.5 -66.5t24 -48.5q17 -40 0 -68q-16 -29 -116 -101t-136 -75q-74 63 -290.5 275.5t-309.5 290.5l-55 -263q-2 -15 7.5 -38.5t2.5 -57.5q-13 -67 -42 -128.5t-62 -61.5q-46 0 -174.5 32t-141.5 44zM694 1192
q-59 -233 -125 -526q201 11 304.5 76t103.5 182q0 95 -77.5 164.5t-205.5 103.5zM1102 1882l100 -55q28 -12 29 -33t-27 -41q-115 -93 -289 -219l-131 18q-86 109 -215 293q-14 20 -7 39.5t28 24.5q103 22 137 -15q16 -19 59.5 -80.5t57.5 -78.5q26 22 87 68t77 59
q55 41 94 20z" />
    </font>
</defs>
</svg>
