<?xml version="1.0" standalone="no"?>
<!DOCTYPE svg PUBLIC "-//W3C//DTD SVG 1.1//EN" "http://www.w3.org/Graphics/SVG/1.1/DTD/svg11.dtd" >
<svg xmlns="http://www.w3.org/2000/svg" xmlns:xlink="http://www.w3.org/1999/xlink" version="1.1">
<metadata>
Created by FontForge 20170731 at Fri Nov 20 17:27:41 2020
 By Aleksey,,,
Copyright (c) 2018 Commercial Type, Inc.. All rights reserved.
</metadata>
<defs>
<font id="StyreneBLC-Bold" horiz-adv-x="1228" >
  <font-face 
    font-family="Styrene B LC Bold"
    font-weight="700"
    font-stretch="normal"
    units-per-em="2048"
    panose-1="0 0 0 0 0 0 0 0 0 0"
    ascent="1565"
    descent="-483"
    x-height="1061"
    cap-height="1454"
    bbox="-211 -655 2839 2486"
    underline-thickness="155"
    underline-position="-310"
    unicode-range="U+0020-FB02"
  />
<missing-glyph horiz-adv-x="1024" 
d="M102 -483v2048h820v-2048h-820zM205 -381h614v1843h-614v-1843z" />
    <glyph glyph-name=".notdef" horiz-adv-x="1024" 
d="M102 -483v2048h820v-2048h-820zM205 -381h614v1843h-614v-1843z" />
    <glyph glyph-name=".null" horiz-adv-x="0" 
 />
    <glyph glyph-name="nonmarkingreturn" horiz-adv-x="682" 
 />
    <glyph glyph-name="space" unicode=" " horiz-adv-x="516" 
 />
    <glyph glyph-name="exclam" unicode="!" horiz-adv-x="710" 
d="M190 487v967h330v-967h-330zM164 0v360h383v-360h-383z" />
    <glyph glyph-name="quotedbl" unicode="&#x22;" horiz-adv-x="1077" 
d="M451 821h-287v633h287v-633zM911 821h-284v633h284v-633z" />
    <glyph glyph-name="numbersign" unicode="#" horiz-adv-x="1544" 
d="M178 0l88 342h-219v246h283l78 301h-218v246h281l82 319h278l-81 -319h249l82 319h281l-82 -319h217v-246h-283l-77 -301h217v-246h-281l-88 -342h-278l88 342h-252l-88 -342h-277zM606 588h252l78 301h-252z" />
    <glyph glyph-name="dollar" unicode="$" horiz-adv-x="1257" 
d="M485 -252v262q-175 33 -271.5 148t-96.5 284v9h321v-5q0 -83 52 -130.5t139 -47.5t133.5 38.5t46.5 103.5q0 60 -35 96t-106 57q-20 6 -86.5 24t-96.5 27q-178 54 -265 157.5t-87 279.5q0 156 94.5 261.5t257.5 139.5v246h289v-248q160 -34 243.5 -141t86.5 -262v-3h-318
v3q-3 64 -45.5 105.5t-115.5 41.5q-75 0 -119.5 -36t-44.5 -97q0 -58 35 -92.5t108 -57.5q20 -6 85.5 -24t96.5 -27q179 -52 267 -157t88 -283q0 -157 -96 -267t-271 -145v-260h-289z" />
    <glyph glyph-name="percent" unicode="%" horiz-adv-x="2033" 
d="M489 696q-169 0 -284 112.5t-115 278.5t115 279t284 113q167 0 282.5 -113t115.5 -279q0 -165 -115 -278t-283 -113zM340 0l1065 1454h291l-1067 -1454h-289zM489 934q64 0 106 44t42 109t-42 109.5t-106 44.5q-65 0 -107 -44.5t-42 -109.5t42 -109t107 -44zM1546 -29
q-168 0 -283.5 113t-115.5 278t115.5 278.5t283.5 113.5q167 0 282.5 -113t115.5 -279q0 -165 -115 -278t-283 -113zM1546 209q64 0 106 44t42 109t-42 109.5t-106 44.5q-65 0 -107 -44.5t-42 -109.5t42 -109t107 -44z" />
    <glyph glyph-name="ampersand" unicode="&#x26;" horiz-adv-x="1642" 
d="M1227 0l-189 180q-101 -99 -207 -152t-249 -53q-224 0 -360 109.5t-136 290.5q0 78 25 144.5t72 119t94.5 90t113.5 78.5q-75 77 -115 153t-40 164q0 152 118.5 253.5t311.5 101.5q215 0 333.5 -98t118.5 -259q0 -65 -24 -121.5t-69 -101.5t-86.5 -75.5t-98.5 -63.5
l186 -182l223 229h373l-395 -426l387 -381h-387zM655 942l17 -16q69 47 106 88.5t37 95.5q0 59 -39 94t-100 35q-57 0 -95 -33.5t-38 -85.5q0 -31 17.5 -64t36 -53.5t58.5 -60.5zM420 420q0 -67 46.5 -111.5t127.5 -44.5q119 0 240 115l-259 248q-79 -55 -117 -99.5
t-38 -107.5z" />
    <glyph glyph-name="quotesingle" unicode="'" horiz-adv-x="622" 
d="M457 821h-293v633h293v-633z" />
    <glyph glyph-name="parenleft" unicode="(" horiz-adv-x="761" 
d="M440 717q0 -135 18.5 -266.5t42 -223t64.5 -196t65.5 -155t65.5 -130.5h-299q-49 96 -83 172.5t-78.5 204.5t-68.5 279.5t-24 314.5q0 132 18 261.5t42 222.5t63.5 195t65.5 156.5t65 130.5h299q-42 -82 -65.5 -130t-65.5 -153.5t-65 -195.5t-41.5 -221t-18.5 -266z" />
    <glyph glyph-name="parenright" unicode=")" horiz-adv-x="761" 
d="M322 717q0 135 -18.5 266t-41.5 221t-65 195.5t-65.5 153.5t-65.5 130h301q38 -74 64.5 -130t65 -157t62.5 -195t41.5 -223t17.5 -261q0 -163 -23.5 -314.5t-67 -278.5t-78 -205.5t-82.5 -172.5h-301q41 80 65.5 130.5t65.5 155t64.5 196t42 223t18.5 266.5z" />
    <glyph glyph-name="asterisk" unicode="*" horiz-adv-x="1001" 
d="M383 1513h235l-2 -280l256 92l78 -211l-272 -94l192 -229l-184 -142l-184 225l-185 -227l-186 141l195 230l-275 96l78 211l256 -92z" />
    <glyph glyph-name="plus" unicode="+" horiz-adv-x="1443" 
d="M565 100v426h-409v295h409v424h312v-424h411v-295h-411v-426h-312z" />
    <glyph glyph-name="comma" unicode="," horiz-adv-x="679" 
d="M406 -410h-234q147 235 160 410h-182v401h382v-354q0 -244 -126 -457z" />
    <glyph glyph-name="hyphen" unicode="-" horiz-adv-x="1003" 
d="M156 463v307h692v-307h-692z" />
    <glyph glyph-name="period" unicode="." horiz-adv-x="679" 
d="M150 0v401h382v-401h-382z" />
    <glyph glyph-name="slash" unicode="/" horiz-adv-x="878" 
d="M39 -143l498 1699h294l-503 -1699h-289z" />
    <glyph glyph-name="zero" unicode="0" horiz-adv-x="1431" 
d="M715 1481q261 0 410 -145.5t149 -397.5v-422q0 -254 -149.5 -398.5t-409.5 -144.5q-259 0 -409 144.5t-150 398.5v422q0 252 150 397.5t409 145.5zM715 281q107 0 163 67t56 178v402q0 111 -56 178.5t-163 67.5q-106 0 -162.5 -67.5t-56.5 -178.5v-402q0 -111 56.5 -178
t162.5 -67z" />
    <glyph glyph-name="one" unicode="1" horiz-adv-x="966" 
d="M774 0h-340v1079l-354 -198v317l440 262h254v-1460z" />
    <glyph glyph-name="two" unicode="2" horiz-adv-x="1314" 
d="M1249 297v-297h-1126v225l541 490q90 84 128.5 145t38.5 135q0 80 -49.5 130.5t-136.5 50.5q-86 0 -136 -56t-50 -145v-78h-332v88q0 103 34.5 192.5t99 157t163.5 106t221 38.5q250 0 390.5 -128.5t140.5 -342.5q0 -81 -21.5 -151.5t-69 -135.5t-95 -114.5
t-126.5 -119.5l-209 -190h594z" />
    <glyph glyph-name="three" unicode="3" horiz-adv-x="1341" 
d="M657 274q107 0 167.5 45t60.5 121q0 78 -45 118t-131 40h-289v293h266q75 0 116.5 36t41.5 103q0 73 -53 114.5t-146 41.5q-95 0 -143 -43.5t-60 -98.5h-338q2 63 23.5 124t65.5 117.5t105.5 99.5t151 68.5t195.5 25.5q257 0 399 -110.5t142 -307.5q0 -110 -56.5 -184
t-132.5 -105q44 -13 83.5 -38.5t75 -66.5t56.5 -105t21 -142q0 -202 -153.5 -323.5t-420.5 -121.5q-116 0 -212.5 28t-161 73.5t-110.5 105.5t-68.5 121t-26.5 123h344q5 -25 20 -49.5t41 -48.5t71 -39t101 -15z" />
    <glyph glyph-name="four" unicode="4" horiz-adv-x="1474" 
d="M1407 391h-281v-391h-331v391h-723v223l663 840h391v-776h281v-287zM428 678h367v473z" />
    <glyph glyph-name="five" unicode="5" horiz-adv-x="1351" 
d="M475 618h-303v836h1012v-278h-692v-281q41 46 112.5 77.5t167.5 31.5q200 0 333.5 -134.5t133.5 -359.5v-8q0 -113 -38.5 -209.5t-110 -167t-179 -110.5t-239.5 -40q-115 0 -210.5 28t-160 75t-110 109t-66.5 128t-23 134h344q10 -63 66.5 -118t159.5 -55q99 0 162 63.5
t63 158.5v6q0 101 -61 161t-164 60q-138 0 -197 -107z" />
    <glyph glyph-name="six" unicode="6" horiz-adv-x="1363" 
d="M1257 504q0 -232 -156.5 -380.5t-418.5 -148.5t-419 147.5t-157 379.5q0 110 31.5 208.5t79 174t131.5 182.5l303 387h377l-416 -528q80 55 199 55q200 0 323 -132t123 -345zM918 504q0 102 -64 166.5t-172 64.5q-105 0 -170.5 -65.5t-65.5 -167.5q0 -99 64.5 -163.5
t171.5 -64.5q108 0 172 65t64 165z" />
    <glyph glyph-name="seven" unicode="7" horiz-adv-x="1280" 
d="M553 0h-381l616 1153h-698v301h1106v-219z" />
    <glyph glyph-name="eight" unicode="8" horiz-adv-x="1378" 
d="M719 1479q248 0 385 -110.5t137 -293.5q0 -71 -20.5 -130.5t-55 -98.5t-70 -63t-73.5 -38q42 -14 82 -39.5t78 -67t61 -104.5t23 -139q0 -191 -146 -305.5t-401 -114.5h-62q-253 0 -397.5 114.5t-144.5 305.5q0 76 23 139.5t61 105t77.5 68t81.5 40.5q-38 13 -73.5 37
t-70 62t-55 97.5t-20.5 130.5q0 183 137.5 293.5t385.5 110.5h57zM477 1042q0 -79 54 -125.5t143 -46.5h31q88 0 142 46.5t54 125.5t-53.5 124.5t-142.5 45.5h-31q-89 0 -143 -45.5t-54 -124.5zM461 426q0 -85 58.5 -134.5t150.5 -49.5h39q93 0 151 49.5t58 134.5t-58 134.5
t-151 49.5h-39q-92 0 -150.5 -49.5t-58.5 -134.5z" />
    <glyph glyph-name="nine" unicode="9" horiz-adv-x="1363" 
d="M106 950q0 232 157 380.5t419 148.5t418.5 -147.5t156.5 -379.5q0 -84 -15.5 -156.5t-50 -142.5t-73 -128t-100.5 -138l-305 -387h-377l416 528q-80 -55 -199 -55q-201 0 -324 132t-123 345zM446 950q0 -102 64 -166.5t172 -64.5q105 0 170.5 65.5t65.5 167.5
q0 99 -64.5 163.5t-171.5 64.5q-108 0 -172 -65t-64 -165z" />
    <glyph glyph-name="colon" unicode=":" horiz-adv-x="700" 
d="M160 653v402h383v-402h-383zM160 0v401h383v-401h-383z" />
    <glyph glyph-name="semicolon" unicode=";" horiz-adv-x="700" 
d="M160 653v402h383v-402h-383zM416 -410h-234q147 235 160 410h-182v401h383v-354q0 -242 -127 -457z" />
    <glyph glyph-name="less" unicode="&#x3c;" horiz-adv-x="1302" 
d="M1126 420v-318l-970 422v277l970 420v-320l-581 -242z" />
    <glyph glyph-name="equal" unicode="=" horiz-adv-x="1431" 
d="M1264 760h-1098v293h1098v-293zM1264 281h-1098v292h1098v-292z" />
    <glyph glyph-name="greater" unicode="&#x3e;" horiz-adv-x="1302" 
d="M1147 524l-971 -422v320l582 244l-582 237v318l971 -420v-277z" />
    <glyph glyph-name="question" unicode="?" horiz-adv-x="1128" 
d="M625 487h-330v74q0 100 32.5 152t139.5 114l139 82q115 69 115 160q0 64 -40.5 100.5t-111.5 36.5q-72 0 -112.5 -43t-40.5 -116v-54h-324v76q0 187 126.5 298.5t350.5 111.5q232 0 359 -108.5t127 -301.5q0 -144 -65 -233.5t-212 -173.5l-100 -62q-31 -18 -42 -39
t-11 -59v-15zM268 0v360h383v-360h-383z" />
    <glyph glyph-name="at" unicode="@" horiz-adv-x="2076" 
d="M1550 1036l-100 -587q-9 -56 10 -88.5t68 -32.5q96 0 163.5 106t67.5 299q0 275 -176.5 432.5t-499.5 157.5q-159 0 -296 -54.5t-235 -151.5t-154 -238.5t-56 -309.5q0 -158 54.5 -292.5t152.5 -230t241 -149t314 -53.5q281 0 495 150h308q-28 -45 -69.5 -90t-113 -95
t-156.5 -88t-206.5 -63t-257.5 -25q-235 0 -427 73t-317 200.5t-192.5 298.5t-67.5 368q0 274 125.5 493t350 342.5t507.5 123.5q176 0 324 -41t254 -114.5t180 -174t110 -219t36 -250.5q0 -178 -58.5 -317t-168.5 -218t-255 -79q-106 0 -176.5 35.5t-97.5 95.5
q-39 -56 -108 -93.5t-160 -37.5q-176 0 -288 119t-112 325q0 213 119 351.5t309 138.5q89 0 152.5 -39.5t91.5 -100.5l22 123h293zM1040 791q-76 0 -124 -65t-48 -165q0 -80 39 -128t109 -48q75 0 122.5 64t47.5 163q0 81 -38.5 130t-107.5 49z" />
    <glyph glyph-name="A" unicode="A" horiz-adv-x="1568" 
d="M1165 0l-94 252h-594l-94 -252h-346l557 1456h379l561 -1456h-369zM586 543h377l-189 506z" />
    <glyph glyph-name="B" unicode="B" horiz-adv-x="1564" 
d="M176 0v1454h778q223 0 345 -105.5t122 -283.5q0 -115 -67 -193t-160 -104q113 -30 188.5 -120.5t75.5 -231.5q0 -193 -131.5 -304.5t-378.5 -111.5h-772zM897 1174h-379v-287h379q80 0 125 36.5t45 106.5q0 73 -44.5 108.5t-125.5 35.5zM887 606h-369v-325h369
q217 0 217 165q0 77 -55.5 118.5t-161.5 41.5z" />
    <glyph glyph-name="C" unicode="C" horiz-adv-x="1484" 
d="M780 -25q-300 0 -485.5 206.5t-185.5 545.5q0 222 83.5 393t236.5 265t351 94q121 0 223.5 -32.5t170 -84t116.5 -118t72.5 -131t28.5 -126.5h-336q-10 28 -29 56t-51 57t-83 47t-112 18q-99 0 -170.5 -58t-107 -156t-35.5 -224t35.5 -224t107 -156t170.5 -58
q63 0 114.5 18t83 47t50.5 56.5t29 56.5h334q-5 -56 -26 -117.5t-69 -129.5t-114.5 -121.5t-171 -88.5t-230.5 -35z" />
    <glyph glyph-name="D" unicode="D" horiz-adv-x="1581" 
d="M176 0v1454h531q233 0 403.5 -80t266.5 -245t96 -402q0 -348 -206.5 -537.5t-559.5 -189.5h-531zM700 1155h-176v-856h176q198 0 308 112.5t110 315.5q0 209 -109 318.5t-309 109.5z" />
    <glyph glyph-name="E" unicode="E" horiz-adv-x="1449" 
d="M176 0v1454h1131v-287h-783v-262h461v-293h-461v-311h852v-301h-1200z" />
    <glyph glyph-name="F" unicode="F" horiz-adv-x="1437" 
d="M176 0v1454h1194v-289h-846v-282h480v-289h-480v-594h-348z" />
    <glyph glyph-name="G" unicode="G" horiz-adv-x="1591" 
d="M1446 147q-32 -27 -80 -54t-119.5 -56t-171 -46.5t-209.5 -17.5q-347 0 -552 207t-205 555q0 219 88.5 389.5t249 265.5t366.5 95q121 0 224.5 -29.5t171 -75t117 -104t74 -112t30.5 -103.5h-345q-93 127 -268 127q-160 0 -256 -124.5t-96 -328.5q0 -215 105.5 -342
t295.5 -127q155 0 246 49v263h-373v278h707v-709z" />
    <glyph glyph-name="H" unicode="H" horiz-adv-x="1658" 
d="M176 0v1454h348v-571h611v571h348v-1454h-348v575h-611v-575h-348z" />
    <glyph glyph-name="I" unicode="I" horiz-adv-x="708" 
d="M180 0v1454h348v-1454h-348z" />
    <glyph glyph-name="J" unicode="J" horiz-adv-x="1357" 
d="M1188 459q0 -226 -141.5 -357t-391.5 -131q-249 0 -381.5 130t-132.5 358v415h332v-387q0 -95 45.5 -150.5t136.5 -55.5q88 0 135.5 56t47.5 150v967h350v-995z" />
    <glyph glyph-name="K" unicode="K" horiz-adv-x="1548" 
d="M176 0v1454h348v-616l553 616h430l-624 -692l659 -762h-459l-559 639v-639h-348z" />
    <glyph glyph-name="L" unicode="L" horiz-adv-x="1372" 
d="M176 0v1454h348v-1139h779v-315h-1127z" />
    <glyph glyph-name="M" unicode="M" horiz-adv-x="1974" 
d="M176 0v1454h520l301 -887l299 887h500v-1454h-336v1083l-366 -1085h-232l-364 1075v-1073h-322z" />
    <glyph glyph-name="N" unicode="N" horiz-adv-x="1662" 
d="M1485 1454v-1462h-285l-684 977v-969h-340v1454h393l584 -856v856h332z" />
    <glyph glyph-name="O" unicode="O" horiz-adv-x="1603" 
d="M803 -25q-199 0 -356 90.5t-247.5 262.5t-90.5 399q0 172 52.5 314t145.5 237.5t220.5 148t275.5 52.5t275 -52.5t219.5 -148t145 -237.5t52.5 -314q0 -170 -52.5 -312t-145 -238t-220 -149t-274.5 -53zM803 287q159 0 249.5 123t90.5 317q0 193 -90.5 316.5
t-249.5 123.5t-249.5 -123.5t-90.5 -316.5q0 -195 90 -317.5t250 -122.5z" />
    <glyph glyph-name="P" unicode="P" horiz-adv-x="1527" 
d="M176 0v1454h737q250 0 386.5 -119t136.5 -346q0 -225 -137 -347t-386 -122h-391v-520h-346zM879 1151h-357v-328h357q99 0 149.5 43.5t50.5 120.5q0 164 -200 164z" />
    <glyph glyph-name="Q" unicode="Q" horiz-adv-x="1603" 
d="M803 -10q-199 0 -356 88.5t-247.5 257t-90.5 391.5q0 172 53 314t146 237.5t220 148t275 52.5q147 0 274 -52.5t219.5 -148t145.5 -237.5t53 -314q0 -221 -90 -388t-246 -257l316 -393h-418l-246 301h-8zM803 287q159 0 249.5 123t90.5 317q0 193 -90.5 316.5
t-249.5 123.5t-249.5 -123.5t-90.5 -316.5q0 -194 90.5 -317t249.5 -123z" />
    <glyph glyph-name="R" unicode="R" horiz-adv-x="1583" 
d="M176 0v1454h746q244 0 378 -116t134 -337q0 -148 -66 -249.5t-192 -151.5l342 -600h-373l-318 557h-305v-557h-346zM887 1155h-365v-307h365q190 0 190 153q0 154 -190 154z" />
    <glyph glyph-name="S" unicode="S" horiz-adv-x="1452" 
d="M678 1200q-99 0 -155 -36.5t-56 -98.5q0 -113 190 -139q33 -5 81 -11t65 -8q130 -16 224.5 -46t169 -83t112 -136t37.5 -198q0 -212 -156.5 -341.5t-437.5 -129.5q-133 0 -243.5 28.5t-183.5 73.5t-127.5 106t-83 120t-42.5 121h370q11 -28 33.5 -54t58.5 -52t93 -42
t125 -16q115 0 175 42t60 116q0 73 -52 108.5t-153 50.5q-30 4 -74 10.5t-73 10.5q-255 34 -388.5 141.5t-133.5 313.5q0 133 72 231.5t199.5 148.5t293.5 50q125 0 228.5 -25.5t171 -66t118 -95.5t76.5 -107t39 -108h-357q-30 49 -96.5 85t-179.5 36z" />
    <glyph glyph-name="T" unicode="T" horiz-adv-x="1484" 
d="M569 0v1151h-497v303h1341v-303h-498v-1151h-346z" />
    <glyph glyph-name="U" unicode="U" horiz-adv-x="1628" 
d="M1114 604v850h346v-872q0 -129 -42 -240t-121.5 -194.5t-203.5 -131t-278 -47.5q-158 0 -282.5 47t-203.5 130.5t-120 194t-41 241.5v872h348v-850q0 -144 78 -230.5t221 -86.5q140 0 219.5 87t79.5 230z" />
    <glyph glyph-name="V" unicode="V" horiz-adv-x="1548" 
d="M602 -2l-559 1456h395l355 -1001l352 1001h360l-532 -1456h-371z" />
    <glyph glyph-name="W" unicode="W" horiz-adv-x="2121" 
d="M1235 1456l262 -924l246 922h330l-410 -1456h-330l-274 930l-275 -930h-311l-426 1456h367l248 -913l258 915h315z" />
    <glyph glyph-name="X" unicode="X" horiz-adv-x="1622" 
d="M434 0h-411l575 741l-549 713h453l319 -424l330 424h416l-541 -694l573 -760h-432l-364 473z" />
    <glyph glyph-name="Y" unicode="Y" horiz-adv-x="1480" 
d="M567 592l-563 862h434l326 -512l326 512h387l-543 -870v-584h-367v592z" />
    <glyph glyph-name="Z" unicode="Z" horiz-adv-x="1486" 
d="M96 0v199l731 956h-710v299h1220v-194l-733 -959h809v-301h-1317z" />
    <glyph glyph-name="bracketleft" unicode="[" horiz-adv-x="798" 
d="M164 -254v1937h592v-256h-301v-1425h301v-256h-592z" />
    <glyph glyph-name="backslash" unicode="\" horiz-adv-x="878" 
d="M842 -143h-291l-502 1699h293z" />
    <glyph glyph-name="bracketright" unicode="]" horiz-adv-x="798" 
d="M635 -254h-594v256h303v1425h-303v256h594v-1937z" />
    <glyph glyph-name="asciicircum" unicode="^" horiz-adv-x="1196" 
d="M823 539l-229 534l-229 -534h-324l399 927h312l405 -927h-334z" />
    <glyph glyph-name="underscore" unicode="_" horiz-adv-x="1251" 
d="M51 -317v223h1147v-223h-1147z" />
    <glyph glyph-name="grave" unicode="`" 
d="M885 1192h-320l-221 389h334z" />
    <glyph glyph-name="a" unicode="a" horiz-adv-x="1288" 
d="M819 139q-9 -20 -27.5 -43t-52 -52t-88.5 -48t-121 -19q-193 0 -315.5 149t-122.5 404t122.5 403t317.5 148q65 0 120 -18.5t87.5 -46.5t49.5 -49t26 -39v133h330v-1061h-326v139zM819 530q0 125 -51.5 197t-142.5 72q-93 0 -146 -72t-53 -197t53 -197.5t146 -72.5
q90 0 142 72.5t52 197.5z" />
    <glyph glyph-name="b" unicode="b" horiz-adv-x="1308" 
d="M469 150v-150h-326v1507h330v-600q7 18 26.5 42.5t55.5 57t95.5 54.5t129.5 22q193 0 316 -147t123 -406t-123 -406t-316 -147q-58 0 -109 15t-84 35.5t-60 47t-38.5 43.5t-19.5 32zM469 530q0 -123 55.5 -196.5t151.5 -73.5q95 0 151 74t56 196t-56 196.5t-151 74.5
q-96 0 -151.5 -74t-55.5 -197z" />
    <glyph glyph-name="c" unicode="c" horiz-adv-x="1155" 
d="M766 700q-42 101 -160 101q-85 0 -134.5 -75t-49.5 -196t50 -196.5t136 -75.5q113 0 158 102h317q-3 -47 -20 -97t-55 -102.5t-91 -93.5t-135.5 -67.5t-181.5 -26.5q-224 0 -368 153t-144 404q0 249 143.5 403t364.5 154q98 0 180 -26t135.5 -66.5t92.5 -93t57 -103
t22 -98.5h-317z" />
    <glyph glyph-name="d" unicode="d" horiz-adv-x="1308" 
d="M840 141q-9 -20 -28 -43t-54 -52.5t-92.5 -49t-126.5 -19.5q-193 0 -320 149.5t-127 403.5t127 403.5t320 149.5q68 0 125 -19t92 -48t53 -50t27 -38v579h329v-1507h-325v141zM840 530q0 120 -56 195.5t-151 75.5t-151 -75.5t-56 -195.5t56 -195t151 -75t151 75t56 195z
" />
    <glyph glyph-name="e" unicode="e" horiz-adv-x="1212" 
d="M610 1087q241 0 382 -150.5t141 -406.5v-57h-719q6 -106 64 -170.5t155 -64.5q112 0 166 77h327q-5 -42 -23 -85.5t-56.5 -90.5t-92.5 -83t-137.5 -59.5t-183.5 -23.5q-252 0 -398.5 153t-146.5 404q0 250 143.5 403.5t378.5 153.5zM610 848q-80 0 -130 -47.5t-62 -130.5
h383q-14 84 -64 131t-127 47z" />
    <glyph glyph-name="f" unicode="f" horiz-adv-x="999" 
d="M53 788v273h248v143q0 143 84 223t246 80h438v-250h-301q-72 0 -103.5 -31.5t-31.5 -99.5v-65h313v-273h-313v-788h-332v788h-248z" />
    <glyph glyph-name="g" unicode="g" horiz-adv-x="1296" 
d="M827 164q-7 -14 -18.5 -30.5t-37.5 -43t-57.5 -47t-79.5 -36t-102 -15.5q-189 0 -314.5 148.5t-125.5 396.5q0 249 125 396.5t315 147.5q54 0 101.5 -15t78.5 -35t56.5 -46t36.5 -42t18 -30v148h330v-1024q0 -216 -133 -342.5t-397 -126.5q-105 0 -194 24.5t-145 61
t-98 82t-61 83t-25 68.5h365q51 -61 158 -61q98 0 151 54.5t53 154.5v129zM827 537q0 118 -54.5 190t-143.5 72q-92 0 -147.5 -71.5t-55.5 -190.5t55.5 -192t147.5 -73q89 0 143.5 73t54.5 192z" />
    <glyph glyph-name="h" unicode="h" horiz-adv-x="1304" 
d="M143 0v1507h330v-585q36 61 114 111t189 50q179 0 286 -119.5t107 -316.5v-647h-331v586q0 97 -48 152t-133 55q-86 0 -135 -55.5t-49 -151.5v-586h-330z" />
    <glyph glyph-name="i" unicode="i" horiz-adv-x="620" 
d="M137 1198v328h346v-328h-346zM143 0v1061h334v-1061h-334z" />
    <glyph glyph-name="j" unicode="j" horiz-adv-x="622" 
d="M139 1198v328h346v-328h-346zM479 -61q0 -183 -81.5 -266t-250.5 -83h-358v256h215q77 0 109 32.5t32 105.5v1077h334v-1122z" />
    <glyph glyph-name="k" unicode="k" horiz-adv-x="1247" 
d="M143 0v1507h332v-864l350 418h398l-414 -490l457 -571h-416l-375 467v-467h-332z" />
    <glyph glyph-name="l" unicode="l" horiz-adv-x="628" 
d="M147 0v1507h334v-1507h-334z" />
    <glyph glyph-name="m" unicode="m" horiz-adv-x="1980" 
d="M143 0v1061h330v-131q34 57 110.5 105t186.5 48q113 0 197.5 -48.5t132.5 -137.5q18 31 44 59.5t67 59t102 49t133 18.5q184 0 291.5 -118t107.5 -308v-657h-332v596q0 91 -46 144t-130 53q-85 0 -131.5 -53.5t-46.5 -143.5v-596h-332v596q0 91 -46 144t-130 53
q-85 0 -131.5 -53.5t-46.5 -143.5v-596h-330z" />
    <glyph glyph-name="n" unicode="n" horiz-adv-x="1304" 
d="M143 0v1061h330v-137q35 60 113 109.5t190 49.5q179 0 286 -118t107 -314v-651h-331v590q0 95 -48 149t-133 54q-86 0 -135 -54.5t-49 -148.5v-590h-330z" />
    <glyph glyph-name="o" unicode="o" horiz-adv-x="1253" 
d="M627 1087q239 0 389.5 -153t150.5 -404q0 -250 -151 -403.5t-389 -153.5t-388.5 153.5t-150.5 403.5q0 251 150.5 404t388.5 153zM627 254q100 0 153.5 76.5t53.5 199.5q0 122 -54 198.5t-153 76.5q-98 0 -152.5 -77t-54.5 -198q0 -123 53.5 -199.5t153.5 -76.5z" />
    <glyph glyph-name="p" unicode="p" horiz-adv-x="1308" 
d="M473 143v-553h-330v1471h330v-154q7 18 26.5 42.5t55.5 57t95.5 54.5t129.5 22q193 0 316 -147t123 -406t-123 -406t-316 -147q-57 0 -107.5 14.5t-82.5 34t-59 45t-38.5 42t-19.5 30.5zM469 530q0 -122 56 -196t151 -74q96 0 151.5 73.5t55.5 196.5t-55.5 197t-151.5 74
q-95 0 -151 -74.5t-56 -196.5z" />
    <glyph glyph-name="q" unicode="q" horiz-adv-x="1310" 
d="M836 133q-9 -18 -28 -40t-53.5 -50.5t-91.5 -47t-124 -18.5q-193 0 -320 149.5t-127 403.5t127 403.5t320 149.5q68 0 125 -19t92 -48t53 -50t27 -38v133h331v-1471h-331v543zM840 530q0 120 -56 195.5t-151 75.5t-151 -75.5t-56 -195.5t56 -195t151 -75t151 75t56 195z
" />
    <glyph glyph-name="r" unicode="r" horiz-adv-x="1024" 
d="M473 524v-524h-330v1061h330v-156q12 25 31.5 48.5t54.5 50.5t92.5 43t128.5 16h183v-328h-244q-129 0 -187.5 -51.5t-58.5 -159.5z" />
    <glyph glyph-name="s" unicode="s" horiz-adv-x="1153" 
d="M629 393q-79 10 -125 13q-418 44 -418 344q0 158 127 249t338 91q108 0 195 -21.5t139.5 -53.5t89 -75t52.5 -80t22 -74h-328q-58 68 -166 68q-66 0 -102.5 -24t-36.5 -64q0 -72 114 -84q4 0 49.5 -4.5t61.5 -5.5q225 -15 329.5 -100t104.5 -250t-124 -258t-361 -93
q-111 0 -202 23.5t-146.5 58.5t-95.5 80.5t-57.5 85t-22.5 76.5h337q8 -15 24 -31.5t60 -34.5t103 -18q73 0 113 23t40 65t-25.5 65t-88.5 29z" />
    <glyph glyph-name="t" unicode="t" horiz-adv-x="1044" 
d="M301 336v448h-248v277h248v393h332v-393h321v-277h-321v-333q0 -85 34 -121.5t124 -36.5h163v-293h-297q-356 0 -356 336z" />
    <glyph glyph-name="u" unicode="u" horiz-adv-x="1286" 
d="M645 -23q-248 0 -379 129t-131 347v608h332v-592q0 -85 45 -134.5t129 -49.5q86 0 132 49.5t46 134.5v592h330v-608q0 -214 -130 -345t-374 -131z" />
    <glyph glyph-name="v" unicode="v" horiz-adv-x="1173" 
d="M1163 1061l-391 -1067h-344l-418 1067h375l221 -631l219 631h338z" />
    <glyph glyph-name="w" unicode="w" horiz-adv-x="1730" 
d="M1053 -2l-183 641l-182 -641h-319l-351 1063h357l176 -623l180 625h311l179 -621l176 619h315l-328 -1063h-331z" />
    <glyph glyph-name="x" unicode="x" horiz-adv-x="1251" 
d="M383 0h-375l422 524l-418 537h424l207 -273l219 273h377l-414 -512l416 -549h-403l-224 287z" />
    <glyph glyph-name="y" unicode="y" horiz-adv-x="1179" 
d="M289 -410l157 414l-436 1057h373l227 -615l226 615h333l-546 -1471h-334z" />
    <glyph glyph-name="z" unicode="z" horiz-adv-x="1185" 
d="M88 0v180l490 613h-482v268h963v-178l-498 -613h567v-270h-1040z" />
    <glyph glyph-name="braceleft" unicode="{" horiz-adv-x="813" 
d="M772 2v-256h-274q-179 0 -256.5 94.5t-44.5 278.5l61 360q17 107 -94 107h-101v258h101q110 0 94 106l-61 359q-33 184 44.5 279t256.5 95h274v-256h-182q-130 0 -113 -116l60 -334q15 -78 -6.5 -135t-62 -86t-97.5 -41q57 -12 97.5 -41t62 -86t6.5 -135l-60 -322
q-12 -64 18.5 -96.5t94.5 -32.5h182z" />
    <glyph glyph-name="bar" unicode="|" horiz-adv-x="675" 
d="M190 -238v1921h295v-1921h-295z" />
    <glyph glyph-name="braceright" unicode="}" horiz-adv-x="815" 
d="M616 119q33 -184 -44.5 -278.5t-256.5 -94.5h-274v256h182q64 0 94.5 32.5t18.5 96.5l-60 322q-15 78 6.5 135t62 86t97.5 41q-57 12 -97.5 41t-62 86t-6.5 135l60 334q17 116 -113 116h-182v256h274q179 0 256.5 -95t44.5 -279l-61 -359q-16 -106 94 -106h101v-258h-101
q-111 0 -94 -107z" />
    <glyph glyph-name="asciitilde" unicode="~" horiz-adv-x="1468" 
d="M889 870q2 -3 8.5 -10.5t9 -10.5t8 -9.5t8 -8.5t7.5 -7t8.5 -7t8.5 -5t9 -4t9 -2t10 -1q49 0 49 72v350h319v-414q0 -174 -83 -275.5t-236 -101.5q-107 0 -179.5 48.5t-156.5 152.5l-108 143q-21 28 -30 38.5t-24 20t-32 9.5q-50 0 -50 -74v-348h-317v412q-2 174 81 275
t236 101q107 0 180 -48t156 -152z" />
    <glyph glyph-name="uni00A0" unicode="&#xa0;" horiz-adv-x="516" 
 />
    <glyph glyph-name="exclamdown" unicode="&#xa1;" horiz-adv-x="710" 
d="M164 1061h383v-361h-383v361zM190 571h330v-964h-330v964z" />
    <glyph glyph-name="cent" unicode="&#xa2;" horiz-adv-x="1212" 
d="M494 -250v238q-175 42 -281.5 186.5t-106.5 355.5q0 210 106.5 355.5t281.5 187.5v234h286v-238q83 -20 148.5 -62.5t105 -94.5t61 -104.5t25.5 -102.5h-317q-6 13 -16 26.5t-29.5 31t-51 28t-71.5 10.5q-89 0 -142 -75.5t-53 -195.5t53.5 -196t141.5 -76q42 0 75 11.5
t52 30t29 32.5t16 28h315q-2 -39 -14 -81t-39 -87t-65 -83.5t-96 -70.5t-128 -48v-240h-286z" />
    <glyph glyph-name="sterling" unicode="&#xa3;" horiz-adv-x="1439" 
d="M106 0v289h224v237h-224v289h224v219q0 208 119 326.5t348 118.5q233 0 351 -118t118 -327v-59h-316v49q0 81 -40.5 125.5t-112.5 44.5t-111 -44t-39 -126v-209h371v-289h-371v-237h725v-289h-1266z" />
    <glyph glyph-name="yen" unicode="&#xa5;" horiz-adv-x="1441" 
d="M197 252v223h358v123h-358v223h333l-493 633h432l274 -377l275 377h387l-467 -633h332v-223h-357v-123h357v-223h-357v-252h-358v252h-358z" />
    <glyph glyph-name="brokenbar" unicode="&#xa6;" horiz-adv-x="675" 
d="M190 831v852h295v-852h-295zM190 -238v879h295v-879h-295z" />
    <glyph glyph-name="section" unicode="&#xa7;" horiz-adv-x="1396" 
d="M1163 -31v-49q0 -187 -122.5 -295t-340.5 -108q-229 0 -340.5 105.5t-111.5 299.5v72h321v-64q0 -67 34.5 -103t96.5 -36q63 0 97 35t34 98v19q0 60 -24.5 94t-81.5 47l-313 70q-169 39 -252.5 128t-83.5 244q0 109 66.5 186t183.5 103q-86 96 -86 275v38
q0 189 124 297.5t338 108.5q220 0 335.5 -107t115.5 -301v-67h-322v63q0 68 -34 105t-95 37q-62 0 -96.5 -35.5t-34.5 -98.5v-22q0 -59 25 -93.5t82 -47.5l307 -70q170 -39 253 -127t83 -244q0 -107 -61 -182.5t-177 -105.5q80 -89 80 -269zM580 672q-77 17 -127 -13
t-50 -92q0 -92 111 -118l299 -68q79 -17 128.5 13.5t49.5 92.5q0 47 -29.5 76.5t-82.5 40.5z" />
    <glyph glyph-name="dieresis" unicode="&#xa8;" 
d="M219 1198v324h326v-324h-326zM684 1198v324h326v-324h-326z" />
    <glyph glyph-name="copyright" unicode="&#xa9;" horiz-adv-x="1740" 
d="M870 -25q-161 0 -302 57.5t-240.5 157.5t-157 239.5t-57.5 297.5q0 209 98.5 381.5t272 271.5t386.5 99q159 0 300 -58.5t241.5 -158.5t158.5 -239t58 -296t-58 -296t-158.5 -239t-241.5 -158.5t-300 -58.5zM870 164q165 0 292 74.5t194 202t67 286.5t-67 286.5t-194 202
t-292 74.5q-164 0 -290.5 -74.5t-193.5 -202.5t-67 -286q0 -245 152 -404t399 -159zM731 731q0 -76 41 -127t107 -51q52 0 84.5 23.5t44.5 50.5h235q-1 -37 -14 -76t-41.5 -80t-69 -73.5t-102.5 -53t-137 -20.5q-170 0 -284 117.5t-114 289.5q0 171 114.5 289.5t283.5 118.5
q70 0 130 -20t100.5 -51.5t70 -71.5t44 -79t17.5 -75h-240q-13 25 -43 46t-79 21q-67 0 -107.5 -50t-40.5 -128z" />
    <glyph glyph-name="ordfeminine" unicode="&#xaa;" horiz-adv-x="1161" 
d="M715 657q-9 -16 -24 -33.5t-43.5 -42t-75 -40t-101.5 -15.5q-166 0 -270.5 128t-104.5 347q0 217 105.5 344.5t271.5 127.5q55 0 101 -15t73.5 -37.5t42.5 -40t21 -30.5v104h311v-909h-307v112zM713 1001q0 100 -39.5 155.5t-110.5 55.5t-112 -56t-41 -155
q0 -102 41 -157.5t112 -55.5t110.5 55.5t39.5 157.5z" />
    <glyph glyph-name="guillemotleft" unicode="&#xab;" horiz-adv-x="1236" 
d="M319 1008h306l-213 -385l213 -392h-308l-204 390zM817 1008h305l-217 -385l217 -392h-307l-209 390z" />
    <glyph glyph-name="registered" unicode="&#xae;" horiz-adv-x="1247" 
d="M623 422q-231 0 -384 152t-153 378q0 225 154 379t383 154t383.5 -154t154.5 -379q0 -148 -70 -269.5t-193.5 -191t-274.5 -69.5zM623 565q172 0 276.5 108.5t104.5 278.5t-104.5 278.5t-276.5 108.5t-275.5 -108.5t-103.5 -278.5t104 -278.5t275 -108.5zM391 702v521
h279q99 0 155 -47t56 -134q0 -106 -84 -149l94 -191h-176l-76 166h-80v-166h-168zM655 1081h-96v-80h96q56 0 56 41q0 39 -56 39z" />
    <glyph glyph-name="macron" unicode="&#xaf;" horiz-adv-x="1024" 
d="M848 1241h-672v252h672v-252z" />
    <glyph glyph-name="degree" unicode="&#xb0;" horiz-adv-x="1079" 
d="M541 680q-172 0 -287 114.5t-115 284.5t115 285t287 115q170 0 284.5 -115t114.5 -285t-114.5 -284.5t-284.5 -114.5zM541 895q77 0 126.5 53t49.5 131t-49.5 131.5t-126.5 53.5q-78 0 -128.5 -53.5t-50.5 -131.5q0 -79 49.5 -131.5t129.5 -52.5z" />
    <glyph glyph-name="two.sup" unicode="&#xb2;" horiz-adv-x="1036" 
d="M961 707v-236h-846v182l397 348q55 49 79.5 87t24.5 81q0 49 -30.5 80t-87.5 31q-58 0 -90.5 -34.5t-32.5 -96.5v-43h-273v47q0 165 106 269t292 104q190 0 298.5 -93t108.5 -247q0 -58 -15 -106.5t-50 -94.5t-69.5 -79.5t-94.5 -84.5l-131 -114h414z" />
    <glyph glyph-name="three.sup" unicode="&#xb3;" horiz-adv-x="1058" 
d="M520 688q71 0 108.5 27.5t37.5 77.5q0 94 -115 94h-207v225h182q53 0 82 23t29 65q0 44 -33.5 70t-95.5 26q-60 0 -91.5 -28t-39.5 -62h-283q2 59 28 114.5t75 102t130 75t181 28.5q197 0 305.5 -78.5t108.5 -224.5q0 -77 -40.5 -127t-97.5 -72q71 -23 121.5 -83.5
t50.5 -166.5q0 -146 -116.5 -233.5t-319.5 -87.5q-110 0 -197 31t-137.5 81t-77.5 105.5t-30 111.5h291q8 -35 45 -64.5t106 -29.5z" />
    <glyph glyph-name="acute" unicode="&#xb4;" 
d="M344 1192l207 389h334l-221 -389h-320z" />
    <glyph glyph-name="paragraph" unicode="&#xb6;" horiz-adv-x="1466" 
d="M594 0v606h-53q-210 0 -339.5 116t-129.5 308q0 196 128.5 310t340.5 114h749v-1454h-243v1227h-209v-1227h-244z" />
    <glyph glyph-name="periodcentered" unicode="&#xb7;" horiz-adv-x="679" 
d="M150 514v401h382v-401h-382z" />
    <glyph glyph-name="cedilla" unicode="&#xb8;" 
d="M623 -322q0 54 -66 54h-160v268h236v-88q116 -1 180 -65t64 -177q0 -121 -69.5 -189.5t-201.5 -68.5h-254v211h205q66 0 66 55z" />
    <glyph glyph-name="one.sup" unicode="&#xb9;" horiz-adv-x="788" 
d="M627 471h-287v737l-258 -139v254l330 188h215v-1040z" />
    <glyph glyph-name="ordmasculine" unicode="&#xba;" horiz-adv-x="1183" 
d="M592 1479q208 0 339.5 -131t131.5 -349q0 -216 -131.5 -347.5t-339.5 -131.5t-339.5 131.5t-131.5 347.5q0 218 131.5 349t339.5 131zM592 782q77 0 119.5 60t42.5 157q0 98 -42.5 159t-119.5 61t-119.5 -61t-42.5 -159q0 -97 42.5 -157t119.5 -60z" />
    <glyph glyph-name="guillemotright" unicode="&#xbb;" horiz-adv-x="1236" 
d="M918 231h-306l213 387l-211 390h308l202 -387zM422 231h-305l215 387l-215 390h305l209 -387z" />
    <glyph glyph-name="onequarter" unicode="&#xbc;" horiz-adv-x="2099" 
d="M580 547h-275v629l-231 -121v235l299 168h207v-911zM350 0l948 1454h273l-946 -1454h-275zM2038 217h-174v-217h-267v217h-475v184l412 506h330v-477h174v-213zM1378 430h219v277z" />
    <glyph glyph-name="onehalf" unicode="&#xbd;" horiz-adv-x="2078" 
d="M580 547h-275v629l-231 -121v235l299 168h207v-911zM346 0l948 1454h273l-946 -1454h-275zM2009 221v-221h-766v172l359 303q47 42 66.5 70t19.5 63q0 38 -25.5 63t-71.5 25q-49 0 -74.5 -28t-25.5 -80v-35h-258v39q0 147 94.5 239.5t263.5 92.5q172 0 271.5 -82.5
t99.5 -218.5q0 -96 -49.5 -166t-153.5 -152l-102 -84h352z" />
    <glyph glyph-name="threequarters" unicode="&#xbe;" horiz-adv-x="2299" 
d="M469 748q60 0 91.5 21.5t31.5 59.5q0 72 -92 72h-191v215h172q82 0 82 64q0 37 -27.5 57t-78.5 20t-76 -22t-31 -49h-272q2 52 26 101.5t68.5 91t118.5 66.5t166 25q184 0 282.5 -69t98.5 -199q0 -66 -36.5 -109t-86.5 -61q64 -20 108.5 -73t44.5 -144
q0 -131 -105.5 -208t-293.5 -77q-100 0 -179 28t-124.5 73t-70 94.5t-27.5 99.5h276q6 -27 36.5 -52t88.5 -25zM549 0l948 1454h272l-946 -1454h-274zM2238 217h-174v-217h-266v217h-475v184l412 506h329v-477h174v-213zM1579 430h219v277z" />
    <glyph glyph-name="questiondown" unicode="&#xbf;" horiz-adv-x="1128" 
d="M860 1061v-361h-383v361h383zM504 573h330v-73q0 -100 -32.5 -152.5t-139.5 -114.5l-140 -81q-56 -33 -85 -71t-29 -89q0 -64 40 -100.5t111 -36.5q73 0 113.5 43t40.5 116v54h323v-76q0 -187 -126.5 -298.5t-350.5 -111.5q-232 0 -358.5 108.5t-126.5 301.5
q0 144 65 233.5t211 173.5l101 62q31 18 42 39t11 59v14z" />
    <glyph glyph-name="Agrave" unicode="&#xc0;" horiz-adv-x="1568" 
d="M948 1575h-342l-227 332h358zM1165 0l-94 252h-594l-94 -252h-346l557 1456h379l561 -1456h-369zM586 543h377l-189 506z" />
    <glyph glyph-name="Aacute" unicode="&#xc1;" horiz-adv-x="1568" 
d="M608 1575l211 332h359l-228 -332h-342zM1165 0l-94 252h-594l-94 -252h-346l557 1456h379l561 -1456h-369zM586 543h377l-189 506z" />
    <glyph glyph-name="Acircumflex" unicode="&#xc2;" horiz-adv-x="1568" 
d="M899 1573l-125 153l-125 -153h-305l272 340h316l266 -340h-299zM1165 0l-94 252h-594l-94 -252h-346l557 1456h379l561 -1456h-369zM586 543h377l-189 506z" />
    <glyph glyph-name="Atilde" unicode="&#xc3;" horiz-adv-x="1568" 
d="M784 1636l-69 35q-44 21 -58 21q-28 0 -28 -41v-82h-232v178q0 91 48 145t137 54q32 0 65 -9t52.5 -18.5t64.5 -32.5l67 -35q39 -20 60 -20q29 0 29 41v84h231v-180q0 -91 -47.5 -144t-136.5 -53q-48 0 -87 13.5t-96 43.5zM1165 0l-94 252h-594l-94 -252h-346l557 1456
h379l561 -1456h-369zM586 543h377l-189 506z" />
    <glyph glyph-name="Adieresis" unicode="&#xc4;" horiz-adv-x="1568" 
d="M373 1575v323h327v-323h-327zM848 1575v323h328v-323h-328zM1165 0l-94 252h-594l-94 -252h-346l557 1456h379l561 -1456h-369zM586 543h377l-189 506z" />
    <glyph glyph-name="Aring" unicode="&#xc5;" horiz-adv-x="1568" 
d="M774 1554q-125 0 -206 80t-81 201q0 122 80.5 201.5t206.5 79.5t207.5 -79.5t81.5 -201.5q0 -121 -82 -201t-207 -80zM774 1718q49 0 81 33t32 84t-31 83t-82 32t-81.5 -32t-30.5 -83t31.5 -84t80.5 -33zM1165 0l-94 252h-594l-94 -252h-346l557 1456h379l561 -1456h-369
zM586 543h377l-189 506z" />
    <glyph glyph-name="AE" unicode="&#xc6;" horiz-adv-x="2170" 
d="M-14 0l788 1454h1256v-287h-697v-262h422v-293h-422v-311h764v-301h-1110v301h-465l-160 -301h-376zM676 592h311v584z" />
    <glyph glyph-name="Ccedilla" unicode="&#xc7;" horiz-adv-x="1484" 
d="M838 -322q0 54 -66 54h-160v262q-231 56 -367 251.5t-136 481.5q0 222 83.5 393t236.5 265t351 94q121 0 223.5 -32.5t170 -84t116.5 -118t72.5 -131t28.5 -126.5h-336q-10 28 -29 56t-51 57t-83 47t-112 18q-99 0 -170.5 -58t-107 -156t-35.5 -224t35.5 -224t107 -156
t170.5 -58q63 0 114.5 18t83 47t50.5 56.5t29 56.5h334q-5 -53 -24 -111t-61.5 -123t-101.5 -117.5t-152 -91t-204 -47.5v-65q116 -1 180 -65t64 -177q0 -121 -69.5 -189.5t-201.5 -68.5h-254v211h205q66 0 66 55z" />
    <glyph glyph-name="Egrave" unicode="&#xc8;" horiz-adv-x="1449" 
d="M961 1575h-343l-227 332h359zM176 0v1454h1131v-287h-783v-262h461v-293h-461v-311h852v-301h-1200z" />
    <glyph glyph-name="Eacute" unicode="&#xc9;" horiz-adv-x="1449" 
d="M571 1575l211 332h359l-228 -332h-342zM176 0v1454h1131v-287h-783v-262h461v-293h-461v-311h852v-301h-1200z" />
    <glyph glyph-name="Ecircumflex" unicode="&#xca;" horiz-adv-x="1449" 
d="M872 1573l-124 153l-125 -153h-306l273 340h315l266 -340h-299zM176 0v1454h1131v-287h-783v-262h461v-293h-461v-311h852v-301h-1200z" />
    <glyph glyph-name="Edieresis" unicode="&#xcb;" horiz-adv-x="1449" 
d="M346 1575v323h328v-323h-328zM821 1575v323h328v-323h-328zM176 0v1454h1131v-287h-783v-262h461v-293h-461v-311h852v-301h-1200z" />
    <glyph glyph-name="Igrave" unicode="&#xcc;" horiz-adv-x="708" 
d="M526 1575h-342l-227 332h358zM180 0v1454h348v-1454h-348z" />
    <glyph glyph-name="Iacute" unicode="&#xcd;" horiz-adv-x="708" 
d="M184 1575l211 332h359l-228 -332h-342zM180 0v1454h348v-1454h-348z" />
    <glyph glyph-name="Icircumflex" unicode="&#xce;" horiz-adv-x="708" 
d="M477 1573l-125 153l-125 -153h-305l273 340h315l266 -340h-299zM180 0v1454h348v-1454h-348z" />
    <glyph glyph-name="Idieresis" unicode="&#xcf;" horiz-adv-x="708" 
d="M-49 1575v323h328v-323h-328zM426 1575v323h328v-323h-328zM180 0v1454h348v-1454h-348z" />
    <glyph glyph-name="Eth" unicode="&#xd0;" horiz-adv-x="1626" 
d="M221 0v586h-194v293h194v575h531q233 0 403.5 -80t266.5 -245t96 -402q0 -348 -206.5 -537.5t-559.5 -189.5h-531zM745 1155h-176v-276h328v-293h-328v-287h176q198 0 308 112.5t110 315.5q0 209 -109 318.5t-309 109.5z" />
    <glyph glyph-name="Ntilde" unicode="&#xd1;" horiz-adv-x="1662" 
d="M862 1636l-69 35q-44 21 -58 21q-28 0 -28 -41v-82h-232v178q0 91 47.5 145t136.5 54q32 0 65 -9t53.5 -18.5t64.5 -32.5l67 -35q39 -20 60 -20q28 0 28 41v84h232v-180q0 -91 -48 -144t-137 -53q-48 0 -86 13t-96 44zM1485 1454v-1462h-285l-684 977v-969h-340v1454h393
l584 -856v856h332z" />
    <glyph glyph-name="Ograve" unicode="&#xd2;" horiz-adv-x="1603" 
d="M977 1575h-342l-227 332h358zM803 -25q-199 0 -356 90.5t-247.5 262.5t-90.5 399q0 172 52.5 314t145.5 237.5t220.5 148t275.5 52.5t275 -52.5t219.5 -148t145 -237.5t52.5 -314q0 -170 -52.5 -312t-145 -238t-220 -149t-274.5 -53zM803 287q159 0 249.5 123t90.5 317
q0 193 -90.5 316.5t-249.5 123.5t-249.5 -123.5t-90.5 -316.5q0 -195 90 -317.5t250 -122.5z" />
    <glyph glyph-name="Oacute" unicode="&#xd3;" horiz-adv-x="1603" 
d="M627 1575l211 332h358l-227 -332h-342zM803 -25q-199 0 -356 90.5t-247.5 262.5t-90.5 399q0 172 52.5 314t145.5 237.5t220.5 148t275.5 52.5t275 -52.5t219.5 -148t145 -237.5t52.5 -314q0 -170 -52.5 -312t-145 -238t-220 -149t-274.5 -53zM803 287q159 0 249.5 123
t90.5 317q0 193 -90.5 316.5t-249.5 123.5t-249.5 -123.5t-90.5 -316.5q0 -195 90 -317.5t250 -122.5z" />
    <glyph glyph-name="Ocircumflex" unicode="&#xd4;" horiz-adv-x="1603" 
d="M928 1573l-125 153l-125 -153h-305l272 340h316l266 -340h-299zM803 -25q-199 0 -356 90.5t-247.5 262.5t-90.5 399q0 172 52.5 314t145.5 237.5t220.5 148t275.5 52.5t275 -52.5t219.5 -148t145 -237.5t52.5 -314q0 -170 -52.5 -312t-145 -238t-220 -149t-274.5 -53z
M803 287q159 0 249.5 123t90.5 317q0 193 -90.5 316.5t-249.5 123.5t-249.5 -123.5t-90.5 -316.5q0 -195 90 -317.5t250 -122.5z" />
    <glyph glyph-name="Otilde" unicode="&#xd5;" horiz-adv-x="1603" 
d="M813 1636l-70 35q-44 21 -57 21q-29 0 -29 -41v-82h-231v178q0 91 47.5 145t136.5 54q32 0 65 -9t53.5 -18.5t64.5 -32.5l67 -35q39 -20 60 -20q28 0 28 41v84h232v-180q0 -91 -48 -144t-137 -53q-48 0 -86 13t-96 44zM803 -25q-199 0 -356 90.5t-247.5 262.5t-90.5 399
q0 172 52.5 314t145.5 237.5t220.5 148t275.5 52.5t275 -52.5t219.5 -148t145 -237.5t52.5 -314q0 -170 -52.5 -312t-145 -238t-220 -149t-274.5 -53zM803 287q159 0 249.5 123t90.5 317q0 193 -90.5 316.5t-249.5 123.5t-249.5 -123.5t-90.5 -316.5q0 -195 90 -317.5
t250 -122.5z" />
    <glyph glyph-name="Odieresis" unicode="&#xd6;" horiz-adv-x="1603" 
d="M401 1575v323h328v-323h-328zM877 1575v323h327v-323h-327zM803 -25q-199 0 -356 90.5t-247.5 262.5t-90.5 399q0 172 52.5 314t145.5 237.5t220.5 148t275.5 52.5t275 -52.5t219.5 -148t145 -237.5t52.5 -314q0 -170 -52.5 -312t-145 -238t-220 -149t-274.5 -53z
M803 287q159 0 249.5 123t90.5 317q0 193 -90.5 316.5t-249.5 123.5t-249.5 -123.5t-90.5 -316.5q0 -195 90 -317.5t250 -122.5z" />
    <glyph glyph-name="multiply" unicode="&#xd7;" horiz-adv-x="1388" 
d="M150 317l331 336l-331 334l219 217l327 -332l328 332l215 -209l-332 -336l332 -337l-217 -211l-330 331l-327 -331z" />
    <glyph glyph-name="Oslash" unicode="&#xd8;" horiz-adv-x="1603" 
d="M53 0l199 250q-143 195 -143 477q0 172 52.5 314t145.5 237.5t220.5 148t275.5 52.5q193 0 356 -97l55 72h336l-198 -248q143 -195 143 -479q0 -170 -52.5 -312t-145 -238t-220 -149t-274.5 -53q-194 0 -361 99l-57 -74h-332zM446 727q0 -116 25 -205l494 623
q-70 31 -162 31q-166 0 -261.5 -126.5t-95.5 -322.5zM803 279q166 0 260 125t94 323q0 122 -24 207l-496 -623q65 -32 166 -32z" />
    <glyph glyph-name="Ugrave" unicode="&#xd9;" horiz-adv-x="1628" 
d="M1010 1575h-342l-228 332h359zM1114 604v850h346v-872q0 -129 -42 -240t-121.5 -194.5t-203.5 -131t-278 -47.5q-158 0 -282.5 47t-203.5 130.5t-120 194t-41 241.5v872h348v-850q0 -144 78 -230.5t221 -86.5q140 0 219.5 87t79.5 230z" />
    <glyph glyph-name="Uacute" unicode="&#xda;" horiz-adv-x="1628" 
d="M635 1575l211 332h358l-227 -332h-342zM1114 604v850h346v-872q0 -129 -42 -240t-121.5 -194.5t-203.5 -131t-278 -47.5q-158 0 -282.5 47t-203.5 130.5t-120 194t-41 241.5v872h348v-850q0 -144 78 -230.5t221 -86.5q140 0 219.5 87t79.5 230z" />
    <glyph glyph-name="Ucircumflex" unicode="&#xdb;" horiz-adv-x="1628" 
d="M940 1573l-125 153l-125 -153h-305l272 340h316l266 -340h-299zM1114 604v850h346v-872q0 -129 -42 -240t-121.5 -194.5t-203.5 -131t-278 -47.5q-158 0 -282.5 47t-203.5 130.5t-120 194t-41 241.5v872h348v-850q0 -144 78 -230.5t221 -86.5q140 0 219.5 87t79.5 230z
" />
    <glyph glyph-name="Udieresis" unicode="&#xdc;" horiz-adv-x="1628" 
d="M414 1575v323h327v-323h-327zM889 1575v323h328v-323h-328zM1114 604v850h346v-872q0 -129 -42 -240t-121.5 -194.5t-203.5 -131t-278 -47.5q-158 0 -282.5 47t-203.5 130.5t-120 194t-41 241.5v872h348v-850q0 -144 78 -230.5t221 -86.5q140 0 219.5 87t79.5 230z" />
    <glyph glyph-name="Yacute" unicode="&#xdd;" horiz-adv-x="1480" 
d="M580 1575l211 332h358l-227 -332h-342zM567 592l-563 862h434l326 -512l326 512h387l-543 -870v-584h-367v592z" />
    <glyph glyph-name="Thorn" unicode="&#xde;" horiz-adv-x="1527" 
d="M176 0v1454h346v-256h402q246 0 379 -117t133 -338q0 -218 -133.5 -337t-378.5 -119h-402v-287h-346zM891 895h-369v-305h369q92 0 139 40.5t47 112.5q0 152 -186 152z" />
    <glyph glyph-name="germandbls" unicode="&#xdf;" horiz-adv-x="1288" 
d="M641 1532q228 0 358.5 -108t130.5 -296q0 -117 -58 -193.5t-136 -103.5q50 -12 96 -40.5t87.5 -74t66 -116.5t24.5 -158q0 -205 -128.5 -323.5t-360.5 -118.5h-103v293h56q98 0 150.5 45.5t52.5 124.5q0 81 -52.5 126.5t-150.5 45.5h-56v291h5q83 0 130.5 40t47.5 117
q0 76 -44 118t-116 42q-74 0 -117 -50.5t-43 -145.5v-1047h-334v1053q0 230 128 354.5t366 124.5z" />
    <glyph glyph-name="agrave" unicode="&#xe0;" horiz-adv-x="1288" 
d="M778 1192h-319l-221 389h333zM819 139q-9 -20 -27.5 -43t-52 -52t-88.5 -48t-121 -19q-193 0 -315.5 149t-122.5 404t122.5 403t317.5 148q65 0 120 -18.5t87.5 -46.5t49.5 -49t26 -39v133h330v-1061h-326v139zM819 530q0 125 -51.5 197t-142.5 72q-93 0 -146 -72
t-53 -197t53 -197.5t146 -72.5q90 0 142 72.5t52 197.5z" />
    <glyph glyph-name="aacute" unicode="&#xe1;" horiz-adv-x="1288" 
d="M461 1192l207 389h333l-221 -389h-319zM819 139q-9 -20 -27.5 -43t-52 -52t-88.5 -48t-121 -19q-193 0 -315.5 149t-122.5 404t122.5 403t317.5 148q65 0 120 -18.5t87.5 -46.5t49.5 -49t26 -39v133h330v-1061h-326v139zM819 530q0 125 -51.5 197t-142.5 72
q-93 0 -146 -72t-53 -197t53 -197.5t146 -72.5q90 0 142 72.5t52 197.5z" />
    <glyph glyph-name="acircumflex" unicode="&#xe2;" horiz-adv-x="1288" 
d="M735 1190l-114 190l-117 -190h-289l256 405h299l248 -405h-283zM819 139q-9 -20 -27.5 -43t-52 -52t-88.5 -48t-121 -19q-193 0 -315.5 149t-122.5 404t122.5 403t317.5 148q65 0 120 -18.5t87.5 -46.5t49.5 -49t26 -39v133h330v-1061h-326v139zM819 530q0 125 -51.5 197
t-142.5 72q-93 0 -146 -72t-53 -197t53 -197.5t146 -72.5q90 0 142 72.5t52 197.5z" />
    <glyph glyph-name="atilde" unicode="&#xe3;" horiz-adv-x="1288" 
d="M487 1184h-221v184q0 92 45.5 145.5t132.5 53.5q43 0 80 -15.5t90 -48.5l56 -35q33 -22 53 -22q31 0 31 43v88h223v-186q0 -91 -46 -144t-132 -53q-46 0 -82.5 14.5t-87.5 46.5l-58 35q-38 23 -53 23q-31 0 -31 -43v-86zM819 139q-9 -20 -27.5 -43t-52 -52t-88.5 -48
t-121 -19q-193 0 -315.5 149t-122.5 404t122.5 403t317.5 148q65 0 120 -18.5t87.5 -46.5t49.5 -49t26 -39v133h330v-1061h-326v139zM819 530q0 125 -51.5 197t-142.5 72q-93 0 -146 -72t-53 -197t53 -197.5t146 -72.5q90 0 142 72.5t52 197.5z" />
    <glyph glyph-name="adieresis" unicode="&#xe4;" horiz-adv-x="1288" 
d="M225 1198v324h326v-324h-326zM690 1198v324h326v-324h-326zM819 139q-9 -20 -27.5 -43t-52 -52t-88.5 -48t-121 -19q-193 0 -315.5 149t-122.5 404t122.5 403t317.5 148q65 0 120 -18.5t87.5 -46.5t49.5 -49t26 -39v133h330v-1061h-326v139zM819 530q0 125 -51.5 197
t-142.5 72q-93 0 -146 -72t-53 -197t53 -197.5t146 -72.5q90 0 142 72.5t52 197.5z" />
    <glyph glyph-name="aring" unicode="&#xe5;" horiz-adv-x="1288" 
d="M621 1171q-124 0 -204.5 80t-80.5 199q0 122 80.5 201.5t204.5 79.5q125 0 205.5 -79.5t80.5 -201.5q0 -119 -81 -199t-205 -80zM621 1335q49 0 80.5 32.5t31.5 82.5q0 51 -31 83t-81 32t-81.5 -32t-31.5 -83q0 -50 32 -82.5t81 -32.5zM819 139q-9 -20 -27.5 -43t-52 -52
t-88.5 -48t-121 -19q-193 0 -315.5 149t-122.5 404t122.5 403t317.5 148q65 0 120 -18.5t87.5 -46.5t49.5 -49t26 -39v133h330v-1061h-326v139zM819 530q0 125 -51.5 197t-142.5 72q-93 0 -146 -72t-53 -197t53 -197.5t146 -72.5q90 0 142 72.5t52 197.5z" />
    <glyph glyph-name="ae" unicode="&#xe6;" horiz-adv-x="1878" 
d="M586 1087q121 0 215 -39t145 -104q49 64 136.5 103.5t197.5 39.5q238 0 378 -151t140 -406v-67h-708q8 -102 64.5 -163.5t148.5 -61.5q106 0 157 73h332q-6 -41 -24 -83.5t-56.5 -89t-91.5 -82.5t-135.5 -59.5t-181.5 -23.5q-141 0 -253 53.5t-178 143.5
q-109 -195 -376 -195q-190 0 -304 99.5t-114 259.5q0 157 106.5 243.5t294.5 86.5h283v8q0 72 -44.5 117t-125.5 45q-69 0 -107.5 -28.5t-48.5 -55.5h-336q3 33 17.5 73t51 88t88.5 86t138 64t191 26zM1280 848q-80 0 -128.5 -49t-59.5 -135h376q-12 87 -61 135.5t-127 48.5
zM573 209q81 0 135 46t54 120v80h-211q-65 0 -104 -29.5t-39 -83.5q0 -60 45 -96.5t120 -36.5z" />
    <glyph glyph-name="ccedilla" unicode="&#xe7;" horiz-adv-x="1155" 
d="M653 -322q0 54 -65 54h-160v268q-156 54 -248 193.5t-92 336.5q0 249 143.5 403t364.5 154q98 0 180 -26t135.5 -66.5t92.5 -93t57 -103t22 -98.5h-317q-42 101 -160 101q-85 0 -134.5 -75t-49.5 -196t50 -196.5t136 -75.5q113 0 158 102h317q-3 -44 -18 -90t-48 -96
t-79 -90.5t-117 -70.5t-157 -38v-63q116 -1 179.5 -65t63.5 -177q0 -121 -68.5 -189.5t-199.5 -68.5h-254v211h203q65 0 65 55z" />
    <glyph glyph-name="egrave" unicode="&#xe8;" horiz-adv-x="1212" 
d="M770 1192h-319l-222 389h334zM610 1087q241 0 382 -150.5t141 -406.5v-57h-719q6 -106 64 -170.5t155 -64.5q112 0 166 77h327q-5 -42 -23 -85.5t-56.5 -90.5t-92.5 -83t-137.5 -59.5t-183.5 -23.5q-252 0 -398.5 153t-146.5 404q0 250 143.5 403.5t378.5 153.5zM610 848
q-80 0 -130 -47.5t-62 -130.5h383q-14 84 -64 131t-127 47z" />
    <glyph glyph-name="eacute" unicode="&#xe9;" horiz-adv-x="1212" 
d="M453 1192l206 389h334l-221 -389h-319zM610 1087q241 0 382 -150.5t141 -406.5v-57h-719q6 -106 64 -170.5t155 -64.5q112 0 166 77h327q-5 -42 -23 -85.5t-56.5 -90.5t-92.5 -83t-137.5 -59.5t-183.5 -23.5q-252 0 -398.5 153t-146.5 404q0 250 143.5 403.5t378.5 153.5
zM610 848q-80 0 -130 -47.5t-62 -130.5h383q-14 84 -64 131t-127 47z" />
    <glyph glyph-name="ecircumflex" unicode="&#xea;" horiz-adv-x="1212" 
d="M725 1190l-115 190l-116 -190h-289l256 405h299l248 -405h-283zM610 1087q241 0 382 -150.5t141 -406.5v-57h-719q6 -106 64 -170.5t155 -64.5q112 0 166 77h327q-5 -42 -23 -85.5t-56.5 -90.5t-92.5 -83t-137.5 -59.5t-183.5 -23.5q-252 0 -398.5 153t-146.5 404
q0 250 143.5 403.5t378.5 153.5zM610 848q-80 0 -130 -47.5t-62 -130.5h383q-14 84 -64 131t-127 47z" />
    <glyph glyph-name="edieresis" unicode="&#xeb;" horiz-adv-x="1212" 
d="M215 1198v324h326v-324h-326zM680 1198v324h326v-324h-326zM610 1087q241 0 382 -150.5t141 -406.5v-57h-719q6 -106 64 -170.5t155 -64.5q112 0 166 77h327q-5 -42 -23 -85.5t-56.5 -90.5t-92.5 -83t-137.5 -59.5t-183.5 -23.5q-252 0 -398.5 153t-146.5 404
q0 250 143.5 403.5t378.5 153.5zM610 848q-80 0 -130 -47.5t-62 -130.5h383q-14 84 -64 131t-127 47z" />
    <glyph glyph-name="igrave" unicode="&#xec;" horiz-adv-x="620" 
d="M469 1192h-319l-222 389h334zM143 0v1061h334v-1061h-334z" />
    <glyph glyph-name="iacute" unicode="&#xed;" horiz-adv-x="620" 
d="M152 1192l206 389h334l-221 -389h-319zM143 0v1061h334v-1061h-334z" />
    <glyph glyph-name="icircumflex" unicode="&#xee;" horiz-adv-x="620" 
d="M422 1190l-111 190l-112 -190h-289l248 405h305l242 -405h-283zM143 0v1061h334v-1061h-334z" />
    <glyph glyph-name="idieresis" unicode="&#xef;" horiz-adv-x="620" 
d="M-70 1198v324h312v-324h-312zM379 1198v324h311v-324h-311zM143 0v1061h334v-1061h-334z" />
    <glyph glyph-name="eth" unicode="&#xf0;" horiz-adv-x="1253" 
d="M492 1032q105 0 178 -51l-146 182l-293 -100l-65 180l231 80l-145 184h362l70 -88l244 84l65 -180l-184 -63l133 -170q117 -149 171 -274.5t54 -285.5q0 -247 -149.5 -402t-392.5 -155q-239 0 -388 155t-149 402q0 219 111 360.5t293 141.5zM627 254q100 0 153.5 76.5
t53.5 199.5t-53.5 199t-153.5 76q-98 0 -152.5 -76.5t-54.5 -198.5q0 -123 53.5 -199.5t153.5 -76.5z" />
    <glyph glyph-name="ntilde" unicode="&#xf1;" horiz-adv-x="1304" 
d="M516 1184h-221v184q0 92 45.5 145.5t132.5 53.5q43 0 80 -15.5t90 -48.5l55 -35q33 -22 54 -22q30 0 30 43v88h224v-186q0 -91 -46.5 -144t-132.5 -53q-46 0 -82.5 14.5t-87.5 46.5l-57 35q-38 23 -53 23q-31 0 -31 -43v-86zM143 0v1061h330v-137q35 60 113 109.5
t190 49.5q179 0 286 -118t107 -314v-651h-331v590q0 95 -48 149t-133 54q-86 0 -135 -54.5t-49 -148.5v-590h-330z" />
    <glyph glyph-name="ograve" unicode="&#xf2;" horiz-adv-x="1253" 
d="M786 1192h-319l-221 389h334zM627 1087q239 0 389.5 -153t150.5 -404q0 -250 -151 -403.5t-389 -153.5t-388.5 153.5t-150.5 403.5q0 251 150.5 404t388.5 153zM627 254q100 0 153.5 76.5t53.5 199.5q0 122 -54 198.5t-153 76.5q-98 0 -152.5 -77t-54.5 -198
q0 -123 53.5 -199.5t153.5 -76.5z" />
    <glyph glyph-name="oacute" unicode="&#xf3;" horiz-adv-x="1253" 
d="M467 1192l207 389h334l-222 -389h-319zM627 1087q239 0 389.5 -153t150.5 -404q0 -250 -151 -403.5t-389 -153.5t-388.5 153.5t-150.5 403.5q0 251 150.5 404t388.5 153zM627 254q100 0 153.5 76.5t53.5 199.5q0 122 -54 198.5t-153 76.5q-98 0 -152.5 -77t-54.5 -198
q0 -123 53.5 -199.5t153.5 -76.5z" />
    <glyph glyph-name="ocircumflex" unicode="&#xf4;" horiz-adv-x="1253" 
d="M741 1190l-114 190l-117 -190h-289l256 405h299l248 -405h-283zM627 1087q239 0 389.5 -153t150.5 -404q0 -250 -151 -403.5t-389 -153.5t-388.5 153.5t-150.5 403.5q0 251 150.5 404t388.5 153zM627 254q100 0 153.5 76.5t53.5 199.5q0 122 -54 198.5t-153 76.5
q-98 0 -152.5 -77t-54.5 -198q0 -123 53.5 -199.5t153.5 -76.5z" />
    <glyph glyph-name="otilde" unicode="&#xf5;" horiz-adv-x="1253" 
d="M494 1184h-222v184q0 92 46 145.5t133 53.5q43 0 80 -15.5t90 -48.5l55 -35q33 -22 53 -22q31 0 31 43v88h223v-186q0 -91 -46 -144t-132 -53q-46 0 -82.5 14.5t-87.5 46.5l-57 35q-38 23 -54 23q-30 0 -30 -43v-86zM627 1087q239 0 389.5 -153t150.5 -404
q0 -250 -151 -403.5t-389 -153.5t-388.5 153.5t-150.5 403.5q0 251 150.5 404t388.5 153zM627 254q100 0 153.5 76.5t53.5 199.5q0 122 -54 198.5t-153 76.5q-98 0 -152.5 -77t-54.5 -198q0 -123 53.5 -199.5t153.5 -76.5z" />
    <glyph glyph-name="odieresis" unicode="&#xf6;" horiz-adv-x="1253" 
d="M231 1198v324h326v-324h-326zM696 1198v324h326v-324h-326zM627 1087q239 0 389.5 -153t150.5 -404q0 -250 -151 -403.5t-389 -153.5t-388.5 153.5t-150.5 403.5q0 251 150.5 404t388.5 153zM627 254q100 0 153.5 76.5t53.5 199.5q0 122 -54 198.5t-153 76.5
q-98 0 -152.5 -77t-54.5 -198q0 -123 53.5 -199.5t153.5 -76.5z" />
    <glyph glyph-name="divide" unicode="&#xf7;" horiz-adv-x="1456" 
d="M543 958v357h366v-357h-366zM1294 526h-1138v295h1138v-295zM543 20v357h366v-357h-366z" />
    <glyph glyph-name="oslash" unicode="&#xf8;" horiz-adv-x="1253" 
d="M47 0l154 180q-113 145 -113 350q0 248 151.5 402.5t389.5 154.5q150 0 280 -77l41 51h258l-153 -180q112 -144 112 -351q0 -245 -151.5 -401t-386.5 -156q-155 0 -285 80l-43 -53h-254zM391 530q0 -57 10 -112l326 389q-51 14 -98 14q-111 0 -174.5 -83.5t-63.5 -207.5z
M864 530q0 58 -10 113l-328 -389q46 -16 103 -16q110 0 172.5 83.5t62.5 208.5z" />
    <glyph glyph-name="ugrave" unicode="&#xf9;" horiz-adv-x="1286" 
d="M801 1192h-320l-221 389h334zM645 -23q-248 0 -379 129t-131 347v608h332v-592q0 -85 45 -134.5t129 -49.5q86 0 132 49.5t46 134.5v592h330v-608q0 -214 -130 -345t-374 -131z" />
    <glyph glyph-name="uacute" unicode="&#xfa;" horiz-adv-x="1286" 
d="M477 1192l207 389h334l-221 -389h-320zM645 -23q-248 0 -379 129t-131 347v608h332v-592q0 -85 45 -134.5t129 -49.5q86 0 132 49.5t46 134.5v592h330v-608q0 -214 -130 -345t-374 -131z" />
    <glyph glyph-name="ucircumflex" unicode="&#xfb;" horiz-adv-x="1286" 
d="M756 1190l-115 190l-117 -190h-288l256 405h299l247 -405h-282zM645 -23q-248 0 -379 129t-131 347v608h332v-592q0 -85 45 -134.5t129 -49.5q86 0 132 49.5t46 134.5v592h330v-608q0 -214 -130 -345t-374 -131z" />
    <glyph glyph-name="udieresis" unicode="&#xfc;" horiz-adv-x="1286" 
d="M246 1198v324h325v-324h-325zM711 1198v324h325v-324h-325zM645 -23q-248 0 -379 129t-131 347v608h332v-592q0 -85 45 -134.5t129 -49.5q86 0 132 49.5t46 134.5v592h330v-608q0 -214 -130 -345t-374 -131z" />
    <glyph glyph-name="yacute" unicode="&#xfd;" horiz-adv-x="1179" 
d="M442 1192l207 389h334l-221 -389h-320zM289 -410l157 414l-436 1057h373l227 -615l226 615h333l-546 -1471h-334z" />
    <glyph glyph-name="thorn" unicode="&#xfe;" horiz-adv-x="1308" 
d="M469 150v-560h-326v1917h330v-600q7 18 26.5 42.5t55.5 57t95.5 54.5t129.5 22q193 0 316 -147t123 -406t-123 -406t-316 -147q-58 0 -109 15t-84 35.5t-60 47t-38.5 43.5t-19.5 32zM469 530q0 -123 55.5 -196.5t151.5 -73.5q95 0 151 74t56 196t-56 196.5t-151 74.5
q-96 0 -151.5 -74t-55.5 -197z" />
    <glyph glyph-name="ydieresis" unicode="&#xff;" horiz-adv-x="1179" 
d="M215 1198v324h326v-324h-326zM680 1198v324h326v-324h-326zM289 -410l157 414l-436 1057h373l227 -615l226 615h333l-546 -1471h-334z" />
    <glyph glyph-name="Amacron" unicode="&#x100;" horiz-adv-x="1568" 
d="M1135 1616h-721v250h721v-250zM1165 0l-94 252h-594l-94 -252h-346l557 1456h379l561 -1456h-369zM586 543h377l-189 506z" />
    <glyph glyph-name="amacron" unicode="&#x101;" horiz-adv-x="1288" 
d="M956 1241h-671v252h671v-252zM819 139q-9 -20 -27.5 -43t-52 -52t-88.5 -48t-121 -19q-193 0 -315.5 149t-122.5 404t122.5 403t317.5 148q65 0 120 -18.5t87.5 -46.5t49.5 -49t26 -39v133h330v-1061h-326v139zM819 530q0 125 -51.5 197t-142.5 72q-93 0 -146 -72
t-53 -197t53 -197.5t146 -72.5q90 0 142 72.5t52 197.5z" />
    <glyph glyph-name="Abreve" unicode="&#x102;" horiz-adv-x="1568" 
d="M774 1788q51 0 77 30t26 74v21h251v-27q0 -143 -89.5 -234t-264.5 -91t-264.5 91t-89.5 234v27h252v-21q0 -44 25 -74t77 -30zM1165 0l-94 252h-594l-94 -252h-346l557 1456h379l561 -1456h-369zM586 543h377l-189 506z" />
    <glyph glyph-name="abreve" unicode="&#x103;" horiz-adv-x="1288" 
d="M621 1407q48 0 71 29.5t23 74.5v33h250v-39q0 -143 -86.5 -234t-257.5 -91t-258 91t-87 234v39h250v-33q0 -44 23 -74t72 -30zM819 139q-9 -20 -27.5 -43t-52 -52t-88.5 -48t-121 -19q-193 0 -315.5 149t-122.5 404t122.5 403t317.5 148q65 0 120 -18.5t87.5 -46.5
t49.5 -49t26 -39v133h330v-1061h-326v139zM819 530q0 125 -51.5 197t-142.5 72q-93 0 -146 -72t-53 -197t53 -197.5t146 -72.5q90 0 142 72.5t52 197.5z" />
    <glyph glyph-name="Aogonek" unicode="&#x104;" horiz-adv-x="1568" 
d="M1032 -227q0 46 23 92t46.5 71.5t63.5 63.5l-94 252h-594l-94 -252h-346l557 1456h379l561 -1456h-2q-93 -74 -111 -95q-24 -26 -24 -46q0 -45 57 -45h121v-224h-293q-115 0 -182.5 47t-67.5 136zM586 543h377l-189 506z" />
    <glyph glyph-name="aogonek" unicode="&#x105;" horiz-adv-x="1288" 
d="M647 -227q0 24 5.5 45.5t21 43t26.5 36t37.5 37t38 31.5t43.5 34v139q-9 -20 -27.5 -43t-52 -52t-88.5 -48t-121 -19q-193 0 -315.5 149t-122.5 404t122.5 403t317.5 148q65 0 120 -18.5t87.5 -46.5t49.5 -49t26 -39v133h330v-1061q-9 -7 -24 -19.5t-23 -19t-20 -17
t-19 -16.5t-16 -15t-13.5 -15t-9 -13t-6.5 -13.5t-2 -12.5q0 -45 55 -45h121v-224h-293q-113 0 -180.5 47t-67.5 136zM819 530q0 125 -51.5 197t-142.5 72q-93 0 -146 -72t-53 -197t53 -197.5t146 -72.5q90 0 142 72.5t52 197.5z" />
    <glyph glyph-name="Cacute" unicode="&#x106;" horiz-adv-x="1484" 
d="M612 1575l211 332h359l-228 -332h-342zM780 -25q-300 0 -485.5 206.5t-185.5 545.5q0 222 83.5 393t236.5 265t351 94q121 0 223.5 -32.5t170 -84t116.5 -118t72.5 -131t28.5 -126.5h-336q-10 28 -29 56t-51 57t-83 47t-112 18q-99 0 -170.5 -58t-107 -156t-35.5 -224
t35.5 -224t107 -156t170.5 -58q63 0 114.5 18t83 47t50.5 56.5t29 56.5h334q-5 -56 -26 -117.5t-69 -129.5t-114.5 -121.5t-171 -88.5t-230.5 -35z" />
    <glyph glyph-name="cacute" unicode="&#x107;" horiz-adv-x="1155" 
d="M436 1192l207 389h334l-221 -389h-320zM766 700q-42 101 -160 101q-85 0 -134.5 -75t-49.5 -196t50 -196.5t136 -75.5q113 0 158 102h317q-3 -47 -20 -97t-55 -102.5t-91 -93.5t-135.5 -67.5t-181.5 -26.5q-224 0 -368 153t-144 404q0 249 143.5 403t364.5 154
q98 0 180 -26t135.5 -66.5t92.5 -93t57 -103t22 -98.5h-317z" />
    <glyph glyph-name="Ccircumflex" unicode="&#x108;" horiz-adv-x="1484" 
d="M905 1573l-125 153l-125 -153h-305l273 340h315l266 -340h-299zM780 -25q-300 0 -485.5 206.5t-185.5 545.5q0 222 83.5 393t236.5 265t351 94q121 0 223.5 -32.5t170 -84t116.5 -118t72.5 -131t28.5 -126.5h-336q-10 28 -29 56t-51 57t-83 47t-112 18q-99 0 -170.5 -58
t-107 -156t-35.5 -224t35.5 -224t107 -156t170.5 -58q63 0 114.5 18t83 47t50.5 56.5t29 56.5h334q-5 -56 -26 -117.5t-69 -129.5t-114.5 -121.5t-171 -88.5t-230.5 -35z" />
    <glyph glyph-name="ccircumflex" unicode="&#x109;" horiz-adv-x="1155" 
d="M711 1190l-115 190l-117 -190h-289l256 405h299l248 -405h-282zM766 700q-42 101 -160 101q-85 0 -134.5 -75t-49.5 -196t50 -196.5t136 -75.5q113 0 158 102h317q-3 -47 -20 -97t-55 -102.5t-91 -93.5t-135.5 -67.5t-181.5 -26.5q-224 0 -368 153t-144 404
q0 249 143.5 403t364.5 154q98 0 180 -26t135.5 -66.5t92.5 -93t57 -103t22 -98.5h-317z" />
    <glyph glyph-name="Cdotaccent" unicode="&#x10a;" horiz-adv-x="1484" 
d="M606 1575v326h348v-326h-348zM780 -25q-300 0 -485.5 206.5t-185.5 545.5q0 222 83.5 393t236.5 265t351 94q121 0 223.5 -32.5t170 -84t116.5 -118t72.5 -131t28.5 -126.5h-336q-10 28 -29 56t-51 57t-83 47t-112 18q-99 0 -170.5 -58t-107 -156t-35.5 -224t35.5 -224
t107 -156t170.5 -58q63 0 114.5 18t83 47t50.5 56.5t29 56.5h334q-5 -56 -26 -117.5t-69 -129.5t-114.5 -121.5t-171 -88.5t-230.5 -35z" />
    <glyph glyph-name="cdotaccent" unicode="&#x10b;" horiz-adv-x="1155" 
d="M422 1198v328h348v-328h-348zM766 700q-42 101 -160 101q-85 0 -134.5 -75t-49.5 -196t50 -196.5t136 -75.5q113 0 158 102h317q-3 -47 -20 -97t-55 -102.5t-91 -93.5t-135.5 -67.5t-181.5 -26.5q-224 0 -368 153t-144 404q0 249 143.5 403t364.5 154q98 0 180 -26
t135.5 -66.5t92.5 -93t57 -103t22 -98.5h-317z" />
    <glyph glyph-name="Ccaron" unicode="&#x10c;" horiz-adv-x="1484" 
d="M346 1913h303l131 -158l131 158h306l-279 -340h-315zM780 -25q-300 0 -485.5 206.5t-185.5 545.5q0 222 83.5 393t236.5 265t351 94q121 0 223.5 -32.5t170 -84t116.5 -118t72.5 -131t28.5 -126.5h-336q-10 28 -29 56t-51 57t-83 47t-112 18q-99 0 -170.5 -58t-107 -156
t-35.5 -224t35.5 -224t107 -156t170.5 -58q63 0 114.5 18t83 47t50.5 56.5t29 56.5h334q-5 -56 -26 -117.5t-69 -129.5t-114.5 -121.5t-171 -88.5t-230.5 -35z" />
    <glyph glyph-name="ccaron" unicode="&#x10d;" horiz-adv-x="1155" 
d="M711 1597h282l-248 -405h-299l-256 405h289l117 -190zM766 700q-42 101 -160 101q-85 0 -134.5 -75t-49.5 -196t50 -196.5t136 -75.5q113 0 158 102h317q-3 -47 -20 -97t-55 -102.5t-91 -93.5t-135.5 -67.5t-181.5 -26.5q-224 0 -368 153t-144 404q0 249 143.5 403
t364.5 154q98 0 180 -26t135.5 -66.5t92.5 -93t57 -103t22 -98.5h-317z" />
    <glyph glyph-name="Dcaron" unicode="&#x10e;" horiz-adv-x="1581" 
d="M305 1913h303l131 -158l131 158h306l-279 -340h-315zM176 0v1454h531q233 0 403.5 -80t266.5 -245t96 -402q0 -348 -206.5 -537.5t-559.5 -189.5h-531zM700 1155h-176v-856h176q198 0 308 112.5t110 315.5q0 209 -109 318.5t-309 109.5z" />
    <glyph glyph-name="dcaron" unicode="&#x10f;" horiz-adv-x="1308" 
d="M1251 1192l103 395h291l-119 -395h-275zM840 141q-9 -20 -28 -43t-54 -52.5t-92.5 -49t-126.5 -19.5q-193 0 -320 149.5t-127 403.5t127 403.5t320 149.5q68 0 125 -19t92 -48t53 -50t27 -38v579h329v-1507h-325v141zM840 530q0 120 -56 195.5t-151 75.5t-151 -75.5
t-56 -195.5t56 -195t151 -75t151 75t56 195z" />
    <glyph glyph-name="Dcroat" unicode="&#x110;" horiz-adv-x="1626" 
d="M221 0v586h-194v293h194v575h531q233 0 403.5 -80t266.5 -245t96 -402q0 -348 -206.5 -537.5t-559.5 -189.5h-531zM745 1155h-176v-276h328v-293h-328v-287h176q198 0 308 112.5t110 315.5q0 209 -109 318.5t-309 109.5z" />
    <glyph glyph-name="dcroat" unicode="&#x111;" horiz-adv-x="1308" 
d="M840 141q-9 -20 -28 -43t-54 -52.5t-92.5 -49t-126.5 -19.5q-193 0 -320 149.5t-127 403.5t127 403.5t320 149.5q68 0 125 -19t92 -48t53 -50t27 -38v239h-330v217h330v123h329v-123h144v-217h-144v-1167h-325v141zM840 530q0 120 -56 195.5t-151 75.5t-151 -75.5
t-56 -195.5t56 -195t151 -75t151 75t56 195z" />
    <glyph glyph-name="Emacron" unicode="&#x112;" horiz-adv-x="1449" 
d="M1108 1616h-721v250h721v-250zM176 0v1454h1131v-287h-783v-262h461v-293h-461v-311h852v-301h-1200z" />
    <glyph glyph-name="emacron" unicode="&#x113;" horiz-adv-x="1212" 
d="M948 1241h-672v252h672v-252zM610 1087q241 0 382 -150.5t141 -406.5v-57h-719q6 -106 64 -170.5t155 -64.5q112 0 166 77h327q-5 -42 -23 -85.5t-56.5 -90.5t-92.5 -83t-137.5 -59.5t-183.5 -23.5q-252 0 -398.5 153t-146.5 404q0 250 143.5 403.5t378.5 153.5zM610 848
q-80 0 -130 -47.5t-62 -130.5h383q-14 84 -64 131t-127 47z" />
    <glyph glyph-name="Ebreve" unicode="&#x114;" horiz-adv-x="1449" 
d="M748 1788q51 0 76.5 30t25.5 74v21h252v-27q0 -143 -89.5 -234t-264.5 -91t-265 91t-90 234v27h252v-21q0 -44 25.5 -74t77.5 -30zM176 0v1454h1131v-287h-783v-262h461v-293h-461v-311h852v-301h-1200z" />
    <glyph glyph-name="ebreve" unicode="&#x115;" horiz-adv-x="1212" 
d="M610 1407q48 0 71.5 29.5t23.5 74.5v33h249v-39q0 -143 -86.5 -234t-257.5 -91t-257.5 91t-86.5 234v39h250v-33q0 -45 22.5 -74.5t71.5 -29.5zM610 1087q241 0 382 -150.5t141 -406.5v-57h-719q6 -106 64 -170.5t155 -64.5q112 0 166 77h327q-5 -42 -23 -85.5
t-56.5 -90.5t-92.5 -83t-137.5 -59.5t-183.5 -23.5q-252 0 -398.5 153t-146.5 404q0 250 143.5 403.5t378.5 153.5zM610 848q-80 0 -130 -47.5t-62 -130.5h383q-14 84 -64 131t-127 47z" />
    <glyph glyph-name="Edotaccent" unicode="&#x116;" horiz-adv-x="1449" 
d="M575 1575v326h349v-326h-349zM176 0v1454h1131v-287h-783v-262h461v-293h-461v-311h852v-301h-1200z" />
    <glyph glyph-name="edotaccent" unicode="&#x117;" horiz-adv-x="1212" 
d="M436 1198v328h348v-328h-348zM610 1087q241 0 382 -150.5t141 -406.5v-57h-719q6 -106 64 -170.5t155 -64.5q112 0 166 77h327q-5 -42 -23 -85.5t-56.5 -90.5t-92.5 -83t-137.5 -59.5t-183.5 -23.5q-252 0 -398.5 153t-146.5 404q0 250 143.5 403.5t378.5 153.5zM610 848
q-80 0 -130 -47.5t-62 -130.5h383q-14 84 -64 131t-127 47z" />
    <glyph glyph-name="Eogonek" unicode="&#x118;" horiz-adv-x="1449" 
d="M176 0v1454h1131v-287h-783v-262h461v-293h-461v-311h852v-301h-202q-12 -10 -30.5 -25t-29 -23.5t-24.5 -20.5t-22 -20.5t-15.5 -18t-11 -17.5t-3.5 -16q0 -21 15.5 -33t42.5 -12h121v-224h-293q-115 0 -182.5 47t-67.5 136q0 28 10.5 56t24 48.5t39 45t43.5 39.5t49 38
h-664z" />
    <glyph glyph-name="eogonek" unicode="&#x119;" horiz-adv-x="1212" 
d="M958 39l-14 -14q-78 -78 -102.5 -108t-24.5 -56q0 -47 60 -47h120v-224h-286q-115 0 -181.5 44t-66.5 128q0 117 188 211h-18q-252 0 -398.5 153t-146.5 404q0 250 143.5 403.5t378.5 153.5q241 0 382 -150.5t141 -406.5v-57h-719q6 -106 64 -170.5t155 -64.5
q112 0 166 77h327q-17 -128 -168 -276zM610 848q-80 0 -130 -47.5t-62 -130.5h383q-14 84 -64 131t-127 47z" />
    <glyph glyph-name="Ecaron" unicode="&#x11a;" horiz-adv-x="1449" 
d="M313 1913h303l132 -158l131 158h305l-279 -340h-315zM176 0v1454h1131v-287h-783v-262h461v-293h-461v-311h852v-301h-1200z" />
    <glyph glyph-name="ecaron" unicode="&#x11b;" horiz-adv-x="1212" 
d="M725 1597h283l-248 -405h-299l-256 405h289l116 -190zM610 1087q241 0 382 -150.5t141 -406.5v-57h-719q6 -106 64 -170.5t155 -64.5q112 0 166 77h327q-5 -42 -23 -85.5t-56.5 -90.5t-92.5 -83t-137.5 -59.5t-183.5 -23.5q-252 0 -398.5 153t-146.5 404
q0 250 143.5 403.5t378.5 153.5zM610 848q-80 0 -130 -47.5t-62 -130.5h383q-14 84 -64 131t-127 47z" />
    <glyph glyph-name="Gcircumflex" unicode="&#x11c;" horiz-adv-x="1591" 
d="M938 1573l-125 153l-125 -153h-305l272 340h316l266 -340h-299zM1446 147q-32 -27 -80 -54t-119.5 -56t-171 -46.5t-209.5 -17.5q-347 0 -552 207t-205 555q0 219 88.5 389.5t249 265.5t366.5 95q121 0 224.5 -29.5t171 -75t117 -104t74 -112t30.5 -103.5h-345
q-93 127 -268 127q-160 0 -256 -124.5t-96 -328.5q0 -215 105.5 -342t295.5 -127q155 0 246 49v263h-373v278h707v-709z" />
    <glyph glyph-name="gcircumflex" unicode="&#x11d;" horiz-adv-x="1296" 
d="M739 1190l-114 190l-117 -190h-289l256 405h299l248 -405h-283zM827 164q-7 -14 -18.5 -30.5t-37.5 -43t-57.5 -47t-79.5 -36t-102 -15.5q-189 0 -314.5 148.5t-125.5 396.5q0 249 125 396.5t315 147.5q54 0 101.5 -15t78.5 -35t56.5 -46t36.5 -42t18 -30v148h330v-1024
q0 -216 -133 -342.5t-397 -126.5q-105 0 -194 24.5t-145 61t-98 82t-61 83t-25 68.5h365q51 -61 158 -61q98 0 151 54.5t53 154.5v129zM827 537q0 118 -54.5 190t-143.5 72q-92 0 -147.5 -71.5t-55.5 -190.5t55.5 -192t147.5 -73q89 0 143.5 73t54.5 192z" />
    <glyph glyph-name="Gbreve" unicode="&#x11e;" horiz-adv-x="1591" 
d="M813 1788q51 0 76.5 30t25.5 74v21h252v-27q0 -143 -89.5 -234t-264.5 -91t-264.5 91t-89.5 234v27h252v-21q0 -44 25 -74t77 -30zM1446 147q-32 -27 -80 -54t-119.5 -56t-171 -46.5t-209.5 -17.5q-347 0 -552 207t-205 555q0 219 88.5 389.5t249 265.5t366.5 95
q121 0 224.5 -29.5t171 -75t117 -104t74 -112t30.5 -103.5h-345q-93 127 -268 127q-160 0 -256 -124.5t-96 -328.5q0 -215 105.5 -342t295.5 -127q155 0 246 49v263h-373v278h707v-709z" />
    <glyph glyph-name="gbreve" unicode="&#x11f;" horiz-adv-x="1296" 
d="M625 1407q48 0 71 29.5t23 74.5v33h250v-39q0 -143 -86.5 -234t-257.5 -91t-257.5 91t-86.5 234v39h249v-33q0 -44 23 -74t72 -30zM827 164q-7 -14 -18.5 -30.5t-37.5 -43t-57.5 -47t-79.5 -36t-102 -15.5q-189 0 -314.5 148.5t-125.5 396.5q0 249 125 396.5t315 147.5
q54 0 101.5 -15t78.5 -35t56.5 -46t36.5 -42t18 -30v148h330v-1024q0 -216 -133 -342.5t-397 -126.5q-105 0 -194 24.5t-145 61t-98 82t-61 83t-25 68.5h365q51 -61 158 -61q98 0 151 54.5t53 154.5v129zM827 537q0 118 -54.5 190t-143.5 72q-92 0 -147.5 -71.5
t-55.5 -190.5t55.5 -192t147.5 -73q89 0 143.5 73t54.5 192z" />
    <glyph glyph-name="Gdotaccent" unicode="&#x120;" horiz-adv-x="1591" 
d="M639 1575v326h348v-326h-348zM1446 147q-32 -27 -80 -54t-119.5 -56t-171 -46.5t-209.5 -17.5q-347 0 -552 207t-205 555q0 219 88.5 389.5t249 265.5t366.5 95q121 0 224.5 -29.5t171 -75t117 -104t74 -112t30.5 -103.5h-345q-93 127 -268 127q-160 0 -256 -124.5
t-96 -328.5q0 -215 105.5 -342t295.5 -127q155 0 246 49v263h-373v278h707v-709z" />
    <glyph glyph-name="gdotaccent" unicode="&#x121;" horiz-adv-x="1296" 
d="M451 1198v328h348v-328h-348zM827 164q-7 -14 -18.5 -30.5t-37.5 -43t-57.5 -47t-79.5 -36t-102 -15.5q-189 0 -314.5 148.5t-125.5 396.5q0 249 125 396.5t315 147.5q54 0 101.5 -15t78.5 -35t56.5 -46t36.5 -42t18 -30v148h330v-1024q0 -216 -133 -342.5t-397 -126.5
q-105 0 -194 24.5t-145 61t-98 82t-61 83t-25 68.5h365q51 -61 158 -61q98 0 151 54.5t53 154.5v129zM827 537q0 118 -54.5 190t-143.5 72q-92 0 -147.5 -71.5t-55.5 -190.5t55.5 -192t147.5 -73q89 0 143.5 73t54.5 192z" />
    <glyph glyph-name="uni0122" unicode="&#x122;" horiz-adv-x="1591" 
d="M1446 147q-32 -27 -80 -54t-119.5 -56t-171 -46.5t-209.5 -17.5q-347 0 -552 207t-205 555q0 219 88.5 389.5t249 265.5t366.5 95q121 0 224.5 -29.5t171 -75t117 -104t74 -112t30.5 -103.5h-345q-93 127 -268 127q-160 0 -256 -124.5t-96 -328.5q0 -215 105.5 -342
t295.5 -127q155 0 246 49v263h-373v278h707v-709zM979 -655h-215q71 129 92 231h-162v287h359v-213q0 -146 -74 -305z" />
    <glyph glyph-name="uni0123" unicode="&#x123;" horiz-adv-x="1296" 
d="M504 1716h215q-71 -129 -92 -231h161v-287h-358v213q0 146 74 305zM827 164q-7 -14 -18.5 -30.5t-37.5 -43t-57.5 -47t-79.5 -36t-102 -15.5q-189 0 -314.5 148.5t-125.5 396.5q0 249 125 396.5t315 147.5q54 0 101.5 -15t78.5 -35t56.5 -46t36.5 -42t18 -30v148h330
v-1024q0 -216 -133 -342.5t-397 -126.5q-105 0 -194 24.5t-145 61t-98 82t-61 83t-25 68.5h365q51 -61 158 -61q98 0 151 54.5t53 154.5v129zM827 537q0 118 -54.5 190t-143.5 72q-92 0 -147.5 -71.5t-55.5 -190.5t55.5 -192t147.5 -73q89 0 143.5 73t54.5 192z" />
    <glyph glyph-name="Hcircumflex" unicode="&#x124;" horiz-adv-x="1658" 
d="M954 1573l-125 153l-124 -153h-306l273 340h315l266 -340h-299zM176 0v1454h348v-571h611v571h348v-1454h-348v575h-611v-575h-348z" />
    <glyph glyph-name="hcircumflex" unicode="&#x125;" horiz-adv-x="1304" 
d="M780 1626l-125 154l-125 -154h-305l273 340h315l266 -340h-299zM143 0v1507h330v-585q36 61 114 111t189 50q179 0 286 -119.5t107 -316.5v-647h-331v586q0 97 -48 152t-133 55q-86 0 -135 -55.5t-49 -151.5v-586h-330z" />
    <glyph glyph-name="Hbar" unicode="&#x126;" horiz-adv-x="1658" 
d="M176 0v1055h-162v227h162v172h348v-172h611v172h348v-172h162v-227h-162v-1055h-348v575h-611v-575h-348zM524 883h611v172h-611v-172z" />
    <glyph glyph-name="hbar" unicode="&#x127;" horiz-adv-x="1304" 
d="M143 0v1167h-143v217h143v123h330v-123h330v-217h-330v-245q36 61 114 111t189 50q179 0 286 -119.5t107 -316.5v-647h-331v586q0 97 -48 152t-133 55q-86 0 -135 -55.5t-49 -151.5v-586h-330z" />
    <glyph glyph-name="Itilde" unicode="&#x128;" horiz-adv-x="708" 
d="M362 1636l-69 35q-44 21 -57 21q-29 0 -29 -41v-82h-232v178q0 91 48 145t137 54q32 0 65 -9t52.5 -18.5t64.5 -32.5l68 -35q39 -20 59 -20q29 0 29 41v84h231v-180q0 -91 -47.5 -144t-136.5 -53q-48 0 -87 13.5t-96 43.5zM180 0v1454h348v-1454h-348z" />
    <glyph glyph-name="itilde" unicode="&#x129;" horiz-adv-x="620" 
d="M184 1184h-219v184q0 92 45 145.5t131 53.5q44 0 79.5 -15t84.5 -49l51 -35q35 -22 52 -22q28 0 28 43v88h221v-186q0 -92 -45.5 -144.5t-132.5 -52.5q-45 0 -81 14t-83 47l-49 35q-38 23 -49 23q-33 0 -33 -43v-86zM143 0v1061h334v-1061h-334z" />
    <glyph glyph-name="Imacron" unicode="&#x12a;" horiz-adv-x="708" 
d="M713 1616h-721v250h721v-250zM180 0v1454h348v-1454h-348z" />
    <glyph glyph-name="imacron" unicode="&#x12b;" horiz-adv-x="620" 
d="M627 1241h-633v252h633v-252zM143 0v1061h334v-1061h-334z" />
    <glyph glyph-name="Ibreve" unicode="&#x12c;" horiz-adv-x="708" 
d="M352 1788q51 0 77 30t26 74v21h252v-27q0 -143 -90 -234t-265 -91t-264.5 91t-89.5 234v27h252v-21q0 -44 25 -74t77 -30zM180 0v1454h348v-1454h-348z" />
    <glyph glyph-name="ibreve" unicode="&#x12d;" horiz-adv-x="620" 
d="M309 1407q48 0 71 29.5t23 74.5v33h250v-39q0 -143 -86.5 -234t-257.5 -91q-170 0 -256 91t-86 234v39h250v-33q0 -44 22.5 -74t69.5 -30zM143 0v1061h334v-1061h-334z" />
    <glyph glyph-name="Iogonek" unicode="&#x12e;" horiz-adv-x="708" 
d="M180 0v1454h348v-1454q-93 -74 -111 -95q-24 -26 -24 -46q0 -45 58 -45h118v-224h-290q-115 0 -182.5 47t-67.5 136q0 66 40.5 118.5t110.5 108.5z" />
    <glyph glyph-name="iogonek" unicode="&#x12f;" horiz-adv-x="620" 
d="M137 1198v328h346v-328h-346zM-23 -227q0 28 10.5 56t24 48.5t39 45t43.5 39.5t49 38v1061h334v-1061q-11 -9 -30.5 -24.5t-29 -24t-24 -21t-22 -20t-15.5 -17.5t-11 -18t-3 -16q0 -45 57 -45h121v-224h-293q-115 0 -182.5 47t-67.5 136z" />
    <glyph glyph-name="Idotaccent" unicode="&#x130;" horiz-adv-x="708" 
d="M178 1575v326h348v-326h-348zM180 0v1454h348v-1454h-348z" />
    <glyph glyph-name="dotlessi" unicode="&#x131;" horiz-adv-x="620" 
d="M143 0v1061h334v-1061h-334z" />
    <glyph glyph-name="IJ" unicode="&#x132;" horiz-adv-x="2066" 
d="M180 0v1454h348v-1454h-348zM1896 459q0 -226 -141 -357t-391 -131q-249 0 -381.5 130t-132.5 358v415h332v-387q0 -95 45.5 -150.5t136.5 -55.5q88 0 135 56t47 150v967h350v-995z" />
    <glyph glyph-name="ij" unicode="&#x133;" horiz-adv-x="1243" 
d="M137 1198v328h346v-328h-346zM760 1198v328h346v-328h-346zM143 0v1061h334v-1061h-334zM1100 -61q0 -183 -81.5 -266t-250.5 -83h-358v256h215q77 0 109 32.5t32 105.5v1077h334v-1122z" />
    <glyph glyph-name="Jcircumflex" unicode="&#x134;" horiz-adv-x="1357" 
d="M1135 1573l-125 153l-125 -153h-305l272 340h315l267 -340h-299zM1188 459q0 -226 -141.5 -357t-391.5 -131q-249 0 -381.5 130t-132.5 358v415h332v-387q0 -95 45.5 -150.5t136.5 -55.5q88 0 135.5 56t47.5 150v967h350v-995z" />
    <glyph glyph-name="jcircumflex" unicode="&#x135;" horiz-adv-x="622" 
d="M422 1190l-111 190l-112 -190h-289l248 405h305l242 -405h-283zM479 -61q0 -183 -81.5 -266t-250.5 -83h-358v256h215q77 0 109 32.5t32 105.5v1077h334v-1122z" />
    <glyph glyph-name="uni0136" unicode="&#x136;" horiz-adv-x="1548" 
d="M176 0v1454h348v-616l553 616h430l-624 -692l659 -762h-459l-559 639v-639h-348zM901 -655h-215q71 129 92 231h-162v287h359v-213q0 -146 -74 -305z" />
    <glyph glyph-name="uni0137" unicode="&#x137;" horiz-adv-x="1247" 
d="M143 0v1507h332v-864l350 418h398l-414 -490l457 -571h-416l-375 467v-467h-332zM768 -655h-215q71 129 92 231h-162v287h359v-213q0 -146 -74 -305z" />
    <glyph glyph-name="Lacute" unicode="&#x139;" horiz-adv-x="1372" 
d="M184 1575l211 332h359l-228 -332h-342zM176 0v1454h348v-1139h779v-315h-1127z" />
    <glyph glyph-name="lacute" unicode="&#x13a;" horiz-adv-x="628" 
d="M145 1628l211 332h359l-228 -332h-342zM147 0v1507h334v-1507h-334z" />
    <glyph glyph-name="uni013B" unicode="&#x13b;" horiz-adv-x="1372" 
d="M176 0v1454h348v-1139h779v-315h-1127zM864 -655h-215q71 129 92 231h-161v287h358v-213q0 -146 -74 -305z" />
    <glyph glyph-name="uni013C" unicode="&#x13c;" horiz-adv-x="628" 
d="M147 0v1507h334v-1507h-334zM428 -655h-215q71 129 92 231h-162v287h359v-213q0 -146 -74 -305z" />
    <glyph glyph-name="Lcaron" unicode="&#x13d;" horiz-adv-x="1372" 
d="M616 1192l103 395h291l-119 -395h-275zM176 0v1454h348v-1139h779v-315h-1127z" />
    <glyph glyph-name="lcaron" unicode="&#x13e;" horiz-adv-x="628" 
d="M567 1192l103 395h291l-119 -395h-275zM147 0v1507h334v-1507h-334z" />
    <glyph glyph-name="Ldot" unicode="&#x13f;" horiz-adv-x="1372" 
d="M176 0v1454h348v-1139h779v-315h-1127zM852 639v401h383v-401h-383z" />
    <glyph glyph-name="ldot" unicode="&#x140;" horiz-adv-x="1107" 
d="M147 0v1507h334v-1507h-334zM678 545v401h383v-401h-383z" />
    <glyph glyph-name="Lslash" unicode="&#x141;" horiz-adv-x="1402" 
d="M203 0v412l-174 -82v282l174 84v758h348v-592l473 228v-291l-473 -224v-260h778v-315h-1126z" />
    <glyph glyph-name="lslash" unicode="&#x142;" horiz-adv-x="776" 
d="M217 0v590l-178 -76v274l178 78v641h334v-495l188 82v-281l-188 -80v-733h-334z" />
    <glyph glyph-name="Nacute" unicode="&#x143;" horiz-adv-x="1662" 
d="M684 1575l211 332h358l-227 -332h-342zM1485 1454v-1462h-285l-684 977v-969h-340v1454h393l584 -856v856h332z" />
    <glyph glyph-name="nacute" unicode="&#x144;" horiz-adv-x="1304" 
d="M485 1192l207 389h334l-221 -389h-320zM143 0v1061h330v-137q35 60 113 109.5t190 49.5q179 0 286 -118t107 -314v-651h-331v590q0 95 -48 149t-133 54q-86 0 -135 -54.5t-49 -148.5v-590h-330z" />
    <glyph glyph-name="uni0145" unicode="&#x145;" horiz-adv-x="1662" 
d="M1485 1454v-1462h-285l-684 977v-969h-340v1454h393l584 -856v856h332zM961 -655h-216q73 132 93 231h-162v287h358v-213q0 -148 -73 -305z" />
    <glyph glyph-name="uni0146" unicode="&#x146;" horiz-adv-x="1304" 
d="M143 0v1061h330v-137q35 60 113 109.5t190 49.5q179 0 286 -118t107 -314v-651h-331v590q0 95 -48 149t-133 54q-86 0 -135 -54.5t-49 -148.5v-590h-330zM772 -655h-215q71 129 92 231h-162v287h359v-213q0 -146 -74 -305z" />
    <glyph glyph-name="Ncaron" unicode="&#x147;" horiz-adv-x="1662" 
d="M416 1913h303l131 -158l131 158h305l-278 -340h-316zM1485 1454v-1462h-285l-684 977v-969h-340v1454h393l584 -856v856h332z" />
    <glyph glyph-name="ncaron" unicode="&#x148;" horiz-adv-x="1304" 
d="M752 1597h282l-248 -405h-299l-256 405h289l117 -190zM143 0v1061h330v-137q35 60 113 109.5t190 49.5q179 0 286 -118t107 -314v-651h-331v590q0 95 -48 149t-133 54q-86 0 -135 -54.5t-49 -148.5v-590h-330z" />
    <glyph glyph-name="napostrophe" unicode="&#x149;" horiz-adv-x="1849" 
d="M367 756h-228q127 219 140 387h-177v364h375v-317q0 -237 -110 -434zM688 0v1061h330v-137q35 60 113 109.5t190 49.5q179 0 286 -118t107 -314v-651h-332v590q0 95 -47.5 149t-132.5 54q-86 0 -135 -54.5t-49 -148.5v-590h-330z" />
    <glyph glyph-name="Eng" unicode="&#x14a;" horiz-adv-x="1662" 
d="M1169 -29q0 37 -20 79t-66 108l-567 813v-971h-340v1454h393l586 -858v858h332v-1507q0 -188 -83.5 -272.5t-258.5 -84.5h-303v258h176q151 0 151 123z" />
    <glyph glyph-name="eng" unicode="&#x14b;" horiz-adv-x="1304" 
d="M143 0v1061h330v-137q35 60 113 109.5t190 49.5q179 0 286 -118t107 -314v-712q0 -183 -80.5 -266t-248.5 -83h-301v256h157q77 0 109.5 32.5t32.5 105.5v606q0 95 -48 149t-133 54q-86 0 -135 -54.5t-49 -148.5v-590h-330z" />
    <glyph glyph-name="Omacron" unicode="&#x14c;" horiz-adv-x="1603" 
d="M1163 1616h-721v250h721v-250zM803 -25q-199 0 -356 90.5t-247.5 262.5t-90.5 399q0 172 52.5 314t145.5 237.5t220.5 148t275.5 52.5t275 -52.5t219.5 -148t145 -237.5t52.5 -314q0 -170 -52.5 -312t-145 -238t-220 -149t-274.5 -53zM803 287q159 0 249.5 123t90.5 317
q0 193 -90.5 316.5t-249.5 123.5t-249.5 -123.5t-90.5 -316.5q0 -195 90 -317.5t250 -122.5z" />
    <glyph glyph-name="omacron" unicode="&#x14d;" horiz-adv-x="1253" 
d="M963 1241h-672v252h672v-252zM627 1087q239 0 389.5 -153t150.5 -404q0 -250 -151 -403.5t-389 -153.5t-388.5 153.5t-150.5 403.5q0 251 150.5 404t388.5 153zM627 254q100 0 153.5 76.5t53.5 199.5q0 122 -54 198.5t-153 76.5q-98 0 -152.5 -77t-54.5 -198
q0 -123 53.5 -199.5t153.5 -76.5z" />
    <glyph glyph-name="Obreve" unicode="&#x14e;" horiz-adv-x="1603" 
d="M803 1788q51 0 76.5 30t25.5 74v21h252v-27q0 -143 -89.5 -234t-264.5 -91t-264.5 91t-89.5 234v27h251v-21q0 -44 25.5 -74t77.5 -30zM803 -25q-199 0 -356 90.5t-247.5 262.5t-90.5 399q0 172 52.5 314t145.5 237.5t220.5 148t275.5 52.5t275 -52.5t219.5 -148
t145 -237.5t52.5 -314q0 -170 -52.5 -312t-145 -238t-220 -149t-274.5 -53zM803 287q159 0 249.5 123t90.5 317q0 193 -90.5 316.5t-249.5 123.5t-249.5 -123.5t-90.5 -316.5q0 -195 90 -317.5t250 -122.5z" />
    <glyph glyph-name="obreve" unicode="&#x14f;" horiz-adv-x="1253" 
d="M627 1407q48 0 71 29.5t23 74.5v33h250v-39q0 -143 -86.5 -234t-257.5 -91t-257.5 91t-86.5 234v39h249v-33q0 -44 23 -74t72 -30zM627 1087q239 0 389.5 -153t150.5 -404q0 -250 -151 -403.5t-389 -153.5t-388.5 153.5t-150.5 403.5q0 251 150.5 404t388.5 153zM627 254
q100 0 153.5 76.5t53.5 199.5q0 122 -54 198.5t-153 76.5q-98 0 -152.5 -77t-54.5 -198q0 -123 53.5 -199.5t153.5 -76.5z" />
    <glyph glyph-name="Ohungarumlaut" unicode="&#x150;" horiz-adv-x="1603" 
d="M872 1575l158 332h316l-170 -332h-304zM428 1575l150 332h317l-164 -332h-303zM803 -25q-199 0 -356 90.5t-247.5 262.5t-90.5 399q0 172 52.5 314t145.5 237.5t220.5 148t275.5 52.5t275 -52.5t219.5 -148t145 -237.5t52.5 -314q0 -170 -52.5 -312t-145 -238t-220 -149
t-274.5 -53zM803 287q159 0 249.5 123t90.5 317q0 193 -90.5 316.5t-249.5 123.5t-249.5 -123.5t-90.5 -316.5q0 -195 90 -317.5t250 -122.5z" />
    <glyph glyph-name="ohungarumlaut" unicode="&#x151;" horiz-adv-x="1253" 
d="M711 1192l143 389h279l-154 -389h-268zM305 1192l144 389h278l-154 -389h-268zM627 1087q239 0 389.5 -153t150.5 -404q0 -250 -151 -403.5t-389 -153.5t-388.5 153.5t-150.5 403.5q0 251 150.5 404t388.5 153zM627 254q100 0 153.5 76.5t53.5 199.5q0 122 -54 198.5
t-153 76.5q-98 0 -152.5 -77t-54.5 -198q0 -123 53.5 -199.5t153.5 -76.5z" />
    <glyph glyph-name="OE" unicode="&#x152;" horiz-adv-x="2166" 
d="M883 0q-352 0 -563 193t-211 534q0 338 212 532.5t562 194.5h1140v-287h-694v-262h422v-293h-422v-311h764v-301h-1210zM887 301h94v854h-94q-198 0 -312 -117.5t-114 -310.5t113.5 -309.5t312.5 -116.5z" />
    <glyph glyph-name="oe" unicode="&#x153;" horiz-adv-x="1947" 
d="M1370 -27q-127 0 -227.5 48t-157.5 126q-53 -79 -146 -126.5t-221 -47.5q-234 0 -382 153.5t-148 403.5q0 251 148 404t382 153q135 0 228 -48t143 -126q52 77 148.5 125.5t216.5 48.5q236 0 374 -151t138 -406v-67h-707q8 -102 63.5 -163.5t147.5 -61.5q109 0 160 73
h330q-5 -41 -23 -83.5t-56.5 -89t-91.5 -82.5t-136 -59.5t-183 -23.5zM1350 848q-80 0 -129 -49t-60 -135h377q-14 87 -62.5 135.5t-125.5 48.5zM625 254q98 0 150 76.5t52 199.5t-52 199t-150 76q-97 0 -151 -76.5t-54 -198.5t54 -199t151 -77z" />
    <glyph glyph-name="Racute" unicode="&#x154;" horiz-adv-x="1583" 
d="M592 1575l211 332h358l-227 -332h-342zM176 0v1454h746q244 0 378 -116t134 -337q0 -148 -66 -249.5t-192 -151.5l342 -600h-373l-318 557h-305v-557h-346zM887 1155h-365v-307h365q190 0 190 153q0 154 -190 154z" />
    <glyph glyph-name="racute" unicode="&#x155;" horiz-adv-x="1024" 
d="M393 1192l207 389h334l-221 -389h-320zM473 524v-524h-330v1061h330v-156q12 25 31.5 48.5t54.5 50.5t92.5 43t128.5 16h183v-328h-244q-129 0 -187.5 -51.5t-58.5 -159.5z" />
    <glyph glyph-name="uni0156" unicode="&#x156;" horiz-adv-x="1583" 
d="M176 0v1454h746q244 0 378 -116t134 -337q0 -148 -66 -249.5t-192 -151.5l342 -600h-373l-318 557h-305v-557h-346zM887 1155h-365v-307h365q190 0 190 153q0 154 -190 154zM924 -655h-215q71 129 92 231h-162v287h358v-213q0 -148 -73 -305z" />
    <glyph glyph-name="uni0157" unicode="&#x157;" horiz-adv-x="1021" 
d="M473 524v-524h-330v1061h330v-156q12 25 31.5 48.5t54.5 50.5t92.5 43t128.5 16h183v-328h-244q-129 0 -187.5 -51.5t-58.5 -159.5zM418 -655h-215q71 129 92 231h-162v287h359v-213q0 -146 -74 -305z" />
    <glyph glyph-name="Rcaron" unicode="&#x158;" horiz-adv-x="1583" 
d="M326 1913h303l131 -158l131 158h305l-278 -340h-316zM176 0v1454h746q244 0 378 -116t134 -337q0 -148 -66 -249.5t-192 -151.5l342 -600h-373l-318 557h-305v-557h-346zM887 1155h-365v-307h365q190 0 190 153q0 154 -190 154z" />
    <glyph glyph-name="rcaron" unicode="&#x159;" horiz-adv-x="1024" 
d="M668 1597h282l-248 -405h-299l-256 405h289l117 -190zM473 524v-524h-330v1061h330v-156q12 25 31.5 48.5t54.5 50.5t92.5 43t128.5 16h183v-328h-244q-129 0 -187.5 -51.5t-58.5 -159.5z" />
    <glyph glyph-name="Sacute" unicode="&#x15a;" horiz-adv-x="1452" 
d="M539 1575l211 332h358l-227 -332h-342zM678 1200q-99 0 -155 -36.5t-56 -98.5q0 -113 190 -139q33 -5 81 -11t65 -8q130 -16 224.5 -46t169 -83t112 -136t37.5 -198q0 -212 -156.5 -341.5t-437.5 -129.5q-133 0 -243.5 28.5t-183.5 73.5t-127.5 106t-83 120t-42.5 121
h370q11 -28 33.5 -54t58.5 -52t93 -42t125 -16q115 0 175 42t60 116q0 73 -52 108.5t-153 50.5q-30 4 -74 10.5t-73 10.5q-255 34 -388.5 141.5t-133.5 313.5q0 133 72 231.5t199.5 148.5t293.5 50q125 0 228.5 -25.5t171 -66t118 -95.5t76.5 -107t39 -108h-357
q-30 49 -96.5 85t-179.5 36z" />
    <glyph glyph-name="sacute" unicode="&#x15b;" horiz-adv-x="1153" 
d="M393 1192l207 389h334l-221 -389h-320zM629 393q-79 10 -125 13q-418 44 -418 344q0 158 127 249t338 91q108 0 195 -21.5t139.5 -53.5t89 -75t52.5 -80t22 -74h-328q-58 68 -166 68q-66 0 -102.5 -24t-36.5 -64q0 -72 114 -84q4 0 49.5 -4.5t61.5 -5.5
q225 -15 329.5 -100t104.5 -250t-124 -258t-361 -93q-111 0 -202 23.5t-146.5 58.5t-95.5 80.5t-57.5 85t-22.5 76.5h337q8 -15 24 -31.5t60 -34.5t103 -18q73 0 113 23t40 65t-25.5 65t-88.5 29z" />
    <glyph glyph-name="Scircumflex" unicode="&#x15c;" horiz-adv-x="1452" 
d="M834 1573l-125 153l-125 -153h-305l272 340h315l267 -340h-299zM678 1200q-99 0 -155 -36.5t-56 -98.5q0 -113 190 -139q33 -5 81 -11t65 -8q130 -16 224.5 -46t169 -83t112 -136t37.5 -198q0 -212 -156.5 -341.5t-437.5 -129.5q-133 0 -243.5 28.5t-183.5 73.5
t-127.5 106t-83 120t-42.5 121h370q11 -28 33.5 -54t58.5 -52t93 -42t125 -16q115 0 175 42t60 116q0 73 -52 108.5t-153 50.5q-30 4 -74 10.5t-73 10.5q-255 34 -388.5 141.5t-133.5 313.5q0 133 72 231.5t199.5 148.5t293.5 50q125 0 228.5 -25.5t171 -66t118 -95.5
t76.5 -107t39 -108h-357q-30 49 -96.5 85t-179.5 36z" />
    <glyph glyph-name="scircumflex" unicode="&#x15d;" horiz-adv-x="1153" 
d="M684 1190l-115 190l-116 -190h-289l256 405h299l248 -405h-283zM629 393q-79 10 -125 13q-418 44 -418 344q0 158 127 249t338 91q108 0 195 -21.5t139.5 -53.5t89 -75t52.5 -80t22 -74h-328q-58 68 -166 68q-66 0 -102.5 -24t-36.5 -64q0 -72 114 -84q4 0 49.5 -4.5
t61.5 -5.5q225 -15 329.5 -100t104.5 -250t-124 -258t-361 -93q-111 0 -202 23.5t-146.5 58.5t-95.5 80.5t-57.5 85t-22.5 76.5h337q8 -15 24 -31.5t60 -34.5t103 -18q73 0 113 23t40 65t-25.5 65t-88.5 29z" />
    <glyph glyph-name="uni015E" unicode="&#x15e;" horiz-adv-x="1452" 
d="M764 -322q0 54 -66 54h-159v262q-88 19 -162 54.5t-124.5 78.5t-88.5 94.5t-59.5 100.5t-32.5 100h370q11 -28 33.5 -54t58.5 -52t93 -42t125 -16q115 0 175 42t60 116q0 73 -52 108.5t-153 50.5q-30 4 -74 10.5t-73 10.5q-255 34 -388.5 141.5t-133.5 313.5
q0 133 72 231.5t199.5 148.5t293.5 50q125 0 228.5 -25.5t171 -66t118 -95.5t76.5 -107t39 -108h-357q-30 49 -96.5 85t-179.5 36q-99 0 -155 -36.5t-56 -98.5q0 -113 190 -139q33 -5 81 -11t65 -8q130 -16 224.5 -46t169 -83t112 -136t37.5 -198q0 -207 -150.5 -336
t-421.5 -135v-61q116 -1 180 -65t64 -177q0 -121 -69 -189.5t-201 -68.5h-254v211h204q66 0 66 55z" />
    <glyph glyph-name="uni015F" unicode="&#x15f;" horiz-adv-x="1153" 
d="M627 -322q0 54 -66 54h-160v260q-69 16 -126 44.5t-93 60t-61.5 69t-37.5 68.5t-17 61h337q8 -15 24 -31.5t60 -34.5t103 -18q73 0 113 23t40 65t-25.5 65t-88.5 29q-79 10 -125 13q-418 44 -418 344q0 158 127 249t338 91q108 0 195 -21.5t139.5 -53.5t89 -75t52.5 -80
t22 -74h-328q-58 68 -166 68q-66 0 -102.5 -24t-36.5 -64q0 -72 114 -84q4 0 49.5 -4.5t61.5 -5.5q225 -15 329.5 -100t104.5 -250q0 -156 -111.5 -248.5t-326.5 -102.5v-59q116 -1 180 -65t64 -177q0 -121 -69 -189.5t-200 -68.5h-254v211h203q66 0 66 55z" />
    <glyph glyph-name="Scaron" unicode="&#x160;" horiz-adv-x="1452" 
d="M272 1913h303l132 -158l131 158h305l-279 -340h-315zM678 1200q-99 0 -155 -36.5t-56 -98.5q0 -113 190 -139q33 -5 81 -11t65 -8q130 -16 224.5 -46t169 -83t112 -136t37.5 -198q0 -212 -156.5 -341.5t-437.5 -129.5q-133 0 -243.5 28.5t-183.5 73.5t-127.5 106t-83 120
t-42.5 121h370q11 -28 33.5 -54t58.5 -52t93 -42t125 -16q115 0 175 42t60 116q0 73 -52 108.5t-153 50.5q-30 4 -74 10.5t-73 10.5q-255 34 -388.5 141.5t-133.5 313.5q0 133 72 231.5t199.5 148.5t293.5 50q125 0 228.5 -25.5t171 -66t118 -95.5t76.5 -107t39 -108h-357
q-30 49 -96.5 85t-179.5 36z" />
    <glyph glyph-name="scaron" unicode="&#x161;" horiz-adv-x="1153" 
d="M674 1597h282l-247 -405h-299l-256 405h288l117 -190zM629 393q-79 10 -125 13q-418 44 -418 344q0 158 127 249t338 91q108 0 195 -21.5t139.5 -53.5t89 -75t52.5 -80t22 -74h-328q-58 68 -166 68q-66 0 -102.5 -24t-36.5 -64q0 -72 114 -84q4 0 49.5 -4.5t61.5 -5.5
q225 -15 329.5 -100t104.5 -250t-124 -258t-361 -93q-111 0 -202 23.5t-146.5 58.5t-95.5 80.5t-57.5 85t-22.5 76.5h337q8 -15 24 -31.5t60 -34.5t103 -18q73 0 113 23t40 65t-25.5 65t-88.5 29z" />
    <glyph glyph-name="Tcommaaccent" unicode="&#x162;" horiz-adv-x="1484" 
d="M569 0v1151h-497v303h1341v-303h-498v-1151h-346zM856 -655h-215q71 129 92 231h-162v287h359v-213q0 -146 -74 -305z" />
    <glyph glyph-name="tcommaaccent" unicode="&#x163;" horiz-adv-x="1046" 
d="M301 336v448h-248v277h248v393h332v-393h321v-277h-321v-333q0 -85 34 -121.5t124 -36.5h163v-293h-297q-356 0 -356 336zM707 -655h-215q71 129 92 231h-162v287h358v-213q0 -148 -73 -305z" />
    <glyph glyph-name="Tcaron" unicode="&#x164;" horiz-adv-x="1484" 
d="M307 1913h303l131 -158l131 158h306l-279 -340h-315zM569 0v1151h-497v303h1341v-303h-498v-1151h-346z" />
    <glyph glyph-name="tcaron" unicode="&#x165;" horiz-adv-x="1044" 
d="M719 1192l102 395h291l-119 -395h-274zM301 336v448h-248v277h248v393h332v-393h321v-277h-321v-333q0 -85 34 -121.5t124 -36.5h163v-293h-297q-356 0 -356 336z" />
    <glyph glyph-name="Tbar" unicode="&#x166;" horiz-adv-x="1484" 
d="M569 0v592h-331v268h331v291h-497v303h1341v-303h-498v-291h332v-268h-332v-592h-346z" />
    <glyph glyph-name="tbar" unicode="&#x167;" horiz-adv-x="1083" 
d="M322 336v139h-250v199h250v127h-250v260h250v393h329v-393h324v-260h-324v-127h324v-199h-324v-41q0 -74 31.5 -107.5t108.5 -33.5h184v-293h-297q-356 0 -356 336z" />
    <glyph glyph-name="Utilde" unicode="&#x168;" horiz-adv-x="1628" 
d="M825 1636l-69 35q-44 21 -58 21q-28 0 -28 -41v-82h-232v178q0 91 48 145t137 54q32 0 65 -9t52.5 -18.5t64.5 -32.5l67 -35q39 -20 60 -20q29 0 29 41v84h231v-180q0 -91 -47.5 -144t-136.5 -53q-48 0 -87 13.5t-96 43.5zM1114 604v850h346v-872q0 -129 -42 -240
t-121.5 -194.5t-203.5 -131t-278 -47.5q-158 0 -282.5 47t-203.5 130.5t-120 194t-41 241.5v872h348v-850q0 -144 78 -230.5t221 -86.5q140 0 219.5 87t79.5 230z" />
    <glyph glyph-name="utilde" unicode="&#x169;" horiz-adv-x="1286" 
d="M508 1184h-221v184q0 92 45.5 145.5t132.5 53.5q43 0 80 -15.5t90 -48.5l55 -35q33 -22 53 -22q31 0 31 43v88h223v-186q0 -91 -46 -144t-132 -53q-46 0 -82.5 14.5t-87.5 46.5l-57 35q-38 23 -53 23q-31 0 -31 -43v-86zM645 -23q-248 0 -379 129t-131 347v608h332v-592
q0 -85 45 -134.5t129 -49.5q86 0 132 49.5t46 134.5v592h330v-608q0 -214 -130 -345t-374 -131z" />
    <glyph glyph-name="Umacron" unicode="&#x16a;" horiz-adv-x="1628" 
d="M1176 1616h-721v250h721v-250zM1114 604v850h346v-872q0 -129 -42 -240t-121.5 -194.5t-203.5 -131t-278 -47.5q-158 0 -282.5 47t-203.5 130.5t-120 194t-41 241.5v872h348v-850q0 -144 78 -230.5t221 -86.5q140 0 219.5 87t79.5 230z" />
    <glyph glyph-name="umacron" unicode="&#x16b;" horiz-adv-x="1286" 
d="M979 1241h-672v252h672v-252zM645 -23q-248 0 -379 129t-131 347v608h332v-592q0 -85 45 -134.5t129 -49.5q86 0 132 49.5t46 134.5v592h330v-608q0 -214 -130 -345t-374 -131z" />
    <glyph glyph-name="Ubreve" unicode="&#x16c;" horiz-adv-x="1628" 
d="M815 1788q51 0 77 30t26 74v21h251v-27q0 -143 -89.5 -234t-264.5 -91t-264.5 91t-89.5 234v27h252v-21q0 -44 25 -74t77 -30zM1114 604v850h346v-872q0 -129 -42 -240t-121.5 -194.5t-203.5 -131t-278 -47.5q-158 0 -282.5 47t-203.5 130.5t-120 194t-41 241.5v872h348
v-850q0 -144 78 -230.5t221 -86.5q140 0 219.5 87t79.5 230z" />
    <glyph glyph-name="ubreve" unicode="&#x16d;" horiz-adv-x="1286" 
d="M641 1407q48 0 71 29.5t23 74.5v33h250v-39q0 -143 -86.5 -234t-257.5 -91t-257.5 91t-86.5 234v39h250v-33q0 -45 22.5 -74.5t71.5 -29.5zM645 -23q-248 0 -379 129t-131 347v608h332v-592q0 -85 45 -134.5t129 -49.5q86 0 132 49.5t46 134.5v592h330v-608
q0 -214 -130 -345t-374 -131z" />
    <glyph glyph-name="Uring" unicode="&#x16e;" horiz-adv-x="1628" 
d="M815 1554q-125 0 -206 80t-81 201q0 122 80.5 201.5t206.5 79.5t207.5 -79.5t81.5 -201.5q0 -121 -82 -201t-207 -80zM815 1718q49 0 81 33t32 84t-31 83t-82 32t-82 -32t-31 -83t32 -84t81 -33zM1114 604v850h346v-872q0 -129 -42 -240t-121.5 -194.5t-203.5 -131
t-278 -47.5q-158 0 -282.5 47t-203.5 130.5t-120 194t-41 241.5v872h348v-850q0 -144 78 -230.5t221 -86.5q140 0 219.5 87t79.5 230z" />
    <glyph glyph-name="uring" unicode="&#x16f;" horiz-adv-x="1286" 
d="M641 1171q-124 0 -204.5 80t-80.5 199q0 122 80.5 201.5t204.5 79.5q126 0 206.5 -79.5t80.5 -201.5q0 -119 -81.5 -199t-205.5 -80zM641 1335q49 0 81 32.5t32 82.5q0 51 -31.5 83t-81.5 32t-81.5 -32t-31.5 -83q0 -50 32 -82.5t81 -32.5zM645 -23q-248 0 -379 129
t-131 347v608h332v-592q0 -85 45 -134.5t129 -49.5q86 0 132 49.5t46 134.5v592h330v-608q0 -214 -130 -345t-374 -131z" />
    <glyph glyph-name="Uhungarumlaut" unicode="&#x170;" horiz-adv-x="1628" 
d="M887 1575l157 332h316l-170 -332h-303zM442 1575l150 332h317l-164 -332h-303zM1114 604v850h346v-872q0 -129 -42 -240t-121.5 -194.5t-203.5 -131t-278 -47.5q-158 0 -282.5 47t-203.5 130.5t-120 194t-41 241.5v872h348v-850q0 -144 78 -230.5t221 -86.5
q140 0 219.5 87t79.5 230z" />
    <glyph glyph-name="uhungarumlaut" unicode="&#x171;" horiz-adv-x="1286" 
d="M702 1192l144 389h278l-153 -389h-269zM297 1192l143 389h279l-154 -389h-268zM645 -23q-248 0 -379 129t-131 347v608h332v-592q0 -85 45 -134.5t129 -49.5q86 0 132 49.5t46 134.5v592h330v-608q0 -214 -130 -345t-374 -131z" />
    <glyph glyph-name="Uogonek" unicode="&#x172;" horiz-adv-x="1628" 
d="M1206 43q-92 -85 -122.5 -119.5t-30.5 -64.5q0 -45 57 -45h119v-224h-291q-114 0 -182 46.5t-68 130.5q0 64 46 112.5t132 91.5q-16 -2 -51 -2q-158 0 -282.5 47t-203.5 130.5t-120 194t-41 241.5v872h348v-850q0 -144 78 -230.5t221 -86.5q140 0 219.5 87t79.5 230v850
h346v-872q0 -119 -34.5 -220.5t-87 -172.5t-132.5 -146z" />
    <glyph glyph-name="uogonek" unicode="&#x173;" horiz-adv-x="1286" 
d="M971 35q-73 -80 -97 -112.5t-24 -61.5q0 -47 57 -47h121v-224h-293q-115 0 -182.5 45.5t-67.5 131.5q0 65 49 114t142 96h-31q-248 0 -379 129t-131 347v608h332v-592q0 -85 45 -134.5t129 -49.5q86 0 132 49.5t46 134.5v592h330v-608q0 -133 -46.5 -227.5t-131.5 -190.5
z" />
    <glyph glyph-name="Wcircumflex" unicode="&#x174;" horiz-adv-x="2121" 
d="M1186 1573l-125 153l-125 -153h-305l272 340h316l266 -340h-299zM1235 1456l262 -924l246 922h330l-410 -1456h-330l-274 930l-275 -930h-311l-426 1456h367l248 -913l258 915h315z" />
    <glyph glyph-name="wcircumflex" unicode="&#x175;" horiz-adv-x="1730" 
d="M989 1190l-115 190l-116 -190h-289l256 405h299l248 -405h-283zM1053 -2l-183 641l-182 -641h-319l-351 1063h357l176 -623l180 625h311l179 -621l176 619h315l-328 -1063h-331z" />
    <glyph glyph-name="Ycircumflex" unicode="&#x176;" horiz-adv-x="1480" 
d="M889 1573l-125 153l-125 -153h-305l272 340h316l266 -340h-299zM567 592l-563 862h434l326 -512l326 512h387l-543 -870v-584h-367v592z" />
    <glyph glyph-name="ycircumflex" unicode="&#x177;" horiz-adv-x="1179" 
d="M725 1190l-115 190l-116 -190h-289l256 405h299l248 -405h-283zM289 -410l157 414l-436 1057h373l227 -615l226 615h333l-546 -1471h-334z" />
    <glyph glyph-name="Ydieresis" unicode="&#x178;" horiz-adv-x="1480" 
d="M362 1575v323h328v-323h-328zM838 1575v323h327v-323h-327zM567 592l-563 862h434l326 -512l326 512h387l-543 -870v-584h-367v592z" />
    <glyph glyph-name="Zacute" unicode="&#x179;" horiz-adv-x="1486" 
d="M547 1575l211 332h358l-227 -332h-342zM96 0v199l731 956h-710v299h1220v-194l-733 -959h809v-301h-1317z" />
    <glyph glyph-name="zacute" unicode="&#x17a;" horiz-adv-x="1185" 
d="M406 1192l206 389h334l-221 -389h-319zM88 0v180l490 613h-482v268h963v-178l-498 -613h567v-270h-1040z" />
    <glyph glyph-name="Zdotaccent" unicode="&#x17b;" horiz-adv-x="1486" 
d="M551 1575v326h348v-326h-348zM96 0v199l731 956h-710v299h1220v-194l-733 -959h809v-301h-1317z" />
    <glyph glyph-name="zdotaccent" unicode="&#x17c;" horiz-adv-x="1185" 
d="M403 1198v328h349v-328h-349zM88 0v180l490 613h-482v268h963v-178l-498 -613h567v-270h-1040z" />
    <glyph glyph-name="Zcaron" unicode="&#x17d;" horiz-adv-x="1486" 
d="M289 1913h303l131 -158l131 158h305l-278 -340h-316zM96 0v199l731 956h-710v299h1220v-194l-733 -959h809v-301h-1317z" />
    <glyph glyph-name="zcaron" unicode="&#x17e;" horiz-adv-x="1185" 
d="M690 1597h283l-248 -405h-299l-256 405h289l116 -190zM88 0v180l490 613h-482v268h963v-178l-498 -613h567v-270h-1040z" />
    <glyph glyph-name="uni018F" unicode="&#x18f;" horiz-adv-x="1552" 
d="M109 721q0 83 6 113h979q-13 157 -96 251.5t-230 94.5q-121 0 -190.5 -53t-96.5 -126h-338q9 65 36.5 130t79.5 128.5t121.5 111.5t170 78t217.5 30q307 0 491.5 -206t184.5 -546q0 -343 -184.5 -547.5t-481.5 -204.5q-142 0 -265 52.5t-212.5 147.5t-140.5 236t-51 310z
M778 272q132 0 212 82.5t100 216.5h-623q20 -136 99.5 -217.5t211.5 -81.5z" />
    <glyph glyph-name="uni0192" unicode="&#x192;" horiz-adv-x="1185" 
d="M51 643v272h297l33 232q24 158 107.5 232.5t256.5 74.5h404v-264h-291q-78 0 -110 -28.5t-43 -100.5l-21 -146h311v-272h-352l-154 -1053h-331l151 1053h-258z" />
    <glyph glyph-name="Aringacute" unicode="&#x1fa;" horiz-adv-x="1568" 
d="M614 2185l201 301h352l-217 -301h-336zM774 1554q-125 0 -206 80t-81 201q0 122 80.5 201.5t206.5 79.5t207.5 -79.5t81.5 -201.5q0 -121 -82 -201t-207 -80zM774 1718q49 0 81 33t32 84t-31 83t-82 32t-81.5 -32t-30.5 -83t31.5 -84t80.5 -33zM1165 0l-94 252h-594
l-94 -252h-346l557 1456h379l561 -1456h-369zM586 543h377l-189 506z" />
    <glyph glyph-name="aringacute" unicode="&#x1fb;" horiz-adv-x="1288" 
d="M442 1800l183 326h331l-196 -326h-318zM596 1171q-124 0 -204.5 80t-80.5 199q0 122 80.5 201.5t204.5 79.5q126 0 206.5 -79.5t80.5 -201.5q0 -119 -81.5 -199t-205.5 -80zM596 1335q49 0 81 32.5t32 82.5q0 51 -31.5 83t-81.5 32t-81.5 -32t-31.5 -83q0 -50 32 -82.5
t81 -32.5zM819 139q-9 -20 -27.5 -43t-52 -52t-88.5 -48t-121 -19q-193 0 -315.5 149t-122.5 404t122.5 403t317.5 148q65 0 120 -18.5t87.5 -46.5t49.5 -49t26 -39v133h330v-1061h-326v139zM819 530q0 125 -51.5 197t-142.5 72q-93 0 -146 -72t-53 -197t53 -197.5
t146 -72.5q90 0 142 72.5t52 197.5z" />
    <glyph glyph-name="AEacute" unicode="&#x1fc;" horiz-adv-x="2170" 
d="M1231 1575l211 332h358l-227 -332h-342zM-14 0l788 1454h1256v-287h-697v-262h422v-293h-422v-311h764v-301h-1110v301h-465l-160 -301h-376zM676 592h311v584z" />
    <glyph glyph-name="aeacute" unicode="&#x1fd;" horiz-adv-x="1878" 
d="M784 1192l207 389h334l-221 -389h-320zM586 1087q121 0 215 -39t145 -104q49 64 136.5 103.5t197.5 39.5q238 0 378 -151t140 -406v-67h-708q8 -102 64.5 -163.5t148.5 -61.5q106 0 157 73h332q-6 -41 -24 -83.5t-56.5 -89t-91.5 -82.5t-135.5 -59.5t-181.5 -23.5
q-141 0 -253 53.5t-178 143.5q-109 -195 -376 -195q-190 0 -304 99.5t-114 259.5q0 157 106.5 243.5t294.5 86.5h283v8q0 72 -44.5 117t-125.5 45q-69 0 -107.5 -28.5t-48.5 -55.5h-336q3 33 17.5 73t51 88t88.5 86t138 64t191 26zM1280 848q-80 0 -128.5 -49t-59.5 -135
h376q-12 87 -61 135.5t-127 48.5zM573 209q81 0 135 46t54 120v80h-211q-65 0 -104 -29.5t-39 -83.5q0 -60 45 -96.5t120 -36.5z" />
    <glyph glyph-name="Oslashacute" unicode="&#x1fe;" horiz-adv-x="1603" 
d="M633 1575l211 332h358l-227 -332h-342zM53 0l199 250q-143 195 -143 477q0 172 52.5 314t145.5 237.5t220.5 148t275.5 52.5q193 0 356 -97l55 72h336l-198 -248q143 -195 143 -479q0 -170 -52.5 -312t-145 -238t-220 -149t-274.5 -53q-194 0 -361 99l-57 -74h-332z
M446 727q0 -116 25 -205l494 623q-70 31 -162 31q-166 0 -261.5 -126.5t-95.5 -322.5zM803 279q166 0 260 125t94 323q0 122 -24 207l-496 -623q65 -32 166 -32z" />
    <glyph glyph-name="oslashacute" unicode="&#x1ff;" horiz-adv-x="1253" 
d="M469 1192l207 389h334l-222 -389h-319zM47 0l154 180q-113 145 -113 350q0 248 151.5 402.5t389.5 154.5q150 0 280 -77l41 51h258l-153 -180q112 -144 112 -351q0 -245 -151.5 -401t-386.5 -156q-155 0 -285 80l-43 -53h-254zM391 530q0 -57 10 -112l326 389
q-51 14 -98 14q-111 0 -174.5 -83.5t-63.5 -207.5zM864 530q0 58 -10 113l-328 -389q46 -16 103 -16q110 0 172.5 83.5t62.5 208.5z" />
    <glyph glyph-name="uni0218" unicode="&#x218;" horiz-adv-x="1452" 
d="M678 1200q-99 0 -155 -36.5t-56 -98.5q0 -113 190 -139q33 -5 81 -11t65 -8q130 -16 224.5 -46t169 -83t112 -136t37.5 -198q0 -212 -156.5 -341.5t-437.5 -129.5q-133 0 -243.5 28.5t-183.5 73.5t-127.5 106t-83 120t-42.5 121h370q11 -28 33.5 -54t58.5 -52t93 -42
t125 -16q115 0 175 42t60 116q0 73 -52 108.5t-153 50.5q-30 4 -74 10.5t-73 10.5q-255 34 -388.5 141.5t-133.5 313.5q0 133 72 231.5t199.5 148.5t293.5 50q125 0 228.5 -25.5t171 -66t118 -95.5t76.5 -107t39 -108h-357q-30 49 -96.5 85t-179.5 36zM870 -655h-215
q73 132 93 231h-162v287h358v-213q0 -146 -74 -305z" />
    <glyph glyph-name="uni0219" unicode="&#x219;" horiz-adv-x="1153" 
d="M629 393q-79 10 -125 13q-418 44 -418 344q0 158 127 249t338 91q108 0 195 -21.5t139.5 -53.5t89 -75t52.5 -80t22 -74h-328q-58 68 -166 68q-66 0 -102.5 -24t-36.5 -64q0 -72 114 -84q4 0 49.5 -4.5t61.5 -5.5q225 -15 329.5 -100t104.5 -250t-124 -258t-361 -93
q-111 0 -202 23.5t-146.5 58.5t-95.5 80.5t-57.5 85t-22.5 76.5h337q8 -15 24 -31.5t60 -34.5t103 -18q73 0 113 23t40 65t-25.5 65t-88.5 29zM702 -655h-215q73 132 93 231h-162v287h358v-213q0 -146 -74 -305z" />
    <glyph glyph-name="uni021A" unicode="&#x21a;" horiz-adv-x="1484" 
d="M569 0v1151h-497v303h1341v-303h-498v-1151h-346zM856 -655h-215q71 129 92 231h-162v287h359v-213q0 -146 -74 -305z" />
    <glyph glyph-name="uni021B" unicode="&#x21b;" horiz-adv-x="1046" 
d="M301 336v448h-248v277h248v393h332v-393h321v-277h-321v-333q0 -85 34 -121.5t124 -36.5h163v-293h-297q-356 0 -356 336zM707 -655h-215q71 129 92 231h-162v287h358v-213q0 -148 -73 -305z" />
    <glyph glyph-name="uni0237" unicode="&#x237;" horiz-adv-x="622" 
d="M479 -61q0 -183 -81.5 -266t-250.5 -83h-358v256h215q77 0 109 32.5t32 105.5v1077h334v-1122z" />
    <glyph glyph-name="uni0259" unicode="&#x259;" horiz-adv-x="1218" 
d="M608 -27q-241 0 -381.5 150.5t-140.5 406.5v58h719q-6 106 -64 170.5t-155 64.5q-111 0 -166 -78h-328q5 42 23 85.5t56.5 90.5t92.5 83t138 59.5t184 23.5q252 0 398 -153t146 -404q0 -250 -143.5 -403.5t-378.5 -153.5zM608 213q81 0 131 47.5t62 130.5h-383
q14 -84 63.5 -131t126.5 -47z" />
    <glyph glyph-name="uni02BC" unicode="&#x2bc;" horiz-adv-x="673" 
d="M410 756h-228q127 219 140 387h-177v364h375v-317q0 -237 -110 -434z" />
    <glyph glyph-name="circumflex" unicode="&#x2c6;" 
d="M647 1190l-115 190l-116 -190h-289l256 405h299l248 -405h-283z" />
    <glyph glyph-name="caron" unicode="&#x2c7;" 
d="M643 1597h283l-248 -405h-299l-256 405h289l116 -190z" />
    <glyph glyph-name="breve" unicode="&#x2d8;" 
d="M614 1407q48 0 71.5 29.5t23.5 74.5v33h249v-39q0 -143 -86.5 -234t-257.5 -91t-257.5 91t-86.5 234v39h250v-33q0 -45 22.5 -74.5t71.5 -29.5z" />
    <glyph glyph-name="dotaccent" unicode="&#x2d9;" 
d="M440 1198v328h348v-328h-348z" />
    <glyph glyph-name="ring" unicode="&#x2da;" 
d="M614 1171q-124 0 -204 80t-80 199q0 122 80 201.5t204 79.5q126 0 206.5 -79.5t80.5 -201.5q0 -119 -81.5 -199t-205.5 -80zM614 1335q49 0 81 32.5t32 82.5q0 51 -31.5 83t-81.5 32t-81 -32t-31 -83q0 -50 31.5 -82.5t80.5 -32.5z" />
    <glyph glyph-name="ogonek" unicode="&#x2db;" 
d="M367 -227q0 35 13 67t40.5 62t50.5 49.5t61 48.5h334q-11 -9 -30.5 -24.5t-29 -24t-24 -21t-22 -20t-15.5 -17.5t-11 -18t-3 -16q0 -45 57 -45h121v-224h-293q-115 0 -182 47t-67 136z" />
    <glyph glyph-name="tilde" unicode="&#x2dc;" 
d="M481 1184h-221v184q0 92 45.5 145.5t132.5 53.5q43 0 80 -15.5t90 -48.5l56 -35q33 -22 53 -22q31 0 31 43v88h223v-186q0 -91 -46 -144t-132 -53q-46 0 -82.5 14.5t-87.5 46.5l-58 35q-38 23 -53 23q-31 0 -31 -43v-86z" />
    <glyph glyph-name="hungarumlaut" unicode="&#x2dd;" 
d="M604 1192l144 389h278l-154 -389h-268zM199 1192l143 389h279l-154 -389h-268z" />
    <glyph glyph-name="uni0401" unicode="&#x401;" horiz-adv-x="1449" 
d="M346 1575v323h328v-323h-328zM821 1575v323h328v-323h-328zM176 0v1454h1131v-287h-783v-262h461v-293h-461v-311h852v-301h-1200z" />
    <glyph glyph-name="uni0402" unicode="&#x402;" horiz-adv-x="1892" 
d="M541 0v1151h-469v303h1341v-303h-526v-299q135 33 276 33q279 0 432.5 -135t153.5 -398q0 -122 -39 -222t-115.5 -174t-198 -114.5t-278.5 -40.5v303q142 0 212.5 64t70.5 178q0 117 -65 177.5t-191 60.5q-62 0 -126.5 -9t-98.5 -19l-33 -9v-547h-346z" />
    <glyph glyph-name="uni0403" unicode="&#x403;" horiz-adv-x="1411" 
d="M571 1575l211 332h359l-228 -332h-342zM176 0v1454h1165v-303h-817v-1151h-348z" />
    <glyph glyph-name="uni0404" unicode="&#x404;" horiz-adv-x="1484" 
d="M780 -25q-300 0 -485.5 206.5t-185.5 545.5q0 338 185 545t486 207q102 0 191 -22.5t153 -62t114.5 -88.5t82 -105t49 -109.5t21.5 -104.5h-336q-11 29 -30 56.5t-51 56.5t-82.5 47t-111.5 18q-135 0 -213.5 -83t-97.5 -214h436v-278h-438q16 -130 98.5 -215.5
t214.5 -85.5q63 0 114 18t83 47.5t50.5 56t29.5 54.5h334q-5 -56 -26.5 -117t-69 -129t-114 -121t-171 -88t-230.5 -35z" />
    <glyph glyph-name="uni0405" unicode="&#x405;" horiz-adv-x="1452" 
d="M678 1200q-99 0 -155 -36.5t-56 -98.5q0 -113 190 -139q33 -5 81 -11t65 -8q130 -16 224.5 -46t169 -83t112 -136t37.5 -198q0 -212 -156.5 -341.5t-437.5 -129.5q-133 0 -243.5 28.5t-183.5 73.5t-127.5 106t-83 120t-42.5 121h370q11 -28 33.5 -54t58.5 -52t93 -42
t125 -16q115 0 175 42t60 116q0 73 -52 108.5t-153 50.5q-30 4 -74 10.5t-73 10.5q-255 34 -388.5 141.5t-133.5 313.5q0 133 72 231.5t199.5 148.5t293.5 50q125 0 228.5 -25.5t171 -66t118 -95.5t76.5 -107t39 -108h-357q-30 49 -96.5 85t-179.5 36z" />
    <glyph glyph-name="uni0406" unicode="&#x406;" horiz-adv-x="708" 
d="M180 0v1454h348v-1454h-348z" />
    <glyph glyph-name="uni0407" unicode="&#x407;" horiz-adv-x="706" 
d="M-49 1575v323h328v-323h-328zM426 1575v323h328v-323h-328zM180 0v1454h348v-1454h-348z" />
    <glyph glyph-name="uni0408" unicode="&#x408;" horiz-adv-x="1357" 
d="M1188 459q0 -226 -141.5 -357t-391.5 -131q-249 0 -381.5 130t-132.5 358v415h332v-387q0 -95 45.5 -150.5t136.5 -55.5q88 0 135.5 56t47.5 150v967h350v-995z" />
    <glyph glyph-name="uni0409" unicode="&#x409;" horiz-adv-x="2400" 
d="M639 604q-15 -163 -47 -275t-91 -192.5t-149.5 -117.5t-220.5 -37h-63v348h20q115 0 163.5 66t63.5 235l72 823h1032v-465h344q259 0 402 -128.5t143 -366.5q0 -241 -142 -367.5t-403 -126.5h-690v1149h-387zM1726 684h-307v-381h307q226 0 226 191q0 90 -57 140t-169 50
z" />
    <glyph glyph-name="uni040A" unicode="&#x40a;" horiz-adv-x="2435" 
d="M176 0v1454h348v-506h586v506h346v-506h342q259 0 402 -123.5t143 -351.5q0 -231 -142 -352t-403 -121h-688v641h-586v-641h-348zM1763 643h-307v-340h307q224 0 224 172q0 79 -56.5 123.5t-167.5 44.5z" />
    <glyph glyph-name="uni040B" unicode="&#x40b;" horiz-adv-x="1892" 
d="M541 0v1151h-469v303h1341v-303h-526v-299q145 33 305 33q273 0 415 -134.5t142 -433.5v-317h-348v315q0 143 -62.5 206t-193.5 63q-62 0 -126.5 -9t-98.5 -19l-33 -9v-547h-346z" />
    <glyph glyph-name="uni040C" unicode="&#x40c;" horiz-adv-x="1548" 
d="M559 1575l211 332h358l-227 -332h-342zM176 0v1454h348v-616l553 616h430l-624 -692l659 -762h-459l-559 639v-639h-348z" />
    <glyph glyph-name="uni040E" unicode="&#x40e;" horiz-adv-x="1509" 
d="M788 1788q51 0 77 30t26 74v21h252v-27q0 -143 -90 -234t-265 -91t-264.5 91t-89.5 234v27h252v-21q0 -44 25 -74t77 -30zM717 0h-373l268 498l-585 956h415l357 -608l327 608h379z" />
    <glyph glyph-name="uni040F" unicode="&#x40f;" horiz-adv-x="1638" 
d="M176 1454h348v-1149h590v1149h348v-1454h-485v-332h-313v332h-488v1454z" />
    <glyph glyph-name="uni0410" unicode="&#x410;" horiz-adv-x="1568" 
d="M1165 0l-94 252h-594l-94 -252h-346l557 1456h379l561 -1456h-369zM586 543h377l-189 506z" />
    <glyph glyph-name="uni0411" unicode="&#x411;" horiz-adv-x="1513" 
d="M872 909q256 0 398.5 -115.5t142.5 -328.5q0 -226 -141.5 -345.5t-399.5 -119.5h-696v1454h1110v-303h-762v-242h348zM836 629h-312v-326h312q219 0 219 162q0 77 -54.5 120.5t-164.5 43.5z" />
    <glyph glyph-name="uni0412" unicode="&#x412;" horiz-adv-x="1564" 
d="M176 0v1454h778q223 0 345 -105.5t122 -283.5q0 -115 -67 -193t-160 -104q113 -30 188.5 -120.5t75.5 -231.5q0 -193 -131.5 -304.5t-378.5 -111.5h-772zM897 1174h-379v-287h379q80 0 125 36.5t45 106.5q0 73 -44.5 108.5t-125.5 35.5zM887 606h-369v-325h369
q217 0 217 165q0 77 -55.5 118.5t-161.5 41.5z" />
    <glyph glyph-name="uni0413" unicode="&#x413;" horiz-adv-x="1411" 
d="M176 0v1454h1165v-303h-817v-1151h-348z" />
    <glyph glyph-name="uni0414" unicode="&#x414;" horiz-adv-x="1644" 
d="M334 1454h1085v-1149h211v-637h-313v332h-989v-332h-314v637h154q78 134 106 459zM1071 305v844h-438l-35 -399q-28 -314 -92 -445h565z" />
    <glyph glyph-name="uni0415" unicode="&#x415;" horiz-adv-x="1449" 
d="M176 0v1454h1131v-287h-783v-262h461v-293h-461v-311h852v-301h-1200z" />
    <glyph glyph-name="uni0416" unicode="&#x416;" horiz-adv-x="2193" 
d="M6 0l592 750l-580 704h410l494 -608v608h333v-610l496 610h401l-567 -692l602 -762h-432l-500 633v-633h-333v631l-498 -631h-418z" />
    <glyph glyph-name="uni0417" unicode="&#x417;" horiz-adv-x="1484" 
d="M756 1479q288 0 439 -110t151 -296q0 -123 -68 -204t-164 -109q112 -29 188 -112.5t76 -209.5q0 -219 -166 -341t-462 -122q-152 0 -278 44t-205 115t-123.5 155t-49.5 170h338q70 -176 320 -176q127 0 198.5 44.5t71.5 131.5q0 67 -52.5 104t-156.5 37h-192v281h186
q184 0 184 141q0 149 -241 149q-126 0 -199.5 -42.5t-104.5 -106.5h-344q13 89 61.5 169.5t128 145.5t200 103.5t264.5 38.5z" />
    <glyph glyph-name="uni0418" unicode="&#x418;" horiz-adv-x="1679" 
d="M176 0v1454h348v-940l631 940h348v-1454h-348v938l-631 -938h-348z" />
    <glyph glyph-name="uni0419" unicode="&#x419;" horiz-adv-x="1679" 
d="M840 1788q51 0 76.5 30t25.5 74v21h252v-27q0 -143 -89.5 -234t-264.5 -91t-265 91t-90 234v27h252v-21q0 -44 25.5 -74t77.5 -30zM176 0v1454h348v-940l631 940h348v-1454h-348v938l-631 -938h-348z" />
    <glyph glyph-name="uni041A" unicode="&#x41a;" horiz-adv-x="1548" 
d="M176 0v1454h348v-616l553 616h430l-624 -692l659 -762h-459l-559 639v-639h-348z" />
    <glyph glyph-name="uni041B" unicode="&#x41b;" horiz-adv-x="1638" 
d="M639 604q-15 -163 -47 -275t-91 -192.5t-149.5 -117.5t-220.5 -37h-63v348h20q115 0 163.5 66t63.5 235l72 823h1075v-1454h-348v1149h-428z" />
    <glyph glyph-name="uni041C" unicode="&#x41c;" horiz-adv-x="1974" 
d="M176 0v1454h520l301 -887l299 887h500v-1454h-336v1083l-366 -1085h-232l-364 1075v-1073h-322z" />
    <glyph glyph-name="uni041D" unicode="&#x41d;" horiz-adv-x="1658" 
d="M176 0v1454h348v-571h611v571h348v-1454h-348v575h-611v-575h-348z" />
    <glyph glyph-name="uni041E" unicode="&#x41e;" horiz-adv-x="1603" 
d="M803 -25q-199 0 -356 90.5t-247.5 262.5t-90.5 399q0 172 52.5 314t145.5 237.5t220.5 148t275.5 52.5t275 -52.5t219.5 -148t145 -237.5t52.5 -314q0 -170 -52.5 -312t-145 -238t-220 -149t-274.5 -53zM803 287q159 0 249.5 123t90.5 317q0 193 -90.5 316.5
t-249.5 123.5t-249.5 -123.5t-90.5 -316.5q0 -195 90 -317.5t250 -122.5z" />
    <glyph glyph-name="uni041F" unicode="&#x41f;" horiz-adv-x="1638" 
d="M176 0v1454h1286v-1454h-348v1149h-590v-1149h-348z" />
    <glyph glyph-name="uni0420" unicode="&#x420;" horiz-adv-x="1527" 
d="M176 0v1454h737q250 0 386.5 -119t136.5 -346q0 -225 -137 -347t-386 -122h-391v-520h-346zM879 1151h-357v-328h357q99 0 149.5 43.5t50.5 120.5q0 164 -200 164z" />
    <glyph glyph-name="uni0421" unicode="&#x421;" horiz-adv-x="1484" 
d="M780 -25q-300 0 -485.5 206.5t-185.5 545.5q0 222 83.5 393t236.5 265t351 94q121 0 223.5 -32.5t170 -84t116.5 -118t72.5 -131t28.5 -126.5h-336q-10 28 -29 56t-51 57t-83 47t-112 18q-99 0 -170.5 -58t-107 -156t-35.5 -224t35.5 -224t107 -156t170.5 -58
q63 0 114.5 18t83 47t50.5 56.5t29 56.5h334q-5 -56 -26 -117.5t-69 -129.5t-114.5 -121.5t-171 -88.5t-230.5 -35z" />
    <glyph glyph-name="uni0422" unicode="&#x422;" horiz-adv-x="1484" 
d="M569 0v1151h-497v303h1341v-303h-498v-1151h-346z" />
    <glyph glyph-name="uni0423" unicode="&#x423;" horiz-adv-x="1509" 
d="M717 0h-373l268 498l-585 956h415l357 -608l327 608h379z" />
    <glyph glyph-name="uni0424" unicode="&#x424;" horiz-adv-x="2150" 
d="M655 233q-269 0 -416 133t-147 377q0 247 146 378.5t415 131.5h248v222h348v-222h248q269 0 415 -131.5t146 -378.5q0 -244 -147 -377t-416 -133h-246v-253h-348v253h-246zM901 537v413h-213q-237 0 -237 -207q0 -96 60.5 -151t176.5 -55h213zM1462 950h-213v-413h213
q116 0 177 55t61 151q0 207 -238 207z" />
    <glyph glyph-name="uni0425" unicode="&#x425;" horiz-adv-x="1622" 
d="M434 0h-411l575 741l-549 713h453l319 -424l330 424h416l-541 -694l573 -760h-432l-364 473z" />
    <glyph glyph-name="uni0426" unicode="&#x426;" horiz-adv-x="1687" 
d="M1114 305v1149h348v-1149h211v-637h-313v332h-1184v1454h348v-1149h590z" />
    <glyph glyph-name="uni0427" unicode="&#x427;" horiz-adv-x="1585" 
d="M1059 0v526q-160 -32 -332 -32q-288 0 -436 133.5t-148 433.5v393h349v-391q0 -143 67 -204.5t205 -61.5q70 0 144 8.5t112 16.5l39 9v623h348v-1454h-348z" />
    <glyph glyph-name="uni0428" unicode="&#x428;" horiz-adv-x="2236" 
d="M176 1454h348v-1149h420v1149h348v-1149h418v1149h348v-1454h-1882v1454z" />
    <glyph glyph-name="uni0429" unicode="&#x429;" horiz-adv-x="2283" 
d="M176 1454h348v-1149h420v1149h348v-1149h418v1149h348v-1149h211v-637h-313v332h-1780v1454z" />
    <glyph glyph-name="uni042A" unicode="&#x42a;" horiz-adv-x="1781" 
d="M70 1151v303h731v-465h342q260 0 403.5 -128.5t143.5 -366.5q0 -241 -143 -367.5t-404 -126.5h-690v1151h-383zM1108 684h-307v-381h307q223 0 223 191q0 90 -56 140t-167 50z" />
    <glyph glyph-name="uni042B" unicode="&#x42b;" horiz-adv-x="2093" 
d="M866 989q260 0 403.5 -128.5t143.5 -366.5q0 -241 -143 -367.5t-404 -126.5h-690v1454h348v-465h342zM1569 0v1454h348v-1454h-348zM831 684h-307v-381h307q224 0 224 191q0 90 -56.5 140t-167.5 50z" />
    <glyph glyph-name="uni042C" unicode="&#x42c;" horiz-adv-x="1505" 
d="M866 989q260 0 403.5 -128.5t143.5 -366.5q0 -241 -143 -367.5t-404 -126.5h-690v1454h348v-465h342zM831 684h-307v-381h307q224 0 224 191q0 90 -56.5 140t-167.5 50z" />
    <glyph glyph-name="uni042D" unicode="&#x42d;" horiz-adv-x="1484" 
d="M705 -25q-126 0 -231.5 35t-172 88.5t-114 121.5t-68.5 129.5t-25 117.5h334q10 -29 29 -56.5t50.5 -56.5t83 -47t114.5 -18q132 0 213.5 85t97.5 216h-438v278h438q-18 132 -96.5 214.5t-204.5 82.5q-63 0 -115 -17t-85.5 -45t-54.5 -56.5t-32 -59.5h-334
q6 62 30.5 126.5t74.5 131t118.5 118t172 84t225.5 32.5q298 0 479.5 -204.5t181.5 -547.5q0 -339 -185.5 -545.5t-485.5 -206.5z" />
    <glyph glyph-name="uni042E" unicode="&#x42e;" horiz-adv-x="2144" 
d="M176 0v1454h348v-571h164q28 184 121.5 320t234 206t312.5 70q145 0 270 -52.5t216 -148t142.5 -237.5t51.5 -314q0 -227 -89 -399t-243 -262.5t-348 -90.5q-262 0 -445 161t-225 439h-162v-575h-348zM1356 287q153 0 239 122.5t86 317.5q0 194 -86.5 317t-238.5 123
q-153 0 -239.5 -123.5t-86.5 -316.5q0 -195 86.5 -317.5t239.5 -122.5z" />
    <glyph glyph-name="uni042F" unicode="&#x42f;" horiz-adv-x="1589" 
d="M459 0h-375l338 575q-129 50 -197.5 154t-68.5 252q0 231 137.5 352t386.5 121h733v-1454h-348v516h-305zM717 807h348v348h-348q-205 0 -205 -174q0 -85 52.5 -129.5t152.5 -44.5z" />
    <glyph glyph-name="uni0430" unicode="&#x430;" horiz-adv-x="1288" 
d="M819 139q-9 -20 -27.5 -43t-52 -52t-88.5 -48t-121 -19q-193 0 -315.5 149t-122.5 404t122.5 403t317.5 148q65 0 120 -18.5t87.5 -46.5t49.5 -49t26 -39v133h330v-1061h-326v139zM819 530q0 125 -51.5 197t-142.5 72q-93 0 -146 -72t-53 -197t53 -197.5t146 -72.5
q90 0 142 72.5t52 197.5z" />
    <glyph glyph-name="uni0431" unicode="&#x431;" horiz-adv-x="1269" 
d="M102 580q0 144 9 247q12 144 48 246.5t107 181.5t183.5 128.5t275.5 76.5l371 62v-283l-367 -61q-172 -29 -246 -97.5t-96 -218.5q101 156 324 156q217 0 344 -142t127 -372q0 -240 -150.5 -385.5t-390.5 -145.5q-251 0 -395 157.5t-144 449.5zM641 256q99 0 153 67
t54 173t-54 172.5t-153 66.5q-98 0 -151.5 -67t-53.5 -172q0 -106 53.5 -173t151.5 -67z" />
    <glyph glyph-name="uni0432" unicode="&#x432;" horiz-adv-x="1247" 
d="M143 0v1061h625q166 0 262 -76t96 -207q0 -90 -47 -149t-114 -80q81 -22 134.5 -85.5t53.5 -162.5q0 -138 -100 -219.5t-281 -81.5h-629zM678 829h-203v-186h203q55 0 87 23t32 69t-32 70t-87 24zM694 426h-219v-195h217q127 0 127 103q0 43 -32 67.5t-93 24.5z" />
    <glyph glyph-name="uni0433" unicode="&#x433;" horiz-adv-x="989" 
d="M143 0v1061h785v-277h-453v-784h-332z" />
    <glyph glyph-name="uni0434" unicode="&#x434;" horiz-adv-x="1314" 
d="M322 -305h-297v581h104q89 151 107 445l24 340h862v-785h178v-581h-296v305h-682v-305zM791 276v508h-250l-6 -77q-12 -167 -32 -264.5t-57 -166.5h345z" />
    <glyph glyph-name="uni0435" unicode="&#x435;" horiz-adv-x="1212" 
d="M610 1087q241 0 382 -150.5t141 -406.5v-57h-719q6 -106 64 -170.5t155 -64.5q112 0 166 77h327q-5 -42 -23 -85.5t-56.5 -90.5t-92.5 -83t-137.5 -59.5t-183.5 -23.5q-252 0 -398.5 153t-146.5 404q0 250 143.5 403.5t378.5 153.5zM610 848q-80 0 -130 -47.5t-62 -130.5
h383q-14 84 -64 131t-127 47z" />
    <glyph glyph-name="uni0436" unicode="&#x436;" horiz-adv-x="1765" 
d="M715 0v457l-332 -457h-401l413 555l-370 506h381l309 -428v428h334v-428l307 428h383l-371 -504l416 -557h-404l-331 457v-457h-334z" />
    <glyph glyph-name="uni0437" unicode="&#x437;" horiz-adv-x="1204" 
d="M604 221q174 0 174 111q0 44 -33 68t-94 24h-166v219h152q117 0 117 94q0 49 -37 76t-103 27q-81 0 -127.5 -33.5t-74.5 -89.5h-322q11 73 48.5 137.5t100 117.5t159.5 84t216 31q230 0 349.5 -85t119.5 -232q0 -88 -46.5 -145t-114.5 -78q82 -22 136 -81t54 -149
q0 -160 -134 -252t-374 -92q-126 0 -227 33t-164.5 89.5t-99 124t-41.5 142.5h317q20 -60 73 -100.5t142 -40.5z" />
    <glyph glyph-name="uni0438" unicode="&#x438;" horiz-adv-x="1320" 
d="M143 0v1061h326v-592l383 592h328v-1061h-328v594l-383 -594h-326z" />
    <glyph glyph-name="uni0439" unicode="&#x439;" horiz-adv-x="1320" 
d="M662 1409q48 0 71 29.5t23 74.5v33h250v-39q0 -143 -86.5 -234t-257.5 -91t-258 91t-87 234v39h250v-33q0 -44 23 -74t72 -30zM143 0v1061h326v-592l383 592h328v-1061h-328v594l-383 -594h-326z" />
    <glyph glyph-name="uni043A" unicode="&#x43a;" horiz-adv-x="1247" 
d="M143 0v1061h332v-430l350 430h396l-412 -502l459 -559h-420l-373 459v-459h-332z" />
    <glyph glyph-name="uni043B" unicode="&#x43b;" horiz-adv-x="1263" 
d="M221 492l41 569h858v-1061h-332v784h-241l-23 -331q-9 -122 -31 -203.5t-66 -140.5t-115 -86t-175 -27h-82v303h25q78 0 105 37.5t36 155.5z" />
    <glyph glyph-name="uni043C" unicode="&#x43c;" horiz-adv-x="1652" 
d="M143 0v1061h490l201 -557l196 557h479v-1061h-323v748l-260 -748h-215l-262 741v-741h-306z" />
    <glyph glyph-name="uni043D" unicode="&#x43d;" horiz-adv-x="1300" 
d="M143 0v1061h332v-379h352v379h332v-1061h-332v406h-352v-406h-332z" />
    <glyph glyph-name="uni043E" unicode="&#x43e;" horiz-adv-x="1253" 
d="M627 1087q239 0 389.5 -153t150.5 -404q0 -250 -151 -403.5t-389 -153.5t-388.5 153.5t-150.5 403.5q0 251 150.5 404t388.5 153zM627 254q100 0 153.5 76.5t53.5 199.5q0 122 -54 198.5t-153 76.5q-98 0 -152.5 -77t-54.5 -198q0 -123 53.5 -199.5t153.5 -76.5z" />
    <glyph glyph-name="uni043F" unicode="&#x43f;" horiz-adv-x="1288" 
d="M143 0v1061h1002v-1061h-332v784h-338v-784h-332z" />
    <glyph glyph-name="uni0440" unicode="&#x440;" horiz-adv-x="1308" 
d="M473 143v-553h-330v1471h330v-154q7 18 26.5 42.5t55.5 57t95.5 54.5t129.5 22q193 0 316 -147t123 -406t-123 -406t-316 -147q-57 0 -107.5 14.5t-82.5 34t-59 45t-38.5 42t-19.5 30.5zM469 530q0 -122 56 -196t151 -74q96 0 151.5 73.5t55.5 196.5t-55.5 197t-151.5 74
q-95 0 -151 -74.5t-56 -196.5z" />
    <glyph glyph-name="uni0441" unicode="&#x441;" horiz-adv-x="1155" 
d="M766 700q-42 101 -160 101q-85 0 -134.5 -75t-49.5 -196t50 -196.5t136 -75.5q113 0 158 102h317q-3 -47 -20 -97t-55 -102.5t-91 -93.5t-135.5 -67.5t-181.5 -26.5q-224 0 -368 153t-144 404q0 249 143.5 403t364.5 154q98 0 180 -26t135.5 -66.5t92.5 -93t57 -103
t22 -98.5h-317z" />
    <glyph glyph-name="uni0442" unicode="&#x442;" horiz-adv-x="1122" 
d="M395 0v784h-334v277h1000v-277h-334v-784h-332z" />
    <glyph glyph-name="uni0443" unicode="&#x443;" horiz-adv-x="1179" 
d="M289 -410l157 414l-436 1057h373l227 -615l226 615h333l-546 -1471h-334z" />
    <glyph glyph-name="uni0444" unicode="&#x444;" horiz-adv-x="1652" 
d="M659 -410v385q-256 17 -414.5 169t-158.5 386q0 236 158.5 387t414.5 168v422h334v-422q255 -15 413.5 -167t158.5 -388q0 -235 -158.5 -387.5t-413.5 -167.5v-385h-334zM1231 530q0 108 -61.5 182t-176.5 89v-541q115 15 176.5 88.5t61.5 181.5zM420 530
q0 -107 61.5 -180t177.5 -90v541q-115 -17 -177 -90.5t-62 -180.5z" />
    <glyph glyph-name="uni0445" unicode="&#x445;" horiz-adv-x="1251" 
d="M383 0h-375l422 524l-418 537h424l207 -273l219 273h377l-414 -512l416 -549h-403l-224 287z" />
    <glyph glyph-name="uni0446" unicode="&#x446;" horiz-adv-x="1335" 
d="M813 276v785h332v-785h178v-581h-299v305h-881v1061h332v-785h338z" />
    <glyph glyph-name="uni0447" unicode="&#x447;" horiz-adv-x="1249" 
d="M776 0v348q-92 -18 -221 -18q-221 0 -330.5 104t-109.5 340v287h331v-277q0 -97 36 -138.5t130 -41.5q44 0 85 3.5t60 6.5l19 4v443h332v-1061h-332z" />
    <glyph glyph-name="uni0448" unicode="&#x448;" horiz-adv-x="1824" 
d="M143 1061h332v-785h270v785h332v-785h273v785h331v-1061h-1538v1061z" />
    <glyph glyph-name="uni0449" unicode="&#x449;" horiz-adv-x="1871" 
d="M143 1061h332v-785h270v785h332v-785h273v785h331v-785h179v-581h-299v305h-1418v1061z" />
    <glyph glyph-name="uni044A" unicode="&#x44a;" horiz-adv-x="1380" 
d="M53 1061h600v-320h244q112 0 195.5 -27.5t132.5 -78t72.5 -115.5t23.5 -145q0 -75 -23.5 -140.5t-72 -119t-132.5 -84.5t-194 -31h-577v784h-269v277zM842 487h-189v-233h189q143 0 143 121q0 53 -37 82.5t-106 29.5z" />
    <glyph glyph-name="uni044B" unicode="&#x44b;" horiz-adv-x="1728" 
d="M719 741q112 0 195.5 -27.5t132.5 -78t72.5 -115.5t23.5 -145q0 -75 -23.5 -140.5t-72 -119t-132.5 -84.5t-194 -31h-578v1061h332v-320h244zM1251 0v1061h334v-1061h-334zM664 487h-189v-233h189q143 0 143 121q0 53 -37 82.5t-106 29.5z" />
    <glyph glyph-name="uni044C" unicode="&#x44c;" horiz-adv-x="1204" 
d="M719 741q112 0 195.5 -27.5t132.5 -78t72.5 -115.5t23.5 -145q0 -75 -23.5 -140.5t-72 -119t-132.5 -84.5t-194 -31h-578v1061h332v-320h244zM664 487h-189v-233h189q143 0 143 121q0 53 -37 82.5t-106 29.5z" />
    <glyph glyph-name="uni044D" unicode="&#x44d;" horiz-adv-x="1167" 
d="M389 334q6 -16 16 -31.5t29 -34.5t52 -31t75 -12q83 0 131 54.5t58 138.5h-301v233h301q-11 82 -59.5 134.5t-127.5 52.5q-74 0 -117 -34t-57 -75h-317q5 45 24.5 92t59 96t93.5 87t136 62t178 24q233 0 375.5 -151t142.5 -402q0 -254 -146 -409t-374 -155
q-95 0 -174.5 23t-132.5 59t-92.5 84.5t-60 96.5t-29.5 98h317z" />
    <glyph glyph-name="uni044E" unicode="&#x44e;" horiz-adv-x="1740" 
d="M143 0v1061h332v-379h131q41 187 180 296t336 109q235 0 384 -153t149 -404q0 -250 -149 -403.5t-384 -153.5q-202 0 -343.5 117.5t-178.5 315.5h-125v-406h-332zM1122 256q95 0 147 75.5t52 198.5q0 122 -52 198.5t-147 76.5q-94 0 -146 -77t-52 -198
q0 -123 51.5 -198.5t146.5 -75.5z" />
    <glyph glyph-name="uni044F" unicode="&#x44f;" horiz-adv-x="1265" 
d="M1122 0h-331v332h-134l-206 -332h-373l252 389q-213 74 -213 307q0 73 23 136t69.5 115.5t127 83t187.5 30.5h598v-1061zM584 586h207v221h-207q-131 0 -131 -111q0 -53 33.5 -81.5t97.5 -28.5z" />
    <glyph glyph-name="uni0451" unicode="&#x451;" horiz-adv-x="1212" 
d="M215 1198v324h326v-324h-326zM680 1198v324h326v-324h-326zM610 1087q241 0 382 -150.5t141 -406.5v-57h-719q6 -106 64 -170.5t155 -64.5q112 0 166 77h327q-5 -42 -23 -85.5t-56.5 -90.5t-92.5 -83t-137.5 -59.5t-183.5 -23.5q-252 0 -398.5 153t-146.5 404
q0 250 143.5 403.5t378.5 153.5zM610 848q-80 0 -130 -47.5t-62 -130.5h383q-14 84 -64 131t-127 47z" />
    <glyph glyph-name="uni0452" unicode="&#x452;" horiz-adv-x="1304" 
d="M143 0v1167h-143v217h143v123h332v-123h328v-217h-328v-239q37 60 115 107.5t188 47.5q178 0 284.5 -118t106.5 -314v-712q0 -183 -80.5 -266t-248.5 -83h-301v256h157q77 0 109.5 32.5t32.5 105.5v606q0 95 -48 149t-133 54q-86 0 -134 -54.5t-48 -148.5v-590h-332z" />
    <glyph glyph-name="uni0453" unicode="&#x453;" horiz-adv-x="989" 
d="M377 1192l207 389h334l-222 -389h-319zM143 0v1061h785v-277h-453v-784h-332z" />
    <glyph glyph-name="uni0454" unicode="&#x454;" horiz-adv-x="1167" 
d="M780 334h318q-5 -43 -24 -89.5t-58 -96t-92.5 -87.5t-136 -63t-179.5 -25q-228 0 -375 154t-147 403q0 252 147.5 406t378.5 154q97 0 178.5 -23.5t135.5 -60.5t93 -85.5t57.5 -96.5t21.5 -95h-320q-11 37 -52 73t-114 36q-82 0 -132.5 -53.5t-61.5 -133.5h301v-233h-301
q8 -83 57 -138t133 -55q119 0 172 109z" />
    <glyph glyph-name="uni0455" unicode="&#x455;" horiz-adv-x="1153" 
d="M629 393q-79 10 -125 13q-418 44 -418 344q0 158 127 249t338 91q108 0 195 -21.5t139.5 -53.5t89 -75t52.5 -80t22 -74h-328q-58 68 -166 68q-66 0 -102.5 -24t-36.5 -64q0 -72 114 -84q4 0 49.5 -4.5t61.5 -5.5q225 -15 329.5 -100t104.5 -250t-124 -258t-361 -93
q-111 0 -202 23.5t-146.5 58.5t-95.5 80.5t-57.5 85t-22.5 76.5h337q8 -15 24 -31.5t60 -34.5t103 -18q73 0 113 23t40 65t-25.5 65t-88.5 29z" />
    <glyph glyph-name="uni0456" unicode="&#x456;" horiz-adv-x="620" 
d="M137 1198v328h346v-328h-346zM143 0v1061h334v-1061h-334z" />
    <glyph glyph-name="uni0457" unicode="&#x457;" horiz-adv-x="620" 
d="M29 1198v328h243v-328h-243zM348 1198v328h244v-328h-244zM143 0v1061h334v-1061h-334z" />
    <glyph glyph-name="uni0458" unicode="&#x458;" horiz-adv-x="624" 
d="M141 1198v328h346v-328h-346zM481 -61q0 -183 -81 -266t-250 -83h-359v256h215q77 0 109 32.5t32 105.5v1077h334v-1122z" />
    <glyph glyph-name="uni0459" unicode="&#x459;" horiz-adv-x="1808" 
d="M221 492l41 569h832v-320h231q218 0 320 -99.5t102 -266.5q0 -75 -23.5 -140.5t-71.5 -119t-131.5 -84.5t-193.5 -31h-565v784h-215l-23 -331q-9 -122 -31 -203.5t-66 -140.5t-115 -86t-175 -27h-82v303h25q78 0 105 37.5t36 155.5zM1268 487h-174v-233h174
q145 0 145 121q0 53 -37.5 82.5t-107.5 29.5z" />
    <glyph glyph-name="uni045A" unicode="&#x45a;" horiz-adv-x="1837" 
d="M143 0v1061h332v-328h352v328h332v-328h238q214 0 314.5 -98.5t100.5 -263.5q0 -74 -23 -138.5t-70.5 -117.5t-129.5 -84t-190 -31h-572v457h-352v-457h-332zM1339 479h-180v-225h180q138 0 138 117q0 51 -35.5 79.5t-102.5 28.5z" />
    <glyph glyph-name="uni045B" unicode="&#x45b;" horiz-adv-x="1304" 
d="M143 0v1167h-143v217h143v123h330v-123h330v-217h-330v-245q36 61 114 111t189 50q179 0 286 -119.5t107 -316.5v-647h-331v586q0 97 -48 152t-133 55q-86 0 -135 -55.5t-49 -151.5v-586h-330z" />
    <glyph glyph-name="uni045C" unicode="&#x45c;" horiz-adv-x="1247" 
d="M477 1192l207 389h334l-221 -389h-320zM143 0v1061h332v-430l350 430h396l-412 -502l459 -559h-420l-373 459v-459h-332z" />
    <glyph glyph-name="uni045E" unicode="&#x45e;" horiz-adv-x="1179" 
d="M610 1419q48 0 71.5 30t23.5 75v32h249v-38q0 -143 -86.5 -234.5t-257.5 -91.5t-257.5 91.5t-86.5 234.5v38h250v-32q0 -45 22.5 -75t71.5 -30zM289 -410l157 414l-436 1057h373l227 -615l226 615h333l-546 -1471h-334z" />
    <glyph glyph-name="uni045F" unicode="&#x45f;" horiz-adv-x="1288" 
d="M496 -305v305h-353v1061h332v-785h338v785h332v-1061h-352v-305h-297z" />
    <glyph glyph-name="uni0490" unicode="&#x490;" horiz-adv-x="1411" 
d="M176 0v1454h852v346h313v-649h-817v-1151h-348z" />
    <glyph glyph-name="uni0491" unicode="&#x491;" horiz-adv-x="989" 
d="M143 0v1061h488v305h297v-582h-453v-784h-332z" />
    <glyph glyph-name="uni0492" unicode="&#x492;" horiz-adv-x="1458" 
d="M221 0v578h-194v286h194v590h1165v-303h-817v-287h412v-286h-412v-578h-348z" />
    <glyph glyph-name="uni0493" unicode="&#x493;" horiz-adv-x="995" 
d="M150 0v336h-125v270h125v455h784v-277h-453v-178h267v-270h-267v-336h-331z" />
    <glyph glyph-name="uni0496" unicode="&#x496;" horiz-adv-x="2197" 
d="M6 0l594 752l-577 702h409l494 -608v608h334v-610l495 610h402l-568 -692l361 -457h241v-637h-313v332h-119l-499 633v-633h-334v631l-498 -631h-422z" />
    <glyph glyph-name="uni0497" unicode="&#x497;" horiz-adv-x="1765" 
d="M715 0v457l-332 -457h-401l411 553l-373 508h386l309 -428v428h334v-428l307 428h385l-371 -506l207 -279h227v-581h-297v305h-127l-331 457v-457h-334z" />
    <glyph glyph-name="uni0498" unicode="&#x498;" horiz-adv-x="1484" 
d="M756 1479q288 0 439 -110t151 -296q0 -123 -68 -204t-164 -109q112 -29 188 -112.5t76 -209.5q0 -185 -120 -301.5t-340 -148.5v-320h-314v318q-119 19 -216 68t-158.5 115t-96 140t-39.5 150h338q70 -176 320 -176q127 0 198.5 44.5t71.5 131.5q0 67 -52.5 104
t-156.5 37h-192v281h186q184 0 184 141q0 149 -241 149q-126 0 -199.5 -42.5t-104.5 -106.5h-344q13 89 61.5 169.5t128 145.5t200 103.5t264.5 38.5z" />
    <glyph glyph-name="uni0499" unicode="&#x499;" horiz-adv-x="1204" 
d="M465 -305v291q-180 32 -281 137.5t-112 238.5h317q20 -60 73 -100.5t142 -40.5q174 0 174 111q0 44 -33 68t-94 24h-166v219h152q117 0 117 94q0 49 -37 76t-103 27q-81 0 -127.5 -33.5t-74.5 -89.5h-322q11 73 48.5 137.5t100 117.5t159.5 84t216 31q230 0 349.5 -85
t119.5 -232q0 -88 -46.5 -145t-114.5 -78q82 -22 136 -81t54 -149q0 -130 -91.5 -216.5t-258.5 -114.5v-291h-297z" />
    <glyph glyph-name="uni049A" unicode="&#x49a;" horiz-adv-x="1548" 
d="M176 0v1454h348v-616l553 616h430l-624 -692l395 -457h276v-637h-313v332h-158l-559 639v-639h-348z" />
    <glyph glyph-name="uni049B" unicode="&#x49b;" horiz-adv-x="1247" 
d="M143 0v1061h332v-430l350 430h398l-414 -504l231 -281h246v-581h-297v305h-141l-373 459v-459h-332z" />
    <glyph glyph-name="uni049C" unicode="&#x49c;" horiz-adv-x="1667" 
d="M176 0v1454h348v-1454h-348zM899 313h-266v832h266v-289l371 598h356l-430 -682l465 -772h-387l-375 621v-308z" />
    <glyph glyph-name="uni049D" unicode="&#x49d;" horiz-adv-x="1413" 
d="M760 195h-211v692h211v-234l268 408h358l-337 -500l383 -561h-381l-291 436v-241zM143 0v1061h332v-1061h-332z" />
    <glyph glyph-name="uni04A0" unicode="&#x4a0;" horiz-adv-x="2025" 
d="M653 0v1151h-583v303h931v-616l553 616h431l-625 -692l659 -762h-458l-560 639v-639h-348z" />
    <glyph glyph-name="uni04A1" unicode="&#x4a1;" horiz-adv-x="1503" 
d="M399 0v784h-338v277h670v-430l350 430h396l-412 -502l459 -559h-418l-375 459v-459h-332z" />
    <glyph glyph-name="uni04A2" unicode="&#x4a2;" horiz-adv-x="1708" 
d="M176 0v1454h348v-571h611v571h348v-1149h211v-637h-314v332h-245v575h-611v-575h-348z" />
    <glyph glyph-name="uni04A3" unicode="&#x4a3;" horiz-adv-x="1349" 
d="M143 0v1061h332v-379h352v379h332v-785h176v-581h-297v305h-211v406h-352v-406h-332z" />
    <glyph glyph-name="uni04AA" unicode="&#x4aa;" horiz-adv-x="1484" 
d="M1391 467q-4 -47 -20 -98t-50 -109.5t-81 -108.5t-119.5 -92t-159.5 -63v-328h-316v320q-245 45 -390.5 243.5t-145.5 495.5q0 222 83.5 393t236.5 265t351 94q121 0 223.5 -32.5t170 -84t116.5 -118t72.5 -131t28.5 -126.5h-336q-10 28 -29 56t-51 57t-83 47t-112 18
q-99 0 -170.5 -58t-107 -156t-35.5 -224t35.5 -224t107 -156t170.5 -58q63 0 114.5 18t83 47t50.5 56.5t29 56.5h334z" />
    <glyph glyph-name="uni04AB" unicode="&#x4ab;" horiz-adv-x="1155" 
d="M467 -305v295q-172 42 -275.5 186t-103.5 354q0 249 143.5 403t364.5 154q98 0 180 -26t135.5 -66.5t92.5 -93t57 -103t22 -98.5h-317q-42 101 -160 101q-85 0 -134.5 -75t-49.5 -196t50 -196.5t136 -75.5q113 0 158 102h317q-3 -48 -22.5 -100t-55.5 -104t-98 -96
t-141 -66v-299h-299z" />
    <glyph glyph-name="uni04AE" unicode="&#x4ae;" horiz-adv-x="1480" 
d="M567 592l-563 862h434l326 -512l326 512h387l-543 -870v-584h-367v592z" />
    <glyph glyph-name="uni04AF" unicode="&#x4af;" horiz-adv-x="1173" 
d="M434 -410v410l-424 1061h375l221 -635l219 635h338l-397 -1061v-410h-332z" />
    <glyph glyph-name="uni04B0" unicode="&#x4b0;" horiz-adv-x="1480" 
d="M221 305v289h344l-561 860h434l326 -512l326 512h387l-537 -860h340v-289h-346v-305h-367v305h-346z" />
    <glyph glyph-name="uni04B1" unicode="&#x4b1;" horiz-adv-x="1173" 
d="M180 0h254l-424 1061h375l221 -635l219 635h338l-397 -1061h252v-244h-252v-166h-332v166h-254v244z" />
    <glyph glyph-name="uni04B2" unicode="&#x4b2;" horiz-adv-x="1622" 
d="M434 0h-411l575 741l-549 713h453l319 -424l330 424h416l-541 -694l344 -455h254v-637h-313v332h-144l-364 473z" />
    <glyph glyph-name="uni04B3" unicode="&#x4b3;" horiz-adv-x="1251" 
d="M383 0h-375l422 524l-418 537h424l207 -273l219 273h377l-414 -512l207 -273h238v-581h-299v305h-133l-224 287z" />
    <glyph glyph-name="uni04B6" unicode="&#x4b6;" horiz-adv-x="1632" 
d="M1059 0v526q-160 -32 -332 -32q-288 0 -436 133.5t-148 433.5v393h349v-391q0 -143 67 -204.5t205 -61.5q70 0 144 8.5t112 16.5l39 9v623h348v-1149h213v-637h-315v332h-246z" />
    <glyph glyph-name="uni04B7" unicode="&#x4b7;" horiz-adv-x="1298" 
d="M776 618v443h332v-785h176v-581h-297v305h-211v348q-92 -18 -221 -18q-221 0 -330.5 104t-109.5 340v287h331v-277q0 -97 36 -138.5t130 -41.5q44 0 85 3.5t60 6.5z" />
    <glyph glyph-name="uni04B8" unicode="&#x4b8;" horiz-adv-x="1611" 
d="M928 231h-266v265q-257 12 -388 146t-131 409v403h349v-410q0 -114 40 -172.5t130 -70.5v303h266v-303q40 3 80 8.5t60 9.5l19 4v631h349v-1454h-349v522q-65 -10 -159 -18v-273z" />
    <glyph glyph-name="uni04B9" unicode="&#x4b9;" horiz-adv-x="1318" 
d="M754 135h-209v197q-217 11 -323.5 115.5t-106.5 326.5v287h331v-293q0 -73 23 -111.5t76 -48.5v219h209v-221l90 12v443h332v-1061h-332v348q-35 -6 -90 -12v-201z" />
    <glyph glyph-name="uni04BA" unicode="&#x4ba;" horiz-adv-x="1585" 
d="M526 1454v-526q160 33 332 33q288 0 436 -134t148 -434v-393h-348v391q0 143 -67.5 204.5t-205.5 61.5q-70 0 -144 -8.5t-113 -16.5l-38 -9v-623h-348v1454h348z" />
    <glyph glyph-name="uni04BB" unicode="&#x4bb;" horiz-adv-x="1304" 
d="M143 0v1507h330v-585q36 61 114 111t189 50q179 0 286 -119.5t107 -316.5v-647h-331v586q0 97 -48 152t-133 55q-86 0 -135 -55.5t-49 -151.5v-586h-330z" />
    <glyph glyph-name="uni04C0" unicode="&#x4c0;" horiz-adv-x="708" 
d="M180 0v1454h348v-1454h-348z" />
    <glyph glyph-name="uni04C1" unicode="&#x4c1;" horiz-adv-x="2193" 
d="M1094 1788q51 0 76.5 30t25.5 74v21h252v-27q0 -143 -89.5 -234t-264.5 -91t-265 91t-90 234v27h252v-21q0 -44 25.5 -74t77.5 -30zM6 0l592 750l-580 704h410l494 -608v608h333v-610l496 610h401l-567 -692l602 -762h-432l-500 633v-633h-333v631l-498 -631h-418z" />
    <glyph glyph-name="uni04C2" unicode="&#x4c2;" horiz-adv-x="1765" 
d="M883 1409q48 0 71 29.5t23 74.5v33h250v-39q0 -143 -86.5 -234t-257.5 -91t-257.5 91t-86.5 234v39h249v-33q0 -44 23 -74t72 -30zM715 0v457l-332 -457h-401l413 555l-370 506h381l309 -428v428h334v-428l307 428h383l-371 -504l416 -557h-404l-331 457v-457h-334z" />
    <glyph glyph-name="uni04CF" unicode="&#x4cf;" horiz-adv-x="628" 
d="M147 0v1507h334v-1507h-334z" />
    <glyph glyph-name="uni04D0" unicode="&#x4d0;" horiz-adv-x="1568" 
d="M774 1788q51 0 77 30t26 74v21h251v-27q0 -143 -89.5 -234t-264.5 -91t-264.5 91t-89.5 234v27h252v-21q0 -44 25 -74t77 -30zM1165 0l-94 252h-594l-94 -252h-346l557 1456h379l561 -1456h-369zM586 543h377l-189 506z" />
    <glyph glyph-name="uni04D1" unicode="&#x4d1;" horiz-adv-x="1288" 
d="M621 1407q48 0 71 29.5t23 74.5v33h250v-39q0 -143 -86.5 -234t-257.5 -91t-258 91t-87 234v39h250v-33q0 -44 23 -74t72 -30zM819 139q-9 -20 -27.5 -43t-52 -52t-88.5 -48t-121 -19q-193 0 -315.5 149t-122.5 404t122.5 403t317.5 148q65 0 120 -18.5t87.5 -46.5
t49.5 -49t26 -39v133h330v-1061h-326v139zM819 530q0 125 -51.5 197t-142.5 72q-93 0 -146 -72t-53 -197t53 -197.5t146 -72.5q90 0 142 72.5t52 197.5z" />
    <glyph glyph-name="uni04D6" unicode="&#x4d6;" horiz-adv-x="1449" 
d="M754 1788q51 0 76.5 30t25.5 74v21h252v-27q0 -143 -89.5 -234t-264.5 -91t-265 91t-90 234v27h252v-21q0 -44 25.5 -74t77.5 -30zM176 0v1454h1131v-287h-783v-262h461v-293h-461v-311h852v-301h-1200z" />
    <glyph glyph-name="uni04D7" unicode="&#x4d7;" horiz-adv-x="1212" 
d="M610 1409q48 0 71.5 29.5t23.5 74.5v33h249v-39q0 -143 -86.5 -234t-257.5 -91t-257.5 91t-86.5 234v39h250v-33q0 -45 22.5 -74.5t71.5 -29.5zM610 1087q241 0 382 -150.5t141 -406.5v-57h-719q6 -106 64 -170.5t155 -64.5q112 0 166 77h327q-5 -42 -23 -85.5
t-56.5 -90.5t-92.5 -83t-137.5 -59.5t-183.5 -23.5q-252 0 -398.5 153t-146.5 404q0 250 143.5 403.5t378.5 153.5zM610 848q-80 0 -130 -47.5t-62 -130.5h383q-14 84 -64 131t-127 47z" />
    <glyph glyph-name="uni04D8" unicode="&#x4d8;" horiz-adv-x="1552" 
d="M109 721q0 83 6 113h979q-13 157 -96 251.5t-230 94.5q-121 0 -190.5 -53t-96.5 -126h-338q9 65 36.5 130t79.5 128.5t121.5 111.5t170 78t217.5 30q307 0 491.5 -206t184.5 -546q0 -343 -184.5 -547.5t-481.5 -204.5q-142 0 -265 52.5t-212.5 147.5t-140.5 236t-51 310z
M778 272q132 0 212 82.5t100 216.5h-623q20 -136 99.5 -217.5t211.5 -81.5z" />
    <glyph glyph-name="uni04D9" unicode="&#x4d9;" horiz-adv-x="1218" 
d="M608 -27q-241 0 -381.5 150.5t-140.5 406.5v58h719q-6 106 -64 170.5t-155 64.5q-111 0 -166 -78h-328q5 42 23 85.5t56.5 90.5t92.5 83t138 59.5t184 23.5q252 0 398 -153t146 -404q0 -250 -143.5 -403.5t-378.5 -153.5zM608 213q81 0 131 47.5t62 130.5h-383
q14 -84 63.5 -131t126.5 -47z" />
    <glyph glyph-name="uni04E2" unicode="&#x4e2;" horiz-adv-x="1679" 
d="M1202 1616h-721v250h721v-250zM176 0v1454h348v-940l631 940h348v-1454h-348v938l-631 -938h-348z" />
    <glyph glyph-name="uni04E3" unicode="&#x4e3;" horiz-adv-x="1320" 
d="M997 1241h-671v252h671v-252zM143 0v1061h326v-592l383 592h328v-1061h-328v594l-383 -594h-326z" />
    <glyph glyph-name="uni04E6" unicode="&#x4e6;" horiz-adv-x="1603" 
d="M401 1575v323h328v-323h-328zM877 1575v323h327v-323h-327zM803 -25q-199 0 -356 90.5t-247.5 262.5t-90.5 399q0 172 52.5 314t145.5 237.5t220.5 148t275.5 52.5t275 -52.5t219.5 -148t145 -237.5t52.5 -314q0 -170 -52.5 -312t-145 -238t-220 -149t-274.5 -53z
M803 287q159 0 249.5 123t90.5 317q0 193 -90.5 316.5t-249.5 123.5t-249.5 -123.5t-90.5 -316.5q0 -195 90 -317.5t250 -122.5z" />
    <glyph glyph-name="uni04E7" unicode="&#x4e7;" horiz-adv-x="1253" 
d="M231 1198v324h326v-324h-326zM696 1198v324h326v-324h-326zM627 1087q239 0 389.5 -153t150.5 -404q0 -250 -151 -403.5t-389 -153.5t-388.5 153.5t-150.5 403.5q0 251 150.5 404t388.5 153zM627 254q100 0 153.5 76.5t53.5 199.5q0 122 -54 198.5t-153 76.5
q-98 0 -152.5 -77t-54.5 -198q0 -123 53.5 -199.5t153.5 -76.5z" />
    <glyph glyph-name="uni04E8" unicode="&#x4e8;" horiz-adv-x="1603" 
d="M803 -25q-149 0 -276.5 52.5t-220 148.5t-145 238t-52.5 313q0 172 52.5 314t145.5 237.5t220.5 148t275.5 52.5t275 -52.5t219.5 -148t145 -237.5t52.5 -314q0 -170 -52.5 -312t-145 -238t-220 -149t-274.5 -53zM803 1182q-142 0 -234 -87t-114 -229h694
q-23 141 -113.5 228.5t-232.5 87.5zM803 272q142 0 233 88t113 232h-694q22 -144 113 -232t235 -88z" />
    <glyph glyph-name="uni04E9" unicode="&#x4e9;" horiz-adv-x="1253" 
d="M627 1087q239 0 389.5 -153t150.5 -404q0 -250 -151 -403.5t-389 -153.5t-389.5 153.5t-151.5 403.5q0 251 151 404t390 153zM627 825q-94 0 -149.5 -46.5t-69.5 -135.5h438q-12 88 -67.5 135t-151.5 47zM627 236q97 0 153.5 50t67.5 142h-442q11 -94 67 -143t154 -49z
" />
    <glyph glyph-name="uni04EE" unicode="&#x4ee;" horiz-adv-x="1509" 
d="M1165 1616h-721v250h721v-250zM717 0h-373l268 498l-585 956h415l357 -608l327 608h379z" />
    <glyph glyph-name="uni04EF" unicode="&#x4ef;" horiz-adv-x="1179" 
d="M946 1229h-672v252h672v-252zM289 -410l157 414l-436 1057h373l227 -615l226 615h333l-546 -1471h-334z" />
    <glyph glyph-name="uni04F2" unicode="&#x4f2;" horiz-adv-x="1509" 
d="M850 1575l158 332h315l-170 -332h-303zM406 1575l149 332h317l-163 -332h-303zM717 0h-373l268 498l-585 956h415l357 -608l327 608h379z" />
    <glyph glyph-name="uni04F3" unicode="&#x4f3;" horiz-adv-x="1179" 
d="M668 1192l143 389h279l-154 -389h-268zM262 1192l144 389h278l-154 -389h-268zM289 -410l157 414l-436 1057h373l227 -615l226 615h333l-546 -1471h-334z" />
    <glyph glyph-name="Wgrave" unicode="&#x1e80;" horiz-adv-x="2121" 
d="M1235 1575h-342l-227 332h358zM1235 1456l262 -924l246 922h330l-410 -1456h-330l-274 930l-275 -930h-311l-426 1456h367l248 -913l258 915h315z" />
    <glyph glyph-name="wgrave" unicode="&#x1e81;" horiz-adv-x="1730" 
d="M1034 1192h-319l-221 389h333zM1053 -2l-183 641l-182 -641h-319l-351 1063h357l176 -623l180 625h311l179 -621l176 619h315l-328 -1063h-331z" />
    <glyph glyph-name="Wacute" unicode="&#x1e82;" horiz-adv-x="2121" 
d="M905 1575l211 332h359l-228 -332h-342zM1235 1456l262 -924l246 922h330l-410 -1456h-330l-274 930l-275 -930h-311l-426 1456h367l248 -913l258 915h315z" />
    <glyph glyph-name="wacute" unicode="&#x1e83;" horiz-adv-x="1730" 
d="M717 1192l207 389h333l-221 -389h-319zM1053 -2l-183 641l-182 -641h-319l-351 1063h357l176 -623l180 625h311l179 -621l176 619h315l-328 -1063h-331z" />
    <glyph glyph-name="Wdieresis" unicode="&#x1e84;" horiz-adv-x="2121" 
d="M659 1575v323h328v-323h-328zM1135 1575v323h327v-323h-327zM1235 1456l262 -924l246 922h330l-410 -1456h-330l-274 930l-275 -930h-311l-426 1456h367l248 -913l258 915h315z" />
    <glyph glyph-name="wdieresis" unicode="&#x1e85;" horiz-adv-x="1730" 
d="M479 1198v324h326v-324h-326zM944 1198v324h326v-324h-326zM1053 -2l-183 641l-182 -641h-319l-351 1063h357l176 -623l180 625h311l179 -621l176 619h315l-328 -1063h-331z" />
    <glyph glyph-name="Ygrave" unicode="&#x1ef2;" horiz-adv-x="1480" 
d="M952 1575h-342l-227 332h358zM567 592l-563 862h434l326 -512l326 512h387l-543 -870v-584h-367v592z" />
    <glyph glyph-name="ygrave" unicode="&#x1ef3;" horiz-adv-x="1179" 
d="M774 1192h-319l-222 389h334zM289 -410l157 414l-436 1057h373l227 -615l226 615h333l-546 -1471h-334z" />
    <glyph glyph-name="uni2009" unicode="&#x2009;" horiz-adv-x="339" 
 />
    <glyph glyph-name="hairspace" unicode="&#x200a;" horiz-adv-x="169" 
 />
    <glyph glyph-name="endash" unicode="&#x2013;" horiz-adv-x="1458" 
d="M156 504v223h1147v-223h-1147z" />
    <glyph glyph-name="emdash" unicode="&#x2014;" horiz-adv-x="2099" 
d="M156 504v223h1788v-223h-1788z" />
    <glyph glyph-name="quoteleft" unicode="&#x2018;" horiz-adv-x="671" 
d="M262 1507h230q-129 -215 -142 -387h178v-364h-376v317q0 237 110 434z" />
    <glyph glyph-name="quoteright" unicode="&#x2019;" horiz-adv-x="671" 
d="M410 756h-228q127 219 140 387h-177v364h375v-317q0 -237 -110 -434z" />
    <glyph glyph-name="quotesinglbase" unicode="&#x201a;" horiz-adv-x="669" 
d="M410 -387h-228q127 219 140 387h-177v365h375v-318q0 -237 -110 -434z" />
    <glyph glyph-name="quotedblleft" unicode="&#x201c;" horiz-adv-x="1191" 
d="M262 1507h230q-129 -215 -142 -387h172v-364h-370v317q0 237 110 434zM788 1507h228q-126 -217 -139 -387h172v-364h-371v317q0 237 110 434z" />
    <glyph glyph-name="quotedblright" unicode="&#x201d;" horiz-adv-x="1191" 
d="M930 756h-228q130 217 140 387h-172v364h372v-317q0 -240 -112 -434zM403 756h-227q128 215 139 387h-170v364h371v-317q0 -238 -113 -434z" />
    <glyph glyph-name="quotedblbase" unicode="&#x201e;" horiz-adv-x="1189" 
d="M930 -387h-228q130 217 140 387h-172v365h372v-318q0 -240 -112 -434zM403 -387h-227q128 215 139 387h-170v365h371v-318q0 -238 -113 -434z" />
    <glyph glyph-name="dagger" unicode="&#x2020;" horiz-adv-x="1071" 
d="M375 0v825h-297v301h297v328h319v-328h297v-301h-297v-825h-319z" />
    <glyph glyph-name="daggerdbl" unicode="&#x2021;" horiz-adv-x="1056" 
d="M86 307v289h283v266h-283v289h283v303h319v-303h283v-289h-283v-266h283v-289h-283v-307h-319v307h-283z" />
    <glyph glyph-name="bullet" unicode="&#x2022;" horiz-adv-x="1236" 
d="M618 1108q193 0 327 -135t134 -326q0 -192 -134 -326.5t-327 -134.5q-192 0 -326 134.5t-134 326.5q0 125 61 231t167 168t232 62z" />
    <glyph glyph-name="ellipsis" unicode="&#x2026;" horiz-adv-x="1839" 
d="M150 0v401h382v-401h-382zM727 0v401h385v-401h-385zM1307 0v401h385v-401h-385z" />
    <glyph glyph-name="perthousand" unicode="&#x2030;" horiz-adv-x="2928" 
d="M489 696q-169 0 -284 112.5t-115 278.5t115 279t284 113q167 0 282.5 -113t115.5 -279q0 -165 -115 -278t-283 -113zM340 0l1065 1454h291l-1067 -1454h-289zM489 934q64 0 106 44t42 109t-42 109.5t-106 44.5q-65 0 -107 -44.5t-42 -109.5t42 -109t107 -44zM1546 -29
q-168 0 -283.5 113t-115.5 278t115.5 278.5t283.5 113.5q167 0 282.5 -113t115.5 -279q0 -165 -115 -278t-283 -113zM2441 -29q-167 0 -282 112.5t-115 278.5t115 279t282 113t282.5 -113t115.5 -279q0 -165 -115 -278t-283 -113zM1546 209q64 0 106 44t42 109t-42 109.5
t-106 44.5q-65 0 -107 -44.5t-42 -109.5t42 -109t107 -44zM2441 209q64 0 106 44t42 109t-42 109.5t-106 44.5q-65 0 -107 -44.5t-42 -109.5t42 -109t107 -44z" />
    <glyph glyph-name="uni2032" unicode="&#x2032;" horiz-adv-x="643" 
d="M377 823h-301l188 631h305z" />
    <glyph glyph-name="uni2033" unicode="&#x2033;" horiz-adv-x="1103" 
d="M369 823h-293l188 631h297zM836 823h-295l192 631h295z" />
    <glyph glyph-name="guilsinglleft" unicode="&#x2039;" horiz-adv-x="747" 
d="M326 1008h305l-219 -385l219 -392h-307l-211 390z" />
    <glyph glyph-name="guilsinglright" unicode="&#x203a;" horiz-adv-x="747" 
d="M422 231h-305l217 387l-217 390h307l211 -387z" />
    <glyph glyph-name="fraction" unicode="&#x2044;" horiz-adv-x="1220" 
d="M0 0l948 1454h273l-947 -1454h-274z" />
    <glyph glyph-name="zero.sup" unicode="&#x2070;" horiz-adv-x="1122" 
d="M561 1528q201 0 315.5 -107t114.5 -291v-282q0 -184 -115 -290.5t-315 -106.5q-201 0 -315.5 106.5t-114.5 290.5v282q0 184 115 291t315 107zM561 702q72 0 110 43.5t38 116.5v254q0 73 -38 116.5t-110 43.5q-70 0 -107.5 -43.5t-37.5 -116.5v-254q0 -73 37.5 -116.5
t107.5 -43.5z" />
    <glyph glyph-name="four.sup" unicode="&#x2074;" horiz-adv-x="1148" 
d="M1079 733h-198v-262h-279v262h-530v191l469 583h340v-549h198v-225zM348 958h254v324z" />
    <glyph glyph-name="five.sup" unicode="&#x2075;" horiz-adv-x="1069" 
d="M403 903h-258v604h775v-217h-508v-186q29 32 82.5 55t126.5 23q147 0 243.5 -93.5t96.5 -250.5v-2q0 -168 -115.5 -275.5t-319.5 -107.5q-110 0 -196 31.5t-136 83t-75 110.5t-25 121h289q6 -39 43 -74t100 -35q65 0 105.5 40t40.5 101v3q0 65 -39.5 103t-106.5 38
q-87 0 -123 -72z" />
    <glyph glyph-name="six.sup" unicode="&#x2076;" horiz-adv-x="1071" 
d="M973 838q0 -169 -118.5 -277t-317.5 -108q-198 0 -318.5 107t-120.5 276q0 116 42.5 204.5t138.5 202.5l215 264h311l-309 -379q60 48 153 48q146 0 235 -94.5t89 -243.5zM688 838q0 64 -41.5 104.5t-111.5 40.5q-66 0 -109 -41.5t-43 -105.5q0 -63 42.5 -104.5
t109.5 -41.5q70 0 111.5 41.5t41.5 106.5z" />
    <glyph glyph-name="seven.sup" unicode="&#x2077;" horiz-adv-x="1001" 
d="M463 471h-320l430 791h-489v245h836v-170z" />
    <glyph glyph-name="eight.sup" unicode="&#x2078;" horiz-adv-x="1083" 
d="M563 1526q189 0 293.5 -79t104.5 -210q0 -97 -47 -154t-109 -79q42 -15 78 -42t66 -82.5t30 -127.5q0 -136 -110.5 -217.5t-305.5 -81.5h-45q-194 0 -304 81.5t-110 217.5q0 103 53 164.5t122 87.5q-62 22 -110 79.5t-48 153.5q0 131 105 210t294 79h43zM406 1208
q0 -52 34.5 -81t91.5 -29h17q59 0 93 29t34 81t-34 80.5t-93 28.5h-17q-57 0 -91.5 -29t-34.5 -80zM395 778q0 -54 38.5 -86.5t96.5 -32.5h23q58 0 96.5 32.5t38.5 86.5q0 55 -38 87t-97 32h-23q-58 0 -96.5 -32.5t-38.5 -86.5z" />
    <glyph glyph-name="nine.sup" unicode="&#x2079;" horiz-adv-x="1071" 
d="M98 1141q0 168 119.5 276.5t317.5 108.5q199 0 318.5 -107t119.5 -276q0 -116 -42.5 -205.5t-137.5 -202.5l-213 -264h-314l309 379q-58 -47 -153 -47q-146 0 -235 94.5t-89 243.5zM383 1141q0 -64 42 -105t110 -41q67 0 110 41.5t43 106.5q0 64 -42.5 104.5t-110.5 40.5
t-110 -41t-42 -106z" />
    <glyph glyph-name="zero.sub" unicode="&#x2080;" horiz-adv-x="1122" 
d="M561 778q201 0 315.5 -106.5t114.5 -290.5v-283q0 -184 -115 -290.5t-315 -106.5q-201 0 -315.5 106.5t-114.5 290.5v283q0 184 115 290.5t315 106.5zM561 -47q72 0 110 43.5t38 116.5v254q0 73 -38 116t-110 43q-70 0 -107.5 -43t-37.5 -116v-254q0 -73 37.5 -116.5
t107.5 -43.5z" />
    <glyph glyph-name="one.sub" unicode="&#x2081;" horiz-adv-x="788" 
d="M627 -279h-287v738l-258 -140v254l330 189h215v-1041z" />
    <glyph glyph-name="two.sub" unicode="&#x2082;" horiz-adv-x="1036" 
d="M961 -43v-236h-846v183l397 348q55 49 79.5 87t24.5 81q0 49 -30.5 79.5t-87.5 30.5q-58 0 -90.5 -34.5t-32.5 -96.5v-43h-273v47q0 165 106 269t292 104q190 0 298.5 -93t108.5 -247q0 -58 -15 -106.5t-50.5 -94t-69.5 -79t-94 -84.5l-131 -115h414z" />
    <glyph glyph-name="three.sub" unicode="&#x2083;" horiz-adv-x="1058" 
d="M520 -61q71 0 108.5 27t37.5 77q0 94 -115 94h-207v225h182q53 0 82 23t29 66q0 44 -33.5 70t-95.5 26q-60 0 -91.5 -28t-39.5 -62h-283q2 59 28 114.5t75 102t130 74.5t181 28q197 0 305.5 -78.5t108.5 -224.5q0 -77 -40.5 -127t-97.5 -72q71 -23 121.5 -83t50.5 -166
q0 -146 -116.5 -234t-319.5 -88q-110 0 -197 31t-137.5 81.5t-77.5 106t-30 111.5h291q8 -35 45 -64.5t106 -29.5z" />
    <glyph glyph-name="four.sub" unicode="&#x2084;" horiz-adv-x="1148" 
d="M1079 -16h-198v-263h-279v263h-530v190l469 584h340v-549h198v-225zM348 209h254v323z" />
    <glyph glyph-name="five.sub" unicode="&#x2085;" horiz-adv-x="1069" 
d="M403 154h-258v604h775v-217h-508v-187q29 32 82.5 55t126.5 23q147 0 243.5 -93.5t96.5 -250.5v-2q0 -168 -115.5 -275.5t-319.5 -107.5q-110 0 -196 31.5t-136 83t-75 110.5t-25 121h289q6 -38 43 -73t100 -35q65 0 105.5 40t40.5 101v2q0 65 -39.5 103t-106.5 38
q-88 0 -123 -71z" />
    <glyph glyph-name="six.sub" unicode="&#x2086;" horiz-adv-x="1071" 
d="M973 88q0 -169 -118.5 -277t-317.5 -108q-198 0 -318.5 107t-120.5 276q0 116 42.5 205t138.5 203l215 264h311l-309 -379q58 47 153 47q146 0 235 -94.5t89 -243.5zM688 88q0 64 -41.5 104.5t-111.5 40.5q-66 0 -109 -41.5t-43 -105.5q0 -63 42.5 -104t109.5 -41
q70 0 111.5 41t41.5 106z" />
    <glyph glyph-name="seven.sub" unicode="&#x2087;" horiz-adv-x="1001" 
d="M463 -279h-320l430 791h-489v246h836v-170z" />
    <glyph glyph-name="eight.sub" unicode="&#x2088;" horiz-adv-x="1083" 
d="M563 776q189 0 293.5 -79t104.5 -210q0 -97 -47 -154t-109 -79q42 -15 78 -42t66 -82.5t30 -127.5q0 -136 -110.5 -217.5t-305.5 -81.5h-45q-194 0 -304 81.5t-110 217.5q0 103 53 164.5t122 87.5q-62 22 -110 79.5t-48 153.5q0 131 105 210t294 79h43zM406 459
q0 -52 35 -81.5t91 -29.5h17q59 0 93 29.5t34 81.5t-34 80t-93 28h-17q-57 0 -91.5 -28.5t-34.5 -79.5zM395 29q0 -55 38 -87t97 -32h23q59 0 97 32t38 87q0 56 -38 87t-97 31h-23q-59 0 -97 -31.5t-38 -86.5z" />
    <glyph glyph-name="nine.sub" unicode="&#x2089;" horiz-adv-x="1071" 
d="M98 391q0 168 119.5 276.5t317.5 108.5q199 0 318.5 -107t119.5 -276q0 -116 -42 -205t-138 -202l-213 -265h-314l309 379q-58 -47 -153 -47q-146 0 -235 94.5t-89 243.5zM383 391q0 -64 42 -104.5t110 -40.5q67 0 110 41t43 106q0 64 -42.5 105t-110.5 41t-110 -41.5
t-42 -106.5z" />
    <glyph glyph-name="uni20A9" unicode="&#x20a9;" horiz-adv-x="2152" 
d="M84 588v284h240l-158 582h350l213 -901l203 901h315l205 -907l211 907h324l-148 -582h232v-284h-306l-149 -588h-313l-216 913l-217 -913h-311l-160 588h-315z" />
    <glyph glyph-name="Euro" unicode="&#x20ac;" horiz-adv-x="1413" 
d="M80 451v223h209v123h-209v221h209q9 209 142 335t364 126q233 0 371.5 -127t144.5 -338h-318q-7 71 -57 123.5t-141 52.5q-87 0 -139 -47.5t-58 -124.5h281v-221h-281v-123h281v-223h-281q5 -86 57 -135.5t142 -49.5q92 0 142.5 54t53.5 133h318q-4 -224 -143.5 -350
t-372.5 -126q-236 0 -368 127t-138 347h-209z" />
    <glyph glyph-name="uni20B4" unicode="&#x20b4;" horiz-adv-x="1327" 
d="M82 793v223h745q11 29 11 57q0 60 -43.5 95.5t-118.5 35.5q-73 0 -116 -31.5t-46 -80.5v-2h-317v2q3 175 125 279t356 104q221 0 355 -107.5t134 -292.5q0 -38 -6 -59h84v-223h-1163zM160 418q0 39 10 69h-88v224h1163v-224h-727q-24 -30 -24 -79q0 -70 46.5 -112
t131.5 -42q87 0 138.5 38.5t51.5 106.5v2h324v-6q0 -187 -137 -300t-377 -113q-241 0 -376.5 120.5t-135.5 315.5z" />
    <glyph glyph-name="uni20B8" unicode="&#x20b8;" horiz-adv-x="1290" 
d="M72 1231v223h1149v-223h-1149zM471 0v807h-399v303h1149v-303h-402v-807h-348z" />
    <glyph glyph-name="uni20BD" unicode="&#x20bd;" horiz-adv-x="1544" 
d="M61 231v224h242v123h-242v223h242v653h627q250 0 386 -113.5t136 -328.5q0 -208 -136.5 -321t-385.5 -113h-281v-123h471v-224h-471v-231h-346v231h-242zM893 1151h-244v-334h244q99 0 150 45t51 125q0 164 -201 164z" />
    <glyph glyph-name="uni2116" unicode="&#x2116;" horiz-adv-x="2377" 
d="M1935 657q-173 0 -266.5 112.5t-93.5 299.5q0 185 93.5 297.5t266.5 112.5q174 0 268.5 -112.5t94.5 -297.5q0 -187 -94.5 -299.5t-268.5 -112.5zM1485 1454v-1462h-285l-684 977v-969h-340v1454h393l584 -856v856h332zM1935 874q51 0 78 53t27 142t-27 142t-78 53
t-77.5 -53t-26.5 -142q0 -90 26.5 -142.5t77.5 -52.5zM1599 276v308h678v-308h-678z" />
    <glyph glyph-name="trademark" unicode="&#x2122;" horiz-adv-x="2117" 
d="M303 629v594h-248v231h768v-231h-245v-594h-275zM950 629v825h373l152 -448l153 448h361v-825h-242v581l-186 -585h-193l-186 589v-585h-232z" />
    <glyph glyph-name="onethird" unicode="&#x2153;" horiz-adv-x="2109" 
d="M580 547h-275v629l-231 -121v235l299 168h207v-911zM348 0l948 1454h273l-946 -1454h-275zM1620 201q60 0 91.5 23t31.5 61q0 71 -92 71h-191v215h172q82 0 82 62q0 37 -28 58.5t-78 21.5q-51 0 -76 -22.5t-31 -49.5h-272q2 52 26 101.5t68.5 90.5t118.5 66t166 25
q183 0 282 -69t99 -200q0 -65 -36 -109t-85 -61q64 -20 107.5 -73t43.5 -144q0 -129 -105.5 -206.5t-293.5 -77.5q-100 0 -179 28.5t-124.5 73.5t-70 94.5t-27.5 98.5h276q7 -26 37 -52t88 -26z" />
    <glyph glyph-name="twothirds" unicode="&#x2154;" horiz-adv-x="2363" 
d="M868 766v-219h-766v170l359 305q46 40 66 68t20 63q0 40 -25 64t-71 24q-49 0 -75 -28t-26 -78v-35h-258v39q0 147 95 239t264 92q172 0 271 -83t99 -220q0 -66 -27.5 -123.5t-67 -98t-108.5 -93.5l-104 -86h354zM600 0l948 1454h273l-947 -1454h-274zM1872 201
q60 0 91.5 23t31.5 61q0 71 -92 71h-191v215h172q82 0 82 62q0 37 -28 58.5t-78 21.5q-51 0 -76 -22.5t-31 -49.5h-272q2 52 26 101.5t68.5 90.5t118.5 66t166 25q183 0 282 -69t99 -200q0 -65 -36 -109t-85 -61q64 -20 107.5 -73t43.5 -144q0 -129 -105.5 -206.5
t-293.5 -77.5q-100 0 -179.5 28.5t-125 73.5t-70 94.5t-27.5 98.5h277q7 -26 37 -52t88 -26z" />
    <glyph glyph-name="oneeighth" unicode="&#x215b;" horiz-adv-x="2134" 
d="M580 547h-275v629l-231 -121v235l299 168h207v-911zM348 0l948 1454h273l-946 -1454h-275zM1665 924q172 0 268.5 -69t96.5 -185q0 -85 -43.5 -135.5t-98.5 -67.5q62 -25 109 -78t47 -143q0 -120 -99.5 -191t-277.5 -71h-43q-178 0 -277.5 71t-99.5 191q0 90 47 144
t107 77q-53 17 -96 68t-43 135q0 116 95 185t269 69h39zM1534 641q0 -41 29 -64.5t77 -23.5h11q48 0 76 23.5t28 64.5q0 44 -28 68t-76 24h-11q-48 0 -77 -24.5t-29 -67.5zM1528 272q0 -45 30.5 -70.5t77.5 -25.5h19q47 0 77.5 25.5t30.5 70.5t-30.5 71t-77.5 26h-19
q-47 0 -77.5 -26.5t-30.5 -70.5z" />
    <glyph glyph-name="threeeighths" unicode="&#x215c;" horiz-adv-x="2336" 
d="M469 748q60 0 91.5 21.5t31.5 59.5q0 72 -92 72h-191v215h172q82 0 82 64q0 37 -27.5 57t-78.5 20t-76 -22t-31 -49h-272q2 52 26 101.5t68.5 91t118.5 66.5t166 25q184 0 282.5 -69t98.5 -199q0 -66 -36.5 -109t-86.5 -61q64 -20 108.5 -73t44.5 -144
q0 -131 -105.5 -208t-293.5 -77q-100 0 -179 28t-124.5 73t-70 94.5t-27.5 99.5h276q6 -27 36.5 -52t88.5 -25zM549 0l948 1454h272l-946 -1454h-274zM1868 924q172 0 268 -69t96 -185q0 -85 -43.5 -135.5t-97.5 -67.5q62 -25 109 -78t47 -143q0 -120 -99.5 -191t-277.5 -71
h-43q-178 0 -277.5 71t-99.5 191q0 90 47 144t107 77q-53 17 -96.5 68t-43.5 135q0 116 95.5 185t269.5 69h39zM1737 641q0 -41 29 -64.5t77 -23.5h10q48 0 76.5 23.5t28.5 64.5q0 44 -28.5 68t-76.5 24h-10q-48 0 -77 -24.5t-29 -67.5zM1731 272q0 -45 30.5 -70.5
t77.5 -25.5h19q47 0 77.5 25.5t30.5 70.5t-30.5 71t-77.5 26h-19q-47 0 -77.5 -26.5t-30.5 -70.5z" />
    <glyph glyph-name="fiveeighths" unicode="&#x215d;" horiz-adv-x="2320" 
d="M375 915h-248v539h707v-203h-451v-149q61 65 178 65q137 0 223 -80.5t86 -220.5v-2q0 -147 -105 -240.5t-290 -93.5q-101 0 -180 27.5t-124.5 72t-68 96t-22.5 105.5h278q4 -29 35 -56t82 -27q53 0 85 32.5t32 79.5q-2 53 -33.5 84t-83.5 31q-31 0 -54.5 -12.5
t-32.5 -24.5t-13 -23zM535 0l948 1454h272l-946 -1454h-274zM1851 924q172 0 268.5 -69t96.5 -185q0 -85 -43.5 -135.5t-97.5 -67.5q62 -25 108.5 -78t46.5 -143q0 -120 -99.5 -191t-277.5 -71h-43q-178 0 -277 71t-99 191q0 90 46.5 144t106.5 77q-53 17 -96 68t-43 135
q0 116 95 185t269 69h39zM1720 641q0 -41 29.5 -64.5t77.5 -23.5h10q48 0 76.5 23.5t28.5 64.5q0 44 -28.5 68t-76.5 24h-10q-48 0 -77.5 -24.5t-29.5 -67.5zM1714 272q0 -44 31 -70t78 -26h18q47 0 78 26t31 70q0 45 -31 71t-78 26h-18q-47 0 -78 -27t-31 -70z" />
    <glyph glyph-name="seveneighths" unicode="&#x215e;" horiz-adv-x="2144" 
d="M432 547h-307l375 682h-428v225h757v-158zM356 0l949 1454h272l-946 -1454h-275zM1675 924q172 0 268.5 -69t96.5 -185q0 -85 -43.5 -135.5t-98.5 -67.5q62 -25 109 -78t47 -143q0 -120 -99.5 -191t-277.5 -71h-43q-178 0 -277.5 71t-99.5 191q0 90 47 144t107 77
q-53 17 -96 68t-43 135q0 116 95 185t269 69h39zM1544 641q0 -41 29.5 -64.5t77.5 -23.5h10q48 0 76 23.5t28 64.5q0 44 -28 68t-76 24h-10q-48 0 -77.5 -24.5t-29.5 -67.5zM1538 272q0 -44 31 -70t78 -26h18q47 0 78 26t31 70q0 45 -31 71t-78 26h-18q-47 0 -78 -27
t-31 -70z" />
    <glyph glyph-name="minus" unicode="&#x2212;" horiz-adv-x="1409" 
d="M1253 522h-1097v303h1097v-303z" />
    <glyph glyph-name="uni24C5" unicode="&#x24c5;" horiz-adv-x="1740" 
d="M870 -25q-161 0 -302 57.5t-240.5 157.5t-157 239.5t-57.5 297.5q0 209 98.5 381.5t272 271.5t386.5 99q159 0 300 -58.5t241.5 -158.5t158.5 -239t58 -296t-58 -296t-158.5 -239t-241.5 -158.5t-300 -58.5zM870 164q165 0 292 74.5t194 202t67 286.5t-67 286.5t-194 202
t-292 74.5q-164 0 -290.5 -74.5t-193.5 -202.5t-67 -286q0 -245 152 -404t399 -159zM547 346v770h411q146 0 227 -69.5t81 -198.5q0 -131 -81 -202t-227 -71h-178v-229h-233zM942 918h-162v-140h162q86 0 86 70t-86 70z" />
    <glyph glyph-name="zero.den" unicode="&#xe402;" horiz-adv-x="1013" 
d="M508 926q183 0 287 -94.5t104 -256.5v-241q0 -162 -104 -257t-287 -95q-185 0 -290 95t-105 257v241q0 162 105 256.5t290 94.5zM508 213q57 0 88 34.5t31 92.5v229q0 58 -31 92.5t-88 34.5q-59 0 -90 -34.5t-31 -92.5v-229q0 -58 31 -92.5t90 -34.5z" />
    <glyph glyph-name="one.den" unicode="&#xe403;" horiz-adv-x="718" 
d="M580 0h-275v629l-231 -121v235l299 168h207v-911z" />
    <glyph glyph-name="two.den" unicode="&#xe404;" horiz-adv-x="935" 
d="M868 221v-221h-766v172l359 303q47 42 66.5 70t19.5 63q0 38 -25 63t-71 25q-49 0 -75 -28.5t-26 -79.5v-35h-258v39q0 147 95 239.5t264 92.5q172 0 271 -82.5t99 -218.5q0 -96 -49.5 -166t-153.5 -152l-102 -84h352z" />
    <glyph glyph-name="three.den" unicode="&#xe405;" horiz-adv-x="958" 
d="M469 201q60 0 91.5 23t31.5 61q0 71 -92 71h-191v215h172q82 0 82 62q0 37 -28 58.5t-78 21.5q-51 0 -76 -22.5t-31 -49.5h-272q2 52 26 101.5t68.5 90.5t118.5 66t166 25q183 0 282 -69t99 -200q0 -65 -36 -109t-85 -61q64 -20 107.5 -73t43.5 -144
q0 -129 -105.5 -206.5t-293.5 -77.5q-100 0 -179 28.5t-124.5 73.5t-70 94.5t-27.5 98.5h276q7 -26 37 -52t88 -26z" />
    <glyph glyph-name="four.den" unicode="&#xe406;" horiz-adv-x="1040" 
d="M979 217h-174v-217h-266v217h-476v184l412 506h330v-477h174v-213zM319 430h220v277z" />
    <glyph glyph-name="five.den" unicode="&#xe407;" horiz-adv-x="966" 
d="M375 371h-248v536h707v-202h-451v-148q62 66 178 66q136 0 222.5 -82t86.5 -222v-2q0 -147 -105 -240t-290 -93q-101 0 -180 27.5t-124.5 72.5t-68 96.5t-22.5 104.5h278q4 -28 35 -56t82 -28q53 0 85 32.5t32 81.5q0 51 -31.5 82t-85.5 31q-44 0 -68.5 -19t-31.5 -38z
" />
    <glyph glyph-name="six.den" unicode="&#xe408;" horiz-adv-x="966" 
d="M883 326q0 -150 -109 -246t-289 -96t-289.5 95.5t-109.5 244.5q0 102 37 179.5t123 180.5l188 223h297l-280 -336q50 50 143 50q129 0 209 -83t80 -212zM608 326q0 50 -34.5 83t-90.5 33q-54 0 -88.5 -33.5t-34.5 -84.5t34 -84t89 -33q57 0 91 33t34 86z" />
    <glyph glyph-name="seven.den" unicode="&#xe409;" horiz-adv-x="903" 
d="M432 0h-307l375 684h-428v223h757v-157z" />
    <glyph glyph-name="eight.den" unicode="&#xe40a;" horiz-adv-x="976" 
d="M508 924q172 0 268 -69t96 -185q0 -85 -43.5 -135.5t-97.5 -67.5q62 -25 109 -78t47 -143q0 -120 -99.5 -191t-277.5 -71h-43q-178 0 -277.5 71t-99.5 191q0 90 47 144t107 77q-53 17 -96.5 68t-43.5 135q0 116 95.5 185t269.5 69h39zM377 641q0 -41 29 -64.5t77 -23.5
h11q48 0 76 23.5t28 64.5q0 44 -28 68t-76 24h-11q-48 0 -77 -24.5t-29 -67.5zM371 272q0 -45 30.5 -70.5t77.5 -25.5h19q47 0 77.5 25.5t30.5 70.5t-30.5 71t-77.5 26h-19q-47 0 -77.5 -26.5t-30.5 -70.5z" />
    <glyph glyph-name="nine.den" unicode="&#xe40b;" horiz-adv-x="966" 
d="M86 584q0 150 108 245t287 95q181 0 290.5 -95t109.5 -245q0 -101 -37.5 -180t-122.5 -179l-189 -225h-296l280 336q-58 -49 -143 -49q-129 0 -208 83.5t-79 213.5zM358 584q0 -52 34.5 -85.5t90.5 -33.5q55 0 90 34t35 85q0 52 -34.5 85t-90.5 33q-57 0 -91 -32.5
t-34 -85.5z" />
    <glyph glyph-name="zero.num" unicode="&#xe416;" horiz-adv-x="1013" 
d="M508 1473q183 0 287 -94.5t104 -258.5v-241q0 -161 -104 -256t-287 -95q-185 0 -290 95t-105 256v241q0 164 105 258.5t290 94.5zM508 758q57 0 88 34.5t31 92.5v229q0 58 -31 92.5t-88 34.5q-59 0 -90 -34.5t-31 -92.5v-229q0 -58 31 -92.5t90 -34.5z" />
    <glyph glyph-name="one.num" unicode="&#xe417;" horiz-adv-x="718" 
d="M580 547h-275v629l-231 -121v235l299 168h207v-911z" />
    <glyph glyph-name="two.num" unicode="&#xe418;" horiz-adv-x="935" 
d="M868 766v-219h-766v170l359 305q46 40 66 68t20 63q0 40 -25 64t-71 24q-49 0 -75 -28t-26 -78v-35h-258v39q0 147 95 239t264 92q172 0 271 -83t99 -220q0 -66 -27.5 -123.5t-67 -98t-108.5 -93.5l-104 -86h354z" />
    <glyph glyph-name="three.num" unicode="&#xe419;" horiz-adv-x="958" 
d="M469 748q60 0 91.5 21.5t31.5 59.5q0 72 -92 72h-191v215h172q82 0 82 64q0 37 -27.5 57t-78.5 20t-76 -22t-31 -49h-272q2 52 26 101.5t68.5 91t118.5 66.5t166 25q184 0 282.5 -69t98.5 -199q0 -66 -36.5 -109t-86.5 -61q64 -20 108.5 -73t44.5 -144
q0 -131 -105.5 -208t-293.5 -77q-100 0 -179 28t-124.5 73t-70 94.5t-27.5 99.5h276q6 -27 36.5 -52t88.5 -25z" />
    <glyph glyph-name="four.num" unicode="&#xe41a;" horiz-adv-x="1040" 
d="M979 762h-174v-215h-266v215h-476v186l412 506h330v-479h174v-213zM317 975h222v278z" />
    <glyph glyph-name="five.num" unicode="&#xe41b;" horiz-adv-x="966" 
d="M375 915h-248v539h707v-203h-451v-149q61 65 178 65q137 0 223 -80.5t86 -220.5v-2q0 -147 -105 -240.5t-290 -93.5q-101 0 -180 27.5t-124.5 72t-68 96t-22.5 105.5h278q4 -29 35 -56t82 -27q53 0 85 32.5t32 79.5q-2 53 -33.5 84t-83.5 31q-31 0 -54.5 -12.5
t-32.5 -24.5t-13 -23z" />
    <glyph glyph-name="six.num" unicode="&#xe41c;" horiz-adv-x="966" 
d="M883 870q0 -150 -108.5 -245t-289.5 -95q-180 0 -289.5 95.5t-109.5 244.5q0 101 37.5 180t122.5 179l188 225h297l-276 -332q56 45 139 45q129 0 209 -83.5t80 -213.5zM608 870q0 52 -34.5 85.5t-90.5 33.5q-54 0 -88.5 -34t-34.5 -85q0 -53 34 -85.5t89 -32.5
q57 0 91 32.5t34 85.5z" />
    <glyph glyph-name="seven.num" unicode="&#xe41d;" horiz-adv-x="903" 
d="M432 547h-307l375 682h-428v225h757v-158z" />
    <glyph glyph-name="eight.num" unicode="&#xe41e;" horiz-adv-x="976" 
d="M508 1470q172 0 268 -68.5t96 -184.5q0 -84 -43.5 -136t-95.5 -69q60 -23 107 -76.5t47 -142.5q0 -120 -99.5 -191.5t-277.5 -71.5h-43q-178 0 -277.5 71.5t-99.5 191.5q0 89 47 142.5t107 76.5q-23 8 -45.5 23.5t-45 39.5t-36 61t-13.5 81q0 116 95.5 184.5t269.5 68.5
h39zM377 1188q0 -41 29 -65.5t77 -24.5h11q47 0 75.5 24.5t28.5 65.5q0 43 -28 66.5t-76 23.5h-11q-48 0 -77 -23.5t-29 -66.5zM371 819q0 -46 30.5 -72t77.5 -26h19q47 0 77.5 26t30.5 72q0 44 -30.5 69t-77.5 25h-19q-47 0 -77.5 -25.5t-30.5 -68.5z" />
    <glyph glyph-name="nine.num" unicode="&#xe41f;" horiz-adv-x="966" 
d="M86 1128q0 150 108 246t287 96q181 0 290.5 -95t109.5 -245q0 -102 -37 -179.5t-123 -180.5l-189 -223h-296l284 340q-53 -53 -147 -53q-129 0 -208 82.5t-79 211.5zM358 1128q0 -50 34.5 -83t90.5 -33q55 0 90 33.5t35 84.5t-35 84t-90 33q-57 0 -91 -33t-34 -86z" />
    <glyph glyph-name="cyrbreve" unicode="&#xf6d4;" 
d="M614 1407q48 0 71.5 29.5t23.5 74.5v33h249v-39q0 -143 -86.5 -234t-257.5 -91t-257.5 91t-86.5 234v39h250v-33q0 -45 22.5 -74.5t71.5 -29.5z" />
    <glyph glyph-name="f_i" unicode="&#xfb01;" horiz-adv-x="1619" 
d="M1137 1198v328h346v-328h-346zM53 788v273h248v143q0 143 84 223t246 80h366v-250h-229q-72 0 -103.5 -31.5t-31.5 -99.5v-65h313v-273h-313v-788h-332v788h-248zM1143 0v1061h334v-1061h-334z" />
    <glyph glyph-name="f_l" unicode="&#xfb02;" horiz-adv-x="1626" 
d="M53 788v273h248v143q0 143 84 223t246 80h366v-250h-229q-72 0 -103.5 -31.5t-31.5 -99.5v-65h313v-273h-313v-788h-332v788h-248zM1147 0v1507h334v-1507h-334z" />
    <glyph glyph-name="uni00200326" horiz-adv-x="1024" 
d="M618 -655h-215q73 132 93 231h-162v287h358v-213q0 -146 -74 -305z" />
    <glyph glyph-name="idotaccent" horiz-adv-x="620" 
d="M137 1198v328h346v-328h-346zM143 0v1061h334v-1061h-334z" />
    <glyph glyph-name="ringacute" 
d="M461 1800l182 326h332l-197 -326h-317zM614 1171q-124 0 -204 80t-80 199q0 122 80 201.5t204 79.5q126 0 206.5 -79.5t80.5 -201.5q0 -119 -81.5 -199t-205.5 -80zM614 1335q49 0 81 32.5t32 82.5q0 51 -31.5 83t-81.5 32t-81 -32t-31 -83q0 -50 31.5 -82.5t80.5 -32.5z
" />
    <glyph glyph-name="f_b" horiz-adv-x="2308" 
d="M53 788v273h248v143q0 143 84 223t246 80h366v-250h-229q-72 0 -103.5 -31.5t-31.5 -99.5v-65h313v-273h-313v-788h-332v788h-248zM1468 150v-150h-325v1507h330v-600q7 18 26.5 42.5t55.5 57t95.5 54.5t129.5 22q193 0 315.5 -147t122.5 -406t-122.5 -406t-315.5 -147
q-58 0 -109.5 15t-84 35.5t-60 47t-39 43.5t-19.5 32zM1468 530q0 -123 55.5 -196.5t151.5 -73.5q95 0 151 74t56 196t-56 196.5t-151 74.5q-96 0 -151.5 -74t-55.5 -197z" />
    <glyph glyph-name="f_h" horiz-adv-x="2304" 
d="M53 788v273h248v143q0 143 84 223t246 80h366v-250h-229q-72 0 -103.5 -31.5t-31.5 -99.5v-65h313v-273h-313v-788h-332v788h-248zM1143 0v1507h330v-585q36 61 114 111t189 50q179 0 286 -119.5t107 -316.5v-647h-332v586q0 97 -47.5 152t-132.5 55q-86 0 -135 -55.5
t-49 -151.5v-586h-330z" />
    <glyph glyph-name="f_j" horiz-adv-x="1622" 
d="M1139 1198v328h346v-328h-346zM53 788v273h248v143q0 143 84 223t246 80h366v-250h-229q-72 0 -103.5 -31.5t-31.5 -99.5v-65h313v-273h-313v-788h-332v788h-248zM1479 -61q0 -183 -81.5 -266t-250.5 -83h-359v256h216q77 0 109 32.5t32 105.5v1077h334v-1122z" />
    <glyph glyph-name="f_k" horiz-adv-x="2246" 
d="M53 788v273h248v143q0 143 84 223t246 80h366v-250h-229q-72 0 -103.5 -31.5t-31.5 -99.5v-65h313v-273h-313v-788h-332v788h-248zM1143 0v1507h332v-864l350 418h397l-414 -490l457 -571h-416l-374 467v-467h-332z" />
    <glyph glyph-name="uni0414.bgr" horiz-adv-x="1613" 
d="M1296 -332v332h-979v-332h-315v637h141l473 1151h379l475 -1151h142v-637h-316zM489 305h613l-305 754z" />
    <glyph glyph-name="uni041B.bgr" horiz-adv-x="1536" 
d="M940 1456l559 -1456h-395l-354 1001l-353 -1001h-360l532 1456h371z" />
    <glyph glyph-name="uni0432.bgr" horiz-adv-x="1265" 
d="M127 500v522q0 105 32 196.5t93 162.5t160 112t223 41q229 0 361 -118.5t132 -309.5q0 -118 -51 -201.5t-139 -124.5q109 -41 171 -129t62 -217q0 -207 -139.5 -335t-382.5 -128q-262 0 -392 139.5t-130 389.5zM633 1251q-89 0 -132.5 -56.5t-43.5 -160.5v-141h151
q193 0 193 182q0 83 -45 129.5t-123 46.5zM457 463q0 -211 192 -211q95 0 144 51t49 137q0 87 -52 131.5t-167 44.5h-166v-153z" />
    <glyph glyph-name="uni0433.bgr" horiz-adv-x="1153" 
d="M518 395q-63 -6 -89 -29t-26 -65q0 -43 41 -66.5t117 -23.5q78 0 122 27t60 57h338q-6 -41 -25.5 -82.5t-59.5 -86t-95 -78t-141 -55.5t-189 -22q-245 0 -372 92t-127 254q0 159 105 248t329 107q8 1 33.5 3t45.5 3.5t29 1.5q115 12 115 86q0 40 -36.5 64t-102.5 24
t-107.5 -21t-56.5 -47h-330q8 41 26.5 80t56.5 80.5t90.5 72.5t134 51t180.5 20q220 0 347.5 -91.5t127.5 -255.5q0 -155 -111.5 -235.5t-304.5 -99.5q-59 -9 -125 -13z" />
    <glyph glyph-name="uni0434.bgr" horiz-adv-x="1296" 
d="M827 164q-7 -14 -18.5 -30.5t-37.5 -43t-57.5 -47t-79.5 -36t-102 -15.5q-189 0 -314.5 148.5t-125.5 396.5q0 249 125 396.5t315 147.5q54 0 101.5 -15t78.5 -35t56.5 -46t36.5 -42t18 -30v148h330v-1024q0 -216 -133 -342.5t-397 -126.5q-105 0 -194 24.5t-145 61
t-98 82t-61 83t-25 68.5h365q51 -61 158 -61q98 0 151 54.5t53 154.5v129zM827 537q0 118 -54.5 190t-143.5 72q-92 0 -147.5 -71.5t-55.5 -190.5t55.5 -192t147.5 -73q89 0 143.5 73t54.5 192z" />
    <glyph glyph-name="uni0436.bgr" horiz-adv-x="1765" 
d="M715 0v457l-332 -457h-401l411 553l-373 508h386l309 -428v874h334v-874l307 428h385l-371 -506l414 -555h-404l-331 457v-457h-334z" />
    <glyph glyph-name="uni0437.bgr" horiz-adv-x="1169" 
d="M1100 25q0 -205 -142 -330t-387 -125q-104 0 -191.5 26.5t-146 69.5t-100.5 99t-63 113t-25 114h330q5 -17 16 -35.5t32.5 -44.5t59.5 -42.5t86 -16.5q98 0 149.5 49.5t51.5 130.5q0 90 -48 134t-155 44h-157v276h141q178 0 178 166q0 71 -44 111.5t-122 40.5
q-77 0 -119 -38t-55 -89h-319q4 60 24.5 117.5t61 110.5t96.5 93t137 64t176 24q232 0 362 -109.5t130 -307.5q0 -112 -57.5 -186.5t-137.5 -106.5q99 -32 168.5 -120t69.5 -232z" />
    <glyph glyph-name="uni0438.bgr" horiz-adv-x="1290" 
d="M467 463q0 -92 46 -143.5t128 -51.5q84 0 131 52t47 143v598h330v-1061h-330v129q-35 -59 -111.5 -106.5t-185.5 -47.5q-176 0 -281.5 116.5t-105.5 309.5v660h332v-598z" />
    <glyph glyph-name="uni0439.bgr" horiz-adv-x="1290" 
d="M647 1409q48 0 71 29.5t23 74.5v33h250v-39q0 -143 -86.5 -234t-257.5 -91t-257.5 91t-86.5 234v39h250v-33q0 -45 22.5 -74.5t71.5 -29.5zM467 463q0 -92 46 -143.5t128 -51.5q84 0 131 52t47 143v598h330v-1061h-330v129q-35 -59 -111.5 -106.5t-185.5 -47.5
q-176 0 -281.5 116.5t-105.5 309.5v660h332v-598z" />
    <glyph glyph-name="uni043A.bgr" horiz-adv-x="1247" 
d="M143 0v1507h332v-864l350 418h398l-414 -490l457 -571h-416l-375 467v-467h-332z" />
    <glyph glyph-name="uni043B.bgr" horiz-adv-x="1173" 
d="M10 0l391 1067h344l418 -1067h-375l-221 631l-219 -631h-338z" />
    <glyph glyph-name="uni043D.bgr" horiz-adv-x="1300" 
d="M143 0v1061h332v-379h352v379h332v-1061h-332v406h-352v-406h-332z" />
    <glyph glyph-name="uni043F.bgr" horiz-adv-x="1304" 
d="M143 0v1061h330v-137q35 60 113 109.5t190 49.5q179 0 286 -118t107 -314v-651h-331v590q0 95 -48 149t-133 54q-86 0 -135 -54.5t-49 -148.5v-590h-330z" />
    <glyph glyph-name="uni0442.bgr" horiz-adv-x="1980" 
d="M143 0v1061h330v-131q34 57 110.5 105t186.5 48q113 0 197.5 -48.5t132.5 -137.5q18 31 44 59.5t67 59t102 49t133 18.5q184 0 291.5 -118t107.5 -308v-657h-332v596q0 91 -46 144t-130 53q-85 0 -131.5 -53.5t-46.5 -143.5v-596h-332v596q0 91 -46 144t-130 53
q-85 0 -131.5 -53.5t-46.5 -143.5v-596h-330z" />
    <glyph glyph-name="uni0446.bgr" horiz-adv-x="1333" 
d="M467 463q0 -92 46 -143.5t128 -51.5q84 0 131 52t47 143v598h330v-785h178v-581h-297v305h-211v129q-35 -59 -111.5 -106.5t-185.5 -47.5q-176 0 -281.5 116.5t-105.5 309.5v660h332v-598z" />
    <glyph glyph-name="uni0447.bgr" horiz-adv-x="1249" 
d="M776 0v348q-92 -18 -221 -18q-221 0 -330.5 104t-109.5 340v287h331v-277q0 -97 36 -138.5t130 -41.5q44 0 85 3.5t60 6.5l19 4v443h332v-1061h-332z" />
    <glyph glyph-name="uni0448.bgr" horiz-adv-x="1980" 
d="M1837 1061v-1061h-330v131q-34 -58 -110.5 -106t-186.5 -48q-112 0 -196.5 49t-132.5 138q-18 -31 -44 -59.5t-67 -59.5t-102 -49.5t-133 -18.5q-184 0 -292 118t-108 308v658h332v-596q0 -91 46 -144t130 -53q85 0 131.5 53.5t46.5 143.5v596h332v-596q0 -91 46 -144
t130 -53q85 0 131.5 53.5t46.5 143.5v596h330z" />
    <glyph glyph-name="uni0449.bgr" horiz-adv-x="2021" 
d="M1837 1061v-785h178v-581h-297v305h-211v131q-34 -58 -110.5 -106t-186.5 -48q-112 0 -196.5 49t-132.5 138q-18 -31 -44 -59.5t-67 -59.5t-102 -49.5t-133 -18.5q-184 0 -292 118t-108 308v658h332v-596q0 -91 46 -144t130 -53q85 0 131.5 53.5t46.5 143.5v596h332v-596
q0 -91 46 -144t130 -53q85 0 131.5 53.5t46.5 143.5v596h330z" />
    <glyph glyph-name="uni044A.bgr" horiz-adv-x="1380" 
d="M53 1061h598v-305h172q251 0 373.5 -102.5t122.5 -278.5q0 -77 -26.5 -145t-82.5 -127.5t-156 -94.5t-233 -35q-108 0 -195 23.5t-143.5 62.5t-94 91.5t-53.5 108.5t-16 116v409h-266v277zM651 375q0 -66 44.5 -107t125.5 -41q76 0 120 41t44 107q0 57 -45 92t-127 35
h-162v-127z" />
    <glyph glyph-name="uni044C.bgr" horiz-adv-x="1200" 
d="M1139 375q0 -77 -26.5 -145t-82.5 -127.5t-156 -94.5t-233 -35q-108 0 -195 23.5t-143.5 62.5t-94 91.5t-53.5 108.5t-16 116v686h332v-305h172q251 0 373.5 -102.5t122.5 -278.5zM471 375q0 -66 44.5 -107t125.5 -41q76 0 120 41t44 107q0 57 -45 92t-127 35h-162v-127z
" />
    <glyph glyph-name="uni044E.bgr" horiz-adv-x="1740" 
d="M143 0v1507h332v-825h131q41 187 180 296t336 109q235 0 384 -153t149 -404q0 -250 -149 -403.5t-384 -153.5q-202 0 -343.5 117.5t-178.5 315.5h-125v-406h-332zM1122 256q95 0 147 75.5t52 198.5q0 122 -52 198.5t-147 76.5q-94 0 -146 -77t-52 -198
q0 -123 51.5 -198.5t146.5 -75.5z" />
    <glyph glyph-name="uni0431.locl" horiz-adv-x="1253" 
d="M1167 496q0 -233 -151 -378t-389 -145t-389.5 146t-151.5 381q0 136 63.5 248.5t184.5 181.5q-146 76 -146 231q0 149 103.5 229.5t322.5 90.5q104 5 473 37v-283q-255 -28 -448 -37q-86 -4 -121 -25t-35 -59q0 -20 11.5 -33.5t39.5 -23.5t52.5 -15.5t75 -15t81.5 -16.5
q68 -14 126.5 -38.5t114.5 -66t95.5 -97t63.5 -135.5t24 -177zM627 256q99 0 153 67t54 173q0 107 -53.5 173t-153.5 66q-98 0 -152.5 -66.5t-54.5 -172.5q0 -105 54.5 -172.5t152.5 -67.5z" />
    <glyph glyph-name="uni0433.locl" horiz-adv-x="989" 
d="M143 0v1061h785v-277h-453v-784h-332z" />
    <glyph glyph-name="uni0434.locl" horiz-adv-x="1306" 
d="M322 -305h-297v581h104q89 151 107 445l24 340h862v-785h178v-581h-296v305h-682v-305zM791 276v508h-250l-6 -77q-12 -167 -32 -264.5t-57 -166.5h345z" />
    <glyph glyph-name="uni043F.locl" horiz-adv-x="1288" 
d="M143 0v1061h1002v-1061h-332v784h-338v-784h-332z" />
    <glyph glyph-name="uni0442.locl" horiz-adv-x="1122" 
d="M395 0v784h-334v277h1000v-277h-334v-784h-332z" />
    <glyph glyph-name="uni040E.scalt" horiz-adv-x="1323" 
d="M715 1536q51 0 76.5 30t25.5 74v21h252v-27q0 -143 -89.5 -234t-264.5 -91t-265 91t-90 234v27h252v-21q0 -44 25.5 -74t77.5 -30zM80 340v43h301v-45q0 -46 16.5 -67t51.5 -21q36 0 56 21t52 83l-506 846h393l279 -493l235 493h351l-441 -887q-44 -88 -82.5 -145.5
t-89 -104.5t-113.5 -68.5t-143 -21.5q-174 0 -267 95.5t-93 271.5z" />
    <glyph glyph-name="uni0423.scalt" horiz-adv-x="1323" 
d="M80 340v43h301v-45q0 -46 16.5 -67t51.5 -21q36 0 56 21t52 83l-506 846h393l279 -493l235 493h351l-441 -887q-44 -88 -82.5 -145.5t-89 -104.5t-113.5 -68.5t-143 -21.5q-174 0 -267 95.5t-93 271.5z" />
    <glyph glyph-name="uni04EE.scalt" horiz-adv-x="1323" 
d="M1081 1362h-721v250h721v-250zM80 340v43h301v-45q0 -46 16.5 -67t51.5 -21q36 0 56 21t52 83l-506 846h393l279 -493l235 493h351l-441 -887q-44 -88 -82.5 -145.5t-89 -104.5t-113.5 -68.5t-143 -21.5q-174 0 -267 95.5t-93 271.5z" />
    <glyph glyph-name="uni04F2.scalt" horiz-adv-x="1323" 
d="M762 1323l158 332h315l-170 -332h-303zM317 1323l150 332h317l-163 -332h-304zM80 340v43h301v-45q0 -46 16.5 -67t51.5 -21q36 0 56 21t52 83l-506 846h393l279 -493l235 493h351l-441 -887q-44 -88 -82.5 -145.5t-89 -104.5t-113.5 -68.5t-143 -21.5q-174 0 -267 95.5
t-93 271.5z" />
    <glyph glyph-name="uni0414.bgrsc" horiz-adv-x="1437" 
d="M1112 -332v332h-788v-332h-304v627h144l362 907h365l385 -907h141v-627h-305zM494 295h424l-213 547z" />
    <glyph glyph-name="uni041B.bgrsc" horiz-adv-x="1327" 
d="M831 1202l451 -1202h-381l-256 754l-252 -754h-350l424 1202h364z" />
    <glyph glyph-name="hyphen.uc" horiz-adv-x="1003" 
d="M156 541v305h692v-305h-692z" />
    <glyph glyph-name="endash.uc" horiz-adv-x="1458" 
d="M156 582v223h1147v-223h-1147z" />
    <glyph glyph-name="emdash.uc" horiz-adv-x="2099" 
d="M156 582v223h1788v-223h-1788z" />
    <glyph glyph-name="quoteleft.uc" horiz-adv-x="671" 
d="M262 1454h230q-129 -215 -142 -387h178v-365h-376v318q0 237 110 434z" />
    <glyph glyph-name="quoteright.uc" horiz-adv-x="671" 
d="M410 702h-228q127 219 140 388h-177v364h375v-317q0 -238 -110 -435z" />
    <glyph glyph-name="quotedblleft.uc" horiz-adv-x="1191" 
d="M262 1454h230q-129 -215 -142 -387h172v-365h-370v318q0 237 110 434zM788 1454h228q-126 -217 -139 -387h172v-365h-371v318q0 237 110 434z" />
    <glyph glyph-name="quotedblright.uc" horiz-adv-x="1191" 
d="M930 702h-228q130 216 140 388h-172v364h372v-317q0 -241 -112 -435zM403 702h-227q128 215 139 388h-170v364h371v-317q0 -239 -113 -435z" />
    <glyph glyph-name="guilsinglleft.uc" horiz-adv-x="747" 
d="M326 1051h305l-219 -385l219 -392h-307l-211 390z" />
    <glyph glyph-name="guilsinglright.uc" horiz-adv-x="747" 
d="M422 274h-305l217 388l-217 389h307l211 -387z" />
    <glyph glyph-name="at.uc" horiz-adv-x="2076" 
d="M1550 1163l-100 -588q-9 -56 10 -88t68 -32q96 0 163.5 106t67.5 299q0 275 -176.5 433.5t-499.5 158.5q-159 0 -296 -54.5t-235 -152.5t-154 -239.5t-56 -309.5q0 -158 54.5 -292t152.5 -229t241 -148.5t314 -53.5q288 0 495 150h308q-28 -46 -70 -91t-113 -95.5
t-156 -88.5t-206.5 -63t-257.5 -25q-235 0 -427 73t-317 200.5t-192.5 298.5t-67.5 368q0 274 125.5 493t350 342.5t507.5 123.5q176 0 324 -41t254 -114.5t180 -174t110 -219t36 -250.5q0 -177 -58.5 -316t-168.5 -217.5t-255 -78.5q-107 0 -177 35t-97 94
q-39 -55 -108.5 -92t-159.5 -37q-176 0 -288 118t-112 324q0 213 119 351.5t309 138.5q89 0 152 -39.5t92 -98.5l22 121h293zM1040 918q-76 0 -124 -64t-48 -164q0 -81 38.5 -129.5t109.5 -48.5q75 0 122.5 64.5t47.5 164.5q0 80 -38.5 128.5t-107.5 48.5z" />
    <glyph glyph-name="exclamdown.uc" horiz-adv-x="710" 
d="M164 1454h383v-358h-383v358zM190 967h330v-967h-330v967z" />
    <glyph glyph-name="questiondown.uc" horiz-adv-x="1128" 
d="M860 1454v-360h-383v360h383zM504 967h330v-74q0 -100 -32.5 -152t-139.5 -114l-140 -82q-56 -33 -85 -71t-29 -89q0 -64 40 -100.5t111 -36.5q73 0 113.5 43.5t40.5 116.5v53h323v-76q0 -187 -126.5 -298.5t-350.5 -111.5q-232 0 -358.5 108.5t-126.5 301.5
q0 144 65 234t211 174l101 61q31 18 42 39t11 59v15z" />
    <glyph glyph-name="acute.uc" 
d="M330 1575l211 332h358l-227 -332h-342z" />
    <glyph glyph-name="grave.uc" 
d="M899 1575h-342l-227 332h358z" />
    <glyph glyph-name="hungarumlaut.uc" 
d="M600 1575l158 332h315l-170 -332h-303zM156 1575l149 332h318l-164 -332h-303z" />
    <glyph glyph-name="circumflex.uc" 
d="M657 1573l-125 153l-124 -153h-306l273 340h315l266 -340h-299z" />
    <glyph glyph-name="caron.uc" 
d="M92 1913h303l131 -158l131 158h306l-279 -340h-315z" />
    <glyph glyph-name="breve.uc" 
d="M614 1788q51 0 77 30t26 74v21h252v-27q0 -143 -90 -234t-265 -91t-264.5 91t-89.5 234v27h252v-21q0 -44 25 -74t77 -30z" />
    <glyph glyph-name="tilde.uc" 
d="M625 1636l-70 35q-44 21 -57 21q-29 0 -29 -41v-82h-231v178q0 91 47.5 145t136.5 54q32 0 65 -9t52.5 -18.5t64.5 -32.5l68 -35q39 -20 59 -20q29 0 29 41v84h231v-180q0 -91 -47.5 -144t-136.5 -53q-48 0 -86 13t-96 44z" />
    <glyph glyph-name="macron.uc" horiz-adv-x="1024" 
d="M872 1616h-720v250h720v-250z" />
    <glyph glyph-name="dieresis.uc" 
d="M213 1575v323h328v-323h-328zM688 1575v323h328v-323h-328z" />
    <glyph glyph-name="dotaccent.uc" 
d="M440 1575v326h348v-326h-348z" />
    <glyph glyph-name="ring.uc" 
d="M614 1554q-125 0 -205.5 80t-80.5 201q0 122 80.5 201.5t205.5 79.5q126 0 207.5 -79.5t81.5 -201.5q0 -121 -82 -201t-207 -80zM614 1718q49 0 81 33t32 84t-31 83t-82 32t-81.5 -32t-30.5 -83t31.5 -84t80.5 -33z" />
    <glyph glyph-name="cyrbreve.uc" 
d="M614 1788q51 0 77 30t26 74v21h252v-27q0 -143 -90 -234t-265 -91t-264.5 91t-89.5 234v27h252v-21q0 -44 25 -74t77 -30z" />
    <glyph glyph-name="guillemotleft.uc" horiz-adv-x="1236" 
d="M319 1051h306l-213 -385l213 -392h-308l-204 390zM817 1051h305l-217 -385l217 -392h-307l-209 390z" />
    <glyph glyph-name="guillemotright.uc" horiz-adv-x="1236" 
d="M918 274h-306l213 388l-211 389h308l202 -387zM422 274h-305l215 388l-215 389h305l209 -387z" />
    <glyph glyph-name="ringacute.uc" 
d="M455 2185l200 301h353l-217 -301h-336zM614 1554q-125 0 -205.5 80t-80.5 201q0 122 80.5 201.5t205.5 79.5q126 0 207.5 -79.5t81.5 -201.5q0 -121 -82 -201t-207 -80zM614 1718q49 0 81 33t32 84t-31 83t-82 32t-81.5 -32t-30.5 -83t31.5 -84t80.5 -33z" />
    <glyph glyph-name="uni02BC.uc" horiz-adv-x="673" 
d="M410 702h-228q127 219 140 388h-177v364h375v-317q0 -238 -110 -435z" />
    <glyph glyph-name="zero.old" horiz-adv-x="1357" 
d="M682 1225q167 0 297.5 -79t203 -221.5t72.5 -324.5q0 -179 -72 -322t-203.5 -224t-297.5 -81q-170 0 -303 81t-205 223.5t-72 322.5q0 277 160.5 451t419.5 174zM682 270q108 0 170.5 95.5t62.5 234.5q0 140 -62.5 234t-170.5 94q-111 0 -175.5 -94.5t-64.5 -233.5
t64.5 -234.5t175.5 -95.5z" />
    <glyph glyph-name="one.old" horiz-adv-x="923" 
d="M729 0h-338v834l-303 -172v313l387 235h254v-1210z" />
    <glyph glyph-name="two.old" horiz-adv-x="1263" 
d="M1184 274v-274h-1061v225l469 314q92 64 131 117.5t39 121.5t-40.5 112t-111.5 44q-73 0 -114 -51.5t-41 -128.5v-33h-328v41q0 95 32 178.5t91.5 147t152.5 100.5t207 37q233 0 362.5 -118.5t129.5 -313.5q0 -149 -83 -259.5t-239 -197.5l-106 -62h510z" />
    <glyph glyph-name="three.old" horiz-adv-x="1288" 
d="M631 18q95 0 147.5 46t52.5 124q0 77 -44.5 117.5t-129.5 40.5h-258v291h240q74 0 113 36t39 105q0 72 -46.5 114t-126.5 42q-81 0 -123.5 -44t-54.5 -99h-336q2 63 22 124t62 117.5t101 99t144 68t185 25.5q245 0 381 -110.5t136 -307.5q0 -58 -18 -108.5t-48 -85
t-62 -58t-67 -37.5q43 -13 82 -38.5t75 -66.5t57.5 -105t21.5 -142q0 -202 -145 -323.5t-398 -121.5q-110 0 -202 28t-153 73.5t-105 105.5t-65.5 121t-25.5 123h344q12 -57 62.5 -105.5t142.5 -48.5z" />
    <glyph glyph-name="four.old" horiz-adv-x="1402" 
d="M1343 139h-253v-393h-332v393h-690v221l630 840h392v-776h253v-285zM414 424h344v465z" />
    <glyph glyph-name="five.old" horiz-adv-x="1302" 
d="M477 358h-305v842h975v-278h-653v-281q90 102 254 102q190 0 315 -133.5t125 -359.5q0 -231 -146 -378.5t-397 -147.5q-109 0 -200 28t-152.5 74.5t-105 108.5t-63.5 128t-22 134h344q4 -28 17 -56t35.5 -56t60.5 -45t86 -17q88 0 143.5 64t55.5 159q0 101 -53 162
t-144 61q-116 0 -170 -111z" />
    <glyph glyph-name="six.old" horiz-adv-x="1292" 
d="M1188 508q0 -152 -65 -272.5t-189 -190.5t-287 -70q-247 0 -396 149t-149 384q0 83 16.5 156.5t52.5 145.5t70.5 125t92.5 132l287 387h372l-401 -539q80 68 205 68q174 0 282.5 -132t108.5 -343zM852 508q0 104 -56 172t-151 68q-92 0 -148.5 -68.5t-56.5 -171.5
q0 -104 56 -171t149 -67q95 0 151 67t56 171z" />
    <glyph glyph-name="seven.old" horiz-adv-x="1181" 
d="M504 -254h-381l575 1153h-614v301h1018v-217z" />
    <glyph glyph-name="eight.old" horiz-adv-x="1333" 
d="M686 1479q240 0 375 -111t135 -293q0 -71 -20.5 -130.5t-54.5 -98.5t-68.5 -63t-71.5 -38q41 -14 79.5 -39.5t75.5 -67t60 -104.5t23 -139q0 -191 -143 -305.5t-390 -114.5h-41q-245 0 -387.5 114.5t-142.5 305.5q0 76 23 139t60.5 104.5t77 67t80.5 39.5
q-38 14 -72.5 38t-69 63t-55 98.5t-20.5 130.5q0 182 134.5 293t373.5 111h39zM477 1042q0 -78 52.5 -125t132.5 -47h10q81 0 132.5 47t51.5 125t-51.5 124t-132.5 46h-10q-80 0 -132.5 -46t-52.5 -124zM461 426q0 -84 56 -134t140 -50h19q85 0 140.5 50t55.5 134t-55.5 134
t-140.5 50h-19q-84 0 -140 -50t-56 -134z" />
    <glyph glyph-name="nine.old" horiz-adv-x="1292" 
d="M102 692q0 233 148.5 383t394.5 150q247 0 395 -149t148 -384q0 -83 -16.5 -157t-51.5 -144.5t-70 -124.5t-92 -131l-286 -389h-373l403 541q-78 -70 -206 -70q-176 0 -285 132t-109 343zM440 692q0 -104 55.5 -171.5t149.5 -67.5q93 0 150 68t57 171t-56.5 170.5
t-150.5 67.5q-93 0 -149 -67t-56 -171z" />
    <glyph glyph-name="four.denalt" horiz-adv-x="1067" 
d="M127 238v669h266v-446h174v340h267v-340h172v-223h-172v-238h-267v238h-440z" />
    <glyph glyph-name="four.numalt" horiz-adv-x="1067" 
d="M127 782v672h266v-446h174v338h267v-338h172v-226h-172v-235h-267v235h-440z" />
    <glyph glyph-name="four.oldalt" horiz-adv-x="1443" 
d="M170 160v1040h340v-737h272v559h340v-559h254v-303h-254v-414h-340v414h-612z" />
    <glyph glyph-name="four.subalt" horiz-adv-x="1181" 
d="M135 -2v760h281v-518h215v395h280v-395h201v-242h-201v-277h-280v277h-496z" />
    <glyph glyph-name="four.supalt" horiz-adv-x="1181" 
d="M135 748v759h281v-518h215v395h280v-395h201v-241h-201v-277h-280v277h-496z" />
    <glyph glyph-name="four.tabalt" horiz-adv-x="1331" 
d="M135 403v1051h328v-756h270v564h330v-564h201v-295h-201v-403h-330v403h-598z" />
    <glyph glyph-name="won.tabalt" horiz-adv-x="1341" 
d="M59 592v276h134l-95 586h264l103 -838l92 838h252l92 -838l100 838h248l-84 -586h117v-276h-156l-86 -592h-243l-115 850l-113 -850h-239l-94 592h-177z" />
    <glyph glyph-name="space.tab" horiz-adv-x="665" 
 />
    <glyph glyph-name="zero.tab" horiz-adv-x="1331" 
d="M666 1481q256 0 402 -142.5t146 -390.5v-442q0 -250 -146 -391.5t-402 -141.5t-402.5 141.5t-146.5 391.5v442q0 248 146.5 390.5t402.5 142.5zM666 281q103 0 157 64t54 171v422q0 107 -54.5 171.5t-156.5 64.5t-156.5 -64.5t-54.5 -171.5v-422q0 -107 54 -171t157 -64z
" />
    <glyph glyph-name="one.tab" horiz-adv-x="1331" 
d="M987 0h-340v1079l-422 -237v317l508 301h254v-1460z" />
    <glyph glyph-name="two.tab" horiz-adv-x="1331" 
d="M1257 297v-297h-1128v225l543 490q90 84 129 145t39 135q0 80 -50 130.5t-137 50.5q-86 0 -136 -56t-50 -145v-78h-334v88q0 139 59 249.5t178.5 177.5t282.5 67q250 0 390.5 -128.5t140.5 -342.5q0 -81 -21.5 -151.5t-69 -135.5t-95 -114.5t-126.5 -119.5l-208 -190h593
z" />
    <glyph glyph-name="three.tab" horiz-adv-x="1331" 
d="M653 274q107 0 167.5 45t60.5 121q0 78 -45.5 118t-130.5 40h-289v293h266q75 0 116.5 36t41.5 103q0 73 -53 114.5t-146 41.5q-95 0 -143 -43.5t-60 -98.5h-338q2 63 23.5 124t65.5 117.5t105.5 99.5t151 68.5t195.5 25.5q257 0 399 -110.5t142 -307.5
q0 -110 -56.5 -184t-132.5 -105q44 -13 83.5 -38.5t75 -66.5t56.5 -105t21 -142q0 -202 -153.5 -323.5t-420.5 -121.5q-116 0 -212.5 28t-161 73.5t-110.5 105.5t-68.5 121t-26.5 123h344q5 -25 20 -49.5t41 -48.5t71 -39t101 -15z" />
    <glyph glyph-name="four.tab" horiz-adv-x="1331" 
d="M1264 393h-217v-393h-324v393h-647v219l586 842h385v-780h217v-281zM399 674h324v473z" />
    <glyph glyph-name="five.tab" horiz-adv-x="1331" 
d="M465 618h-303v836h1012v-278h-693v-279q42 45 114 76t167 31q200 0 333.5 -134.5t133.5 -359.5v-8q0 -231 -153 -379t-414 -148q-116 0 -212 28t-160.5 75t-109.5 109t-66 128t-22 134h342q4 -27 18.5 -55t40 -55.5t70 -45t99.5 -17.5q99 0 162 63.5t63 158.5v6
q0 101 -61.5 161t-163.5 60q-46 0 -83.5 -12t-60 -31t-34.5 -34t-19 -30z" />
    <glyph glyph-name="six.tab" horiz-adv-x="1331" 
d="M1241 504q0 -232 -156.5 -380.5t-418.5 -148.5t-419 147.5t-157 379.5q0 84 15.5 156.5t50.5 142.5t73.5 128t100.5 138l305 387h377l-416 -528q80 55 199 55q200 0 323 -132t123 -345zM901 504q0 102 -63.5 166.5t-171.5 64.5q-105 0 -170.5 -65.5t-65.5 -167.5
q0 -99 64.5 -163.5t171.5 -64.5q108 0 171.5 64.5t63.5 165.5z" />
    <glyph glyph-name="seven.tab" horiz-adv-x="1331" 
d="M578 0h-379l616 1153h-698v301h1104v-219z" />
    <glyph glyph-name="eight.tab" horiz-adv-x="1331" 
d="M694 1479q248 0 385.5 -110.5t137.5 -293.5q0 -58 -14 -108t-36.5 -85t-52.5 -63t-58.5 -44.5t-58.5 -26.5q42 -14 81.5 -40.5t78 -68t61.5 -105t23 -139.5q0 -191 -145.5 -305.5t-401.5 -114.5h-59q-255 0 -400 114.5t-145 305.5q0 76 23 139t61 104.5t78 67t82 39.5
q-38 14 -73.5 38t-70 63t-55 98.5t-20.5 130.5q0 183 137.5 293.5t384.5 110.5h57zM455 1042q0 -79 54 -125.5t142 -46.5h31q89 0 143 46.5t54 125.5t-54 124.5t-143 45.5h-31q-89 0 -142.5 -45.5t-53.5 -124.5zM438 426q0 -85 58 -134.5t151 -49.5h39q92 0 150.5 49.5
t58.5 134.5t-58.5 134.5t-150.5 49.5h-39q-93 0 -151 -49.5t-58 -134.5z" />
    <glyph glyph-name="nine.tab" horiz-adv-x="1331" 
d="M90 950q0 232 157 380.5t419 148.5t418.5 -147.5t156.5 -379.5q0 -84 -15.5 -156.5t-50.5 -142.5t-73.5 -128t-100.5 -138l-305 -387h-377l416 528q-80 -55 -198 -55q-201 0 -324 132t-123 345zM430 950q0 -102 64 -166.5t172 -64.5q105 0 170 65.5t65 167.5
q0 99 -64 163.5t-171 64.5q-108 0 -172 -65t-64 -165z" />
    <glyph glyph-name="percent.tab" horiz-adv-x="1996" 
d="M469 696q-167 0 -282 112.5t-115 278.5t115 279t282 113t282 -113t115 -279t-115 -278.5t-282 -112.5zM322 0l1064 1454h291l-1067 -1454h-288zM469 934q65 0 107 44t42 109t-42 109.5t-107 44.5t-106 -44t-41 -110q0 -65 41 -109t106 -44zM1528 -29q-168 0 -283 113
t-115 278q0 166 115.5 279t282.5 113t282 -113t115 -279t-115 -278.5t-282 -112.5zM1528 209q65 0 106 44t41 109q0 66 -41 110t-106 44t-107.5 -44.5t-42.5 -109.5t42.5 -109t107.5 -44z" />
    <glyph glyph-name="perthousand.tab" horiz-adv-x="2662" 
d="M440 739q-158 0 -267.5 107t-109.5 264q0 155 109.5 262t267.5 107t267.5 -107t109.5 -262q0 -157 -109.5 -264t-267.5 -107zM520 0h-287l1067 1454h287zM440 971q60 0 97.5 39.5t37.5 99.5q0 58 -38 97.5t-97 39.5q-60 0 -97.5 -39.5t-37.5 -97.5q0 -61 37 -100t98 -39z
M1376 -29q-158 0 -266.5 106t-108.5 263t108.5 264t266.5 107t267.5 -107t109.5 -264q0 -156 -109 -262.5t-268 -106.5zM2222 -29q-160 0 -268.5 106t-108.5 263t109.5 264t267.5 107t267.5 -107t109.5 -264q0 -156 -109 -262.5t-268 -106.5zM1376 203q61 0 99 39t38 98
t-38 99t-99 40q-59 0 -97 -40t-38 -99t38 -98t97 -39zM2222 203q61 0 98 39t37 98q0 60 -37.5 99.5t-97.5 39.5q-59 0 -97 -40t-38 -99t38 -98t97 -39z" />
    <glyph glyph-name="period.tab" horiz-adv-x="665" 
d="M141 0v401h385v-401h-385z" />
    <glyph glyph-name="comma.tab" horiz-adv-x="702" 
d="M424 -410h-234q147 235 160 410h-182v401h383v-354q0 -242 -127 -457z" />
    <glyph glyph-name="colon.tab" horiz-adv-x="716" 
d="M168 653v402h383v-402h-383zM168 0v401h383v-401h-383z" />
    <glyph glyph-name="semicolon.tab" horiz-adv-x="716" 
d="M168 653v402h383v-402h-383zM424 -410h-234q147 235 160 410h-182v401h383v-354q0 -242 -127 -457z" />
    <glyph glyph-name="plus.tab" horiz-adv-x="1331" 
d="M510 100v426h-410v295h410v424h311v-424h410v-295h-410v-426h-311z" />
    <glyph glyph-name="minus.tab" horiz-adv-x="1331" 
d="M1214 522h-1097v303h1097v-303z" />
    <glyph glyph-name="divide.tab" horiz-adv-x="1331" 
d="M479 958v357h369v-357h-369zM1233 526h-1139v295h1139v-295zM479 20v357h369v-357h-369z" />
    <glyph glyph-name="multiply.tab" horiz-adv-x="1331" 
d="M1214 760h-1097v293h1097v-293zM1214 281h-1097v292h1097v-292z" />
    <glyph glyph-name="equal.tab" horiz-adv-x="1331" 
d="M121 317l332 336l-332 334l221 217l326 -332l327 332l215 -209l-331 -336l331 -337l-217 -211l-329 331l-328 -331z" />
    <glyph glyph-name="less.tab" horiz-adv-x="1331" 
d="M1143 420v-318l-973 422v277l973 420v-320l-584 -242z" />
    <glyph glyph-name="greater.tab" horiz-adv-x="1331" 
d="M1163 524l-973 -422v320l584 244l-584 237v318l973 -420v-277z" />
    <glyph glyph-name="dollar.tab" horiz-adv-x="1298" 
d="M500 -252v262q-175 33 -272 148t-97 284v9h322v-5q0 -83 51.5 -130.5t138.5 -47.5t133.5 38.5t46.5 103.5q0 60 -35 96t-106 57q-20 6 -85.5 24t-96.5 27q-177 54 -263.5 157t-86.5 280q0 156 93.5 261t256.5 138v248h288v-248q160 -34 243.5 -140t86.5 -263v-3h-317v3
q-3 64 -45.5 105.5t-116.5 41.5q-75 0 -118.5 -35.5t-43.5 -97.5q0 -58 34 -93t107 -57q20 -6 86.5 -24t96.5 -27q179 -52 266.5 -157t87.5 -283q0 -157 -96 -267t-271 -145v-260h-288z" />
    <glyph glyph-name="cent.tab" horiz-adv-x="1331" 
d="M557 -252v240q-175 42 -281 186.5t-106 355.5q0 210 106 355.5t281 187.5v232h289v-236q82 -20 148 -62.5t104.5 -94.5t60 -104.5t25.5 -102.5h-318q-12 32 -53 64t-115 32q-89 0 -141.5 -75t-52.5 -196q0 -120 53 -196t141 -76q42 0 75 11.5t52 30t29 32.5t16 28h318
q-3 -50 -23.5 -102.5t-59 -106.5t-106 -97.5t-153.5 -63.5v-242h-289z" />
    <glyph glyph-name="sterling.tab" horiz-adv-x="1400" 
d="M88 0v289h223v237h-223v289h223v219q0 208 119 326.5t348 118.5q233 0 351 -118t118 -327v-59h-315v49q0 81 -40.5 125.5t-113.5 44.5q-72 0 -110.5 -44t-38.5 -126v-209h370v-289h-370v-237h725v-289h-1266z" />
    <glyph glyph-name="yen.tab" horiz-adv-x="1341" 
d="M147 252v223h357v123h-357v223h332l-477 633h424l268 -375l267 375h380l-454 -633h334v-223h-359v-123h359v-223h-359v-252h-358v252h-357z" />
    <glyph glyph-name="won.tab" horiz-adv-x="1341" 
d="M59 592v276h125l-96 586h272l105 -827l90 827h256l92 -825l101 825h256l-86 -586h108v-276h-149l-89 -592h-247l-113 846l-111 -846h-247l-97 592h-170z" />
    <glyph glyph-name="Euro.tab" horiz-adv-x="1366" 
d="M57 451v223h211v123h-211v221h211q9 209 142 335t364 126q233 0 371.5 -127t144.5 -338h-317q-7 71 -57.5 123.5t-141.5 52.5q-87 0 -138.5 -47.5t-57.5 -124.5h280v-221h-280v-123h280v-223h-280q5 -86 56.5 -135.5t139.5 -49.5q93 0 144.5 54t54.5 133h317
q-4 -224 -143.5 -350t-372.5 -126q-236 0 -368 127t-138 347h-211z" />
    <glyph glyph-name="florin.tab" horiz-adv-x="1331" 
d="M145 643v272h297l33 232q22 157 106 232t257 75h403v-264h-289q-78 0 -110 -28.5t-43 -100.5l-21 -146h312v-272h-353l-153 -1053h-332l151 1053h-258z" />
    <glyph glyph-name="uni20B4.tab" horiz-adv-x="1331" 
d="M82 786v224h743q15 27 15 63q0 60 -44.5 95.5t-119.5 35.5q-73 0 -115.5 -31.5t-44.5 -80.5v-2h-317v2q3 176 124 279.5t355 103.5q219 0 354 -108.5t135 -281.5q0 -27 -6 -75h88v-224h-1167zM162 397q0 40 12 86h-92v224h1167v-224h-731q-22 -36 -22 -86
q0 -65 46.5 -103t133.5 -38t138.5 38.5t51.5 106.5v2h324v-6q0 -187 -137 -300t-377 -113q-241 0 -377.5 115.5t-136.5 297.5z" />
    <glyph glyph-name="uni20B8.tab" horiz-adv-x="1331" 
d="M102 1231v223h1125v-223h-1125zM496 0v807h-394v303h1125v-303h-383v-807h-348z" />
    <glyph glyph-name="uni20BD.tab" horiz-adv-x="1331" 
d="M63 231v224h187v123h-187v223h187v653h545q250 0 386 -113.5t136 -328.5q0 -208 -136.5 -321t-385.5 -113h-199v-123h389v-224h-389v-231h-346v231h-187zM760 1151h-164v-334h164q99 0 148.5 45t49.5 125q0 164 -198 164z" />
    <glyph glyph-name="uni2116.tab" horiz-adv-x="1331" 
d="M1067 657q-125 0 -194.5 113t-69.5 299q0 184 69.5 297t194.5 113t194.5 -113t69.5 -297q0 -186 -69.5 -299t-194.5 -113zM756 1454v-1462h-193l-248 799v-791h-229v1454h270l172 -569v569h228zM1067 874q34 0 53 53t19 142t-19 142t-53 53t-53 -53t-19 -142
q0 -90 18.5 -142.5t53.5 -52.5zM840 367v217h458v-217h-458z" />
    <glyph glyph-name="A.sc" horiz-adv-x="1361" 
d="M963 0l-62 180h-471l-61 -180h-324l436 1202h398l438 -1202h-354zM522 446h287l-141 416z" />
    <glyph glyph-name="Agrave.sc" horiz-adv-x="1361" 
d="M842 1321h-342l-228 332h359zM963 0l-62 180h-471l-61 -180h-324l436 1202h398l438 -1202h-354zM522 446h287l-141 416z" />
    <glyph glyph-name="Aacute.sc" horiz-adv-x="1361" 
d="M500 1321l211 332h358l-227 -332h-342zM963 0l-62 180h-471l-61 -180h-324l436 1202h398l438 -1202h-354zM522 446h287l-141 416z" />
    <glyph glyph-name="Acircumflex.sc" horiz-adv-x="1361" 
d="M793 1319l-125 154l-125 -154h-305l272 340h315l267 -340h-299zM963 0l-62 180h-471l-61 -180h-324l436 1202h398l438 -1202h-354zM522 446h287l-141 416z" />
    <glyph glyph-name="Atilde.sc" horiz-adv-x="1361" 
d="M676 1382l-70 35q-44 21 -57 21q-29 0 -29 -41v-82h-231v178q0 91 47.5 145t136.5 54q32 0 65 -9t52.5 -18.5t64.5 -32.5l68 -35q39 -20 59 -20q29 0 29 41v84h231v-180q0 -91 -47.5 -144t-136.5 -53q-48 0 -86 13t-96 44zM963 0l-62 180h-471l-61 -180h-324l436 1202
h398l438 -1202h-354zM522 446h287l-141 416z" />
    <glyph glyph-name="Adieresis.sc" horiz-adv-x="1361" 
d="M266 1321v324h328v-324h-328zM741 1321v324h328v-324h-328zM963 0l-62 180h-471l-61 -180h-324l436 1202h398l438 -1202h-354zM522 446h287l-141 416z" />
    <glyph glyph-name="Aring.sc" horiz-adv-x="1361" 
d="M668 1300q-125 0 -206 80t-81 201q0 122 80.5 201.5t206.5 79.5t207 -79.5t81 -201.5q0 -121 -81.5 -201t-206.5 -80zM668 1464q49 0 80.5 33t31.5 84t-30.5 83t-81.5 32t-82 -32t-31 -83t32 -84t81 -33zM963 0l-62 180h-471l-61 -180h-324l436 1202h398l438 -1202h-354z
M522 446h287l-141 416z" />
    <glyph glyph-name="Amacron.sc" horiz-adv-x="1361" 
d="M1028 1362h-721v250h721v-250zM963 0l-62 180h-471l-61 -180h-324l436 1202h398l438 -1202h-354zM522 446h287l-141 416z" />
    <glyph glyph-name="Abreve.sc" horiz-adv-x="1361" 
d="M668 1534q51 0 76.5 30t25.5 74v21h252v-27q0 -143 -89.5 -234t-264.5 -91t-265 91t-90 234v27h252v-21q0 -44 25.5 -74t77.5 -30zM963 0l-62 180h-471l-61 -180h-324l436 1202h398l438 -1202h-354zM522 446h287l-141 416z" />
    <glyph glyph-name="Aogonek.sc" horiz-adv-x="1361" 
d="M819 -227q0 66 39 119t105 108l-62 180h-471l-61 -180h-324l436 1202h398l438 -1202q-11 -9 -30.5 -24.5t-29 -24t-24 -21t-22 -20t-15.5 -17.5t-11 -18t-3 -16q0 -45 57 -45h121v-224h-293q-115 0 -181.5 47t-66.5 136zM522 446h287l-141 416z" />
    <glyph glyph-name="uni01FA.sc" horiz-adv-x="1361" 
d="M508 1931l201 301h352l-217 -301h-336zM668 1300q-125 0 -206 80t-81 201q0 122 80.5 201.5t206.5 79.5t207 -79.5t81 -201.5q0 -121 -81.5 -201t-206.5 -80zM668 1464q49 0 80.5 33t31.5 84t-30.5 83t-81.5 32t-82 -32t-31 -83t32 -84t81 -33zM963 0l-62 180h-471
l-61 -180h-324l436 1202h398l438 -1202h-354zM522 446h287l-141 416z" />
    <glyph glyph-name="B.sc" horiz-adv-x="1396" 
d="M182 0v1200h678q186 0 287.5 -86t101.5 -231q0 -93 -51.5 -157.5t-126.5 -90.5q90 -26 150.5 -101t60.5 -192q0 -158 -110.5 -250t-315.5 -92h-674zM786 948h-272v-209h272q55 0 87 26.5t32 78.5q0 104 -119 104zM780 492h-266v-240h266q154 0 154 121q0 119 -154 119z
" />
    <glyph glyph-name="C.sc" horiz-adv-x="1296" 
d="M682 -23q-254 0 -410.5 168t-156.5 455q0 285 156.5 454t410.5 169q103 0 189.5 -28t143.5 -71.5t97.5 -100.5t60 -112.5t23.5 -109.5h-326q-16 46 -62 84.5t-126 38.5q-104 0 -162.5 -90t-58.5 -234t58.5 -234t162.5 -90q82 0 127 37.5t63 85.5h324q-3 -47 -19.5 -99.5
t-55.5 -111.5t-95 -104.5t-145.5 -76t-198.5 -30.5z" />
    <glyph glyph-name="Ccedilla.sc" horiz-adv-x="1296" 
d="M739 -322q0 54 -65 54h-160v268q-184 50 -291.5 208t-107.5 392q0 285 156.5 454t410.5 169q103 0 189.5 -28t143.5 -71.5t97.5 -100.5t60 -112.5t23.5 -109.5h-326q-16 46 -62 84.5t-126 38.5q-104 0 -162.5 -90t-58.5 -234t58.5 -234t162.5 -90q82 0 127 37.5t63 85.5
h324q-3 -45 -17.5 -93.5t-49 -104t-83 -100t-125.5 -78t-171 -41.5v-70q116 -1 179.5 -65t63.5 -177q0 -121 -69 -189.5t-201 -68.5h-254v211h205q65 0 65 55z" />
    <glyph glyph-name="Cacute.sc" horiz-adv-x="1296" 
d="M514 1321l211 332h358l-227 -332h-342zM682 -23q-254 0 -410.5 168t-156.5 455q0 285 156.5 454t410.5 169q103 0 189.5 -28t143.5 -71.5t97.5 -100.5t60 -112.5t23.5 -109.5h-326q-16 46 -62 84.5t-126 38.5q-104 0 -162.5 -90t-58.5 -234t58.5 -234t162.5 -90
q82 0 127 37.5t63 85.5h324q-3 -47 -19.5 -99.5t-55.5 -111.5t-95 -104.5t-145.5 -76t-198.5 -30.5z" />
    <glyph glyph-name="Ccircumflex.sc" horiz-adv-x="1296" 
d="M807 1319l-125 154l-125 -154h-305l272 340h316l266 -340h-299zM682 -23q-254 0 -410.5 168t-156.5 455q0 285 156.5 454t410.5 169q103 0 189.5 -28t143.5 -71.5t97.5 -100.5t60 -112.5t23.5 -109.5h-326q-16 46 -62 84.5t-126 38.5q-104 0 -162.5 -90t-58.5 -234
t58.5 -234t162.5 -90q82 0 127 37.5t63 85.5h324q-3 -47 -19.5 -99.5t-55.5 -111.5t-95 -104.5t-145.5 -76t-198.5 -30.5z" />
    <glyph glyph-name="Cdotaccent.sc" horiz-adv-x="1296" 
d="M508 1321v326h348v-326h-348zM682 -23q-254 0 -410.5 168t-156.5 455q0 285 156.5 454t410.5 169q103 0 189.5 -28t143.5 -71.5t97.5 -100.5t60 -112.5t23.5 -109.5h-326q-16 46 -62 84.5t-126 38.5q-104 0 -162.5 -90t-58.5 -234t58.5 -234t162.5 -90q82 0 127 37.5
t63 85.5h324q-3 -47 -19.5 -99.5t-55.5 -111.5t-95 -104.5t-145.5 -76t-198.5 -30.5z" />
    <glyph glyph-name="Ccaron.sc" horiz-adv-x="1296" 
d="M248 1659h303l131 -158l131 158h305l-278 -340h-316zM682 -23q-254 0 -410.5 168t-156.5 455q0 285 156.5 454t410.5 169q103 0 189.5 -28t143.5 -71.5t97.5 -100.5t60 -112.5t23.5 -109.5h-326q-16 46 -62 84.5t-126 38.5q-104 0 -162.5 -90t-58.5 -234t58.5 -234
t162.5 -90q82 0 127 37.5t63 85.5h324q-3 -47 -19.5 -99.5t-55.5 -111.5t-95 -104.5t-145.5 -76t-198.5 -30.5z" />
    <glyph glyph-name="D.sc" horiz-adv-x="1390" 
d="M182 0v1200h453q146 0 262.5 -36t202 -108t132 -188t46.5 -268q0 -294 -173.5 -447t-469.5 -153h-453zM631 915h-111v-628h111q143 0 223 82t80 231q0 155 -79 235t-224 80z" />
    <glyph glyph-name="Dcaron.sc" horiz-adv-x="1390" 
d="M219 1659h303l131 -158l131 158h306l-279 -340h-315zM182 0v1200h453q146 0 262.5 -36t202 -108t132 -188t46.5 -268q0 -294 -173.5 -447t-469.5 -153h-453zM631 915h-111v-628h111q143 0 223 82t80 231q0 155 -79 235t-224 80z" />
    <glyph glyph-name="E.sc" horiz-adv-x="1286" 
d="M182 0v1200h965v-264h-625v-178h367v-275h-367v-207h680v-276h-1020z" />
    <glyph glyph-name="Egrave.sc" horiz-adv-x="1286" 
d="M844 1321h-342l-228 332h359zM182 0v1200h965v-264h-625v-178h367v-275h-367v-207h680v-276h-1020z" />
    <glyph glyph-name="Eacute.sc" horiz-adv-x="1286" 
d="M489 1321l211 332h359l-228 -332h-342zM182 0v1200h965v-264h-625v-178h367v-275h-367v-207h680v-276h-1020z" />
    <glyph glyph-name="Ecircumflex.sc" horiz-adv-x="1286" 
d="M784 1319l-125 154l-124 -154h-306l273 340h315l266 -340h-299zM182 0v1200h965v-264h-625v-178h367v-275h-367v-207h680v-276h-1020z" />
    <glyph glyph-name="Edieresis.sc" horiz-adv-x="1286" 
d="M258 1321v324h328v-324h-328zM733 1321v324h328v-324h-328zM182 0v1200h965v-264h-625v-178h367v-275h-367v-207h680v-276h-1020z" />
    <glyph glyph-name="Emacron.sc" horiz-adv-x="1286" 
d="M1020 1362h-721v250h721v-250zM182 0v1200h965v-264h-625v-178h367v-275h-367v-207h680v-276h-1020z" />
    <glyph glyph-name="Ebreve.sc" horiz-adv-x="1286" 
d="M659 1534q51 0 77 30t26 74v21h252v-27q0 -143 -90 -234t-265 -91t-264.5 91t-89.5 234v27h252v-21q0 -44 25 -74t77 -30zM182 0v1200h965v-264h-625v-178h367v-275h-367v-207h680v-276h-1020z" />
    <glyph glyph-name="Edotaccent.sc" horiz-adv-x="1286" 
d="M485 1321v326h349v-326h-349zM182 0v1200h965v-264h-625v-178h367v-275h-367v-207h680v-276h-1020z" />
    <glyph glyph-name="Eogonek.sc" horiz-adv-x="1286" 
d="M182 0v1200h965v-264h-625v-178h367v-275h-367v-207h680v-276h-153q-12 -10 -30.5 -25t-29 -23.5t-24.5 -20.5t-22 -20.5t-15.5 -18t-11 -17.5t-3.5 -16q0 -21 15.5 -33t42.5 -12h121v-224h-293q-115 0 -182.5 47t-67.5 136q0 28 10.5 56t24 48.5t39 45t43.5 39.5t49 38
h-533z" />
    <glyph glyph-name="Ecaron.sc" horiz-adv-x="1286" 
d="M223 1659h303l131 -158l131 158h306l-279 -340h-315zM182 0v1200h965v-264h-625v-178h367v-275h-367v-207h680v-276h-1020z" />
    <glyph glyph-name="F.sc" horiz-adv-x="1275" 
d="M182 0v1200h1016v-266h-678v-201h381v-274h-381v-459h-338z" />
    <glyph glyph-name="G.sc" horiz-adv-x="1396" 
d="M1245 113q-61 -47 -186 -91.5t-299 -44.5q-297 0 -471 169.5t-174 461.5q0 276 165.5 446.5t430.5 170.5q105 0 193 -25t145 -64t98.5 -88.5t61.5 -96.5t24 -91h-330q-60 84 -188 84q-121 0 -193.5 -90t-72.5 -246q0 -162 80 -256t231 -94q110 0 166 27v176h-279v260h598
v-608z" />
    <glyph glyph-name="Gcircumflex.sc" horiz-adv-x="1396" 
d="M836 1319l-125 154l-125 -154h-305l272 340h315l267 -340h-299zM1245 113q-61 -47 -186 -91.5t-299 -44.5q-297 0 -471 169.5t-174 461.5q0 276 165.5 446.5t430.5 170.5q105 0 193 -25t145 -64t98.5 -88.5t61.5 -96.5t24 -91h-330q-60 84 -188 84q-121 0 -193.5 -90
t-72.5 -246q0 -162 80 -256t231 -94q110 0 166 27v176h-279v260h598v-608z" />
    <glyph glyph-name="Gbreve.sc" horiz-adv-x="1396" 
d="M711 1534q51 0 76.5 30t25.5 74v21h252v-27q0 -143 -89.5 -234t-264.5 -91t-265 91t-90 234v27h252v-21q0 -44 25.5 -74t77.5 -30zM1245 113q-61 -47 -186 -91.5t-299 -44.5q-297 0 -471 169.5t-174 461.5q0 276 165.5 446.5t430.5 170.5q105 0 193 -25t145 -64
t98.5 -88.5t61.5 -96.5t24 -91h-330q-60 84 -188 84q-121 0 -193.5 -90t-72.5 -246q0 -162 80 -256t231 -94q110 0 166 27v176h-279v260h598v-608z" />
    <glyph glyph-name="Gdotaccent.sc" horiz-adv-x="1396" 
d="M537 1321v326h348v-326h-348zM1245 113q-61 -47 -186 -91.5t-299 -44.5q-297 0 -471 169.5t-174 461.5q0 276 165.5 446.5t430.5 170.5q105 0 193 -25t145 -64t98.5 -88.5t61.5 -96.5t24 -91h-330q-60 84 -188 84q-121 0 -193.5 -90t-72.5 -246q0 -162 80 -256t231 -94
q110 0 166 27v176h-279v260h598v-608z" />
    <glyph glyph-name="H.sc" horiz-adv-x="1480" 
d="M182 0v1200h338v-452h438v452h338v-1200h-338v453h-438v-453h-338z" />
    <glyph glyph-name="Hcircumflex.sc" horiz-adv-x="1480" 
d="M864 1319l-125 154l-125 -154h-305l273 340h315l266 -340h-299zM182 0v1200h338v-452h438v452h338v-1200h-338v453h-438v-453h-338z" />
    <glyph glyph-name="I.sc" horiz-adv-x="710" 
d="M186 0v1200h338v-1200h-338z" />
    <glyph glyph-name="Igrave.sc" horiz-adv-x="710" 
d="M528 1321h-342l-227 332h358zM186 0v1200h338v-1200h-338z" />
    <glyph glyph-name="Iacute.sc" horiz-adv-x="710" 
d="M186 1321l211 332h359l-228 -332h-342zM186 0v1200h338v-1200h-338z" />
    <glyph glyph-name="Icircumflex.sc" horiz-adv-x="710" 
d="M479 1319l-125 154l-125 -154h-305l273 340h315l266 -340h-299zM186 0v1200h338v-1200h-338z" />
    <glyph glyph-name="Idieresis.sc" horiz-adv-x="710" 
d="M-47 1321v324h328v-324h-328zM428 1321v324h328v-324h-328zM186 0v1200h338v-1200h-338z" />
    <glyph glyph-name="Itilde.sc" horiz-adv-x="710" 
d="M365 1382l-70 35q-44 21 -57 21q-29 0 -29 -41v-82h-232v178q0 91 48 145t137 54q32 0 65 -9t52.5 -18.5t64.5 -32.5l68 -35q39 -20 59 -20q29 0 29 41v84h231v-180q0 -91 -47.5 -144t-136.5 -53q-48 0 -86 13t-96 44zM186 0v1200h338v-1200h-338z" />
    <glyph glyph-name="Imacron.sc" horiz-adv-x="710" 
d="M715 1362h-721v250h721v-250zM186 0v1200h338v-1200h-338z" />
    <glyph glyph-name="Ibreve.sc" horiz-adv-x="710" 
d="M354 1534q51 0 77 30t26 74v21h252v-27q0 -143 -90 -234t-265 -91t-264.5 91t-89.5 234v27h252v-21q0 -44 25 -74t77 -30zM186 0v1200h338v-1200h-338z" />
    <glyph glyph-name="Iogonek.sc" horiz-adv-x="710" 
d="M186 0v1200h338v-1200q-11 -9 -30.5 -24.5t-29 -24t-24 -21t-22 -20t-15.5 -17.5t-11 -18t-3 -16q0 -45 57 -45h121v-224h-293q-115 0 -181 47t-66 136q0 46 26 90.5t54.5 71t78.5 65.5z" />
    <glyph glyph-name="Idotaccent.sc" horiz-adv-x="710" 
d="M180 1321v326h348v-326h-348zM186 0v1200h338v-1200h-338z" />
    <glyph glyph-name="J.sc" horiz-adv-x="1243" 
d="M1067 391q0 -188 -122.5 -301t-348.5 -113q-219 0 -332.5 112t-113.5 302v344h317v-311q0 -67 32.5 -108.5t96.5 -41.5q65 0 98 41.5t33 108.5v776h340v-809z" />
    <glyph glyph-name="Jcircumflex.sc" horiz-adv-x="1243" 
d="M1020 1319l-125 154l-125 -154h-305l272 340h316l266 -340h-299zM1067 391q0 -188 -122.5 -301t-348.5 -113q-219 0 -332.5 112t-113.5 302v344h317v-311q0 -67 32.5 -108.5t96.5 -41.5q65 0 98 41.5t33 108.5v776h340v-809z" />
    <glyph glyph-name="K.sc" horiz-adv-x="1372" 
d="M182 0v1200h338v-489l402 489h407l-467 -567l492 -633h-428l-406 512v-512h-338z" />
    <glyph glyph-name="L.sc" horiz-adv-x="1206" 
d="M182 0v1200h338v-905h606v-295h-944z" />
    <glyph glyph-name="Lacute.sc" horiz-adv-x="1206" 
d="M188 1321l211 332h359l-228 -332h-342zM182 0v1200h338v-905h606v-295h-944z" />
    <glyph glyph-name="Lcaron.sc" horiz-adv-x="1206" 
d="M608 881l103 395h290l-118 -395h-275zM182 0v1200h338v-905h606v-295h-944z" />
    <glyph glyph-name="M.sc" horiz-adv-x="1744" 
d="M182 0v1200h490l207 -653l204 653h480v-1200h-324v854l-268 -854h-213l-271 852v-852h-305z" />
    <glyph glyph-name="N.sc" horiz-adv-x="1478" 
d="M1294 1200v-1206h-278l-508 737v-731h-326v1200h373l422 -629v629h317z" />
    <glyph glyph-name="Ntilde.sc" horiz-adv-x="1478" 
d="M762 1382l-70 35q-44 21 -57 21q-29 0 -29 -41v-82h-231v178q0 91 47.5 145t136.5 54q32 0 65 -9t52.5 -18.5t64.5 -32.5l68 -35q39 -20 59 -20q29 0 29 41v84h231v-180q0 -91 -47.5 -144t-136.5 -53q-48 0 -86 13t-96 44zM1294 1200v-1206h-278l-508 737v-731h-326v1200
h373l422 -629v629h317z" />
    <glyph glyph-name="Nacute.sc" horiz-adv-x="1478" 
d="M584 1321l211 332h358l-227 -332h-342zM1294 1200v-1206h-278l-508 737v-731h-326v1200h373l422 -629v629h317z" />
    <glyph glyph-name="Ncaron.sc" horiz-adv-x="1478" 
d="M317 1659h304l131 -158l131 158h305l-279 -340h-315zM1294 1200v-1206h-278l-508 737v-731h-326v1200h373l422 -629v629h317z" />
    <glyph glyph-name="O.sc" horiz-adv-x="1409" 
d="M702 -23q-123 0 -230 42.5t-186.5 120.5t-125 196.5t-45.5 263.5q0 147 45.5 266t125 196.5t186 119t230.5 41.5t231.5 -41.5t187.5 -119t125.5 -196.5t45.5 -266q0 -144 -46 -262.5t-125.5 -197t-187 -121t-231.5 -42.5zM702 276q117 0 181.5 90t64.5 234
q0 145 -64.5 235.5t-181.5 90.5q-113 0 -179 -91t-66 -235t65 -234t180 -90z" />
    <glyph glyph-name="Ograve.sc" horiz-adv-x="1409" 
d="M877 1321h-342l-228 332h359zM702 -23q-123 0 -230 42.5t-186.5 120.5t-125 196.5t-45.5 263.5q0 147 45.5 266t125 196.5t186 119t230.5 41.5t231.5 -41.5t187.5 -119t125.5 -196.5t45.5 -266q0 -144 -46 -262.5t-125.5 -197t-187 -121t-231.5 -42.5zM702 276
q117 0 181.5 90t64.5 234q0 145 -64.5 235.5t-181.5 90.5q-113 0 -179 -91t-66 -235t65 -234t180 -90z" />
    <glyph glyph-name="Oacute.sc" horiz-adv-x="1409" 
d="M535 1321l210 332h359l-227 -332h-342zM702 -23q-123 0 -230 42.5t-186.5 120.5t-125 196.5t-45.5 263.5q0 147 45.5 266t125 196.5t186 119t230.5 41.5t231.5 -41.5t187.5 -119t125.5 -196.5t45.5 -266q0 -144 -46 -262.5t-125.5 -197t-187 -121t-231.5 -42.5zM702 276
q117 0 181.5 90t64.5 234q0 145 -64.5 235.5t-181.5 90.5q-113 0 -179 -91t-66 -235t65 -234t180 -90z" />
    </font>
</defs>
</svg>
