<?xml version="1.0" standalone="no"?>
<!DOCTYPE svg PUBLIC "-//W3C//DTD SVG 1.1//EN" "http://www.w3.org/Graphics/SVG/1.1/DTD/svg11.dtd" >
<svg xmlns="http://www.w3.org/2000/svg" xmlns:xlink="http://www.w3.org/1999/xlink" version="1.1">
<metadata>
Created by FontForge 20170731 at Fri Nov 20 09:04:44 2020
 By Aleksey,,,
Copyright (c) 2018 Commercial Type, Inc.. All rights reserved.
</metadata>
<defs>
<font id="StyreneBLC-Regular" horiz-adv-x="1331" >
  <font-face 
    font-family="Styrene B LC Regular"
    font-weight="400"
    font-stretch="normal"
    units-per-em="2048"
    panose-1="0 0 0 0 0 0 0 0 0 0"
    ascent="1565"
    descent="-483"
    x-height="1012"
    cap-height="1454"
    bbox="-203 -666 2824 2456"
    underline-thickness="155"
    underline-position="-310"
    unicode-range="U+0020-FB02"
  />
<missing-glyph horiz-adv-x="1024" 
d="M102 -483v2048h820v-2048h-820zM205 -381h614v1843h-614v-1843z" />
    <glyph glyph-name=".notdef" horiz-adv-x="1024" 
d="M102 -483v2048h820v-2048h-820zM205 -381h614v1843h-614v-1843z" />
    <glyph glyph-name=".null" horiz-adv-x="0" 
 />
    <glyph glyph-name="nonmarkingreturn" horiz-adv-x="682" 
 />
    <glyph glyph-name="space" unicode=" " horiz-adv-x="542" 
 />
    <glyph glyph-name="exclam" unicode="!" horiz-adv-x="688" 
d="M252 475v979h184v-979h-184zM225 0v291h238v-291h-238z" />
    <glyph glyph-name="quotedbl" unicode="&#x22;" horiz-adv-x="960" 
d="M375 829h-166v625h166v-625zM752 829h-166v625h166v-625z" />
    <glyph glyph-name="numbersign" unicode="#" horiz-adv-x="1517" 
d="M211 0l115 391h-265v146h308l118 401h-266v145h309l111 371h164l-111 -371h334l111 371h164l-111 -371h264v-145h-307l-119 -401h266v-146h-309l-117 -391h-161l114 391h-334l-116 -391h-162zM532 537h334l119 401h-334z" />
    <glyph glyph-name="dollar" unicode="$" horiz-adv-x="1226" 
d="M539 -252v252q-183 21 -284 136.5t-101 287.5v12h192v-8q0 -122 73 -191t193 -69q126 0 196.5 61t70.5 162q0 92 -54 147.5t-157 86.5l-150 45q-176 53 -260 149.5t-84 263.5q0 154 101.5 255t263.5 122v238h159v-240q166 -22 257.5 -128.5t91.5 -276.5v-6h-189v6
q0 108 -66 173.5t-180 65.5q-111 0 -178 -56t-67 -153q0 -90 54 -145t157 -86l149 -45q174 -53 260 -150.5t86 -265.5q0 -156 -99.5 -262t-275.5 -127v-254h-159z" />
    <glyph glyph-name="percent" unicode="%" horiz-adv-x="2076" 
d="M516 729q-158 0 -265.5 107.5t-107.5 267.5t107.5 267.5t265.5 107.5t265.5 -107.5t107.5 -267.5t-107.5 -267.5t-265.5 -107.5zM426 0l1028 1454h195l-1031 -1454h-192zM516 881q93 0 152 63.5t59 159.5t-59 159.5t-152 63.5t-152 -63.5t-59 -159.5t59 -159.5t152 -63.5
zM1561 -29q-158 0 -265.5 107.5t-107.5 267.5t107.5 267.5t265.5 107.5t265 -107.5t107 -267.5t-107 -267.5t-265 -107.5zM1561 123q93 0 152 63.5t59 159.5t-59 159.5t-152 63.5t-152 -63.5t-59 -159.5t59 -159.5t152 -63.5z" />
    <glyph glyph-name="ampersand" unicode="&#x26;" horiz-adv-x="1597" 
d="M1298 0l-251 244q-59 -66 -106.5 -110t-107.5 -83t-128 -57.5t-148 -18.5q-196 0 -317 103t-121 274q0 77 27.5 144.5t80 122.5t108.5 96t134 86q-90 93 -137 173t-47 171q0 143 106.5 238.5t272.5 95.5q170 0 271 -91.5t101 -240.5q0 -50 -17.5 -97.5t-42.5 -83.5
t-65.5 -74t-74.5 -63t-80 -55l284 -282l277 315h223l-379 -434l375 -373h-238zM479 1147q0 -45 26.5 -94t57 -83t86.5 -89q98 71 148.5 131t50.5 135q0 80 -51.5 127t-132.5 47q-80 0 -132.5 -48.5t-52.5 -125.5zM315 358q0 -93 66.5 -152t175.5 -59q98 0 182.5 51.5
t186.5 161.5l-340 328q-44 -29 -69 -46t-62 -45t-57.5 -51.5t-42 -53.5t-31 -63.5t-9.5 -70.5z" />
    <glyph glyph-name="quotesingle" unicode="'" horiz-adv-x="587" 
d="M379 829h-170v625h170v-625z" />
    <glyph glyph-name="parenleft" unicode="(" horiz-adv-x="729" 
d="M350 717q0 -136 17 -266t40.5 -225.5t60.5 -194t65 -157t65 -128.5h-170q-46 88 -81 170.5t-76 207.5t-64 277t-23 316t23 315.5t64 275.5t76 205t81 170h170q-49 -91 -83 -168.5t-76.5 -201.5t-65.5 -276t-23 -320z" />
    <glyph glyph-name="parenright" unicode=")" horiz-adv-x="729" 
d="M379 717q0 168 -23 320t-65.5 276t-76.5 201.5t-83 168.5h170q46 -89 81 -170t76 -205t64 -275.5t23 -315.5t-23 -316t-64 -277t-76 -207.5t-81 -170.5h-170q37 70 65 128.5t65 157t60.5 194t40.5 225.5t17 266z" />
    <glyph glyph-name="asterisk" unicode="*" horiz-adv-x="980" 
d="M420 1507h139v-293l281 95l43 -125l-287 -97l199 -253l-107 -78l-196 254l-197 -254l-107 78l199 253l-289 97l43 125l279 -92v290z" />
    <glyph glyph-name="plus" unicode="+" horiz-adv-x="1404" 
d="M618 102v463h-446v160h446v463h168v-463h447v-160h-447v-463h-168z" />
    <glyph glyph-name="comma" unicode="," horiz-adv-x="598" 
d="M287 -438h-152q69 115 111 220.5t45 217.5h-111v291h238v-275q0 -123 -38.5 -243.5t-92.5 -210.5z" />
    <glyph glyph-name="hyphen" unicode="-" horiz-adv-x="1015" 
d="M172 516v176h672v-176h-672z" />
    <glyph glyph-name="period" unicode="." horiz-adv-x="598" 
d="M180 0v291h238v-291h-238z" />
    <glyph glyph-name="slash" unicode="/" horiz-adv-x="847" 
d="M74 -143l520 1699h168l-520 -1699h-168z" />
    <glyph glyph-name="zero" unicode="0" horiz-adv-x="1417" 
d="M709 1479q233 0 370.5 -141.5t137.5 -389.5v-442q0 -255 -138 -393t-370 -138t-370 138t-138 393v442q0 248 137.5 389.5t370.5 141.5zM709 156q150 0 230.5 97t80.5 255v438q0 158 -80.5 255t-230.5 97t-231 -97t-81 -255v-438q0 -158 81 -255t231 -97z" />
    <glyph glyph-name="one" unicode="1" horiz-adv-x="911" 
d="M662 0h-199v1229l-361 -209v188l412 252h148v-1460z" />
    <glyph glyph-name="two" unicode="2" horiz-adv-x="1265" 
d="M1176 180v-180h-1022v123l491 485q67 67 106.5 112t75.5 97.5t51 103.5t15 109q0 121 -72.5 194.5t-197.5 73.5q-124 0 -197.5 -79t-73.5 -205v-94h-194v96q0 203 126 333t339 130q214 0 341.5 -126.5t127.5 -322.5q0 -56 -10 -107.5t-33.5 -100t-47.5 -87.5t-66.5 -87
t-74.5 -81t-86 -86l-307 -301h709z" />
    <glyph glyph-name="three" unicode="3" horiz-adv-x="1314" 
d="M649 156q146 0 232 67.5t86 186.5q0 121 -77.5 186.5t-219.5 65.5h-256v180h262q116 0 182 60t66 169q0 106 -77 167.5t-202 61.5q-122 0 -191 -60.5t-85 -158.5h-197q4 73 34.5 141.5t86 127t146.5 94t204 35.5q224 0 350.5 -111t126.5 -289q0 -64 -19 -119t-50.5 -93
t-64.5 -63t-68 -40q44 -13 85.5 -39.5t79.5 -69t61 -109.5t23 -149q0 -190 -138.5 -306t-379.5 -116q-124 0 -223 36t-159 96t-93.5 130.5t-40.5 147.5h199q19 -96 99 -162.5t218 -66.5z" />
    <glyph glyph-name="four" unicode="4" horiz-adv-x="1409" 
d="M1331 449h-309v-449h-193v449h-737v108l713 897h217v-833h309v-172zM354 621h475v604z" />
    <glyph glyph-name="five" unicode="5" horiz-adv-x="1333" 
d="M397 643h-164v811h893v-180h-704v-422q106 106 295 106q94 0 178 -32t148 -91.5t101.5 -151.5t37.5 -204v-22q0 -214 -140.5 -348t-369.5 -134q-121 0 -217.5 35t-157.5 95.5t-95 135.5t-40 160h194q6 -40 24.5 -79.5t53.5 -78.5t96.5 -63t141.5 -24q139 0 226 84t87 217
v20q0 137 -86.5 219t-226.5 82q-181 0 -275 -135z" />
    <glyph glyph-name="six" unicode="6" horiz-adv-x="1339" 
d="M1192 471q0 -215 -141.5 -355.5t-382.5 -140.5q-244 0 -382.5 137.5t-138.5 358.5q0 80 17 151t54.5 141t71.5 120t93 127l340 444h235l-423 -539q78 43 192 43q205 0 335 -133t130 -354zM993 471q0 142 -85 231t-240 89q-145 0 -233.5 -90.5t-88.5 -229.5
q0 -134 86.5 -224.5t235.5 -90.5q154 0 239.5 90t85.5 225z" />
    <glyph glyph-name="seven" unicode="7" horiz-adv-x="1265" 
d="M432 0h-217l713 1274h-795v180h1020v-149z" />
    <glyph glyph-name="eight" unicode="8" horiz-adv-x="1372" 
d="M713 1479q221 0 344 -112t123 -290q0 -70 -21 -128.5t-56.5 -97.5t-74 -64t-80.5 -37q46 -14 89 -42t83 -70.5t64 -106t24 -138.5q0 -187 -135 -302.5t-364 -115.5h-56q-223 0 -356 115.5t-133 302.5q0 75 24 138.5t64 106t83 70.5t89 42q-42 12 -80.5 37t-73.5 64
t-56 97.5t-21 128.5q0 177 123 289.5t343 112.5h54zM389 1069q0 -106 74 -169.5t196 -63.5h54q122 0 196 63.5t74 169.5t-74 170t-196 64h-54q-122 0 -196 -64t-74 -170zM365 406q0 -115 80 -184.5t210 -69.5h62q131 0 211 69.5t80 184.5t-80 184t-211 69h-62
q-130 0 -210 -69t-80 -184z" />
    <glyph glyph-name="nine" unicode="9" horiz-adv-x="1339" 
d="M147 983q0 215 142 355.5t383 140.5q162 0 281 -64.5t179 -176t60 -255.5q0 -80 -17 -151t-54.5 -141t-71.5 -120t-93 -127l-340 -444h-235l424 539q-78 -43 -193 -43q-205 0 -335 133t-130 354zM346 983q0 -141 85.5 -230t240.5 -89q145 0 233 90t88 229
q0 134 -86 224.5t-235 90.5q-154 0 -240 -90t-86 -225z" />
    <glyph glyph-name="colon" unicode=":" horiz-adv-x="618" 
d="M190 702v291h238v-291h-238zM190 0v291h238v-291h-238z" />
    <glyph glyph-name="semicolon" unicode=";" horiz-adv-x="618" 
d="M190 702v291h238v-291h-238zM297 -438h-152q69 115 111 220.5t45 217.5h-111v291h238v-275q0 -123 -38.5 -243.5t-92.5 -210.5z" />
    <glyph glyph-name="less" unicode="&#x3c;" horiz-adv-x="1308" 
d="M1116 301v-178l-944 412v141l944 411v-182l-721 -303z" />
    <glyph glyph-name="equal" unicode="=" horiz-adv-x="1441" 
d="M1262 758h-1082v157h1082v-157zM1262 340h-1082v158h1082v-158z" />
    <glyph glyph-name="greater" unicode="&#x3e;" horiz-adv-x="1308" 
d="M1137 535l-944 -412v182l720 303l-720 301v178l944 -411v-141z" />
    <glyph glyph-name="question" unicode="?" horiz-adv-x="1114" 
d="M526 475h-188v17q0 93 29.5 143t126.5 117l147 102q77 54 119.5 111.5t42.5 134.5q0 96 -62 153.5t-168 57.5q-107 0 -169 -67.5t-62 -174.5v-65h-182v71q0 185 111.5 294.5t301.5 109.5q197 0 308.5 -102t111.5 -277q0 -128 -61 -215.5t-189 -173.5l-147 -101
q-40 -29 -55 -58.5t-15 -76.5zM313 0v291h238v-291h-238z" />
    <glyph glyph-name="at" unicode="@" horiz-adv-x="2109" 
d="M1505 1022l-104 -590q-26 -151 102 -151q56 0 108 29t95.5 83.5t69.5 145t26 202.5q0 140 -47 258t-135 203.5t-223 133.5t-303 48q-169 0 -314 -58.5t-249 -164t-163 -258.5t-59 -334q0 -172 57 -318t160.5 -249t254 -161t331.5 -58q96 0 184.5 15.5t147 35.5t117.5 52
t86 51t63 47h193q-32 -44 -74.5 -87t-114 -92.5t-154.5 -86t-200.5 -61t-247.5 -24.5q-227 0 -412.5 73t-306.5 200.5t-186.5 298.5t-65.5 368q0 205 71.5 383t197 304.5t303 199t381.5 72.5q171 0 315 -42.5t245.5 -117t173.5 -175.5t106 -216.5t34 -241.5
q0 -172 -57.5 -310t-165 -217t-246.5 -79q-107 0 -169.5 39.5t-76.5 103.5q-35 -61 -100 -102t-156 -41q-165 0 -268.5 115t-103.5 315q0 199 114 334t301 135q104 0 170.5 -49t94.5 -115l28 154h172zM1055 864q-109 0 -175.5 -86t-66.5 -219q0 -118 53.5 -188t151.5 -70
q109 0 175.5 86t66.5 219q0 118 -53 188t-152 70z" />
    <glyph glyph-name="A" unicode="A" horiz-adv-x="1523" 
d="M1247 0l-143 350h-696l-144 -350h-196l606 1462h176l606 -1462h-209zM483 530h545l-272 664z" />
    <glyph glyph-name="B" unicode="B" horiz-adv-x="1540" 
d="M225 0v1454h709q205 0 315.5 -103.5t110.5 -287.5q0 -110 -68 -191t-162 -110q112 -29 187.5 -120.5t75.5 -223.5q0 -196 -129.5 -307t-376.5 -111h-662zM924 1272h-502v-430h504q108 0 168.5 56.5t60.5 158.5q0 107 -59.5 161t-171.5 54zM881 659h-459v-477h459
q155 0 232 62.5t77 177.5q0 237 -309 237z" />
    <glyph glyph-name="C" unicode="C" horiz-adv-x="1495" 
d="M780 -25q-190 0 -335.5 100.5t-221.5 271t-76 380.5q0 209 76.5 379.5t222 271.5t334.5 101q113 0 209.5 -30.5t160 -77.5t111 -108t71.5 -119t32 -114h-197q-12 30 -29.5 60.5t-50.5 68.5t-73.5 66t-102 47.5t-131.5 19.5q-102 0 -184 -45.5t-134 -123.5t-79 -179.5
t-27 -216.5t27 -216.5t79 -179.5t134 -123.5t184 -45.5q71 0 133 19.5t103.5 48.5t75 67t51 69.5t28.5 61.5h193q-7 -54 -31 -112t-71.5 -120t-111.5 -110.5t-160.5 -79.5t-209.5 -31z" />
    <glyph glyph-name="D" unicode="D" horiz-adv-x="1595" 
d="M225 0v1454h486q340 0 540.5 -197.5t200.5 -529.5q0 -328 -200.5 -527.5t-540.5 -199.5h-486zM711 1272h-287v-1090h287q248 0 392 147.5t144 397.5q0 256 -143 400.5t-393 144.5z" />
    <glyph glyph-name="E" unicode="E" horiz-adv-x="1433" 
d="M225 0v1454h1045v-184h-848v-406h500v-184h-500v-496h924v-184h-1121z" />
    <glyph glyph-name="F" unicode="F" horiz-adv-x="1406" 
d="M225 0v1454h1104v-186h-905v-404h522v-186h-522v-678h-199z" />
    <glyph glyph-name="G" unicode="G" horiz-adv-x="1591" 
d="M1409 170q-85 -82 -226 -138.5t-333 -56.5q-210 0 -371 97t-246.5 268t-85.5 389q0 212 83.5 383t236 269t344.5 98q110 0 204 -28t155.5 -69.5t108.5 -94.5t71 -98t34 -85h-204q-20 31 -46.5 59.5t-70.5 60.5t-109.5 51t-142.5 19q-141 0 -246.5 -75.5t-159 -202.5
t-53.5 -287q0 -257 134.5 -413t363.5 -156q126 0 221.5 26.5t149.5 65.5v385h-480v178h668v-645z" />
    <glyph glyph-name="H" unicode="H" horiz-adv-x="1652" 
d="M225 0v1454h199v-629h805v629h198v-1454h-198v641h-805v-641h-199z" />
    <glyph glyph-name="I" unicode="I" horiz-adv-x="653" 
d="M227 0v1454h199v-1454h-199z" />
    <glyph glyph-name="J" unicode="J" horiz-adv-x="1304" 
d="M1085 442q0 -224 -123.5 -344.5t-330.5 -120.5q-203 0 -326 120t-123 345v402h197v-402q0 -129 67 -202.5t185 -73.5q122 0 189 73t67 203v1012h198v-1012z" />
    <glyph glyph-name="K" unicode="K" horiz-adv-x="1478" 
d="M225 0v1454h199v-668l723 668h272l-776 -713l817 -741h-278l-758 674v-674h-199z" />
    <glyph glyph-name="L" unicode="L" horiz-adv-x="1382" 
d="M225 0v1454h199v-1268h881v-186h-1080z" />
    <glyph glyph-name="M" unicode="M" horiz-adv-x="1947" 
d="M225 0v1454h305l449 -1159l446 1159h297v-1454h-188v1266l-496 -1274h-137l-491 1261v-1253h-185z" />
    <glyph glyph-name="N" unicode="N" horiz-adv-x="1665" 
d="M1440 1454v-1464h-150l-874 1210v-1200h-191v1454h238l786 -1102v1102h191z" />
    <glyph glyph-name="O" unicode="O" horiz-adv-x="1601" 
d="M801 -25q-197 0 -347 98t-228.5 268t-78.5 386q0 214 79.5 384t229.5 269t345 99q146 0 269 -57.5t207 -158t130.5 -238.5t46.5 -298t-46.5 -298t-130.5 -238.5t-207 -158t-269 -57.5zM801 160q140 0 243 76t154 203t51 288q0 118 -30 220.5t-85.5 180t-141 122
t-191.5 44.5q-140 0 -243.5 -76.5t-154.5 -203.5t-51 -287q0 -163 51 -290t154 -202t244 -75z" />
    <glyph glyph-name="P" unicode="P" horiz-adv-x="1480" 
d="M225 0v1454h649q235 0 359.5 -106.5t124.5 -300.5q0 -191 -125.5 -303.5t-358.5 -112.5h-450v-631h-199zM881 1270h-457v-455h457q132 0 202 62t70 165q0 109 -69 168.5t-203 59.5z" />
    <glyph glyph-name="Q" unicode="Q" horiz-adv-x="1601" 
d="M801 -25q-197 0 -347 98t-228.5 268t-78.5 386q0 214 79.5 384t229.5 269t345 99q146 0 269 -57.5t207 -158t130.5 -238.5t46.5 -298q0 -244 -103 -429t-286 -267l344 -342h-262l-299 288q-14 -2 -47 -2zM801 160q140 0 243 76t154 203t51 288q0 118 -30 220.5t-85.5 180
t-141 122t-191.5 44.5q-140 0 -243.5 -76.5t-154.5 -203.5t-51 -287q0 -163 51 -290t154 -202t244 -75z" />
    <glyph glyph-name="R" unicode="R" horiz-adv-x="1538" 
d="M225 0v1454h656q231 0 354 -103t123 -296q0 -156 -81.5 -253.5t-234.5 -129.5l383 -672h-215l-381 655h-405v-655h-199zM879 1270h-455v-432h455q274 0 274 217q0 215 -274 215z" />
    <glyph glyph-name="S" unicode="S" horiz-adv-x="1443" 
d="M676 1296q-150 0 -235 -59.5t-85 -157.5q0 -96 72.5 -145t204.5 -70q34 -5 62.5 -9.5t64 -9.5t65.5 -9q79 -12 142.5 -29.5t127.5 -50t107 -77t69.5 -112t26.5 -153.5q0 -190 -145 -315.5t-393 -125.5q-120 0 -221.5 26t-172.5 68t-125.5 99.5t-86 116.5t-48.5 123h211
q16 -42 46 -81.5t81 -79.5t133 -64.5t183 -24.5q154 0 247 67.5t93 179.5q0 59 -22 102t-64 70t-90.5 42.5t-114.5 25.5q-45 6 -101 15t-92 14q-104 16 -182.5 43.5t-143 73.5t-98.5 119.5t-34 170.5q0 182 145 291t373 109q109 0 201.5 -22.5t157 -59.5t113.5 -86.5
t76.5 -101.5t41.5 -107h-205q-20 36 -49 67t-74 61.5t-112.5 48t-149.5 17.5z" />
    <glyph glyph-name="T" unicode="T" horiz-adv-x="1480" 
d="M641 0v1270h-559v184h1317v-184h-559v-1270h-199z" />
    <glyph glyph-name="U" unicode="U" horiz-adv-x="1626" 
d="M1208 578v876h199v-893q0 -120 -39 -225.5t-111.5 -186t-187 -127.5t-256.5 -47q-147 0 -262 46t-186.5 126.5t-108.5 185.5t-37 228v893h199v-876q0 -187 102.5 -299.5t292.5 -112.5q185 0 290 113.5t105 298.5z" />
    <glyph glyph-name="V" unicode="V" horiz-adv-x="1513" 
d="M666 -6l-588 1460h219l469 -1196l467 1196h203l-580 -1460h-190z" />
    <glyph glyph-name="W" unicode="W" horiz-adv-x="2129" 
d="M1165 1462l357 -1147l333 1139h187l-432 -1462h-176l-363 1143l-362 -1143h-166l-455 1462h209l340 -1126l350 1134h178z" />
    <glyph glyph-name="X" unicode="X" horiz-adv-x="1607" 
d="M309 0h-239l608 764l-555 690h260l422 -530l424 530h241l-544 -682l612 -772h-248l-491 612z" />
    <glyph glyph-name="Y" unicode="Y" horiz-adv-x="1402" 
d="M608 584l-577 870h245l437 -670l436 670h223l-565 -868v-586h-199v584z" />
    <glyph glyph-name="Z" unicode="Z" horiz-adv-x="1452" 
d="M113 0v117l868 1153h-850v184h1141v-117l-877 -1153h965v-184h-1247z" />
    <glyph glyph-name="bracketleft" unicode="[" horiz-adv-x="780" 
d="M225 -254v1937h504v-139h-344v-1659h344v-139h-504z" />
    <glyph glyph-name="backslash" unicode="\" horiz-adv-x="847" 
d="M774 -143h-166l-522 1699h168z" />
    <glyph glyph-name="bracketright" unicode="]" horiz-adv-x="780" 
d="M555 -254h-504v139h344v1659h-344v139h504v-1937z" />
    <glyph glyph-name="asciicircum" unicode="^" horiz-adv-x="1198" 
d="M905 539l-309 682l-311 -682h-183l420 927h150l424 -927h-191z" />
    <glyph glyph-name="underscore" unicode="_" horiz-adv-x="1277" 
d="M90 -311v155h1098v-155h-1098z" />
    <glyph glyph-name="grave" unicode="`" horiz-adv-x="1228" 
d="M817 1186h-190l-215 375h204z" />
    <glyph glyph-name="a" unicode="a" horiz-adv-x="1230" 
d="M856 166q-9 -21 -22 -42.5t-39 -49.5t-57 -49t-79.5 -35.5t-103.5 -14.5q-186 0 -307 143t-121 386t121 386.5t307 143.5q56 0 104.5 -15.5t79.5 -36t57 -50t38 -48.5t22 -40v168h186v-1012h-186v166zM860 504q0 157 -72 257.5t-198 100.5q-128 0 -199.5 -100t-71.5 -258
q0 -157 71.5 -258t199.5 -101q125 0 197.5 101.5t72.5 257.5z" />
    <glyph glyph-name="b" unicode="b" horiz-adv-x="1251" 
d="M373 158v-158h-185v1507h185v-661q10 20 23 40t40.5 49t60 50.5t83 37t108.5 15.5q186 0 311 -144.5t125 -387.5t-125 -387t-311 -144q-57 0 -107.5 15t-83 35.5t-60.5 49t-41 46.5t-23 37zM369 506q0 -157 76 -259t206 -102q128 0 205.5 102.5t77.5 258.5
q0 157 -77.5 258.5t-205.5 101.5q-130 0 -206 -101t-76 -259z" />
    <glyph glyph-name="c" unicode="c" horiz-adv-x="1110" 
d="M827 711q-9 22 -23.5 43t-42.5 49t-74 45.5t-103 17.5q-120 0 -194.5 -102t-74.5 -258q0 -155 75 -258t196 -103q48 0 89 13.5t64.5 29.5t45 43t28.5 39t16 31h181q-5 -26 -17 -59.5t-44.5 -83t-76.5 -88.5t-119 -67t-167 -28q-198 0 -330.5 151.5t-132.5 379.5
q0 230 131.5 381t329.5 151q92 0 167 -27.5t119.5 -65.5t76.5 -87t45 -83.5t18 -63.5h-183z" />
    <glyph glyph-name="d" unicode="d" horiz-adv-x="1255" 
d="M881 172q-12 -28 -32.5 -56.5t-57 -63t-95.5 -56t-129 -21.5q-92 0 -172 36.5t-139.5 103.5t-94 168t-34.5 223q0 244 125.5 388t314.5 144q56 0 106.5 -15.5t83 -37t60.5 -50.5t41 -49t23 -40v661h186v-1507h-186v172zM885 506q0 157 -77.5 258.5t-207.5 101.5
q-129 0 -205 -101.5t-76 -258.5q0 -156 76 -258.5t205 -102.5t207 102.5t78 258.5z" />
    <glyph glyph-name="e" unicode="e" horiz-adv-x="1159" 
d="M584 1038q206 0 332 -144.5t126 -385.5v-29h-731q8 -146 84.5 -240t206.5 -94q182 0 256 125h178q-9 -31 -23.5 -63t-48.5 -76t-78.5 -76.5t-119 -56t-164.5 -23.5q-144 0 -254 71t-167.5 191t-57.5 269q0 234 126.5 383t334.5 149zM584 879q-111 0 -178.5 -66.5
t-88.5 -185.5h529q-24 122 -90 187t-172 65z" />
    <glyph glyph-name="f" unicode="f" horiz-adv-x="925" 
d="M63 844v168h265v159q0 336 358 336h342v-168h-321q-193 0 -193 -194v-133h348v-168h-348v-844h-186v844h-265z" />
    <glyph glyph-name="g" unicode="g" horiz-adv-x="1243" 
d="M868 160q-10 -19 -22 -36t-40 -47t-59 -51t-80 -37t-104 -16q-185 0 -310.5 144t-125.5 387t125.5 387.5t310.5 144.5q66 0 122.5 -21.5t93 -56t56.5 -61.5t33 -53v168h187v-989q0 -225 -118.5 -355.5t-350.5 -130.5q-95 0 -173.5 23t-126 56t-82 74.5t-49 73.5t-18.5 58
h197q6 -10 12.5 -18.5t28 -28t47 -33t69.5 -24.5t95 -11q141 0 211.5 81t70.5 235v137zM872 504q0 156 -75.5 258t-198.5 102q-126 0 -202.5 -102t-76.5 -258q0 -154 77 -256.5t202 -102.5q122 0 198 102.5t76 256.5z" />
    <glyph glyph-name="h" unicode="h" horiz-adv-x="1247" 
d="M188 0v1507h187v-673q21 49 57 91.5t101.5 75.5t144.5 33q177 0 283 -118.5t106 -323.5v-592h-188v557q0 148 -65 226.5t-181 78.5q-121 0 -189.5 -79.5t-68.5 -225.5v-557h-187z" />
    <glyph glyph-name="i" unicode="i" horiz-adv-x="567" 
d="M186 1206v293h195v-293h-195zM190 0v1012h187v-1012h-187z" />
    <glyph glyph-name="j" unicode="j" horiz-adv-x="569" 
d="M188 1206v293h195v-293h-195zM379 -98q0 -340 -334 -340h-248v174h217q92 0 135.5 46t43.5 140v1090h186v-1110z" />
    <glyph glyph-name="k" unicode="k" horiz-adv-x="1138" 
d="M188 0v1507h181v-929l477 434h256l-533 -477l559 -535h-251l-508 475v-475h-181z" />
    <glyph glyph-name="l" unicode="l" horiz-adv-x="571" 
d="M193 0v1507h186v-1507h-186z" />
    <glyph glyph-name="m" unicode="m" horiz-adv-x="1914" 
d="M188 0v1012h187v-158q21 43 53.5 80.5t96 68.5t141.5 31q123 0 213 -57t135 -158q17 38 41 71t62 68t95.5 55.5t126.5 20.5q184 0 290 -117t106 -301v-616h-189v582q0 130 -62 205t-181 75q-117 0 -182.5 -77.5t-65.5 -202.5v-582h-189v582q0 129 -63.5 204.5
t-181.5 75.5q-117 0 -181.5 -77.5t-64.5 -202.5v-582h-187z" />
    <glyph glyph-name="n" unicode="n" horiz-adv-x="1247" 
d="M188 0v1012h187v-170q33 76 111 134t192 58q177 0 283 -116t106 -316v-602h-188v567q0 144 -65 219.5t-181 75.5q-121 0 -189.5 -77t-68.5 -218v-567h-187z" />
    <glyph glyph-name="o" unicode="o" horiz-adv-x="1196" 
d="M598 1036q212 0 343.5 -150.5t131.5 -379.5t-131.5 -380t-343.5 -151t-343.5 151t-131.5 380t131.5 379.5t343.5 150.5zM598 147q133 0 208 101.5t75 257.5t-75 257t-208 101t-208 -101t-75 -257t74.5 -257.5t208.5 -101.5z" />
    <glyph glyph-name="p" unicode="p" horiz-adv-x="1251" 
d="M373 158v-596h-185v1450h185v-166q10 20 23 40t41 49t60.5 50.5t83 37t107.5 15.5q186 0 311 -144.5t125 -387.5t-125 -387t-311 -144q-56 0 -106.5 15t-83 36t-61 49t-41.5 46.5t-23 36.5zM369 506q0 -156 76.5 -258.5t205.5 -102.5q128 0 205.5 102.5t77.5 258.5
q0 157 -77.5 258.5t-205.5 101.5q-129 0 -205.5 -101.5t-76.5 -258.5z" />
    <glyph glyph-name="q" unicode="q" horiz-adv-x="1255" 
d="M881 168q-11 -27 -33 -56t-58.5 -62t-94.5 -54t-126 -21q-189 0 -315.5 144t-126.5 387q0 162 60 284.5t159.5 185t222.5 62.5q56 0 105.5 -15.5t82 -37t60.5 -50.5t41 -49t23 -40v166h186v-1450h-186v606zM885 506q0 157 -77.5 258.5t-205.5 101.5q-131 0 -207 -101
t-76 -259q0 -157 76.5 -259t206.5 -102q128 0 205.5 102.5t77.5 258.5z" />
    <glyph glyph-name="r" unicode="r" horiz-adv-x="980" 
d="M375 571v-571h-187v1012h187v-183q10 25 25 49t43.5 50.5t64.5 46t91 32.5t120 13h194v-186h-211q-172 0 -249.5 -64.5t-77.5 -198.5z" />
    <glyph glyph-name="s" unicode="s" horiz-adv-x="1103" 
d="M618 420l-145 16q-157 18 -247.5 93.5t-90.5 209.5q0 135 108.5 218t280.5 83q94 0 170.5 -21t122 -50.5t80 -70t49 -70t23.5 -60.5h-185q-8 12 -23.5 27.5t-46 36t-80.5 34t-110 13.5q-99 0 -153 -36.5t-54 -94.5t44 -90.5t137 -43.5l141 -16q178 -21 262 -100t84 -217
q0 -137 -105 -223.5t-294 -86.5q-97 0 -179 23t-133.5 57t-89.5 76.5t-55.5 78.5t-22.5 66h191q8 -16 23 -33.5t47.5 -43t89.5 -42t129 -16.5q104 0 158.5 37t54.5 98q0 66 -42 102t-139 46z" />
    <glyph glyph-name="t" unicode="t" horiz-adv-x="983" 
d="M328 330v514h-265v168h265v442h186v-442h367v-168h-367v-475q0 -106 43 -151.5t154 -45.5h170v-172h-217q-336 0 -336 330z" />
    <glyph glyph-name="u" unicode="u" horiz-adv-x="1224" 
d="M614 -20q-210 0 -322 114t-112 307v611h189v-600q0 -117 63 -186.5t182 -69.5q116 0 181 70t65 186v600h184v-611q0 -117 -48.5 -211.5t-147.5 -152t-234 -57.5z" />
    <glyph glyph-name="v" unicode="v" horiz-adv-x="1093" 
d="M1042 1012l-407 -1030h-166l-418 1030h209l295 -764l295 764h192z" />
    <glyph glyph-name="w" unicode="w" horiz-adv-x="1656" 
d="M1092 -8l-261 768l-260 -768h-165l-349 1020h201l244 -748l252 756h172l250 -746l239 738h184l-344 -1020h-163z" />
    <glyph glyph-name="x" unicode="x" horiz-adv-x="1130" 
d="M268 0h-219l404 504l-406 508h242l282 -361l289 361h223l-401 -500l401 -512h-229l-291 365z" />
    <glyph glyph-name="y" unicode="y" horiz-adv-x="1095" 
d="M279 -438l180 454l-408 996h205l299 -752l299 752h190l-579 -1450h-186z" />
    <glyph glyph-name="z" unicode="z" horiz-adv-x="1144" 
d="M115 0v109l592 735h-584v168h866v-107l-604 -737h670v-168h-940z" />
    <glyph glyph-name="braceleft" unicode="{" horiz-adv-x="821" 
d="M770 -115v-139h-219q-163 0 -242.5 82.5t-58.5 243.5l51 395q23 176 -164 176h-47v143h47q187 0 164 177l-51 395q-21 161 58.5 243t242.5 82h219v-139h-182q-99 0 -145.5 -45t-34.5 -135l51 -387q16 -117 -31.5 -181.5t-134.5 -80.5q87 -16 134.5 -80.5t31.5 -181.5
l-51 -387q-12 -90 34.5 -135.5t145.5 -45.5h182z" />
    <glyph glyph-name="bar" unicode="|" horiz-adv-x="661" 
d="M246 -238v1921h170v-1921h-170z" />
    <glyph glyph-name="braceright" unicode="}" horiz-adv-x="825" 
d="M571 72q21 -161 -58.5 -243.5t-242.5 -82.5h-219v139h182q99 0 146 45.5t35 135.5l-52 387q-16 117 31.5 181.5t134.5 80.5q-87 16 -134.5 80.5t-31.5 181.5l52 387q12 90 -34.5 135t-146.5 45h-182v139h219q163 0 242.5 -82t58.5 -243l-51 -395q-23 -177 164 -177h51
v-143h-51q-187 0 -164 -176z" />
    <glyph glyph-name="asciitilde" unicode="~" horiz-adv-x="1470" 
d="M879 729q19 -26 29 -38.5t28.5 -32.5t37 -28.5t38.5 -8.5q48 0 71 34.5t23 94.5v391h180v-391q0 -143 -68.5 -226.5t-197.5 -83.5q-91 0 -153.5 46.5t-129.5 144.5l-145 209q-28 39 -42.5 57t-39 34.5t-51.5 16.5q-48 0 -71 -34.5t-23 -94.5v-383h-181v383q0 143 69 226
t198 83q92 0 153 -45.5t131 -146.5z" />
    <glyph glyph-name="uni00A0" unicode="&#xa0;" horiz-adv-x="542" 
 />
    <glyph glyph-name="exclamdown" unicode="&#xa1;" horiz-adv-x="688" 
d="M225 1012h238v-289h-238v289zM254 537h180v-979h-180v979z" />
    <glyph glyph-name="cent" unicode="&#xa2;" horiz-adv-x="1173" 
d="M530 -246v228q-173 31 -283 175.5t-110 348.5q0 206 110 351.5t283 174.5v228h156v-228q75 -10 137.5 -41t99.5 -67.5t64.5 -80.5t38.5 -74t16 -54h-184q-7 15 -17 30.5t-31.5 38.5t-47.5 40t-67 29.5t-87 12.5q-123 0 -200.5 -102t-77.5 -258q0 -155 78 -258t202 -103
q182 0 258 156h181q-5 -23 -16 -53t-39 -74.5t-66 -82t-101.5 -69.5t-140.5 -42v-226h-156z" />
    <glyph glyph-name="sterling" unicode="&#xa3;" horiz-adv-x="1445" 
d="M123 0v180h239v381h-239v180h239v306q0 206 114.5 319t309.5 113q201 0 312.5 -111t111.5 -321v-78h-188v73q0 124 -62.5 191t-173.5 67q-108 0 -167.5 -67t-59.5 -191v-301h459v-180h-459v-381h789v-180h-1225z" />
    <glyph glyph-name="yen" unicode="&#xa5;" horiz-adv-x="1441" 
d="M211 305v160h418v186h-418v160h414l-502 643h239l369 -477l367 477h221l-492 -643h418v-160h-418v-186h418v-160h-418v-305h-198v305h-418z" />
    <glyph glyph-name="brokenbar" unicode="&#xa6;" horiz-adv-x="661" 
d="M246 854v829h170v-829h-170zM246 -238v856h170v-856h-170z" />
    <glyph glyph-name="section" unicode="&#xa7;" horiz-adv-x="1406" 
d="M1102 -57v-41q0 -183 -106.5 -284t-288.5 -101q-186 0 -291 100.5t-105 284.5v96h183v-92q0 -106 57 -165.5t156 -59.5t155 59t56 166v37q0 88 -39 139.5t-127 69.5l-312 63q-150 30 -226.5 117.5t-76.5 222.5q0 115 73 190t187 89q-92 90 -92 274v41q0 182 107 283.5
t288 101.5q186 0 291 -100.5t105 -284.5v-96h-183v92q0 106 -57 165.5t-156 59.5t-155 -59t-56 -166v-37q0 -88 39 -139.5t127 -69.5l312 -63q303 -63 303 -340q0 -110 -68 -185.5t-186 -97.5q86 -93 86 -270zM584 731q-119 25 -190.5 -20t-71.5 -142q0 -71 44.5 -119
t120.5 -63l336 -68q119 -24 190.5 21.5t71.5 140.5q0 72 -44.5 120t-120.5 63z" />
    <glyph glyph-name="dieresis" unicode="&#xa8;" horiz-adv-x="1228" 
d="M332 1206v285h188v-285h-188zM709 1206v285h188v-285h-188z" />
    <glyph glyph-name="copyright" unicode="&#xa9;" horiz-adv-x="1810" 
d="M905 -25q-160 0 -300 57.5t-238.5 157.5t-155.5 239.5t-57 297.5q0 209 97.5 381.5t270 271.5t383.5 99q158 0 297.5 -58.5t239 -158.5t157.5 -239t58 -296t-58 -296t-157.5 -239t-239 -158.5t-297.5 -58.5zM905 115q176 0 314 82t212 221t74 309q0 168 -74 307t-212 222
t-314 83t-314 -82.5t-212 -221.5t-74 -308q0 -170 74.5 -309.5t212.5 -221t313 -81.5zM696 731q0 -105 59.5 -176.5t157.5 -71.5q124 0 185 101h176q-7 -30 -21.5 -62t-43.5 -68.5t-68 -64.5t-98.5 -46.5t-129.5 -18.5q-170 0 -283.5 117.5t-113.5 289.5q0 171 114 289.5
t283 118.5q81 0 148 -26.5t108 -67.5t65 -81t34 -77h-181q-66 92 -174 92q-98 0 -157.5 -71.5t-59.5 -176.5z" />
    <glyph glyph-name="ordfeminine" unicode="&#xaa;" horiz-adv-x="1136" 
d="M768 723q-7 -17 -18 -34.5t-33 -41t-49 -41t-68 -29.5t-88 -12q-161 0 -265 123t-104 332q0 210 104 333.5t265 123.5q59 0 107 -18t78 -47t45 -50t26 -43v135h180v-868h-180v137zM770 1020q0 130 -58.5 212.5t-160.5 82.5q-104 0 -162.5 -82.5t-58.5 -212.5
q0 -129 58.5 -211t162.5 -82q102 0 160.5 82.5t58.5 210.5z" />
    <glyph glyph-name="guillemotleft" unicode="&#xab;" horiz-adv-x="1128" 
d="M358 928h185l-228 -363l228 -366h-187l-223 364zM801 928h184l-227 -363l227 -366h-186l-224 364z" />
    <glyph glyph-name="registered" unicode="&#xae;" horiz-adv-x="1191" 
d="M596 504q-210 0 -348.5 139.5t-138.5 347.5q0 206 139.5 347t347.5 141q136 0 248 -64.5t175.5 -176.5t63.5 -247q0 -101 -37.5 -191.5t-102 -155t-155 -102.5t-192.5 -38zM596 610q166 0 270.5 109t104.5 272q0 161 -104.5 271t-270.5 110t-270.5 -110t-104.5 -271
q0 -162 105 -271.5t270 -109.5zM391 754v481h260q92 0 138.5 -41.5t46.5 -116.5q0 -95 -80 -133l84 -190h-127l-76 172h-121v-172h-125zM647 1126h-131v-98h131q64 0 64 49t-64 49z" />
    <glyph glyph-name="macron" unicode="&#xaf;" horiz-adv-x="1024" 
d="M809 1272h-594v160h594v-160z" />
    <glyph glyph-name="degree" unicode="&#xb0;" horiz-adv-x="1134" 
d="M567 713q-163 0 -273 110t-110 273t110 273t273 110t273 -110t110 -273t-110 -273t-273 -110zM567 864q97 0 159 66.5t62 165.5t-62 165t-159 66t-159 -66t-62 -165q0 -100 61.5 -166t159.5 -66z" />
    <glyph glyph-name="two.sup" unicode="&#xb2;" horiz-adv-x="974" 
d="M887 653v-157h-752v112l354 340q83 79 118.5 135t35.5 125q0 72 -45 115t-125 43q-79 0 -124.5 -49t-45.5 -129v-58h-170v60q0 149 91.5 241.5t250.5 92.5q161 0 253.5 -86.5t92.5 -225.5q0 -58 -14.5 -107.5t-47.5 -96.5t-67 -84t-92 -90l-192 -181h479z" />
    <glyph glyph-name="three.sup" unicode="&#xb3;" horiz-adv-x="997" 
d="M494 635q88 0 139 40.5t51 112.5q0 73 -45 111.5t-129 38.5h-180v156h176q71 0 110 35.5t39 99.5q0 65 -46.5 103t-121.5 38q-76 0 -118 -38t-52 -95h-174q2 53 24 102.5t63 91.5t107.5 67.5t149.5 25.5q161 0 252.5 -77t91.5 -206q0 -82 -41.5 -134.5t-95.5 -76.5
q67 -21 117.5 -84t50.5 -170q0 -134 -98.5 -215.5t-269.5 -81.5q-92 0 -164.5 26.5t-115.5 70t-66.5 94t-28.5 104.5h178q10 -55 60.5 -97t136.5 -42z" />
    <glyph glyph-name="acute" unicode="&#xb4;" horiz-adv-x="1228" 
d="M412 1186l200 375h205l-215 -375h-190z" />
    <glyph glyph-name="paragraph" unicode="&#xb6;" horiz-adv-x="1353" 
d="M563 0v713h-74q-175 0 -286 102.5t-111 267.5t111 268t286 103h639v-1454h-172v1288h-221v-1288h-172z" />
    <glyph glyph-name="periodcentered" unicode="&#xb7;" horiz-adv-x="598" 
d="M180 625v290h238v-290h-238z" />
    <glyph glyph-name="cedilla" unicode="&#xb8;" horiz-adv-x="1228" 
d="M653 -319q0 69 -84 69h-125v250h164v-113q111 0 167 -55.5t56 -150.5q0 -100 -59 -162t-180 -62h-195v152h172q84 0 84 72z" />
    <glyph glyph-name="one.sup" unicode="&#xb9;" horiz-adv-x="727" 
d="M526 496h-176v815l-250 -144v166l295 178h131v-1015z" />
    <glyph glyph-name="ordmasculine" unicode="&#xba;" horiz-adv-x="1110" 
d="M555 1481q186 0 301 -129.5t115 -329.5q0 -199 -115.5 -328t-300.5 -129t-300.5 129t-115.5 328q0 200 115 329.5t301 129.5zM555 725q110 0 170.5 83.5t60.5 213.5t-60.5 213.5t-170.5 83.5t-170.5 -83.5t-60.5 -213.5t60.5 -213.5t170.5 -83.5z" />
    <glyph glyph-name="guillemotright" unicode="&#xbb;" horiz-adv-x="1128" 
d="M770 199h-184l227 362l-227 367h186l223 -365zM328 199h-185l228 362l-228 367h187l223 -365z" />
    <glyph glyph-name="onequarter" unicode="&#xbc;" horiz-adv-x="1914" 
d="M477 582h-174v680l-215 -121v162l258 155h131v-876zM332 0l887 1454h188l-887 -1454h-188zM1835 229h-172v-229h-166v229h-438v123l395 520h209v-499h172v-144zM1237 373h260v348z" />
    <glyph glyph-name="onehalf" unicode="&#xbd;" horiz-adv-x="1908" 
d="M477 582h-174v680l-215 -121v162l258 155h131v-876zM330 0l887 1454h188l-887 -1454h-188zM1829 154v-154h-660v113l310 293q65 63 92.5 105.5t27.5 94.5q0 56 -35.5 90.5t-97.5 34.5t-98.5 -38.5t-36.5 -102.5v-47h-166v49q0 130 80.5 212.5t220.5 82.5q144 0 226 -75.5
t82 -199.5q0 -49 -12.5 -91t-40.5 -82t-58 -71t-78 -75l-151 -139h395z" />
    <glyph glyph-name="threequarters" unicode="&#xbe;" horiz-adv-x="2113" 
d="M432 721q71 0 112.5 32t41.5 87t-35 84.5t-98 29.5h-162v152h155q54 0 83.5 26.5t29.5 75.5q0 52 -36 81.5t-97 29.5q-62 0 -95 -30t-40 -72h-172q2 46 21.5 89.5t55.5 80.5t96 59t134 22q145 0 226 -65.5t81 -179.5q0 -68 -34.5 -114t-80.5 -67q58 -18 101 -71.5
t43 -143.5q0 -117 -88.5 -188.5t-241.5 -71.5q-81 0 -145.5 24t-102.5 63t-59 83.5t-25 91.5h174q9 -43 48.5 -75.5t109.5 -32.5zM530 0l887 1454h189l-887 -1454h-189zM2034 229h-172v-229h-166v229h-439v123l396 520h209v-499h172v-144zM1436 373h260v348z" />
    <glyph glyph-name="questiondown" unicode="&#xbf;" horiz-adv-x="1114" 
d="M801 1012v-291h-238v291h238zM588 537h188v-17q0 -94 -29 -143.5t-126 -116.5l-148 -102q-77 -54 -119.5 -111.5t-42.5 -134.5q0 -96 62 -153.5t168 -57.5q107 0 169 67.5t62 174.5v65h182v-71q0 -185 -111.5 -294.5t-301.5 -109.5q-197 0 -308.5 102t-111.5 277
q0 128 61 215.5t189 173.5l147 100q40 28 55 58.5t15 77.5z" />
    <glyph glyph-name="Agrave" unicode="&#xc0;" horiz-adv-x="1523" 
d="M860 1593h-209l-223 308h225zM1247 0l-143 350h-696l-144 -350h-196l606 1462h176l606 -1462h-209zM483 530h545l-272 664z" />
    <glyph glyph-name="Aacute" unicode="&#xc1;" horiz-adv-x="1523" 
d="M653 1593l209 308h225l-225 -308h-209zM1247 0l-143 350h-696l-144 -350h-196l606 1462h176l606 -1462h-209zM483 530h545l-272 664z" />
    <glyph glyph-name="Acircumflex" unicode="&#xc2;" horiz-adv-x="1523" 
d="M907 1587l-149 178l-152 -178h-200l270 320h160l264 -320h-193zM1247 0l-143 350h-696l-144 -350h-196l606 1462h176l606 -1462h-209zM483 530h545l-272 664z" />
    <glyph glyph-name="Atilde" unicode="&#xc3;" horiz-adv-x="1523" 
d="M748 1671l-74 45q-50 31 -70 31q-35 0 -35 -49v-115h-149v135q0 91 39.5 142t118.5 51q17 0 35 -3.5t30 -7t32 -14.5t27.5 -15t31.5 -19t30 -19l74 -45q6 -3 19.5 -11t19 -11t14.5 -6t16 -3q35 0 35 49v115h150v-135q0 -91 -39.5 -142t-118.5 -51q-18 0 -36 3.5
t-30.5 7.5t-31.5 14t-27.5 15t-30.5 19t-30 19zM1247 0l-143 350h-696l-144 -350h-196l606 1462h176l606 -1462h-209zM483 530h545l-272 664z" />
    <glyph glyph-name="Adieresis" unicode="&#xc4;" horiz-adv-x="1523" 
d="M463 1593v285h188v-285h-188zM860 1593v285h189v-285h-189zM1247 0l-143 350h-696l-144 -350h-196l606 1462h176l606 -1462h-209zM483 530h545l-272 664z" />
    <glyph glyph-name="Aring" unicode="&#xc5;" horiz-adv-x="1523" 
d="M756 1573q-112 0 -187 74t-75 182q0 111 75 185.5t187 74.5t187 -74.5t75 -185.5q0 -108 -75 -182t-187 -74zM756 1698q56 0 91.5 37.5t35.5 93.5q0 57 -35 94t-92 37t-92 -37t-35 -94q0 -56 35.5 -93.5t91.5 -37.5zM1247 0l-143 350h-696l-144 -350h-196l606 1462h176
l606 -1462h-209zM483 530h545l-272 664z" />
    <glyph glyph-name="AE" unicode="&#xc6;" horiz-adv-x="2123" 
d="M0 0l920 1454h1044v-184h-747v-406h448v-184h-448v-496h819v-184h-1018v375h-559l-234 -375h-225zM567 551h451v723z" />
    <glyph glyph-name="Ccedilla" unicode="&#xc7;" horiz-adv-x="1495" 
d="M852 -319q0 69 -84 69h-125v240q-229 52 -362.5 254.5t-133.5 482.5q0 209 76.5 379.5t222 271.5t334.5 101q113 0 209.5 -30.5t160 -77.5t111 -108t71.5 -119t32 -114h-197q-12 30 -29.5 60.5t-50.5 68.5t-73.5 66t-102 47.5t-131.5 19.5q-102 0 -184 -45.5t-134 -123.5
t-79 -179.5t-27 -216.5t27 -216.5t79 -179.5t134 -123.5t184 -45.5q71 0 133 19.5t103.5 48.5t75 67t51 69.5t28.5 61.5h193q-7 -53 -30 -109.5t-68 -117.5t-106 -109t-153 -81t-200 -36v-88q111 0 167 -55.5t56 -150.5q0 -100 -59 -162t-180 -62h-195v152h172q84 0 84 72z
" />
    <glyph glyph-name="Egrave" unicode="&#xc8;" horiz-adv-x="1433" 
d="M897 1593h-209l-223 308h225zM225 0v1454h1045v-184h-848v-406h500v-184h-500v-496h924v-184h-1121z" />
    <glyph glyph-name="Eacute" unicode="&#xc9;" horiz-adv-x="1433" 
d="M643 1593l209 308h225l-225 -308h-209zM225 0v1454h1045v-184h-848v-406h500v-184h-500v-496h924v-184h-1121z" />
    <glyph glyph-name="Ecircumflex" unicode="&#xca;" horiz-adv-x="1433" 
d="M915 1587l-149 178l-152 -178h-200l270 320h160l264 -320h-193zM225 0v1454h1045v-184h-848v-406h500v-184h-500v-496h924v-184h-1121z" />
    <glyph glyph-name="Edieresis" unicode="&#xcb;" horiz-adv-x="1433" 
d="M471 1593v285h188v-285h-188zM868 1593v285h189v-285h-189zM225 0v1454h1045v-184h-848v-406h500v-184h-500v-496h924v-184h-1121z" />
    <glyph glyph-name="Igrave" unicode="&#xcc;" horiz-adv-x="653" 
d="M430 1593h-209l-223 308h225zM227 0v1454h199v-1454h-199z" />
    <glyph glyph-name="Iacute" unicode="&#xcd;" horiz-adv-x="653" 
d="M223 1593l209 308h225l-225 -308h-209zM227 0v1454h199v-1454h-199z" />
    <glyph glyph-name="Icircumflex" unicode="&#xce;" horiz-adv-x="653" 
d="M477 1587l-149 178l-152 -178h-201l271 320h160l264 -320h-193zM227 0v1454h199v-1454h-199z" />
    <glyph glyph-name="Idieresis" unicode="&#xcf;" horiz-adv-x="653" 
d="M33 1593v285h188v-285h-188zM430 1593v285h188v-285h-188zM227 0v1454h199v-1454h-199z" />
    <glyph glyph-name="Eth" unicode="&#xd0;" horiz-adv-x="1619" 
d="M248 0v643h-223v180h223v631h485q341 0 541.5 -197.5t200.5 -529.5q0 -328 -201 -527.5t-541 -199.5h-485zM733 1272h-287v-449h443v-180h-443v-461h287q248 0 392.5 147.5t144.5 397.5q0 256 -143.5 400.5t-393.5 144.5z" />
    <glyph glyph-name="Ntilde" unicode="&#xd1;" horiz-adv-x="1665" 
d="M850 1671l-74 45q-50 31 -69 31q-35 0 -35 -49v-115h-150v135q0 91 39.5 142t118.5 51q17 0 35 -3.5t30 -7t32 -14.5t27.5 -15t31.5 -19t30 -19l74 -45q6 -3 16 -9t15.5 -9t13 -6.5t13.5 -5t12 -1.5q34 0 34 49v115h150v-135q0 -91 -39.5 -142t-118.5 -51q-18 0 -36 3.5
t-30.5 7.5t-31.5 14t-27.5 15t-30.5 19t-30 19zM1440 1454v-1464h-150l-874 1210v-1200h-191v1454h238l786 -1102v1102h191z" />
    <glyph glyph-name="Ograve" unicode="&#xd2;" horiz-adv-x="1601" 
d="M905 1593h-209l-223 308h225zM801 -25q-197 0 -347 98t-228.5 268t-78.5 386q0 214 79.5 384t229.5 269t345 99q146 0 269 -57.5t207 -158t130.5 -238.5t46.5 -298t-46.5 -298t-130.5 -238.5t-207 -158t-269 -57.5zM801 160q140 0 243 76t154 203t51 288q0 118 -30 220.5
t-85.5 180t-141 122t-191.5 44.5q-140 0 -243.5 -76.5t-154.5 -203.5t-51 -287q0 -163 51 -290t154 -202t244 -75z" />
    <glyph glyph-name="Oacute" unicode="&#xd3;" horiz-adv-x="1601" 
d="M680 1593l209 308h225l-225 -308h-209zM801 -25q-197 0 -347 98t-228.5 268t-78.5 386q0 214 79.5 384t229.5 269t345 99q146 0 269 -57.5t207 -158t130.5 -238.5t46.5 -298t-46.5 -298t-130.5 -238.5t-207 -158t-269 -57.5zM801 160q140 0 243 76t154 203t51 288
q0 118 -30 220.5t-85.5 180t-141 122t-191.5 44.5q-140 0 -243.5 -76.5t-154.5 -203.5t-51 -287q0 -163 51 -290t154 -202t244 -75z" />
    <glyph glyph-name="Ocircumflex" unicode="&#xd4;" horiz-adv-x="1601" 
d="M952 1587l-149 178l-152 -178h-200l270 320h160l264 -320h-193zM801 -25q-197 0 -347 98t-228.5 268t-78.5 386q0 214 79.5 384t229.5 269t345 99q146 0 269 -57.5t207 -158t130.5 -238.5t46.5 -298t-46.5 -298t-130.5 -238.5t-207 -158t-269 -57.5zM801 160
q140 0 243 76t154 203t51 288q0 118 -30 220.5t-85.5 180t-141 122t-191.5 44.5q-140 0 -243.5 -76.5t-154.5 -203.5t-51 -287q0 -163 51 -290t154 -202t244 -75z" />
    <glyph glyph-name="Otilde" unicode="&#xd5;" horiz-adv-x="1601" 
d="M793 1671l-74 45q-50 31 -70 31q-35 0 -35 -49v-115h-149v135q0 91 39.5 142t118.5 51q17 0 35 -3.5t30 -7t32 -14.5t27.5 -15t31.5 -19t30 -19l74 -45q6 -3 19.5 -11t19 -11t14.5 -6t16 -3q35 0 35 49v115h150v-135q0 -91 -39.5 -142t-118.5 -51q-18 0 -36 3.5
t-30.5 7.5t-31.5 14t-27.5 15t-30.5 19t-30 19zM801 -25q-197 0 -347 98t-228.5 268t-78.5 386q0 214 79.5 384t229.5 269t345 99q146 0 269 -57.5t207 -158t130.5 -238.5t46.5 -298t-46.5 -298t-130.5 -238.5t-207 -158t-269 -57.5zM801 160q140 0 243 76t154 203t51 288
q0 118 -30 220.5t-85.5 180t-141 122t-191.5 44.5q-140 0 -243.5 -76.5t-154.5 -203.5t-51 -287q0 -163 51 -290t154 -202t244 -75z" />
    <glyph glyph-name="Odieresis" unicode="&#xd6;" horiz-adv-x="1601" 
d="M508 1593v285h188v-285h-188zM905 1593v285h189v-285h-189zM801 -25q-197 0 -347 98t-228.5 268t-78.5 386q0 214 79.5 384t229.5 269t345 99q146 0 269 -57.5t207 -158t130.5 -238.5t46.5 -298t-46.5 -298t-130.5 -238.5t-207 -158t-269 -57.5zM801 160q140 0 243 76
t154 203t51 288q0 118 -30 220.5t-85.5 180t-141 122t-191.5 44.5q-140 0 -243.5 -76.5t-154.5 -203.5t-51 -287q0 -163 51 -290t154 -202t244 -75z" />
    <glyph glyph-name="multiply" unicode="&#xd7;" horiz-adv-x="1310" 
d="M172 231l369 371l-369 367l119 118l366 -370l369 370l111 -110l-369 -371l371 -375l-115 -110l-373 371l-368 -371z" />
    <glyph glyph-name="Oslash" unicode="&#xd8;" horiz-adv-x="1601" 
d="M125 0l172 221q-150 205 -150 506q0 214 79.5 384t229.5 269t345 99q218 0 379 -123l75 98h222l-174 -223q151 -206 151 -504q0 -160 -46.5 -298t-130.5 -238.5t-207 -158t-269 -57.5q-222 0 -383 123l-78 -98h-215zM352 727q0 -201 72 -342l641 821q-108 88 -264 88
q-139 0 -242.5 -76.5t-155 -204t-51.5 -286.5zM801 160q105 0 190.5 44t141.5 121t86 180t30 222q0 205 -73 342l-641 -821q108 -88 266 -88z" />
    <glyph glyph-name="Ugrave" unicode="&#xd9;" horiz-adv-x="1626" 
d="M944 1593h-209l-223 308h225zM1208 578v876h199v-893q0 -120 -39 -225.5t-111.5 -186t-187 -127.5t-256.5 -47q-147 0 -262 46t-186.5 126.5t-108.5 185.5t-37 228v893h199v-876q0 -187 102.5 -299.5t292.5 -112.5q185 0 290 113.5t105 298.5z" />
    <glyph glyph-name="Uacute" unicode="&#xda;" horiz-adv-x="1626" 
d="M684 1593l209 308h225l-225 -308h-209zM1208 578v876h199v-893q0 -120 -39 -225.5t-111.5 -186t-187 -127.5t-256.5 -47q-147 0 -262 46t-186.5 126.5t-108.5 185.5t-37 228v893h199v-876q0 -187 102.5 -299.5t292.5 -112.5q185 0 290 113.5t105 298.5z" />
    <glyph glyph-name="Ucircumflex" unicode="&#xdb;" horiz-adv-x="1626" 
d="M965 1587l-150 178l-151 -178h-201l270 320h160l264 -320h-192zM1208 578v876h199v-893q0 -120 -39 -225.5t-111.5 -186t-187 -127.5t-256.5 -47q-147 0 -262 46t-186.5 126.5t-108.5 185.5t-37 228v893h199v-876q0 -187 102.5 -299.5t292.5 -112.5q185 0 290 113.5
t105 298.5z" />
    <glyph glyph-name="Udieresis" unicode="&#xdc;" horiz-adv-x="1626" 
d="M520 1593v285h189v-285h-189zM918 1593v285h188v-285h-188zM1208 578v876h199v-893q0 -120 -39 -225.5t-111.5 -186t-187 -127.5t-256.5 -47q-147 0 -262 46t-186.5 126.5t-108.5 185.5t-37 228v893h199v-876q0 -187 102.5 -299.5t292.5 -112.5q185 0 290 113.5
t105 298.5z" />
    <glyph glyph-name="Yacute" unicode="&#xdd;" horiz-adv-x="1402" 
d="M586 1593l209 308h225l-225 -308h-209zM608 584l-577 870h245l437 -670l436 670h223l-565 -868v-586h-199v584z" />
    <glyph glyph-name="Thorn" unicode="&#xde;" horiz-adv-x="1480" 
d="M225 0v1454h199v-301h455q235 0 357 -104.5t122 -298.5q0 -192 -123 -302t-356 -110h-455v-338h-199zM885 969h-461v-447h461q131 0 199.5 60.5t68.5 162.5q0 108 -67.5 166t-200.5 58z" />
    <glyph glyph-name="germandbls" unicode="&#xdf;" horiz-adv-x="1243" 
d="M614 1532q192 0 307 -105.5t115 -289.5q0 -123 -64.5 -202t-144.5 -99q128 -24 214.5 -129t86.5 -258q0 -206 -125 -327.5t-350 -121.5h-80v170h45q153 0 235.5 74t82.5 205t-82.5 204.5t-235.5 73.5h-45v166h15q119 0 187.5 61t68.5 172q0 110 -63 172t-167 62
q-109 0 -171 -71.5t-62 -207.5v-1081h-188v1094q0 208 111 323t310 115z" />
    <glyph glyph-name="agrave" unicode="&#xe0;" horiz-adv-x="1230" 
d="M684 1186h-190l-215 375h204zM856 166q-9 -21 -22 -42.5t-39 -49.5t-57 -49t-79.5 -35.5t-103.5 -14.5q-186 0 -307 143t-121 386t121 386.5t307 143.5q56 0 104.5 -15.5t79.5 -36t57 -50t38 -48.5t22 -40v168h186v-1012h-186v166zM860 504q0 157 -72 257.5t-198 100.5
q-128 0 -199.5 -100t-71.5 -258q0 -157 71.5 -258t199.5 -101q125 0 197.5 101.5t72.5 257.5z" />
    <glyph glyph-name="aacute" unicode="&#xe1;" horiz-adv-x="1230" 
d="M496 1186l200 375h205l-215 -375h-190zM856 166q-9 -21 -22 -42.5t-39 -49.5t-57 -49t-79.5 -35.5t-103.5 -14.5q-186 0 -307 143t-121 386t121 386.5t307 143.5q56 0 104.5 -15.5t79.5 -36t57 -50t38 -48.5t22 -40v168h186v-1012h-186v166zM860 504q0 157 -72 257.5
t-198 100.5q-128 0 -199.5 -100t-71.5 -258q0 -157 71.5 -258t199.5 -101q125 0 197.5 101.5t72.5 257.5z" />
    <glyph glyph-name="acircumflex" unicode="&#xe2;" horiz-adv-x="1230" 
d="M731 1180l-141 229l-139 -229h-181l242 395h156l237 -395h-174zM856 166q-9 -21 -22 -42.5t-39 -49.5t-57 -49t-79.5 -35.5t-103.5 -14.5q-186 0 -307 143t-121 386t121 386.5t307 143.5q56 0 104.5 -15.5t79.5 -36t57 -50t38 -48.5t22 -40v168h186v-1012h-186v166z
M860 504q0 157 -72 257.5t-198 100.5q-128 0 -199.5 -100t-71.5 -258q0 -157 71.5 -258t199.5 -101q125 0 197.5 101.5t72.5 257.5z" />
    <glyph glyph-name="atilde" unicode="&#xe3;" horiz-adv-x="1230" 
d="M422 1178h-146v151q0 90 40 141.5t120 51.5q52 0 89 -20.5t89 -67.5l52 -48q2 -2 9 -8t9 -7.5t7.5 -6t8 -5.5t7.5 -3.5t9 -3t9 -0.5q35 0 35 47v133h145v-152q0 -90 -40 -141t-120 -51q-50 0 -87 21t-89 67l-51 47q-1 1 -7 6.5t-7.5 6.5t-6.5 5t-6.5 5l-6 4t-7 3.5t-6 2
t-7 2t-7.5 0.5q-35 0 -35 -47v-133zM856 166q-9 -21 -22 -42.5t-39 -49.5t-57 -49t-79.5 -35.5t-103.5 -14.5q-186 0 -307 143t-121 386t121 386.5t307 143.5q56 0 104.5 -15.5t79.5 -36t57 -50t38 -48.5t22 -40v168h186v-1012h-186v166zM860 504q0 157 -72 257.5
t-198 100.5q-128 0 -199.5 -100t-71.5 -258q0 -157 71.5 -258t199.5 -101q125 0 197.5 101.5t72.5 257.5z" />
    <glyph glyph-name="adieresis" unicode="&#xe4;" horiz-adv-x="1230" 
d="M307 1206v285h189v-285h-189zM684 1206v285h188v-285h-188zM856 166q-9 -21 -22 -42.5t-39 -49.5t-57 -49t-79.5 -35.5t-103.5 -14.5q-186 0 -307 143t-121 386t121 386.5t307 143.5q56 0 104.5 -15.5t79.5 -36t57 -50t38 -48.5t22 -40v168h186v-1012h-186v166zM860 504
q0 157 -72 257.5t-198 100.5q-128 0 -199.5 -100t-71.5 -258q0 -157 71.5 -258t199.5 -101q125 0 197.5 101.5t72.5 257.5z" />
    <glyph glyph-name="aring" unicode="&#xe5;" horiz-adv-x="1230" 
d="M590 1161q-112 0 -187 74t-75 182q0 111 75 185.5t187 74.5t187 -74.5t75 -185.5q0 -108 -75 -182t-187 -74zM590 1286q56 0 91.5 37.5t35.5 93.5q0 57 -35 94t-92 37t-92 -37t-35 -94q0 -56 35.5 -93.5t91.5 -37.5zM856 166q-9 -21 -22 -42.5t-39 -49.5t-57 -49
t-79.5 -35.5t-103.5 -14.5q-186 0 -307 143t-121 386t121 386.5t307 143.5q56 0 104.5 -15.5t79.5 -36t57 -50t38 -48.5t22 -40v168h186v-1012h-186v166zM860 504q0 157 -72 257.5t-198 100.5q-128 0 -199.5 -100t-71.5 -258q0 -157 71.5 -258t199.5 -101q125 0 197.5 101.5
t72.5 257.5z" />
    <glyph glyph-name="ae" unicode="&#xe6;" horiz-adv-x="1841" 
d="M559 1038q128 0 223 -51.5t138 -134.5q49 83 138.5 134.5t211.5 51.5q204 0 329 -145t125 -385v-29h-723q8 -146 83 -240t204 -94q178 0 252 125h178q-9 -31 -23.5 -63t-48 -76t-78 -76.5t-118 -56t-162.5 -23.5q-142 0 -246 67t-153 165q-17 -41 -44 -78t-69 -73
t-106 -57.5t-142 -21.5q-180 0 -294.5 93t-114.5 249q0 147 100.5 227.5t284.5 80.5h309q0 114 -69.5 180.5t-184.5 66.5q-55 0 -99 -15t-69 -38t-38 -40t-19 -33h-187q4 25 18 57.5t46 74.5t76 76t115.5 58t156.5 24zM1270 879q-109 0 -175 -66.5t-87 -185.5h520
q-24 122 -89 187t-169 65zM537 133q112 0 194 64.5t82 167.5v114h-299q-96 0 -152.5 -41.5t-56.5 -118.5q0 -82 64 -134t168 -52z" />
    <glyph glyph-name="ccedilla" unicode="&#xe7;" horiz-adv-x="1110" 
d="M655 -319q0 69 -84 69h-125v248q-146 48 -234.5 185.5t-88.5 322.5q0 230 131.5 381t329.5 151q92 0 167 -27.5t119.5 -65.5t76.5 -87t45 -83.5t18 -63.5h-183q-9 22 -23.5 43t-42.5 49t-74 45.5t-103 17.5q-120 0 -194.5 -102t-74.5 -258q0 -155 75 -258t196 -103
q48 0 89 13.5t64.5 29.5t45 43t28.5 39t16 31h181q-5 -25 -17 -57.5t-42.5 -80.5t-72 -86.5t-112 -68.5t-156.5 -33v-88q112 0 168 -55.5t56 -150.5q0 -100 -59.5 -162t-180.5 -62h-195v152h172q84 0 84 72z" />
    <glyph glyph-name="egrave" unicode="&#xe8;" horiz-adv-x="1159" 
d="M678 1186h-191l-215 375h205zM584 1038q206 0 332 -144.5t126 -385.5v-29h-731q8 -146 84.5 -240t206.5 -94q182 0 256 125h178q-9 -31 -23.5 -63t-48.5 -76t-78.5 -76.5t-119 -56t-164.5 -23.5q-144 0 -254 71t-167.5 191t-57.5 269q0 234 126.5 383t334.5 149zM584 879
q-111 0 -178.5 -66.5t-88.5 -185.5h529q-24 122 -90 187t-172 65z" />
    <glyph glyph-name="eacute" unicode="&#xe9;" horiz-adv-x="1159" 
d="M489 1186l201 375h205l-215 -375h-191zM584 1038q206 0 332 -144.5t126 -385.5v-29h-731q8 -146 84.5 -240t206.5 -94q182 0 256 125h178q-9 -31 -23.5 -63t-48.5 -76t-78.5 -76.5t-119 -56t-164.5 -23.5q-144 0 -254 71t-167.5 191t-57.5 269q0 234 126.5 383t334.5 149
zM584 879q-111 0 -178.5 -66.5t-88.5 -185.5h529q-24 122 -90 187t-172 65z" />
    <glyph glyph-name="ecircumflex" unicode="&#xea;" horiz-adv-x="1159" 
d="M725 1180l-141 229l-140 -229h-180l242 395h156l237 -395h-174zM584 1038q206 0 332 -144.5t126 -385.5v-29h-731q8 -146 84.5 -240t206.5 -94q182 0 256 125h178q-9 -31 -23.5 -63t-48.5 -76t-78.5 -76.5t-119 -56t-164.5 -23.5q-144 0 -254 71t-167.5 191t-57.5 269
q0 234 126.5 383t334.5 149zM584 879q-111 0 -178.5 -66.5t-88.5 -185.5h529q-24 122 -90 187t-172 65z" />
    <glyph glyph-name="edieresis" unicode="&#xeb;" horiz-adv-x="1159" 
d="M301 1206v285h188v-285h-188zM678 1206v285h188v-285h-188zM584 1038q206 0 332 -144.5t126 -385.5v-29h-731q8 -146 84.5 -240t206.5 -94q182 0 256 125h178q-9 -31 -23.5 -63t-48.5 -76t-78.5 -76.5t-119 -56t-164.5 -23.5q-144 0 -254 71t-167.5 191t-57.5 269
q0 234 126.5 383t334.5 149zM584 879q-111 0 -178.5 -66.5t-88.5 -185.5h529q-24 122 -90 187t-172 65z" />
    <glyph glyph-name="igrave" unicode="&#xec;" horiz-adv-x="567" 
d="M377 1186h-191l-215 375h205zM190 0v1012h187v-1012h-187z" />
    <glyph glyph-name="iacute" unicode="&#xed;" horiz-adv-x="567" 
d="M190 1186l201 375h205l-215 -375h-191zM190 0v1012h187v-1012h-187z" />
    <glyph glyph-name="icircumflex" unicode="&#xee;" horiz-adv-x="567" 
d="M424 1180l-141 229l-140 -229h-180l242 395h155l238 -395h-174zM190 0v1012h187v-1012h-187z" />
    <glyph glyph-name="idieresis" unicode="&#xef;" horiz-adv-x="567" 
d="M0 1206v285h188v-285h-188zM377 1206v285h188v-285h-188zM190 0v1012h187v-1012h-187z" />
    <glyph glyph-name="eth" unicode="&#xf0;" horiz-adv-x="1196" 
d="M516 1004q110 0 186 -58l-196 250l-268 -131l-58 119l242 119l-164 204h215l102 -129l256 125l60 -119l-229 -112l206 -260q107 -135 156 -249t49 -257q0 -229 -131.5 -380t-343.5 -151t-343.5 151t-131.5 380q0 140 48.5 253t138.5 179t206 66zM598 145q133 0 208 102
t75 259t-75 258.5t-208 101.5t-208 -101.5t-75 -258.5q0 -102 31.5 -182.5t96.5 -129.5t155 -49z" />
    <glyph glyph-name="ntilde" unicode="&#xf1;" horiz-adv-x="1247" 
d="M465 1178h-146v151q0 90 40 141.5t120 51.5q52 0 89 -20.5t89 -67.5l52 -48q2 -2 9 -8t9 -7.5t7.5 -6t8 -5.5t7.5 -3.5t9 -3t9 -0.5q35 0 35 47v133h145v-152q0 -90 -40 -141t-120 -51q-50 0 -87 21t-89 67l-51 47q-1 1 -7 6.5t-7.5 6.5t-6.5 5t-6.5 5l-6 4t-7 3.5t-6 2
t-7 2t-7.5 0.5q-35 0 -35 -47v-133zM188 0v1012h187v-170q33 76 111 134t192 58q177 0 283 -116t106 -316v-602h-188v567q0 144 -65 219.5t-181 75.5q-121 0 -189.5 -77t-68.5 -218v-567h-187z" />
    <glyph glyph-name="ograve" unicode="&#xf2;" horiz-adv-x="1196" 
d="M692 1186h-190l-215 375h205zM598 1036q212 0 343.5 -150.5t131.5 -379.5t-131.5 -380t-343.5 -151t-343.5 151t-131.5 380t131.5 379.5t343.5 150.5zM598 147q133 0 208 101.5t75 257.5t-75 257t-208 101t-208 -101t-75 -257t74.5 -257.5t208.5 -101.5z" />
    <glyph glyph-name="oacute" unicode="&#xf3;" horiz-adv-x="1196" 
d="M504 1186l201 375h204l-215 -375h-190zM598 1036q212 0 343.5 -150.5t131.5 -379.5t-131.5 -380t-343.5 -151t-343.5 151t-131.5 380t131.5 379.5t343.5 150.5zM598 147q133 0 208 101.5t75 257.5t-75 257t-208 101t-208 -101t-75 -257t74.5 -257.5t208.5 -101.5z" />
    <glyph glyph-name="ocircumflex" unicode="&#xf4;" horiz-adv-x="1196" 
d="M739 1180l-141 229l-139 -229h-180l241 395h156l237 -395h-174zM598 1036q212 0 343.5 -150.5t131.5 -379.5t-131.5 -380t-343.5 -151t-343.5 151t-131.5 380t131.5 379.5t343.5 150.5zM598 147q133 0 208 101.5t75 257.5t-75 257t-208 101t-208 -101t-75 -257
t74.5 -257.5t208.5 -101.5z" />
    <glyph glyph-name="otilde" unicode="&#xf5;" horiz-adv-x="1196" 
d="M430 1178h-145v151q0 91 40 142t119 51q52 0 89.5 -20.5t89.5 -67.5l51 -48q2 -2 9 -8t9 -7.5t7.5 -6t8 -5.5t7.5 -3.5t9 -3t9 -0.5q35 0 35 47v133h145v-152q0 -91 -39.5 -141.5t-119.5 -50.5q-50 0 -87 21t-89 67l-52 47q-1 1 -7 6.5t-7.5 6.5t-6.5 5t-6.5 5l-6 4
t-7 3.5t-6 2t-7 2t-7.5 0.5q-35 0 -35 -47v-133zM598 1036q212 0 343.5 -150.5t131.5 -379.5t-131.5 -380t-343.5 -151t-343.5 151t-131.5 380t131.5 379.5t343.5 150.5zM598 147q133 0 208 101.5t75 257.5t-75 257t-208 101t-208 -101t-75 -257t74.5 -257.5t208.5 -101.5z
" />
    <glyph glyph-name="odieresis" unicode="&#xf6;" horiz-adv-x="1196" 
d="M315 1206v285h189v-285h-189zM692 1206v285h189v-285h-189zM598 1036q212 0 343.5 -150.5t131.5 -379.5t-131.5 -380t-343.5 -151t-343.5 151t-131.5 380t131.5 379.5t343.5 150.5zM598 147q133 0 208 101.5t75 257.5t-75 257t-208 101t-208 -101t-75 -257t74.5 -257.5
t208.5 -101.5z" />
    <glyph glyph-name="divide" unicode="&#xf7;" horiz-adv-x="1425" 
d="M596 915v293h238v-293h-238zM1253 563h-1081v164h1081v-164zM596 61v293h238v-293h-238z" />
    <glyph glyph-name="oslash" unicode="&#xf8;" horiz-adv-x="1196" 
d="M98 0l129 162q-104 138 -104 344q0 231 131.5 381.5t343.5 150.5q148 0 264 -80l41 54h195l-127 -160q102 -142 102 -346q0 -229 -131.5 -380t-343.5 -151q-151 0 -264 80l-45 -55h-191zM315 506q0 -117 33 -193l406 510q-67 45 -156 45q-133 0 -208 -102.5t-75 -259.5z
M881 506q0 116 -33 192l-408 -508q65 -47 158 -47q133 0 208 103t75 260z" />
    <glyph glyph-name="ugrave" unicode="&#xf9;" horiz-adv-x="1224" 
d="M709 1186h-191l-215 375h205zM614 -20q-210 0 -322 114t-112 307v611h189v-600q0 -117 63 -186.5t182 -69.5q116 0 181 70t65 186v600h184v-611q0 -117 -48.5 -211.5t-147.5 -152t-234 -57.5z" />
    <glyph glyph-name="uacute" unicode="&#xfa;" horiz-adv-x="1224" 
d="M500 1186l200 375h205l-215 -375h-190zM614 -20q-210 0 -322 114t-112 307v611h189v-600q0 -117 63 -186.5t182 -69.5q116 0 181 70t65 186v600h184v-611q0 -117 -48.5 -211.5t-147.5 -152t-234 -57.5z" />
    <glyph glyph-name="ucircumflex" unicode="&#xfb;" horiz-adv-x="1224" 
d="M756 1180l-142 229l-139 -229h-180l242 395h155l238 -395h-174zM614 -20q-210 0 -322 114t-112 307v611h189v-600q0 -117 63 -186.5t182 -69.5q116 0 181 70t65 186v600h184v-611q0 -117 -48.5 -211.5t-147.5 -152t-234 -57.5z" />
    <glyph glyph-name="udieresis" unicode="&#xfc;" horiz-adv-x="1224" 
d="M332 1206v285h188v-285h-188zM709 1206v285h188v-285h-188zM614 -20q-210 0 -322 114t-112 307v611h189v-600q0 -117 63 -186.5t182 -69.5q116 0 181 70t65 186v600h184v-611q0 -117 -48.5 -211.5t-147.5 -152t-234 -57.5z" />
    <glyph glyph-name="yacute" unicode="&#xfd;" horiz-adv-x="1095" 
d="M432 1186l201 375h205l-215 -375h-191zM279 -438l180 454l-408 996h205l299 -752l299 752h190l-579 -1450h-186z" />
    <glyph glyph-name="thorn" unicode="&#xfe;" horiz-adv-x="1251" 
d="M373 158v-596h-185v1945h185v-661q10 20 23 40t40.5 49t60 50.5t83 37t108.5 15.5q186 0 311 -144.5t125 -387.5t-125 -387t-311 -144q-57 0 -107.5 15t-83 35.5t-60.5 49t-41 46.5t-23 37zM369 506q0 -157 76 -259t206 -102q128 0 205.5 102.5t77.5 258.5
q0 157 -77.5 258.5t-205.5 101.5q-130 0 -206 -101t-76 -259z" />
    <glyph glyph-name="ydieresis" unicode="&#xff;" horiz-adv-x="1095" 
d="M272 1206v285h189v-285h-189zM649 1206v285h189v-285h-189zM279 -438l180 454l-408 996h205l299 -752l299 752h190l-579 -1450h-186z" />
    <glyph glyph-name="Amacron" unicode="&#x100;" horiz-adv-x="1523" 
d="M1079 1665h-647v160h647v-160zM1247 0l-143 350h-696l-144 -350h-196l606 1462h176l606 -1462h-209zM483 530h545l-272 664z" />
    <glyph glyph-name="amacron" unicode="&#x101;" horiz-adv-x="1230" 
d="M889 1272h-594v160h594v-160zM856 166q-9 -21 -22 -42.5t-39 -49.5t-57 -49t-79.5 -35.5t-103.5 -14.5q-186 0 -307 143t-121 386t121 386.5t307 143.5q56 0 104.5 -15.5t79.5 -36t57 -50t38 -48.5t22 -40v168h186v-1012h-186v166zM860 504q0 157 -72 257.5t-198 100.5
q-128 0 -199.5 -100t-71.5 -258q0 -157 71.5 -258t199.5 -101q125 0 197.5 101.5t72.5 257.5z" />
    <glyph glyph-name="Abreve" unicode="&#x102;" horiz-adv-x="1523" 
d="M756 1726q65 0 99 42.5t34 103.5v26h155v-30q0 -128 -75 -208.5t-213 -80.5t-213.5 80.5t-75.5 208.5v30h156v-26q0 -61 34 -103.5t99 -42.5zM1247 0l-143 350h-696l-144 -350h-196l606 1462h176l606 -1462h-209zM483 530h545l-272 664z" />
    <glyph glyph-name="abreve" unicode="&#x103;" horiz-adv-x="1230" 
d="M590 1319q60 0 90.5 40.5t30.5 100.5v35h153v-39q0 -126 -70.5 -204t-203.5 -78t-204 78.5t-71 203.5v39h154v-35q0 -58 31 -99.5t90 -41.5zM856 166q-9 -21 -22 -42.5t-39 -49.5t-57 -49t-79.5 -35.5t-103.5 -14.5q-186 0 -307 143t-121 386t121 386.5t307 143.5
q56 0 104.5 -15.5t79.5 -36t57 -50t38 -48.5t22 -40v168h186v-1012h-186v166zM860 504q0 157 -72 257.5t-198 100.5q-128 0 -199.5 -100t-71.5 -258q0 -157 71.5 -258t199.5 -101q125 0 197.5 101.5t72.5 257.5z" />
    <glyph glyph-name="Aogonek" unicode="&#x104;" horiz-adv-x="1523" 
d="M1085 -246q0 37 12 70.5t38.5 66t49 54t62.5 55.5l-143 350h-696l-144 -350h-196l606 1462h176l606 -1462q-56 -50 -73.5 -66.5t-49.5 -49.5t-42.5 -53.5t-10.5 -39.5q0 -61 80 -61h137v-168h-147q-124 0 -194.5 47t-70.5 145zM483 530h545l-272 664z" />
    <glyph glyph-name="aogonek" unicode="&#x105;" horiz-adv-x="1230" 
d="M672 -246q0 35 12 66t41 62.5t49.5 50t65.5 54.5q11 9 16 13v166q-9 -21 -22 -42.5t-39 -49.5t-57 -49t-79.5 -35.5t-103.5 -14.5q-186 0 -307 143t-121 386t121 386.5t307 143.5q56 0 104.5 -15.5t79.5 -36t57 -50t38 -48.5t22 -40v168h186v-1012q-56 -50 -73.5 -66.5
t-49.5 -49.5t-42.5 -53.5t-10.5 -39.5q0 -61 80 -61h137v-168h-147q-124 0 -194 47t-70 145zM860 504q0 157 -72 257.5t-198 100.5q-128 0 -199.5 -100t-71.5 -258q0 -157 71.5 -258t199.5 -101q125 0 197.5 101.5t72.5 257.5z" />
    <glyph glyph-name="Cacute" unicode="&#x106;" horiz-adv-x="1495" 
d="M678 1593l209 308h225l-225 -308h-209zM780 -25q-190 0 -335.5 100.5t-221.5 271t-76 380.5q0 209 76.5 379.5t222 271.5t334.5 101q113 0 209.5 -30.5t160 -77.5t111 -108t71.5 -119t32 -114h-197q-12 30 -29.5 60.5t-50.5 68.5t-73.5 66t-102 47.5t-131.5 19.5
q-102 0 -184 -45.5t-134 -123.5t-79 -179.5t-27 -216.5t27 -216.5t79 -179.5t134 -123.5t184 -45.5q71 0 133 19.5t103.5 48.5t75 67t51 69.5t28.5 61.5h193q-7 -54 -31 -112t-71.5 -120t-111.5 -110.5t-160.5 -79.5t-209.5 -31z" />
    <glyph glyph-name="cacute" unicode="&#x107;" horiz-adv-x="1110" 
d="M489 1186l201 375h205l-215 -375h-191zM827 711q-9 22 -23.5 43t-42.5 49t-74 45.5t-103 17.5q-120 0 -194.5 -102t-74.5 -258q0 -155 75 -258t196 -103q48 0 89 13.5t64.5 29.5t45 43t28.5 39t16 31h181q-5 -26 -17 -59.5t-44.5 -83t-76.5 -88.5t-119 -67t-167 -28
q-198 0 -330.5 151.5t-132.5 379.5q0 230 131.5 381t329.5 151q92 0 167 -27.5t119.5 -65.5t76.5 -87t45 -83.5t18 -63.5h-183z" />
    <glyph glyph-name="Ccircumflex" unicode="&#x108;" horiz-adv-x="1495" 
d="M932 1587l-150 178l-151 -178h-201l270 320h160l264 -320h-192zM780 -25q-190 0 -335.5 100.5t-221.5 271t-76 380.5q0 209 76.5 379.5t222 271.5t334.5 101q113 0 209.5 -30.5t160 -77.5t111 -108t71.5 -119t32 -114h-197q-12 30 -29.5 60.5t-50.5 68.5t-73.5 66
t-102 47.5t-131.5 19.5q-102 0 -184 -45.5t-134 -123.5t-79 -179.5t-27 -216.5t27 -216.5t79 -179.5t134 -123.5t184 -45.5q71 0 133 19.5t103.5 48.5t75 67t51 69.5t28.5 61.5h193q-7 -54 -31 -112t-71.5 -120t-111.5 -110.5t-160.5 -79.5t-209.5 -31z" />
    <glyph glyph-name="ccircumflex" unicode="&#x109;" horiz-adv-x="1110" 
d="M725 1180l-141 229l-140 -229h-180l242 395h156l237 -395h-174zM827 711q-9 22 -23.5 43t-42.5 49t-74 45.5t-103 17.5q-120 0 -194.5 -102t-74.5 -258q0 -155 75 -258t196 -103q48 0 89 13.5t64.5 29.5t45 43t28.5 39t16 31h181q-5 -26 -17 -59.5t-44.5 -83t-76.5 -88.5
t-119 -67t-167 -28q-198 0 -330.5 151.5t-132.5 379.5q0 230 131.5 381t329.5 151q92 0 167 -27.5t119.5 -65.5t76.5 -87t45 -83.5t18 -63.5h-183z" />
    <glyph glyph-name="Cdotaccent" unicode="&#x10a;" horiz-adv-x="1495" 
d="M684 1593v293h193v-293h-193zM780 -25q-190 0 -335.5 100.5t-221.5 271t-76 380.5q0 209 76.5 379.5t222 271.5t334.5 101q113 0 209.5 -30.5t160 -77.5t111 -108t71.5 -119t32 -114h-197q-12 30 -29.5 60.5t-50.5 68.5t-73.5 66t-102 47.5t-131.5 19.5
q-102 0 -184 -45.5t-134 -123.5t-79 -179.5t-27 -216.5t27 -216.5t79 -179.5t134 -123.5t184 -45.5q71 0 133 19.5t103.5 48.5t75 67t51 69.5t28.5 61.5h193q-7 -54 -31 -112t-71.5 -120t-111.5 -110.5t-160.5 -79.5t-209.5 -31z" />
    <glyph glyph-name="cdotaccent" unicode="&#x10b;" horiz-adv-x="1110" 
d="M487 1206v293h193v-293h-193zM827 711q-9 22 -23.5 43t-42.5 49t-74 45.5t-103 17.5q-120 0 -194.5 -102t-74.5 -258q0 -155 75 -258t196 -103q48 0 89 13.5t64.5 29.5t45 43t28.5 39t16 31h181q-5 -26 -17 -59.5t-44.5 -83t-76.5 -88.5t-119 -67t-167 -28
q-198 0 -330.5 151.5t-132.5 379.5q0 230 131.5 381t329.5 151q92 0 167 -27.5t119.5 -65.5t76.5 -87t45 -83.5t18 -63.5h-183z" />
    <glyph glyph-name="Ccaron" unicode="&#x10c;" horiz-adv-x="1495" 
d="M428 1907h201l151 -178l150 178h192l-264 -320h-160zM780 -25q-190 0 -335.5 100.5t-221.5 271t-76 380.5q0 209 76.5 379.5t222 271.5t334.5 101q113 0 209.5 -30.5t160 -77.5t111 -108t71.5 -119t32 -114h-197q-12 30 -29.5 60.5t-50.5 68.5t-73.5 66t-102 47.5
t-131.5 19.5q-102 0 -184 -45.5t-134 -123.5t-79 -179.5t-27 -216.5t27 -216.5t79 -179.5t134 -123.5t184 -45.5q71 0 133 19.5t103.5 48.5t75 67t51 69.5t28.5 61.5h193q-7 -54 -31 -112t-71.5 -120t-111.5 -110.5t-160.5 -79.5t-209.5 -31z" />
    <glyph glyph-name="ccaron" unicode="&#x10d;" horiz-adv-x="1110" 
d="M725 1581h174l-237 -395h-156l-242 395h180l140 -229zM827 711q-9 22 -23.5 43t-42.5 49t-74 45.5t-103 17.5q-120 0 -194.5 -102t-74.5 -258q0 -155 75 -258t196 -103q48 0 89 13.5t64.5 29.5t45 43t28.5 39t16 31h181q-5 -26 -17 -59.5t-44.5 -83t-76.5 -88.5t-119 -67
t-167 -28q-198 0 -330.5 151.5t-132.5 379.5q0 230 131.5 381t329.5 151q92 0 167 -27.5t119.5 -65.5t76.5 -87t45 -83.5t18 -63.5h-183z" />
    <glyph glyph-name="Dcaron" unicode="&#x10e;" horiz-adv-x="1595" 
d="M395 1907h201l152 -178l149 178h193l-265 -320h-159zM225 0v1454h486q340 0 540.5 -197.5t200.5 -529.5q0 -328 -200.5 -527.5t-540.5 -199.5h-486zM711 1272h-287v-1090h287q248 0 392 147.5t144 397.5q0 256 -143 400.5t-393 144.5z" />
    <glyph glyph-name="dcaron" unicode="&#x10f;" horiz-adv-x="1255" 
d="M1194 1186l100 395h179l-115 -395h-164zM881 172q-12 -28 -32.5 -56.5t-57 -63t-95.5 -56t-129 -21.5q-92 0 -172 36.5t-139.5 103.5t-94 168t-34.5 223q0 244 125.5 388t314.5 144q56 0 106.5 -15.5t83 -37t60.5 -50.5t41 -49t23 -40v661h186v-1507h-186v172zM885 506
q0 157 -77.5 258.5t-207.5 101.5q-129 0 -205 -101.5t-76 -258.5q0 -156 76 -258.5t205 -102.5t207 102.5t78 258.5z" />
    <glyph glyph-name="Dcroat" unicode="&#x110;" horiz-adv-x="1619" 
d="M248 0v643h-223v180h223v631h485q341 0 541.5 -197.5t200.5 -529.5q0 -328 -201 -527.5t-541 -199.5h-485zM733 1272h-287v-449h443v-180h-443v-461h287q248 0 392.5 147.5t144.5 397.5q0 256 -143.5 400.5t-393.5 144.5z" />
    <glyph glyph-name="dcroat" unicode="&#x111;" horiz-adv-x="1255" 
d="M881 172q-12 -28 -32.5 -56.5t-57 -63t-95.5 -56t-129 -21.5q-92 0 -172 36.5t-139.5 103.5t-94 168t-34.5 223q0 244 125.5 388t314.5 144q56 0 106.5 -15.5t83 -37t60.5 -50.5t41 -49t23 -40v330h-369v151h369v180h186v-180h186v-151h-186v-1176h-186v172zM885 506
q0 157 -77.5 258.5t-207.5 101.5q-129 0 -205 -101.5t-76 -258.5q0 -156 76 -258.5t205 -102.5t207 102.5t78 258.5z" />
    <glyph glyph-name="Emacron" unicode="&#x112;" horiz-adv-x="1433" 
d="M1087 1665h-647v160h647v-160zM225 0v1454h1045v-184h-848v-406h500v-184h-500v-496h924v-184h-1121z" />
    <glyph glyph-name="emacron" unicode="&#x113;" horiz-adv-x="1159" 
d="M883 1272h-594v160h594v-160zM584 1038q206 0 332 -144.5t126 -385.5v-29h-731q8 -146 84.5 -240t206.5 -94q182 0 256 125h178q-9 -31 -23.5 -63t-48.5 -76t-78.5 -76.5t-119 -56t-164.5 -23.5q-144 0 -254 71t-167.5 191t-57.5 269q0 234 126.5 383t334.5 149zM584 879
q-111 0 -178.5 -66.5t-88.5 -185.5h529q-24 122 -90 187t-172 65z" />
    <glyph glyph-name="Ebreve" unicode="&#x114;" horiz-adv-x="1433" 
d="M764 1726q65 0 99 42.5t34 103.5v26h156v-30q0 -128 -75.5 -208.5t-213.5 -80.5t-213.5 80.5t-75.5 208.5v30h156v-26q0 -61 34 -103.5t99 -42.5zM225 0v1454h1045v-184h-848v-406h500v-184h-500v-496h924v-184h-1121z" />
    <glyph glyph-name="ebreve" unicode="&#x115;" horiz-adv-x="1159" 
d="M584 1319q60 0 90.5 40.5t30.5 100.5v35h153v-39q0 -126 -70.5 -204t-203.5 -78t-204 78.5t-71 203.5v39h154v-35q0 -58 31 -99.5t90 -41.5zM584 1038q206 0 332 -144.5t126 -385.5v-29h-731q8 -146 84.5 -240t206.5 -94q182 0 256 125h178q-9 -31 -23.5 -63t-48.5 -76
t-78.5 -76.5t-119 -56t-164.5 -23.5q-144 0 -254 71t-167.5 191t-57.5 269q0 234 126.5 383t334.5 149zM584 879q-111 0 -178.5 -66.5t-88.5 -185.5h529q-24 122 -90 187t-172 65z" />
    <glyph glyph-name="Edotaccent" unicode="&#x116;" horiz-adv-x="1433" 
d="M668 1593v293h192v-293h-192zM225 0v1454h1045v-184h-848v-406h500v-184h-500v-496h924v-184h-1121z" />
    <glyph glyph-name="edotaccent" unicode="&#x117;" horiz-adv-x="1159" 
d="M487 1206v293h193v-293h-193zM584 1038q206 0 332 -144.5t126 -385.5v-29h-731q8 -146 84.5 -240t206.5 -94q182 0 256 125h178q-9 -31 -23.5 -63t-48.5 -76t-78.5 -76.5t-119 -56t-164.5 -23.5q-144 0 -254 71t-167.5 191t-57.5 269q0 234 126.5 383t334.5 149zM584 879
q-111 0 -178.5 -66.5t-88.5 -185.5h529q-24 122 -90 187t-172 65z" />
    <glyph glyph-name="Eogonek" unicode="&#x118;" horiz-adv-x="1433" 
d="M225 0v1454h1045v-184h-848v-406h500v-184h-500v-496h924v-184h-216q-56 -50 -73.5 -66.5t-49.5 -49.5t-42.5 -53.5t-10.5 -39.5q0 -61 80 -61h137v-168h-147q-124 0 -194 47t-70 145q0 35 12 66t41 62.5t49.5 50t65.5 54.5q11 9 16 13h-719z" />
    <glyph glyph-name="eogonek" unicode="&#x119;" horiz-adv-x="1159" 
d="M860 20q-99 -88 -141.5 -139t-42.5 -90q0 -61 80 -61h137v-168h-148q-124 0 -194 45.5t-70 138.5q0 67 45.5 122t124.5 109q-16 -2 -49 -2q-144 0 -254 71t-167.5 191t-57.5 269q0 234 126.5 383t334.5 149q206 0 332 -144.5t126 -385.5v-29h-731q8 -146 84.5 -240
t206.5 -94q182 0 256 125h178q-35 -125 -176 -250zM584 879q-111 0 -178.5 -66.5t-88.5 -185.5h529q-24 122 -90 187t-172 65z" />
    <glyph glyph-name="Ecaron" unicode="&#x11a;" horiz-adv-x="1433" 
d="M412 1907h200l152 -178l149 178h193l-264 -320h-160zM225 0v1454h1045v-184h-848v-406h500v-184h-500v-496h924v-184h-1121z" />
    <glyph glyph-name="ecaron" unicode="&#x11b;" horiz-adv-x="1159" 
d="M725 1581h174l-237 -395h-156l-242 395h180l140 -229zM584 1038q206 0 332 -144.5t126 -385.5v-29h-731q8 -146 84.5 -240t206.5 -94q182 0 256 125h178q-9 -31 -23.5 -63t-48.5 -76t-78.5 -76.5t-119 -56t-164.5 -23.5q-144 0 -254 71t-167.5 191t-57.5 269
q0 234 126.5 383t334.5 149zM584 879q-111 0 -178.5 -66.5t-88.5 -185.5h529q-24 122 -90 187t-172 65z" />
    <glyph glyph-name="Gcircumflex" unicode="&#x11c;" horiz-adv-x="1591" 
d="M963 1587l-150 178l-151 -178h-201l270 320h160l264 -320h-192zM1409 170q-85 -82 -226 -138.5t-333 -56.5q-210 0 -371 97t-246.5 268t-85.5 389q0 212 83.5 383t236 269t344.5 98q110 0 204 -28t155.5 -69.5t108.5 -94.5t71 -98t34 -85h-204q-20 31 -46.5 59.5
t-70.5 60.5t-109.5 51t-142.5 19q-141 0 -246.5 -75.5t-159 -202.5t-53.5 -287q0 -257 134.5 -413t363.5 -156q126 0 221.5 26.5t149.5 65.5v385h-480v178h668v-645z" />
    <glyph glyph-name="gcircumflex" unicode="&#x11d;" horiz-adv-x="1243" 
d="M739 1180l-141 229l-139 -229h-180l241 395h156l237 -395h-174zM868 160q-10 -19 -22 -36t-40 -47t-59 -51t-80 -37t-104 -16q-185 0 -310.5 144t-125.5 387t125.5 387.5t310.5 144.5q66 0 122.5 -21.5t93 -56t56.5 -61.5t33 -53v168h187v-989q0 -225 -118.5 -355.5
t-350.5 -130.5q-95 0 -173.5 23t-126 56t-82 74.5t-49 73.5t-18.5 58h197q6 -10 12.5 -18.5t28 -28t47 -33t69.5 -24.5t95 -11q141 0 211.5 81t70.5 235v137zM872 504q0 156 -75.5 258t-198.5 102q-126 0 -202.5 -102t-76.5 -258q0 -154 77 -256.5t202 -102.5
q122 0 198 102.5t76 256.5z" />
    <glyph glyph-name="Gbreve" unicode="&#x11e;" horiz-adv-x="1591" 
d="M811 1726q65 0 99 42.5t34 103.5v26h156v-30q0 -128 -75.5 -208.5t-213.5 -80.5t-213.5 80.5t-75.5 208.5v30h156v-26q0 -61 34 -103.5t99 -42.5zM1409 170q-85 -82 -226 -138.5t-333 -56.5q-210 0 -371 97t-246.5 268t-85.5 389q0 212 83.5 383t236 269t344.5 98
q110 0 204 -28t155.5 -69.5t108.5 -94.5t71 -98t34 -85h-204q-20 31 -46.5 59.5t-70.5 60.5t-109.5 51t-142.5 19q-141 0 -246.5 -75.5t-159 -202.5t-53.5 -287q0 -257 134.5 -413t363.5 -156q126 0 221.5 26.5t149.5 65.5v385h-480v178h668v-645z" />
    <glyph glyph-name="gbreve" unicode="&#x11f;" horiz-adv-x="1243" 
d="M598 1319q60 0 90.5 40.5t30.5 100.5v35h153v-39q0 -126 -70.5 -204t-203.5 -78t-203.5 78t-70.5 204v39h153v-35q0 -58 31 -99.5t90 -41.5zM868 160q-10 -19 -22 -36t-40 -47t-59 -51t-80 -37t-104 -16q-185 0 -310.5 144t-125.5 387t125.5 387.5t310.5 144.5
q66 0 122.5 -21.5t93 -56t56.5 -61.5t33 -53v168h187v-989q0 -225 -118.5 -355.5t-350.5 -130.5q-95 0 -173.5 23t-126 56t-82 74.5t-49 73.5t-18.5 58h197q6 -10 12.5 -18.5t28 -28t47 -33t69.5 -24.5t95 -11q141 0 211.5 81t70.5 235v137zM872 504q0 156 -75.5 258
t-198.5 102q-126 0 -202.5 -102t-76.5 -258q0 -154 77 -256.5t202 -102.5q122 0 198 102.5t76 256.5z" />
    <glyph glyph-name="Gdotaccent" unicode="&#x120;" horiz-adv-x="1591" 
d="M715 1593v293h192v-293h-192zM1409 170q-85 -82 -226 -138.5t-333 -56.5q-210 0 -371 97t-246.5 268t-85.5 389q0 212 83.5 383t236 269t344.5 98q110 0 204 -28t155.5 -69.5t108.5 -94.5t71 -98t34 -85h-204q-20 31 -46.5 59.5t-70.5 60.5t-109.5 51t-142.5 19
q-141 0 -246.5 -75.5t-159 -202.5t-53.5 -287q0 -257 134.5 -413t363.5 -156q126 0 221.5 26.5t149.5 65.5v385h-480v178h668v-645z" />
    <glyph glyph-name="gdotaccent" unicode="&#x121;" horiz-adv-x="1243" 
d="M502 1206v293h192v-293h-192zM868 160q-10 -19 -22 -36t-40 -47t-59 -51t-80 -37t-104 -16q-185 0 -310.5 144t-125.5 387t125.5 387.5t310.5 144.5q66 0 122.5 -21.5t93 -56t56.5 -61.5t33 -53v168h187v-989q0 -225 -118.5 -355.5t-350.5 -130.5q-95 0 -173.5 23
t-126 56t-82 74.5t-49 73.5t-18.5 58h197q6 -10 12.5 -18.5t28 -28t47 -33t69.5 -24.5t95 -11q141 0 211.5 81t70.5 235v137zM872 504q0 156 -75.5 258t-198.5 102q-126 0 -202.5 -102t-76.5 -258q0 -154 77 -256.5t202 -102.5q122 0 198 102.5t76 256.5z" />
    <glyph glyph-name="uni0122" unicode="&#x122;" horiz-adv-x="1591" 
d="M1409 170q-85 -82 -226 -138.5t-333 -56.5q-210 0 -371 97t-246.5 268t-85.5 389q0 212 83.5 383t236 269t344.5 98q110 0 204 -28t155.5 -69.5t108.5 -94.5t71 -98t34 -85h-204q-20 31 -46.5 59.5t-70.5 60.5t-109.5 51t-142.5 19q-141 0 -246.5 -75.5t-159 -202.5
t-53.5 -287q0 -257 134.5 -413t363.5 -156q126 0 221.5 26.5t149.5 65.5v385h-480v178h668v-645zM922 -666h-138q31 58 51.5 126.5t20.5 109.5h-106v235h229v-200q0 -141 -57 -271z" />
    <glyph glyph-name="uni0123" unicode="&#x123;" horiz-adv-x="1243" 
d="M500 1677h137q-31 -58 -51.5 -126t-20.5 -109h107v-236h-230v201q0 138 58 270zM868 160q-10 -19 -22 -36t-40 -47t-59 -51t-80 -37t-104 -16q-185 0 -310.5 144t-125.5 387t125.5 387.5t310.5 144.5q66 0 122.5 -21.5t93 -56t56.5 -61.5t33 -53v168h187v-989
q0 -225 -118.5 -355.5t-350.5 -130.5q-95 0 -173.5 23t-126 56t-82 74.5t-49 73.5t-18.5 58h197q6 -10 12.5 -18.5t28 -28t47 -33t69.5 -24.5t95 -11q141 0 211.5 81t70.5 235v137zM872 504q0 156 -75.5 258t-198.5 102q-126 0 -202.5 -102t-76.5 -258q0 -154 77 -256.5
t202 -102.5q122 0 198 102.5t76 256.5z" />
    <glyph glyph-name="Hcircumflex" unicode="&#x124;" horiz-adv-x="1652" 
d="M977 1587l-150 178l-151 -178h-201l270 320h160l264 -320h-192zM225 0v1454h199v-629h805v629h198v-1454h-198v641h-805v-641h-199z" />
    <glyph glyph-name="hcircumflex" unicode="&#x125;" horiz-adv-x="1247" 
d="M778 1640l-149 179l-152 -179h-201l271 320h160l264 -320h-193zM188 0v1507h187v-673q21 49 57 91.5t101.5 75.5t144.5 33q177 0 283 -118.5t106 -323.5v-592h-188v557q0 148 -65 226.5t-181 78.5q-121 0 -189.5 -79.5t-68.5 -225.5v-557h-187z" />
    <glyph glyph-name="Hbar" unicode="&#x126;" horiz-adv-x="1652" 
d="M225 0v1053h-200v155h200v246h199v-246h805v246h198v-246h201v-155h-201v-1053h-198v641h-805v-641h-199zM424 825h805v228h-805v-228z" />
    <glyph glyph-name="hbar" unicode="&#x127;" horiz-adv-x="1247" 
d="M188 0v1176h-186v151h186v180h187v-180h368v-151h-368v-342q21 49 57 91.5t101.5 75.5t144.5 33q177 0 283 -118.5t106 -323.5v-592h-188v557q0 148 -65 226.5t-181 78.5q-121 0 -189.5 -79.5t-68.5 -225.5v-557h-187z" />
    <glyph glyph-name="Itilde" unicode="&#x128;" horiz-adv-x="653" 
d="M317 1671l-73 45q-50 31 -70 31q-35 0 -35 -49v-115h-149v135q0 91 39 142t118 51q17 0 35.5 -4t30 -7t32.5 -14t27 -14.5t32.5 -20t29.5 -18.5l74 -45q6 -3 19.5 -11t19 -11t14.5 -6t16 -3q35 0 35 49v115h150v-135q0 -91 -39.5 -142t-118.5 -51q-18 0 -36 3.5
t-30.5 7.5t-32 14t-27.5 15t-31 19.5t-30 18.5zM227 0v1454h199v-1454h-199z" />
    <glyph glyph-name="itilde" unicode="&#x129;" horiz-adv-x="567" 
d="M119 1178h-144v151q0 90 40 141.5t120 51.5q51 0 85.5 -20t86.5 -68l49 -48q38 -34 58 -34q35 0 35 47v133h143v-152q0 -90 -40 -141t-120 -51q-49 0 -84 20.5t-86 67.5l-49 47q-3 2 -9 8t-9 8t-8 6t-8 5.5t-7 4t-8 3t-8 0.5q-37 0 -37 -47v-133zM190 0v1012h187v-1012
h-187z" />
    <glyph glyph-name="Imacron" unicode="&#x12a;" horiz-adv-x="653" 
d="M649 1665h-647v160h647v-160zM227 0v1454h199v-1454h-199z" />
    <glyph glyph-name="imacron" unicode="&#x12b;" horiz-adv-x="567" 
d="M565 1272h-563v160h563v-160zM190 0v1012h187v-1012h-187z" />
    <glyph glyph-name="Ibreve" unicode="&#x12c;" horiz-adv-x="653" 
d="M326 1726q65 0 99 42.5t34 103.5v26h155v-30q0 -128 -75 -208.5t-213 -80.5t-213.5 80.5t-75.5 208.5v30h156v-26q0 -61 34 -103.5t99 -42.5zM227 0v1454h199v-1454h-199z" />
    <glyph glyph-name="ibreve" unicode="&#x12d;" horiz-adv-x="567" 
d="M283 1319q59 0 89.5 40.5t30.5 100.5v35h154v-39q0 -126 -70.5 -204t-203.5 -78t-204 78.5t-71 203.5v39h154v-35q0 -58 31 -99.5t90 -41.5zM190 0v1012h187v-1012h-187z" />
    <glyph glyph-name="Iogonek" unicode="&#x12e;" horiz-adv-x="653" 
d="M227 0v1454h199v-1454q-56 -50 -73.5 -66.5t-49.5 -49.5t-42.5 -53.5t-10.5 -39.5q0 -61 80 -61h137v-168h-148q-124 0 -194 47t-70 145q0 30 11 59.5t23 49.5t41 49.5t44 42.5t53 45z" />
    <glyph glyph-name="iogonek" unicode="&#x12f;" horiz-adv-x="567" 
d="M186 1206v293h195v-293h-195zM190 0v1012h187v-1012h-2q-56 -50 -73.5 -66.5t-49.5 -49.5t-42.5 -53.5t-10.5 -39.5q0 -61 80 -61h137v-168h-148q-124 0 -194 47t-70 145q0 35 12 66t41 62.5t49.5 50t65.5 54.5q11 9 16 13h2z" />
    <glyph glyph-name="Idotaccent" unicode="&#x130;" horiz-adv-x="653" 
d="M229 1593v293h193v-293h-193zM227 0v1454h199v-1454h-199z" />
    <glyph glyph-name="dotlessi" unicode="&#x131;" horiz-adv-x="567" 
d="M190 0v1012h187v-1012h-187z" />
    <glyph glyph-name="IJ" unicode="&#x132;" horiz-adv-x="1957" 
d="M227 0v1454h199v-1454h-199zM1739 442q0 -224 -124 -344.5t-331 -120.5q-203 0 -325.5 120t-122.5 345v402h196v-402q0 -129 67 -202.5t185 -73.5q122 0 189 73t67 203v1012h199v-1012z" />
    <glyph glyph-name="ij" unicode="&#x133;" horiz-adv-x="1136" 
d="M186 1206v293h195v-293h-195zM756 1206v293h194v-293h-194zM190 0v1012h187v-1012h-187zM946 -98q0 -340 -334 -340h-247v174h217q92 0 135 46t43 140v1090h186v-1110z" />
    <glyph glyph-name="Jcircumflex" unicode="&#x134;" horiz-adv-x="1304" 
d="M1135 1587l-150 178l-151 -178h-201l270 320h160l264 -320h-192zM1085 442q0 -224 -123.5 -344.5t-330.5 -120.5q-203 0 -326 120t-123 345v402h197v-402q0 -129 67 -202.5t185 -73.5q122 0 189 73t67 203v1012h198v-1012z" />
    <glyph glyph-name="jcircumflex" unicode="&#x135;" horiz-adv-x="569" 
d="M426 1180l-141 229l-140 -229h-180l242 395h155l238 -395h-174zM379 -98q0 -340 -334 -340h-246v174h215q179 0 179 186v1090h186v-1110z" />
    <glyph glyph-name="uni0136" unicode="&#x136;" horiz-adv-x="1478" 
d="M225 0v1454h199v-668l723 668h272l-776 -713l817 -741h-278l-758 674v-674h-199zM840 -666h-138q31 58 51.5 126.5t20.5 109.5h-106v235h229v-200q0 -141 -57 -271z" />
    <glyph glyph-name="uni0137" unicode="&#x137;" horiz-adv-x="1138" 
d="M188 0v1507h181v-929l477 434h256l-533 -477l559 -535h-251l-508 475v-475h-181zM680 -666h-137q31 58 51 126t20 110h-106v235h229v-200q0 -141 -57 -271z" />
    <glyph glyph-name="Lacute" unicode="&#x139;" horiz-adv-x="1382" 
d="M225 1593l209 308h225l-225 -308h-209zM225 0v1454h199v-1268h881v-186h-1080z" />
    <glyph glyph-name="lacute" unicode="&#x13a;" horiz-adv-x="571" 
d="M182 1647l209 307h225l-225 -307h-209zM193 0v1507h186v-1507h-186z" />
    <glyph glyph-name="uni013B" unicode="&#x13b;" horiz-adv-x="1382" 
d="M225 0v1454h199v-1268h881v-186h-1080zM860 -666h-137q31 58 51.5 126.5t20.5 109.5h-107v235h230v-200q0 -139 -58 -271z" />
    <glyph glyph-name="uni013C" unicode="&#x13c;" horiz-adv-x="571" 
d="M193 0v1507h186v-1507h-186zM348 -666h-137q31 58 51.5 126.5t20.5 109.5h-107v235h230v-200q0 -139 -58 -271z" />
    <glyph glyph-name="Lcaron" unicode="&#x13d;" horiz-adv-x="1382" 
d="M557 1186l100 395h179l-115 -395h-164zM225 0v1454h199v-1268h881v-186h-1080z" />
    <glyph glyph-name="lcaron" unicode="&#x13e;" horiz-adv-x="571" 
d="M506 1186l100 395h178l-114 -395h-164zM193 0v1507h186v-1507h-186z" />
    <glyph glyph-name="Ldot" unicode="&#x13f;" horiz-adv-x="1382" 
d="M225 0v1454h199v-1268h881v-186h-1080zM909 664v290h238v-290h-238z" />
    <glyph glyph-name="ldot" unicode="&#x140;" horiz-adv-x="894" 
d="M193 0v1507h186v-1507h-186zM614 625v290h238v-290h-238z" />
    <glyph glyph-name="Lslash" unicode="&#x141;" horiz-adv-x="1396" 
d="M229 0v461l-194 -105v183l194 106v809h199v-700l547 299v-189l-547 -295v-383h881v-186h-1080z" />
    <glyph glyph-name="lslash" unicode="&#x142;" horiz-adv-x="714" 
d="M260 0v645l-211 -117v179l211 118v682h186v-577l220 123v-185l-220 -120v-748h-186z" />
    <glyph glyph-name="Nacute" unicode="&#x143;" horiz-adv-x="1665" 
d="M756 1593l209 308h225l-225 -308h-209zM1440 1454v-1464h-150l-874 1210v-1200h-191v1454h238l786 -1102v1102h191z" />
    <glyph glyph-name="nacute" unicode="&#x144;" horiz-adv-x="1247" 
d="M539 1186l200 375h205l-215 -375h-190zM188 0v1012h187v-170q33 76 111 134t192 58q177 0 283 -116t106 -316v-602h-188v567q0 144 -65 219.5t-181 75.5q-121 0 -189.5 -77t-68.5 -218v-567h-187z" />
    <glyph glyph-name="uni0145" unicode="&#x145;" horiz-adv-x="1665" 
d="M1440 1454v-1464h-150l-874 1210v-1200h-191v1454h238l786 -1102v1102h191zM899 -666h-137q31 58 51.5 126.5t20.5 109.5h-107v235h229v-200q0 -141 -57 -271z" />
    <glyph glyph-name="uni0146" unicode="&#x146;" horiz-adv-x="1247" 
d="M188 0v1012h187v-170q33 76 111 134t192 58q177 0 283 -116t106 -316v-602h-188v567q0 144 -65 219.5t-181 75.5q-121 0 -189.5 -77t-68.5 -218v-567h-187zM694 -666h-137q31 58 51.5 126.5t20.5 109.5h-107v235h230v-200q0 -139 -58 -271z" />
    <glyph glyph-name="Ncaron" unicode="&#x147;" horiz-adv-x="1665" 
d="M504 1907h201l151 -178l150 178h192l-264 -320h-160zM1440 1454v-1464h-150l-874 1210v-1200h-191v1454h238l786 -1102v1102h191z" />
    <glyph glyph-name="ncaron" unicode="&#x148;" horiz-adv-x="1247" 
d="M760 1581h174l-238 -395h-155l-242 395h180l139 -229zM188 0v1012h187v-170q33 76 111 134t192 58q177 0 283 -116t106 -316v-602h-188v567q0 144 -65 219.5t-181 75.5q-121 0 -189.5 -77t-68.5 -218v-567h-187z" />
    <glyph glyph-name="napostrophe" unicode="&#x149;" horiz-adv-x="1720" 
d="M279 827h-146q125 233 125 414h-113v266h238v-245q0 -235 -104 -435zM662 0v1012h186v-170q33 76 111 134t192 58q177 0 283 -116t106 -316v-602h-188v567q0 144 -65 219.5t-181 75.5q-121 0 -189.5 -77t-68.5 -218v-567h-186z" />
    <glyph glyph-name="Eng" unicode="&#x14a;" horiz-adv-x="1669" 
d="M1255 -72q0 59 -27 120t-87 145l-725 1017v-1210h-191v1454h242l786 -1104v1104h191v-1526q0 -366 -361 -366h-161v180h122q211 0 211 186z" />
    <glyph glyph-name="eng" unicode="&#x14b;" horiz-adv-x="1247" 
d="M188 0v1012h187v-170q33 76 111 134t192 58q177 0 283 -116t106 -316v-700q0 -340 -334 -340h-248v174h215q179 0 179 186v645q0 144 -65 219.5t-181 75.5q-121 0 -189.5 -77t-68.5 -218v-567h-187z" />
    <glyph glyph-name="Omacron" unicode="&#x14c;" horiz-adv-x="1601" 
d="M1124 1665h-647v160h647v-160zM801 -25q-197 0 -347 98t-228.5 268t-78.5 386q0 214 79.5 384t229.5 269t345 99q146 0 269 -57.5t207 -158t130.5 -238.5t46.5 -298t-46.5 -298t-130.5 -238.5t-207 -158t-269 -57.5zM801 160q140 0 243 76t154 203t51 288
q0 118 -30 220.5t-85.5 180t-141 122t-191.5 44.5q-140 0 -243.5 -76.5t-154.5 -203.5t-51 -287q0 -163 51 -290t154 -202t244 -75z" />
    <glyph glyph-name="omacron" unicode="&#x14d;" horiz-adv-x="1196" 
d="M897 1272h-594v160h594v-160zM598 1036q212 0 343.5 -150.5t131.5 -379.5t-131.5 -380t-343.5 -151t-343.5 151t-131.5 380t131.5 379.5t343.5 150.5zM598 147q133 0 208 101.5t75 257.5t-75 257t-208 101t-208 -101t-75 -257t74.5 -257.5t208.5 -101.5z" />
    <glyph glyph-name="Obreve" unicode="&#x14e;" horiz-adv-x="1601" 
d="M801 1726q65 0 99 42.5t34 103.5v26h156v-30q0 -128 -75.5 -208.5t-213.5 -80.5t-213.5 80.5t-75.5 208.5v30h156v-26q0 -61 34 -103.5t99 -42.5zM801 -25q-197 0 -347 98t-228.5 268t-78.5 386q0 214 79.5 384t229.5 269t345 99q146 0 269 -57.5t207 -158t130.5 -238.5
t46.5 -298t-46.5 -298t-130.5 -238.5t-207 -158t-269 -57.5zM801 160q140 0 243 76t154 203t51 288q0 118 -30 220.5t-85.5 180t-141 122t-191.5 44.5q-140 0 -243.5 -76.5t-154.5 -203.5t-51 -287q0 -163 51 -290t154 -202t244 -75z" />
    <glyph glyph-name="obreve" unicode="&#x14f;" horiz-adv-x="1196" 
d="M598 1319q60 0 90.5 40.5t30.5 100.5v35h153v-39q0 -126 -70.5 -204t-203.5 -78t-203.5 78t-70.5 204v39h153v-35q0 -58 31 -99.5t90 -41.5zM598 1036q212 0 343.5 -150.5t131.5 -379.5t-131.5 -380t-343.5 -151t-343.5 151t-131.5 380t131.5 379.5t343.5 150.5zM598 147
q133 0 208 101.5t75 257.5t-75 257t-208 101t-208 -101t-75 -257t74.5 -257.5t208.5 -101.5z" />
    <glyph glyph-name="Ohungarumlaut" unicode="&#x150;" horiz-adv-x="1601" 
d="M885 1593l159 308h189l-174 -308h-174zM528 1593l160 308h189l-175 -308h-174zM801 -25q-197 0 -347 98t-228.5 268t-78.5 386q0 214 79.5 384t229.5 269t345 99q146 0 269 -57.5t207 -158t130.5 -238.5t46.5 -298t-46.5 -298t-130.5 -238.5t-207 -158t-269 -57.5z
M801 160q140 0 243 76t154 203t51 288q0 118 -30 220.5t-85.5 180t-141 122t-191.5 44.5q-140 0 -243.5 -76.5t-154.5 -203.5t-51 -287q0 -163 51 -290t154 -202t244 -75z" />
    <glyph glyph-name="ohungarumlaut" unicode="&#x151;" horiz-adv-x="1196" 
d="M692 1186l152 375h180l-166 -375h-166zM346 1186l152 375h180l-166 -375h-166zM598 1036q212 0 343.5 -150.5t131.5 -379.5t-131.5 -380t-343.5 -151t-343.5 151t-131.5 380t131.5 379.5t343.5 150.5zM598 147q133 0 208 101.5t75 257.5t-75 257t-208 101t-208 -101
t-75 -257t74.5 -257.5t208.5 -101.5z" />
    <glyph glyph-name="OE" unicode="&#x152;" horiz-adv-x="2148" 
d="M877 0q-164 0 -301 53.5t-232 148.5t-148 230t-53 295q0 210 91 375.5t258.5 258.5t384.5 93h1112v-184h-748v-406h449v-184h-449v-496h819v-184h-1183zM877 184h165v1086h-165q-243 0 -386 -152t-143 -391t143 -391t386 -152z" />
    <glyph glyph-name="oe" unicode="&#x153;" horiz-adv-x="1908" 
d="M1356 -25q-142 0 -244 65t-149 161q-40 -95 -137.5 -160.5t-231.5 -65.5q-209 0 -340 151t-131 380q0 151 58 272t166 190.5t247 69.5q135 0 235.5 -62t141.5 -153q45 94 139 154.5t227 60.5q204 0 329.5 -145t125.5 -385v-29h-723q8 -146 83 -240t204 -94q178 0 252 125
h178q-9 -31 -23.5 -63t-48 -76t-78 -76.5t-118 -56t-162.5 -23.5zM1337 879q-109 0 -175 -66.5t-87 -185.5h520q-24 122 -89 187t-169 65zM598 145q90 0 155 49t96.5 129.5t31.5 182.5q0 157 -74 258.5t-209 101.5q-131 0 -207 -102t-76 -258t75.5 -258.5t207.5 -102.5z" />
    <glyph glyph-name="Racute" unicode="&#x154;" horiz-adv-x="1538" 
d="M647 1593l209 308h225l-225 -308h-209zM225 0v1454h656q231 0 354 -103t123 -296q0 -156 -81.5 -253.5t-234.5 -129.5l383 -672h-215l-381 655h-405v-655h-199zM879 1270h-455v-432h455q274 0 274 217q0 215 -274 215z" />
    <glyph glyph-name="racute" unicode="&#x155;" horiz-adv-x="980" 
d="M457 1186l200 375h205l-215 -375h-190zM375 571v-571h-187v1012h187v-183q10 25 25 49t43.5 50.5t64.5 46t91 32.5t120 13h194v-186h-211q-172 0 -249.5 -64.5t-77.5 -198.5z" />
    <glyph glyph-name="uni0156" unicode="&#x156;" horiz-adv-x="1538" 
d="M225 0v1454h656q231 0 354 -103t123 -296q0 -156 -81.5 -253.5t-234.5 -129.5l383 -672h-215l-381 655h-405v-655h-199zM879 1270h-455v-432h455q274 0 274 217q0 215 -274 215zM848 -666h-137q31 58 51 126t20 110h-106v235h229v-200q0 -141 -57 -271z" />
    <glyph glyph-name="uni0157" unicode="&#x157;" horiz-adv-x="980" 
d="M375 571v-571h-187v1012h187v-183q10 25 25 49t43.5 50.5t64.5 46t91 32.5t120 13h194v-186h-211q-172 0 -249.5 -64.5t-77.5 -198.5zM346 -666h-137q31 58 51.5 126.5t20.5 109.5h-107v235h229v-200q0 -141 -57 -271z" />
    <glyph glyph-name="Rcaron" unicode="&#x158;" horiz-adv-x="1538" 
d="M397 1907h201l152 -178l149 178h193l-265 -320h-159zM225 0v1454h656q231 0 354 -103t123 -296q0 -156 -81.5 -253.5t-234.5 -129.5l383 -672h-215l-381 655h-405v-655h-199zM879 1270h-455v-432h455q274 0 274 217q0 215 -274 215z" />
    <glyph glyph-name="rcaron" unicode="&#x159;" horiz-adv-x="980" 
d="M692 1581h174l-237 -395h-156l-242 395h181l139 -229zM375 571v-571h-187v1012h187v-183q10 25 25 49t43.5 50.5t64.5 46t91 32.5t120 13h194v-186h-211q-172 0 -249.5 -64.5t-77.5 -198.5z" />
    <glyph glyph-name="Sacute" unicode="&#x15a;" horiz-adv-x="1443" 
d="M600 1593l209 308h225l-225 -308h-209zM676 1296q-150 0 -235 -59.5t-85 -157.5q0 -96 72.5 -145t204.5 -70q34 -5 62.5 -9.5t64 -9.5t65.5 -9q79 -12 142.5 -29.5t127.5 -50t107 -77t69.5 -112t26.5 -153.5q0 -190 -145 -315.5t-393 -125.5q-120 0 -221.5 26t-172.5 68
t-125.5 99.5t-86 116.5t-48.5 123h211q16 -42 46 -81.5t81 -79.5t133 -64.5t183 -24.5q154 0 247 67.5t93 179.5q0 59 -22 102t-64 70t-90.5 42.5t-114.5 25.5q-45 6 -101 15t-92 14q-104 16 -182.5 43.5t-143 73.5t-98.5 119.5t-34 170.5q0 182 145 291t373 109
q109 0 201.5 -22.5t157 -59.5t113.5 -86.5t76.5 -101.5t41.5 -107h-205q-20 36 -49 67t-74 61.5t-112.5 48t-149.5 17.5z" />
    <glyph glyph-name="sacute" unicode="&#x15b;" horiz-adv-x="1103" 
d="M436 1186l201 375h205l-215 -375h-191zM618 420l-145 16q-157 18 -247.5 93.5t-90.5 209.5q0 135 108.5 218t280.5 83q94 0 170.5 -21t122 -50.5t80 -70t49 -70t23.5 -60.5h-185q-8 12 -23.5 27.5t-46 36t-80.5 34t-110 13.5q-99 0 -153 -36.5t-54 -94.5t44 -90.5
t137 -43.5l141 -16q178 -21 262 -100t84 -217q0 -137 -105 -223.5t-294 -86.5q-97 0 -179 23t-133.5 57t-89.5 76.5t-55.5 78.5t-22.5 66h191q8 -16 23 -33.5t47.5 -43t89.5 -42t129 -16.5q104 0 158.5 37t54.5 98q0 66 -42 102t-139 46z" />
    <glyph glyph-name="Scircumflex" unicode="&#x15c;" horiz-adv-x="1443" 
d="M854 1587l-149 178l-152 -178h-201l271 320h159l265 -320h-193zM676 1296q-150 0 -235 -59.5t-85 -157.5q0 -96 72.5 -145t204.5 -70q34 -5 62.5 -9.5t64 -9.5t65.5 -9q79 -12 142.5 -29.5t127.5 -50t107 -77t69.5 -112t26.5 -153.5q0 -190 -145 -315.5t-393 -125.5
q-120 0 -221.5 26t-172.5 68t-125.5 99.5t-86 116.5t-48.5 123h211q16 -42 46 -81.5t81 -79.5t133 -64.5t183 -24.5q154 0 247 67.5t93 179.5q0 59 -22 102t-64 70t-90.5 42.5t-114.5 25.5q-45 6 -101 15t-92 14q-104 16 -182.5 43.5t-143 73.5t-98.5 119.5t-34 170.5
q0 182 145 291t373 109q109 0 201.5 -22.5t157 -59.5t113.5 -86.5t76.5 -101.5t41.5 -107h-205q-20 36 -49 67t-74 61.5t-112.5 48t-149.5 17.5z" />
    <glyph glyph-name="scircumflex" unicode="&#x15d;" horiz-adv-x="1103" 
d="M686 1180l-141 229l-139 -229h-181l242 395h156l237 -395h-174zM618 420l-145 16q-157 18 -247.5 93.5t-90.5 209.5q0 135 108.5 218t280.5 83q94 0 170.5 -21t122 -50.5t80 -70t49 -70t23.5 -60.5h-185q-8 12 -23.5 27.5t-46 36t-80.5 34t-110 13.5q-99 0 -153 -36.5
t-54 -94.5t44 -90.5t137 -43.5l141 -16q178 -21 262 -100t84 -217q0 -137 -105 -223.5t-294 -86.5q-97 0 -179 23t-133.5 57t-89.5 76.5t-55.5 78.5t-22.5 66h191q8 -16 23 -33.5t47.5 -43t89.5 -42t129 -16.5q104 0 158.5 37t54.5 98q0 66 -42 102t-139 46z" />
    <glyph glyph-name="uni015E" unicode="&#x15e;" horiz-adv-x="1443" 
d="M774 -319q0 69 -84 69h-125v242q-101 21 -183 65t-136 102t-88 119t-52 128h211q16 -42 46 -81.5t81 -79.5t133 -64.5t183 -24.5q154 0 247 67.5t93 179.5q0 59 -22 102t-64 70t-90.5 42.5t-114.5 25.5q-45 6 -101 15t-92 14q-104 16 -182.5 43.5t-143 73.5t-98.5 119.5
t-34 170.5q0 182 145 291t373 109q109 0 201.5 -22.5t157 -59.5t113.5 -86.5t76.5 -101.5t41.5 -107h-205q-20 36 -49 67t-74 61.5t-112.5 48t-149.5 17.5q-150 0 -235 -59.5t-85 -157.5q0 -96 72.5 -145t204.5 -70q34 -5 62.5 -9.5t64 -9.5t65.5 -9q79 -12 142.5 -29.5
t127.5 -50t107 -77t69.5 -112t26.5 -153.5q0 -190 -145 -315.5t-393 -125.5h-31v-86q111 0 167 -55.5t56 -150.5q0 -100 -59 -162t-180 -62h-195v152h172q84 0 84 72z" />
    <glyph glyph-name="uni015F" unicode="&#x15f;" horiz-adv-x="1103" 
d="M616 -319q0 69 -84 69h-124v244q-73 20 -132 56.5t-93 77.5t-53 77.5t-24 66.5h191q8 -16 23 -33.5t47.5 -43t89.5 -42t129 -16.5q104 0 158.5 37t54.5 98q0 66 -42 102t-139 46l-145 16q-157 18 -247.5 93.5t-90.5 209.5q0 135 108.5 218t280.5 83q94 0 170.5 -21
t122 -50.5t80 -70t49 -70t23.5 -60.5h-185q-8 12 -23.5 27.5t-46 36t-80.5 34t-110 13.5q-99 0 -153 -36.5t-54 -94.5t44 -90.5t137 -43.5l141 -16q178 -21 262 -100t84 -217q0 -137 -105 -223.5t-294 -86.5h-15v-84q112 0 168 -55.5t56 -150.5q0 -100 -59.5 -162
t-180.5 -62h-195v152h172q84 0 84 72z" />
    <glyph glyph-name="Scaron" unicode="&#x160;" horiz-adv-x="1443" 
d="M350 1907h201l151 -178l150 178h192l-264 -320h-159zM676 1296q-150 0 -235 -59.5t-85 -157.5q0 -96 72.5 -145t204.5 -70q34 -5 62.5 -9.5t64 -9.5t65.5 -9q79 -12 142.5 -29.5t127.5 -50t107 -77t69.5 -112t26.5 -153.5q0 -190 -145 -315.5t-393 -125.5
q-120 0 -221.5 26t-172.5 68t-125.5 99.5t-86 116.5t-48.5 123h211q16 -42 46 -81.5t81 -79.5t133 -64.5t183 -24.5q154 0 247 67.5t93 179.5q0 59 -22 102t-64 70t-90.5 42.5t-114.5 25.5q-45 6 -101 15t-92 14q-104 16 -182.5 43.5t-143 73.5t-98.5 119.5t-34 170.5
q0 182 145 291t373 109q109 0 201.5 -22.5t157 -59.5t113.5 -86.5t76.5 -101.5t41.5 -107h-205q-20 36 -49 67t-74 61.5t-112.5 48t-149.5 17.5z" />
    <glyph glyph-name="scaron" unicode="&#x161;" horiz-adv-x="1103" 
d="M686 1581h174l-237 -395h-156l-242 395h181l139 -229zM618 420l-145 16q-157 18 -247.5 93.5t-90.5 209.5q0 135 108.5 218t280.5 83q94 0 170.5 -21t122 -50.5t80 -70t49 -70t23.5 -60.5h-185q-8 12 -23.5 27.5t-46 36t-80.5 34t-110 13.5q-99 0 -153 -36.5t-54 -94.5
t44 -90.5t137 -43.5l141 -16q178 -21 262 -100t84 -217q0 -137 -105 -223.5t-294 -86.5q-97 0 -179 23t-133.5 57t-89.5 76.5t-55.5 78.5t-22.5 66h191q8 -16 23 -33.5t47.5 -43t89.5 -42t129 -16.5q104 0 158.5 37t54.5 98q0 66 -42 102t-139 46z" />
    <glyph glyph-name="Tcommaaccent" unicode="&#x162;" horiz-adv-x="1480" 
d="M641 0v1270h-559v184h1317v-184h-559v-1270h-199zM803 -666h-137q31 58 51 126t20 110h-106v235h229v-200q0 -141 -57 -271z" />
    <glyph glyph-name="tcommaaccent" unicode="&#x163;" horiz-adv-x="985" 
d="M328 330v514h-265v168h265v442h186v-442h367v-168h-367v-475q0 -106 43 -151.5t154 -45.5h170v-172h-217q-336 0 -336 330zM643 -666h-137q31 58 51.5 126.5t20.5 109.5h-107v235h229v-200q0 -141 -57 -271z" />
    <glyph glyph-name="Tcaron" unicode="&#x164;" horiz-adv-x="1480" 
d="M387 1907h201l151 -178l150 178h192l-264 -320h-160zM641 0v1270h-559v184h1317v-184h-559v-1270h-199z" />
    <glyph glyph-name="tcaron" unicode="&#x165;" horiz-adv-x="983" 
d="M643 1186l100 395h179l-115 -395h-164zM328 330v514h-265v168h265v442h186v-442h367v-168h-367v-475q0 -106 43 -151.5t154 -45.5h170v-172h-217q-336 0 -336 330z" />
    <glyph glyph-name="Tbar" unicode="&#x166;" horiz-adv-x="1480" 
d="M641 0v686h-377v172h377v412h-559v184h1317v-184h-559v-412h377v-172h-377v-686h-199z" />
    <glyph glyph-name="tbar" unicode="&#x167;" horiz-adv-x="1015" 
d="M344 330v164h-264v151h264v199h-264v168h264v442h186v-442h367v-168h-367v-199h367v-151h-367v-125q0 -106 43 -151.5t154 -45.5h170v-172h-217q-336 0 -336 330z" />
    <glyph glyph-name="Utilde" unicode="&#x168;" horiz-adv-x="1626" 
d="M805 1671l-74 45q-50 31 -69 31q-35 0 -35 -49v-115h-150v135q0 91 39.5 142t118.5 51q17 0 35 -3.5t30 -7t32 -14.5t27.5 -15t31.5 -19t30 -19l74 -45q6 -3 16 -9t15.5 -9t13 -6.5t13.5 -5t12 -1.5q34 0 34 49v115h150v-135q0 -91 -39.5 -142t-118.5 -51q-18 0 -36 3.5
t-30.5 7.5t-31.5 14t-27.5 15t-30.5 19t-30 19zM1208 578v876h199v-893q0 -120 -39 -225.5t-111.5 -186t-187 -127.5t-256.5 -47q-147 0 -262 46t-186.5 126.5t-108.5 185.5t-37 228v893h199v-876q0 -187 102.5 -299.5t292.5 -112.5q185 0 290 113.5t105 298.5z" />
    <glyph glyph-name="utilde" unicode="&#x169;" horiz-adv-x="1224" 
d="M446 1178h-145v151q0 90 40 141.5t120 51.5q52 0 89 -20.5t89 -67.5l51 -48q33 -29 48 -33q6 -1 12 -1q34 0 34 47v133h146v-152q0 -90 -40 -141t-120 -51q-50 0 -87 21t-89 67l-51 47q-40 35 -62 35q-35 0 -35 -47v-133zM614 -20q-210 0 -322 114t-112 307v611h189v-600
q0 -117 63 -186.5t182 -69.5q116 0 181 70t65 186v600h184v-611q0 -117 -48.5 -211.5t-147.5 -152t-234 -57.5z" />
    <glyph glyph-name="Umacron" unicode="&#x16a;" horiz-adv-x="1626" 
d="M1137 1665h-648v160h648v-160zM1208 578v876h199v-893q0 -120 -39 -225.5t-111.5 -186t-187 -127.5t-256.5 -47q-147 0 -262 46t-186.5 126.5t-108.5 185.5t-37 228v893h199v-876q0 -187 102.5 -299.5t292.5 -112.5q185 0 290 113.5t105 298.5z" />
    <glyph glyph-name="umacron" unicode="&#x16b;" horiz-adv-x="1224" 
d="M913 1272h-594v160h594v-160zM614 -20q-210 0 -322 114t-112 307v611h189v-600q0 -117 63 -186.5t182 -69.5q116 0 181 70t65 186v600h184v-611q0 -117 -48.5 -211.5t-147.5 -152t-234 -57.5z" />
    <glyph glyph-name="Ubreve" unicode="&#x16c;" horiz-adv-x="1626" 
d="M813 1726q65 0 99 42.5t34 103.5v26h156v-30q0 -128 -75.5 -208.5t-213.5 -80.5t-213.5 80.5t-75.5 208.5v30h156v-26q0 -61 34 -103.5t99 -42.5zM1208 578v876h199v-893q0 -120 -39 -225.5t-111.5 -186t-187 -127.5t-256.5 -47q-147 0 -262 46t-186.5 126.5
t-108.5 185.5t-37 228v893h199v-876q0 -187 102.5 -299.5t292.5 -112.5q185 0 290 113.5t105 298.5z" />
    <glyph glyph-name="ubreve" unicode="&#x16d;" horiz-adv-x="1224" 
d="M614 1319q60 0 90.5 40.5t30.5 100.5v35h154v-39q0 -125 -71 -203.5t-204 -78.5t-203.5 78t-70.5 204v39h154v-35q0 -58 30.5 -99.5t89.5 -41.5zM614 -20q-210 0 -322 114t-112 307v611h189v-600q0 -117 63 -186.5t182 -69.5q116 0 181 70t65 186v600h184v-611
q0 -117 -48.5 -211.5t-147.5 -152t-234 -57.5z" />
    <glyph glyph-name="Uring" unicode="&#x16e;" horiz-adv-x="1626" 
d="M813 1573q-112 0 -187 74t-75 182q0 111 75 185.5t187 74.5t187 -74.5t75 -185.5q0 -108 -75 -182t-187 -74zM813 1698q56 0 91.5 37.5t35.5 93.5q0 57 -35 94t-92 37t-92 -37t-35 -94q0 -56 35.5 -93.5t91.5 -37.5zM1208 578v876h199v-893q0 -120 -39 -225.5
t-111.5 -186t-187 -127.5t-256.5 -47q-147 0 -262 46t-186.5 126.5t-108.5 185.5t-37 228v893h199v-876q0 -187 102.5 -299.5t292.5 -112.5q185 0 290 113.5t105 298.5z" />
    <glyph glyph-name="uring" unicode="&#x16f;" horiz-adv-x="1224" 
d="M614 1161q-112 0 -187 74t-75 182q0 111 75 185.5t187 74.5t187.5 -75t75.5 -185q0 -108 -75.5 -182t-187.5 -74zM614 1286q56 0 91.5 37.5t35.5 93.5q0 57 -35 94t-92 37t-92 -37t-35 -94q0 -56 35.5 -93.5t91.5 -37.5zM614 -20q-210 0 -322 114t-112 307v611h189v-600
q0 -117 63 -186.5t182 -69.5q116 0 181 70t65 186v600h184v-611q0 -117 -48.5 -211.5t-147.5 -152t-234 -57.5z" />
    <glyph glyph-name="Uhungarumlaut" unicode="&#x170;" horiz-adv-x="1626" 
d="M897 1593l160 308h188l-174 -308h-174zM541 1593l159 308h189l-174 -308h-174zM1208 578v876h199v-893q0 -120 -39 -225.5t-111.5 -186t-187 -127.5t-256.5 -47q-147 0 -262 46t-186.5 126.5t-108.5 185.5t-37 228v893h199v-876q0 -187 102.5 -299.5t292.5 -112.5
q185 0 290 113.5t105 298.5z" />
    <glyph glyph-name="uhungarumlaut" unicode="&#x171;" horiz-adv-x="1224" 
d="M698 1186l152 375h180l-166 -375h-166zM352 1186l152 375h180l-166 -375h-166zM614 -20q-210 0 -322 114t-112 307v611h189v-600q0 -117 63 -186.5t182 -69.5q116 0 181 70t65 186v600h184v-611q0 -117 -48.5 -211.5t-147.5 -152t-234 -57.5z" />
    <glyph glyph-name="Uogonek" unicode="&#x172;" horiz-adv-x="1626" 
d="M1133 25q-111 -91 -155 -140.5t-44 -91.5q0 -63 82 -63h135v-168h-147q-124 0 -194.5 47t-70.5 145q0 109 162 226q-73 -5 -88 -5q-147 0 -262 46t-186.5 126.5t-108.5 185.5t-37 228v893h199v-876q0 -187 102.5 -299.5t292.5 -112.5q185 0 290 113.5t105 298.5v876h199
v-893q0 -173 -71 -300.5t-203 -235.5z" />
    <glyph glyph-name="uogonek" unicode="&#x173;" horiz-adv-x="1224" 
d="M864 20q-100 -94 -137 -140t-37 -87q0 -63 80 -63h137v-168h-147q-124 0 -194 47t-70 145q0 65 42.5 115.5t125.5 112.5q-16 -2 -50 -2q-210 0 -322 114t-112 307v611h189v-600q0 -117 63 -186.5t182 -69.5q116 0 181 70t65 186v600h184v-611q0 -212 -180 -381z" />
    <glyph glyph-name="Wcircumflex" unicode="&#x174;" horiz-adv-x="2129" 
d="M1225 1587l-150 178l-151 -178h-201l270 320h160l264 -320h-192zM1165 1462l357 -1147l333 1139h187l-432 -1462h-176l-363 1143l-362 -1143h-166l-455 1462h209l340 -1126l350 1134h178z" />
    <glyph glyph-name="wcircumflex" unicode="&#x175;" horiz-adv-x="1656" 
d="M975 1180l-141 229l-140 -229h-180l242 395h155l238 -395h-174zM1092 -8l-261 768l-260 -768h-165l-349 1020h201l244 -748l252 756h172l250 -746l239 738h184l-344 -1020h-163z" />
    <glyph glyph-name="Ycircumflex" unicode="&#x176;" horiz-adv-x="1402" 
d="M864 1587l-149 178l-152 -178h-201l271 320h160l264 -320h-193zM608 584l-577 870h245l437 -670l436 670h223l-565 -868v-586h-199v584z" />
    <glyph glyph-name="ycircumflex" unicode="&#x177;" horiz-adv-x="1095" 
d="M696 1180l-141 229l-139 -229h-180l241 395h156l237 -395h-174zM279 -438l180 454l-408 996h205l299 -752l299 752h190l-579 -1450h-186z" />
    <glyph glyph-name="Ydieresis" unicode="&#x178;" horiz-adv-x="1402" 
d="M420 1593v285h188v-285h-188zM817 1593v285h189v-285h-189zM608 584l-577 870h245l437 -670l436 670h223l-565 -868v-586h-199v584z" />
    <glyph glyph-name="Zacute" unicode="&#x179;" horiz-adv-x="1452" 
d="M592 1593l209 308h225l-225 -308h-209zM113 0v117l868 1153h-850v184h1141v-117l-877 -1153h965v-184h-1247z" />
    <glyph glyph-name="zacute" unicode="&#x17a;" horiz-adv-x="1144" 
d="M455 1186l200 375h205l-215 -375h-190zM115 0v109l592 735h-584v168h866v-107l-604 -737h670v-168h-940z" />
    <glyph glyph-name="Zdotaccent" unicode="&#x17b;" horiz-adv-x="1452" 
d="M598 1593v293h193v-293h-193zM113 0v117l868 1153h-850v184h1141v-117l-877 -1153h965v-184h-1247z" />
    <glyph glyph-name="zdotaccent" unicode="&#x17c;" horiz-adv-x="1144" 
d="M461 1206v293h192v-293h-192zM115 0v109l592 735h-584v168h866v-107l-604 -737h670v-168h-940z" />
    <glyph glyph-name="Zcaron" unicode="&#x17d;" horiz-adv-x="1452" 
d="M342 1907h201l151 -178l150 178h192l-264 -320h-160zM113 0v117l868 1153h-850v184h1141v-117l-877 -1153h965v-184h-1247z" />
    <glyph glyph-name="zcaron" unicode="&#x17e;" horiz-adv-x="1144" 
d="M690 1581h174l-237 -395h-156l-242 395h181l139 -229zM115 0v109l592 735h-584v168h866v-107l-604 -737h670v-168h-940z" />
    <glyph glyph-name="uni018F" unicode="&#x18f;" horiz-adv-x="1536" 
d="M147 707q0 15 5 98h1030q-6 103 -34.5 189.5t-79.5 154t-130 105.5t-180 38q-85 0 -154 -24t-114 -64t-73 -83t-44 -91h-201q8 56 32 114t71.5 119t111.5 108t160.5 77.5t210.5 30.5q199 0 343.5 -99.5t216 -268t71.5 -384.5q0 -215 -73 -384.5t-217 -268.5t-339 -99
q-185 0 -325 95.5t-214 261t-74 375.5zM760 160q94 0 170 35t127 98t82 146.5t41 185.5h-824q18 -208 124 -336.5t280 -128.5z" />
    <glyph glyph-name="uni0192" unicode="&#x192;" horiz-adv-x="1193" 
d="M92 700v170h336l39 244q29 180 115 260t280 80h299v-170h-280q-113 0 -160.5 -44t-65.5 -153l-34 -217h360v-170h-387l-182 -1138h-189l178 1138h-309z" />
    <glyph glyph-name="Aringacute" unicode="&#x1fa;" horiz-adv-x="1523" 
d="M674 2169l188 287h209l-205 -287h-192zM756 1573q-112 0 -187 74t-75 182q0 111 75 185.5t187 74.5t187 -74.5t75 -185.5q0 -108 -75 -182t-187 -74zM756 1698q56 0 91.5 37.5t35.5 93.5q0 57 -35 94t-92 37t-92 -37t-35 -94q0 -56 35.5 -93.5t91.5 -37.5zM1247 0
l-143 350h-696l-144 -350h-196l606 1462h176l606 -1462h-209zM483 530h545l-272 664z" />
    <glyph glyph-name="aringacute" unicode="&#x1fb;" horiz-adv-x="1230" 
d="M485 1757l183 307h196l-196 -307h-183zM573 1161q-112 0 -187 74t-75 182q0 111 75 185.5t187 74.5t187.5 -75t75.5 -185q0 -108 -75.5 -182t-187.5 -74zM573 1286q56 0 91.5 37.5t35.5 93.5q0 57 -35 94t-92 37t-92 -37t-35 -94q0 -56 35.5 -93.5t91.5 -37.5zM856 166
q-9 -21 -22 -42.5t-39 -49.5t-57 -49t-79.5 -35.5t-103.5 -14.5q-186 0 -307 143t-121 386t121 386.5t307 143.5q56 0 104.5 -15.5t79.5 -36t57 -50t38 -48.5t22 -40v168h186v-1012h-186v166zM860 504q0 157 -72 257.5t-198 100.5q-128 0 -199.5 -100t-71.5 -258
q0 -157 71.5 -258t199.5 -101q125 0 197.5 101.5t72.5 257.5z" />
    <glyph glyph-name="AEacute" unicode="&#x1fc;" horiz-adv-x="2123" 
d="M1323 1593l209 308h225l-225 -308h-209zM0 0l920 1454h1044v-184h-747v-406h448v-184h-448v-496h819v-184h-1018v375h-559l-234 -375h-225zM567 551h451v723z" />
    <glyph glyph-name="aeacute" unicode="&#x1fd;" horiz-adv-x="1841" 
d="M817 1186l201 375h205l-215 -375h-191zM559 1038q128 0 223 -51.5t138 -134.5q49 83 138.5 134.5t211.5 51.5q204 0 329 -145t125 -385v-29h-723q8 -146 83 -240t204 -94q178 0 252 125h178q-9 -31 -23.5 -63t-48 -76t-78 -76.5t-118 -56t-162.5 -23.5q-142 0 -246 67
t-153 165q-17 -41 -44 -78t-69 -73t-106 -57.5t-142 -21.5q-180 0 -294.5 93t-114.5 249q0 147 100.5 227.5t284.5 80.5h309q0 114 -69.5 180.5t-184.5 66.5q-55 0 -99 -15t-69 -38t-38 -40t-19 -33h-187q4 25 18 57.5t46 74.5t76 76t115.5 58t156.5 24zM1270 879
q-109 0 -175 -66.5t-87 -185.5h520q-24 122 -89 187t-169 65zM537 133q112 0 194 64.5t82 167.5v114h-299q-96 0 -152.5 -41.5t-56.5 -118.5q0 -82 64 -134t168 -52z" />
    <glyph glyph-name="Oslashacute" unicode="&#x1fe;" horiz-adv-x="1601" 
d="M698 1593l209 308h226l-226 -308h-209zM125 0l172 221q-150 205 -150 506q0 214 79.5 384t229.5 269t345 99q218 0 379 -123l75 98h222l-174 -223q151 -206 151 -504q0 -160 -46.5 -298t-130.5 -238.5t-207 -158t-269 -57.5q-222 0 -383 123l-78 -98h-215zM352 727
q0 -201 72 -342l641 821q-108 88 -264 88q-139 0 -242.5 -76.5t-155 -204t-51.5 -286.5zM801 160q105 0 190.5 44t141.5 121t86 180t30 222q0 205 -73 342l-641 -821q108 -88 266 -88z" />
    <glyph glyph-name="oslashacute" unicode="&#x1ff;" horiz-adv-x="1196" 
d="M504 1186l201 375h204l-215 -375h-190zM98 0l129 162q-104 138 -104 344q0 231 131.5 381.5t343.5 150.5q148 0 264 -80l41 54h195l-127 -160q102 -142 102 -346q0 -229 -131.5 -380t-343.5 -151q-151 0 -264 80l-45 -55h-191zM315 506q0 -117 33 -193l406 510
q-67 45 -156 45q-133 0 -208 -102.5t-75 -259.5zM881 506q0 116 -33 192l-408 -508q65 -47 158 -47q133 0 208 103t75 260z" />
    <glyph glyph-name="uni0218" unicode="&#x218;" horiz-adv-x="1443" 
d="M676 1296q-150 0 -235 -59.5t-85 -157.5q0 -96 72.5 -145t204.5 -70q34 -5 62.5 -9.5t64 -9.5t65.5 -9q79 -12 142.5 -29.5t127.5 -50t107 -77t69.5 -112t26.5 -153.5q0 -190 -145 -315.5t-393 -125.5q-120 0 -221.5 26t-172.5 68t-125.5 99.5t-86 116.5t-48.5 123h211
q16 -42 46 -81.5t81 -79.5t133 -64.5t183 -24.5q154 0 247 67.5t93 179.5q0 59 -22 102t-64 70t-90.5 42.5t-114.5 25.5q-45 6 -101 15t-92 14q-104 16 -182.5 43.5t-143 73.5t-98.5 119.5t-34 170.5q0 182 145 291t373 109q109 0 201.5 -22.5t157 -59.5t113.5 -86.5
t76.5 -101.5t41.5 -107h-205q-20 36 -49 67t-74 61.5t-112.5 48t-149.5 17.5zM834 -666h-138q31 58 51.5 126.5t20.5 109.5h-106v235h229v-200q0 -141 -57 -271z" />
    <glyph glyph-name="uni0219" unicode="&#x219;" horiz-adv-x="1103" 
d="M618 420l-145 16q-157 18 -247.5 93.5t-90.5 209.5q0 135 108.5 218t280.5 83q94 0 170.5 -21t122 -50.5t80 -70t49 -70t23.5 -60.5h-185q-8 12 -23.5 27.5t-46 36t-80.5 34t-110 13.5q-99 0 -153 -36.5t-54 -94.5t44 -90.5t137 -43.5l141 -16q178 -21 262 -100t84 -217
q0 -137 -105 -223.5t-294 -86.5q-97 0 -179 23t-133.5 57t-89.5 76.5t-55.5 78.5t-22.5 66h191q8 -16 23 -33.5t47.5 -43t89.5 -42t129 -16.5q104 0 158.5 37t54.5 98q0 66 -42 102t-139 46zM664 -666h-138q31 58 51.5 126.5t20.5 109.5h-106v235h229v-200q0 -141 -57 -271z
" />
    <glyph glyph-name="uni021A" unicode="&#x21a;" horiz-adv-x="1480" 
d="M641 0v1270h-559v184h1317v-184h-559v-1270h-199zM803 -666h-137q31 58 51 126t20 110h-106v235h229v-200q0 -141 -57 -271z" />
    <glyph glyph-name="uni021B" unicode="&#x21b;" horiz-adv-x="985" 
d="M328 330v514h-265v168h265v442h186v-442h367v-168h-367v-475q0 -106 43 -151.5t154 -45.5h170v-172h-217q-336 0 -336 330zM643 -666h-137q31 58 51.5 126.5t20.5 109.5h-107v235h229v-200q0 -141 -57 -271z" />
    <glyph glyph-name="uni0237" unicode="&#x237;" horiz-adv-x="569" 
d="M379 -98q0 -340 -334 -340h-246v174h215q179 0 179 186v1090h186v-1110z" />
    <glyph glyph-name="uni0259" unicode="&#x259;" horiz-adv-x="1165" 
d="M582 -25q-206 0 -332.5 145t-126.5 386v29h731q-8 146 -84.5 239.5t-206.5 93.5q-182 0 -256 -125h-178q9 31 23.5 63t48.5 76t78.5 76.5t119 56t164.5 23.5q144 0 254 -70.5t167.5 -190.5t57.5 -269q0 -235 -126 -384t-334 -149zM582 135q111 0 178 66.5t88 185.5h-529
q24 -122 90.5 -187t172.5 -65z" />
    <glyph glyph-name="uni02BC" unicode="&#x2bc;" horiz-adv-x="598" 
d="M313 827h-145q125 233 125 414h-113v266h238v-245q0 -233 -105 -435z" />
    <glyph glyph-name="circumflex" unicode="&#x2c6;" horiz-adv-x="1228" 
d="M674 1180l-142 229l-139 -229h-180l242 395h155l238 -395h-174z" />
    <glyph glyph-name="caron" unicode="&#x2c7;" horiz-adv-x="1228" 
d="M674 1581h174l-238 -395h-155l-242 395h180l139 -229z" />
    <glyph glyph-name="breve" unicode="&#x2d8;" horiz-adv-x="1228" 
d="M614 1319q60 0 90.5 40.5t30.5 100.5v35h154v-39q0 -125 -71 -203.5t-204 -78.5t-203.5 78t-70.5 204v39h154v-35q0 -58 30.5 -99.5t89.5 -41.5z" />
    <glyph glyph-name="dotaccent" unicode="&#x2d9;" horiz-adv-x="1228" 
d="M518 1206v293h193v-293h-193z" />
    <glyph glyph-name="ring" unicode="&#x2da;" horiz-adv-x="1228" 
d="M614 1161q-112 0 -187 74t-75 182q0 111 75 185.5t187 74.5t187.5 -75t75.5 -185q0 -108 -75.5 -182t-187.5 -74zM614 1286q56 0 91.5 37.5t35.5 93.5q0 57 -35 94t-92 37t-92 -37t-35 -94q0 -56 35.5 -93.5t91.5 -37.5z" />
    <glyph glyph-name="ogonek" unicode="&#x2db;" horiz-adv-x="1228" 
d="M479 -246q0 35 13 66.5t38.5 60t52 52t63.5 53.5q12 9 18 14h186q-56 -50 -73.5 -66.5t-49.5 -49.5t-42.5 -53.5t-10.5 -39.5q0 -61 80 -61h137v-168h-148q-124 0 -194 47t-70 145z" />
    <glyph glyph-name="tilde" unicode="&#x2dc;" horiz-adv-x="1228" 
d="M446 1178h-145v151q0 90 40 141.5t120 51.5q52 0 89 -20.5t89 -67.5l51 -48q33 -29 48 -33q6 -1 12 -1q34 0 34 47v133h146v-152q0 -90 -40 -141t-120 -51q-50 0 -87 21t-89 67l-51 47q-40 35 -62 35q-35 0 -35 -47v-133z" />
    <glyph glyph-name="hungarumlaut" unicode="&#x2dd;" horiz-adv-x="1228" 
d="M621 1186l151 375h180l-166 -375h-165zM274 1186l152 375h180l-166 -375h-166z" />
    <glyph glyph-name="uni0401" unicode="&#x401;" horiz-adv-x="1433" 
d="M471 1593v285h188v-285h-188zM868 1593v285h189v-285h-189zM225 0v1454h1045v-184h-848v-406h500v-184h-500v-496h924v-184h-1121z" />
    <glyph glyph-name="uni0402" unicode="&#x402;" horiz-adv-x="1884" 
d="M621 0v1270h-539v184h1317v-184h-580v-447q18 6 49.5 14.5t118.5 22.5t162 14q268 0 409.5 -131t141.5 -376q0 -248 -148.5 -392.5t-433.5 -144.5v178q191 0 287 94t96 265q0 335 -354 335q-76 0 -158 -14t-126 -28l-44 -13v-647h-198z" />
    <glyph glyph-name="uni0403" unicode="&#x403;" horiz-adv-x="1406" 
d="M653 1593l209 308h225l-225 -308h-209zM225 0v1454h1104v-186h-905v-1268h-199z" />
    <glyph glyph-name="uni0404" unicode="&#x404;" horiz-adv-x="1495" 
d="M780 -25q-190 0 -335.5 100.5t-221.5 271t-76 380.5q0 209 76.5 379.5t222 271.5t334.5 101q113 0 209.5 -30.5t160 -77.5t111 -108t71.5 -119t32 -114h-197q-12 30 -29.5 60.5t-50.5 68.5t-73.5 66t-102 47.5t-131.5 19.5q-93 0 -171 -37.5t-130 -102.5t-83.5 -148.5
t-39.5 -178.5h529v-184h-529q7 -96 37.5 -181t82 -152t130 -106.5t174.5 -39.5q71 0 133 19.5t103.5 48.5t75 67t51 69.5t28.5 61.5h193q-7 -54 -31 -112t-71.5 -120t-111.5 -110.5t-160.5 -79.5t-209.5 -31z" />
    <glyph glyph-name="uni0405" unicode="&#x405;" horiz-adv-x="1443" 
d="M676 1296q-150 0 -235 -59.5t-85 -157.5q0 -96 72.5 -145t204.5 -70q34 -5 62.5 -9.5t64 -9.5t65.5 -9q79 -12 142.5 -29.5t127.5 -50t107 -77t69.5 -112t26.5 -153.5q0 -190 -145 -315.5t-393 -125.5q-120 0 -221.5 26t-172.5 68t-125.5 99.5t-86 116.5t-48.5 123h211
q16 -42 46 -81.5t81 -79.5t133 -64.5t183 -24.5q154 0 247 67.5t93 179.5q0 59 -22 102t-64 70t-90.5 42.5t-114.5 25.5q-45 6 -101 15t-92 14q-104 16 -182.5 43.5t-143 73.5t-98.5 119.5t-34 170.5q0 182 145 291t373 109q109 0 201.5 -22.5t157 -59.5t113.5 -86.5
t76.5 -101.5t41.5 -107h-205q-20 36 -49 67t-74 61.5t-112.5 48t-149.5 17.5z" />
    <glyph glyph-name="uni0406" unicode="&#x406;" horiz-adv-x="653" 
d="M227 0v1454h199v-1454h-199z" />
    <glyph glyph-name="uni0407" unicode="&#x407;" horiz-adv-x="651" 
d="M33 1593v285h188v-285h-188zM430 1593v285h188v-285h-188zM227 0v1454h199v-1454h-199z" />
    <glyph glyph-name="uni0408" unicode="&#x408;" horiz-adv-x="1304" 
d="M1085 442q0 -224 -123.5 -344.5t-330.5 -120.5q-203 0 -326 120t-123 345v402h197v-402q0 -129 67 -202.5t185 -73.5q122 0 189 73t67 203v1012h198v-1012z" />
    <glyph glyph-name="uni0409" unicode="&#x409;" horiz-adv-x="2394" 
d="M551 598q-12 -130 -29.5 -220.5t-48 -168.5t-75 -124t-111 -71.5t-156.5 -25.5h-49v194h35q124 0 174 94t74 345l77 833h924v-549h391q248 0 381 -123.5t133 -332.5q0 -215 -131.5 -332t-382.5 -117h-590v1270h-553zM1763 721h-397v-537h397q150 0 226.5 70t76.5 199
q0 123 -77.5 195.5t-225.5 72.5z" />
    <glyph glyph-name="uni040A" unicode="&#x40a;" horiz-adv-x="2414" 
d="M225 0v1454h199v-590h770v590h199v-590h391q245 0 376.5 -117.5t131.5 -316.5q0 -206 -130 -318t-378 -112h-590v680h-770v-680h-199zM1790 680h-397v-496h397q148 0 222.5 64.5t74.5 185.5q0 111 -76 178.5t-221 67.5z" />
    <glyph glyph-name="uni040B" unicode="&#x40b;" horiz-adv-x="1884" 
d="M621 0v1270h-539v184h1317v-184h-580v-447q18 6 50 14.5t121.5 22.5t168.5 14q274 0 407.5 -128t133.5 -408v-338h-199v332q0 197 -86 283.5t-268 86.5q-76 0 -158 -14t-126 -28l-44 -13v-647h-198z" />
    <glyph glyph-name="uni040C" unicode="&#x40c;" horiz-adv-x="1478" 
d="M612 1593l209 308h226l-226 -308h-209zM225 0v1454h199v-668l723 668h272l-776 -713l817 -741h-278l-758 674v-674h-199z" />
    <glyph glyph-name="uni040E" unicode="&#x40e;" horiz-adv-x="1427" 
d="M756 1726q65 0 99 42.5t34 103.5v26h155v-30q0 -128 -75 -208.5t-213 -80.5t-213.5 80.5t-75.5 208.5v30h156v-26q0 -61 34 -103.5t99 -42.5zM547 0h-221l313 535l-598 919h238l471 -729l426 729h221z" />
    <glyph glyph-name="uni040F" unicode="&#x40f;" horiz-adv-x="1632" 
d="M225 1454h199v-1270h784v1270h199v-1454h-502v-330h-178v330h-502v1454z" />
    <glyph glyph-name="uni0410" unicode="&#x410;" horiz-adv-x="1523" 
d="M1247 0l-143 350h-696l-144 -350h-196l606 1462h176l606 -1462h-209zM483 530h545l-272 664z" />
    <glyph glyph-name="uni0411" unicode="&#x411;" horiz-adv-x="1476" 
d="M815 860q248 0 381 -118t133 -318q0 -203 -131.5 -313.5t-382.5 -110.5h-590v1454h992v-186h-793v-408h391zM821 676h-397v-492h397q151 0 227 63t76 181q0 113 -77.5 180.5t-225.5 67.5z" />
    <glyph glyph-name="uni0412" unicode="&#x412;" horiz-adv-x="1540" 
d="M225 0v1454h709q205 0 315.5 -103.5t110.5 -287.5q0 -110 -68 -191t-162 -110q112 -29 187.5 -120.5t75.5 -223.5q0 -196 -129.5 -307t-376.5 -111h-662zM924 1272h-502v-430h504q108 0 168.5 56.5t60.5 158.5q0 107 -59.5 161t-171.5 54zM881 659h-459v-477h459
q155 0 232 62.5t77 177.5q0 237 -309 237z" />
    <glyph glyph-name="uni0413" unicode="&#x413;" horiz-adv-x="1406" 
d="M225 0v1454h1104v-186h-905v-1268h-199z" />
    <glyph glyph-name="uni0414" unicode="&#x414;" horiz-adv-x="1611" 
d="M379 1454h967v-1270h225v-514h-178v330h-1194v-330h-179v514h170q83 130 113 457zM1147 184v1086h-596l-59 -643q-30 -321 -93 -443h748z" />
    <glyph glyph-name="uni0415" unicode="&#x415;" horiz-adv-x="1433" 
d="M225 0v1454h1045v-184h-848v-406h500v-184h-500v-496h924v-184h-1121z" />
    <glyph glyph-name="uni0416" unicode="&#x416;" horiz-adv-x="2195" 
d="M18 0l762 729l-727 725h273l669 -672v672h199v-672l670 672h272l-725 -721l766 -733h-279l-704 678v-678h-199v678l-704 -678h-273z" />
    <glyph glyph-name="uni0417" unicode="&#x417;" horiz-adv-x="1466" 
d="M752 1479q258 0 397 -108t139 -284q0 -131 -69 -219.5t-168 -117.5q113 -28 187.5 -112.5t74.5 -205.5q0 -212 -145 -334.5t-404 -122.5q-141 0 -259 39t-195 103t-123 141.5t-56 159.5h205q40 -109 146 -182.5t280 -73.5q168 0 258 71t90 197q0 106 -76.5 162.5
t-232.5 56.5h-213v182h221q274 0 274 236q0 225 -331 225q-75 0 -138.5 -16t-107 -41t-77.5 -58t-52.5 -63.5t-30.5 -62.5h-205q16 86 64 162t124 136t185.5 95t237.5 35z" />
    <glyph glyph-name="uni0418" unicode="&#x418;" horiz-adv-x="1673" 
d="M225 0v1454h199v-1171l825 1171h199v-1454h-199v1176l-825 -1176h-199z" />
    <glyph glyph-name="uni0419" unicode="&#x419;" horiz-adv-x="1673" 
d="M838 1726q65 0 99 42.5t34 103.5v26h155v-30q0 -128 -75 -208.5t-213 -80.5t-213.5 80.5t-75.5 208.5v30h156v-26q0 -61 34 -103.5t99 -42.5zM225 0v1454h199v-1171l825 1171h199v-1454h-199v1176l-825 -1176h-199z" />
    <glyph glyph-name="uni041A" unicode="&#x41a;" horiz-adv-x="1478" 
d="M225 0v1454h199v-668l723 668h272l-776 -713l817 -741h-278l-758 674v-674h-199z" />
    <glyph glyph-name="uni041B" unicode="&#x41b;" horiz-adv-x="1632" 
d="M551 598q-12 -130 -29.5 -220.5t-48 -168.5t-75 -124t-111 -71.5t-156.5 -25.5h-49v194h35q124 0 174 94t74 345l77 833h965v-1454h-199v1270h-594z" />
    <glyph glyph-name="uni041C" unicode="&#x41c;" horiz-adv-x="1947" 
d="M225 0v1454h305l449 -1159l446 1159h297v-1454h-188v1266l-496 -1274h-137l-491 1261v-1253h-185z" />
    <glyph glyph-name="uni041D" unicode="&#x41d;" horiz-adv-x="1652" 
d="M225 0v1454h199v-629h805v629h198v-1454h-198v641h-805v-641h-199z" />
    <glyph glyph-name="uni041E" unicode="&#x41e;" horiz-adv-x="1601" 
d="M801 -25q-197 0 -347 98t-228.5 268t-78.5 386q0 214 79.5 384t229.5 269t345 99q146 0 269 -57.5t207 -158t130.5 -238.5t46.5 -298t-46.5 -298t-130.5 -238.5t-207 -158t-269 -57.5zM801 160q140 0 243 76t154 203t51 288q0 118 -30 220.5t-85.5 180t-141 122
t-191.5 44.5q-140 0 -243.5 -76.5t-154.5 -203.5t-51 -287q0 -163 51 -290t154 -202t244 -75z" />
    <glyph glyph-name="uni041F" unicode="&#x41f;" horiz-adv-x="1632" 
d="M225 0v1454h1182v-1454h-199v1270h-784v-1270h-199z" />
    <glyph glyph-name="uni0420" unicode="&#x420;" horiz-adv-x="1480" 
d="M225 0v1454h649q235 0 359.5 -106.5t124.5 -300.5q0 -191 -125.5 -303.5t-358.5 -112.5h-450v-631h-199zM881 1270h-457v-455h457q132 0 202 62t70 165q0 109 -69 168.5t-203 59.5z" />
    <glyph glyph-name="uni0421" unicode="&#x421;" horiz-adv-x="1495" 
d="M780 -25q-190 0 -335.5 100.5t-221.5 271t-76 380.5q0 209 76.5 379.5t222 271.5t334.5 101q113 0 209.5 -30.5t160 -77.5t111 -108t71.5 -119t32 -114h-197q-12 30 -29.5 60.5t-50.5 68.5t-73.5 66t-102 47.5t-131.5 19.5q-102 0 -184 -45.5t-134 -123.5t-79 -179.5
t-27 -216.5t27 -216.5t79 -179.5t134 -123.5t184 -45.5q71 0 133 19.5t103.5 48.5t75 67t51 69.5t28.5 61.5h193q-7 -54 -31 -112t-71.5 -120t-111.5 -110.5t-160.5 -79.5t-209.5 -31z" />
    <glyph glyph-name="uni0422" unicode="&#x422;" horiz-adv-x="1480" 
d="M641 0v1270h-559v184h1317v-184h-559v-1270h-199z" />
    <glyph glyph-name="uni0423" unicode="&#x423;" horiz-adv-x="1427" 
d="M547 0h-221l313 535l-598 919h238l471 -729l426 729h221z" />
    <glyph glyph-name="uni0424" unicode="&#x424;" horiz-adv-x="2107" 
d="M684 256q-274 0 -417.5 132t-143.5 362q0 233 142.5 359t418.5 126h270v240h199v-240h270q277 0 419.5 -126t142.5 -359q0 -230 -144 -362t-418 -132h-270v-276h-199v276h-270zM954 440v611h-276q-174 0 -262 -79.5t-88 -226.5q0 -140 89 -222.5t261 -82.5h276z
M1430 1051h-277v-611h277q172 0 261 82.5t89 222.5q0 147 -88 226.5t-262 79.5z" />
    <glyph glyph-name="uni0425" unicode="&#x425;" horiz-adv-x="1607" 
d="M309 0h-239l608 764l-555 690h260l422 -530l424 530h241l-544 -682l612 -772h-248l-491 612z" />
    <glyph glyph-name="uni0426" unicode="&#x426;" horiz-adv-x="1673" 
d="M1208 184v1270h199v-1270h225v-514h-178v330h-1229v1454h199v-1270h784z" />
    <glyph glyph-name="uni0427" unicode="&#x427;" horiz-adv-x="1570" 
d="M1147 0v610q-21 -6 -59 -14.5t-143.5 -22.5t-199.5 -14q-284 0 -422.5 127t-138.5 410v358h199v-352q0 -199 87 -283t273 -84q92 0 193 12.5t156 25.5l55 13v668h199v-1454h-199z" />
    <glyph glyph-name="uni0428" unicode="&#x428;" horiz-adv-x="2246" 
d="M225 1454h199v-1270h600v1270h199v-1270h600v1270h198v-1454h-1796v1454z" />
    <glyph glyph-name="uni0429" unicode="&#x429;" horiz-adv-x="2287" 
d="M225 1454h199v-1270h600v1270h199v-1270h600v1270h198v-1270h226v-514h-179v330h-1843v1454z" />
    <glyph glyph-name="uni042A" unicode="&#x42a;" horiz-adv-x="1677" 
d="M78 1268v186h571v-549h391q248 0 381 -123.5t133 -332.5q0 -215 -131.5 -332t-382.5 -117h-589v1268h-373zM1047 721h-398v-537h398q150 0 226.5 70t76.5 199q0 123 -77.5 195.5t-225.5 72.5z" />
    <glyph glyph-name="uni042B" unicode="&#x42b;" horiz-adv-x="1955" 
d="M815 905q248 0 381 -123.5t133 -332.5q0 -215 -131.5 -332t-382.5 -117h-590v1454h199v-549h391zM1532 0v1454h199v-1454h-199zM821 721h-397v-537h397q150 0 226.5 70t76.5 199q0 123 -77.5 195.5t-225.5 72.5z" />
    <glyph glyph-name="uni042C" unicode="&#x42c;" horiz-adv-x="1452" 
d="M815 905q248 0 381 -123.5t133 -332.5q0 -215 -131.5 -332t-382.5 -117h-590v1454h199v-549h391zM821 721h-397v-537h397q150 0 226.5 70t76.5 199q0 123 -77.5 195.5t-225.5 72.5z" />
    <glyph glyph-name="uni042D" unicode="&#x42d;" horiz-adv-x="1495" 
d="M715 -25q-113 0 -209.5 31t-160.5 79.5t-111.5 110.5t-71.5 120t-31 112h193q11 -30 28.5 -61.5t51 -69.5t75 -67t103.5 -48.5t133 -19.5q188 0 297 132.5t125 346.5h-527v184h527q-16 205 -125.5 336t-296.5 131q-82 0 -152 -25t-116 -65t-75.5 -83.5t-43.5 -88.5h-197
q8 56 32 114t71.5 119t111 108t160 77.5t209.5 30.5q144 0 264 -58t200.5 -159.5t124.5 -239t44 -295.5q0 -210 -76 -380.5t-221.5 -271t-335.5 -100.5z" />
    <glyph glyph-name="uni042E" unicode="&#x42e;" horiz-adv-x="2072" 
d="M225 0v1454h199v-629h240q27 290 196.5 472t431.5 182q142 0 261 -57.5t200.5 -158t126.5 -238.5t45 -298t-45 -298t-126.5 -238.5t-200.5 -158t-261 -57.5q-179 0 -317.5 86t-217 236t-93.5 344h-240v-641h-199zM1292 160q134 0 232.5 76t147 203t48.5 288
q0 159 -48.5 286t-147 204t-232.5 77t-232.5 -76.5t-147 -203.5t-48.5 -287q0 -163 48.5 -290t147 -202t232.5 -75z" />
    <glyph glyph-name="uni042F" unicode="&#x42f;" horiz-adv-x="1558" 
d="M348 0h-215l393 641q-157 31 -241 131.5t-84 261.5q0 203 123.5 311.5t353.5 108.5h655v-1454h-198v614h-410zM680 797h455v473h-455q-274 0 -274 -236q0 -237 274 -237z" />
    <glyph glyph-name="uni0430" unicode="&#x430;" horiz-adv-x="1230" 
d="M856 166q-9 -21 -22 -42.5t-39 -49.5t-57 -49t-79.5 -35.5t-103.5 -14.5q-186 0 -307 143t-121 386t121 386.5t307 143.5q56 0 104.5 -15.5t79.5 -36t57 -50t38 -48.5t22 -40v168h186v-1012h-186v166zM860 504q0 157 -72 257.5t-198 100.5q-128 0 -199.5 -100t-71.5 -258
q0 -157 71.5 -258t199.5 -101q125 0 197.5 101.5t72.5 257.5z" />
    <glyph glyph-name="uni0431" unicode="&#x431;" horiz-adv-x="1216" 
d="M143 528q0 98 15 301q22 262 148 406t409 205l327 71v-172l-323 -71q-202 -45 -286.5 -137t-102.5 -304q44 78 122 123t189 45q202 0 327.5 -138t125.5 -372q0 -220 -132 -365t-344 -145q-219 0 -347 149.5t-128 403.5zM618 147q133 0 208 96t75 242t-75 242t-208 96
t-207.5 -96t-74.5 -242t74 -242t208 -96z" />
    <glyph glyph-name="uni0432" unicode="&#x432;" horiz-adv-x="1155" 
d="M188 0v1012h478q154 0 251 -67.5t97 -199.5q0 -88 -45 -146t-109 -79q78 -21 129 -77t51 -144q0 -135 -103.5 -217t-274.5 -82h-474zM666 848h-291v-250h291q76 0 119.5 32.5t43.5 98.5q0 56 -43.5 87.5t-119.5 31.5zM666 434h-291v-270h289q90 0 136 36.5t46 106.5
q0 57 -45 92t-135 35z" />
    <glyph glyph-name="uni0433" unicode="&#x433;" horiz-adv-x="942" 
d="M188 0v1012h672v-168h-485v-844h-187z" />
    <glyph glyph-name="uni0434" unicode="&#x434;" horiz-adv-x="1230" 
d="M197 -305h-166v473h121q45 60 69.5 165.5t42.5 299.5l35 379h707v-844h184v-473h-166v305h-827v-305zM819 168v676h-368l-21 -226q-18 -187 -39 -287.5t-59 -162.5h487z" />
    <glyph glyph-name="uni0435" unicode="&#x435;" horiz-adv-x="1159" 
d="M584 1038q206 0 332 -144.5t126 -385.5v-29h-731q8 -146 84.5 -240t206.5 -94q182 0 256 125h178q-9 -31 -23.5 -63t-48.5 -76t-78.5 -76.5t-119 -56t-164.5 -23.5q-144 0 -254 71t-167.5 191t-57.5 269q0 234 126.5 383t334.5 149zM584 879q-111 0 -178.5 -66.5
t-88.5 -185.5h529q-24 122 -90 187t-172 65z" />
    <glyph glyph-name="uni0436" unicode="&#x436;" horiz-adv-x="1630" 
d="M721 0v461l-467 -461h-244l527 518l-502 494h250l436 -441v441h180v-441l436 441h248l-498 -490l533 -522h-252l-467 461v-461h-180z" />
    <glyph glyph-name="uni0437" unicode="&#x437;" horiz-adv-x="1093" 
d="M545 139q239 0 239 160q0 131 -180 131h-160v164h160q75 0 119.5 35.5t44.5 103.5t-52 104.5t-143 36.5q-190 0 -262 -155h-188q11 58 44.5 112.5t87.5 101.5t137 76t181 29q176 0 277.5 -80.5t101.5 -224.5q0 -83 -44 -138.5t-107 -76.5q77 -21 127.5 -76t50.5 -143
q0 -150 -118 -237t-316 -87q-102 0 -185.5 29t-136.5 77.5t-84 106.5t-39 121h183q29 -73 92.5 -121.5t169.5 -48.5z" />
    <glyph glyph-name="uni0438" unicode="&#x438;" horiz-adv-x="1263" 
d="M188 0v1012h187v-744l514 744h186v-1012h-186v750l-514 -750h-187z" />
    <glyph glyph-name="uni0439" unicode="&#x439;" horiz-adv-x="1263" 
d="M631 1319q60 0 90.5 40.5t30.5 100.5v35h153v-39q0 -126 -70.5 -204t-203.5 -78t-204 78.5t-71 203.5v39h154v-35q0 -58 31 -99.5t90 -41.5zM188 0v1012h187v-744l514 744h186v-1012h-186v750l-514 -750h-187z" />
    <glyph glyph-name="uni043A" unicode="&#x43a;" horiz-adv-x="1138" 
d="M188 0v1012h181v-445l477 445h248l-529 -484l563 -528h-251l-508 465v-465h-181z" />
    <glyph glyph-name="uni043B" unicode="&#x43b;" horiz-adv-x="1212" 
d="M276 451l56 561h692v-1012h-186v844h-357l-39 -406q-24 -241 -95.5 -346.5t-229.5 -105.5h-56v168h25q53 0 85 13t53.5 50t32 89t19.5 145z" />
    <glyph glyph-name="uni043C" unicode="&#x43c;" horiz-adv-x="1548" 
d="M188 0v1012h289l301 -740l301 740h281v-1012h-182v840l-344 -846h-129l-340 835v-829h-177z" />
    <glyph glyph-name="uni043D" unicode="&#x43d;" horiz-adv-x="1243" 
d="M188 0v1012h187v-414h493v414h187v-1012h-187v430h-493v-430h-187z" />
    <glyph glyph-name="uni043E" unicode="&#x43e;" horiz-adv-x="1196" 
d="M598 1036q212 0 343.5 -150.5t131.5 -379.5t-131.5 -380t-343.5 -151t-343.5 151t-131.5 380t131.5 379.5t343.5 150.5zM598 147q133 0 208 101.5t75 257.5t-75 257t-208 101t-208 -101t-75 -257t74.5 -257.5t208.5 -101.5z" />
    <glyph glyph-name="uni043F" unicode="&#x43f;" horiz-adv-x="1222" 
d="M188 0v1012h846v-1012h-186v844h-473v-844h-187z" />
    <glyph glyph-name="uni0440" unicode="&#x440;" horiz-adv-x="1251" 
d="M373 158v-596h-185v1450h185v-166q10 20 23 40t41 49t60.5 50.5t83 37t107.5 15.5q186 0 311 -144.5t125 -387.5t-125 -387t-311 -144q-56 0 -106.5 15t-83 36t-61 49t-41.5 46.5t-23 36.5zM369 506q0 -156 76.5 -258.5t205.5 -102.5q128 0 205.5 102.5t77.5 258.5
q0 157 -77.5 258.5t-205.5 101.5q-129 0 -205.5 -101.5t-76.5 -258.5z" />
    <glyph glyph-name="uni0441" unicode="&#x441;" horiz-adv-x="1110" 
d="M827 711q-9 22 -23.5 43t-42.5 49t-74 45.5t-103 17.5q-120 0 -194.5 -102t-74.5 -258q0 -155 75 -258t196 -103q48 0 89 13.5t64.5 29.5t45 43t28.5 39t16 31h181q-5 -26 -17 -59.5t-44.5 -83t-76.5 -88.5t-119 -67t-167 -28q-198 0 -330.5 151.5t-132.5 379.5
q0 230 131.5 381t329.5 151q92 0 167 -27.5t119.5 -65.5t76.5 -87t45 -83.5t18 -63.5h-183z" />
    <glyph glyph-name="uni0442" unicode="&#x442;" horiz-adv-x="1046" 
d="M430 0v844h-348v168h883v-168h-349v-844h-186z" />
    <glyph glyph-name="uni0443" unicode="&#x443;" horiz-adv-x="1095" 
d="M279 -438l180 454l-408 996h205l299 -752l299 752h190l-579 -1450h-186z" />
    <glyph glyph-name="uni0444" unicode="&#x444;" horiz-adv-x="1484" 
d="M649 -438v413q-236 10 -381 160t-145 371t145 370.5t381 159.5v471h187v-471q236 -10 381 -159.5t145 -370.5t-145 -371t-381 -160v-413h-187zM315 506q0 -148 87 -248.5t247 -110.5v717q-159 -10 -246.5 -110.5t-87.5 -247.5zM1169 506q0 149 -86.5 248t-246.5 108v-712
q160 9 246.5 108t86.5 248z" />
    <glyph glyph-name="uni0445" unicode="&#x445;" horiz-adv-x="1130" 
d="M268 0h-219l404 504l-406 508h242l282 -361l289 361h223l-401 -500l401 -512h-229l-291 365z" />
    <glyph glyph-name="uni0446" unicode="&#x446;" horiz-adv-x="1259" 
d="M848 168v844h186v-844h185v-473h-166v305h-865v1012h187v-844h473z" />
    <glyph glyph-name="uni0447" unicode="&#x447;" horiz-adv-x="1187" 
d="M813 0v385q-90 -27 -223 -27q-212 0 -319 91t-107 296v267h186v-246q0 -126 52 -184t188 -58q60 0 116 6t82 12l25 7v463h186v-1012h-186z" />
    <glyph glyph-name="uni0448" unicode="&#x448;" horiz-adv-x="1759" 
d="M188 1012h187v-844h411v844h187v-844h411v844h187v-1012h-1383v1012z" />
    <glyph glyph-name="uni0449" unicode="&#x449;" horiz-adv-x="1796" 
d="M188 1012h187v-844h411v844h187v-844h411v844h187v-844h184v-473h-166v305h-1401v1012z" />
    <glyph glyph-name="uni044A" unicode="&#x44a;" horiz-adv-x="1265" 
d="M82 1012h493v-326h226q202 0 302.5 -93.5t100.5 -246.5q0 -69 -24 -129.5t-71 -110t-126 -78t-180 -28.5h-414v844h-307v168zM780 518h-205v-350h205q228 0 228 178q0 80 -59.5 126t-168.5 46z" />
    <glyph glyph-name="uni044B" unicode="&#x44b;" horiz-adv-x="1548" 
d="M600 686q202 0 303 -93.5t101 -246.5q0 -69 -24 -129.5t-71.5 -110t-126.5 -78t-180 -28.5h-414v1012h187v-326h225zM1174 0v1012h186v-1012h-186zM580 518h-205v-350h205q227 0 227 178q0 80 -59 126t-168 46z" />
    <glyph glyph-name="uni044C" unicode="&#x44c;" horiz-adv-x="1064" 
d="M600 686q202 0 303 -93.5t101 -246.5q0 -69 -24 -129.5t-71.5 -110t-126.5 -78t-180 -28.5h-414v1012h187v-326h225zM580 518h-205v-350h205q227 0 227 178q0 80 -59 126t-168 46z" />
    <glyph glyph-name="uni044D" unicode="&#x44d;" horiz-adv-x="1110" 
d="M281 301q9 -19 16 -31t28.5 -39t45 -43t64.5 -29.5t89 -13.5q110 0 185 83.5t84 201.5h-367v168h367q-14 116 -85 192t-182 76q-57 0 -103 -17.5t-74 -45.5t-42.5 -49t-23.5 -43h-183q5 29 18 63.5t45 83.5t76.5 87t119.5 65.5t167 27.5q204 0 332.5 -148.5t128.5 -383.5
q0 -228 -132.5 -379.5t-330.5 -151.5q-92 0 -167 28t-119 67t-76.5 88.5t-44.5 83t-17 59.5h181z" />
    <glyph glyph-name="uni044E" unicode="&#x44e;" horiz-adv-x="1640" 
d="M188 0v1012h187v-414h198q27 194 153.5 316t315.5 122q212 0 344 -150.5t132 -379.5t-132 -380t-344 -151q-193 0 -321 127.5t-150 327.5h-196v-430h-187zM1042 147q133 0 208 101.5t75 257.5t-75 257t-208 101t-207.5 -101t-74.5 -257t74 -257.5t208 -101.5z" />
    <glyph glyph-name="uni044F" unicode="&#x44f;" horiz-adv-x="1146" 
d="M958 0h-186v367h-219l-246 -367h-215l268 391q-119 28 -178 109t-59 196q0 63 21.5 118.5t64 100.5t113 71t161.5 26h475v-1012zM506 535h266v309h-266q-91 0 -139 -37.5t-48 -110.5q0 -76 48.5 -118.5t138.5 -42.5z" />
    <glyph glyph-name="uni0451" unicode="&#x451;" horiz-adv-x="1159" 
d="M301 1206v285h188v-285h-188zM678 1206v285h188v-285h-188zM584 1038q206 0 332 -144.5t126 -385.5v-29h-731q8 -146 84.5 -240t206.5 -94q182 0 256 125h178q-9 -31 -23.5 -63t-48.5 -76t-78.5 -76.5t-119 -56t-164.5 -23.5q-144 0 -254 71t-167.5 191t-57.5 269
q0 234 126.5 383t334.5 149zM584 879q-111 0 -178.5 -66.5t-88.5 -185.5h529q-24 122 -90 187t-172 65z" />
    <glyph glyph-name="uni0452" unicode="&#x452;" horiz-adv-x="1247" 
d="M188 0v1176h-186v151h186v180h187v-180h368v-151h-368v-334q33 76 111 134t192 58q177 0 283 -116t106 -316v-700q0 -340 -334 -340h-248v174h215q179 0 179 186v645q0 144 -65 219.5t-181 75.5q-121 0 -189.5 -77t-68.5 -218v-567h-187z" />
    <glyph glyph-name="uni0453" unicode="&#x453;" horiz-adv-x="942" 
d="M434 1186l201 375h205l-215 -375h-191zM188 0v1012h672v-168h-485v-844h-187z" />
    <glyph glyph-name="uni0454" unicode="&#x454;" horiz-adv-x="1110" 
d="M829 301h181q-5 -26 -17 -59.5t-44.5 -83t-76.5 -88.5t-119 -67t-167 -28q-198 0 -330.5 151.5t-132.5 379.5q0 230 131.5 381t329.5 151q92 0 167 -27.5t119.5 -65.5t76.5 -87t45 -83.5t18 -63.5h-183q-9 22 -23.5 43t-42.5 49t-74 45.5t-103 17.5q-105 0 -178 -78
t-87 -190h365v-168h-367q9 -118 84 -201.5t185 -83.5q48 0 89 13.5t64.5 29.5t45 43t28.5 39t16 31z" />
    <glyph glyph-name="uni0455" unicode="&#x455;" horiz-adv-x="1103" 
d="M618 420l-145 16q-157 18 -247.5 93.5t-90.5 209.5q0 135 108.5 218t280.5 83q94 0 170.5 -21t122 -50.5t80 -70t49 -70t23.5 -60.5h-185q-8 12 -23.5 27.5t-46 36t-80.5 34t-110 13.5q-99 0 -153 -36.5t-54 -94.5t44 -90.5t137 -43.5l141 -16q178 -21 262 -100t84 -217
q0 -137 -105 -223.5t-294 -86.5q-97 0 -179 23t-133.5 57t-89.5 76.5t-55.5 78.5t-22.5 66h191q8 -16 23 -33.5t47.5 -43t89.5 -42t129 -16.5q104 0 158.5 37t54.5 98q0 66 -42 102t-139 46z" />
    <glyph glyph-name="uni0456" unicode="&#x456;" horiz-adv-x="567" 
d="M186 1206v293h195v-293h-195zM190 0v1012h187v-1012h-187z" />
    <glyph glyph-name="uni0457" unicode="&#x457;" horiz-adv-x="567" 
d="M41 1206v293h188v-293h-188zM336 1206v293h188v-293h-188zM190 0v1012h187v-1012h-187z" />
    <glyph glyph-name="uni0458" unicode="&#x458;" horiz-adv-x="571" 
d="M190 1206v293h195v-293h-195zM381 -98q0 -340 -334 -340h-248v174h217q92 0 135.5 46t43.5 140v1090h186v-1110z" />
    <glyph glyph-name="uni0459" unicode="&#x459;" horiz-adv-x="1673" 
d="M276 451l56 561h651v-326h225q202 0 303 -93.5t101 -246.5q0 -69 -24 -129.5t-71.5 -110t-126.5 -78t-180 -28.5h-413v844h-316l-39 -406q-24 -241 -95.5 -346.5t-229.5 -105.5h-56v168h25q53 0 85 13t53.5 50t32 89t19.5 145zM1188 518h-205v-350h205q227 0 227 178
q0 80 -59 126t-168 46z" />
    <glyph glyph-name="uni045A" unicode="&#x45a;" horiz-adv-x="1744" 
d="M188 0v1012h187v-353h493v353h187v-353h248q189 0 284.5 -89t95.5 -234q0 -66 -23 -125t-67.5 -107t-118.5 -76t-169 -28h-437v492h-493v-492h-187zM1282 492h-227v-324h227q205 0 205 168q0 73 -53 114.5t-152 41.5z" />
    <glyph glyph-name="uni045B" unicode="&#x45b;" horiz-adv-x="1247" 
d="M188 0v1176h-186v151h186v180h187v-180h368v-151h-368v-342q21 49 57 91.5t101.5 75.5t144.5 33q177 0 283 -118.5t106 -323.5v-592h-188v557q0 148 -65 226.5t-181 78.5q-121 0 -189.5 -79.5t-68.5 -225.5v-557h-187z" />
    <glyph glyph-name="uni045C" unicode="&#x45c;" horiz-adv-x="1138" 
d="M489 1186l201 375h205l-215 -375h-191zM188 0v1012h181v-445l477 445h248l-529 -484l563 -528h-251l-508 465v-465h-181z" />
    <glyph glyph-name="uni045E" unicode="&#x45e;" horiz-adv-x="1095" 
d="M553 1319q60 0 90.5 40.5t30.5 100.5v35h153v-39q0 -126 -70.5 -204t-203.5 -78t-203.5 78t-70.5 204v39h153v-35q0 -58 31 -99.5t90 -41.5zM279 -438l180 454l-408 996h205l299 -752l299 752h190l-579 -1450h-186z" />
    <glyph glyph-name="uni045F" unicode="&#x45f;" horiz-adv-x="1222" 
d="M528 -305v305h-340v1012h187v-844h473v844h186v-1012h-340v-305h-166z" />
    <glyph glyph-name="uni0490" unicode="&#x490;" horiz-adv-x="1406" 
d="M225 0v1454h926v328h178v-514h-905v-1268h-199z" />
    <glyph glyph-name="uni0491" unicode="&#x491;" horiz-adv-x="942" 
d="M188 0v1012h506v305h166v-473h-485v-844h-187z" />
    <glyph glyph-name="uni0492" unicode="&#x492;" horiz-adv-x="1429" 
d="M248 0v643h-223v180h223v631h1104v-186h-906v-445h533v-180h-533v-643h-198z" />
    <glyph glyph-name="uni0493" unicode="&#x493;" horiz-adv-x="962" 
d="M209 0v412h-170v151h170v449h672v-168h-486v-281h297v-151h-297v-412h-186z" />
    <glyph glyph-name="uni0496" unicode="&#x496;" horiz-adv-x="2199" 
d="M18 0l762 729l-727 725h273l669 -672v672h199v-672l670 672h272l-725 -721l574 -549h192v-514h-178v330h-101l-704 678v-678h-199v678l-704 -678h-273z" />
    <glyph glyph-name="uni0497" unicode="&#x497;" horiz-adv-x="1630" 
d="M721 0v461l-467 -461h-244l520 514l-505 498h260l436 -441v441h180v-441l436 441h256l-501 -494l358 -350h229v-473h-166v305h-145l-467 461v-461h-180z" />
    <glyph glyph-name="uni0498" unicode="&#x498;" horiz-adv-x="1466" 
d="M752 1479q258 0 397 -108t139 -284q0 -131 -69 -219.5t-168 -117.5q113 -28 187.5 -112.5t74.5 -205.5q0 -190 -117.5 -308.5t-331.5 -141.5v-312h-178v310q-124 10 -227 51.5t-170.5 103.5t-107.5 134.5t-50 148.5h205q40 -109 146 -182.5t280 -73.5q168 0 258 71
t90 197q0 106 -76.5 162.5t-232.5 56.5h-213v182h221q274 0 274 236q0 225 -331 225q-75 0 -138.5 -16t-107 -41t-77.5 -58t-52.5 -63.5t-30.5 -62.5h-205q16 86 64 162t124 136t185.5 95t237.5 35z" />
    <glyph glyph-name="uni0499" unicode="&#x499;" horiz-adv-x="1093" 
d="M471 -305v285q-164 19 -260 113.5t-111 215.5h183q29 -73 92.5 -121.5t169.5 -48.5q239 0 239 160q0 131 -180 131h-160v164h160q75 0 119.5 35.5t44.5 103.5t-52 104.5t-143 36.5q-190 0 -262 -155h-188q11 58 44.5 112.5t87.5 101.5t137 76t181 29q176 0 277.5 -80.5
t101.5 -224.5q0 -83 -44 -138.5t-107 -76.5q77 -21 127.5 -76t50.5 -143q0 -131 -92 -214.5t-250 -102.5v-287h-166z" />
    <glyph glyph-name="uni049A" unicode="&#x49a;" horiz-adv-x="1478" 
d="M225 0v1454h199v-668l723 668h272l-776 -713l614 -557h244v-514h-178v330h-141l-758 674v-674h-199z" />
    <glyph glyph-name="uni049B" unicode="&#x49b;" horiz-adv-x="1138" 
d="M188 0v1012h181v-445l477 445h256l-533 -488l381 -356h238v-473h-166v305h-145l-508 465v-465h-181z" />
    <glyph glyph-name="uni049C" unicode="&#x49c;" horiz-adv-x="1609" 
d="M225 0v1454h199v-1454h-199zM764 328h-180v788h180v-323l547 661h235l-596 -711l641 -743h-245l-582 668v-340z" />
    <glyph glyph-name="uni049D" unicode="&#x49d;" horiz-adv-x="1234" 
d="M616 205h-151v622h151v-243l355 428h217l-416 -484l453 -528h-224l-385 451v-246zM188 0v1012h181v-1012h-181z" />
    <glyph glyph-name="uni04A0" unicode="&#x4a0;" horiz-adv-x="1939" 
d="M686 0v1268h-608v186h807v-668l723 668h272l-776 -713l817 -741h-279l-757 674v-674h-199z" />
    <glyph glyph-name="uni04A1" unicode="&#x4a1;" horiz-adv-x="1390" 
d="M440 0v844h-358v168h539v-445l477 445h248l-529 -484l563 -528h-252l-507 465v-465h-181z" />
    <glyph glyph-name="uni04A2" unicode="&#x4a2;" horiz-adv-x="1693" 
d="M225 0v1454h199v-629h805v629h198v-1270h226v-514h-178v330h-246v641h-805v-641h-199z" />
    <glyph glyph-name="uni04A3" unicode="&#x4a3;" horiz-adv-x="1280" 
d="M188 0v1012h187v-414h493v414h187v-844h184v-473h-166v305h-205v430h-493v-430h-187z" />
    <glyph glyph-name="uni04AA" unicode="&#x4aa;" horiz-adv-x="1495" 
d="M1364 428q-6 -48 -26.5 -100.5t-59.5 -109t-92 -104t-131 -83.5t-170 -49v-312h-178v310q-169 19 -297.5 122.5t-195.5 265.5t-67 359q0 209 76.5 379.5t222 271.5t334.5 101q113 0 209.5 -30.5t160 -77.5t111 -108t71.5 -119t32 -114h-197q-12 30 -29.5 60.5t-50.5 68.5
t-73.5 66t-102 47.5t-131.5 19.5q-102 0 -184 -45.5t-134 -123.5t-79 -179.5t-27 -216.5t27 -216.5t79 -179.5t134 -123.5t184 -45.5q71 0 133 19.5t103.5 48.5t75 67t51 69.5t28.5 61.5h193z" />
    <glyph glyph-name="uni04AB" unicode="&#x4ab;" horiz-adv-x="1110" 
d="M508 -305v287q-170 31 -277.5 175.5t-107.5 348.5q0 230 131.5 381t329.5 151q92 0 167 -27.5t119.5 -65.5t76.5 -87t45 -83.5t18 -63.5h-183q-9 22 -23.5 43t-42.5 49t-74 45.5t-103 17.5q-120 0 -194.5 -102t-74.5 -258q0 -155 75 -258t196 -103q48 0 89 13.5
t64.5 29.5t45 43t28.5 39t16 31h181q-4 -22 -14.5 -52t-36 -73t-61 -80t-94.5 -69.5t-130 -44.5v-287h-166z" />
    <glyph glyph-name="uni04AE" unicode="&#x4ae;" horiz-adv-x="1402" 
d="M608 584l-577 870h245l437 -670l436 670h223l-565 -868v-586h-199v584z" />
    <glyph glyph-name="uni04AF" unicode="&#x4af;" horiz-adv-x="1093" 
d="M459 -438v434l-408 1016h209l295 -772l295 772h192l-397 -1014v-436h-186z" />
    <glyph glyph-name="uni04B0" unicode="&#x4b0;" horiz-adv-x="1402" 
d="M199 406v180h407l-575 868h245l437 -670l436 670h223l-565 -868h410v-180h-410v-406h-199v406h-409z" />
    <glyph glyph-name="uni04B1" unicode="&#x4b1;" horiz-adv-x="1093" 
d="M170 0h287l-406 1012h209l295 -772l295 772h192l-397 -1012h289v-152h-289v-286h-186v286h-289v152z" />
    <glyph glyph-name="uni04B2" unicode="&#x4b2;" horiz-adv-x="1607" 
d="M309 0h-239l608 764l-555 690h260l422 -530l424 530h241l-544 -682l467 -588h217v-514h-178v330h-142l-491 612z" />
    <glyph glyph-name="uni04B3" unicode="&#x4b3;" horiz-adv-x="1130" 
d="M268 0h-219l404 504l-406 508h242l282 -361l289 361h223l-401 -500l270 -344h213v-473h-166v305h-145l-291 365z" />
    <glyph glyph-name="uni04B6" unicode="&#x4b6;" horiz-adv-x="1611" 
d="M1147 0v610q-21 -6 -59 -14.5t-143.5 -22.5t-199.5 -14q-284 0 -422.5 127t-138.5 410v358h199v-352q0 -199 87 -283t273 -84q92 0 193 12.5t156 25.5l55 13v668h199v-1270h225v-514h-178v330h-246z" />
    <glyph glyph-name="uni04B7" unicode="&#x4b7;" horiz-adv-x="1224" 
d="M813 549v463h186v-844h185v-473h-166v305h-205v385q-90 -27 -223 -27q-212 0 -319 91t-107 296v267h186v-246q0 -126 52 -184t188 -58q60 0 116 6t82 12z" />
    <glyph glyph-name="uni04B8" unicode="&#x4b8;" horiz-adv-x="1570" 
d="M866 287h-180v274q-255 14 -378.5 141.5t-123.5 393.5v358h199v-352q0 -185 74.5 -270.5t228.5 -94.5v338h180v-338q60 4 130.5 16.5t110.5 22.5l40 10v668h199v-1454h-199v610q-125 -35 -281 -47v-276z" />
    <glyph glyph-name="uni04B9" unicode="&#x4b9;" horiz-adv-x="1228" 
d="M686 143h-151v217q-185 14 -278 106.5t-93 278.5v267h186v-246q0 -112 42 -170t143 -70v240h151v-240q45 2 87 7.5t61 10.5l20 5v463h186v-1012h-186v385q-66 -19 -168 -25v-217z" />
    <glyph glyph-name="uni04BA" unicode="&#x4ba;" horiz-adv-x="1570" 
d="M424 1454v-610q21 6 58.5 14.5t143 22.5t199.5 14q284 0 422.5 -127t138.5 -410v-358h-198v352q0 199 -87 283t-274 84q-92 0 -192.5 -12.5t-155.5 -25.5l-55 -13v-668h-199v1454h199z" />
    <glyph glyph-name="uni04BB" unicode="&#x4bb;" horiz-adv-x="1247" 
d="M188 0v1507h187v-673q21 49 57 91.5t101.5 75.5t144.5 33q177 0 283 -118.5t106 -323.5v-592h-188v557q0 148 -65 226.5t-181 78.5q-121 0 -189.5 -79.5t-68.5 -225.5v-557h-187z" />
    <glyph glyph-name="uni04C0" unicode="&#x4c0;" horiz-adv-x="653" 
d="M227 0v1454h199v-1454h-199z" />
    <glyph glyph-name="uni04C1" unicode="&#x4c1;" horiz-adv-x="2195" 
d="M1094 1726q65 0 99 42.5t34 103.5v26h155v-30q0 -128 -75 -208.5t-213 -80.5t-213.5 80.5t-75.5 208.5v30h156v-26q0 -61 34 -103.5t99 -42.5zM18 0l762 729l-727 725h273l669 -672v672h199v-672l670 672h272l-725 -721l766 -733h-279l-704 678v-678h-199v678l-704 -678
h-273z" />
    <glyph glyph-name="uni04C2" unicode="&#x4c2;" horiz-adv-x="1630" 
d="M813 1319q60 0 90.5 40.5t30.5 100.5v35h153v-39q0 -126 -70.5 -204t-203.5 -78t-203.5 78t-70.5 204v39h153v-35q0 -58 31 -99.5t90 -41.5zM721 0v461l-467 -461h-244l527 518l-502 494h250l436 -441v441h180v-441l436 441h248l-498 -490l533 -522h-252l-467 461v-461
h-180z" />
    <glyph glyph-name="uni04CF" unicode="&#x4cf;" horiz-adv-x="571" 
d="M193 0v1507h186v-1507h-186z" />
    <glyph glyph-name="uni04D0" unicode="&#x4d0;" horiz-adv-x="1523" 
d="M752 1726q65 0 99 42.5t34 103.5v26h155v-30q0 -128 -75 -208.5t-213 -80.5t-213.5 80.5t-75.5 208.5v30h155v-26q0 -60 34.5 -103t99.5 -43zM1247 0l-143 350h-696l-144 -350h-196l606 1462h176l606 -1462h-209zM483 530h545l-272 664z" />
    <glyph glyph-name="uni04D1" unicode="&#x4d1;" horiz-adv-x="1230" 
d="M590 1319q60 0 90.5 40.5t30.5 100.5v35h153v-39q0 -126 -70.5 -204t-203.5 -78t-204 78.5t-71 203.5v39h154v-35q0 -58 31 -99.5t90 -41.5zM856 166q-9 -21 -22 -42.5t-39 -49.5t-57 -49t-79.5 -35.5t-103.5 -14.5q-186 0 -307 143t-121 386t121 386.5t307 143.5
q56 0 104.5 -15.5t79.5 -36t57 -50t38 -48.5t22 -40v168h186v-1012h-186v166zM860 504q0 157 -72 257.5t-198 100.5q-128 0 -199.5 -100t-71.5 -258q0 -157 71.5 -258t199.5 -101q125 0 197.5 101.5t72.5 257.5z" />
    <glyph glyph-name="uni04D6" unicode="&#x4d6;" horiz-adv-x="1433" 
d="M764 1726q65 0 99 42.5t34 103.5v26h156v-30q0 -128 -75.5 -208.5t-213.5 -80.5t-213.5 80.5t-75.5 208.5v30h156v-26q0 -61 34 -103.5t99 -42.5zM225 0v1454h1045v-184h-848v-406h500v-184h-500v-496h924v-184h-1121z" />
    <glyph glyph-name="uni04D7" unicode="&#x4d7;" horiz-adv-x="1159" 
d="M584 1319q60 0 90.5 40.5t30.5 100.5v35h153v-39q0 -126 -70.5 -204t-203.5 -78t-204 78.5t-71 203.5v39h154v-35q0 -58 31 -99.5t90 -41.5zM584 1038q206 0 332 -144.5t126 -385.5v-29h-731q8 -146 84.5 -240t206.5 -94q182 0 256 125h178q-9 -31 -23.5 -63t-48.5 -76
t-78.5 -76.5t-119 -56t-164.5 -23.5q-144 0 -254 71t-167.5 191t-57.5 269q0 234 126.5 383t334.5 149zM584 879q-111 0 -178.5 -66.5t-88.5 -185.5h529q-24 122 -90 187t-172 65z" />
    <glyph glyph-name="uni04D8" unicode="&#x4d8;" horiz-adv-x="1536" 
d="M147 707q0 15 5 98h1030q-6 103 -34.5 189.5t-79.5 154t-130 105.5t-180 38q-85 0 -154 -24t-114 -64t-73 -83t-44 -91h-201q8 56 32 114t71.5 119t111.5 108t160.5 77.5t210.5 30.5q199 0 343.5 -99.5t216 -268t71.5 -384.5q0 -215 -73 -384.5t-217 -268.5t-339 -99
q-185 0 -325 95.5t-214 261t-74 375.5zM760 160q94 0 170 35t127 98t82 146.5t41 185.5h-824q18 -208 124 -336.5t280 -128.5z" />
    <glyph glyph-name="uni04D9" unicode="&#x4d9;" horiz-adv-x="1165" 
d="M582 -25q-206 0 -332.5 145t-126.5 386v29h731q-8 146 -84.5 239.5t-206.5 93.5q-182 0 -256 -125h-178q9 31 23.5 63t48.5 76t78.5 76.5t119 56t164.5 23.5q144 0 254 -70.5t167.5 -190.5t57.5 -269q0 -235 -126 -384t-334 -149zM582 135q111 0 178 66.5t88 185.5h-529
q24 -122 90.5 -187t172.5 -65z" />
    <glyph glyph-name="uni04E2" unicode="&#x4e2;" horiz-adv-x="1673" 
d="M1163 1665h-647v160h647v-160zM225 0v1454h199v-1171l825 1171h199v-1454h-199v1176l-825 -1176h-199z" />
    <glyph glyph-name="uni04E3" unicode="&#x4e3;" horiz-adv-x="1263" 
d="M930 1272h-594v160h594v-160zM188 0v1012h187v-744l514 744h186v-1012h-186v750l-514 -750h-187z" />
    <glyph glyph-name="uni04E6" unicode="&#x4e6;" horiz-adv-x="1601" 
d="M508 1593v285h188v-285h-188zM905 1593v285h189v-285h-189zM801 -25q-197 0 -347 98t-228.5 268t-78.5 386q0 214 79.5 384t229.5 269t345 99q146 0 269 -57.5t207 -158t130.5 -238.5t46.5 -298t-46.5 -298t-130.5 -238.5t-207 -158t-269 -57.5zM801 160q140 0 243 76
t154 203t51 288q0 118 -30 220.5t-85.5 180t-141 122t-191.5 44.5q-140 0 -243.5 -76.5t-154.5 -203.5t-51 -287q0 -163 51 -290t154 -202t244 -75z" />
    <glyph glyph-name="uni04E7" unicode="&#x4e7;" horiz-adv-x="1196" 
d="M315 1206v285h189v-285h-189zM692 1206v285h189v-285h-189zM598 1036q212 0 343.5 -150.5t131.5 -379.5t-131.5 -380t-343.5 -151t-343.5 151t-131.5 380t131.5 379.5t343.5 150.5zM598 147q133 0 208 101.5t75 257.5t-75 257t-208 101t-208 -101t-75 -257t74.5 -257.5
t208.5 -101.5z" />
    <glyph glyph-name="uni04E8" unicode="&#x4e8;" horiz-adv-x="1601" 
d="M801 -25q-197 0 -347 98t-228.5 268t-78.5 386q0 214 79.5 384t229.5 269t345 99q146 0 269 -57.5t207 -158t130.5 -238.5t46.5 -298t-46.5 -298t-130.5 -238.5t-207 -158t-269 -57.5zM801 1294q-191 0 -310 -132t-137 -341h893q-12 135 -67 240.5t-153.5 169
t-225.5 63.5zM801 160q193 0 309.5 135t136.5 350h-893q18 -217 135.5 -351t311.5 -134z" />
    <glyph glyph-name="uni04E9" unicode="&#x4e9;" horiz-adv-x="1196" 
d="M598 1036q212 0 343.5 -150.5t131.5 -379.5t-131.5 -380t-343.5 -151t-343.5 151t-131.5 380t131.5 379.5t343.5 150.5zM598 864q-118 0 -191.5 -74t-87.5 -192h558q-14 118 -87.5 192t-191.5 74zM598 147q122 0 195 79t86 204h-562q13 -126 85.5 -204.5t195.5 -78.5z
" />
    <glyph glyph-name="uni04EE" unicode="&#x4ee;" horiz-adv-x="1427" 
d="M1077 1665h-647v160h647v-160zM547 0h-221l313 535l-598 919h238l471 -729l426 729h221z" />
    <glyph glyph-name="uni04EF" unicode="&#x4ef;" horiz-adv-x="1095" 
d="M850 1272h-594v160h594v-160zM279 -438l180 454l-408 996h205l299 -752l299 752h190l-579 -1450h-186z" />
    <glyph glyph-name="uni04F2" unicode="&#x4f2;" horiz-adv-x="1427" 
d="M819 1593l160 308h188l-174 -308h-174zM463 1593l160 308h188l-174 -308h-174zM547 0h-221l313 535l-598 919h238l471 -729l426 729h221z" />
    <glyph glyph-name="uni04F3" unicode="&#x4f3;" horiz-adv-x="1095" 
d="M647 1186l152 375h180l-166 -375h-166zM301 1186l152 375h180l-166 -375h-166zM279 -438l180 454l-408 996h205l299 -752l299 752h190l-579 -1450h-186z" />
    <glyph glyph-name="Wgrave" unicode="&#x1e80;" horiz-adv-x="2129" 
d="M1178 1593h-209l-224 308h226zM1165 1462l357 -1147l333 1139h187l-432 -1462h-176l-363 1143l-362 -1143h-166l-455 1462h209l340 -1126l350 1134h178z" />
    <glyph glyph-name="wgrave" unicode="&#x1e81;" horiz-adv-x="1656" 
d="M928 1186h-191l-215 375h205zM1092 -8l-261 768l-260 -768h-165l-349 1020h201l244 -748l252 756h172l250 -746l239 738h184l-344 -1020h-163z" />
    <glyph glyph-name="Wacute" unicode="&#x1e82;" horiz-adv-x="2129" 
d="M971 1593l209 308h225l-225 -308h-209zM1165 1462l357 -1147l333 1139h187l-432 -1462h-176l-363 1143l-362 -1143h-166l-455 1462h209l340 -1126l350 1134h178z" />
    <glyph glyph-name="wacute" unicode="&#x1e83;" horiz-adv-x="1656" 
d="M739 1186l201 375h205l-215 -375h-191zM1092 -8l-261 768l-260 -768h-165l-349 1020h201l244 -748l252 756h172l250 -746l239 738h184l-344 -1020h-163z" />
    <glyph glyph-name="Wdieresis" unicode="&#x1e84;" horiz-adv-x="2129" 
d="M780 1593v285h189v-285h-189zM1178 1593v285h188v-285h-188zM1165 1462l357 -1147l333 1139h187l-432 -1462h-176l-363 1143l-362 -1143h-166l-455 1462h209l340 -1126l350 1134h178z" />
    <glyph glyph-name="wdieresis" unicode="&#x1e85;" horiz-adv-x="1656" 
d="M551 1206v285h188v-285h-188zM928 1206v285h188v-285h-188zM1092 -8l-261 768l-260 -768h-165l-349 1020h201l244 -748l252 756h172l250 -746l239 738h184l-344 -1020h-163z" />
    <glyph glyph-name="Ygrave" unicode="&#x1ef2;" horiz-adv-x="1402" 
d="M836 1593h-209l-224 308h226zM608 584l-577 870h245l437 -670l436 670h223l-565 -868v-586h-199v584z" />
    <glyph glyph-name="ygrave" unicode="&#x1ef3;" horiz-adv-x="1095" 
d="M664 1186h-191l-215 375h205zM279 -438l180 454l-408 996h205l299 -752l299 752h190l-579 -1450h-186z" />
    <glyph glyph-name="uni2009" unicode="&#x2009;" horiz-adv-x="339" 
 />
    <glyph glyph-name="hairspace" unicode="&#x200a;" horiz-adv-x="169" 
 />
    <glyph glyph-name="endash" unicode="&#x2013;" horiz-adv-x="1441" 
d="M172 526v156h1098v-156h-1098z" />
    <glyph glyph-name="emdash" unicode="&#x2014;" horiz-adv-x="2048" 
d="M172 526v156h1704v-156h-1704z" />
    <glyph glyph-name="quoteleft" unicode="&#x2018;" horiz-adv-x="598" 
d="M285 1507h145q-125 -233 -125 -413h113v-267h-238v246q0 232 105 434z" />
    <glyph glyph-name="quoteright" unicode="&#x2019;" horiz-adv-x="598" 
d="M313 827h-145q125 233 125 414h-113v266h238v-245q0 -233 -105 -435z" />
    <glyph glyph-name="quotesinglbase" unicode="&#x201a;" horiz-adv-x="598" 
d="M313 -414h-145q125 233 125 414h-113v266h238v-246q0 -232 -105 -434z" />
    <glyph glyph-name="quotedblleft" unicode="&#x201c;" horiz-adv-x="1013" 
d="M285 1507h145q-125 -233 -125 -413h113v-267h-238v246q0 232 105 434zM700 1507h146q-125 -233 -125 -413h113v-267h-238v246q0 234 104 434z" />
    <glyph glyph-name="quotedblright" unicode="&#x201d;" horiz-adv-x="1013" 
d="M729 827h-145q125 233 125 414h-113v266h238v-245q0 -233 -105 -435zM313 827h-145q125 233 125 414h-113v266h238v-245q0 -233 -105 -435z" />
    <glyph glyph-name="quotedblbase" unicode="&#x201e;" horiz-adv-x="1013" 
d="M729 -414h-145q125 233 125 414h-113v266h238v-246q0 -232 -105 -434zM313 -414h-145q125 233 125 414h-113v266h238v-246q0 -232 -105 -434z" />
    <glyph glyph-name="dagger" unicode="&#x2020;" horiz-adv-x="1069" 
d="M444 0v903h-331v166h331v385h181v-385h331v-166h-331v-903h-181z" />
    <glyph glyph-name="daggerdbl" unicode="&#x2021;" horiz-adv-x="1069" 
d="M113 385v166h331v352h-331v166h331v385h181v-385h331v-166h-331v-352h331v-166h-331v-385h-181v385h-331z" />
    <glyph glyph-name="bullet" unicode="&#x2022;" horiz-adv-x="1220" 
d="M610 1044q166 0 282 -116t116 -281q0 -166 -116 -281.5t-282 -115.5t-281.5 115.5t-115.5 281.5q0 165 116 281t281 116z" />
    <glyph glyph-name="ellipsis" unicode="&#x2026;" horiz-adv-x="1630" 
d="M180 0v293h238v-293h-238zM696 0v293h238v-293h-238zM1212 0v293h238v-293h-238z" />
    <glyph glyph-name="perthousand" unicode="&#x2030;" horiz-adv-x="2969" 
d="M516 729q-158 0 -265.5 107.5t-107.5 267.5t107.5 267.5t265.5 107.5t265.5 -107.5t107.5 -267.5t-107.5 -267.5t-265.5 -107.5zM426 0l1028 1454h195l-1031 -1454h-192zM516 881q93 0 152 63.5t59 159.5t-59 159.5t-152 63.5t-152 -63.5t-59 -159.5t59 -159.5t152 -63.5
zM1561 -29q-158 0 -265.5 107.5t-107.5 267.5t107.5 267.5t265.5 107.5t265 -107.5t107 -267.5t-107 -267.5t-265 -107.5zM2451 -29q-158 0 -265 107.5t-107 267.5t107 267.5t265 107.5t265.5 -107.5t107.5 -267.5t-107.5 -267.5t-265.5 -107.5zM1561 123q93 0 152 63.5
t59 159.5t-59 159.5t-152 63.5t-152 -63.5t-59 -159.5t59 -159.5t152 -63.5zM2451 123q93 0 152 63.5t59 159.5t-59 159.5t-152 63.5t-151.5 -63.5t-58.5 -159.5t58.5 -159.5t151.5 -63.5z" />
    <glyph glyph-name="uni2032" unicode="&#x2032;" horiz-adv-x="585" 
d="M274 829h-172l207 625h174z" />
    <glyph glyph-name="uni2033" unicode="&#x2033;" horiz-adv-x="960" 
d="M270 829h-168l207 625h170zM643 829h-168l213 625h170z" />
    <glyph glyph-name="guilsinglleft" unicode="&#x2039;" horiz-adv-x="698" 
d="M367 928h188l-236 -363l236 -366h-190l-232 364z" />
    <glyph glyph-name="guilsinglright" unicode="&#x203a;" horiz-adv-x="698" 
d="M332 199h-189l236 362l-236 367h191l231 -365z" />
    <glyph glyph-name="fraction" unicode="&#x2044;" horiz-adv-x="1075" 
d="M0 0l887 1454h188l-887 -1454h-188z" />
    <glyph glyph-name="zero.sup" unicode="&#x2070;" horiz-adv-x="1064" 
d="M532 1526q170 0 269.5 -100.5t99.5 -274.5v-299q0 -179 -99.5 -277t-269.5 -98t-269 98t-99 277v299q0 174 99.5 274.5t268.5 100.5zM532 637q94 0 144.5 60t50.5 159v291q0 99 -50.5 159t-144.5 60t-143 -60t-49 -159v-291q0 -99 49 -159t143 -60z" />
    <glyph glyph-name="four.sup" unicode="&#x2074;" horiz-adv-x="1071" 
d="M981 784h-207v-288h-172v288h-504v123l465 600h211v-573h207v-150zM289 934h313v407z" />
    <glyph glyph-name="five.sup" unicode="&#x2075;" horiz-adv-x="1015" 
d="M338 936h-152v571h654v-151h-486v-256q74 74 201 74q137 0 230.5 -90.5t93.5 -245.5v-13q0 -153 -101.5 -249.5t-269.5 -96.5q-90 0 -161.5 26t-115 70.5t-67 98.5t-25.5 114h174q8 -56 55.5 -103.5t139.5 -47.5q87 0 140.5 52t53.5 136v11q0 86 -53 137t-141 51
q-116 0 -170 -88z" />
    <glyph glyph-name="six.sup" unicode="&#x2076;" horiz-adv-x="1017" 
d="M887 831q0 -154 -102 -253t-277 -99q-174 0 -275.5 97.5t-101.5 254.5q0 106 40.5 189t125.5 192l227 295h201l-293 -372q60 34 137 34q141 0 229.5 -93t88.5 -245zM711 831q0 89 -53.5 144t-149.5 55q-90 0 -145.5 -56t-55.5 -143q0 -84 55 -140t146 -56q95 0 149 55.5
t54 140.5z" />
    <glyph glyph-name="seven.sup" unicode="&#x2077;" horiz-adv-x="962" 
d="M373 496h-195l469 854h-526v157h733v-123z" />
    <glyph glyph-name="eight.sup" unicode="&#x2078;" horiz-adv-x="1034" 
d="M537 1524q161 0 249 -76.5t88 -202.5q0 -94 -47.5 -151t-111.5 -78q31 -9 60 -27.5t57 -47.5t44.5 -73.5t16.5 -97.5q0 -132 -96 -211.5t-262 -79.5h-41q-163 0 -258 79.5t-95 211.5q0 53 16.5 97.5t44.5 73.5t57 47.5t60 27.5q-64 21 -111.5 78t-47.5 151
q0 126 89 202.5t249 76.5h39zM336 1233q0 -68 45 -107t119 -39h35q74 0 118.5 39t44.5 107q0 67 -44.5 106t-118.5 39h-35q-74 0 -119 -39t-45 -106zM319 782q0 -72 50 -114.5t129 -42.5h39q79 0 128.5 42.5t49.5 114.5q0 74 -49.5 117t-128.5 43h-39q-79 0 -129 -43.5
t-50 -116.5z" />
    <glyph glyph-name="nine.sup" unicode="&#x2079;" horiz-adv-x="1017" 
d="M129 1171q0 154 103 253.5t276 99.5q175 0 276 -98t101 -255q0 -107 -40.5 -190t-125.5 -190l-225 -295h-203l293 370q-59 -32 -135 -32q-142 0 -231 92t-89 245zM305 1171q0 -89 53.5 -143.5t149.5 -54.5q91 0 146 55.5t55 142.5q0 85 -54 141t-147 56q-95 0 -149 -56
t-54 -141z" />
    <glyph glyph-name="zero.sub" unicode="&#x2080;" horiz-adv-x="1064" 
d="M532 776q170 0 269.5 -100.5t99.5 -274.5v-299q0 -179 -99.5 -276.5t-269.5 -97.5t-269 97.5t-99 276.5v299q0 174 99.5 274.5t268.5 100.5zM532 -113q94 0 144.5 60t50.5 159v291q0 99 -50.5 159t-144.5 60t-143 -60t-49 -159v-291q0 -99 49 -159t143 -60z" />
    <glyph glyph-name="one.sub" unicode="&#x2081;" horiz-adv-x="727" 
d="M526 -254h-176v815l-250 -143v166l295 178h131v-1016z" />
    <glyph glyph-name="two.sub" unicode="&#x2082;" horiz-adv-x="974" 
d="M887 -96v-158h-752v113l354 340q83 79 118.5 135t35.5 125q0 72 -45 114.5t-125 42.5q-79 0 -124.5 -49t-45.5 -129v-57h-170v59q0 149 91.5 241.5t250.5 92.5q161 0 253.5 -86t92.5 -225q0 -76 -30 -144t-72 -116t-119 -119l-192 -180h479z" />
    <glyph glyph-name="three.sub" unicode="&#x2083;" horiz-adv-x="997" 
d="M494 -115q88 0 139 41t51 113q0 73 -45 111t-129 38h-180v156h176q71 0 110 35.5t39 99.5q0 65 -46.5 103.5t-121.5 38.5q-76 0 -118 -38.5t-52 -95.5h-174q2 53 24 102.5t63 91.5t107.5 67.5t149.5 25.5q161 0 252.5 -76.5t91.5 -205.5q0 -82 -41.5 -134.5t-95.5 -76.5
q67 -21 117.5 -84t50.5 -170q0 -134 -98.5 -215.5t-269.5 -81.5q-92 0 -164.5 26.5t-115.5 70t-66.5 94t-28.5 104.5h178q10 -55 60.5 -97.5t136.5 -42.5z" />
    <glyph glyph-name="four.sub" unicode="&#x2084;" horiz-adv-x="1071" 
d="M981 35h-207v-289h-172v289h-504v123l465 600h211v-574h207v-149zM289 184h313v408z" />
    <glyph glyph-name="five.sub" unicode="&#x2085;" horiz-adv-x="1015" 
d="M338 186h-152v572h654v-152h-486v-256q74 74 201 74q137 0 230.5 -90.5t93.5 -245.5v-12q0 -153 -101.5 -249.5t-269.5 -96.5q-90 0 -161.5 26t-115 70.5t-67 98.5t-25.5 114h174q3 -25 15 -49.5t33.5 -48.5t59.5 -39t87 -15q87 0 140.5 52.5t53.5 136.5v10q0 86 -53 137
t-141 51q-116 0 -170 -88z" />
    <glyph glyph-name="six.sub" unicode="&#x2086;" horiz-adv-x="1017" 
d="M887 82q0 -154 -102 -253t-277 -99q-174 0 -275.5 97.5t-101.5 254.5q0 106 40.5 189t125.5 192l227 295h201l-293 -373q61 35 137 35q141 0 229.5 -93t88.5 -245zM711 82q0 89 -53.5 144t-149.5 55q-90 0 -145.5 -56t-55.5 -143q0 -84 55 -140.5t146 -56.5q95 0 149 56
t54 141z" />
    <glyph glyph-name="seven.sub" unicode="&#x2087;" horiz-adv-x="962" 
d="M373 -254h-195l469 854h-526v158h733v-123z" />
    <glyph glyph-name="eight.sub" unicode="&#x2088;" horiz-adv-x="1034" 
d="M537 774q161 0 249 -76t88 -202q0 -95 -47.5 -152t-111.5 -78q31 -9 60 -27.5t57 -47.5t44.5 -73.5t16.5 -97.5q0 -132 -96 -211t-262 -79h-41q-163 0 -258 79t-95 211q0 53 16.5 97.5t44.5 73.5t57 47.5t60 27.5q-64 21 -111.5 78t-47.5 152q0 126 89 202t249 76h39z
M336 483q0 -68 44.5 -106.5t119.5 -38.5h35q74 0 118.5 38.5t44.5 106.5q0 67 -44.5 106.5t-118.5 39.5h-35q-74 0 -119 -39.5t-45 -106.5zM319 33q0 -72 50 -115t129 -43h39q79 0 128.5 43t49.5 115q0 74 -49.5 117t-128.5 43h-39q-79 0 -129 -43.5t-50 -116.5z" />
    <glyph glyph-name="nine.sub" unicode="&#x2089;" horiz-adv-x="1017" 
d="M129 422q0 154 102.5 253t276.5 99q175 0 276 -97.5t101 -254.5q0 -107 -40.5 -190.5t-125.5 -190.5l-225 -295h-203l293 371q-60 -33 -135 -33q-142 0 -231 92.5t-89 245.5zM305 422q0 -89 53.5 -144t149.5 -55q91 0 146 56t55 143q0 84 -54 140t-147 56
q-95 0 -149 -55.5t-54 -140.5z" />
    <glyph glyph-name="uni20A9" unicode="&#x20a9;" horiz-adv-x="2080" 
d="M102 651v160h244l-174 643h197l166 -643h251l170 651h187l170 -651h256l162 643h178l-164 -643h233v-160h-274l-168 -659h-182l-176 659h-263l-176 -659h-172l-178 659h-287zM958 811h177l-88 330zM575 651l84 -325l86 325h-170zM1356 651l88 -338l86 338h-174z" />
    <glyph glyph-name="Euro" unicode="&#x20ac;" horiz-adv-x="1458" 
d="M98 481v160h242v186h-242v160h242q0 233 129.5 362.5t349.5 129.5q222 0 351 -125t135 -346h-199q-5 128 -77 210t-210 82q-136 0 -211.5 -87.5t-75.5 -225.5h373v-160h-373v-186h373v-160h-373v-12q0 -146 77 -229.5t214 -83.5q136 0 208.5 81.5t74.5 221.5h199
q-4 -233 -134.5 -357.5t-351.5 -124.5q-219 0 -349 127t-130 365v12h-242z" />
    <glyph glyph-name="uni20B4" unicode="&#x20b4;" horiz-adv-x="1239" 
d="M102 803v160h740q32 53 32 120q0 97 -67 153t-178 56q-114 0 -180 -60t-66 -159v-6h-188v6q0 184 114.5 287.5t319.5 103.5q190 0 314 -104.5t124 -276.5q0 -59 -23 -120h93v-160h-1035zM170 381q0 65 18 117h-86v159h1035v-159h-742q-30 -46 -30 -117q0 -101 70 -162
t196 -61q120 0 193 63t73 176v9h193v-13q0 -181 -122 -294t-337 -113q-214 0 -337.5 110t-123.5 285z" />
    <glyph glyph-name="uni20B8" unicode="&#x20b8;" horiz-adv-x="1316" 
d="M82 1294v160h1153v-160h-1153zM559 0v924h-477v184h1153v-184h-477v-924h-199z" />
    <glyph glyph-name="uni20BD" unicode="&#x20bd;" horiz-adv-x="1529" 
d="M61 285v159h295v187h-295v160h295v663h568q235 0 359 -106.5t124 -300.5q0 -191 -125 -303.5t-358 -112.5h-369v-187h541v-159h-541v-285h-199v285h-295zM930 1270h-375v-475h375q133 0 202.5 67t69.5 180q0 109 -69 168.5t-203 59.5z" />
    <glyph glyph-name="uni2116" unicode="&#x2116;" horiz-adv-x="2377" 
d="M1929 647q-152 0 -252 114t-100 302t100 302t252 114t252 -114t100 -302t-100 -302t-252 -114zM1440 1454v-1464h-150l-874 1210v-1200h-191v1454h238l786 -1102v1102h191zM1929 799q87 0 139 69.5t52 194.5t-52 194.5t-139 69.5q-86 0 -138 -69.5t-52 -194.5t52 -194.5
t138 -69.5zM1618 367v176h623v-176h-623z" />
    <glyph glyph-name="trademark" unicode="&#x2122;" horiz-adv-x="2082" 
d="M358 643v664h-297v147h760v-147h-297v-664h-166zM979 643v811h250l223 -571l225 571h242v-811h-158v655l-262 -659h-106l-263 664v-660h-151z" />
    <glyph glyph-name="onethird" unicode="&#x2153;" horiz-adv-x="1921" 
d="M477 582h-174v680l-215 -121v162l258 155h131v-876zM332 0l887 1454h188l-887 -1454h-188zM1477 139q71 0 112 32t41 87t-35 85t-98 30h-162v151h156q54 0 83.5 27t29.5 76q0 52 -36.5 81t-97.5 29q-62 0 -95 -30t-40 -72h-172q3 100 83 176t224 76q145 0 226.5 -66
t81.5 -180q0 -68 -34.5 -113.5t-80.5 -66.5q57 -18 100 -71.5t43 -143.5q0 -117 -88 -188.5t-241 -71.5q-81 0 -145.5 24t-102.5 63t-59 83.5t-25 91.5h174q9 -43 48.5 -76t109.5 -33z" />
    <glyph glyph-name="twothirds" unicode="&#x2154;" horiz-adv-x="2162" 
d="M778 735v-153h-659v112l309 293q65 64 93 106.5t28 94.5q0 56 -35.5 90.5t-97.5 34.5t-98.5 -39t-36.5 -103v-47h-166v50q0 130 80.5 212t220.5 82q144 0 225.5 -75t81.5 -199q0 -65 -25.5 -122t-61.5 -98.5t-101 -99.5l-152 -139h395zM573 0l887 1454h189l-887 -1454
h-189zM1718 139q71 0 112.5 32t41.5 87t-35 85t-98 30h-162v151h156q54 0 83 26.5t29 76.5q0 52 -36 81t-97 29q-62 0 -95 -30t-40 -72h-172q3 100 83 176t224 76q145 0 226 -66t81 -180q0 -68 -34 -113.5t-80 -66.5q57 -18 100 -71.5t43 -143.5q0 -117 -88.5 -188.5
t-241.5 -71.5q-81 0 -145.5 24t-102.5 63t-59 83.5t-25 91.5h175q9 -43 48 -76t109 -33z" />
    <glyph glyph-name="oneeighth" unicode="&#x215b;" horiz-adv-x="1964" 
d="M477 582h-174v680l-215 -121v162l258 155h131v-876zM332 0l887 1454h188l-887 -1454h-188zM1528 887q143 0 222 -66t79 -176q0 -81 -40 -129t-93 -67q57 -18 102 -72.5t45 -140.5q0 -114 -84 -182t-231 -68h-37q-145 0 -228 68t-83 182q0 86 45 140.5t102 72.5
q-53 19 -93 67t-40 129q0 110 78.5 176t220.5 66h35zM1366 631q0 -53 37 -85t96 -32h25q59 0 95 31.5t36 85.5q0 55 -36 86t-95 31h-25q-60 0 -96.5 -31t-36.5 -86zM1356 252q0 -59 39 -93t102 -34h29q64 0 102.5 34t38.5 93q0 58 -38.5 91.5t-102.5 33.5h-29
q-63 0 -102 -33.5t-39 -91.5z" />
    <glyph glyph-name="threeeighths" unicode="&#x215c;" horiz-adv-x="2162" 
d="M432 721q71 0 112.5 32t41.5 87t-35 84.5t-98 29.5h-162v152h155q54 0 83.5 26.5t29.5 75.5q0 52 -36 81.5t-97 29.5q-62 0 -95 -30t-40 -72h-172q2 46 21.5 89.5t55.5 80.5t96 59t134 22q145 0 226 -65.5t81 -179.5q0 -68 -34.5 -114t-80.5 -67q58 -18 101 -71.5
t43 -143.5q0 -117 -88.5 -188.5t-241.5 -71.5q-81 0 -145.5 24t-102.5 63t-59 83.5t-25 91.5h174q9 -43 48.5 -75.5t109.5 -32.5zM530 0l887 1454h189l-887 -1454h-189zM1726 887q143 0 222.5 -66t79.5 -176q0 -80 -40.5 -128.5t-93.5 -67.5q57 -18 102.5 -72.5t45.5 -140.5
q0 -114 -84 -182t-232 -68h-36q-145 0 -228.5 68t-83.5 182q0 86 45.5 140.5t102.5 72.5q-53 19 -93 67t-40 129q0 110 78.5 176t220.5 66h34zM1565 631q0 -53 37 -85t96 -32h24q59 0 95 31.5t36 85.5q0 55 -36 86t-95 31h-24q-60 0 -96.5 -31t-36.5 -86zM1554 252
q0 -59 39.5 -93t102.5 -34h28q64 0 103 34t39 93q0 58 -39 91.5t-103 33.5h-28q-63 0 -102.5 -34t-39.5 -91z" />
    <glyph glyph-name="fiveeighths" unicode="&#x215d;" horiz-adv-x="2164" 
d="M309 958h-151v496h581v-145h-417v-199q60 64 170 64q121 0 200.5 -79.5t79.5 -213.5v-9q0 -134 -89 -219.5t-239 -85.5q-81 0 -145 24t-102 64t-58 87t-22 98h172q8 -45 45 -82t110 -37q69 0 111.5 42.5t42.5 108.5v7q0 67 -42.5 108t-111.5 41q-96 0 -135 -70zM532 0
l887 1454h189l-887 -1454h-189zM1729 887q143 0 222 -66t79 -176q0 -80 -40.5 -128.5t-93.5 -67.5q57 -18 102.5 -72.5t45.5 -140.5q0 -114 -84 -182t-231 -68h-37q-145 0 -228.5 68t-83.5 182q0 86 45.5 140.5t102.5 72.5q-53 19 -93 67t-40 129q0 110 78.5 176t220.5 66
h35zM1567 631q0 -53 37 -85t96 -32h24q59 0 95 31.5t36 85.5q0 55 -36 86t-95 31h-24q-60 0 -96.5 -31t-36.5 -86zM1556 252q0 -59 39.5 -93t102.5 -34h28q64 0 103 34t39 93q0 58 -39 91.5t-103 33.5h-28q-63 0 -102.5 -34t-39.5 -91z" />
    <glyph glyph-name="seveneighths" unicode="&#x215e;" horiz-adv-x="1994" 
d="M344 582h-192l391 718h-441v154h646v-117zM362 0l887 1454h189l-887 -1454h-189zM1559 887q143 0 222 -66t79 -176q0 -80 -40.5 -128.5t-93.5 -67.5q57 -18 102.5 -72.5t45.5 -140.5q0 -114 -84 -182t-231 -68h-37q-145 0 -228.5 68t-83.5 182q0 86 45.5 140.5
t102.5 72.5q-53 19 -93 67t-40 129q0 110 78.5 176t220.5 66h35zM1397 631q0 -53 37 -85t96 -32h24q59 0 95.5 32t36.5 85q0 55 -36 86t-96 31h-24q-60 0 -96.5 -31t-36.5 -86zM1386 252q0 -59 39.5 -93t102.5 -34h28q64 0 103 34t39 93q0 58 -39 91.5t-103 33.5h-28
q-63 0 -102.5 -34t-39.5 -91z" />
    <glyph glyph-name="minus" unicode="&#x2212;" horiz-adv-x="1425" 
d="M1253 563h-1081v164h1081v-164z" />
    <glyph glyph-name="uni24C5" unicode="&#x24c5;" horiz-adv-x="1810" 
d="M905 -25q-160 0 -300 57.5t-238.5 157.5t-155.5 239.5t-57 297.5q0 209 97.5 381.5t270 271.5t383.5 99q158 0 297.5 -58.5t239 -158.5t157.5 -239t58 -296t-58 -296t-157.5 -239t-239 -158.5t-297.5 -58.5zM905 115q176 0 314 82t212 221t74 309q0 168 -74 307t-212 222
t-314 83t-314 -82.5t-212 -221.5t-74 -308q0 -170 74.5 -309.5t212.5 -221t313 -81.5zM586 348v766h413q150 0 224.5 -64t74.5 -186q0 -120 -75 -186t-224 -66h-233v-264h-180zM1001 958h-235v-188h235q57 0 87 25t30 69q0 94 -117 94z" />
    <glyph glyph-name="zero.den" unicode="&#xe402;" horiz-adv-x="931" 
d="M467 889q151 0 238.5 -87.5t87.5 -240.5v-250q0 -155 -87.5 -241t-238.5 -86t-239.5 86t-88.5 241v250q0 153 88.5 240.5t239.5 87.5zM467 141q74 0 114 47t40 125v246q0 78 -40 125t-114 47t-114 -47t-40 -125v-246q0 -78 40 -125t114 -47z" />
    <glyph glyph-name="one.den" unicode="&#xe403;" horiz-adv-x="647" 
d="M477 0h-174v680l-215 -121v162l258 156h131v-877z" />
    <glyph glyph-name="two.den" unicode="&#xe404;" horiz-adv-x="858" 
d="M778 154v-154h-659v113l309 293q66 64 93.5 106t27.5 94q0 56 -35.5 90.5t-97.5 34.5t-98.5 -38.5t-36.5 -102.5v-47h-166v49q0 130 80.5 212.5t220.5 82.5q144 0 225.5 -75.5t81.5 -199.5q0 -93 -45 -162t-143 -157l-152 -139h395z" />
    <glyph glyph-name="three.den" unicode="&#xe405;" horiz-adv-x="876" 
d="M432 139q71 0 112.5 32t41.5 87t-35 85t-98 30h-162v151h155q54 0 83.5 27t29.5 76q0 52 -36 81t-97 29q-62 0 -95 -30t-40 -72h-172q3 100 83 176t224 76q145 0 226 -66t81 -180q0 -68 -34.5 -113.5t-80.5 -66.5q58 -18 101 -71.5t43 -143.5q0 -117 -88.5 -188.5
t-241.5 -71.5q-81 0 -145.5 24t-102.5 63t-59 83.5t-25 91.5h174q9 -43 48.5 -76t109.5 -33z" />
    <glyph glyph-name="four.den" unicode="&#xe406;" horiz-adv-x="942" 
d="M862 229h-172v-229h-166v229h-438v123l395 520h209v-499h172v-144zM264 373h260v348z" />
    <glyph glyph-name="five.den" unicode="&#xe407;" horiz-adv-x="890" 
d="M309 377h-151v495h581v-145h-417v-199q60 64 170 64q121 0 200.5 -79.5t79.5 -213.5v-8q0 -134 -89 -219.5t-239 -85.5q-81 0 -145 24t-102 63.5t-58 86.5t-22 98h172q8 -45 45 -82t110 -37q68 0 111 42.5t43 109.5v6q0 67 -42.5 108t-111.5 41q-97 0 -135 -69z" />
    <glyph glyph-name="six.den" unicode="&#xe408;" horiz-adv-x="890" 
d="M780 295q0 -135 -91 -222t-243 -87q-154 0 -243.5 85.5t-89.5 223.5q0 93 34.5 164.5t108.5 167.5l190 245h195l-250 -319q46 31 117 31q122 0 197 -79.5t75 -209.5zM606 295q0 69 -42.5 113.5t-117.5 44.5q-71 0 -115 -45t-44 -113q0 -67 43 -111.5t116 -44.5
q74 0 117 44.5t43 111.5z" />
    <glyph glyph-name="seven.den" unicode="&#xe409;" horiz-adv-x="841" 
d="M344 0h-192l391 719h-441v153h646v-116z" />
    <glyph glyph-name="eight.den" unicode="&#xe40a;" horiz-adv-x="905" 
d="M469 887q143 0 222 -66t79 -176q0 -81 -40 -129t-93 -67q57 -18 102 -72.5t45 -140.5q0 -114 -84 -182t-231 -68h-37q-145 0 -228 68t-83 182q0 86 45 140.5t102 72.5q-53 19 -93 67t-40 129q0 110 78.5 176t220.5 66h35zM307 631q0 -53 37 -85t96 -32h25q59 0 95 31.5
t36 85.5q0 55 -36 86t-95 31h-25q-60 0 -96.5 -31t-36.5 -86zM297 252q0 -59 39 -93t102 -34h29q64 0 102.5 34t38.5 93q0 58 -38.5 91.5t-102.5 33.5h-29q-63 0 -102 -33.5t-39 -91.5z" />
    <glyph glyph-name="nine.den" unicode="&#xe40b;" horiz-adv-x="890" 
d="M111 578q0 135 90.5 222t242.5 87q154 0 244 -86t90 -223q0 -93 -34.5 -165.5t-108.5 -166.5l-191 -246h-194l254 322q-50 -33 -121 -33q-122 0 -197 79.5t-75 209.5zM285 578q0 -70 42.5 -114t118.5 -44q71 0 115.5 45t44.5 113q0 67 -44 111t-116 44
q-76 0 -118.5 -43.5t-42.5 -111.5z" />
    <glyph glyph-name="zero.num" unicode="&#xe416;" horiz-adv-x="931" 
d="M467 1470q151 0 238.5 -87t87.5 -240v-250q0 -155 -87.5 -241.5t-238.5 -86.5t-239.5 86.5t-88.5 241.5v250q0 153 88 240t240 87zM467 723q74 0 114 47t40 125v246q0 78 -40 125t-114 47t-114 -47t-40 -125v-246q0 -78 40 -125t114 -47z" />
    <glyph glyph-name="one.num" unicode="&#xe417;" horiz-adv-x="647" 
d="M477 582h-174v680l-215 -121v162l258 155h131v-876z" />
    <glyph glyph-name="two.num" unicode="&#xe418;" horiz-adv-x="858" 
d="M778 735v-153h-659v112l309 293q65 64 93 106.5t28 94.5q0 56 -35.5 90.5t-97.5 34.5t-98.5 -39t-36.5 -103v-47h-166v50q0 130 80.5 212t220.5 82q144 0 225.5 -75t81.5 -199q0 -65 -25.5 -122t-61.5 -98.5t-101 -99.5l-152 -139h395z" />
    <glyph glyph-name="three.num" unicode="&#xe419;" horiz-adv-x="876" 
d="M432 721q71 0 112.5 32t41.5 87t-35 84.5t-98 29.5h-162v152h155q54 0 83.5 26.5t29.5 75.5q0 52 -36 81.5t-97 29.5q-62 0 -95 -30t-40 -72h-172q2 46 21.5 89.5t55.5 80.5t96 59t134 22q145 0 226 -65.5t81 -179.5q0 -68 -34.5 -114t-80.5 -67q58 -18 101 -71.5
t43 -143.5q0 -117 -88.5 -188.5t-241.5 -71.5q-81 0 -145.5 24t-102.5 63t-59 83.5t-25 91.5h174q9 -43 48.5 -75.5t109.5 -32.5z" />
    <glyph glyph-name="four.num" unicode="&#xe41a;" horiz-adv-x="942" 
d="M862 811h-172v-229h-166v229h-438v123l395 520h209v-500h172v-143zM264 954h260v349z" />
    <glyph glyph-name="five.num" unicode="&#xe41b;" horiz-adv-x="890" 
d="M309 958h-151v496h581v-145h-417v-199q60 64 170 64q121 0 200.5 -79.5t79.5 -213.5v-9q0 -134 -89 -219.5t-239 -85.5q-81 0 -145 24t-102 64t-58 87t-22 98h172q8 -45 45 -82t110 -37q69 0 111.5 42.5t42.5 108.5v7q0 67 -42.5 108t-111.5 41q-96 0 -135 -70z" />
    <glyph glyph-name="six.num" unicode="&#xe41c;" horiz-adv-x="890" 
d="M780 877q0 -135 -91 -222.5t-243 -87.5q-154 0 -243.5 86t-89.5 224q0 64 20 123.5t47 101.5t76 106l190 246h195l-250 -319q45 30 117 30q122 0 197 -79t75 -209zM606 877q0 69 -42.5 113t-117.5 44q-71 0 -115 -44.5t-44 -112.5q0 -67 43 -111.5t116 -44.5
q74 0 117 44.5t43 111.5z" />
    <glyph glyph-name="seven.num" unicode="&#xe41d;" horiz-adv-x="841" 
d="M344 582h-192l391 718h-441v154h646v-117z" />
    <glyph glyph-name="eight.num" unicode="&#xe41e;" horiz-adv-x="905" 
d="M469 1468q143 0 222 -65.5t79 -175.5q0 -81 -40 -129.5t-93 -67.5q57 -18 102 -72.5t45 -140.5q0 -114 -84 -182t-231 -68h-37q-145 0 -228 68t-83 182q0 86 45 140.5t102 72.5q-53 19 -93 67.5t-40 129.5q0 110 78.5 175.5t220.5 65.5h35zM307 1212q0 -53 37 -84.5
t96 -31.5h25q59 0 95 31.5t36 84.5q0 55 -36 86t-95 31h-25q-60 0 -96.5 -31t-36.5 -86zM297 834q0 -59 39 -93t102 -34h29q64 0 102.5 34t38.5 93q0 58 -38.5 91t-102.5 33h-29q-63 0 -102 -33.5t-39 -90.5z" />
    <glyph glyph-name="nine.num" unicode="&#xe41f;" horiz-adv-x="890" 
d="M111 1159q0 135 90.5 222t242.5 87q154 0 244 -86t90 -223q0 -93 -34.5 -165.5t-108.5 -166.5l-191 -245h-194l254 321q-50 -33 -121 -33q-122 0 -197 79.5t-75 209.5zM285 1159q0 -70 42.5 -114t118.5 -44q71 0 115.5 45t44.5 113q0 67 -44 111.5t-116 44.5
q-76 0 -118.5 -44t-42.5 -112z" />
    <glyph glyph-name="cyrbreve" unicode="&#xf6d4;" horiz-adv-x="1228" 
d="M614 1319q60 0 90.5 40.5t30.5 100.5v35h154v-39q0 -125 -71 -203.5t-204 -78.5t-203.5 78t-70.5 204v39h154v-35q0 -58 30.5 -99.5t89.5 -41.5z" />
    <glyph glyph-name="f_i" unicode="&#xfb01;" horiz-adv-x="1492" 
d="M63 844v168h265v159q0 336 358 336h242v-168h-221q-193 0 -193 -194v-133h348v-168h-348v-844h-186v844h-265zM1112 1206v293h195v-293h-195zM1116 0v1012h187v-1012h-187z" />
    <glyph glyph-name="f_l" unicode="&#xfb02;" horiz-adv-x="1497" 
d="M63 844v168h265v159q0 336 358 336h242v-168h-221q-193 0 -193 -194v-133h348v-168h-348v-844h-186v844h-265zM1118 0v1507h187v-1507h-187z" />
    <glyph glyph-name="uni00200326" horiz-adv-x="1024" 
d="M571 -666h-137q31 58 51.5 126.5t20.5 109.5h-107v235h230v-200q0 -139 -58 -271z" />
    <glyph glyph-name="idotaccent" horiz-adv-x="567" 
d="M186 1206v293h195v-293h-195zM190 0v1012h187v-1012h-187z" />
    <glyph glyph-name="ringacute" horiz-adv-x="1228" 
d="M526 1757l183 307h196l-196 -307h-183zM614 1161q-112 0 -187 74t-75 182q0 111 75 185.5t187 74.5t187.5 -75t75.5 -185q0 -108 -75.5 -182t-187.5 -74zM614 1286q56 0 91.5 37.5t35.5 93.5q0 57 -35 94t-92 37t-92 -37t-35 -94q0 -56 35.5 -93.5t91.5 -37.5z" />
    <glyph glyph-name="f_b" horiz-adv-x="2177" 
d="M63 844v168h265v159q0 336 358 336h242v-168h-221q-193 0 -193 -194v-133h348v-168h-348v-844h-186v844h-265zM1298 158v-158h-184v1507h184v-661q10 20 23 40t40.5 49t60.5 50.5t83.5 37t108.5 15.5q186 0 311 -144.5t125 -387.5t-125 -387t-311 -144q-57 0 -107.5 15
t-83.5 35.5t-61 49t-41 46.5t-23 37zM1294 506q0 -157 76.5 -259t206.5 -102q128 0 205.5 102.5t77.5 258.5q0 157 -77.5 258.5t-205.5 101.5q-131 0 -207 -101t-76 -259z" />
    <glyph glyph-name="f_h" horiz-adv-x="2172" 
d="M63 844v168h265v159q0 336 358 336h242v-168h-221q-193 0 -193 -194v-133h348v-168h-348v-844h-186v844h-265zM1114 0v1507h186v-673q21 49 57.5 91.5t102 75.5t144.5 33q177 0 283 -118.5t106 -323.5v-592h-189v557q0 149 -64.5 227t-180.5 78q-121 0 -190 -79.5
t-69 -225.5v-557h-186z" />
    <glyph glyph-name="f_j" horiz-adv-x="1495" 
d="M63 844v168h265v159q0 336 358 336h242v-168h-221q-193 0 -193 -194v-133h348v-168h-348v-844h-186v844h-265zM1114 1206v293h195v-293h-195zM1305 -98q0 -340 -334 -340h-248v174h217q92 0 135 46t43 140v1090h187v-1110z" />
    <glyph glyph-name="f_k" horiz-adv-x="2064" 
d="M63 844v168h265v159q0 336 358 336h242v-168h-221q-193 0 -193 -194v-133h348v-168h-348v-844h-186v844h-265zM1114 0v1507h180v-929l478 434h256l-533 -477l559 -535h-252l-508 475v-475h-180z" />
    <glyph glyph-name="uni0414.bgr" horiz-adv-x="1626" 
d="M1397 -330v330h-1168v-330h-178v514h144l530 1278h176l531 -1278h143v-514h-178zM391 184h832l-416 1010z" />
    <glyph glyph-name="uni041B.bgr" horiz-adv-x="1492" 
d="M838 1460l587 -1460h-219l-469 1196l-467 -1196h-202l579 1460h191z" />
    <glyph glyph-name="uni0432.bgr" horiz-adv-x="1214" 
d="M180 455v612q0 94 26.5 176t77.5 146.5t135 101.5t191 37q196 0 310 -117t114 -307q0 -109 -54.5 -199.5t-143.5 -130.5q112 -40 175.5 -131.5t63.5 -218.5q0 -197 -125 -324t-332 -127q-213 0 -325.5 129t-112.5 353zM610 1356q-112 0 -177.5 -75t-65.5 -214v-223h204
q131 0 201 65.5t70 194.5q0 118 -61.5 185t-170.5 67zM367 455q0 -146 63.5 -229t190.5 -83q128 0 195 77.5t67 203.5q0 125 -74 188.5t-236 63.5h-206v-221z" />
    <glyph glyph-name="uni0433.bgr" horiz-adv-x="1103" 
d="M479 424q-95 -10 -135.5 -45.5t-40.5 -99.5q0 -65 56 -103.5t165 -38.5q119 0 186 42t91 93h190q-11 -54 -45.5 -105.5t-90.5 -96t-142 -72t-189 -27.5q-195 0 -303 86.5t-108 223.5q0 271 346 313l141 16q91 10 133.5 44t42.5 94q0 58 -54 94.5t-153 36.5
q-100 0 -166 -32.5t-90 -78.5h-184q31 113 145 192.5t295 79.5q174 0 284 -83.5t110 -217.5q0 -133 -90.5 -207t-247.5 -92z" />
    <glyph glyph-name="uni0434.bgr" horiz-adv-x="1243" 
d="M868 160q-10 -19 -22 -36t-40 -47t-59 -51t-80 -37t-104 -16q-185 0 -310.5 144t-125.5 387t125.5 387.5t310.5 144.5q66 0 122.5 -21.5t93 -56t56.5 -61.5t33 -53v168h187v-989q0 -225 -118.5 -355.5t-350.5 -130.5q-95 0 -173.5 23t-126 56t-82 74.5t-49 73.5t-18.5 58
h197q6 -10 12.5 -18.5t28 -28t47 -33t69.5 -24.5t95 -11q141 0 211.5 81t70.5 235v137zM872 504q0 156 -75.5 258t-198.5 102q-126 0 -202.5 -102t-76.5 -258q0 -154 77 -256.5t202 -102.5q122 0 198 102.5t76 256.5z" />
    <glyph glyph-name="uni0436.bgr" horiz-adv-x="1630" 
d="M721 0v461l-467 -461h-244l520 514l-505 498h260l436 -441v936h180v-936l436 441h256l-501 -494l528 -518h-252l-467 461v-461h-180z" />
    <glyph glyph-name="uni0437.bgr" horiz-adv-x="1091" 
d="M985 -12q0 -197 -130 -324t-345 -127q-101 0 -184.5 31t-136.5 82.5t-85 110.5t-43 122h197l8.5 -17t16 -28.5t23 -33t33.5 -35.5t43.5 -31t57.5 -23t70 -8q139 0 211 77.5t72 203.5q0 125 -74 188.5t-236 63.5h-96v168h94q131 0 201 58.5t70 174.5q0 105 -61 165
t-167 60q-96 0 -155.5 -43t-81.5 -112h-183q10 59 41 115.5t81.5 104.5t129 77.5t172.5 29.5q190 0 303 -109t113 -288q0 -112 -61 -190.5t-150 -112.5q108 -32 180 -121t72 -229z" />
    <glyph glyph-name="uni0438.bgr" horiz-adv-x="1226" 
d="M369 428q0 -136 62.5 -207t176.5 -71q118 0 185 72t67 206v584h187v-1012h-187v154q-31 -70 -108 -123.5t-189 -53.5q-175 0 -279 111.5t-104 304.5v619h189v-584z" />
    <glyph glyph-name="uni0439.bgr" horiz-adv-x="1226" 
d="M612 1321q60 0 90.5 40.5t30.5 100.5v35h154v-39q0 -125 -71 -203.5t-204 -78.5t-203.5 78t-70.5 204v39h154v-35q0 -58 30.5 -99.5t89.5 -41.5zM369 428q0 -136 62.5 -207t176.5 -71q118 0 185 72t67 206v584h187v-1012h-187v154q-31 -70 -108 -123.5t-189 -53.5
q-175 0 -279 111.5t-104 304.5v619h189v-584z" />
    <glyph glyph-name="uni043A.bgr" horiz-adv-x="1138" 
d="M188 0v1507h181v-929l477 434h256l-533 -477l559 -535h-251l-508 475v-475h-181z" />
    <glyph glyph-name="uni043B.bgr" horiz-adv-x="1093" 
d="M51 0l408 1030h166l417 -1030h-208l-295 764l-295 -764h-193z" />
    <glyph glyph-name="uni043D.bgr" horiz-adv-x="1243" 
d="M188 0v1012h187v-414h493v414h187v-1012h-187v430h-493v-430h-187z" />
    <glyph glyph-name="uni043F.bgr" horiz-adv-x="1247" 
d="M188 0v1012h187v-170q33 76 111 134t192 58q177 0 283 -116t106 -316v-602h-188v567q0 144 -65 219.5t-181 75.5q-121 0 -189.5 -77t-68.5 -218v-567h-187z" />
    <glyph glyph-name="uni0442.bgr" horiz-adv-x="1914" 
d="M188 0v1012h187v-158q21 43 53.5 80.5t96 68.5t141.5 31q123 0 213 -57t135 -158q17 38 41 71t62 68t95.5 55.5t126.5 20.5q184 0 290 -117t106 -301v-616h-189v582q0 130 -62 205t-181 75q-117 0 -182.5 -77.5t-65.5 -202.5v-582h-189v582q0 129 -63.5 204.5
t-181.5 75.5q-117 0 -181.5 -77.5t-64.5 -202.5v-582h-187z" />
    <glyph glyph-name="uni0446.bgr" horiz-adv-x="1271" 
d="M369 428q0 -136 62.5 -207t176.5 -71q118 0 185 72t67 206v584h187v-844h184v-473h-166v305h-205v154q-31 -70 -108 -123.5t-189 -53.5q-175 0 -279 111.5t-104 304.5v619h189v-584z" />
    <glyph glyph-name="uni0447.bgr" horiz-adv-x="1187" 
d="M813 0v385q-90 -27 -223 -27q-212 0 -319 91t-107 296v267h186v-246q0 -126 52 -184t188 -58q60 0 116 6t82 12l25 7v463h186v-1012h-186z" />
    <glyph glyph-name="uni0448.bgr" horiz-adv-x="1914" 
d="M1726 1012v-1012h-186v158q-15 -31 -37.5 -60t-57 -57.5t-85.5 -46t-111 -17.5q-123 0 -213 57.5t-135 158.5q-17 -38 -41 -71t-62.5 -68t-96 -56t-126.5 -21q-183 0 -289 117t-106 301v617h189v-582q0 -130 62 -205t181 -75q117 0 182.5 77.5t65.5 202.5v582h189v-582
q0 -129 63.5 -204.5t181.5 -75.5q117 0 181.5 77.5t64.5 202.5v582h186z" />
    <glyph glyph-name="uni0449.bgr" horiz-adv-x="1951" 
d="M1726 1012v-844h185v-473h-166v305h-205v158q-15 -31 -37.5 -60t-57 -57.5t-85.5 -46t-111 -17.5q-123 0 -213 57.5t-135 158.5q-17 -38 -41 -71t-62.5 -68t-96 -56t-126.5 -21q-183 0 -289 117t-106 301v617h189v-582q0 -130 62 -205t181 -75q117 0 182.5 77.5
t65.5 202.5v582h189v-582q0 -129 63.5 -204.5t181.5 -75.5q117 0 181.5 77.5t64.5 202.5v582h186z" />
    <glyph glyph-name="uni044A.bgr" horiz-adv-x="1265" 
d="M82 1012h493v-326h226q200 0 301.5 -95.5t101.5 -244.5q0 -65 -27 -130t-76.5 -119t-130 -88t-177.5 -34q-96 0 -175 34t-127.5 88t-75 119t-26.5 130v498h-307v168zM575 346q0 -90 57.5 -146.5t160.5 -56.5q102 0 158.5 55t56.5 148q0 81 -56.5 126.5t-171.5 45.5h-205
v-172z" />
    <glyph glyph-name="uni044C.bgr" horiz-adv-x="1056" 
d="M995 346q0 -65 -27 -130t-76.5 -119t-130 -88t-177.5 -34q-96 0 -175 34t-127.5 88t-75 119t-26.5 130v666h187v-326h225q200 0 301.5 -95.5t101.5 -244.5zM367 346q0 -91 57 -147t160 -56q102 0 158.5 55t56.5 148q0 81 -56.5 126.5t-171.5 45.5h-204v-172z" />
    <glyph glyph-name="uni044E.bgr" horiz-adv-x="1640" 
d="M188 0v1507h187v-909h198q27 194 153.5 316t315.5 122q212 0 344 -150.5t132 -379.5t-132 -380t-344 -151q-193 0 -321 127.5t-150 327.5h-196v-430h-187zM1042 147q133 0 208 101.5t75 257.5t-75 257t-208 101t-207.5 -101t-74.5 -257t74 -257.5t208 -101.5z" />
    <glyph glyph-name="uni0431.locl" horiz-adv-x="1196" 
d="M1073 485q0 -220 -131.5 -365t-343.5 -145t-343.5 145t-131.5 365q0 143 71.5 261t204.5 176q-99 32 -154 94t-55 153q0 271 375 301q302 26 453 43v-172q-188 -21 -447 -41q-188 -15 -188 -137q0 -41 17.5 -70t55 -49t82.5 -32.5t113 -24.5q90 -15 163 -50t133 -93.5
t93 -150t33 -208.5zM598 147q133 0 208 96t75 242t-75 242t-208 96t-208 -96t-75 -242t74.5 -242t208.5 -96z" />
    <glyph glyph-name="uni0433.locl" horiz-adv-x="942" 
d="M188 0v1012h672v-168h-485v-844h-187z" />
    <glyph glyph-name="uni0434.locl" horiz-adv-x="1230" 
d="M197 -305h-166v473h121q45 60 69.5 165.5t42.5 299.5l35 379h707v-844h184v-473h-166v305h-827v-305zM819 168v676h-368l-21 -226q-18 -187 -39 -287.5t-59 -162.5h487z" />
    <glyph glyph-name="uni043F.locl" horiz-adv-x="1222" 
d="M188 0v1012h846v-1012h-186v844h-473v-844h-187z" />
    <glyph glyph-name="uni0442.locl" horiz-adv-x="1046" 
d="M430 0v844h-348v168h883v-168h-349v-844h-186z" />
    <glyph glyph-name="uni040E.scalt" horiz-adv-x="1269" 
d="M676 1425q65 0 99 42.5t34 103.5v26h156v-30q0 -128 -75.5 -208.5t-213.5 -80.5t-213.5 80.5t-75.5 208.5v30h156v-26q0 -61 34 -103.5t99 -42.5zM145 287v20h191v-20q0 -129 102 -129q50 0 80 32.5t76 120.5l-500 840h228l376 -633l318 633h201l-435 -860
q-24 -48 -38 -74.5t-37 -65t-41 -59.5t-45 -45.5t-54.5 -37t-63.5 -21t-77 -8.5q-133 0 -207 81t-74 226z" />
    <glyph glyph-name="uni0423.scalt" horiz-adv-x="1269" 
d="M145 287v20h191v-20q0 -129 102 -129q50 0 80 32.5t76 120.5l-500 840h228l376 -633l318 633h201l-435 -860q-24 -48 -38 -74.5t-37 -65t-41 -59.5t-45 -45.5t-54.5 -37t-63.5 -21t-77 -8.5q-133 0 -207 81t-74 226z" />
    <glyph glyph-name="uni04EE.scalt" horiz-adv-x="1269" 
d="M1016 1362h-647v160h647v-160zM145 287v20h191v-20q0 -129 102 -129q50 0 80 32.5t76 120.5l-500 840h228l376 -633l318 633h201l-435 -860q-24 -48 -38 -74.5t-37 -65t-41 -59.5t-45 -45.5t-54.5 -37t-63.5 -21t-77 -8.5q-133 0 -207 81t-74 226z" />
    <glyph glyph-name="uni04F2.scalt" horiz-adv-x="1269" 
d="M766 1292l160 307h188l-174 -307h-174zM410 1292l159 307h189l-174 -307h-174zM145 287v20h191v-20q0 -129 102 -129q50 0 80 32.5t76 120.5l-500 840h228l376 -633l318 633h201l-435 -860q-24 -48 -38 -74.5t-37 -65t-41 -59.5t-45 -45.5t-54.5 -37t-63.5 -21t-77 -8.5
q-133 0 -207 81t-74 226z" />
    <glyph glyph-name="uni0414.bgrsc" horiz-adv-x="1357" 
d="M1147 -330v330h-936v-330h-170v504h133l406 981h190l414 -981h133v-504h-170zM369 174h606l-303 744z" />
    <glyph glyph-name="uni041B.bgrsc" horiz-adv-x="1257" 
d="M719 1155l459 -1155h-211l-346 905l-345 -905h-196l448 1155h191z" />
    <glyph glyph-name="hyphen.uc" horiz-adv-x="1015" 
d="M172 604v176h672v-176h-672z" />
    <glyph glyph-name="endash.uc" horiz-adv-x="1441" 
d="M172 614v156h1098v-156h-1098z" />
    <glyph glyph-name="emdash.uc" horiz-adv-x="2048" 
d="M172 614v156h1704v-156h-1704z" />
    <glyph glyph-name="quoteleft.uc" horiz-adv-x="598" 
d="M285 1454h145q-125 -233 -125 -414h113v-266h-238v246q0 232 105 434z" />
    <glyph glyph-name="quoteright.uc" horiz-adv-x="598" 
d="M313 774h-145q125 233 125 414h-113v266h238v-246q0 -232 -105 -434z" />
    <glyph glyph-name="quotedblleft.uc" horiz-adv-x="1013" 
d="M285 1454h145q-125 -233 -125 -414h113v-266h-238v246q0 232 105 434zM700 1454h146q-125 -233 -125 -414h113v-266h-238v246q0 234 104 434z" />
    <glyph glyph-name="quotedblright.uc" horiz-adv-x="1013" 
d="M729 774h-145q125 233 125 414h-113v266h238v-246q0 -232 -105 -434zM313 774h-145q125 233 125 414h-113v266h238v-246q0 -232 -105 -434z" />
    <glyph glyph-name="guilsinglleft.uc" horiz-adv-x="698" 
d="M367 993h188l-236 -362l236 -367h-190l-232 365z" />
    <glyph glyph-name="guilsinglright.uc" horiz-adv-x="698" 
d="M332 264h-189l236 363l-236 366h191l231 -364z" />
    <glyph glyph-name="at.uc" horiz-adv-x="2109" 
d="M1505 1143l-104 -590q-26 -152 102 -152q56 0 108 29t95.5 84t69.5 145.5t26 202.5q0 140 -47 258t-135 203.5t-223 133.5t-303 48q-169 0 -314 -58.5t-249 -164t-163 -258.5t-59 -334q0 -172 57 -318t160.5 -249t254 -161t331.5 -58q96 0 184.5 15.5t147 35t117.5 51.5
t86 51t63 47h193q-32 -44 -74.5 -87t-114 -92.5t-154.5 -85.5t-200.5 -60.5t-247.5 -24.5q-227 0 -412.5 73t-306.5 200.5t-186.5 298.5t-65.5 368q0 205 71.5 383t197 304.5t303 199t381.5 72.5q171 0 315 -42.5t245.5 -117t173.5 -175.5t106 -216.5t34 -241.5
q0 -172 -57.5 -310t-165 -217t-246.5 -79q-107 0 -169.5 39.5t-76.5 103.5q-35 -61 -100 -102t-156 -41q-165 0 -268.5 115t-103.5 315q0 199 114 334t301 135q104 0 170.5 -49t94.5 -115l28 154h172zM1055 985q-109 0 -175.5 -86t-66.5 -219q0 -118 53.5 -188t151.5 -70
q109 0 175.5 86t66.5 219q0 118 -53 188t-152 70z" />
    <glyph glyph-name="exclamdown.uc" horiz-adv-x="688" 
d="M225 1454h238v-289h-238v289zM254 979h180v-979h-180v979z" />
    <glyph glyph-name="questiondown.uc" horiz-adv-x="1114" 
d="M801 1454v-291h-238v291h238zM588 979h188v-16q0 -94 -29 -144.5t-126 -116.5l-148 -102q-77 -54 -119.5 -111.5t-42.5 -134.5q0 -96 62 -153.5t168 -57.5q107 0 169 67.5t62 174.5v66h182v-72q0 -185 -111.5 -294.5t-301.5 -109.5q-197 0 -308.5 102t-111.5 277
q0 128 61 215.5t189 173.5l147 101q40 29 55 58.5t15 76.5z" />
    <glyph glyph-name="acute.uc" horiz-adv-x="1228" 
d="M397 1593l209 308h225l-225 -308h-209z" />
    <glyph glyph-name="grave.uc" horiz-adv-x="1228" 
d="M829 1593h-208l-224 308h226z" />
    <glyph glyph-name="hungarumlaut.uc" horiz-adv-x="1228" 
d="M618 1593l160 308h189l-174 -308h-175zM262 1593l160 308h188l-174 -308h-174z" />
    <glyph glyph-name="circumflex.uc" horiz-adv-x="1228" 
d="M684 1587l-149 178l-152 -178h-201l271 320h159l265 -320h-193z" />
    <glyph glyph-name="caron.uc" horiz-adv-x="1228" 
d="M176 1907h201l151 -178l150 178h192l-264 -320h-160z" />
    <glyph glyph-name="breve.uc" horiz-adv-x="1228" 
d="M614 1726q65 0 99.5 43t34.5 103v26h155v-30q0 -128 -75.5 -208.5t-213.5 -80.5t-213 80.5t-75 208.5v30h155v-26q0 -61 34 -103.5t99 -42.5z" />
    <glyph glyph-name="tilde.uc" horiz-adv-x="1228" 
d="M606 1671l-74 45q-50 31 -69 31q-35 0 -35 -49v-115h-149v135q0 91 39 142t118 51q17 0 35.5 -4t30 -7t32.5 -14t27 -14.5t32.5 -20t29.5 -18.5l73 -45q6 -3 16 -9t15.5 -9t13 -6.5t13.5 -5t12 -1.5q35 0 35 49v115h149v-135q0 -91 -39 -142t-118 -51q-18 0 -36 3.5
t-30.5 7.5t-32 14t-27.5 15t-31 19.5t-30 18.5z" />
    <glyph glyph-name="macron.uc" horiz-adv-x="1024" 
d="M836 1665h-648v160h648v-160z" />
    <glyph glyph-name="dieresis.uc" horiz-adv-x="1228" 
d="M322 1593v285h188v-285h-188zM719 1593v285h188v-285h-188z" />
    <glyph glyph-name="dotaccent.uc" horiz-adv-x="1228" 
d="M518 1593v293h193v-293h-193z" />
    <glyph glyph-name="ring.uc" horiz-adv-x="1228" 
d="M614 1573q-112 0 -187 74t-75 182q0 111 75 185.5t187 74.5t187.5 -75t75.5 -185q0 -108 -75.5 -182t-187.5 -74zM614 1698q56 0 91.5 37.5t35.5 93.5q0 57 -35 94t-92 37t-92 -37t-35 -94q0 -56 35.5 -93.5t91.5 -37.5z" />
    <glyph glyph-name="cyrbreve.uc" horiz-adv-x="1228" 
d="M614 1726q65 0 99.5 43t34.5 103v26h155v-30q0 -128 -75.5 -208.5t-213.5 -80.5t-213 80.5t-75 208.5v30h155v-26q0 -61 34 -103.5t99 -42.5z" />
    <glyph glyph-name="guillemotleft.uc" horiz-adv-x="1128" 
d="M358 993h185l-228 -362l228 -367h-187l-223 365zM801 993h184l-227 -362l227 -367h-186l-224 365z" />
    <glyph glyph-name="guillemotright.uc" horiz-adv-x="1128" 
d="M770 264h-184l227 363l-227 366h186l223 -364zM328 264h-185l228 363l-228 366h187l223 -364z" />
    <glyph glyph-name="ringacute.uc" horiz-adv-x="1228" 
d="M532 2169l189 287h209l-205 -287h-193zM614 1573q-112 0 -187 74t-75 182q0 111 75 185.5t187 74.5t187.5 -75t75.5 -185q0 -108 -75.5 -182t-187.5 -74zM614 1698q56 0 91.5 37.5t35.5 93.5q0 57 -35 94t-92 37t-92 -37t-35 -94q0 -56 35.5 -93.5t91.5 -37.5z" />
    <glyph glyph-name="uni02BC.uc" horiz-adv-x="598" 
d="M313 774h-145q125 233 125 414h-113v266h238v-246q0 -232 -105 -434z" />
    <glyph glyph-name="zero.old" horiz-adv-x="1327" 
d="M664 1176q155 0 274 -81t180.5 -216t61.5 -301t-61.5 -302.5t-180.5 -218.5t-274 -82q-156 0 -275.5 82.5t-180.5 218.5t-61 302t61 301t180 216t276 81zM664 152q77 0 139 35.5t100.5 95.5t59 135.5t20.5 159.5q0 113 -34.5 206.5t-108.5 154t-176 60.5t-176.5 -61
t-109 -154.5t-34.5 -205.5t34.5 -207t109 -157t176.5 -62z" />
    <glyph glyph-name="one.old" horiz-adv-x="849" 
d="M600 0h-190v938l-312 -182v184l355 221h147v-1161z" />
    <glyph glyph-name="two.old" horiz-adv-x="1216" 
d="M1085 172v-172h-931v123l368 270q79 58 125.5 97t87.5 85.5t58.5 92.5t17.5 100q0 104 -60.5 168.5t-164.5 64.5q-111 0 -174.5 -74t-63.5 -179v-33h-190v35q0 86 29 162.5t82.5 135.5t135.5 93.5t181 34.5q189 0 303.5 -116t114.5 -292q0 -47 -11.5 -92.5t-29.5 -82.5
t-49 -76.5t-59 -68.5t-71.5 -64.5t-75.5 -59t-81 -58.5l-133 -94h591z" />
    <glyph glyph-name="three.old" horiz-adv-x="1239" 
d="M610 -152q130 0 206.5 68.5t76.5 189.5q0 123 -74 188.5t-211 65.5h-215v177h230q110 0 171.5 60t61.5 171q0 107 -69.5 169t-180.5 62q-110 0 -171 -60.5t-77 -160.5h-196q3 57 21 112.5t54 107.5t86 91.5t122.5 63t158.5 23.5q212 0 330.5 -111t118.5 -289
q0 -65 -20 -120.5t-53 -93t-67.5 -62.5t-70.5 -39q35 -10 68.5 -29t66.5 -50t57.5 -71t40 -96t15.5 -121q0 -190 -128.5 -306t-351.5 -116q-115 0 -206 36t-147 96t-87.5 130.5t-38.5 147.5h199q20 -99 88.5 -166.5t191.5 -67.5z" />
    <glyph glyph-name="four.old" horiz-adv-x="1349" 
d="M1272 145h-279v-448h-192v448h-707v109l682 897h217v-834h279v-172zM346 317h455v601z" />
    <glyph glyph-name="five.old" horiz-adv-x="1273" 
d="M399 324h-166v827h830v-180h-639v-434q98 102 264 102q89 0 167.5 -32t138 -91.5t94 -151.5t34.5 -204v-2q0 -213 -132 -347.5t-347 -134.5q-91 0 -168 23.5t-131.5 64t-94 95t-60 115.5t-25.5 128h194q6 -42 22.5 -81.5t48 -79t87 -64t127.5 -24.5q127 0 205 85.5
t78 219.5q0 140 -76 222.5t-205 82.5q-158 0 -241 -132l-2 -2z" />
    <glyph glyph-name="six.old" horiz-adv-x="1269" 
d="M1122 477q0 -140 -57 -253.5t-169.5 -181t-260.5 -67.5q-229 0 -358.5 138.5t-129.5 363.5q0 143 56 262t170 271l329 444h222l-416 -567q85 67 215 67q175 0 287 -130.5t112 -346.5zM926 477q0 141 -77.5 233.5t-213.5 92.5q-135 0 -213 -93t-78 -233t78 -232.5
t213 -92.5t213 92.5t78 232.5z" />
    <glyph glyph-name="seven.old" horiz-adv-x="1183" 
d="M391 -303h-217l674 1274h-715v180h938v-150z" />
    <glyph glyph-name="eight.old" horiz-adv-x="1327" 
d="M674 1479q220 0 340.5 -112t120.5 -290q0 -133 -69.5 -216t-160.5 -111q45 -14 87.5 -42t81.5 -71t63 -106.5t24 -137.5q0 -187 -132 -302.5t-359 -115.5h-23q-221 0 -351 115.5t-130 302.5q0 74 24 137.5t63 106.5t81.5 71t87.5 42q-91 28 -160 111t-69 216
q0 178 120.5 290t339.5 112h21zM389 1069q0 -106 71.5 -169.5t192.5 -63.5h21q121 0 192.5 63.5t71.5 169.5t-71.5 170t-192.5 64h-21q-121 0 -192.5 -64t-71.5 -170zM365 406q0 -115 77.5 -184.5t206.5 -69.5h29q130 0 207.5 69t77.5 185t-77.5 184.5t-207.5 68.5h-29
q-129 0 -206.5 -69t-77.5 -184z" />
    <glyph glyph-name="nine.old" horiz-adv-x="1269" 
d="M147 674q0 140 57.5 253.5t170 181t260.5 67.5q229 0 358 -138.5t129 -363.5q0 -144 -56 -263t-169 -270l-330 -444h-221l416 567q-85 -67 -215 -67q-175 0 -287.5 130.5t-112.5 346.5zM344 674q0 -141 77.5 -233.5t213.5 -92.5q135 0 213 93t78 233t-78 232.5t-213 92.5
t-213 -92.5t-78 -232.5z" />
    <glyph glyph-name="four.denalt" horiz-adv-x="999" 
d="M164 250v622h172v-473h239v357h173v-357h172v-149h-172v-250h-173v250h-411z" />
    <glyph glyph-name="four.numalt" horiz-adv-x="999" 
d="M164 831v623h172v-473h239v356h173v-356h172v-150h-172v-249h-173v249h-411z" />
    <glyph glyph-name="four.oldalt" horiz-adv-x="1384" 
d="M236 168v983h196v-805h397v610h199v-610h279v-178h-279v-471h-199v471h-593z" />
    <glyph glyph-name="four.subalt" horiz-adv-x="1112" 
d="M176 41v717h170v-559h287v426h172v-426h217v-158h-217v-295h-172v295h-457z" />
    <glyph glyph-name="four.supalt" horiz-adv-x="1112" 
d="M176 791v716h170v-559h287v426h172v-426h217v-157h-217v-295h-172v295h-457z" />
    <glyph glyph-name="four.tabalt" 
d="M188 457v997h197v-819h401v604h197v-604h266v-178h-266v-457h-197v457h-598z" />
    <glyph glyph-name="won.tabalt" 
d="M41 651v160h172l-109 643h183l147 -1055l148 1055h186l156 -1063l137 1063h166l-97 -643h160v-160h-184l-98 -651h-174l-158 987l-160 -987h-168l-108 651h-199z" />
    <glyph glyph-name="space.tab" horiz-adv-x="665" 
 />
    <glyph glyph-name="zero.tab" 
d="M666 1479q228 0 362.5 -138.5t134.5 -382.5v-462q0 -251 -135 -386t-362 -135t-362.5 135t-135.5 386v462q0 244 135 382.5t363 138.5zM666 156q146 0 223.5 94t77.5 248v458q0 154 -77.5 248t-223.5 94t-223.5 -94t-77.5 -248v-458q0 -154 77.5 -248t223.5 -94z" />
    <glyph glyph-name="one.tab" 
d="M930 0h-199v1227l-483 -273v189l534 317h148v-1460z" />
    <glyph glyph-name="two.tab" 
d="M1208 180v-180h-1022v123l492 485q67 67 106.5 112t75.5 97.5t51 103.5t15 109q0 121 -73 194.5t-198 73.5q-124 0 -197 -79t-73 -205v-94h-195v96q0 203 126 333t339 130q214 0 341.5 -126.5t127.5 -322.5q0 -56 -10 -107.5t-33.5 -100t-47.5 -87.5t-66 -87t-74 -81
t-86 -86l-307 -301h708z" />
    <glyph glyph-name="three.tab" 
d="M657 156q146 0 232 67.5t86 186.5q0 121 -77.5 186.5t-219.5 65.5h-256v180h262q116 0 182 60t66 169q0 106 -77 167.5t-202 61.5q-122 0 -191 -60.5t-85 -158.5h-197q4 73 34.5 141.5t86 127t146.5 94t204 35.5q224 0 350.5 -111t126.5 -289q0 -64 -19 -119t-50.5 -93
t-64.5 -63t-68 -40q44 -13 85.5 -39.5t80 -69t61.5 -109.5t23 -149q0 -190 -139 -306t-380 -116q-124 0 -223 36t-159 96t-93.5 130.5t-40.5 147.5h199q19 -96 99 -162.5t218 -66.5z" />
    <glyph glyph-name="four.tab" 
d="M1249 436h-268v-436h-193v436h-692v109l668 909h217v-846h268v-172zM338 608h450v617z" />
    <glyph glyph-name="five.tab" 
d="M397 643h-164v811h893v-180h-704v-422q106 106 295 106q94 0 178 -32t148 -91.5t101.5 -151.5t37.5 -204v-22q0 -213 -141 -347.5t-369 -134.5q-122 0 -218.5 35t-157 95.5t-94.5 135.5t-40 160h194q5 -32 16.5 -63t36 -64.5t58 -59t87 -42t118.5 -16.5q138 0 225.5 84.5
t87.5 216.5v20q0 137 -86.5 219t-226.5 82q-63 0 -115.5 -15.5t-84.5 -40.5t-48 -43t-27 -36z" />
    <glyph glyph-name="six.tab" 
d="M1188 471q0 -215 -141.5 -355.5t-382.5 -140.5q-244 0 -382.5 137.5t-138.5 358.5q0 80 17 151t54.5 141t71.5 120t93 127l340 444h235l-424 -539q78 43 193 43q205 0 335 -133t130 -354zM989 471q0 142 -85 231t-240 89q-145 0 -233.5 -90.5t-88.5 -229.5
q0 -134 86.5 -224.5t235.5 -90.5q154 0 239.5 90t85.5 225z" />
    <glyph glyph-name="seven.tab" 
d="M465 0h-217l713 1274h-795v180h1020v-149z" />
    <glyph glyph-name="eight.tab" 
d="M692 1479q221 0 344 -112t123 -290q0 -70 -21 -128.5t-56 -97.5t-73.5 -64t-80.5 -37q46 -14 89 -42t83 -70.5t64 -106t24 -138.5q0 -187 -135.5 -302.5t-364.5 -115.5h-55q-224 0 -357 116t-133 302q0 75 24 138.5t64 106t83 70.5t89 42q-42 12 -80.5 37t-73.5 64
t-56 97.5t-21 128.5q0 177 123.5 289.5t343.5 112.5h53zM369 1069q0 -106 74 -169.5t196 -63.5h53q122 0 196.5 64t74.5 169q0 106 -74.5 170t-196.5 64h-53q-122 0 -196 -64t-74 -170zM344 406q0 -115 80.5 -184.5t210.5 -69.5h61q131 0 211 69.5t80 184.5t-80 184t-211 69
h-61q-130 0 -210.5 -69t-80.5 -184z" />
    <glyph glyph-name="nine.tab" 
d="M143 983q0 215 142 355.5t383 140.5q162 0 281 -64.5t179 -176t60 -255.5q0 -80 -17 -151t-54.5 -141t-71.5 -120t-93 -127l-340 -444h-235l424 539q-78 -43 -193 -43q-205 0 -335 133t-130 354zM342 983q0 -141 85.5 -230t240.5 -89q145 0 233 90t88 229
q0 134 -86 224.5t-235 90.5q-154 0 -240 -90t-86 -225z" />
    <glyph glyph-name="percent.tab" horiz-adv-x="1996" 
d="M475 729q-158 0 -265.5 107.5t-107.5 267.5t107.5 267.5t265.5 107.5t265.5 -107.5t107.5 -267.5t-107.5 -267.5t-265.5 -107.5zM387 0l1028 1454h195l-1030 -1454h-193zM475 881q93 0 152 63.5t59 159.5t-59 159.5t-152 63.5t-152 -63.5t-59 -159.5t59 -159.5t152 -63.5
zM1522 -29q-158 0 -265.5 107.5t-107.5 267.5t107.5 267.5t265.5 107.5t265 -107.5t107 -267.5t-107 -267.5t-265 -107.5zM1522 123q93 0 152 63.5t59 159.5t-59 159.5t-152 63.5t-152 -63.5t-59 -159.5t59 -159.5t152 -63.5z" />
    <glyph glyph-name="perthousand.tab" horiz-adv-x="2662" 
d="M453 762q-153 0 -256 102.5t-103 255.5q0 152 103.5 255.5t255.5 103.5t255 -103.5t103 -255.5q0 -153 -102.5 -255.5t-255.5 -102.5zM485 0h-188l1032 1454h191zM453 915q87 0 141.5 58t54.5 147q0 88 -54.5 146.5t-141.5 58.5t-142 -59t-55 -146q0 -89 55 -147t142 -58
zM1362 -29q-152 0 -255 102.5t-103 256.5q0 152 103 255t255 103t255 -103t103 -255q0 -154 -103 -256.5t-255 -102.5zM2210 -29q-153 0 -256 103t-103 256q0 152 103.5 255t255.5 103t255 -103t103 -255q0 -154 -103 -256.5t-255 -102.5zM1362 125q87 0 142 58t55 147
q0 87 -55 146t-142 59t-142 -59t-55 -146q0 -89 55 -147t142 -58zM2210 125q87 0 141.5 58t54.5 147q0 88 -54.5 146.5t-141.5 58.5t-142 -59t-55 -146q0 -89 55 -147t142 -58z" />
    <glyph glyph-name="period.tab" horiz-adv-x="665" 
d="M215 0v291h238v-291h-238z" />
    <glyph glyph-name="comma.tab" horiz-adv-x="665" 
d="M344 -438h-151q69 114 110.5 220t44.5 218h-110v291h237v-275q0 -123 -38.5 -243.5t-92.5 -210.5z" />
    <glyph glyph-name="colon.tab" horiz-adv-x="665" 
d="M215 702v291h238v-291h-238zM215 0v291h238v-291h-238z" />
    <glyph glyph-name="semicolon.tab" horiz-adv-x="665" 
d="M215 702v291h238v-291h-238zM322 -438h-152q69 115 111 220.5t45 217.5h-111v291h238v-275q0 -123 -38.5 -243.5t-92.5 -210.5z" />
    <glyph glyph-name="plus.tab" 
d="M582 102v463h-447v160h447v463h168v-463h446v-160h-446v-463h-168z" />
    <glyph glyph-name="minus.tab" 
d="M1206 563h-1081v164h1081v-164z" />
    <glyph glyph-name="divide.tab" 
d="M549 915v293h237v-293h-237zM1206 563h-1081v164h1081v-164zM549 61v293h237v-293h-237z" />
    <glyph glyph-name="multiply.tab" 
d="M1206 758h-1081v157h1081v-157zM1206 340h-1081v158h1081v-158z" />
    <glyph glyph-name="equal.tab" 
d="M182 231l369 371l-369 367l119 118l367 -370l368 370l111 -110l-369 -371l371 -375l-115 -110l-372 371l-369 -371z" />
    <glyph glyph-name="less.tab" 
d="M1128 301v-178l-944 412v141l944 411v-182l-720 -303z" />
    <glyph glyph-name="greater.tab" 
d="M1149 535l-944 -412v182l721 303l-721 301v178l944 -411v-141z" />
    <glyph glyph-name="dollar.tab" 
d="M592 -252v252q-183 21 -284 136.5t-101 287.5v12h192v-8q0 -122 73.5 -191t193.5 -69q126 0 196 61t70 162q0 92 -54 147.5t-157 86.5l-150 45q-176 53 -260 149.5t-84 263.5q0 154 101.5 255t263.5 122v238h160v-240q166 -22 257 -128.5t91 -276.5v-6h-189v6
q0 109 -65.5 174t-179.5 65q-112 0 -179 -56t-67 -153q0 -90 54 -145t157 -86l149 -45q174 -53 260 -150.5t86 -265.5q0 -156 -99 -262t-275 -127v-254h-160z" />
    <glyph glyph-name="cent.tab" 
d="M621 -252v234q-173 31 -283.5 175.5t-110.5 348.5q0 205 110.5 351t283.5 175v221h155v-221q75 -10 137.5 -41t100 -67.5t65 -80.5t38.5 -74t16 -54h-185q-7 15 -17 30.5t-31.5 38.5t-47.5 40t-67 29.5t-87 12.5q-123 0 -200.5 -102t-77.5 -258q0 -155 78 -258t202 -103
q182 0 258 156h181q-5 -23 -16 -53t-39 -74.5t-66 -82t-101.5 -69.5t-140.5 -42v-232h-155z" />
    <glyph glyph-name="sterling.tab" 
d="M66 0v180h239v381h-239v180h239v306q0 206 114.5 319t309.5 113q201 0 312.5 -111t111.5 -321v-78h-188v73q0 124 -62.5 191t-173.5 67q-108 0 -167.5 -67t-59.5 -191v-301h459v-180h-459v-381h788v-180h-1224z" />
    <glyph glyph-name="yen.tab" 
d="M156 305v160h417v186h-417v160h413l-501 643h239l369 -477l366 477h222l-492 -643h418v-160h-418v-186h418v-160h-418v-305h-199v305h-417z" />
    <glyph glyph-name="won.tab" 
d="M41 651v160h168l-105 643h181l92 -655h106l95 655h194l96 -655h109l86 655h164l-94 -643h157v-160h-182l-96 -651h-181l-100 664h-119l-98 -664h-170l-106 651h-197zM631 799h82l-41 366zM395 664l37 -328l35 328h-72zM887 664l37 -347l37 347h-74z" />
    <glyph glyph-name="Euro.tab" 
d="M35 481v160h241v186h-241v160h241q0 233 130 362.5t350 129.5q221 0 350 -125t135 -346h-199q-5 128 -76.5 210t-209.5 82q-136 0 -211.5 -87.5t-75.5 -225.5h373v-160h-373v-186h373v-160h-373v-12q0 -146 77 -229.5t214 -83.5q136 0 208 81.5t74 221.5h199
q-4 -233 -134 -357.5t-351 -124.5q-219 0 -349.5 127t-130.5 365v12h-241z" />
    <glyph glyph-name="florin.tab" 
d="M162 700v170h336l39 244q29 180 115 260t280 80h299v-170h-281q-112 0 -159.5 -44t-65.5 -153l-35 -217h361v-170h-387l-183 -1138h-188l178 1138h-309z" />
    <glyph glyph-name="uni20B4.tab" 
d="M143 803v160h746q33 54 33 120q0 97 -68 153t-182 56q-113 0 -177.5 -60t-64.5 -159v-6h-188v6q0 184 113.5 287.5t316.5 103.5q191 0 316.5 -104.5t125.5 -276.5q0 -62 -22 -120h96v-160h-1045zM217 383q0 60 19 115h-93v159h1045v-159h-748q-28 -48 -28 -115
q0 -101 71.5 -162t200.5 -61q121 0 195.5 63t74.5 176v9h193v-13q0 -181 -123 -294t-340 -113t-342 110t-125 285z" />
    <glyph glyph-name="uni20B8.tab" 
d="M109 1294v160h1112v-160h-1112zM565 0v924h-456v184h1112v-184h-457v-924h-199z" />
    <glyph glyph-name="uni20BD.tab" 
d="M109 285v159h213v187h-213v160h213v663h485q235 0 359 -106.5t124 -300.5q0 -191 -125 -303.5t-358 -112.5h-287v-187h459v-159h-459v-285h-198v285h-213zM813 1270h-293v-475h293q133 0 202.5 67t69.5 180q0 109 -69 168.5t-203 59.5z" />
    <glyph glyph-name="uni2116.tab" 
d="M1040 647q-126 0 -208 114t-82 302t82 302t208 114t208.5 -114t82.5 -302t-82.5 -302t-208.5 -114zM694 1454v-1464h-149l-271 960v-950h-180v1454h228l192 -719v719h180zM1040 799q58 0 93.5 69.5t35.5 194.5t-35.5 194.5t-93.5 69.5t-93.5 -69.5t-35.5 -194.5
t35.5 -194.5t93.5 -69.5zM791 387v156h499v-156h-499z" />
    <glyph glyph-name="A.sc" horiz-adv-x="1284" 
d="M1004 0l-103 254h-528l-103 -254h-190l471 1157h184l469 -1157h-200zM440 422h394l-197 491z" />
    <glyph glyph-name="Agrave.sc" horiz-adv-x="1284" 
d="M743 1290h-208l-224 307h226zM1004 0l-103 254h-528l-103 -254h-190l471 1157h184l469 -1157h-200zM440 422h394l-197 491z" />
    <glyph glyph-name="Aacute.sc" horiz-adv-x="1284" 
d="M537 1290l208 307h226l-226 -307h-208zM1004 0l-103 254h-528l-103 -254h-190l471 1157h184l469 -1157h-200zM440 422h394l-197 491z" />
    <glyph glyph-name="Acircumflex.sc" horiz-adv-x="1284" 
d="M791 1284l-150 178l-152 -178h-200l270 320h160l264 -320h-192zM1004 0l-103 254h-528l-103 -254h-190l471 1157h184l469 -1157h-200zM440 422h394l-197 491z" />
    <glyph glyph-name="Atilde.sc" horiz-adv-x="1284" 
d="M625 1368l-74 45q-50 31 -70 31q-35 0 -35 -49v-115h-149v135q0 91 39.5 142t118.5 51q17 0 35 -3.5t30 -7t32 -14.5t27.5 -15t31.5 -19t30 -19l74 -45q6 -3 19.5 -11t19 -11t14.5 -6t16 -3q35 0 35 49v115h150v-135q0 -91 -39.5 -142t-118.5 -51q-18 0 -36 3.5
t-30.5 7.5t-31.5 14t-27.5 15t-30.5 19t-30 19zM1004 0l-103 254h-528l-103 -254h-190l471 1157h184l469 -1157h-200zM440 422h394l-197 491z" />
    <glyph glyph-name="Adieresis.sc" horiz-adv-x="1284" 
d="M346 1290v285h189v-285h-189zM743 1290v285h189v-285h-189zM1004 0l-103 254h-528l-103 -254h-190l471 1157h184l469 -1157h-200zM440 422h394l-197 491z" />
    <glyph glyph-name="Aring.sc" horiz-adv-x="1284" 
d="M639 1270q-112 0 -187 74t-75 182q0 111 75 185.5t187 74.5t187 -74.5t75 -185.5q0 -108 -75 -182t-187 -74zM639 1395q56 0 91.5 37.5t35.5 93.5q0 57 -35 94t-92 37t-92 -37t-35 -94q0 -56 35.5 -93.5t91.5 -37.5zM1004 0l-103 254h-528l-103 -254h-190l471 1157h184
l469 -1157h-200zM440 422h394l-197 491z" />
    <glyph glyph-name="Amacron.sc" horiz-adv-x="1284" 
d="M963 1362h-648v160h648v-160zM1004 0l-103 254h-528l-103 -254h-190l471 1157h184l469 -1157h-200zM440 422h394l-197 491z" />
    <glyph glyph-name="Abreve.sc" horiz-adv-x="1284" 
d="M639 1423q65 0 99 42.5t34 103.5v26h156v-30q0 -128 -75.5 -208.5t-213.5 -80.5t-213.5 80.5t-75.5 208.5v30h156v-26q0 -61 34 -103.5t99 -42.5zM1004 0l-103 254h-528l-103 -254h-190l471 1157h184l469 -1157h-200zM440 422h394l-197 491z" />
    <glyph glyph-name="Aogonek.sc" horiz-adv-x="1284" 
d="M834 -246q0 70 43 124.5t127 121.5l-103 254h-528l-103 -254h-190l471 1157h184l469 -1157q-56 -50 -73.5 -66.5t-49.5 -49.5t-42.5 -53.5t-10.5 -39.5q0 -61 80 -61h137v-168h-147q-124 0 -194 47t-70 145zM440 422h394l-197 491z" />
    <glyph glyph-name="uni01FA.sc" horiz-adv-x="1284" 
d="M557 1866l188 286h209l-204 -286h-193zM639 1270q-112 0 -187 74t-75 182q0 111 75 185.5t187 74.5t187 -74.5t75 -185.5q0 -108 -75 -182t-187 -74zM639 1395q56 0 91.5 37.5t35.5 93.5q0 57 -35 94t-92 37t-92 -37t-35 -94q0 -56 35.5 -93.5t91.5 -37.5zM1004 0
l-103 254h-528l-103 -254h-190l471 1157h184l469 -1157h-200zM440 422h394l-197 491z" />
    <glyph glyph-name="B.sc" horiz-adv-x="1343" 
d="M231 0v1151h576q166 0 256 -83t90 -226q0 -88 -53 -152t-127 -86q89 -23 148 -95t59 -179q0 -154 -103 -242t-299 -88h-547zM788 983h-368v-307h371q79 0 123 40t44 113q0 154 -170 154zM762 510h-342v-342h342q223 0 223 172q0 170 -223 170z" />
    <glyph glyph-name="C.sc" horiz-adv-x="1267" 
d="M664 -18q-152 0 -269 77.5t-179 211.5t-62 304q0 169 62 303.5t179 212.5t269 78q91 0 168 -24.5t128 -62.5t89 -87.5t56.5 -96.5t24.5 -93h-186q-11 29 -30 57t-51.5 60t-84 51.5t-114.5 19.5q-100 0 -172 -58t-106 -151t-34 -209t34 -209t106 -150.5t172 -57.5
q51 0 96 13.5t74.5 34t53.5 47.5t37 50t21 45h184q-7 -56 -35.5 -115t-81.5 -117.5t-144 -96t-205 -37.5z" />
    <glyph glyph-name="Ccedilla.sc" horiz-adv-x="1267" 
d="M735 -319q0 69 -84 69h-125v250q-172 47 -272 202.5t-100 372.5q0 169 62 303.5t179 212.5t269 78q91 0 168 -24.5t128 -62.5t89 -87.5t56.5 -96.5t24.5 -93h-186q-11 29 -30 57t-51.5 60t-84 51.5t-114.5 19.5q-100 0 -172 -58t-106 -151t-34 -209t34 -209t106 -150.5
t172 -57.5q51 0 96 13.5t74.5 34t53.5 47.5t37 50t21 45h184q-5 -42 -22.5 -87.5t-53 -94.5t-83.5 -88t-121.5 -66t-159.5 -30v-95q111 0 167 -55.5t56 -150.5q0 -100 -59 -162t-180 -62h-195v152h172q84 0 84 72z" />
    <glyph glyph-name="Cacute.sc" horiz-adv-x="1267" 
d="M561 1290l209 307h225l-225 -307h-209zM664 -18q-152 0 -269 77.5t-179 211.5t-62 304q0 169 62 303.5t179 212.5t269 78q91 0 168 -24.5t128 -62.5t89 -87.5t56.5 -96.5t24.5 -93h-186q-11 29 -30 57t-51.5 60t-84 51.5t-114.5 19.5q-100 0 -172 -58t-106 -151t-34 -209
t34 -209t106 -150.5t172 -57.5q51 0 96 13.5t74.5 34t53.5 47.5t37 50t21 45h184q-7 -56 -35.5 -115t-81.5 -117.5t-144 -96t-205 -37.5z" />
    <glyph glyph-name="Ccircumflex.sc" horiz-adv-x="1267" 
d="M815 1284l-149 178l-152 -178h-201l271 320h159l265 -320h-193zM664 -18q-152 0 -269 77.5t-179 211.5t-62 304q0 169 62 303.5t179 212.5t269 78q91 0 168 -24.5t128 -62.5t89 -87.5t56.5 -96.5t24.5 -93h-186q-11 29 -30 57t-51.5 60t-84 51.5t-114.5 19.5
q-100 0 -172 -58t-106 -151t-34 -209t34 -209t106 -150.5t172 -57.5q51 0 96 13.5t74.5 34t53.5 47.5t37 50t21 45h184q-7 -56 -35.5 -115t-81.5 -117.5t-144 -96t-205 -37.5z" />
    <glyph glyph-name="Cdotaccent.sc" horiz-adv-x="1267" 
d="M567 1290v293h193v-293h-193zM664 -18q-152 0 -269 77.5t-179 211.5t-62 304q0 169 62 303.5t179 212.5t269 78q91 0 168 -24.5t128 -62.5t89 -87.5t56.5 -96.5t24.5 -93h-186q-11 29 -30 57t-51.5 60t-84 51.5t-114.5 19.5q-100 0 -172 -58t-106 -151t-34 -209t34 -209
t106 -150.5t172 -57.5q51 0 96 13.5t74.5 34t53.5 47.5t37 50t21 45h184q-7 -56 -35.5 -115t-81.5 -117.5t-144 -96t-205 -37.5z" />
    <glyph glyph-name="Ccaron.sc" horiz-adv-x="1267" 
d="M311 1604h201l152 -179l149 179h193l-265 -320h-159zM664 -18q-152 0 -269 77.5t-179 211.5t-62 304q0 169 62 303.5t179 212.5t269 78q91 0 168 -24.5t128 -62.5t89 -87.5t56.5 -96.5t24.5 -93h-186q-11 29 -30 57t-51.5 60t-84 51.5t-114.5 19.5q-100 0 -172 -58
t-106 -151t-34 -209t34 -209t106 -150.5t172 -57.5q51 0 96 13.5t74.5 34t53.5 47.5t37 50t21 45h184q-7 -56 -35.5 -115t-81.5 -117.5t-144 -96t-205 -37.5z" />
    <glyph glyph-name="D.sc" horiz-adv-x="1366" 
d="M231 0v1151h394q273 0 432.5 -153.5t159.5 -422.5q0 -264 -160 -419.5t-432 -155.5h-394zM625 979h-203v-807h203q184 0 290.5 108.5t106.5 294.5q0 191 -105.5 297.5t-291.5 106.5z" />
    <glyph glyph-name="Dcaron.sc" horiz-adv-x="1366" 
d="M285 1604h200l152 -179l149 179h193l-264 -320h-160zM231 0v1151h394q273 0 432.5 -153.5t159.5 -422.5q0 -264 -160 -419.5t-432 -155.5h-394zM625 979h-203v-807h203q184 0 290.5 108.5t106.5 294.5q0 191 -105.5 297.5t-291.5 106.5z" />
    <glyph glyph-name="E.sc" horiz-adv-x="1243" 
d="M231 0v1151h846v-170h-657v-287h387v-172h-387v-350h717v-172h-906z" />
    <glyph glyph-name="Egrave.sc" horiz-adv-x="1243" 
d="M786 1290h-208l-224 307h226zM231 0v1151h846v-170h-657v-287h387v-172h-387v-350h717v-172h-906z" />
    <glyph glyph-name="Eacute.sc" horiz-adv-x="1243" 
d="M547 1290l209 307h225l-225 -307h-209zM231 0v1151h846v-170h-657v-287h387v-172h-387v-350h717v-172h-906z" />
    <glyph glyph-name="Ecircumflex.sc" horiz-adv-x="1243" 
d="M801 1284l-150 178l-151 -178h-201l270 320h160l264 -320h-192zM231 0v1151h846v-170h-657v-287h387v-172h-387v-350h717v-172h-906z" />
    <glyph glyph-name="Edieresis.sc" horiz-adv-x="1243" 
d="M356 1290v285h189v-285h-189zM754 1290v285h188v-285h-188zM231 0v1151h846v-170h-657v-287h387v-172h-387v-350h717v-172h-906z" />
    <glyph glyph-name="Emacron.sc" horiz-adv-x="1243" 
d="M973 1362h-647v160h647v-160zM231 0v1151h846v-170h-657v-287h387v-172h-387v-350h717v-172h-906z" />
    <glyph glyph-name="Ebreve.sc" horiz-adv-x="1243" 
d="M649 1423q65 0 99 42.5t34 103.5v26h156v-30q0 -128 -75.5 -208.5t-213.5 -80.5t-213.5 80.5t-75.5 208.5v30h156v-26q0 -61 34 -103.5t99 -42.5zM231 0v1151h846v-170h-657v-287h387v-172h-387v-350h717v-172h-906z" />
    <glyph glyph-name="Edotaccent.sc" horiz-adv-x="1243" 
d="M553 1290v293h192v-293h-192zM231 0v1151h846v-170h-657v-287h387v-172h-387v-350h717v-172h-906z" />
    <glyph glyph-name="Eogonek.sc" horiz-adv-x="1243" 
d="M231 0v1151h846v-170h-657v-287h387v-172h-387v-350h717v-172h-185q-56 -50 -73.5 -66.5t-49.5 -49.5t-42.5 -53.5t-10.5 -39.5q0 -61 80 -61h137v-168h-147q-124 0 -194 47t-70 145q0 35 12 66t41 62.5t49.5 50t65.5 54.5q11 9 16 13h-535z" />
    <glyph glyph-name="Ecaron.sc" horiz-adv-x="1243" 
d="M297 1604h201l151 -179l150 179h192l-264 -320h-160zM231 0v1151h846v-170h-657v-287h387v-172h-387v-350h717v-172h-906z" />
    <glyph glyph-name="F.sc" horiz-adv-x="1218" 
d="M231 0v1151h893v-172h-702v-291h403v-172h-403v-516h-191z" />
    </font>
</defs>
</svg>
