<?xml version="1.0" encoding="UTF-8"?>
<svg width="1078px" height="548px" viewBox="0 0 1078 548" version="1.1" xmlns="http://www.w3.org/2000/svg" xmlns:xlink="http://www.w3.org/1999/xlink">
    <!-- Generator: Sketch 54.1 (76490) - https://sketchapp.com -->
    <title>Fill 1</title>
    <desc>Created with Sketch.</desc>
    <g id="Desktop-+-Mobile" stroke="none" stroke-width="1" fill="none" fill-rule="evenodd">
        <g id="WAT-ECW-MS-StartSeite-Home" transform="translate(-60.000000, -4061.000000)" fill="#EFEFEF" stroke="#EFEFEF" stroke-width="51">
            <g id="waschen-ganz-einfach" transform="translate(86.000000, 3973.000000)">
                <path d="M251.850459,609.802463 C252.050529,609.822827 254.455536,610 258.663256,610 C294.473679,610 461.279853,597.310783 532.638109,367.825542 C602.333283,143.629002 763.829269,153.64434 772.325987,154.212514 C777.715369,154.212514 783.085995,154.418197 788.375342,154.799016 C898.611759,162.8288 984.958583,253.832341 984.958583,362.00125 C984.958583,476.570771 889.573186,569.779803 772.325987,569.779803 C699.644353,569.779803 632.75224,534.062232 593.357232,474.230872 L558.849346,495.927377 C605.819918,567.283097 685.616537,609.881885 772.325987,609.881885 C912.197754,609.881885 1026,498.678642 1026,362.00125 C1026,232.958568 922.957762,124.380329 791.42224,114.81505 C785.149216,114.354808 778.878275,114.138943 774.149541,114.187818 C772.244709,114.03101 573.095989,99.7166933 493.361891,356.174922 C423.664633,580.353133 262.210328,570.404998 253.674013,569.779803 C250.487483,569.779803 247.282197,569.710564 244.074827,569.563938 C130.232984,564.629582 41.0393331,473.457015 41.0393331,362.00125 C41.0393331,247.429693 136.426814,154.212514 253.674013,154.212514 C326.355647,154.212514 393.266516,189.928049 432.663609,249.759409 L467.16941,228.062904 C420.198839,156.709221 340.383463,114.110433 253.674013,114.110433 C113.802246,114.110433 0,225.311639 0,362.00125 C0,494.968201 106.407997,603.741941 242.232517,609.627327 C246.019256,609.794317 249.805995,609.851338 251.850459,609.802463 Z" id="Fill-1"></path>
            </g>
        </g>
    </g>
</svg>