<svg width="1078" height="548" xmlns="http://www.w3.org/2000/svg"><path d="M277.85 521.802c.2.02 2.606.198 6.813.198 35.81 0 202.617-12.69 273.975-242.174C628.333 55.629 789.83 65.644 798.326 66.213c5.39 0 10.76.205 16.05.586 110.236 8.03 196.583 99.033 196.583 207.202 0 114.57-95.386 207.779-212.633 207.779-72.682 0-139.574-35.718-178.969-95.55l-34.508 21.697c46.97 71.356 126.768 113.955 213.477 113.955 139.872 0 253.674-111.203 253.674-247.88 0-129.043-103.042-237.622-234.578-247.187-6.273-.46-12.544-.676-17.272-.627-1.905-.157-201.054-14.471-280.788 241.987-69.697 224.178-231.152 214.23-239.688 213.605-3.187 0-6.392-.07-9.6-.216C156.234 476.63 67.04 385.457 67.04 274c0-114.571 95.388-207.788 212.635-207.788 72.682 0 139.593 35.715 178.99 95.546l34.505-21.696C446.2 68.709 366.383 26.11 279.674 26.11 139.802 26.11 26 137.312 26 274.001c0 132.967 106.408 241.74 242.233 247.626 3.786.167 7.573.224 9.617.175z" fill="#EFEFEF" stroke="#EFEFEF" stroke-width="51" fill-rule="evenodd"/></svg>