<?xml version="1.0" encoding="UTF-8"?>
<svg width="16px" height="15px" viewBox="0 0 16 15" version="1.1" xmlns="http://www.w3.org/2000/svg" xmlns:xlink="http://www.w3.org/1999/xlink">
    <!-- Generator: Sketch 54.1 (76490) - https://sketchapp.com -->
    <title>icon-save-black</title>
    <desc>Created with Sketch.</desc>
    <g id="Page-1" stroke="none" stroke-width="1" fill="none" fill-rule="evenodd">
        <g id="icon-save-black" fill="#000000" fill-rule="nonzero">
            <path d="M4.5,0.38 L4.5,4.13 L4.5,4.13 C4.50542168,4.33595285 4.67397581,4.50007135 4.88,4.5 L10.13,4.5 C10.3321296,4.49474724 10.4947472,4.33212962 10.5,4.13 L10.5,0.38 L10.5,0.38 C10.5,0.170131795 10.6701318,3.85521638e-17 10.88,0 L11.88,0 C11.9808362,0.000382750489 12.077605,0.0398070367 12.15,0.11 L14.93,2.89 L14.93,2.89 C15.000193,2.96239505 15.0396172,3.05916375 15.04,3.16 L15.04,14.63 L15.04,14.63 C15.0347472,14.8321296 14.8721296,14.9947472 14.67,15 L0.38,15 C0.173975814,15.0000714 0.00542167707,14.8359528 0,14.63 L0,0.38 L4.21884749e-17,0.38 C1.64870324e-17,0.170131795 0.170131795,3.85521638e-17 0.38,0 L4.13,0 C4.33595285,0.00542167707 4.50007135,0.173975814 4.5,0.38 Z M7.88,0 L8.63,0 C8.83595285,0.00542167707 9.00007135,0.173975814 9,0.38 L9,2.63 L9,2.63 C8.99474724,2.83212962 8.83212962,2.99474724 8.63,3 L7.88,3 C7.67397581,3.00007135 7.50542168,2.83595285 7.5,2.63 L7.5,0.38 L7.5,0.38 C7.5,0.170131795 7.6701318,3.85521638e-17 7.88,0 Z M1.5,6.38 L1.5,13.13 L1.5,13.13 C1.50542168,13.3359528 1.67397581,13.5000714 1.88,13.5 L13.13,13.5 C13.3321296,13.4947472 13.4947472,13.3321296 13.5,13.13 L13.5,6.38 L13.5,6.38 C13.5000714,6.17397581 13.3359528,6.00542168 13.13,6 L1.88,6 C1.6701318,6 1.5,6.1701318 1.5,6.38 Z" id="Shape"></path>
        </g>
    </g>
</svg>