<?xml version="1.0" encoding="UTF-8"?>
<svg width="17px" height="17px" viewBox="0 0 17 17" version="1.1" xmlns="http://www.w3.org/2000/svg" xmlns:xlink="http://www.w3.org/1999/xlink">
    <!-- Generator: Sketch 54.1 (76490) - https://sketchapp.com -->
    <title>icon-search</title>
    <desc>Created with Sketch.</desc>
    <g id="Page-1" stroke="none" stroke-width="1" fill="none" fill-rule="evenodd">
        <g id="icon-search" transform="translate(-1.000000, 0.000000)" fill="#FFFFFF" fill-rule="nonzero">
            <path d="M11.62,3.61 C11.808924,3.79235668 11.9828219,3.9896639 12.14,4.2 C12.09,4.12 12,4.05 12,4 C12.312081,4.41245257 12.5707966,4.86268492 12.77,5.34 C12.77,5.25 12.7,5.16 12.67,5.08 C12.87173,5.57030176 13.0095282,6.08452448 13.08,6.61 C13.08,6.52 13.08,6.42 13.08,6.32 C13.1599304,6.86039367 13.1599304,7.40960633 13.08,7.95 C13.0848531,7.85339425 13.0848531,7.75660575 13.08,7.66 C13.0095282,8.18547552 12.87173,8.69969824 12.67,9.19 C12.67,9.1 12.74,9.02 12.77,8.93 C12.5693037,9.40034837 12.3106341,9.84378199 12,10.25 C12,10.18 12.11,10.11 12.16,10.03 C11.8263746,10.4517262 11.4360072,10.8252674 11,11.14 C11.0775158,11.0889628 11.151059,11.0321339 11.22,10.97 C10.8103231,11.2889003 10.3596163,11.551252 9.88,11.75 L10.14,11.65 C9.64969824,11.85173 9.13547552,11.9895282 8.61,12.06 L8.9,12.06 C8.36656028,12.1171591 7.82766061,12.0969503 7.3,12 L7.59,12 C7.06452448,11.9295282 6.55030176,11.79173 6.06,11.59 L6.32,11.69 C5.85212822,11.5177897 5.4084581,11.2858712 5,11 L5.22,11.17 C4.79051092,10.83472 4.41014304,10.4408877 4.09,10 C4.14103721,10.0775158 4.19786607,10.151059 4.26,10.22 C3.94109972,9.81032306 3.67874804,9.35961631 3.48,8.88 C3.5104965,8.96914956 3.54725472,9.05603262 3.59,9.14 C3.38045605,8.65168877 3.23912951,8.13685637 3.17,7.61 C3.16514689,7.70660575 3.16514689,7.80339425 3.17,7.9 C3.09997552,7.35892285 3.09997552,6.81107715 3.17,6.27 C3.16514689,6.36660575 3.16514689,6.46339425 3.17,6.56 C3.23912951,6.03314363 3.38045605,5.51831123 3.59,5.03 C3.59,5.12 3.51,5.2 3.48,5.29 C3.68267255,4.82784602 3.9448945,4.39417126 4.26,4 C4.19786607,4.06894102 4.14103721,4.14248425 4.09,4.22 C4.4068695,3.79458971 4.78031546,3.41441499 5.2,3.09 L5,3.26 C5.40967694,2.94109972 5.86038369,2.67874804 6.34,2.48 L6.08,2.59 C6.56831123,2.38045605 7.08314363,2.23912951 7.61,2.17 L7.32,2.17 C7.86039367,2.09006957 8.40960633,2.09006957 8.95,2.17 L8.66,2.17 C9.18685637,2.23912951 9.70168877,2.38045605 10.19,2.59 L9.93,2.48 C10.4096163,2.67874804 10.8603231,2.94109972 11.27,3.26 C11.1850921,3.19562238 11.0947526,3.13874193 11,3.09 C11.2103361,3.24717811 11.4076433,3.421076 11.59,3.61 C11.7991232,3.80558999 12.0736908,3.91613021 12.36,3.92 C12.644258,3.92071032 12.9173349,3.80932369 13.12,3.61 C13.32371,3.40614636 13.4356363,3.12813592 13.43,2.84 C13.4236683,2.55715935 13.3132994,2.28657755 13.12,2.08 C12.6138288,1.56547742 12.0300636,1.13355865 11.39,0.8 C10.7628259,0.470534062 10.0880186,0.241099591 9.39,0.12 C8.70402799,-0.00684661211 8.00294802,-0.0304406495 7.31,0.05 C6.9181097,0.0924466039 6.53021868,0.166012142 6.15,0.27 C5.75554519,0.381620837 5.37092,0.525437212 5,0.7 C4.3605743,1.01034067 3.77350815,1.41858781 3.26,1.91 C2.71975272,2.41270326 2.26094078,2.99633903 1.9,3.64 C1.55623287,4.26660767 1.30687682,4.94054292 1.16,5.64 C1.0059304,6.31510429 0.952019859,7.00920253 1,7.7 C1.0430687,8.09508728 1.11662124,8.48625308 1.22,8.87 C1.30923819,9.21104579 1.42286404,9.54523945 1.56,9.87 C1.69828862,10.2133265 1.85862281,10.547356 2.04,10.87 C2.25865285,11.218196 2.49913398,11.5521975 2.76,11.87 C2.97216221,12.1171717 3.20282833,12.3478378 3.45,12.56 C3.7654752,12.8238772 4.0996865,13.0645093 4.45,13.28 C4.79584534,13.4813139 5.15695355,13.6551808 5.53,13.8 C5.81491482,13.9205542 6.10923407,14.0175457 6.41,14.09 C7.09522102,14.2661486 7.80384703,14.3336368 8.51,14.29 C9.19266834,14.2483537 9.8660095,14.1103187 10.51,13.88 C10.884138,13.737973 11.2482941,13.570929 11.6,13.38 C11.9496461,13.1745878 12.2838639,12.9439775 12.6,12.69 C13.1830955,12.2091949 13.6860399,11.6387411 14.09,11 C14.4911004,10.4038688 14.798029,9.7495373 15,9.06 C15.0983116,8.67849108 15.1717989,8.29101264 15.22,7.9 C15.2459702,7.60073987 15.2526507,7.30011838 15.24,7 C15.2147444,5.56384002 14.7544849,4.16911431 13.92,3 C13.6851812,2.67883529 13.4278683,2.37473825 13.15,2.09 C12.9495947,1.88607802 12.6759122,1.77084329 12.39,1.77 C12.1045363,1.77302587 11.8316531,1.88792403 11.63,2.09 C11.426078,2.29040535 11.3108433,2.56408784 11.31,2.85 C11.3163317,3.13284065 11.4267006,3.40342245 11.62,3.61 Z" id="Path"></path>
            <path d="M11.62,12.15 L12.07,12.6 L13.16,13.68 L14.47,15 L15.6,16.14 C15.79,16.32 15.97,16.51 16.15,16.69 L16.15,16.69 C16.3516531,16.892076 16.6245363,17.0069741 16.91,17.01 C17.5119904,17.01 18,16.5219904 18,15.92 C17.9948829,15.6349741 17.8803014,15.362843 17.68,15.16 L17.23,14.71 L16.15,13.63 L14.84,12.31 L13.71,11.18 C13.52,11 13.34,10.81 13.16,10.63 L13.16,10.63 C12.7375022,10.2075022 12.0524979,10.2075022 11.63,10.63 C11.2075022,11.0524979 11.2075022,11.7375022 11.63,12.16 L11.62,12.15 Z" id="Path"></path>
        </g>
    </g>
</svg>