<?xml version="1.0" encoding="UTF-8"?>
<svg width="91px" height="16px" viewBox="0 0 91 16" version="1.1" xmlns="http://www.w3.org/2000/svg" xmlns:xlink="http://www.w3.org/1999/xlink">
    <!-- Generator: Sketch 54.1 (76490) - https://sketchapp.com -->
    <title>icon-dell-emc-white</title>
    <desc>Created with Sketch.</desc>
    <g id="Page-1" stroke="none" stroke-width="1" fill="none" fill-rule="evenodd">
        <g id="icon-dell-emc-white" fill="#FFFFFF" fill-rule="nonzero">
            <path d="M85.58,15.25 C88.39,15.25 90.58,13.84 91,10.82 L90.8,10.62 L90,10.62 L89.8,10.82 C89.5691384,12.9243157 87.6864938,14.4500608 85.58,14.24 C82.58,14.24 80.36,12.02 80.36,8 C80.36,3.98 82.57,1.76 85.58,1.76 C87.99,1.76 89.39,2.97 89.8,4.98 L90,5.18 L90.8,5.18 L91,4.98 C90.6,2.16 88.39,0.75 85.58,0.75 C82.16,0.75 79.15,3.17 79.15,8 C79.15,12.83 82.15,15.25 85.58,15.25 L85.58,15.25 Z M76.74,14.84 L76.74,1.16 L76.54,0.96 L75.13,0.96 L74.93,1.16 L69.71,13.43 L69.51,13.43 L64.29,1.16 L64.09,0.96 L62.68,0.96 L62.48,1.16 L62.48,14.84 L62.68,15.04 L63.48,15.04 L63.68,14.84 L63.68,3.17 L63.89,3.17 L68.89,14.84 L69.09,15.04 L70.09,15.04 L70.29,14.84 L75.29,3.17 L75.49,3.17 L75.49,14.84 L75.7,15.04 L76.5,15.04 L76.74,14.84 Z M59.87,14.84 L59.87,14.24 L59.67,14.04 L52.24,14.04 L52.03,13.84 L52.03,8.6 L52.24,8.4 L59.24,8.4 L59.44,8.2 L59.44,7.6 L59.24,7.4 L52.24,7.4 L52.03,7.19 L52.03,2.19 L52.24,1.99 L59.67,1.99 L59.87,1.79 L59.87,1.19 L59.67,0.99 L51.03,0.99 L50.83,1.19 L50.83,14.84 L51.03,15.04 L59.67,15.04 L59.87,14.84 Z" id="Shape"></path>
            <path d="M47.64,12.24 L47.64,15 L38.57,15 L38.57,1 L41.8,1 L41.8,12.24 L47.64,12.24 Z M38.57,1 L41.8,1 L38.57,1 Z M5.7,15 C8.90978451,15.0124418 11.7167428,12.8402435 12.51,9.73 L20.46,16 L28.46,9.78 L28.46,15 L37.53,15 L37.53,12.2 L31.6,12.2 L31.6,1 L28.41,1 L28.41,6.26 L20.78,12.26 L19.08,10.93 L22.73,8 L26.73,4.89 L24.46,3.11 L16.84,9.11 L15.13,7.78 L22.76,1.78 L20.46,0 L12.51,6.23 C11.7013385,3.13564328 8.8982314,0.982889929 5.7,1 L2.84217094e-14,1 L2.84217094e-14,15 L5.7,15 Z M3.19,12.2 L3.19,3.76 L5.7,3.76 C7.88273917,3.97225623 9.54768944,5.80696489 9.54768944,8 C9.54768944,10.1930351 7.88273917,12.0277438 5.7,12.24 L3.19,12.2 Z" id="Shape"></path>
        </g>
    </g>
</svg>