<?xml version="1.0" encoding="UTF-8"?>
<svg width="68px" height="48px" viewBox="0 0 68 48" version="1.1" xmlns="http://www.w3.org/2000/svg" xmlns:xlink="http://www.w3.org/1999/xlink">
    <!-- Generator: Sketch 54.1 (76490) - https://sketchapp.com -->
    <title>icon-question-blue</title>
    <desc>Created with Sketch.</desc>
    <g id="Page-1" stroke="none" stroke-width="1" fill="none" fill-rule="evenodd">
        <g id="icon-question-blue" fill="#0077C1" fill-rule="nonzero">
            <path d="M65.62,38.29 C69.7377942,30.9883314 68.4061594,21.8271774 62.38,16 C58.772671,12.4601822 53.9139701,10.4872334 48.86,10.51 C47.4854291,10.5108308 46.1146889,10.6549429 44.77,10.94 C40.6988104,4.86293581 34.1380135,0.908850145 26.8629879,0.147734881 C19.5879623,-0.613380383 12.3508341,1.89716239 7.11,7 C-0.854188232,14.7660822 -2.28548105,27.0509978 3.68,36.44 L1.54,44.75 C1.40142148,45.3240529 1.57632524,45.9286116 2,46.34 C2.43311461,46.7616829 3.05232902,46.9315892 3.64,46.79 L12.43,44.62 C16.0809578,46.605603 20.1740636,47.6374784 24.33,47.62 L24.33,47.62 C28.8533502,47.6337675 33.2916335,46.3909097 37.15,44.03 C43.4695139,48.801827 52.0503153,49.2684328 58.85,45.21 L65.22,46.78 C65.8028353,46.922456 66.4180199,46.7563939 66.85,46.34 C67.268265,45.9213466 67.4387145,45.3153039 67.3,44.74 L65.62,38.29 Z M34.54,41.68 C27.9757979,45.2858864 19.9985191,45.1719252 13.54,41.38 C13.2701125,41.2219007 12.9627838,41.1390256 12.65,41.14 C12.510388,41.1252593 12.369612,41.1252593 12.23,41.14 L5.57,42.84 L7.19,36.56 C7.31903282,36.1032837 7.25008053,35.6133596 7,35.21 C1.45175388,27.1211506 2.52345771,16.2142435 9.54,9.36 C13.9162287,5.06613551 19.9443568,2.88916218 26.0543222,3.39608578 C32.1642877,3.90300938 37.7512313,7.04364673 41.36,12 C42.0311635,12.9252749 42.6232536,13.9054014 43.13,14.93 C46.9883809,22.7776452 45.3531805,32.2173943 39.08,38.31 C38.5495088,38.8289594 37.9920711,39.3196381 37.41,39.78 C36.5053972,40.4886682 35.5456844,41.1240181 34.54,41.68 Z M62.12,38.45 L63.26,42.87 L59,41.81 C58.5267357,41.6918729 58.0255949,41.7790278 57.62,42.05 C52.2772733,45.5381736 45.3727873,45.5185251 40.05,42 C40.55,41.59 41.05,41.15 41.51,40.69 C48.6496529,33.7688083 50.6528875,23.0995808 46.51,14.06 C47.2942553,13.9396624 48.0865662,13.8794868 48.88,13.88 C53.0349399,13.8554984 57.0314532,15.4727925 60,18.38 C65.1009191,23.3122999 66.0827443,31.1294592 62.36,37.17 C62.1089883,37.5461642 62.022309,38.008454 62.12,38.45 L62.12,38.45 Z" id="Shape"></path>
            <path d="M23.77,30.76 C23.1290799,30.7817899 22.5073028,30.539586 22.05,30.09 C21.6120164,29.6112332 21.3818482,28.9782706 21.41,28.33 L21.41,24.11 C21.41,23.66 21.41,23.31 21.41,23.02 C21.4770685,22.6199184 21.6866354,22.2576162 22,22 C22.2821801,21.7132903 22.6234225,21.4914828 23,21.35 C23.5350823,21.1850458 24.0793424,21.051485 24.63,20.95 C25.1864705,20.8621292 25.7200522,20.6650099 26.2,20.37 C26.5404061,20.150893 26.8329452,19.8651571 27.06,19.53 C27.2541862,19.2243528 27.3898264,18.8852523 27.46,18.53 C27.535856,18.2019539 27.5760889,17.8666795 27.58,17.53 C27.6377608,16.5860539 27.2710518,15.6656143 26.58,15.02 C25.818444,14.3872643 24.8492818,14.0594594 23.86,14.1 C23.0563554,14.078166 22.2606835,14.2641672 21.55,14.64 C20.8348208,15.138696 20.3151801,15.870435 20.08,16.71 C19.9375926,17.2234482 19.6408723,17.6807466 19.23,18.02 C18.8512819,18.2714831 18.4044866,18.4006349 17.95,18.39 C17.3433162,18.3908992 16.7595885,18.1581244 16.32,17.74 C15.8313974,17.298582 15.5732114,16.6568053 15.62,16 C15.6392553,15.0712782 15.9275789,14.1680958 16.45,13.4 C16.9574289,12.6241201 17.6011445,11.9465247 18.35,11.4 C19.122754,10.8402238 19.9803204,10.4080644 20.89,10.12 C21.8090875,9.83106708 22.7665704,9.68272466 23.73,9.68 C24.896695,9.67238435 26.0563101,9.86170927 27.16,10.24 C28.1986798,10.5997769 29.1616289,11.1490647 30,11.86 C30.7830264,12.5162304 31.4229156,13.3263029 31.88,14.24 C32.3456409,15.1711695 32.585447,16.19891 32.58,17.24 C32.6529944,19.2126454 31.932669,21.1323127 30.58,22.57 C29.363625,23.8123649 27.8210766,24.6858979 26.13,25.09 L26.13,28.29 C26.1588186,28.9402042 25.9245214,29.5746089 25.48,30.05 C25.034638,30.515777 24.4142961,30.7733459 23.77,30.76 Z" id="Path"></path>
            <path d="M23.77,39.23 C23.074439,39.2399272 22.4041232,38.9696386 21.91,38.48 C21.4142732,38.0048282 21.1358217,37.3466701 21.14,36.66 C21.1309973,35.9723754 21.4102287,35.3123741 21.91,34.84 C22.9438339,33.8287711 24.5961661,33.8287711 25.63,34.84 C26.1297713,35.3123741 26.4090027,35.9723754 26.4,36.66 C26.4041783,37.3466701 26.1257268,38.0048282 25.63,38.48 C25.1358768,38.9696386 24.465561,39.2399272 23.77,39.23 Z" id="Path"></path>
        </g>
    </g>
</svg>