<?xml version="1.0" encoding="UTF-8"?>
<svg width="12px" height="12px" viewBox="0 0 12 12" version="1.1" xmlns="http://www.w3.org/2000/svg" xmlns:xlink="http://www.w3.org/1999/xlink">
    <!-- Generator: Sketch 54.1 (76490) - https://sketchapp.com -->
    <title>icon-clock-gray</title>
    <desc>Created with Sketch.</desc>
    <g id="Page-1" stroke="none" stroke-width="1" fill="none" fill-rule="evenodd">
        <g id="icon-clock-gray" fill="#000000" fill-rule="nonzero">
            <path d="M6,0 C2.6862915,-2.02906125e-16 4.05812251e-16,2.6862915 0,6 C-4.05812251e-16,9.3137085 2.6862915,12 6,12 C9.3137085,12 12,9.3137085 12,6 C12,4.40870106 11.367859,2.88257758 10.2426407,1.75735931 C9.11742242,0.632141042 7.59129894,9.74389576e-17 6,0 Z M6,0.86 C8.83874361,0.86 11.14,3.16125639 11.14,6 C11.14,8.83874361 8.83874361,11.14 6,11.14 C3.16125639,11.14 0.86,8.83874361 0.86,6 C0.857338476,4.63597306 1.39801791,3.32704698 2.36253245,2.36253245 C3.32704698,1.39801791 4.63597306,0.857338476 6,0.86 Z M6,2.36 C5.76251756,2.36 5.57,2.55251756 5.57,2.79 L5.57,6 C5.57187842,6.15380456 5.65576826,6.29489201 5.79,6.37 L8.2,7.76 C8.40510151,7.87607356 8.66524007,7.80993664 8.79,7.61 C8.91188967,7.39705045 8.84071793,7.12570821 8.63,7 L6.43,5.75 L6.43,2.75 C6.40928563,2.52826352 6.22269984,2.35903455 6,2.36 Z" id="Shape"></path>
        </g>
    </g>
</svg>