<?xml version="1.0" encoding="UTF-8"?>
<svg width="12px" height="7px" viewBox="0 0 12 7" version="1.1" xmlns="http://www.w3.org/2000/svg" xmlns:xlink="http://www.w3.org/1999/xlink">
    <!-- Generator: Sketch 54.1 (76490) - https://sketchapp.com -->
    <title>icon-arrow-left-blue</title>
    <desc>Created with Sketch.</desc>
    <g id="Page-1" stroke="none" stroke-width="1" fill="none" fill-rule="evenodd">
        <g id="icon-arrow-left-blue" fill="#0077C1">
            <path d="M3.39,7 C3.18125622,7.0000253 2.98194577,6.91305347 2.84,6.76 L0.22,4.07 C-0.0680372679,3.74458254 -0.0680372679,3.25541746 0.22,2.93 L2.84,0.24 C2.98194577,0.0869465315 3.18125622,-2.53029455e-05 3.39,1.66533454e-16 C3.60217848,0.00263565199 3.80461774,0.0894594606 3.95277503,0.241367566 C4.10093232,0.39327567 4.1826688,0.597821934 4.18,0.81 C4.18589384,1.01484786 4.12247055,1.21568827 4,1.38 L2.68,2.69 L11.22,2.69 C11.6673506,2.69 12.03,3.05264935 12.03,3.5 C12.03,3.94735065 11.6673506,4.31 11.22,4.31 L2.68,4.31 L4,5.62 C4.14045557,5.77757373 4.22176306,5.97907489 4.23,6.19 C4.23304053,6.41101971 4.14449898,6.6234477 3.98538415,6.77687985 C3.82626932,6.93031201 3.6107631,7.01107294 3.39,7 Z" id="In"></path>
        </g>
    </g>
</svg>