<?xml version="1.0" encoding="UTF-8"?>
<svg width="52px" height="52px" viewBox="0 0 52 52" version="1.1" xmlns="http://www.w3.org/2000/svg" xmlns:xlink="http://www.w3.org/1999/xlink">
    <!-- Generator: Sketch 54.1 (76490) - https://sketchapp.com -->
    <title>icon-logo</title>
    <desc>Created with Sketch.</desc>
    <g id="Page-1" stroke="none" stroke-width="1" fill="none" fill-rule="evenodd">
        <g id="icon-logo">
            <path d="M46.48,11.83 C46.7258474,11.443777 46.8317427,10.9848976 46.78,10.53 C46.72745,10.0826298 46.5184777,9.6682272 46.19,9.36 C44.67,7.87 43.19,6.44 41.77,5.09 C41.399245,4.73263856 40.9049391,4.53205065 40.39,4.53 C39.9457599,4.53507174 39.5134639,4.67452207 39.15,4.93 L38.55,5.36 C36.5260141,6.95773452 34.3288952,8.32296719 32,9.43 C30.009464,10.2598265 27.8765267,10.6945653 25.72,10.71 C23.1279391,10.7025589 20.5795219,10.0422402 18.31,8.79 C16.8375694,7.86660543 15.4155414,6.86517727 14.05,5.79 C13.54,5.4 13.05,5.07 12.84,4.89 C12.4720741,4.63595398 12.0370608,4.49674972 11.59,4.49 C11.0750609,4.49205065 10.580755,4.69263856 10.21,5.05 C8.74,6.46 7.25,7.89 5.75,9.36 C5.42152229,9.6682272 5.21255005,10.0826298 5.16,10.53 C5.11121108,10.9860602 5.22065833,11.4450325 5.47,11.83 C5.58,12.02 5.77,12.33 6.01,12.71 C6.78,13.93 8,15.89 8.6,17 C9.1243849,16.8219201 9.63850541,16.6149365 10.14,16.38 C9.46,15.06 8.14,12.95 7.4,11.76 L6.92,11 L6.74,10.7 L7,10.48 C8.44,9.06 9.89,7.67 11.3,6.33 L11.57,6.07 L11.86,6.31 C12.03,6.44 15.86,9.31 17.42,10.17 C18.5585979,10.7943473 19.758202,11.3003256 21,11.68 C22.5486725,12.1387502 24.1548197,12.3744531 25.77,12.38 C28.0829589,12.3433529 30.3687616,11.8753399 32.51,11 C35.0028713,9.77255912 37.3763918,8.31630889 39.6,6.65 L40.09,6.31 L40.15,6.31 L40.43,6.16 L40.66,6.37 C42,7.61 43.45,9 45,10.48 L45.25,10.72 L45,11 L44.48,11.82 C43.71,13.03 42.48,15 41.76,16.37 C42.26211,16.6064521 42.7761321,16.8167339 43.3,17 C43.85,16 45.01,14.14 45.8,12.89 L46.48,11.83 Z" id="Path" fill="#0077BF" fill-rule="nonzero"></path>
            <path d="M12,21.62 C11.49,21.84 11,22.05 10.44,22.23 C10.9454353,24.5831655 10.9454353,27.0168345 10.44,29.37 C10.96,29.61 11.44,29.86 11.98,30.13 C12.6420529,27.3327394 12.6488976,24.4203416 12,21.62 Z" id="Path" fill="#0077BF" fill-rule="nonzero"></path>
            <path d="M40,30.13 C40.49,29.86 41,29.61 41.51,29.38 C41.0002595,27.0171794 41.0002595,24.5728206 41.51,22.21 C41,22.03 40.51,21.83 40,21.61 C39.3396929,24.4116192 39.3396929,27.3283808 40,30.13 L40,30.13 Z" id="Path" fill="#0077BF" fill-rule="nonzero"></path>
            <path d="M23,2 L23.11,1.72 L28.83,1.72 L28.94,1.99 L29.03,2.44 C29.61,5.29 30.03,7.22 30.36,8.18 C30.8778323,8.00953213 31.3853499,7.80919625 31.88,7.58 C31.75,7.17 31.64,6.76 31.54,6.35 L31.54,6.35 C31.54,6.19 30.72,2.44 30.65,2.02 C30.6123606,0.961810017 29.7857732,0.100781508 28.73,0.02 L23.21,0.02 C22.1542268,0.100781508 21.3276394,0.961810017 21.29,2.02 C21.22,2.44 20.43,6.19 20.4,6.35 L20.4,6.35 C20.3,6.76 20.19,7.17 20.06,7.58 C20.56,7.81 21.06,8.01 21.59,8.19 C21.91,7.19 22.36,5.24 22.92,2.38 L23,2 Z" id="Path" fill="#00A4E4" fill-rule="nonzero"></path>
            <path d="M20.38,50 C20.4076026,50.5748065 20.6687823,51.1134002 21.1030343,51.4910106 C21.5372863,51.868621 22.1069293,52.0524818 22.68,52 L29.27,52 C29.8420721,52.0525186 30.4106841,51.8683826 30.8433737,51.4904878 C31.2760632,51.112593 31.5350496,50.5739357 31.56,50 C31.73,49.06 32.06,47.19 32.08,47.06 C32.2027814,46.1996854 32.3798007,45.3479885 32.61,44.51 C32.09,44.31 31.56,44.14 31.02,43.99 C30.73,45.06 30.45,46.73 30.44,46.75 L30.44,46.75 L30.44,47.01 C30.28,47.9 30.12,48.81 29.96,49.71 C29.96,49.82 29.96,49.92 29.9,50 L29.81,50.26 L29.54,50.26 L29.27,50.26 L22.71,50.26 L22.43,50.26 L22.17,50.26 L22.09,50 C22.0585473,49.9054755 22.0351308,49.8084643 22.02,49.71 C21.87,48.85 21.7,47.92 21.5,46.77 L21.5,46.77 C21.3663172,45.8351756 21.1725831,44.9099283 20.92,44 C20.3840136,44.1514812 19.8565819,44.3317427 19.34,44.54 C19.64,45.7 20.05,48.08 20.28,49.44 C20.32,49.66 20.35,49.86 20.38,50 Z" id="Path" fill="#00A4E4" fill-rule="nonzero"></path>
            <path d="M15.17,34.7 C13.8744619,33.5601669 12.4517181,32.5736417 10.93,31.76 C8.32513469,30.4632795 5.54102177,29.5633301 2.67,29.09 L2.05,29 L2.05,29 L1.9,29 L1.64,28.91 L1.64,28.63 C1.63505372,28.5801223 1.63505372,28.5298777 1.64,28.48 L1.64,28.48 C1.64,26.75 1.71,24.91 1.75,22.7 L1.75,22.7 C1.75,22.64 1.75,22.59 1.75,22.54 L1.75,22.28 L2,22.11 L2.18,22.06 L2.18,22.06 C2.24,22.06 8.3,21.26 11.18,19.85 C13.0444644,18.9523843 14.7717657,17.7941159 16.31,16.41 C17.3911534,15.4239206 18.3512258,14.3127878 19.17,13.1 C18.65,12.91 18.17,12.7 17.62,12.46 C15.7866035,15.076553 13.2629325,17.1328775 10.33,18.4 C7.74,19.57 2.16,20.4 1.83,20.4 C0.762996304,20.5584303 -0.00814913026,21.5028669 0.05,22.58 C0.05,23.58 0.05,24.66 0.05,25.68 C0.05,26.7 0.05,27.48 0.05,28.37 C-0.0891373085,29.4326815 0.634134468,30.4161547 1.69,30.6 L2.3,30.72 C3.97,31.05 7.89,31.83 10.44,33.36 C13.1071341,34.847409 15.3908799,36.9359921 17.11,39.46 C17.65,39.25 18.18,39.06 18.72,38.89 C17.7449067,37.3294537 16.549191,35.9181724 15.17,34.7 Z" id="Path" fill="#00A4E4" fill-rule="nonzero"></path>
            <path d="M49.57,30.74 L50.25,30.6 C50.7782791,30.5374735 51.2598822,30.2670617 51.5882939,29.8485714 C51.9167056,29.4300811 52.0648636,28.8979972 52,28.37 C52,26.54 51.93,24.73 51.89,22.58 C51.9342548,21.4901778 51.1329969,20.5495708 50.05,20.42 C49.69,20.37 44.26,19.68 41.65,18.42 C38.7000199,17.1077225 36.1502342,15.0375312 34.26,12.42 C33.75,12.66 33.26,12.87 32.71,13.06 C33.5592348,14.3599126 34.5669829,15.5490554 35.71,16.6 C37.3652414,18.0649412 39.2548854,19.2413207 41.3,20.08 C44.0362928,20.9911831 46.8519265,21.6440352 49.71,22.03 C49.7662512,22.020296 49.8237488,22.020296 49.88,22.03 L50.12,22.11 L50.12,22.37 C50.12,22.37 50.12,22.47 50.12,22.53 L50.12,22.53 C50.17,24.85 50.2,26.64 50.23,28.31 C50.2349463,28.3598777 50.2349463,28.4101223 50.23,28.46 L50.23,28.75 L49.95,28.84 L49.81,28.84 L49.81,28.84 L49.18,28.96 C46.3608258,29.4331613 43.6233645,30.305243 41.05,31.55 C37.9861255,33.1147701 35.3655689,35.4258121 33.43,38.27 L33.7,38.35 C34.14,38.48 34.58,38.64 35.03,38.82 C36.8405236,36.2573873 39.2689543,34.1935651 42.09,32.82 C44.4847642,31.8114808 46.9983771,31.1125082 49.57,30.74 Z" id="Path" fill="#00A4E4" fill-rule="nonzero"></path>
            <path d="M43.58,34.42 C43.58,34.42 43.65,34.52 43.68,34.58 L43.12,34.84 C42.82,35 42.51,35.16 42.2,35.35 L42.08,35.18 C42.5653958,34.8988181 43.0661824,34.6450862 43.58,34.42" id="Path" fill="#FFFFFF" fill-rule="nonzero"></path>
            <path d="M41.88,16.19 C42.11,16.32 42.34,16.43 42.55,16.53 C42.8203053,16.6553711 43.0974037,16.7655427 43.38,16.86 C43.349469,16.9078411 43.322721,16.9579936 43.3,17.01 C42.77,16.82 42.3,16.62 41.78,16.39 L41.88,16.19" id="Path" fill="#FFFFFF" fill-rule="nonzero"></path>
            <path d="M40,21.61 C40.49,21.83 41,22.03 41.51,22.21 C41.5137172,22.2732788 41.5137172,22.3367212 41.51,22.4 C41.19,22.2933333 40.9,22.1833333 40.64,22.07 C40.42,21.99 40.22,21.89 40,21.79 C39.9953378,21.7300906 39.9953378,21.6699094 40,21.61" id="Path" fill="#FFFFFF" fill-rule="nonzero"></path>
            <path d="M5.23,42 C6.53,43.36 7.87,44.77 9.23,46.18 C9.6274346,46.6289408 10.1908868,46.8962194 10.79,46.92 C11.2392547,46.9077852 11.6759622,46.7691479 12.05,46.52 L12.23,46.39 C14.5060268,44.7820594 16.9586636,43.4399873 19.54,42.39 C21.5333228,41.7285475 23.6197966,41.3909304 25.72,41.39 C28.0301838,41.4108455 30.3247397,41.7713704 32.53,42.46 C35.0250076,43.3944148 37.3802389,44.6662398 39.53,46.24 L39.87,46.47 C40.2411765,46.7173663 40.6741705,46.8559243 41.12,46.87 C41.7240694,46.8549174 42.2939076,46.5863312 42.69,46.13 L46.69,41.95 C47.4925484,41.2082989 47.5842855,39.9720316 46.9,39.12 C46.68,38.79 46.22,38.12 45.7,37.43 C44.89,36.31 44,35.08 43.56,34.43 C43.0461824,34.6550862 42.5453958,34.9088181 42.06,35.19 C42.59,35.98 43.65,37.46 44.47,38.59 C44.94,39.24 45.34,39.79 45.54,40.08 L45.62,40.21 L45.76,40.46 L45.59,40.69 L45.49,40.81 L45.49,40.81 C44.18,42.19 42.84,43.59 41.49,44.98 L41.49,44.98 L41.36,45.09 L41.15,45.26 L40.9,45.13 L40.81,45.07 C40.32,44.73 39.31,44.07 38.03,43.27 C36.4575532,42.3001264 34.7801634,41.5117532 33.03,40.92 C30.6500902,40.1582646 28.1687584,39.7604424 25.67,39.74 C23.3532988,39.7395364 21.0523957,40.1213309 18.86,40.87 C16.1303202,41.9853552 13.531404,43.3971536 11.11,45.08 L11.02,45.13 L10.77,45.26 L10.55,45.08 L10.43,44.98 L10.43,44.98 C9.08,43.58 7.73,42.17 6.43,40.81 L6.33,40.69 L6.15,40.47 L6.29,40.21 L6.37,40.08 L6.37,40.08 L7.37,38.7 C8.04,37.76 8.87,36.59 9.45,35.75 L9.13,35.56 C8.76492808,35.3507969 8.38757704,35.163791 8,35 C7.49,35.74 6.75,36.76 6.12,37.65 C5.66,38.3 5.25,38.86 5.05,39.16 C4.35171722,40.0060215 4.43049177,41.2489089 5.23,42 L5.23,42 Z" id="Path" fill="#0077BF" fill-rule="nonzero"></path>
            <path d="M10.05,16.22 L10.14,16.4 C9.63808351,16.62815 9.12396998,16.828454 8.6,17 C8.57553239,16.940573 8.54539299,16.883643 8.51,16.83 C8.85104227,16.7246324 9.18504794,16.5977102 9.51,16.45 L10.04,16.2" id="Path" fill="#FFFFFF" fill-rule="nonzero"></path>
            <path d="M12,21.62 C12,21.69 12,21.75 12,21.82 C11.56,22.02 11,22.23 10.44,22.43 C10.4456875,22.3667944 10.4456875,22.3032056 10.44,22.24 C10.97,22.05 11.49,21.84 12,21.62" id="Path" fill="#FFFFFF" fill-rule="nonzero"></path>
            <path d="M10.47,29.18 C10.99,29.4066667 11.48,29.6466667 11.94,29.9 L12.01,29.9 C12.01,29.96 12.01,30.03 12.01,30.09 C11.51,29.82 11.01,29.57 10.47,29.33 C10.47,29.27 10.47,29.2 10.52,29.14" id="Path" fill="#FFFFFF" fill-rule="nonzero"></path>
            <path d="M26,17 C21.59,17 18,18.77 18,20.94 L18,31.06 C18,33.23 21.59,35 26,35 C30.41,35 34,33.23 34,31.06 L34,20.94 C34,18.77 30.41,17 26,17 Z M26,18.69 C30.15,18.69 32.29,20.26 32.29,20.94 C32.29,21.62 30.15,23.19 26,23.19 C21.85,23.19 19.71,21.61 19.71,20.94 C19.71,20.27 21.85,18.69 26,18.69 Z M32.29,31.06 C32.29,31.74 30.15,33.31 26,33.31 C21.85,33.31 19.71,31.74 19.71,31.06 L19.71,28.43 C23.6626179,30.439378 28.3373821,30.439378 32.29,28.43 L32.29,31.06 Z M26,28.25 C21.85,28.25 19.71,26.67 19.71,26 L19.71,23.37 C23.664935,25.3696838 28.335065,25.3696838 32.29,23.37 L32.29,26 C32.29,26.67 30.15,28.25 26,28.25 Z" id="Storage" fill="#074E84"></path>
        </g>
    </g>
</svg>