<?xml version="1.0" encoding="UTF-8"?>
<svg width="81px" height="81px" viewBox="0 0 81 81" version="1.1" xmlns="http://www.w3.org/2000/svg" xmlns:xlink="http://www.w3.org/1999/xlink">
    <!-- Generator: Sketch 54.1 (76490) - https://sketchapp.com -->
    <title>icon-logo-gray</title>
    <desc>Created with Sketch.</desc>
    <g id="Page-1" stroke="none" stroke-width="1" fill="none" fill-rule="evenodd">
        <g id="icon-logo-gray" transform="translate(-1.000000, 0.000000)" fill="#B8B8B8">
            <path d="M73.4,18.43 C73.772234,17.8331137 73.9374176,17.1302045 73.87,16.43 C73.8055389,15.7304941 73.4976508,15.0757896 73,14.58 C70.64,12.26 68.32,10.03 66.11,7.93 C65.5311871,7.37537529 64.761634,7.06397475 63.96,7.06 C63.258141,7.0581558 62.5731152,7.27484765 62,7.68 L61.07,8.36 C59,9.9 54.59,13.13 50.78,14.69 C47.6784077,15.9890125 44.3525651,16.6684492 40.99,16.69 C36.9562743,16.6698582 32.9920123,15.6383937 29.46,13.69 C27.170971,12.2666335 24.9579486,10.7245274 22.83,9.07 C22,8.47 21.32,8 20.93,7.68 C20.3652521,7.28073891 19.6916147,7.06433726 19,7.06 C18.1979617,7.06191826 17.4276732,7.37361639 16.85,7.93 C14.61,10.06 12.29,12.29 9.96,14.58 C9.43544747,15.0545219 9.09543441,15.69913 9,16.4 C8.93630615,17.1012687 9.10496778,17.8040255 9.48,18.4 L10.34,19.77 C11.53,21.67 13.45,24.72 14.34,26.49 C15.17,26.2 15.97,25.87 16.73,25.49 C15.73,23.42 13.62,20.14 12.47,18.3 L11.72,17.1 L11.44,16.64 L11.83,16.26 C14.08,14.05 16.33,11.88 18.52,9.81 L19,9.46 L19.45,9.83 C19.72,10.03 25.7,14.52 28.1,15.83 C29.8955097,16.8097231 31.7893109,17.5974103 33.75,18.18 C36.1652284,18.8967354 38.6706748,19.2637967 41.19,19.27 C44.7695569,19.2120439 48.3068289,18.4862757 51.62,17.13 C54.95,15.83 60.56,11.85 62.62,10.35 L63.38,9.82 L63.48,9.76 L64,9.53 L64.36,9.87 C66.45,11.87 68.71,14.03 71.05,16.32 L71.44,16.7 L71.16,17.16 L70.35,18.44 C69.14,20.33 67.19,23.39 66.11,25.53 C66.87,25.88 67.66,26.21 68.47,26.53 C69.34,24.91 71.14,22.08 72.37,20.13 L73.4,18.43 Z" id="Path" fill-rule="nonzero"></path>
            <path d="M19.64,33.68 C18.86,34.02 18.05,34.34 17.22,34.68 C18.0051571,38.3484588 18.0051571,42.1415412 17.22,45.81 C18.02,46.17 18.83,46.57 19.61,46.99 C20.6517754,42.6156614 20.6620458,38.0589903 19.64,33.68 Z" id="Path" fill-rule="nonzero"></path>
            <path d="M63.23,46.93 C64,46.52 64.79,46.13 65.59,45.77 C64.78456,42.0902253 64.78456,38.2797747 65.59,34.6 C64.79,34.32 64.01,34 63.24,33.66 C62.206336,38.0225526 62.2029122,42.5658944 63.23,46.93 L63.23,46.93 Z" id="Path" fill-rule="nonzero"></path>
            <path d="M36.83,3 L37,2.6 L45.9,2.6 L46.07,3.03 C46.1432836,3.25491331 46.1968196,3.48578737 46.23,3.72 C47.13,8.16 47.82,11.17 48.29,12.72 C49.0924533,12.4516611 49.8802118,12.1412309 50.65,11.79 C50.45,11.14 50.28,10.5 50.13,9.86 L50.13,9.86 C50.08,9.61 48.86,3.76 48.75,3.11 C48.44,1.28 47.24,0.11 45.75,0.11 L37.15,0.11 C35.66,0.11 34.46,1.33 34.15,3.16 C34.04,3.81 32.82,9.66 32.76,9.91 L32.76,9.91 C32.62,10.55 32.44,11.19 32.24,11.84 C33.0120783,12.1938614 33.8033093,12.5043445 34.61,12.77 C35.4547812,9.80702659 36.1490032,6.80318138 36.69,3.77 C36.7198596,3.51056007 36.7666258,3.25334637 36.83,3 Z" id="Path" fill-rule="nonzero"></path>
            <path d="M32.74,77.89 C32.7881284,78.7825355 33.1962545,79.6173711 33.8710292,80.203558 C34.5458038,80.789745 35.4295025,81.077137 36.32,81 L41.32,81 L46.62,81 C47.5074594,81.0829196 48.3903094,80.7999792 49.0642474,80.2166548 C49.7381854,79.6333303 50.1448016,78.800178 50.19,77.91 C50.45,76.44 50.97,73.53 51.01,73.32 C51.195908,71.9710096 51.4664416,70.6350412 51.82,69.32 C51.01,69.02 50.19,68.74 49.35,68.51 C48.89,70.17 48.45,72.78 48.45,72.81 L48.45,72.81 L48.38,73.22 C48.14,74.6 47.89,76.02 47.64,77.42 C47.6179175,77.5722806 47.5844912,77.7226991 47.54,77.87 L47.41,78.28 L46.98,78.34 C46.8402327,78.3514143 46.6997673,78.3514143 46.56,78.34 L41.48,78.34 L36.41,78.34 C36.2602412,78.35203 36.1097588,78.35203 35.96,78.34 L35.56,78.27 L35.43,77.88 C35.3866942,77.7290056 35.3532898,77.5753457 35.33,77.42 C35.09,76.08 34.84,74.63 34.53,72.85 L34.53,72.85 C34.3199686,71.3919138 34.0160029,69.9489116 33.62,68.53 C32.8,68.77 31.98,69.05 31.16,69.37 C31.63,71.19 32.27,74.89 32.63,77 C32.65,77.36 32.71,77.67 32.74,77.89 Z" id="Path" fill-rule="nonzero"></path>
            <path d="M24.63,54.05 C22.6022825,52.2749894 20.3777596,50.7382903 18,49.47 C13.9508515,47.4542214 9.6229737,46.0554135 5.16,45.32 L4.16,45.13 L4.16,45.13 L4,45.06 L3.58,44.92 L3.58,44.48 C3.57455074,44.4034302 3.57455074,44.3265698 3.58,44.25 L3.58,44.25 C3.58,41.55 3.68,38.68 3.75,35.25 L3.75,35.25 C3.74465527,35.1634157 3.74465527,35.0765843 3.75,34.99 L3.82,34.6 L4.19,34.47 L4.47,34.4 L4.47,34.4 C4.57,34.4 13.99,33.15 18.54,30.95 C21.4497123,29.5600338 24.1440438,27.7581996 26.54,25.6 C28.2314087,24.0570473 29.7290523,22.3142737 31,20.41 C30.19,20.11 29.38,19.78 28.59,19.41 C25.7320091,23.4849154 21.7994998,26.6870026 17.23,28.66 C13.23,30.49 4.51,31.73 4,31.81 C2.29201504,31.9830118 1.01315513,33.4545766 1.08,35.17 C1,36.78 1,38.42 1,40 C1,41.38 1,42.8 1,44.2 C0.797539219,45.8780272 1.96807568,47.4121394 3.64,47.66 L4.58,47.86 C7.19,48.37 13.29,49.57 17.26,51.96 C21.418269,54.2791833 24.9790491,57.5352428 27.66,61.47 C28.49,61.14 29.32,60.84 30.16,60.58 C28.6459221,58.1446121 26.7827512,55.9445206 24.63,54.05 Z" id="Path" fill-rule="nonzero"></path>
            <path d="M78.22,47.88 L79.22,47.66 C80.9314086,47.450997 82.1645245,45.9162556 82,44.2 C82,41.34 81.9,38.52 81.83,35.2 C81.9170943,33.5042167 80.6840695,32.0272011 79,31.81 C78.44,31.74 70,30.66 65.92,28.73 C61.3301335,26.6856936 57.3576334,23.4718306 54.4,19.41 C53.61,19.78 52.81,20.11 52,20.41 C53.3401349,22.4430349 54.9366089,24.2949446 56.75,25.92 C59.3201369,28.2064432 62.2626073,30.0361863 65.45,31.33 C69,32.8 75.75,34 78.5,34.38 L78.77,34.38 L79.15,34.52 L79.21,34.91 C79.2160648,34.9965606 79.2160648,35.0834394 79.21,35.17 L79.21,35.17 C79.28,38.79 79.34,41.57 79.38,44.17 C79.385223,44.2465777 79.385223,44.3234223 79.38,44.4 L79.38,44.85 L78.95,44.99 L78.73,45.05 L78.73,45.05 L77.73,45.24 C73.3367135,45.9589037 69.0696831,47.3060325 65.06,49.24 C60.27607,51.7031842 56.1953984,55.3400055 53.2,59.81 L53.61,59.93 C54.3,60.14 54.99,60.4 55.69,60.68 C58.5133749,56.691618 62.2965999,53.479316 66.69,51.34 C70.42,49.43 75.69,48.38 78.22,47.88 Z" id="Path" fill-rule="nonzero"></path>
            <path d="M68.88,53.61 L69.05,53.86 C68.73,54 68.44,54.13 68.17,54.27 C67.7,54.52 67.17,54.77 66.73,55.06 L66.55,54.79 C67.3,54.37 68.08,53.97 68.88,53.61" id="Path" fill-rule="nonzero"></path>
            <path d="M66.24,25.23 L67.24,25.75 C67.61,25.92 68.04,26.09 68.53,26.27 L68.4,26.5 C67.59,26.21 66.8,25.88 66.04,25.5 C66.04,25.4 66.14,25.3 66.2,25.2" id="Path" fill-rule="nonzero"></path>
            <path d="M63.23,33.66 C64,34 64.78,34.32 65.58,34.6 C65.5743886,34.6965852 65.5743886,34.7934148 65.58,34.89 C65.07,34.72 64.58,34.55 64.21,34.38 C63.84,34.21 63.56,34.1 63.21,33.95 L63.27,33.66" id="Path" fill-rule="nonzero"></path>
            <path d="M9.15,65.35 L15.38,71.86 C15.9986572,72.5581423 16.8776536,72.970511 17.81,73 C18.5244111,72.9931091 19.2206166,72.7738044 19.81,72.37 L20.1,72.18 C25,69 28.83,66.91 31.44,66 C34.542407,64.9680744 37.7904743,64.4413608 41.06,64.44 C44.6627706,64.4724985 48.2411321,65.0351975 51.68,66.11 C55.68,67.29 60.68,70.71 62.61,71.99 L63.14,72.35 C63.7293834,72.7538044 64.4255889,72.9731091 65.14,72.98 C66.0776799,72.9518811 66.9614966,72.5353281 67.58,71.83 C69.78,69.54 71.82,67.41 73.81,65.32 C75.0587008,64.1595504 75.2025377,62.2330081 74.14,60.9 C73.79,60.39 73.08,59.41 72.26,58.27 C71.01,56.54 69.62,54.61 68.93,53.58 C68.13,53.94 67.35,54.34 66.6,54.76 C67.37,56 69,58.33 70.3,60.1 C71,61.1 71.65,62 72,62.42 C72.0465387,62.4860554 72.0867181,62.5563693 72.12,62.63 L72.34,63.01 L72.07,63.36 L71.92,63.55 L71.92,63.55 C69.92,65.7 67.78,67.89 65.7,70.05 L65.7,70.05 C65.6423897,70.1127551 65.5787504,70.1696956 65.51,70.22 L65.17,70.49 L64.79,70.29 C64.7375392,70.2701478 64.6898402,70.2394842 64.65,70.2 C63.89,69.66 62.31,68.58 60.32,67.4 C57.8632334,65.877226 55.2392833,64.6424259 52.5,63.72 C48.7803831,62.5368645 44.9031806,61.9232551 41,61.9 C37.3941219,61.902174 33.8130972,62.4967593 30.4,63.66 C26,65.17 20,69.06 18.3,70.22 L18.17,70.31 L17.78,70.51 L17.43,70.23 L17.25,70.06 L17.25,70.06 C15.15,67.87 13.06,65.69 11.04,63.56 L10.88,63.38 L10.59,63 L10.81,62.61 C10.8496851,62.5378063 10.8930763,62.4677127 10.94,62.4 L10.94,62.4 L12.48,60.24 C13.48,58.78 14.82,56.96 15.72,55.66 L15.23,55.35 C14.6410347,55.0095036 14.0334113,54.7023533 13.41,54.43 C12.61,55.58 11.47,57.18 10.49,58.56 C9.76,59.56 9.14,60.45 8.81,60.91 C7.74244719,62.2504642 7.89079492,64.187711 9.15,65.35 Z" id="Path" fill-rule="nonzero"></path>
            <path d="M16.65,25.27 C16.65,25.37 16.75,25.46 16.79,25.55 C16.03,25.9 15.23,26.23 14.4,26.55 C14.4,26.46 14.31,26.37 14.26,26.28 C14.7943297,26.1139389 15.3185482,25.9169396 15.83,25.69 L16.65,25.3" id="Path" fill-rule="nonzero"></path>
            <path d="M19.64,33.68 C19.64,33.78 19.69,33.88 19.71,33.99 C18.9172898,34.346317 18.1061375,34.6600961 17.28,34.93 L17.22,34.64 C18.05,34.34 18.86,34.02 19.64,33.64" id="Path" fill-rule="nonzero"></path>
            <path d="M17.3,45.45 C18.12,45.81 18.87,46.18 19.6,46.57 L19.7,46.63 C19.6825125,46.734567 19.6591421,46.8380647 19.63,46.94 C18.85,46.52 18.04,46.12 17.24,45.76 L17.3,45.45" id="Path" fill-rule="nonzero"></path>
            <path d="M41.5,26.48 C34.63,26.48 29,29.24 29,32.62 L29,48.38 C29,51.76 34.59,54.52 41.46,54.52 C48.33,54.52 54,51.76 54,48.38 L54,32.62 C54,29.24 48.37,26.48 41.5,26.48 Z M41.5,29.11 C47.96,29.11 51.29,31.56 51.29,32.62 C51.29,33.68 47.96,36.12 41.5,36.12 C35.04,36.12 31.71,33.66 31.71,32.62 C31.71,31.58 35,29.11 41.5,29.11 Z M51.29,48.38 C51.29,49.44 47.96,51.89 41.5,51.89 C35.04,51.89 31.71,49.44 31.71,48.38 L31.71,44.29 C37.861487,47.4196468 45.138513,47.4196468 51.29,44.29 L51.29,48.38 Z M41.5,44 C35.04,44 31.71,41.54 31.71,40.5 L31.71,36.4 C37.8638154,39.5199206 45.1361846,39.5199206 51.29,36.4 L51.29,40.5 C51.29,41.54 48,44 41.5,44 Z" id="Storage"></path>
        </g>
    </g>
</svg>