<?xml version="1.0" encoding="UTF-8"?>
<svg width="75px" height="32px" viewBox="0 0 75 32" version="1.1" xmlns="http://www.w3.org/2000/svg" xmlns:xlink="http://www.w3.org/1999/xlink">
    <!-- Generator: Sketch 54.1 (76490) - https://sketchapp.com -->
    <title>icon-hp-white</title>
    <desc>Created with Sketch.</desc>
    <g id="Page-1" stroke="none" stroke-width="1" fill="none" fill-rule="evenodd">
        <g id="icon-hp-white" fill="#FFFFFF" fill-rule="nonzero">
            <path d="M24.06,5.89 L1.6,5.89 L1.6,1.64 L24.06,1.64 L24.06,5.89 Z M25.66,0 L0,0 L0,7.53 L25.66,7.53 L25.66,0 Z" id="path3346"></path>
            <g id="g3348" transform="translate(0.000000, 12.000000)">
                <polyline id="path3350" points="1.6 8 0 8 0 0.45 1.6 0.45 1.6 3.45 4.47 3.45 4.47 0.45 6.07 0.45 6.07 8 4.47 8 4.47 4.85 1.6 4.85 1.6 8"></polyline>
            </g>
            <g id="g3352" transform="translate(6.000000, 14.000000)">
                <path d="M2.5,2.67 L4.42,2.67 C4.42,2.12 4.16,1.73 3.53,1.73 C3.06,1.73 2.65,1.94 2.5,2.67 Z M3.72,6.1 C2.97753418,6.14246464 2.25285556,5.86248277 1.73180583,5.33185493 C1.2107561,4.80122708 0.944019557,4.07156923 1,3.33 C0.936273773,2.61259082 1.17183454,1.90073613 1.65091932,1.36294926 C2.13000411,0.825162381 2.81002337,0.509251352 3.53,0.49 C5.1,0.49 5.87,1.57 5.87,3.17 L5.87,3.77 L2.5,3.77 C2.64115711,4.46324187 3.30031628,4.92465329 4,4.82 C4.51768509,4.83024071 5.02530511,4.67620429 5.45,4.38 L5.51,4.38 L5.51,5.63 C4.98623043,5.96530457 4.37120109,6.12954536 3.75,6.1 L3.72,6.1 Z" id="path3354"></path>
            </g>
            <g id="g3356" transform="translate(12.000000, 14.000000)">
                <polyline id="path3358" points="4 2.82 3.22 6 1.81 6 0.21 0.69 0.21 0.63 1.74 0.63 2.61 3.8 3.44 0.63 4.69 0.63 5.53 3.8 6.41 0.63 7.89 0.63 7.89 0.69 6.28 6 4.88 6 4 2.82"></polyline>
            </g>
            <g id="g3360" transform="translate(20.000000, 12.000000)">
                <path d="M2.49,8.1 C1.22,8.1 0.7,7.58 0.7,6.36 L0.7,0.45 L2.26,0.45 L2.26,6.25 C2.26,6.63 2.4,6.76 2.7,6.76 C2.82249298,6.75210542 2.94347389,6.72858136 3.06,6.69 L3.06,6.69 L3.06,8 C2.87053346,8.0669607 2.67094945,8.1007885 2.47,8.1" id="path3362"></path>
            </g>
            <g id="g3364" transform="translate(23.000000, 14.000000)">
                <path d="M2,2.67 L4,2.67 C4,2.12 3.74,1.73 3.12,1.73 C2.84484787,1.69635195 2.56807363,1.77842617 2.35574412,1.95663129 C2.14341462,2.13483641 2.01458236,2.39318194 2,2.67 Z M3.22,6.1 C2.47416842,6.14849827 1.74395701,5.87117905 1.2183459,5.33981308 C0.692734798,4.80844711 0.423383263,4.07525927 0.48,3.33 C0.41333358,2.61360624 0.646508235,1.90161478 1.12404006,1.363444 C1.60157188,0.82527321 2.28076304,0.509042877 3,0.49 C4.57,0.49 5.35,1.57 5.35,3.17 L5.35,3.77 L2,3.77 C2.14044585,4.44584491 2.77459345,4.90190996 3.46,4.82 C4.00857189,4.85399793 4.55219259,4.69867773 5,4.38 L5,4.38 L5,5.63 C4.48098095,5.96763923 3.86834107,6.1321768 3.25,6.1 L3.22,6.1 Z" id="path3366"></path>
            </g>
            <g id="g3368" transform="translate(28.000000, 13.000000)">
                <path d="M6.78,1.61 L7.94,1.61 L7.94,2.89 L6.78,2.89 L6.78,5.07 C6.78,5.54 6.96,5.76 7.43,5.76 C7.58949859,5.76342392 7.7484216,5.73975453 7.9,5.69 L7.9,5.69 L7.9,6.94 C7.5792183,7.05389028 7.24030282,7.10811675 6.9,7.1 C5.64,7.1 5.15,6.5 5.15,5.1 L5.15,2.89 L3.15,2.89 L3.15,5.07 C3.15,5.54 3.33,5.76 3.8,5.76 C3.95949859,5.76342392 4.1184216,5.73975453 4.27,5.69 L4.27,5.69 L4.27,6.94 C3.9492183,7.05389028 3.61030282,7.10811675 3.27,7.1 C2.01,7.1 1.52,6.5 1.52,5.1 L1.52,2.89 L0.71,2.89 L0.71,1.61 L1.52,1.61 L1.52,0.14 L3.07,0.14 L3.07,1.61 L5.07,1.61 L5.07,0.14 L6.62,0.14 L6.62,1.61" id="path3370"></path>
            </g>
            <g id="g3372" transform="translate(38.000000, 12.000000)">
                <path d="M3.18,4.14 C3.49974673,4.18310841 3.82187397,4.07963668 4.05670614,3.85838985 C4.2915383,3.63714302 4.41400012,3.3217457 4.39,3 C4.41980444,2.67426174 4.30037503,2.352567 4.06522706,2.12519252 C3.8300791,1.89781804 3.50455275,1.7892663 3.18,1.83 L2.18,1.83 L2.18,4.14 L3.18,4.14 Z M6,3 C6.03778801,3.71427331 5.75766157,4.40867387 5.23482223,4.89678587 C4.7119829,5.38489787 3.99999655,5.61671331 3.29,5.53 L2.17,5.53 L2.17,8 L0.57,8 L0.57,0.45 L3.31,0.45 C4.02042648,0.368927659 4.73033835,0.606180189 5.24926959,1.09810385 C5.76820082,1.59002751 6.04302204,2.28625802 6,3 L6,3 Z" id="path3374"></path>
            </g>
            <g id="g3376" transform="translate(44.000000, 14.000000)">
                <path d="M3.44,4.29 L3.44,3.83 C3.1687973,3.70060509 2.87028233,3.63884337 2.57,3.65 C2.07,3.65 1.76,3.84 1.76,4.28 C1.76,4.72 2.07,4.92 2.53,4.92 C2.93888029,4.93300105 3.30824312,4.67728832 3.44,4.29 L3.44,4.29 Z M3.44,5.45 C3.09550065,5.85787986 2.58365136,6.08618674 2.05,6.07 C1.56205977,6.10693603 1.08130056,5.93550507 0.726817707,5.59817461 C0.372334849,5.26084415 0.177289876,4.78917112 0.19,4.3 C0.206871305,3.79670453 0.431518711,3.32289415 0.810499906,2.99128561 C1.1894811,2.65967706 1.68891892,2.49991287 2.19,2.55 C2.58657531,2.55405714 2.98054395,2.6146677 3.36,2.73 L3.36,2.64 C3.36,2.06 3.04,1.81 2.2,1.81 C1.68183962,1.81049466 1.17361797,1.95224355 0.73,2.22 L0.67,2.22 L0.67,0.94 C1.22375145,0.643965379 1.84208537,0.489381897 2.47,0.49 C4.05,0.49 4.91,1.26 4.91,2.61 L4.91,6 L3.48,6 L3.48,5.47 L3.44,5.45 Z" id="path3378"></path>
            </g>
            <g id="g3380" transform="translate(49.000000, 14.000000)">
                <path d="M0.78,3.3 C0.737336765,2.5530012 1.01125257,1.82257571 1.53458141,1.28782879 C2.05791026,0.753081857 2.78225448,0.463467099 3.53,0.49 C4.05147642,0.463818467 4.56735123,0.607701918 5,0.9 L5,2.26 L4.94,2.26 C4.59853206,1.9891837 4.17582141,1.84123497 3.74,1.84 C3.35762378,1.82988742 2.98915288,1.98366932 2.72741154,2.26260535 C2.46567019,2.54154138 2.33561168,2.919039 2.37,3.3 C2.33534029,3.68009248 2.46564266,4.05675775 2.72776208,4.33418341 C2.9898815,4.61160908 3.35855389,4.76305578 3.74,4.75 C4.17772541,4.74995175 4.60186291,4.59796914 4.94,4.32 L5,4.32 L5,5.69 C4.57013095,5.98021107 4.05810609,6.12399887 3.54,6.1 C2.79319963,6.12943439 2.06869163,5.84214922 1.54499632,5.30893218 C1.02130102,4.77571515 0.747115622,4.04614885 0.79,3.3" id="path3382"></path>
            </g>
            <g id="g3384" transform="translate(55.000000, 12.000000)">
                <polyline id="path3386" points="1.53 5.54 1.53 8 0 8 0 0.45 1.56 0.45 1.56 4.73 3.13 2.61 4.9 2.61 4.9 2.67 3 5.11 4.89 7.91 4.89 8 3.09 8 1.53 5.56"></polyline>
            </g>
            <g id="g3388" transform="translate(60.000000, 14.000000)">
                <path d="M3.36,4.29 L3.36,3.83 C3.09233567,3.70066543 2.79706502,3.6388646 2.5,3.65 C1.99,3.65 1.68,3.84 1.68,4.28 C1.68,4.72 1.99,4.92 2.45,4.92 C2.86085629,4.93980155 3.23391284,4.68153164 3.36,4.29 L3.36,4.29 Z M3.36,5.45 C3.01148916,5.8582629 2.49653731,6.086313 1.96,6.07 C1.47205977,6.10693603 0.991300565,5.93550507 0.636817707,5.59817461 C0.282334849,5.26084415 0.0872898759,4.78917112 0.1,4.3 C0.116871305,3.79670453 0.341518711,3.32289415 0.720499906,2.99128561 C1.0994811,2.65967706 1.59891892,2.49991287 2.1,2.55 C2.49669953,2.55251671 2.89088849,2.61316117 3.27,2.73 L3.27,2.64 C3.27,2.06 2.95,1.81 2.11,1.81 C1.59183962,1.81049466 1.08361797,1.95224355 0.64,2.22 L0.58,2.22 L0.58,0.94 C1.13375145,0.643965379 1.75208537,0.489381897 2.38,0.49 C3.97,0.49 4.83,1.26 4.83,2.61 L4.83,6 L3.41,6 L3.41,5.47 L3.36,5.45 Z" id="path3390"></path>
            </g>
            <g id="g3392" transform="translate(66.000000, 14.000000)">
                <path d="M1.53,1.48 C1.72614755,0.937269261 2.23321996,0.568849467 2.81,0.55 C2.98207921,0.545154148 3.15302144,0.579342593 3.31,0.65 L3.31,2.17 L3.31,2.17 C3.0899378,2.08570656 2.85559982,2.04495213 2.62,2.05 C2.12460721,2.04362398 1.69922838,2.4009422 1.62,2.89 L1.62,6 L0,6 L0,0.61 L1.51,0.61 L1.51,1.48" id="path3394"></path>
            </g>
            <g id="g3396" transform="translate(69.000000, 12.000000)">
                <path d="M4.44,6.16 L4.44,4.43 C4.22757055,4.08253005 3.84720651,3.87332983 3.44,3.88 C2.76,3.88 2.3,4.39 2.3,5.3 C2.3,6.21 2.76,6.71 3.44,6.71 C3.84720651,6.71667017 4.22757055,6.50746995 4.44,6.16 L4.44,6.16 Z M4.44,7.42 C4.0634292,7.88936658 3.4801742,8.14360594 2.88,8.1 C1.54,8.1 0.68,6.84 0.68,5.3 C0.68,3.76 1.54,2.49 2.88,2.49 C3.45247851,2.44987917 4.010895,2.67916276 4.39,3.11 L4.39,0.45 L6,0.45 L6,8 L4.49,8 L4.49,7.44 L4.44,7.42 Z" id="path3398"></path>
            </g>
            <g id="g3400" transform="translate(0.000000, 22.000000)">
                <polyline id="path3402" points="0 0.43 4.55 0.43 4.55 1.35 1 1.35 1 3.65 4.22 3.65 4.22 4.54 1 4.54 1 7.05 4.55 7.05 4.55 8 0 8 0 0.43"></polyline>
            </g>
            <g id="g3404" transform="translate(5.000000, 24.000000)">
                <path d="M3.32,0.55 C4.48,0.55 5.13,1.34 5.13,2.63 L5.13,6 L4.13,6 L4.13,2.65 C4.18812678,2.34076833 4.09732154,2.02221227 3.88488479,1.79010545 C3.67244803,1.55799863 3.36315708,1.43941254 3.05,1.47 C2.43924331,1.47405653 1.90493905,1.88192237 1.74,2.47 L1.74,6 L0.74,6 L0.74,0.7 L1.74,0.7 L1.74,1.47 C2.0637964,0.917356777 2.65954482,0.581293564 3.3,0.59" id="path3406"></path>
            </g>
            <g id="g3408" transform="translate(10.000000, 23.000000)">
                <path d="M2.76,1.66 L4.09,1.66 L4.09,2.52 L2.76,2.52 L2.76,5.37 C2.76,5.98 3.07,6.18 3.62,6.18 C3.76975036,6.18433698 3.91898874,6.16059451 4.06,6.11 L4.06,6.11 L4.06,7 C3.86622349,7.07763071 3.6586871,7.11505531 3.45,7.11 C2.24,7.11 1.75,6.55 1.75,5.51 L1.75,2.52 L0.86,2.52 L0.86,1.66 L1.75,1.66 L1.75,0.25 L2.75,0.25 L2.75,1.66" id="path3410"></path>
            </g>
            <g id="g3412" transform="translate(14.000000, 24.000000)">
                <path d="M1.73,2.79 L4.32,2.79 C4.32,2.01 3.9,1.41 3.1,1.41 C2.3,1.41 1.88,2 1.73,2.79 Z M3.28,6.07 C2.5675526,6.09913534 1.8772732,5.8189624 1.38666919,5.30152848 C0.89606517,4.78409455 0.653007802,4.07988887 0.72,3.37 C0.72,1.71 1.72,0.55 3.09,0.55 C4.46,0.55 5.26,1.6 5.26,3.16 L5.26,3.61 L1.7,3.61 C1.69873545,4.05333331 1.88262283,4.47706279 2.20729298,4.77894906 C2.53196312,5.08083534 2.96792944,5.23346106 3.41,5.2 C3.93553175,5.22100818 4.45080775,5.05043406 4.86,4.72 L4.86,4.72 L4.86,5.6 C4.38966288,5.93736849 3.81786525,6.10326039 3.24,6.07 L3.28,6.07 Z" id="path3414"></path>
            </g>
            <g id="g3416" transform="translate(20.000000, 24.000000)">
                <path d="M1.4,1.48 C1.59652834,0.941884501 2.10712703,0.582869801 2.68,0.58 C2.85380583,0.569027154 3.02790186,0.596336336 3.19,0.66 L3.19,1.66 L3.19,1.66 C2.99671024,1.58068805 2.78881827,1.54319933 2.58,1.55 C2.00931506,1.5667039 1.53091238,1.98635538 1.44,2.55 L1.44,6 L0.44,6 L0.44,0.7 L1.44,0.7 L1.44,1.52" id="path3418"></path>
            </g>
            <g id="g3420" transform="translate(24.000000, 24.000000)">
                <path d="M2.35,5.17 C3.35,5.17 3.88,4.39 3.88,3.31 C3.88,2.23 3.32,1.46 2.35,1.46 C1.79532552,1.47215302 1.29547011,1.79764027 1.06,2.3 L1.06,4.3 C1.28482138,4.81569068 1.78763847,5.15479988 2.35,5.17 L2.35,5.17 Z M2.51,0.55 C4.06,0.55 4.88,1.84 4.88,3.31 C4.88,4.78 4.06,6.07 2.51,6.07 C1.94514793,6.07026324 1.41112424,5.8124587 1.06,5.37 L1.06,8 L0.06,8 L0.06,0.66 L1.06,0.66 L1.06,1.26 C1.40911732,0.813789778 1.94344741,0.552152286 2.51,0.55 L2.51,0.55 Z" id="path3422"></path>
            </g>
            <g id="g3424" transform="translate(30.000000, 24.000000)">
                <path d="M1,1.48 C1.19778957,0.93844886 1.71346153,0.578677725 2.29,0.58 C2.46050818,0.569849084 2.63117114,0.597155157 2.79,0.66 L2.79,1.66 L2.79,1.66 C2.59319556,1.58074237 2.38205809,1.54328249 2.17,1.55 C1.60084432,1.57057326 1.12454952,1.98837572 1.03,2.55 L1.03,6 L0,6 L0,0.7 L1,0.7 L1,1.52" id="path3426"></path>
            </g>
            <g id="g3428" transform="translate(33.000000, 22.000000)">
                <path d="M1.23,0.52 C1.54479331,0.559898112 1.7807851,0.827688342 1.7807851,1.145 C1.7807851,1.46231166 1.54479331,1.73010189 1.23,1.77 C0.987832846,1.80069319 0.749730167,1.68872966 0.618904416,1.48264321 C0.488078665,1.27655676 0.488078665,1.01344324 0.618904416,0.807356793 C0.749730167,0.601270342 0.987832846,0.489306806 1.23,0.52" id="path3430"></path>
            </g>
            <polygon id="path3432" points="33.74 30 34.74 30 34.74 24.7 33.74 24.7"></polygon>
            <g id="g3434" transform="translate(35.000000, 24.000000)">
                <path d="M3.21,2.87 C3.96,3.11 4.78,3.42 4.78,4.43 C4.78,5.44 3.91,6.07 2.78,6.07 C2.15099302,6.10079489 1.52824532,5.93286293 1,5.59 L1,4.64 L1,4.64 C1.47379044,5.04085898 2.07974397,5.2511605 2.7,5.23 C3.25,5.23 3.7,5.01 3.7,4.55 C3.7,4.09 3.29,3.98 2.47,3.7 C1.65,3.42 0.93,3.18 0.93,2.18 C0.94100254,1.70822163 1.14992033,1.26282389 1.50565485,0.952745134 C1.86138937,0.642666381 2.33113566,0.496501326 2.8,0.55 C3.36254029,0.530487227 3.91752029,0.684066599 4.39,0.99 L4.39,1.99 L4.39,1.99 C4.00500843,1.64448418 3.5159818,1.43691173 3,1.4 C2.38,1.4 2,1.67 2,2.05 C2,2.43 2.38,2.59 3.21,2.87" id="path3436"></path>
            </g>
            <g id="g3438" transform="translate(40.000000, 24.000000)">
                <path d="M1.65,2.79 L4.23,2.79 C4.23,2.01 3.82,1.41 3.01,1.41 C2.2,1.41 1.79,2 1.65,2.79 Z M3.19,6.07 C2.4775526,6.09913534 1.7872732,5.8189624 1.29666919,5.30152848 C0.80606517,4.78409455 0.563007802,4.07988887 0.63,3.37 C0.63,1.71 1.63,0.55 3,0.55 C4.37,0.55 5.17,1.6 5.17,3.16 L5.17,3.61 L1.61,3.61 C1.61171792,4.05237185 1.79651079,4.4742911 2.12047794,4.77552372 C2.4444451,5.07675634 2.87867174,5.23041663 3.32,5.2 C3.84553175,5.22100818 4.36080775,5.05043406 4.77,4.72 L4.77,4.72 L4.77,5.6 C4.29966288,5.93736849 3.72786525,6.10326039 3.15,6.07 L3.19,6.07 Z" id="path3440"></path>
            </g>
        </g>
    </g>
</svg>