<?xml version="1.0" encoding="UTF-8"?>
<svg width="15px" height="17px" viewBox="0 0 15 17" version="1.1" xmlns="http://www.w3.org/2000/svg" xmlns:xlink="http://www.w3.org/1999/xlink">
    <!-- Generator: Sketch 54.1 (76490) - https://sketchapp.com -->
    <title>icon-trash-gray</title>
    <desc>Created with Sketch.</desc>
    <g id="Page-1" stroke="none" stroke-width="1" fill="none" fill-rule="evenodd">
        <g id="icon-trash-gray" fill="#A3A3A3" fill-rule="nonzero">
            <path d="M7.52,-2.12639151e-17 C6.88540522,-0.00484799679 6.2681188,0.206793061 5.77,0.6 C5.42210981,0.923561693 5.02773889,1.19321702 4.6,1.4 C4.42838835,1.46619057 4.31115851,1.62640469 4.3,1.81 L0,1.81 L0,2.72 L15,2.72 L15,1.81 L10.7,1.81 C10.6888415,1.62640469 10.5716117,1.46619057 10.4,1.4 C9.96603283,1.19351076 9.56502039,0.923922568 9.21,0.6 C8.73108446,0.214000727 8.1351014,0.00240911019 7.52,-2.12639151e-17 Z M7.52,0.91 C7.93840106,0.89615815 8.34625643,1.04284298 8.66,1.32 C8.84,1.46 9.04,1.64 9.28,1.81 L5.7,1.81 C5.95,1.64 6.15,1.46 6.33,1.32 C6.66011431,1.0370107 7.08563337,0.890403293 7.52,0.91 L7.52,0.91 Z M0.91,3.17 L0.91,14.51 C0.86686352,15.1892913 1.1014551,15.8569751 1.56,16.36 C2.06829324,16.815486 2.73905424,17.0462854 3.42,17 L11.6,17 C12.274798,17.0454065 12.9390363,16.8143671 13.44,16.36 C13.8985449,15.8569751 14.1331365,15.1892913 14.09,14.51 L14.09,3.17 L0.91,3.17 Z M1.82,4.08 L13.18,4.08 L13.18,14.51 C13.224631,14.9467009 13.0912344,15.3829438 12.81,15.72 C12.4713316,15.9982418 12.0363638,16.1312485 11.6,16.09 L3.42,16.09 C2.97717626,16.1344552 2.53480687,16.0013847 2.19,15.72 C1.90876561,15.3829438 1.77536902,14.9467009 1.82,14.51 L1.82,4.08 Z M3.82,6.57 L3.82,13.57 L4.73,13.57 L4.73,6.57 L3.82,6.57 Z M7.01,6.57 L7.01,13.57 L8,13.57 L8,6.57 L7.01,6.57 Z M10.19,6.57 L10.19,13.57 L11.1,13.57 L11.1,6.57 L10.19,6.57 Z" id="Shape"></path>
        </g>
    </g>
</svg>