<?xml version="1.0" encoding="UTF-8" standalone="no"?>
<!DOCTYPE svg  PUBLIC '-//W3C//DTD SVG 1.1//EN'  'http://www.w3.org/Graphics/SVG/1.1/DTD/svg11.dtd'>
<svg xmlns="http://www.w3.org/2000/svg" version="1.1">
<defs>
<font id="FakeNormal" horiz-adv-x="833">
<font-face units-per-em="1000" x-height="700" bbox="-30 -179 1055 891.114" font-family="Fake Normal" font-weight="400" cap-height="700" panose-1="2 0 5 4 0 0 0 2 0 4" unicode-range="U+0020-0451" underline-position="-150" descent="-250" ascent="750" underline-thickness="50"/>
<missing-glyph/>
<glyph unicode=" " glyph-name="space" horiz-adv-x="475"/>
<glyph d="M224 37q0 17 -12.5 29.5t-29.5 12.5t-29.5 -12.5t-12.5 -29.5q0 -18 12.5 -30t29.5 -12t29.5 12t12.5 30zM212 674v-378q0 -13 -8.5 -22t-21.5 -9t-21 8.5t-8 22.5v379q0 13 8.5 21.5t21.5 8.5t21 -8.5t8 -22.5z" unicode="!" glyph-name="exclam" horiz-adv-x="364"/>
<glyph d="M184 674v-134q0 -13 -8.5 -22t-21.5 -9t-21 8.5t-8 22.5v135q0 13 8.5 21.5t21.5 8.5t21 -8.5t8 -22.5zM314 674v-134q0 -13 -8.5 -22t-21.5 -9t-21 8.5t-8 22.5v135q0 13 8.5 21.5t21.5 8.5t21 -8.5t8 -22.5z" unicode='&quot;' glyph-name="quotedbl" horiz-adv-x="434"/>
<glyph d="M153 444q-28 0 -28 28q0 12 8.5 20.5t20.5 7.5h167l39 181q1 13 11 19.5t21 4.5q26 -8 20 -32l-37 -173h192l39 181q1 13 11 19.5t21 4.5q26 -8 20 -32l-37 -173h153q12 1 20.5 -7.5t8.5 -20.5q0 -28 -28 -28h-166l-38 -178h153q12 1 20.5 -7.5t8.5 -20.5q0 -28 -28 -28 h-166l-41 -194q-6 -27 -34 -21q-11 2 -16.5 11.5t-2.5 20.5l39 183h-191l-41 -194q-6 -27 -34 -21q-11 2 -16.5 11.5t-2.5 20.5l39 183h-155q-28 0 -28 28q0 12 8.5 20.5t20.5 7.5h166l39 178h-156zM363 444l-38 -178h191l39 178h-192z" unicode="#" glyph-name="numbersign" horiz-adv-x="878"/>
<glyph d="M338 0v-35q0 -13 -8.5 -22t-21.5 -9t-21 8.5t-8 22.5v30q-71 3 -123 35.5t-77 84.5q-6 10 -3 22t14 18q25 14 40 -13q18 -36 58.5 -61.5t90.5 -29.5v342l-11 5q-118 55 -118 158q0 57 36.5 96.5t92.5 49.5v34q0 13 8.5 21.5t21.5 8.5t21 -8.5t8 -22.5v-32q68 -8 102 -56 q18 -25 0 -40q-20 -17 -45 8q-24 24 -57 31v-218l37 -17q74 -34 108 -80.5t34 -114.5q0 -83 -49.5 -142.5t-129.5 -73.5zM458 210q0 57 -26.5 91t-89.5 63l-4 2v-311q55 13 87.5 55t32.5 100zM209 560q0 -37 16.5 -61t53.5 -43v188q-32 -8 -51 -30.5t-19 -53.5z" unicode="$" glyph-name="dollar" horiz-adv-x="617"/>
<glyph d="M658 663l-501 -659q-19 -21 -40 -4q-9 7 -10 18t6 19l499 658q7 9 19 10.5t20 -5.5q21 -16 7 -37zM201 439q58 0 94.5 37.5t36.5 93.5q0 57 -36.5 96t-94.5 39q-57 0 -94 -39t-37 -96q0 -58 36.5 -94.5t94.5 -36.5zM201 652q34 0 55.5 -23.5t21.5 -58.5q0 -33 -22 -55.5 t-55 -22.5q-34 0 -55.5 22.5t-21.5 55.5q0 34 22 58t55 24zM584 -5q58 0 94.5 37.5t36.5 93.5q0 57 -36.5 96t-94.5 39q-57 0 -94 -39t-37 -96q0 -58 36.5 -94.5t94.5 -36.5zM584 208q34 0 55.5 -23.5t21.5 -58.5q0 -33 -22 -55.5t-55 -22.5q-34 0 -55.5 22.5t-21.5 55.5 q0 34 22 58t55 24z" unicode="%" glyph-name="percent" horiz-adv-x="785"/>
<glyph d="M544 477v-160h149q12 1 20.5 -7.5t8.5 -20.5q0 -28 -28 -28h-150v-99q0 -111 101 -111q47 0 77 28q23 22 41 -1q16 -22 -11 -45q-46 -38 -108 -38q-100 0 -137 73q-60 -73 -188 -73q-92 0 -140.5 49.5t-48.5 117.5q0 56 37.5 95.5t89.5 45.5q-52 18 -86 67t-35 112 q-2 101 63 159.5t180 58.5h127q12 1 20.5 -7.5t8.5 -20.5q0 -28 -28 -28h-116q-89 0 -142.5 -38t-53.5 -117q0 -78 54.5 -125t143.5 -47h92v161q0 13 8.5 21.5t21.5 8.5t21 -8.5t8 -22.5zM327 51q71 0 114.5 32t43.5 86v92h-180q-59 0 -87.5 -28t-28.5 -71q0 -52 37 -81.5 t101 -29.5z" unicode="&amp;" glyph-name="ampersand" horiz-adv-x="823"/>
<glyph d="M184 674v-134q0 -13 -8.5 -22t-21.5 -9t-21 8.5t-8 22.5v135q0 13 8.5 21.5t21.5 8.5t21 -8.5t8 -22.5z" unicode="&apos;" glyph-name="quotesingle" horiz-adv-x="304"/>
<glyph d="M227 -50q-127 182 -127 407t123 390q9 12 23 12.5t21 -5.5q19 -16 0 -44q-108 -162 -108 -350q0 -109 24 -191t87 -182q15 -25 -3 -40q-24 -20 -40 3z" unicode="(" glyph-name="parenleft" horiz-adv-x="332"/>
<glyph d="M105 749q127 -182 127 -407t-123 -390q-9 -12 -23 -12.5t-21 5.5q-19 16 0 44q108 159 108 350q0 109 -25.5 195t-85.5 178q-15 25 3 40q24 20 40 -3z" unicode=")" glyph-name="parenright" horiz-adv-x="332"/>
<glyph d="M147 608q-20 20 0 40q9 8 21 8t20 -9l61 -62q9 -7 9 -19.5t-8 -20.5q-20 -20 -40 0zM419 337q-19 19 0 39q8 8 20.5 8t19.5 -9l62 -61q9 -8 9 -20t-9 -20q-19 -20 -39 0zM520 605l-66 -67q-22 -22 -44 -1q-20 21 2 43l67 67q21 21 42 0t-1 -42zM251 335l-60 -59 q-22 -22 -43 -1q-20 21 1 42l61 61q9 9 21 9t21 -9q20 -20 -1 -43zM118 433q-28 0 -28 28q0 12 8.5 20.5t20.5 7.5h107q12 1 20.5 -7.5t8.5 -20.5q0 -28 -28 -28h-109zM442 433q-28 0 -28 28q0 12 8.5 20.5t20.5 7.5h107q12 1 20.5 -7.5t8.5 -20.5q0 -28 -28 -28h-109z M364 674v-114q0 -13 -8.5 -22t-21.5 -9t-21 8.5t-8 22.5v115q0 13 8.5 21.5t21.5 8.5t21 -8.5t8 -22.5zM364 353v-104q0 -13 -8.5 -22t-21.5 -9t-21 8.5t-8 22.5v105q0 13 8.5 21.5t21.5 8.5t21 -8.5t8 -22.5z" unicode="*" glyph-name="asterisk" horiz-adv-x="669"/>
<glyph d="M389 590v-235h236q12 1 20.5 -7.5t8.5 -20.5q0 -28 -28 -28h-237v-234q0 -13 -8.5 -22t-21.5 -9t-21 8.5t-8 22.5v234h-237q-28 0 -28 28q0 12 8.5 20.5t20.5 7.5h236v236q0 13 8.5 21.5t21.5 8.5t21 -8.5t8 -22.5z" unicode="+" glyph-name="plus" horiz-adv-x="719"/>
<glyph d="M143 -1q-18 0 -28 10t-10 26q0 18 12.5 29.5t31.5 11.5q47 0 47 -61q0 -53 -28 -107q-14 -29 -32 -29q-21 0 -21 20q0 4 13 40q15 38 15 60z" unicode="," glyph-name="comma" horiz-adv-x="296"/>
<glyph d="M113 299q-28 0 -28 28q0 12 8.5 20.5t20.5 7.5h207q12 1 20.5 -7.5t8.5 -20.5q0 -28 -28 -28h-209z" unicode="-" glyph-name="hyphen" horiz-adv-x="435"/>
<glyph d="M184 37q0 -18 -12.5 -30t-29.5 -12t-29.5 12t-12.5 30q0 17 12.5 29.5t29.5 12.5t29.5 -12.5t12.5 -29.5z" unicode="." glyph-name="period" horiz-adv-x="284"/>
<glyph d="M530 729l-395 -781q-13 -26 -38 -13q-10 5 -13 15.5t3 21.5l394 779q4 11 15.5 15t21.5 -1q23 -13 12 -36z" unicode="/" glyph-name="slash" horiz-adv-x="615"/>
<glyph d="M445 -5q-152 0 -251 100t-99 262q0 152 102.5 250.5t255.5 98.5q154 0 251.5 -99t97.5 -250q0 -156 -100 -259t-257 -103zM449 51q129 0 211.5 84.5t82.5 214.5q0 119 -69 201l-425 -425q80 -75 200 -75zM449 650q-127 0 -211 -82.5t-84 -210.5q0 -109 57 -189l423 423 q-78 59 -185 59z" unicode="0" glyph-name="zero" horiz-adv-x="897"/>
<glyph d="M292 673v-647q0 -14 -8.5 -22.5t-21.5 -8.5q-29 0 -29 31v584l-136 -123q-11 -9 -22 -9q-12 0 -21 9t-9 20t11 22l183 165q11 11 25 11q13 0 20.5 -9t7.5 -23z" unicode="1" glyph-name="one" horiz-adv-x="422"/>
<glyph d="M570 0h-451q-20 0 -27 19q-2 6 -2 10q0 13 10 21l317 278q76 65 76 158q0 73 -42 116.5t-118 43.5q-130 0 -167 -129q-8 -27 -35 -22q-11 3 -17.5 13.5t-3.5 21.5q47 174 222 174q105 0 162.5 -62t57.5 -153q0 -122 -98 -206l-261 -225h377q12 0 20.5 -8.5t8.5 -20.5 t-8.5 -20.5t-20.5 -8.5z" unicode="2" glyph-name="two" horiz-adv-x="659"/>
<glyph d="M314 399h61q100 0 152.5 -50.5t52.5 -134.5q0 -95 -66.5 -157t-191.5 -62q-72 0 -134 26.5t-92 68.5q-7 10 -4.5 21.5t12.5 18.5q20 12 41 -9q67 -70 183 -70q91 0 142 43.5t51 111.5q0 67 -40 102t-115 35h-115q-10 0 -17 8.5t-7 19.5q0 13 10 24l231 249h-338 q-12 0 -21 7.5t-9 19.5t8.5 20.5t20.5 8.5h402q21 0 26.5 -19.5t-6.5 -30.5z" unicode="3" glyph-name="three" horiz-adv-x="660"/>
<glyph d="M476 -5q-12 0 -21 8.5t-9 20.5v143h-363q-12 0 -20 8t-8 19q0 9 7 18l392 482q9 11 23 11q3 0 9 -2q19 -7 19 -27v-453h134q12 0 20 -8.5t8 -20.5t-8 -19.5t-20 -7.5h-134v-143q0 -12 -8.5 -20.5t-20.5 -8.5zM446 595l-303 -372h303v372z" unicode="4" glyph-name="four" horiz-adv-x="722"/>
<glyph d="M201 399h164q100 0 152.5 -50.5t52.5 -134.5q0 -95 -66.5 -157t-191.5 -62q-72 0 -134 26.5t-92 68.5q-7 10 -4.5 21.5t12.5 18.5q20 12 41 -9q67 -70 183 -70q91 0 142 43.5t51 111.5q0 67 -40 102t-115 35h-185q-12 -1 -20.5 7.5t-8.5 20.5v300q0 13 8.5 21t21.5 8h323 q12 0 20.5 -8.5t8.5 -20.5t-8.5 -21t-20.5 -9h-294v-242z" unicode="5" glyph-name="five" horiz-adv-x="650"/>
<glyph d="M90 228q0 60 25.5 129t72 139t84.5 118t89 107q23 28 45 12q10 -7 12 -19.5t-6 -22.5q-130 -138 -196 -259q52 33 112 33q104 0 170.5 -64.5t66.5 -166.5q0 -101 -68 -170t-170 -69q-104 0 -170.5 64.5t-66.5 168.5zM149 232q0 -81 50 -131t128 -50t128.5 52t50.5 129 q0 78 -50.5 130t-128.5 52q-77 0 -127.5 -52.5t-50.5 -129.5z" unicode="6" glyph-name="six" horiz-adv-x="645"/>
<glyph d="M165 -5q-18 0 -23 14q-4 10 6 39q99 281 331 596h-401q-12 0 -20 7.5t-8 20.5t8 20.5t20 7.5h449q27 0 27 -28q0 -14 -9 -27q-128 -171 -205.5 -310t-145.5 -322q-6 -18 -29 -18z" unicode="7" glyph-name="seven" horiz-adv-x="599"/>
<glyph d="M90 228q0 74 41.5 131t108.5 83q-61 39 -61 115q0 63 48.5 105.5t115.5 42.5q71 0 117 -40.5t46 -104.5q0 -74 -62 -116q69 -24 110 -79t41 -131q0 -101 -72 -170t-181 -69q-111 0 -181.5 64.5t-70.5 168.5zM149 232q0 -81 53.5 -131t139.5 -50t140 52t54 129 q0 79 -53 130.5t-141 51.5q-84 0 -138.5 -52.5t-54.5 -129.5zM237 557q0 -43 29 -69t76 -26t76.5 27t29.5 68q0 44 -30 69.5t-76 25.5q-45 0 -75 -28t-30 -67z" unicode="8" glyph-name="eight" horiz-adv-x="685"/>
<glyph d="M555 472q0 -60 -25.5 -129t-72 -139t-84.5 -118t-89 -107q-23 -28 -45 -12q-10 7 -12 19.5t6 22.5q130 138 196 259q-52 -33 -112 -33q-104 0 -170.5 64.5t-66.5 166.5q0 101 68 170t170 69q104 0 170.5 -64.5t66.5 -168.5zM496 468q0 81 -50 131t-128 50t-128.5 -52 t-50.5 -129q0 -78 50.5 -130t128.5 -52q77 0 127.5 52.5t50.5 129.5z" unicode="9" glyph-name="nine" horiz-adv-x="645"/>
<glyph d="M184 37q0 -18 -12.5 -30t-29.5 -12t-29.5 12t-12.5 30q0 17 12.5 29.5t29.5 12.5t29.5 -12.5t12.5 -29.5zM184 663q0 -18 -12.5 -30t-29.5 -12t-29.5 12t-12.5 30q0 17 12.5 29.5t29.5 12.5t29.5 -12.5t12.5 -29.5z" unicode=":" glyph-name="colon" horiz-adv-x="284"/>
<glyph d="M189 663q0 -18 -12.5 -30t-29.5 -12t-29.5 12t-12.5 30q0 17 12.5 29.5t29.5 12.5t29.5 -12.5t12.5 -29.5zM143 -1q-18 0 -28 10t-10 26q0 18 12.5 29.5t31.5 11.5q47 0 47 -61q0 -53 -28 -107q-14 -29 -32 -29q-21 0 -21 20q0 4 13 40q15 38 15 60z" unicode=";" glyph-name="semicolon" horiz-adv-x="296"/>
<glyph d="M374 56l-307 269q-12 11 -12 26q0 13 11 23l308 270q11 9 23 8.5t20 -10.5q8 -8 7 -19.5t-11 -18.5l-291 -254l291 -254q10 -7 11 -18.5t-7 -19.5q-8 -10 -20 -10.5t-23 8.5z" unicode="&lt;" glyph-name="less" horiz-adv-x="526"/>
<glyph d="M93 454q-28 0 -28 28q0 12 8.5 20.5t20.5 7.5h523q12 1 20.5 -7.5t8.5 -20.5q0 -28 -28 -28h-525zM93 200q-28 0 -28 28q0 12 8.5 20.5t20.5 7.5h523q12 1 20.5 -7.5t8.5 -20.5q0 -28 -28 -28h-525z" unicode="=" glyph-name="equal" horiz-adv-x="711"/>
<glyph d="M152 644l307 -269q12 -11 12 -26q0 -13 -11 -23l-308 -270q-11 -9 -23 -8.5t-20 10.5q-8 8 -7 19.5t11 18.5l291 254l-291 254q-10 7 -11 18.5t7 19.5q8 10 20 10.5t23 -8.5z" unicode="&gt;" glyph-name="greater" horiz-adv-x="526"/>
<glyph d="M274 37q0 17 -12.5 29.5t-29.5 12.5t-29.5 -12.5t-12.5 -29.5q0 -18 12.5 -30t29.5 -12t29.5 12t12.5 30zM203 198v118q0 28 31 30q76 5 123 45.5t47 108.5q0 69 -38 107.5t-107 38.5q-125 0 -162 -129q-8 -27 -35 -22q-11 3 -17.5 13.5t-3.5 21.5q22 82 75 128t137 46 q102 0 156 -56t54 -143q0 -81 -53 -138t-148 -72v-97q0 -13 -8.5 -22t-21.5 -9t-21 8.5t-8 22.5z" unicode="?" glyph-name="question" horiz-adv-x="528"/>
<glyph d="M385 412v-102h246v93q0 64 -33 102t-92 38q-55 0 -88 -36t-33 -95zM575 -3q28 7 39 -11q13 -28 -19 -40q-31 -12 -90 -12q-181 0 -295.5 114.5t-114.5 295.5q0 177 116 299.5t294 122.5t294 -122.5t116 -299.5q0 -164 -45.5 -249.5t-125.5 -85.5q-55 0 -84 40.5 t-29 104.5v99h-246v-113q0 -13 -8 -21t-20 -8q-31 0 -31 29v273q0 81 49.5 133.5t133.5 52.5q81 0 131 -51.5t50 -138.5v-242q0 -102 65 -102q50 0 75.5 77.5t25.5 201.5q0 156 -100 261t-251 105q-150 0 -250.5 -106.5t-100.5 -259.5t97.5 -253.5t253.5 -100.5q43 0 70 7z " unicode="@" glyph-name="at" horiz-adv-x="1010"/>
<glyph d="M367 705q107 0 173.5 -67.5t66.5 -182.5v-431q0 -13 -8 -21q-10 -8 -22 -8t-20 8q-9 7 -9 21v185h-364v-185q0 -14 -9 -21q-8 -8 -22 -8q-10 0 -20 8q-8 7 -8 21v436q0 106 65.5 175.5t176.5 69.5zM184 458v-193h364v181q0 92 -50 148t-135 56q-80 0 -129.5 -53.5 t-49.5 -138.5z" unicode="A" glyph-name="A" horiz-adv-x="732"/>
<glyph d="M423 0h-247q-46 0 -46 35v631q0 34 38 34h139q126 0 194 -65t67 -171q-1 -63 -28.5 -114.5t-68.5 -76.5q-12 -9 -31 -17q29 -4 34 -5q47 -10 73.5 -40.5t26.5 -73.5q0 -59 -40 -98t-111 -39zM189 644v-377h102q100 0 159 53.5t59 139.5q0 91 -57 137.5t-156 46.5h-107z M409 211h-220v-155h228q46 0 72 20t26 57q0 36 -26.5 57t-79.5 21z" unicode="B" glyph-name="B" horiz-adv-x="699"/>
<glyph d="M445 -5q-162 0 -256 99t-94 252q0 166 98.5 262.5t251.5 96.5q129 0 230 -82q9 -8 10.5 -20t-6.5 -21q-7 -9 -20 -9.5t-22 7.5q-83 69 -192 69q-128 0 -209.5 -79.5t-81.5 -216.5q0 -135 79.5 -218.5t211.5 -83.5q115 0 196 72q9 8 21.5 8.5t20.5 -8.5t6.5 -20.5 t-10.5 -20.5q-94 -87 -234 -87z" unicode="C" glyph-name="C" horiz-adv-x="775"/>
<glyph d="M159 700h198q172 0 268.5 -91.5t96.5 -251.5q0 -169 -107 -263t-284 -94h-169q-32 0 -32 35v640q0 10 8.5 17.5t20.5 7.5zM189 56h140q150 0 242 76.5t92 215.5q0 144 -83 220t-244 76h-147v-588z" unicode="D" glyph-name="D" horiz-adv-x="817"/>
<glyph d="M533 56q13 0 21 -8t8 -21q0 -12 -8.5 -19.5t-20.5 -7.5h-373q-12 0 -21 8t-9 21v640q0 14 8 22.5t22 8.5h373q12 0 20.5 -7.5t8.5 -19.5t-8 -20.5t-21 -8.5h-344v-377h254q12 1 20.5 -7.5t8.5 -20.5q0 -28 -28 -28h-255v-155h344z" unicode="E" glyph-name="E" horiz-adv-x="647"/>
<glyph d="M189 644v-377h254q12 1 20.5 -7.5t8.5 -20.5q0 -28 -28 -28h-255v-185q0 -13 -7.5 -22t-20.5 -9q-31 0 -31 31v643q0 14 8 22.5t22 8.5h373q12 0 20.5 -7.5t8.5 -19.5t-8 -20.5t-21 -8.5h-344z" unicode="F" glyph-name="F" horiz-adv-x="627"/>
<glyph d="M703 245h-311q-15 0 -24 8t-9 20q0 28 32 28h334q31 0 31 -30q0 -113 -86.5 -194.5t-224.5 -81.5q-161 0 -255.5 98t-94.5 246q0 160 100 263t250 103q129 0 230 -82q9 -8 10 -19.5t-7 -20.5q-7 -9 -19 -9.5t-21 7.5q-82 68 -193 68q-126 0 -208.5 -84.5t-82.5 -219.5 q0 -130 80 -212t211 -82q109 0 179 54.5t79 139.5z" unicode="G" glyph-name="G" horiz-adv-x="856"/>
<glyph d="M189 674v-409h455v410q0 13 8.5 21.5t21.5 8.5t21 -8.5t8 -22.5v-649q0 -13 -8.5 -21.5t-21.5 -8.5t-21 8.5t-8 21.5v184h-455v-183q0 -13 -8.5 -22t-21.5 -9t-21 8.5t-8 22.5v649q0 13 8.5 21.5t21.5 8.5t21 -8.5t8 -22.5z" unicode="H" glyph-name="H"/>
<glyph d="M209 674v-648q0 -13 -8.5 -22t-21.5 -9t-21 8.5t-8 22.5v649q0 13 8.5 21.5t21.5 8.5t21 -8.5t8 -22.5z" unicode="I" glyph-name="I" horiz-adv-x="359"/>
<glyph d="M269 51q174 0 174 184v409h-266q-11 0 -19.5 8t-8.5 19q0 12 8.5 20.5t19.5 8.5h295q12 0 20 -8t8 -19v-422q0 -120 -58.5 -188t-171.5 -68q-130 0 -202 108q-17 27 2 42q9 8 22 6.5t20 -12.5q59 -88 157 -88z" unicode="J" glyph-name="J" horiz-adv-x="625"/>
<glyph d="M189 674v-306h190l192 321q7 12 18 15t21 -3q25 -15 9 -41l-189 -321l234 -296q19 -24 -3 -42q-23 -18 -42 7l-239 304h-191v-286q0 -13 -8.5 -22t-21.5 -9t-21 8.5t-8 22.5v649q0 13 8.5 21.5t21.5 8.5t21 -8.5t8 -22.5z" unicode="K" glyph-name="K" horiz-adv-x="727"/>
<glyph d="M189 56h385q13 0 21 -8t8 -21q0 -12 -8.5 -19.5t-20.5 -7.5h-415q-13 0 -21 8.5t-8 22.5v644q0 13 8.5 21.5t21.5 8.5t21 -8.5t8 -22.5v-618z" unicode="L" glyph-name="L" horiz-adv-x="653"/>
<glyph d="M184 693l268 -329l264 329q10 12 23 12q11 0 21 -8q9 -9 9 -22v-652q0 -28 -28 -28q-13 0 -22 8t-9 20v573l-238 -294q-10 -11 -23 -11q-14 0 -22 11l-238 294v-573q0 -12 -8 -20t-21 -8t-21.5 8t-8.5 20v652q0 13 10 22q8 8 20 8q14 0 24 -12z" unicode="M" glyph-name="M" horiz-adv-x="899"/>
<glyph d="M189 674v-129l455 -333v463q0 13 8.5 21.5t21.5 8.5t21 -8.5t8 -22.5v-649q0 -13 -8.5 -21.5t-21.5 -8.5t-21 8.5t-8 21.5v113l-455 333v-445q0 -13 -8.5 -22t-21.5 -9t-21 8.5t-8 22.5v649q0 13 8.5 21.5t21.5 8.5t21 -8.5t8 -22.5z" unicode="N" glyph-name="N"/>
<glyph d="M445 -5q-155 0 -252.5 97.5t-97.5 252.5q0 151 99 255.5t251 104.5t251 -104t99 -256q0 -150 -98.5 -250t-251.5 -100zM445 649q-124 0 -207.5 -88.5t-83.5 -215.5t80.5 -210.5t210.5 -83.5q125 0 208 84t83 210q0 129 -83 216.5t-208 87.5z" unicode="O" glyph-name="O" horiz-adv-x="890"/>
<glyph d="M326 217h-137v-192q0 -13 -8 -21.5t-21 -8.5q-14 0 -22 8.5t-8 21.5v646q0 12 9 20.5t21 8.5h173q108 0 175 -68t67 -176q0 -107 -69.5 -173t-179.5 -66zM189 644v-371h134q86 0 139.5 50t53.5 133q0 84 -49.5 136t-142.5 52h-135z" unicode="P" glyph-name="P" horiz-adv-x="670"/>
<glyph d="M730 135l116 -85q24 -19 7 -43t-42 -5l-120 88q-98 -95 -246 -95q-153 0 -251.5 100t-98.5 250q0 151 99 255.5t251 104.5t251 -104t99 -256q0 -118 -65 -210zM445 649q-124 0 -207.5 -88.5t-83.5 -215.5t80.5 -210.5t210.5 -83.5q118 0 198 74l-152 112q-24 19 -7 43 q19 24 43 4l155 -114q54 78 54 175q0 129 -83 216.5t-208 87.5z" unicode="Q" glyph-name="Q" horiz-adv-x="919"/>
<glyph d="M326 217h-137v-192q0 -13 -8 -21.5t-21 -8.5q-14 0 -22 8.5t-8 21.5v646q0 12 9 20.5t21 8.5h173q108 0 175 -68t67 -176q0 -80 -40.5 -138.5t-109.5 -84.5l151 -190q19 -24 -3 -42q-23 -18 -42 7l-167 211q-24 -2 -38 -2zM189 644v-371h134q86 0 139.5 50t53.5 133 q0 84 -49.5 136t-142.5 52h-135z" unicode="R" glyph-name="R" horiz-adv-x="689"/>
<glyph d="M290 -5q-74 0 -129.5 33t-81.5 87q-6 10 -3 22t14 18q25 14 40 -13q19 -39 65.5 -65t101.5 -26q71 0 116 45t45 114q0 57 -26.5 91t-89.5 63l-74 34q-118 55 -118 158q0 66 48 107.5t114 41.5q87 0 128 -58q18 -25 0 -40q-20 -17 -45 8q-34 34 -83 34q-45 0 -74 -25 t-29 -64t18.5 -64t61.5 -45l86 -40q74 -34 108 -80.5t34 -114.5q0 -95 -63.5 -158t-163.5 -63z" unicode="S" glyph-name="S" horiz-adv-x="617"/>
<glyph d="M576 644h-232v-618q0 -13 -8.5 -22t-21.5 -9t-21 8.5t-8 22.5v618h-232q-12 0 -20 7.5t-8 20.5t8 20.5t20 7.5h523q12 0 20 -7.5t8 -20.5q0 -12 -8 -20t-20 -8z" unicode="T" glyph-name="T" horiz-adv-x="629"/>
<glyph d="M174 674v-379q0 -116 57.5 -180t172.5 -64q102 0 158 66.5t56 176.5v381q0 13 8.5 21.5t21.5 8.5t21 -8.5t8 -22.5v-379q0 -141 -72.5 -220.5t-209.5 -79.5q-135 0 -207.5 78t-72.5 222v380q0 13 8.5 21.5t21.5 8.5t21 -8.5t8 -22.5z" unicode="U" glyph-name="U" horiz-adv-x="792"/>
<glyph d="M57 702q10 5 22 1.5t18 -14.5l295 -605l305 605q13 25 38 13q24 -13 11 -40l-328 -649q-10 -18 -28 -18q-17 0 -27 18l-319 649q-5 10 -1.5 22t14.5 18z" unicode="V" glyph-name="V" horiz-adv-x="790"/>
<glyph d="M973 703q11 -4 15 -16t-1 -22l-219 -647q-9 -23 -33 -23q-23 0 -36 24l-171 329l-171 -329q-13 -24 -36 -24q-25 0 -33 25l-220 645q-5 10 -0.5 22t16.5 16q10 5 21.5 1t15.5 -15l209 -606l172 341q7 15 26 15t26 -15l178 -341l203 606q4 11 16 15t22 -1z" unicode="W" glyph-name="W" horiz-adv-x="1055"/>
<glyph d="M645 7l-243 306l-243 -306q-8 -10 -20.5 -12t-22.5 6q-23 20 -3 42l251 318l-232 294q-19 24 3 42q10 8 22.5 6.5t20.5 -11.5l229 -290l229 290q8 10 20.5 11.5t22.5 -6.5q22 -18 3 -42l-238 -301l247 -311q20 -22 -3 -42q-10 -8 -22.5 -6t-20.5 12z" unicode="X" glyph-name="X" horiz-adv-x="804"/>
<glyph d="M114 694l261 -370l262 370q7 10 20 11.5t23 -6.5q22 -17 3 -42l-278 -393v-238q0 -13 -8.5 -22t-21.5 -9t-21 8.5t-8 22.5v238l-278 393q-19 25 3 42q10 8 23 6.5t20 -11.5z" unicode="Y" glyph-name="Y" horiz-adv-x="751"/>
<glyph d="M632 0h-513q-21 0 -27 17q-7 17 8 36l445 591h-426q-12 0 -20 7.5t-8 20.5t8 20.5t20 7.5h479q12 0 20 -8t8 -22q0 -12 -10 -25l-444 -589h460q12 0 20 -7.5t8 -20.5q0 -12 -8 -20t-20 -8z" unicode="Z" glyph-name="Z" horiz-adv-x="715"/>
<glyph d="M278 -61h-119q-29 0 -29 30v762q0 13 8.5 21.5t24.5 8.5h114q12 1 20.5 -7.5t8.5 -20.5q0 -28 -28 -28h-89v-710h88q12 1 20.5 -7.5t8.5 -20.5q0 -28 -28 -28z" unicode="[" glyph-name="bracketleft" horiz-adv-x="376"/>
<glyph d="M481 -52l-395 781q-11 23 12 36q10 5 21.5 1t15.5 -15l394 -779q6 -11 3 -21.5t-13 -15.5q-25 -13 -38 13z" unicode="\" glyph-name="backslash" horiz-adv-x="615"/>
<glyph d="M98 761h119q29 0 29 -30v-762q0 -13 -8.5 -21.5t-24.5 -8.5h-114q-12 -1 -20.5 7.5t-8.5 20.5q0 28 28 28h89v710h-88q-12 -1 -20.5 7.5t-8.5 20.5q0 28 28 28z" unicode="]" glyph-name="bracketright" horiz-adv-x="376"/>
<glyph d="M-2 -61q-28 0 -28 28q0 12 8.5 20.5t20.5 7.5h563q12 1 20.5 -7.5t8.5 -20.5q0 -28 -28 -28h-565z" unicode="_" glyph-name="underscore" horiz-adv-x="561"/>
<glyph d="M367 705q107 0 173.5 -67.5t66.5 -182.5v-431q0 -13 -8 -21q-10 -8 -22 -8t-20 8q-9 7 -9 21v185h-364v-185q0 -14 -9 -21q-8 -8 -22 -8q-10 0 -20 8q-8 7 -8 21v436q0 106 65.5 175.5t176.5 69.5zM184 458v-193h364v181q0 92 -50 148t-135 56q-80 0 -129.5 -53.5 t-49.5 -138.5z" unicode="a" glyph-name="a" horiz-adv-x="732"/>
<glyph d="M423 0h-247q-46 0 -46 35v631q0 34 38 34h139q126 0 194 -65t67 -171q-1 -63 -28.5 -114.5t-68.5 -76.5q-12 -9 -31 -17q29 -4 34 -5q47 -10 73.5 -40.5t26.5 -73.5q0 -59 -40 -98t-111 -39zM189 644v-377h102q100 0 159 53.5t59 139.5q0 91 -57 137.5t-156 46.5h-107z M409 211h-220v-155h228q46 0 72 20t26 57q0 36 -26.5 57t-79.5 21z" unicode="b" glyph-name="b" horiz-adv-x="699"/>
<glyph d="M445 -5q-162 0 -256 99t-94 252q0 166 98.5 262.5t251.5 96.5q129 0 230 -82q9 -8 10.5 -20t-6.5 -21q-7 -9 -20 -9.5t-22 7.5q-83 69 -192 69q-128 0 -209.5 -79.5t-81.5 -216.5q0 -135 79.5 -218.5t211.5 -83.5q115 0 196 72q9 8 21.5 8.5t20.5 -8.5t6.5 -20.5 t-10.5 -20.5q-94 -87 -234 -87z" unicode="c" glyph-name="c" horiz-adv-x="775"/>
<glyph d="M159 700h198q172 0 268.5 -91.5t96.5 -251.5q0 -169 -107 -263t-284 -94h-169q-32 0 -32 35v640q0 10 8.5 17.5t20.5 7.5zM189 56h140q150 0 242 76.5t92 215.5q0 144 -83 220t-244 76h-147v-588z" unicode="d" glyph-name="d" horiz-adv-x="817"/>
<glyph d="M533 56q13 0 21 -8t8 -21q0 -12 -8.5 -19.5t-20.5 -7.5h-373q-12 0 -21 8t-9 21v640q0 14 8 22.5t22 8.5h373q12 0 20.5 -7.5t8.5 -19.5t-8 -20.5t-21 -8.5h-344v-377h254q12 1 20.5 -7.5t8.5 -20.5q0 -28 -28 -28h-255v-155h344z" unicode="e" glyph-name="e" horiz-adv-x="647"/>
<glyph d="M189 644v-377h254q12 1 20.5 -7.5t8.5 -20.5q0 -28 -28 -28h-255v-185q0 -13 -7.5 -22t-20.5 -9q-31 0 -31 31v643q0 14 8 22.5t22 8.5h373q12 0 20.5 -7.5t8.5 -19.5t-8 -20.5t-21 -8.5h-344z" unicode="f" glyph-name="f" horiz-adv-x="627"/>
<glyph d="M703 245h-311q-15 0 -24 8t-9 20q0 28 32 28h334q31 0 31 -30q0 -113 -86.5 -194.5t-224.5 -81.5q-161 0 -255.5 98t-94.5 246q0 160 100 263t250 103q129 0 230 -82q9 -8 10 -19.5t-7 -20.5q-7 -9 -19 -9.5t-21 7.5q-82 68 -193 68q-126 0 -208.5 -84.5t-82.5 -219.5 q0 -130 80 -212t211 -82q109 0 179 54.5t79 139.5z" unicode="g" glyph-name="g" horiz-adv-x="856"/>
<glyph d="M189 674v-409h455v410q0 13 8.5 21.5t21.5 8.5t21 -8.5t8 -22.5v-649q0 -13 -8.5 -21.5t-21.5 -8.5t-21 8.5t-8 21.5v184h-455v-183q0 -13 -8.5 -22t-21.5 -9t-21 8.5t-8 22.5v649q0 13 8.5 21.5t21.5 8.5t21 -8.5t8 -22.5z" unicode="h" glyph-name="h"/>
<glyph d="M209 674v-648q0 -13 -8.5 -22t-21.5 -9t-21 8.5t-8 22.5v649q0 13 8.5 21.5t21.5 8.5t21 -8.5t8 -22.5z" unicode="i" glyph-name="i" horiz-adv-x="359"/>
<glyph d="M269 51q174 0 174 184v409h-266q-11 0 -19.5 8t-8.5 19q0 12 8.5 20.5t19.5 8.5h295q12 0 20 -8t8 -19v-422q0 -120 -58.5 -188t-171.5 -68q-130 0 -202 108q-17 27 2 42q9 8 22 6.5t20 -12.5q59 -88 157 -88z" unicode="j" glyph-name="j" horiz-adv-x="625"/>
<glyph d="M189 674v-306h190l192 321q7 12 18 15t21 -3q25 -15 9 -41l-189 -321l234 -296q19 -24 -3 -42q-23 -18 -42 7l-239 304h-191v-286q0 -13 -8.5 -22t-21.5 -9t-21 8.5t-8 22.5v649q0 13 8.5 21.5t21.5 8.5t21 -8.5t8 -22.5z" unicode="k" glyph-name="k" horiz-adv-x="727"/>
<glyph d="M189 56h385q13 0 21 -8t8 -21q0 -12 -8.5 -19.5t-20.5 -7.5h-415q-13 0 -21 8.5t-8 22.5v644q0 13 8.5 21.5t21.5 8.5t21 -8.5t8 -22.5v-618z" unicode="l" glyph-name="l" horiz-adv-x="653"/>
<glyph d="M184 693l268 -329l264 329q10 12 23 12q11 0 21 -8q9 -9 9 -22v-652q0 -28 -28 -28q-13 0 -22 8t-9 20v573l-238 -294q-10 -11 -23 -11q-14 0 -22 11l-238 294v-573q0 -12 -8 -20t-21 -8t-21.5 8t-8.5 20v652q0 13 10 22q8 8 20 8q14 0 24 -12z" unicode="m" glyph-name="m" horiz-adv-x="899"/>
<glyph d="M189 674v-129l455 -333v463q0 13 8.5 21.5t21.5 8.5t21 -8.5t8 -22.5v-649q0 -13 -8.5 -21.5t-21.5 -8.5t-21 8.5t-8 21.5v113l-455 333v-445q0 -13 -8.5 -22t-21.5 -9t-21 8.5t-8 22.5v649q0 13 8.5 21.5t21.5 8.5t21 -8.5t8 -22.5z" unicode="n" glyph-name="n"/>
<glyph d="M445 -5q-155 0 -252.5 97.5t-97.5 252.5q0 151 99 255.5t251 104.5t251 -104t99 -256q0 -150 -98.5 -250t-251.5 -100zM445 649q-124 0 -207.5 -88.5t-83.5 -215.5t80.5 -210.5t210.5 -83.5q125 0 208 84t83 210q0 129 -83 216.5t-208 87.5z" unicode="o" glyph-name="o" horiz-adv-x="890"/>
<glyph d="M326 217h-137v-192q0 -13 -8 -21.5t-21 -8.5q-14 0 -22 8.5t-8 21.5v646q0 12 9 20.5t21 8.5h173q108 0 175 -68t67 -176q0 -107 -69.5 -173t-179.5 -66zM189 644v-371h134q86 0 139.5 50t53.5 133q0 84 -49.5 136t-142.5 52h-135z" unicode="p" glyph-name="p" horiz-adv-x="670"/>
<glyph d="M730 135l116 -85q24 -19 7 -43t-42 -5l-120 88q-98 -95 -246 -95q-153 0 -251.5 100t-98.5 250q0 151 99 255.5t251 104.5t251 -104t99 -256q0 -118 -65 -210zM445 649q-124 0 -207.5 -88.5t-83.5 -215.5t80.5 -210.5t210.5 -83.5q118 0 198 74l-152 112q-24 19 -7 43 q19 24 43 4l155 -114q54 78 54 175q0 129 -83 216.5t-208 87.5z" unicode="q" glyph-name="q" horiz-adv-x="919"/>
<glyph d="M326 217h-137v-192q0 -13 -8 -21.5t-21 -8.5q-14 0 -22 8.5t-8 21.5v646q0 12 9 20.5t21 8.5h173q108 0 175 -68t67 -176q0 -80 -40.5 -138.5t-109.5 -84.5l151 -190q19 -24 -3 -42q-23 -18 -42 7l-167 211q-24 -2 -38 -2zM189 644v-371h134q86 0 139.5 50t53.5 133 q0 84 -49.5 136t-142.5 52h-135z" unicode="r" glyph-name="r" horiz-adv-x="689"/>
<glyph d="M290 -5q-74 0 -129.5 33t-81.5 87q-6 10 -3 22t14 18q25 14 40 -13q19 -39 65.5 -65t101.5 -26q71 0 116 45t45 114q0 57 -26.5 91t-89.5 63l-74 34q-118 55 -118 158q0 66 48 107.5t114 41.5q87 0 128 -58q18 -25 0 -40q-20 -17 -45 8q-34 34 -83 34q-45 0 -74 -25 t-29 -64t18.5 -64t61.5 -45l86 -40q74 -34 108 -80.5t34 -114.5q0 -95 -63.5 -158t-163.5 -63z" unicode="s" glyph-name="s" horiz-adv-x="617"/>
<glyph d="M576 644h-232v-618q0 -13 -8.5 -22t-21.5 -9t-21 8.5t-8 22.5v618h-232q-12 0 -20 7.5t-8 20.5t8 20.5t20 7.5h523q12 0 20 -7.5t8 -20.5q0 -12 -8 -20t-20 -8z" unicode="t" glyph-name="t" horiz-adv-x="629"/>
<glyph d="M174 674v-379q0 -116 57.5 -180t172.5 -64q102 0 158 66.5t56 176.5v381q0 13 8.5 21.5t21.5 8.5t21 -8.5t8 -22.5v-379q0 -141 -72.5 -220.5t-209.5 -79.5q-135 0 -207.5 78t-72.5 222v380q0 13 8.5 21.5t21.5 8.5t21 -8.5t8 -22.5z" unicode="u" glyph-name="u" horiz-adv-x="792"/>
<glyph d="M57 702q10 5 22 1.5t18 -14.5l295 -605l305 605q13 25 38 13q24 -13 11 -40l-328 -649q-10 -18 -28 -18q-17 0 -27 18l-319 649q-5 10 -1.5 22t14.5 18z" unicode="v" glyph-name="v" horiz-adv-x="790"/>
<glyph d="M973 703q11 -4 15 -16t-1 -22l-219 -647q-9 -23 -33 -23q-23 0 -36 24l-171 329l-171 -329q-13 -24 -36 -24q-25 0 -33 25l-220 645q-5 10 -0.5 22t16.5 16q10 5 21.5 1t15.5 -15l209 -606l172 341q7 15 26 15t26 -15l178 -341l203 606q4 11 16 15t22 -1z" unicode="w" glyph-name="w" horiz-adv-x="1055"/>
<glyph d="M645 7l-243 306l-243 -306q-8 -10 -20.5 -12t-22.5 6q-23 20 -3 42l251 318l-232 294q-19 24 3 42q10 8 22.5 6.5t20.5 -11.5l229 -290l229 290q8 10 20.5 11.5t22.5 -6.5q22 -18 3 -42l-238 -301l247 -311q20 -22 -3 -42q-10 -8 -22.5 -6t-20.5 12z" unicode="x" glyph-name="x" horiz-adv-x="804"/>
<glyph d="M114 694l261 -370l262 370q7 10 20 11.5t23 -6.5q22 -17 3 -42l-278 -393v-238q0 -13 -8.5 -22t-21.5 -9t-21 8.5t-8 22.5v238l-278 393q-19 25 3 42q10 8 23 6.5t20 -11.5z" unicode="y" glyph-name="y" horiz-adv-x="751"/>
<glyph d="M632 0h-513q-21 0 -27 17q-7 17 8 36l445 591h-426q-12 0 -20 7.5t-8 20.5t8 20.5t20 7.5h479q12 0 20 -8t8 -22q0 -12 -10 -25l-444 -589h460q12 0 20 -7.5t8 -20.5q0 -12 -8 -20t-20 -8z" unicode="z" glyph-name="z" horiz-adv-x="715"/>
<glyph d="M155 52v201q0 68 -58 77q-32 4 -32 28q0 25 33 28q57 6 57 59v203q0 53 26 83t73 30h48q12 1 20.5 -7.5t8.5 -20.5q0 -28 -28 -28h-36q-53 0 -53 -50v-205q0 -85 -73 -93q73 -15 73 -89v-223q0 -50 53 -50h36q28 0 28 -28q0 -12 -8.5 -20.5t-20.5 -7.5h-48q-47 0 -73 30 t-26 83z" unicode="{" glyph-name="braceleft" horiz-adv-x="401"/>
<glyph d="M209 735v-770q0 -13 -8.5 -22t-21.5 -9t-21 8.5t-8 22.5v771q0 13 8.5 21.5t21.5 8.5t21 -8.5t8 -22.5z" unicode="|" glyph-name="bar" horiz-adv-x="359"/>
<glyph d="M246 253v-201q0 -53 -26 -83t-73 -30h-48q-12 -1 -20.5 7.5t-8.5 20.5q0 28 28 28h36q53 0 53 50v223q0 74 73 89q-73 8 -73 93v205q0 50 -53 50h-36q-28 0 -28 28q0 12 8.5 20.5t20.5 7.5h48q47 0 73 -30t26 -83v-203q0 -53 57 -59q33 -3 33 -28q0 -24 -32 -28 q-58 -9 -58 -77z" unicode="}" glyph-name="braceright" horiz-adv-x="401"/>
<glyph d="M338 67l-271 258q-12 11 -12 26q0 13 11 23l272 260q10 10 22.5 9t20.5 -11q17 -19 -4 -38l-255 -244l255 -243q21 -19 4 -38q-8 -10 -20.5 -11t-22.5 9zM457 183l-160 142q-12 11 -12 26q0 13 11 23l164 145q11 9 23 8.5t20 -10.5q8 -8 7 -19.5t-11 -18.5l-147 -129 l144 -127q10 -7 11 -18.5t-7 -19.5q-8 -10 -20 -10.5t-23 8.5z" unicode="«" glyph-name="guillemotleft" horiz-adv-x="595"/>
<glyph d="M257 633l271 -258q12 -11 12 -26q0 -13 -11 -23l-272 -260q-10 -10 -22.5 -9t-20.5 11q-17 19 4 38l255 244l-255 243q-21 19 -4 38q8 10 20.5 11t22.5 -9zM138 517l160 -142q12 -11 12 -26q0 -13 -11 -23l-164 -145q-11 -9 -23 -8.5t-20 10.5q-8 8 -7 19.5t11 18.5 l147 129l-144 127q-10 7 -11 18.5t7 19.5q8 10 20 10.5t23 -8.5z" unicode="»" glyph-name="guillemotright" horiz-adv-x="595"/>
<glyph d="M505 816q0 -18 -12.5 -30t-29.5 -12t-29.5 12t-12.5 30q0 17 12.5 29.5t29.5 12.5t29.5 -12.5t12.5 -29.5zM256 816q0 -18 -12.5 -30t-29.5 -12t-29.5 12t-12.5 30q0 17 12.5 29.5t29.5 12.5t29.5 -12.5t12.5 -29.5zM533 56q13 0 21 -8t8 -21q0 -12 -8.5 -19.5 t-20.5 -7.5h-373q-12 0 -21 8t-9 21v640q0 14 8 22.5t22 8.5h373q12 0 20.5 -7.5t8.5 -19.5t-8 -20.5t-21 -8.5h-344v-377h254q12 1 20.5 -7.5t8.5 -20.5q0 -28 -28 -28h-255v-155h344z" unicode="Ё" glyph-name="uni0401" horiz-adv-x="647"/>
<glyph d="M367 705q107 0 173.5 -67.5t66.5 -182.5v-431q0 -13 -8 -21q-10 -8 -22 -8t-20 8q-9 7 -9 21v185h-364v-185q0 -14 -9 -21q-8 -8 -22 -8q-10 0 -20 8q-8 7 -8 21v436q0 106 65.5 175.5t176.5 69.5zM184 458v-193h364v181q0 92 -50 148t-135 56q-80 0 -129.5 -53.5 t-49.5 -138.5z" unicode="А" glyph-name="uni0410" horiz-adv-x="732"/>
<glyph d="M189 462h146q105 0 172.5 -61t67.5 -168t-66.5 -170t-175.5 -63h-157q-46 0 -46 35v631q0 34 38 34h318q12 0 20 -7.5t8 -20.5q0 -12 -8 -20t-20 -8h-297v-182zM516 233q0 82 -52.5 127.5t-140.5 45.5h-134v-350h135q94 0 143 47.5t49 129.5z" unicode="Б" glyph-name="uni0411" horiz-adv-x="670"/>
<glyph d="M423 0h-247q-46 0 -46 35v631q0 34 38 34h139q126 0 194 -65t67 -171q-1 -63 -28.5 -114.5t-68.5 -76.5q-12 -9 -31 -17q29 -4 34 -5q47 -10 73.5 -40.5t26.5 -73.5q0 -59 -40 -98t-111 -39zM189 644v-377h102q100 0 159 53.5t59 139.5q0 91 -57 137.5t-156 46.5h-107z M409 211h-220v-155h228q46 0 72 20t26 57q0 36 -26.5 57t-79.5 21z" unicode="В" glyph-name="uni0412" horiz-adv-x="699"/>
<glyph d="M130 26v646q0 13 8 20.5t20 7.5h371q12 0 20 -7.5t8 -20.5q0 -12 -8 -20t-20 -8h-340v-618q0 -13 -8.5 -22t-21.5 -9t-21 8.5t-8 22.5z" unicode="Г" glyph-name="uni0413" horiz-adv-x="597"/>
<glyph d="M725 0h-601v-148q0 -14 -8 -22.5t-21 -8.5t-21.5 9t-8.5 22v176q0 13 8 20.5t20 7.5h50q40 33 71 120q21 59 21 270v225q0 12 8 20.5t20 8.5h384q12 0 20 -7.5t8 -20.5v-616h81q12 0 20 -7.5t8 -20.5v-176q0 -13 -8.5 -22t-21.5 -9t-21 8.5t-8 22.5v148zM294 644v-180 q0 -238 -22 -308q-26 -76 -50 -100h394v588h-322z" unicode="Д" glyph-name="uni0414" horiz-adv-x="854"/>
<glyph d="M533 56q13 0 21 -8t8 -21q0 -12 -8.5 -19.5t-20.5 -7.5h-373q-12 0 -21 8t-9 21v640q0 14 8 22.5t22 8.5h373q12 0 20.5 -7.5t8.5 -19.5t-8 -20.5t-21 -8.5h-344v-377h254q12 1 20.5 -7.5t8.5 -20.5q0 -28 -28 -28h-255v-155h344z" unicode="Е" glyph-name="uni0415" horiz-adv-x="647"/>
<glyph d="M473 26v286h-135l-220 -304q-19 -25 -42 -7q-22 18 -3 42l214 295l-189 322q-16 26 9 41q10 6 21 3t18 -15l191 -321h136v306q0 14 8 22.5t21 8.5t21.5 -8.5t8.5 -21.5v-307h135l192 321q7 12 18 15t21 -3q25 -15 9 -41l-189 -322l214 -295q19 -24 -3 -42q-23 -18 -42 7 l-220 304h-135v-286q0 -14 -8 -22.5t-21 -8.5t-21.5 9t-8.5 22z" unicode="Ж" glyph-name="uni0416" horiz-adv-x="1005"/>
<glyph d="M315 51q93 0 140 38.5t47 103.5q0 130 -179 130h-98q-12 -1 -20.5 7.5t-8.5 20.5q0 28 28 28h81q71 0 112.5 38.5t41.5 101.5q0 61 -42 95.5t-126 34.5q-74 0 -137 -38q-28 -18 -43 3q-7 8 -4.5 20.5t12.5 19.5q77 51 178 51q108 0 165 -52t56 -136q-1 -115 -96 -156 q69 -12 104 -56t35 -110q0 -89 -61.5 -144.5t-186.5 -55.5q-135 0 -213 72q-9 8 -9 20t8 21q19 17 42 -2q77 -55 174 -55z" unicode="З" glyph-name="uni0417" horiz-adv-x="671"/>
<glyph d="M644 26v445l-455 -333v-113q0 -13 -8 -21.5t-21 -8.5t-21.5 8.5t-8.5 21.5v649q0 14 8 22.5t21 8.5t21.5 -8.5t8.5 -21.5v-464l455 334v129q0 14 8 22.5t21 8.5t21.5 -8.5t8.5 -21.5v-649q0 -14 -8 -22.5t-21 -8.5t-21.5 9t-8.5 22z" unicode="И" glyph-name="uni0418"/>
<glyph d="M420 730q-143 0 -214 115q-17 28 8 41q25 15 44 -14q29 -44 66.5 -65t95.5 -21t95.5 21t66.5 65q19 29 44 14q25 -13 8 -41q-71 -115 -214 -115zM644 26v445l-455 -333v-113q0 -13 -8 -21.5t-21 -8.5t-21.5 8.5t-8.5 21.5v649q0 14 8 22.5t21 8.5t21.5 -8.5t8.5 -21.5 v-464l455 334v129q0 14 8 22.5t21 8.5t21.5 -8.5t8.5 -21.5v-649q0 -14 -8 -22.5t-21 -8.5t-21.5 9t-8.5 22z" unicode="Й" glyph-name="uni0419"/>
<glyph d="M189 674v-306h190l192 321q7 12 18 15t21 -3q25 -15 9 -41l-189 -321l234 -296q19 -24 -3 -42q-23 -18 -42 7l-239 304h-191v-286q0 -13 -8.5 -22t-21.5 -9t-21 8.5t-8 22.5v649q0 13 8.5 21.5t21.5 8.5t21 -8.5t8 -22.5z" unicode="К" glyph-name="uni041A" horiz-adv-x="727"/>
<glyph d="M271 644v-228q0 -145 -8 -212.5t-30 -106.5q-59 -102 -138 -102q-35 0 -35 27q0 23 30 29q30 7 49.5 23.5t41.5 52.5q18 31 24.5 92.5t6.5 198.5v253q0 12 8 20.5t20 8.5h387q12 0 20 -7.5t8 -20.5v-646q0 -13 -8.5 -22t-21.5 -9t-21 8.5t-8 22.5v618h-325z" unicode="Л" glyph-name="uni041B" horiz-adv-x="785"/>
<glyph d="M184 693l268 -329l264 329q10 12 23 12q11 0 21 -8q9 -9 9 -22v-652q0 -28 -28 -28q-13 0 -22 8t-9 20v573l-238 -294q-10 -11 -23 -11q-14 0 -22 11l-238 294v-573q0 -12 -8 -20t-21 -8t-21.5 8t-8.5 20v652q0 13 10 22q8 8 20 8q14 0 24 -12z" unicode="М" glyph-name="uni041C" horiz-adv-x="899"/>
<glyph d="M189 674v-409h455v410q0 13 8.5 21.5t21.5 8.5t21 -8.5t8 -22.5v-649q0 -13 -8.5 -21.5t-21.5 -8.5t-21 8.5t-8 21.5v184h-455v-183q0 -13 -8.5 -22t-21.5 -9t-21 8.5t-8 22.5v649q0 13 8.5 21.5t21.5 8.5t21 -8.5t8 -22.5z" unicode="Н" glyph-name="uni041D"/>
<glyph d="M445 -5q-155 0 -252.5 97.5t-97.5 252.5q0 151 99 255.5t251 104.5t251 -104t99 -256q0 -150 -98.5 -250t-251.5 -100zM445 649q-124 0 -207.5 -88.5t-83.5 -215.5t80.5 -210.5t210.5 -83.5q125 0 208 84t83 210q0 129 -83 216.5t-208 87.5z" unicode="О" glyph-name="uni041E" horiz-adv-x="890"/>
<glyph d="M622 644h-433v-618q0 -13 -8.5 -22t-21.5 -9t-21 8.5t-8 22.5v646q0 13 8 20.5t20 7.5h495q12 0 20 -7.5t8 -20.5v-646q0 -13 -8.5 -22t-21.5 -9t-21 8.5t-8 22.5v618z" unicode="П" glyph-name="uni041F" horiz-adv-x="811"/>
<glyph d="M326 217h-137v-192q0 -13 -8 -21.5t-21 -8.5q-14 0 -22 8.5t-8 21.5v646q0 12 9 20.5t21 8.5h173q108 0 175 -68t67 -176q0 -107 -69.5 -173t-179.5 -66zM189 644v-371h134q86 0 139.5 50t53.5 133q0 84 -49.5 136t-142.5 52h-135z" unicode="Р" glyph-name="uni0420" horiz-adv-x="670"/>
<glyph d="M445 -5q-162 0 -256 99t-94 252q0 166 98.5 262.5t251.5 96.5q129 0 230 -82q9 -8 10.5 -20t-6.5 -21q-7 -9 -20 -9.5t-22 7.5q-83 69 -192 69q-128 0 -209.5 -79.5t-81.5 -216.5q0 -135 79.5 -218.5t211.5 -83.5q115 0 196 72q9 8 21.5 8.5t20.5 -8.5t6.5 -20.5 t-10.5 -20.5q-94 -87 -234 -87z" unicode="С" glyph-name="uni0421" horiz-adv-x="775"/>
<glyph d="M576 644h-232v-618q0 -13 -8.5 -22t-21.5 -9t-21 8.5t-8 22.5v618h-232q-12 0 -20 7.5t-8 20.5t8 20.5t20 7.5h523q12 0 20 -7.5t8 -20.5q0 -12 -8 -20t-20 -8z" unicode="Т" glyph-name="uni0422" horiz-adv-x="629"/>
<glyph d="M366 152l3 6l-274 501q-5 10 -5 18q0 16 13 24q7 4 15 4q18 0 26 -17l256 -469l236 469q9 16 26 16q10 0 18 -6q10 -9 10 -21q0 -11 -6 -22l-270 -532q-66 -128 -183 -128q-16 0 -35.5 4t-38 15.5t-18.5 27.5q0 10 7 18t18 8q9 0 27 -9q18 -8 42 -8q82 0 133 101z" unicode="У" glyph-name="uni0423" horiz-adv-x="730"/>
<glyph d="M453 -10v78h-67q-144 0 -217.5 83.5t-73.5 210.5q0 120 75.5 199.5t199.5 79.5h83v68q0 14 8 22.5t21 8.5t21.5 -8.5t8.5 -21.5v-69h83q124 0 199.5 -79.5t75.5 -199.5q0 -127 -73.5 -210.5t-217.5 -83.5h-67v-78q0 -13 -8 -21.5t-21 -8.5t-21.5 8.5t-8.5 21.5zM581 585 h-69v-461h79q105 0 162.5 65t57.5 168q0 101 -59.5 164.5t-170.5 63.5zM154 357q0 -103 57.5 -168t162.5 -65h79v461h-69q-111 0 -170.5 -63.5t-59.5 -164.5z" unicode="Ф" glyph-name="uni0424" horiz-adv-x="965"/>
<glyph d="M645 7l-243 306l-243 -306q-8 -10 -20.5 -12t-22.5 6q-23 20 -3 42l251 318l-232 294q-19 24 3 42q10 8 22.5 6.5t20.5 -11.5l229 -290l229 290q8 10 20.5 11.5t22.5 -6.5q22 -18 3 -42l-238 -301l247 -311q20 -22 -3 -42q-10 -8 -22.5 -6t-20.5 12z" unicode="Х" glyph-name="uni0425" horiz-adv-x="804"/>
<glyph d="M697 0h-539q-12 0 -20 7.5t-8 20.5v646q0 13 8.5 22t21.5 9t21 -8.5t8 -22.5v-618h400v618q0 13 8.5 22t21.5 9t21 -8.5t8 -22.5v-618h80q12 0 20 -7.5t8 -20.5v-176q0 -13 -8.5 -22t-21.5 -9t-21 8.5t-8 22.5v148z" unicode="Ц" glyph-name="uni0426" horiz-adv-x="826"/>
<glyph d="M559 26v203q-83 -18 -179 -18q-143 0 -211.5 53t-68.5 191v220q0 13 8.5 21.5t21.5 8.5t21 -8.5t8 -22.5v-219q0 -109 53 -148.5t177 -39.5q85 0 170 19v388q0 14 8 22.5t21 8.5t21.5 -8.5t8.5 -21.5v-649q0 -14 -8 -22.5t-21 -8.5t-21.5 9t-8.5 22z" unicode="Ч" glyph-name="uni0427" horiz-adv-x="748"/>
<glyph d="M568 56h320v618q0 13 8.5 22t21.5 9t21 -8.5t8 -22.5v-646q0 -13 -8 -20.5t-20 -7.5h-761q-12 0 -20 7.5t-8 20.5v646q0 13 8.5 22t21.5 9t21 -8.5t8 -22.5v-618h320v618q0 13 8.5 22t21.5 9t21 -8.5t8 -22.5v-618z" unicode="Ш" glyph-name="uni0428" horiz-adv-x="1077"/>
<glyph d="M568 56h320v618q0 13 8.5 22t21.5 9t21 -8.5t8 -22.5v-618h80q12 0 20 -7.5t8 -20.5v-176q0 -13 -8.5 -22t-21.5 -9t-21 8.5t-8 22.5v148h-838q-12 0 -20 7.5t-8 20.5v646q0 13 8.5 22t21.5 9t21 -8.5t8 -22.5v-618h320v618q0 13 8.5 22t21.5 9t21 -8.5t8 -22.5v-618z " unicode="Щ" glyph-name="uni0429" horiz-adv-x="1125"/>
<glyph d="M462 0h-157q-46 0 -46 36v608h-191q-12 0 -20 7.5t-8 20.5t8 20.5t20 7.5h222q12 0 20 -7.5t8 -20.5v-210h146q105 0 172.5 -61t67.5 -168t-66.5 -170t-175.5 -63zM645 233q0 82 -52.5 127.5t-140.5 45.5h-134v-350h135q94 0 143 47.5t49 129.5z" unicode="Ъ" glyph-name="uni042A" horiz-adv-x="793"/>
<glyph d="M755 674v-648q0 -13 -8.5 -22t-21.5 -9t-21 8.5t-8 22.5v649q0 13 8.5 21.5t21.5 8.5t21 -8.5t8 -22.5zM130 36v639q0 13 8.5 21.5t21.5 8.5t21 -8.5t8 -22.5v-212h146q105 0 172.5 -61t67.5 -168t-66.5 -170t-175.5 -63h-157q-46 0 -46 36zM516 233q0 82 -52.5 127.5 t-140.5 45.5h-134v-350h135q94 0 143 47.5t49 129.5z" unicode="Ы" glyph-name="uni042B" horiz-adv-x="885"/>
<glyph d="M130 36v639q0 13 8.5 21.5t21.5 8.5t21 -8.5t8 -22.5v-212h146q105 0 172.5 -61t67.5 -168t-66.5 -170t-175.5 -63h-157q-46 0 -46 36zM516 233q0 82 -52.5 127.5t-140.5 45.5h-134v-350h135q94 0 143 47.5t49 129.5z" unicode="Ь" glyph-name="uni042C" horiz-adv-x="664"/>
<glyph d="M630 316h-417q-12 -1 -20.5 7.5t-8.5 20.5q0 28 28 28h419q-8 126 -83.5 201.5t-199.5 75.5q-115 0 -196 -72q-9 -8 -21.5 -8.5t-20.5 8.5t-6.5 20.5t10.5 20.5q94 87 234 87q161 0 252 -98.5t91 -252.5q0 -166 -98.5 -262.5t-251.5 -96.5q-129 0 -230 82q-9 8 -10.5 20 t6.5 21q7 9 20 9.5t22 -7.5q83 -69 192 -69q120 0 199.5 70.5t89.5 194.5z" unicode="Э" glyph-name="uni042D" horiz-adv-x="786"/>
<glyph d="M675 -5q-141 0 -235 91.5t-102 232.5h-149v-293q0 -13 -8.5 -22t-21.5 -9t-21 8.5t-8 22.5v649q0 13 8.5 21.5t21.5 8.5t21 -8.5t8 -22.5v-299h149q9 143 102 236.5t243 93.5q144 0 236.5 -104t92.5 -256q0 -151 -93.5 -250.5t-243.5 -99.5zM679 649q-127 0 -205 -87.5 t-78 -216.5q0 -126 79.5 -210t203.5 -84q119 0 196.5 84t77.5 210q0 130 -77.5 217t-196.5 87z" unicode="Ю" glyph-name="uni042E" horiz-adv-x="1107"/>
<glyph d="M539 -5q-13 0 -21 8.5t-8 21.5v192h-137q-13 0 -39 2l-166 -211q-19 -25 -42 -7q-22 18 -3 42l150 190q-69 26 -109 84.5t-40 138.5q0 108 67 176t175 68h173q12 0 21 -8.5t9 -20.5v-646q0 -13 -8.5 -21.5t-21.5 -8.5zM183 456q0 -83 53.5 -133t139.5 -50h134v371h-135 q-93 0 -142.5 -52t-49.5 -136z" unicode="Я" glyph-name="uni042F" horiz-adv-x="699"/>
<glyph d="M367 705q107 0 173.5 -67.5t66.5 -182.5v-431q0 -13 -8 -21q-10 -8 -22 -8t-20 8q-9 7 -9 21v185h-364v-185q0 -14 -9 -21q-8 -8 -22 -8q-10 0 -20 8q-8 7 -8 21v436q0 106 65.5 175.5t176.5 69.5zM184 458v-193h364v181q0 92 -50 148t-135 56q-80 0 -129.5 -53.5 t-49.5 -138.5z" unicode="а" glyph-name="uni0430" horiz-adv-x="732"/>
<glyph d="M189 462h146q105 0 172.5 -61t67.5 -168t-66.5 -170t-175.5 -63h-157q-46 0 -46 35v631q0 34 38 34h318q12 0 20 -7.5t8 -20.5q0 -12 -8 -20t-20 -8h-297v-182zM516 233q0 82 -52.5 127.5t-140.5 45.5h-134v-350h135q94 0 143 47.5t49 129.5z" unicode="б" glyph-name="uni0431" horiz-adv-x="670"/>
<glyph d="M423 0h-247q-46 0 -46 35v631q0 34 38 34h139q126 0 194 -65t67 -171q-1 -63 -28.5 -114.5t-68.5 -76.5q-12 -9 -31 -17q29 -4 34 -5q47 -10 73.5 -40.5t26.5 -73.5q0 -59 -40 -98t-111 -39zM189 644v-377h102q100 0 159 53.5t59 139.5q0 91 -57 137.5t-156 46.5h-107z M409 211h-220v-155h228q46 0 72 20t26 57q0 36 -26.5 57t-79.5 21z" unicode="в" glyph-name="uni0432" horiz-adv-x="699"/>
<glyph d="M130 26v646q0 13 8 20.5t20 7.5h371q12 0 20 -7.5t8 -20.5q0 -12 -8 -20t-20 -8h-340v-618q0 -13 -8.5 -22t-21.5 -9t-21 8.5t-8 22.5z" unicode="г" glyph-name="uni0433" horiz-adv-x="597"/>
<glyph d="M725 0h-601v-148q0 -14 -8 -22.5t-21 -8.5t-21.5 9t-8.5 22v176q0 13 8 20.5t20 7.5h50q40 33 71 120q21 59 21 270v225q0 12 8 20.5t20 8.5h384q12 0 20 -7.5t8 -20.5v-616h81q12 0 20 -7.5t8 -20.5v-176q0 -13 -8.5 -22t-21.5 -9t-21 8.5t-8 22.5v148zM294 644v-180 q0 -238 -22 -308q-26 -76 -50 -100h394v588h-322z" unicode="д" glyph-name="uni0434" horiz-adv-x="854"/>
<glyph d="M533 56q13 0 21 -8t8 -21q0 -12 -8.5 -19.5t-20.5 -7.5h-373q-12 0 -21 8t-9 21v640q0 14 8 22.5t22 8.5h373q12 0 20.5 -7.5t8.5 -19.5t-8 -20.5t-21 -8.5h-344v-377h254q12 1 20.5 -7.5t8.5 -20.5q0 -28 -28 -28h-255v-155h344z" unicode="е" glyph-name="uni0435" horiz-adv-x="647"/>
<glyph d="M473 26v286h-135l-220 -304q-19 -25 -42 -7q-22 18 -3 42l214 295l-189 322q-16 26 9 41q10 6 21 3t18 -15l191 -321h136v306q0 14 8 22.5t21 8.5t21.5 -8.5t8.5 -21.5v-307h135l192 321q7 12 18 15t21 -3q25 -15 9 -41l-189 -322l214 -295q19 -24 -3 -42q-23 -18 -42 7 l-220 304h-135v-286q0 -14 -8 -22.5t-21 -8.5t-21.5 9t-8.5 22z" unicode="ж" glyph-name="uni0436" horiz-adv-x="1005"/>
<glyph d="M315 51q93 0 140 38.5t47 103.5q0 130 -179 130h-98q-12 -1 -20.5 7.5t-8.5 20.5q0 28 28 28h81q71 0 112.5 38.5t41.5 101.5q0 61 -42 95.5t-126 34.5q-74 0 -137 -38q-28 -18 -43 3q-7 8 -4.5 20.5t12.5 19.5q77 51 178 51q108 0 165 -52t56 -136q-1 -115 -96 -156 q69 -12 104 -56t35 -110q0 -89 -61.5 -144.5t-186.5 -55.5q-135 0 -213 72q-9 8 -9 20t8 21q19 17 42 -2q77 -55 174 -55z" unicode="з" glyph-name="uni0437" horiz-adv-x="671"/>
<glyph d="M644 26v445l-455 -333v-113q0 -13 -8 -21.5t-21 -8.5t-21.5 8.5t-8.5 21.5v649q0 14 8 22.5t21 8.5t21.5 -8.5t8.5 -21.5v-464l455 334v129q0 14 8 22.5t21 8.5t21.5 -8.5t8.5 -21.5v-649q0 -14 -8 -22.5t-21 -8.5t-21.5 9t-8.5 22z" unicode="и" glyph-name="uni0438"/>
<glyph d="M420 730q-143 0 -214 115q-17 28 8 41q25 15 44 -14q29 -44 66.5 -65t95.5 -21t95.5 21t66.5 65q19 29 44 14q25 -13 8 -41q-71 -115 -214 -115zM644 26v445l-455 -333v-113q0 -13 -8 -21.5t-21 -8.5t-21.5 8.5t-8.5 21.5v649q0 14 8 22.5t21 8.5t21.5 -8.5t8.5 -21.5 v-464l455 334v129q0 14 8 22.5t21 8.5t21.5 -8.5t8.5 -21.5v-649q0 -14 -8 -22.5t-21 -8.5t-21.5 9t-8.5 22z" unicode="й" glyph-name="uni0439"/>
<glyph d="M189 674v-306h190l192 321q7 12 18 15t21 -3q25 -15 9 -41l-189 -321l234 -296q19 -24 -3 -42q-23 -18 -42 7l-239 304h-191v-286q0 -13 -8.5 -22t-21.5 -9t-21 8.5t-8 22.5v649q0 13 8.5 21.5t21.5 8.5t21 -8.5t8 -22.5z" unicode="к" glyph-name="uni043A" horiz-adv-x="727"/>
<glyph d="M271 644v-228q0 -145 -8 -212.5t-30 -106.5q-59 -102 -138 -102q-35 0 -35 27q0 23 30 29q30 7 49.5 23.5t41.5 52.5q18 31 24.5 92.5t6.5 198.5v253q0 12 8 20.5t20 8.5h387q12 0 20 -7.5t8 -20.5v-646q0 -13 -8.5 -22t-21.5 -9t-21 8.5t-8 22.5v618h-325z" unicode="л" glyph-name="uni043B" horiz-adv-x="785"/>
<glyph d="M184 693l268 -329l264 329q10 12 23 12q11 0 21 -8q9 -9 9 -22v-652q0 -28 -28 -28q-13 0 -22 8t-9 20v573l-238 -294q-10 -11 -23 -11q-14 0 -22 11l-238 294v-573q0 -12 -8 -20t-21 -8t-21.5 8t-8.5 20v652q0 13 10 22q8 8 20 8q14 0 24 -12z" unicode="м" glyph-name="uni043C" horiz-adv-x="899"/>
<glyph d="M189 674v-409h455v410q0 13 8.5 21.5t21.5 8.5t21 -8.5t8 -22.5v-649q0 -13 -8.5 -21.5t-21.5 -8.5t-21 8.5t-8 21.5v184h-455v-183q0 -13 -8.5 -22t-21.5 -9t-21 8.5t-8 22.5v649q0 13 8.5 21.5t21.5 8.5t21 -8.5t8 -22.5z" unicode="н" glyph-name="uni043D"/>
<glyph d="M445 -5q-155 0 -252.5 97.5t-97.5 252.5q0 151 99 255.5t251 104.5t251 -104t99 -256q0 -150 -98.5 -250t-251.5 -100zM445 649q-124 0 -207.5 -88.5t-83.5 -215.5t80.5 -210.5t210.5 -83.5q125 0 208 84t83 210q0 129 -83 216.5t-208 87.5z" unicode="о" glyph-name="uni043E" horiz-adv-x="890"/>
<glyph d="M622 644h-433v-618q0 -13 -8.5 -22t-21.5 -9t-21 8.5t-8 22.5v646q0 13 8 20.5t20 7.5h495q12 0 20 -7.5t8 -20.5v-646q0 -13 -8.5 -22t-21.5 -9t-21 8.5t-8 22.5v618z" unicode="п" glyph-name="uni043F" horiz-adv-x="811"/>
<glyph d="M326 217h-137v-192q0 -13 -8 -21.5t-21 -8.5q-14 0 -22 8.5t-8 21.5v646q0 12 9 20.5t21 8.5h173q108 0 175 -68t67 -176q0 -107 -69.5 -173t-179.5 -66zM189 644v-371h134q86 0 139.5 50t53.5 133q0 84 -49.5 136t-142.5 52h-135z" unicode="р" glyph-name="uni0440" horiz-adv-x="670"/>
<glyph d="M445 -5q-162 0 -256 99t-94 252q0 166 98.5 262.5t251.5 96.5q129 0 230 -82q9 -8 10.5 -20t-6.5 -21q-7 -9 -20 -9.5t-22 7.5q-83 69 -192 69q-128 0 -209.5 -79.5t-81.5 -216.5q0 -135 79.5 -218.5t211.5 -83.5q115 0 196 72q9 8 21.5 8.5t20.5 -8.5t6.5 -20.5 t-10.5 -20.5q-94 -87 -234 -87z" unicode="с" glyph-name="uni0441" horiz-adv-x="775"/>
<glyph d="M576 644h-232v-618q0 -13 -8.5 -22t-21.5 -9t-21 8.5t-8 22.5v618h-232q-12 0 -20 7.5t-8 20.5t8 20.5t20 7.5h523q12 0 20 -7.5t8 -20.5q0 -12 -8 -20t-20 -8z" unicode="т" glyph-name="uni0442" horiz-adv-x="629"/>
<glyph d="M366 152l3 6l-274 501q-5 10 -5 18q0 16 13 24q7 4 15 4q18 0 26 -17l256 -469l236 469q9 16 26 16q10 0 18 -6q10 -9 10 -21q0 -11 -6 -22l-270 -532q-66 -128 -183 -128q-16 0 -35.5 4t-38 15.5t-18.5 27.5q0 10 7 18t18 8q9 0 27 -9q18 -8 42 -8q82 0 133 101z" unicode="у" glyph-name="uni0443" horiz-adv-x="730"/>
<glyph d="M453 -10v78h-67q-144 0 -217.5 83.5t-73.5 210.5q0 120 75.5 199.5t199.5 79.5h83v68q0 14 8 22.5t21 8.5t21.5 -8.5t8.5 -21.5v-69h83q124 0 199.5 -79.5t75.5 -199.5q0 -127 -73.5 -210.5t-217.5 -83.5h-67v-78q0 -13 -8 -21.5t-21 -8.5t-21.5 8.5t-8.5 21.5zM581 585 h-69v-461h79q105 0 162.5 65t57.5 168q0 101 -59.5 164.5t-170.5 63.5zM154 357q0 -103 57.5 -168t162.5 -65h79v461h-69q-111 0 -170.5 -63.5t-59.5 -164.5z" unicode="ф" glyph-name="uni0444" horiz-adv-x="965"/>
<glyph d="M645 7l-243 306l-243 -306q-8 -10 -20.5 -12t-22.5 6q-23 20 -3 42l251 318l-232 294q-19 24 3 42q10 8 22.5 6.5t20.5 -11.5l229 -290l229 290q8 10 20.5 11.5t22.5 -6.5q22 -18 3 -42l-238 -301l247 -311q20 -22 -3 -42q-10 -8 -22.5 -6t-20.5 12z" unicode="х" glyph-name="uni0445" horiz-adv-x="804"/>
<glyph d="M697 0h-539q-12 0 -20 7.5t-8 20.5v646q0 13 8.5 22t21.5 9t21 -8.5t8 -22.5v-618h400v618q0 13 8.5 22t21.5 9t21 -8.5t8 -22.5v-618h80q12 0 20 -7.5t8 -20.5v-176q0 -13 -8.5 -22t-21.5 -9t-21 8.5t-8 22.5v148z" unicode="ц" glyph-name="uni0446" horiz-adv-x="826"/>
<glyph d="M559 26v203q-83 -18 -179 -18q-143 0 -211.5 53t-68.5 191v220q0 13 8.5 21.5t21.5 8.5t21 -8.5t8 -22.5v-219q0 -109 53 -148.5t177 -39.5q85 0 170 19v388q0 14 8 22.5t21 8.5t21.5 -8.5t8.5 -21.5v-649q0 -14 -8 -22.5t-21 -8.5t-21.5 9t-8.5 22z" unicode="ч" glyph-name="uni0447" horiz-adv-x="748"/>
<glyph d="M568 56h320v618q0 13 8.5 22t21.5 9t21 -8.5t8 -22.5v-646q0 -13 -8 -20.5t-20 -7.5h-761q-12 0 -20 7.5t-8 20.5v646q0 13 8.5 22t21.5 9t21 -8.5t8 -22.5v-618h320v618q0 13 8.5 22t21.5 9t21 -8.5t8 -22.5v-618z" unicode="ш" glyph-name="uni0448" horiz-adv-x="1077"/>
<glyph d="M568 56h320v618q0 13 8.5 22t21.5 9t21 -8.5t8 -22.5v-618h80q12 0 20 -7.5t8 -20.5v-176q0 -13 -8.5 -22t-21.5 -9t-21 8.5t-8 22.5v148h-838q-12 0 -20 7.5t-8 20.5v646q0 13 8.5 22t21.5 9t21 -8.5t8 -22.5v-618h320v618q0 13 8.5 22t21.5 9t21 -8.5t8 -22.5v-618z " unicode="щ" glyph-name="uni0449" horiz-adv-x="1125"/>
<glyph d="M462 0h-157q-46 0 -46 36v608h-191q-12 0 -20 7.5t-8 20.5t8 20.5t20 7.5h222q12 0 20 -7.5t8 -20.5v-210h146q105 0 172.5 -61t67.5 -168t-66.5 -170t-175.5 -63zM645 233q0 82 -52.5 127.5t-140.5 45.5h-134v-350h135q94 0 143 47.5t49 129.5z" unicode="ъ" glyph-name="uni044A" horiz-adv-x="793"/>
<glyph d="M755 674v-648q0 -13 -8.5 -22t-21.5 -9t-21 8.5t-8 22.5v649q0 13 8.5 21.5t21.5 8.5t21 -8.5t8 -22.5zM130 36v639q0 13 8.5 21.5t21.5 8.5t21 -8.5t8 -22.5v-212h146q105 0 172.5 -61t67.5 -168t-66.5 -170t-175.5 -63h-157q-46 0 -46 36zM516 233q0 82 -52.5 127.5 t-140.5 45.5h-134v-350h135q94 0 143 47.5t49 129.5z" unicode="ы" glyph-name="uni044B" horiz-adv-x="885"/>
<glyph d="M130 36v639q0 13 8.5 21.5t21.5 8.5t21 -8.5t8 -22.5v-212h146q105 0 172.5 -61t67.5 -168t-66.5 -170t-175.5 -63h-157q-46 0 -46 36zM516 233q0 82 -52.5 127.5t-140.5 45.5h-134v-350h135q94 0 143 47.5t49 129.5z" unicode="ь" glyph-name="uni044C" horiz-adv-x="664"/>
<glyph d="M630 316h-417q-12 -1 -20.5 7.5t-8.5 20.5q0 28 28 28h419q-8 126 -83.5 201.5t-199.5 75.5q-115 0 -196 -72q-9 -8 -21.5 -8.5t-20.5 8.5t-6.5 20.5t10.5 20.5q94 87 234 87q161 0 252 -98.5t91 -252.5q0 -166 -98.5 -262.5t-251.5 -96.5q-129 0 -230 82q-9 8 -10.5 20 t6.5 21q7 9 20 9.5t22 -7.5q83 -69 192 -69q120 0 199.5 70.5t89.5 194.5z" unicode="э" glyph-name="uni044D" horiz-adv-x="786"/>
<glyph d="M675 -5q-141 0 -235 91.5t-102 232.5h-149v-293q0 -13 -8.5 -22t-21.5 -9t-21 8.5t-8 22.5v649q0 13 8.5 21.5t21.5 8.5t21 -8.5t8 -22.5v-299h149q9 143 102 236.5t243 93.5q144 0 236.5 -104t92.5 -256q0 -151 -93.5 -250.5t-243.5 -99.5zM679 649q-127 0 -205 -87.5 t-78 -216.5q0 -126 79.5 -210t203.5 -84q119 0 196.5 84t77.5 210q0 130 -77.5 217t-196.5 87z" unicode="ю" glyph-name="uni044E" horiz-adv-x="1107"/>
<glyph d="M539 -5q-13 0 -21 8.5t-8 21.5v192h-137q-13 0 -39 2l-166 -211q-19 -25 -42 -7q-22 18 -3 42l150 190q-69 26 -109 84.5t-40 138.5q0 108 67 176t175 68h173q12 0 21 -8.5t9 -20.5v-646q0 -13 -8.5 -21.5t-21.5 -8.5zM183 456q0 -83 53.5 -133t139.5 -50h134v371h-135 q-93 0 -142.5 -52t-49.5 -136z" unicode="я" glyph-name="uni044F" horiz-adv-x="699"/>
<glyph d="M505 816q0 -18 -12.5 -30t-29.5 -12t-29.5 12t-12.5 30q0 17 12.5 29.5t29.5 12.5t29.5 -12.5t12.5 -29.5zM256 816q0 -18 -12.5 -30t-29.5 -12t-29.5 12t-12.5 30q0 17 12.5 29.5t29.5 12.5t29.5 -12.5t12.5 -29.5zM533 56q13 0 21 -8t8 -21q0 -12 -8.5 -19.5 t-20.5 -7.5h-373q-12 0 -21 8t-9 21v640q0 14 8 22.5t22 8.5h373q12 0 20.5 -7.5t8.5 -19.5t-8 -20.5t-21 -8.5h-344v-377h254q12 1 20.5 -7.5t8.5 -20.5q0 -28 -28 -28h-255v-155h344z" unicode="ё" glyph-name="uni0451"/>
</font>
</defs>
</svg>
